<?xml version="1.0" encoding="utf-8"?>
<!-- Generator: Adobe Illustrator 16.0.0, SVG Export Plug-In . SVG Version: 6.00 Build 0)  -->
<!DOCTYPE svg PUBLIC "-//W3C//DTD SVG 1.1//EN" "http://www.w3.org/Graphics/SVG/1.1/DTD/svg11.dtd">
<svg version="1.1" id="Capa_1" xmlns="http://www.w3.org/2000/svg" xmlns:xlink="http://www.w3.org/1999/xlink" x="0px" y="0px"
	 width="52.787px" height="72px" viewBox="0 0 52.787 72" enable-background="new 0 0 52.787 72" xml:space="preserve">
<g>
	<g>
		<linearGradient id="SVGID_2_" gradientUnits="userSpaceOnUse" x1="26.3936" y1="1.5024" x2="26.3936" y2="72.2934">
			<stop  offset="0" style="stop-color:#FAB60A"/>
			<stop  offset="1" style="stop-color:#E62944"/>
		</linearGradient>
		<path fill-rule="evenodd" clip-rule="evenodd" fill="url(#SVGID_2_)" d="M26.392,72C17.198,67.892,0,47.349,0,26.391
			C0,11.813,11.814,0,26.392,0c14.581,0,26.396,11.813,26.396,26.391C52.787,47.349,35.589,67.892,26.392,72z"/>
		<path fill-rule="evenodd" clip-rule="evenodd" fill="#F3963A" d="M29.185,48.055c11.937,0,21.665-9.73,21.665-21.664
			c0-11.931-9.729-21.662-21.665-21.662c-11.931,0-21.662,9.731-21.662,21.662C7.522,38.324,17.254,48.055,29.185,48.055z"/>
		<path fill-rule="evenodd" clip-rule="evenodd" fill="#FFFFFF" d="M26.394,48.055c11.932,0,21.665-9.73,21.665-21.664
			c0-11.931-9.733-21.662-21.665-21.662S4.729,14.459,4.729,26.391C4.729,38.324,14.462,48.055,26.394,48.055z"/>
	</g>
	<g>
		<path fill="#3A3A3A" d="M10.161,24.474H9.52l1.963-4.611h0.659l1.85,4.611H13.27l-0.457-1.191h-2.138L10.161,24.474z
			 M12.622,22.757l-0.849-2.272l-0.894,2.272H12.622z"/>
		<path fill="#3A3A3A" d="M17.027,23.393c-0.022,0.375-0.144,0.663-0.358,0.86c-0.215,0.2-0.512,0.3-0.895,0.3
			c-0.455,0-0.809-0.141-1.057-0.423c-0.246-0.28-0.372-0.677-0.372-1.195c0-0.552,0.13-0.983,0.392-1.29
			c0.258-0.308,0.62-0.462,1.081-0.462c0.359,0,0.648,0.096,0.863,0.292c0.215,0.193,0.323,0.455,0.323,0.782v0.013h-0.577
			c0-0.194-0.062-0.352-0.188-0.479c-0.124-0.13-0.279-0.194-0.466-0.194c-0.252,0-0.45,0.107-0.593,0.322
			c-0.147,0.214-0.219,0.506-0.219,0.875c0,0.432,0.066,0.758,0.201,0.978c0.135,0.219,0.334,0.33,0.6,0.33
			c0.206,0,0.37-0.065,0.494-0.193c0.127-0.129,0.191-0.301,0.195-0.517H17.027z"/>
		<path fill="#3A3A3A" d="M17.405,21.262h0.549v-0.66l0.588-0.202v0.861h0.716v0.422h-0.716v1.972c0,0.167,0.026,0.277,0.083,0.33
			c0.054,0.052,0.163,0.08,0.326,0.08c0.041,0,0.086-0.005,0.135-0.011c0.048-0.008,0.099-0.019,0.158-0.033v0.447
			c-0.095,0.025-0.182,0.044-0.258,0.058c-0.079,0.015-0.147,0.021-0.207,0.021c-0.305,0-0.515-0.052-0.64-0.157
			c-0.124-0.103-0.186-0.279-0.186-0.525v-2.18h-0.549V21.262z"/>
		<path fill="#3A3A3A" d="M20.519,20.517h-0.693v-0.654h0.693V20.517z M19.879,24.474v-3.212h0.593v3.212H19.879z"/>
		<path fill="#3A3A3A" d="M22.388,24.474l-1.311-3.212h0.601l1.023,2.547l1.038-2.547h0.589l-1.358,3.212H22.388z"/>
		<path fill="#3A3A3A" d="M25.596,20.517h-0.693v-0.654h0.693V20.517z M24.956,24.474v-3.212h0.593v3.212H24.956z"/>
		<path fill="#3A3A3A" d="M28.845,24.474L28.82,24c-0.149,0.195-0.305,0.336-0.467,0.423c-0.16,0.087-0.349,0.13-0.564,0.13
			c-0.44,0-0.789-0.148-1.045-0.444c-0.255-0.295-0.383-0.702-0.383-1.217c0-0.525,0.125-0.939,0.374-1.235
			c0.25-0.297,0.594-0.445,1.036-0.445c0.218,0,0.418,0.045,0.597,0.137c0.177,0.09,0.328,0.224,0.452,0.4v-1.886h0.589v3.971
			c0,0.112,0.002,0.22,0.01,0.325c0.006,0.104,0.015,0.21,0.028,0.315H28.845z M26.977,22.83c0,0.41,0.086,0.733,0.253,0.973
			s0.388,0.358,0.664,0.358c0.281,0,0.507-0.111,0.675-0.332c0.168-0.223,0.252-0.523,0.252-0.899c0-0.407-0.081-0.732-0.249-0.972
			c-0.167-0.24-0.389-0.36-0.665-0.36c-0.282,0-0.506,0.111-0.677,0.333C27.062,22.155,26.977,22.454,26.977,22.83z"/>
		<path fill="#3A3A3A" d="M32.866,24.474h-0.531c-0.021-0.067-0.042-0.229-0.062-0.487v-0.019c-0.081,0.191-0.209,0.334-0.387,0.435
			c-0.176,0.1-0.391,0.15-0.645,0.15c-0.325,0-0.586-0.088-0.782-0.267c-0.195-0.178-0.292-0.413-0.292-0.704
			c0-0.339,0.135-0.609,0.405-0.807c0.272-0.199,0.642-0.299,1.109-0.299h0.56v-0.392c0-0.172-0.054-0.302-0.162-0.39
			c-0.105-0.09-0.264-0.133-0.474-0.133c-0.195,0-0.354,0.049-0.469,0.148c-0.113,0.097-0.179,0.231-0.185,0.402h-0.568v-0.05
			c0-0.282,0.102-0.501,0.306-0.651c0.203-0.152,0.494-0.226,0.876-0.226c0.445,0,0.766,0.078,0.968,0.234
			c0.202,0.157,0.301,0.413,0.301,0.765v1.985c0,0.026,0.004,0.067,0.009,0.123C32.849,24.347,32.856,24.407,32.866,24.474z
			 M32.241,22.88H31.74c-0.305,0-0.543,0.058-0.712,0.17c-0.17,0.115-0.252,0.273-0.252,0.477c0,0.154,0.055,0.286,0.172,0.388
			c0.114,0.104,0.258,0.155,0.435,0.155c0.276,0,0.487-0.074,0.637-0.222c0.147-0.15,0.222-0.366,0.222-0.648V22.88z"/>
		<path fill="#3A3A3A" d="M36.098,24.474L36.073,24c-0.151,0.195-0.306,0.336-0.469,0.423c-0.16,0.087-0.349,0.13-0.562,0.13
			c-0.44,0-0.791-0.148-1.047-0.444c-0.255-0.295-0.381-0.702-0.381-1.217c0-0.525,0.123-0.939,0.374-1.235
			c0.248-0.297,0.594-0.445,1.034-0.445c0.22,0,0.419,0.045,0.595,0.137c0.179,0.09,0.331,0.224,0.456,0.4v-1.886h0.589v3.971
			c0,0.112,0.004,0.22,0.007,0.325c0.008,0.104,0.018,0.21,0.029,0.315H36.098z M34.228,22.83c0,0.41,0.085,0.733,0.254,0.973
			c0.166,0.24,0.389,0.358,0.663,0.358c0.283,0,0.506-0.111,0.678-0.332c0.167-0.223,0.251-0.523,0.251-0.899
			c0-0.407-0.083-0.732-0.251-0.972c-0.167-0.24-0.389-0.36-0.666-0.36c-0.282,0-0.505,0.111-0.674,0.333
			C34.314,22.155,34.228,22.454,34.228,22.83z"/>
		<path fill="#3A3A3A" d="M40.298,23.442c-0.004,0.334-0.124,0.603-0.36,0.805c-0.236,0.203-0.548,0.306-0.938,0.306
			c-0.501,0-0.88-0.141-1.138-0.414c-0.259-0.275-0.388-0.678-0.388-1.209c0-0.563,0.129-0.999,0.382-1.298
			c0.257-0.298,0.621-0.448,1.097-0.448c0.435,0,0.779,0.125,1.027,0.372c0.251,0.25,0.375,0.588,0.375,1.017
			c0,0.104,0,0.184-0.002,0.239c-0.003,0.054-0.007,0.104-0.009,0.153h-2.28v0.062v0.129c0,0.303,0.078,0.538,0.235,0.704
			c0.157,0.166,0.376,0.248,0.662,0.248c0.235,0,0.423-0.06,0.562-0.18c0.138-0.12,0.21-0.283,0.215-0.487H40.298z M38.096,22.548
			h1.656v-0.071c0-0.267-0.074-0.484-0.22-0.646c-0.147-0.163-0.338-0.245-0.571-0.245c-0.256,0-0.465,0.089-0.624,0.265
			C38.177,22.029,38.096,22.262,38.096,22.548z"/>
		<path fill="#3A3A3A" d="M40.942,23.509h0.594v0.013c0,0.175,0.062,0.315,0.187,0.421c0.124,0.106,0.289,0.16,0.495,0.16
			c0.202,0,0.364-0.047,0.487-0.14c0.121-0.094,0.186-0.217,0.186-0.366c0-0.11-0.032-0.2-0.093-0.271
			c-0.064-0.068-0.162-0.118-0.295-0.152l-0.681-0.159c-0.288-0.066-0.503-0.171-0.643-0.311c-0.142-0.138-0.212-0.315-0.212-0.529
			c0-0.291,0.118-0.53,0.357-0.712c0.239-0.183,0.553-0.273,0.943-0.273c0.359,0,0.645,0.074,0.855,0.227
			c0.207,0.15,0.31,0.357,0.31,0.62c0,0.025,0,0.044,0,0.058c-0.002,0.013-0.003,0.027-0.007,0.036h-0.588v-0.025
			c0-0.154-0.057-0.275-0.166-0.365s-0.259-0.136-0.448-0.136c-0.186,0-0.339,0.046-0.46,0.136c-0.12,0.09-0.182,0.201-0.182,0.333
			c0,0.104,0.037,0.188,0.11,0.252c0.071,0.063,0.196,0.119,0.361,0.164l0.731,0.2c0.255,0.067,0.44,0.171,0.561,0.312
			c0.121,0.142,0.181,0.323,0.181,0.55c0,0.304-0.116,0.548-0.346,0.727c-0.233,0.182-0.543,0.274-0.938,0.274
			c-0.448,0-0.777-0.079-0.986-0.235c-0.211-0.157-0.315-0.402-0.315-0.735V23.509z"/>
		<path fill="#3A3A3A" d="M16.029,28.198h-0.691v-0.652h0.691V28.198z M15.389,32.156v-3.214h0.594v3.214H15.389z"/>
		<path fill="#3A3A3A" d="M17.598,29.469c0.071-0.172,0.198-0.311,0.378-0.413c0.18-0.101,0.389-0.15,0.627-0.15
			c0.212,0,0.406,0.039,0.582,0.114c0.176,0.078,0.314,0.183,0.413,0.32c0.059,0.075,0.099,0.166,0.122,0.271
			c0.023,0.105,0.037,0.289,0.037,0.547v1.997h-0.592v-2.029c0-0.27-0.059-0.47-0.173-0.597c-0.116-0.126-0.296-0.19-0.544-0.19
			c-0.249,0-0.454,0.066-0.612,0.202c-0.159,0.138-0.238,0.312-0.238,0.526v2.088h-0.597v-2.554c0-0.119-0.002-0.233-0.004-0.343
			c-0.006-0.11-0.013-0.215-0.021-0.318h0.601L17.598,29.469z"/>
		<path fill="#3A3A3A" d="M21.395,28.198h-0.695v-0.652h0.695V28.198z M20.752,32.156v-3.214h0.595v3.214H20.752z"/>
		<path fill="#3A3A3A" d="M24.835,31.075c-0.024,0.375-0.146,0.662-0.359,0.861c-0.215,0.2-0.512,0.298-0.894,0.298
			c-0.457,0-0.809-0.14-1.058-0.419c-0.25-0.282-0.37-0.68-0.37-1.198c0-0.551,0.129-0.98,0.386-1.29
			c0.263-0.308,0.622-0.462,1.086-0.462c0.359,0,0.649,0.097,0.861,0.292c0.216,0.195,0.323,0.456,0.323,0.783v0.012h-0.575
			c0-0.192-0.064-0.351-0.188-0.479c-0.127-0.128-0.281-0.193-0.466-0.193c-0.253,0-0.451,0.108-0.596,0.321
			c-0.146,0.214-0.217,0.506-0.217,0.876c0,0.432,0.067,0.758,0.2,0.978c0.136,0.219,0.334,0.329,0.598,0.329
			c0.206,0,0.375-0.064,0.498-0.191c0.125-0.129,0.189-0.3,0.195-0.518H24.835z"/>
		<path fill="#3A3A3A" d="M26.298,28.198h-0.694v-0.652h0.694V28.198z M25.657,32.156v-3.214h0.593v3.214H25.657z"/>
		<path fill="#3A3A3A" d="M29.714,32.156h-0.532c-0.021-0.067-0.041-0.229-0.062-0.488V31.65c-0.082,0.188-0.21,0.334-0.388,0.434
			c-0.174,0.101-0.39,0.15-0.644,0.15c-0.325,0-0.584-0.089-0.782-0.265c-0.196-0.178-0.294-0.412-0.294-0.703
			c0-0.34,0.137-0.611,0.406-0.809c0.271-0.199,0.643-0.298,1.11-0.298h0.56v-0.391c0-0.172-0.055-0.305-0.16-0.393
			c-0.108-0.09-0.266-0.133-0.477-0.133c-0.195,0-0.353,0.048-0.468,0.147c-0.118,0.098-0.177,0.233-0.185,0.403h-0.567v-0.051
			c0-0.282,0.102-0.5,0.304-0.651s0.496-0.226,0.877-0.226c0.445,0,0.767,0.078,0.968,0.235c0.201,0.157,0.301,0.412,0.301,0.765
			v1.985c0,0.028,0.003,0.068,0.01,0.123C29.696,32.029,29.704,32.089,29.714,32.156z M29.089,30.562h-0.501
			c-0.305,0-0.543,0.057-0.713,0.17c-0.169,0.114-0.251,0.273-0.251,0.476c0,0.158,0.057,0.287,0.171,0.39
			c0.115,0.104,0.26,0.154,0.434,0.154c0.278,0,0.489-0.073,0.638-0.223c0.147-0.149,0.223-0.365,0.223-0.648V30.562z"/>
		<path fill="#3A3A3A" d="M31.248,32.156h-0.593v-4.61h0.593V32.156z"/>
		<path fill="#3A3A3A" d="M34.89,31.124c-0.003,0.334-0.121,0.602-0.358,0.806c-0.234,0.203-0.55,0.304-0.938,0.304
			c-0.502,0-0.88-0.138-1.138-0.413s-0.388-0.677-0.388-1.209c0-0.565,0.126-0.996,0.382-1.297c0.255-0.3,0.621-0.449,1.096-0.449
			c0.435,0,0.778,0.125,1.03,0.372c0.246,0.25,0.373,0.59,0.373,1.019c0,0.106-0.001,0.184-0.003,0.237
			c-0.004,0.054-0.006,0.106-0.009,0.153h-2.278v0.063v0.128c0,0.305,0.077,0.54,0.233,0.705c0.156,0.164,0.376,0.248,0.662,0.248
			c0.235,0,0.423-0.06,0.562-0.179c0.138-0.12,0.208-0.283,0.213-0.487H34.89z M32.688,30.23h1.659v-0.071
			c0-0.267-0.075-0.483-0.222-0.646c-0.146-0.162-0.336-0.244-0.571-0.244c-0.257,0-0.464,0.088-0.624,0.265
			C32.77,29.71,32.688,29.943,32.688,30.23z"/>
		<path fill="#3A3A3A" d="M35.538,31.19h0.593v0.012c0,0.175,0.062,0.317,0.186,0.424c0.124,0.104,0.289,0.158,0.496,0.158
			c0.2,0,0.363-0.046,0.484-0.141c0.126-0.093,0.188-0.216,0.188-0.364c0-0.111-0.03-0.201-0.095-0.27
			c-0.062-0.07-0.158-0.121-0.295-0.152l-0.68-0.16c-0.288-0.066-0.501-0.169-0.644-0.308c-0.14-0.141-0.21-0.318-0.21-0.53
			c0-0.294,0.12-0.531,0.357-0.715c0.238-0.181,0.554-0.272,0.943-0.272c0.361,0,0.646,0.075,0.853,0.227
			c0.208,0.149,0.313,0.356,0.313,0.619c0,0.025,0,0.044-0.001,0.059c-0.003,0.014-0.005,0.026-0.006,0.035h-0.591v-0.024
			c0-0.154-0.055-0.275-0.163-0.365c-0.111-0.09-0.259-0.135-0.45-0.135c-0.184,0-0.339,0.045-0.457,0.135
			c-0.12,0.09-0.183,0.202-0.183,0.334c0,0.104,0.036,0.189,0.109,0.253c0.073,0.062,0.194,0.118,0.362,0.162l0.731,0.202
			c0.252,0.066,0.441,0.17,0.561,0.311c0.121,0.143,0.18,0.326,0.18,0.552c0,0.303-0.113,0.546-0.347,0.728
			c-0.229,0.18-0.543,0.271-0.938,0.271c-0.448,0-0.774-0.078-0.987-0.234c-0.207-0.155-0.312-0.401-0.312-0.733V31.19z"/>
	</g>
</g>
</svg>
