<?xml version="1.0" encoding="utf-8"?>
<!-- Generator: Adobe Illustrator 16.0.0, SVG Export Plug-In . SVG Version: 6.00 Build 0)  -->
<!DOCTYPE svg PUBLIC "-//W3C//DTD SVG 1.1//EN" "http://www.w3.org/Graphics/SVG/1.1/DTD/svg11.dtd">
<svg version="1.1" id="Capa_1" xmlns="http://www.w3.org/2000/svg" xmlns:xlink="http://www.w3.org/1999/xlink" x="0px" y="0px"
	 width="46.768px" height="63.789px" viewBox="0 0 46.768 63.789" enable-background="new 0 0 46.768 63.789" xml:space="preserve">
<g>
	<g>
		<linearGradient id="SVGID_2_" gradientUnits="userSpaceOnUse" x1="23.3838" y1="1.3311" x2="23.3838" y2="64.0485">
			<stop  offset="0" style="stop-color:#FAB60A"/>
			<stop  offset="1" style="stop-color:#E62944"/>
		</linearGradient>
		<path fill-rule="evenodd" clip-rule="evenodd" fill="url(#SVGID_2_)" d="M23.382,63.789C15.237,60.149,0,41.949,0,23.381
			C0,10.466,10.468,0,23.382,0C36.3,0,46.768,10.466,46.768,23.381C46.768,41.949,31.53,60.149,23.382,63.789z"/>
		<path fill-rule="evenodd" clip-rule="evenodd" fill="#F3963A" d="M25.856,42.574c10.575,0,19.194-8.621,19.194-19.193
			c0-10.57-8.619-19.191-19.194-19.191c-10.57,0-19.191,8.621-19.191,19.191C6.665,33.954,15.286,42.574,25.856,42.574z"/>
		<path fill-rule="evenodd" clip-rule="evenodd" fill="#FFFFFF" d="M23.384,42.574c10.571,0,19.194-8.621,19.194-19.193
			c0-10.57-8.623-19.191-19.194-19.191S4.189,12.811,4.189,23.381C4.189,33.954,12.812,42.574,23.384,42.574z"/>
	</g>
	<g>
		<path fill="#3A3A3A" d="M9.003,21.683H8.435l1.738-4.085h0.584l1.639,4.085h-0.639l-0.405-1.055H9.458L9.003,21.683z
			 M11.183,20.162l-0.752-2.013L9.64,20.162H11.183z"/>
		<path fill="#3A3A3A" d="M15.086,20.725c-0.021,0.333-0.127,0.587-0.317,0.762c-0.19,0.177-0.454,0.266-0.793,0.266
			c-0.403,0-0.716-0.125-0.936-0.375c-0.219-0.248-0.33-0.6-0.33-1.059c0-0.489,0.115-0.871,0.347-1.143
			c0.229-0.272,0.55-0.409,0.958-0.409c0.318,0,0.574,0.085,0.765,0.259c0.19,0.171,0.286,0.403,0.286,0.693v0.012h-0.511
			c0-0.172-0.055-0.312-0.166-0.425c-0.11-0.115-0.248-0.172-0.413-0.172c-0.223,0-0.398,0.095-0.525,0.285
			c-0.13,0.189-0.193,0.448-0.193,0.775c0,0.382,0.059,0.671,0.178,0.866c0.12,0.194,0.296,0.292,0.531,0.292
			c0.183,0,0.328-0.058,0.438-0.171c0.112-0.114,0.169-0.267,0.173-0.458H15.086z"/>
		<path fill="#3A3A3A" d="M15.421,18.837h0.486v-0.584l0.521-0.179v0.763h0.634v0.374h-0.634v1.747c0,0.147,0.023,0.245,0.073,0.292
			c0.048,0.046,0.145,0.07,0.289,0.07c0.036,0,0.076-0.004,0.119-0.009c0.043-0.007,0.088-0.017,0.141-0.03v0.396
			c-0.084,0.022-0.161,0.039-0.229,0.051c-0.07,0.013-0.131,0.018-0.184,0.018c-0.27,0-0.456-0.046-0.566-0.139
			c-0.11-0.091-0.164-0.247-0.164-0.465V19.21h-0.486V18.837z"/>
		<path fill="#3A3A3A" d="M18.179,18.177h-0.614v-0.579h0.614V18.177z M17.612,21.683v-2.846h0.525v2.846H17.612z"/>
		<path fill="#3A3A3A" d="M19.835,21.683l-1.161-2.846h0.532l0.906,2.256l0.92-2.256h0.521l-1.203,2.846H19.835z"/>
		<path fill="#3A3A3A" d="M22.677,18.177h-0.614v-0.579h0.614V18.177z M22.11,21.683v-2.846h0.525v2.846H22.11z"/>
		<path fill="#3A3A3A" d="M25.556,21.683l-0.021-0.42c-0.133,0.173-0.271,0.298-0.414,0.375c-0.142,0.077-0.309,0.115-0.5,0.115
			c-0.391,0-0.699-0.131-0.926-0.394c-0.226-0.262-0.339-0.622-0.339-1.078c0-0.465,0.11-0.832,0.331-1.094
			c0.222-0.264,0.526-0.395,0.918-0.395c0.193,0,0.37,0.04,0.528,0.121c0.157,0.08,0.291,0.198,0.401,0.354v-1.67h0.521v3.518
			c0,0.1,0.002,0.195,0.009,0.288c0.005,0.092,0.013,0.186,0.024,0.28H25.556z M23.9,20.227c0,0.363,0.076,0.649,0.224,0.861
			c0.148,0.212,0.344,0.318,0.589,0.318c0.249,0,0.449-0.098,0.598-0.294c0.148-0.197,0.224-0.463,0.224-0.797
			c0-0.361-0.072-0.648-0.221-0.861s-0.345-0.319-0.59-0.319c-0.25,0-0.448,0.099-0.6,0.295C23.977,19.628,23.9,19.893,23.9,20.227z
			"/>
		<path fill="#3A3A3A" d="M29.118,21.683h-0.471c-0.019-0.06-0.037-0.203-0.056-0.432v-0.017c-0.071,0.169-0.185,0.296-0.342,0.385
			c-0.156,0.088-0.347,0.133-0.571,0.133c-0.288,0-0.52-0.078-0.693-0.236c-0.173-0.157-0.259-0.365-0.259-0.623
			c0-0.3,0.12-0.54,0.359-0.715c0.241-0.176,0.568-0.265,0.982-0.265h0.496v-0.347c0-0.152-0.048-0.268-0.144-0.346
			c-0.094-0.08-0.233-0.118-0.42-0.118c-0.173,0-0.312,0.043-0.415,0.131c-0.101,0.086-0.158,0.205-0.163,0.356h-0.504v-0.044
			c0-0.25,0.09-0.444,0.271-0.577c0.181-0.134,0.438-0.2,0.776-0.2c0.395,0,0.679,0.069,0.857,0.208
			c0.179,0.14,0.267,0.366,0.267,0.678v1.759c0,0.023,0.003,0.06,0.008,0.109S29.109,21.624,29.118,21.683z M28.564,20.271h-0.443
			c-0.271,0-0.481,0.051-0.631,0.151c-0.15,0.102-0.224,0.242-0.224,0.423c0,0.137,0.049,0.253,0.152,0.344
			c0.102,0.092,0.229,0.138,0.385,0.138c0.245,0,0.432-0.066,0.564-0.197c0.131-0.133,0.196-0.325,0.196-0.575V20.271z"/>
		<path fill="#3A3A3A" d="M31.981,21.683l-0.021-0.42c-0.135,0.173-0.271,0.298-0.416,0.375c-0.142,0.077-0.309,0.115-0.498,0.115
			c-0.391,0-0.701-0.131-0.928-0.394c-0.226-0.262-0.337-0.622-0.337-1.078c0-0.465,0.108-0.832,0.331-1.094
			c0.22-0.264,0.526-0.395,0.916-0.395c0.195,0,0.371,0.04,0.527,0.121c0.158,0.08,0.293,0.198,0.404,0.354v-1.67h0.521v3.518
			c0,0.1,0.003,0.195,0.006,0.288c0.007,0.092,0.016,0.186,0.026,0.28H31.981z M30.324,20.227c0,0.363,0.075,0.649,0.225,0.861
			c0.147,0.212,0.345,0.318,0.588,0.318c0.251,0,0.448-0.098,0.601-0.294c0.147-0.197,0.223-0.463,0.223-0.797
			c0-0.361-0.074-0.648-0.223-0.861s-0.345-0.319-0.59-0.319c-0.25,0-0.447,0.099-0.598,0.295
			C30.401,19.628,30.324,19.893,30.324,20.227z"/>
		<path fill="#3A3A3A" d="M35.702,20.769c-0.003,0.296-0.109,0.534-0.319,0.713c-0.209,0.18-0.485,0.271-0.831,0.271
			c-0.444,0-0.779-0.125-1.008-0.367c-0.229-0.244-0.344-0.601-0.344-1.071c0-0.499,0.114-0.885,0.338-1.15
			c0.228-0.264,0.551-0.397,0.972-0.397c0.386,0,0.69,0.111,0.91,0.33c0.223,0.222,0.333,0.521,0.333,0.901
			c0,0.092,0,0.163-0.002,0.212c-0.003,0.048-0.006,0.092-0.008,0.135h-2.021v0.055v0.114c0,0.269,0.069,0.477,0.209,0.624
			c0.139,0.146,0.333,0.22,0.586,0.22c0.209,0,0.375-0.053,0.498-0.159c0.122-0.106,0.186-0.251,0.19-0.432H35.702z M33.751,19.977
			h1.468v-0.063c0-0.236-0.065-0.429-0.194-0.572c-0.131-0.145-0.3-0.217-0.507-0.217c-0.227,0-0.411,0.079-0.553,0.235
			C33.823,19.517,33.751,19.723,33.751,19.977z"/>
		<path fill="#3A3A3A" d="M36.273,20.828H36.8v0.011c0,0.155,0.055,0.279,0.165,0.374c0.109,0.094,0.256,0.141,0.438,0.141
			c0.179,0,0.322-0.042,0.432-0.124c0.107-0.083,0.164-0.192,0.164-0.324c0-0.098-0.028-0.178-0.082-0.24
			c-0.057-0.061-0.144-0.105-0.261-0.135l-0.604-0.141c-0.255-0.059-0.445-0.151-0.569-0.275c-0.125-0.123-0.188-0.279-0.188-0.468
			c0-0.258,0.104-0.47,0.316-0.631c0.212-0.162,0.49-0.242,0.836-0.242c0.318,0,0.571,0.065,0.758,0.201
			c0.184,0.133,0.274,0.316,0.274,0.549c0,0.022,0,0.04,0,0.051c-0.002,0.011-0.003,0.023-0.006,0.032h-0.521v-0.022
			c0-0.136-0.05-0.244-0.146-0.323s-0.229-0.121-0.397-0.121c-0.164,0-0.3,0.041-0.407,0.121c-0.106,0.08-0.161,0.178-0.161,0.295
			c0,0.092,0.033,0.167,0.098,0.223c0.063,0.057,0.174,0.105,0.32,0.146l0.648,0.177c0.226,0.06,0.39,0.152,0.496,0.277
			c0.107,0.125,0.16,0.287,0.16,0.488c0,0.27-0.103,0.485-0.307,0.644c-0.206,0.161-0.48,0.243-0.83,0.243
			c-0.397,0-0.688-0.07-0.874-0.208c-0.187-0.139-0.279-0.356-0.279-0.651V20.828z"/>
		<path fill="#3A3A3A" d="M14.201,24.982h-0.612v-0.578h0.612V24.982z M13.634,28.489v-2.848h0.526v2.848H13.634z"/>
		<path fill="#3A3A3A" d="M15.591,26.108c0.063-0.153,0.176-0.275,0.335-0.366c0.159-0.089,0.345-0.133,0.556-0.133
			c0.188,0,0.359,0.034,0.516,0.102c0.155,0.069,0.278,0.162,0.366,0.283c0.052,0.066,0.087,0.146,0.107,0.241
			c0.021,0.093,0.033,0.256,0.033,0.485v1.769h-0.524v-1.797c0-0.239-0.052-0.416-0.153-0.529c-0.103-0.112-0.262-0.168-0.481-0.168
			c-0.221,0-0.402,0.059-0.543,0.179c-0.141,0.122-0.211,0.276-0.211,0.466v1.85h-0.528v-2.262c0-0.105-0.002-0.207-0.004-0.304
			c-0.005-0.098-0.011-0.191-0.018-0.282h0.532L15.591,26.108z"/>
		<path fill="#3A3A3A" d="M18.955,24.982h-0.616v-0.578h0.616V24.982z M18.386,28.489v-2.848h0.526v2.848H18.386z"/>
		<path fill="#3A3A3A" d="M22.003,27.531c-0.021,0.332-0.129,0.586-0.318,0.763c-0.19,0.177-0.453,0.264-0.792,0.264
			c-0.404,0-0.716-0.124-0.937-0.371c-0.222-0.25-0.328-0.603-0.328-1.062c0-0.488,0.114-0.869,0.342-1.143
			c0.232-0.273,0.551-0.409,0.962-0.409c0.318,0,0.575,0.086,0.764,0.259c0.19,0.173,0.286,0.404,0.286,0.693v0.011h-0.51
			c0-0.17-0.057-0.311-0.166-0.424c-0.112-0.113-0.249-0.171-0.413-0.171c-0.224,0-0.399,0.096-0.527,0.284
			c-0.129,0.189-0.192,0.449-0.192,0.776c0,0.383,0.06,0.671,0.178,0.866c0.12,0.194,0.296,0.291,0.529,0.291
			c0.183,0,0.332-0.057,0.441-0.169c0.11-0.114,0.168-0.266,0.173-0.458H22.003z"/>
		<path fill="#3A3A3A" d="M23.299,24.982h-0.615v-0.578h0.615V24.982z M22.731,28.489v-2.848h0.525v2.848H22.731z"/>
		<path fill="#3A3A3A" d="M26.325,28.489h-0.472c-0.018-0.06-0.036-0.203-0.054-0.432v-0.016c-0.073,0.167-0.187,0.296-0.344,0.384
			c-0.154,0.09-0.346,0.133-0.57,0.133c-0.288,0-0.518-0.079-0.693-0.235c-0.174-0.157-0.26-0.365-0.26-0.623
			c0-0.301,0.121-0.542,0.359-0.717c0.24-0.176,0.569-0.264,0.984-0.264h0.495v-0.346c0-0.153-0.048-0.27-0.142-0.348
			c-0.096-0.08-0.235-0.118-0.422-0.118c-0.174,0-0.312,0.042-0.415,0.13c-0.104,0.087-0.156,0.207-0.163,0.357h-0.503V26.35
			c0-0.25,0.09-0.443,0.27-0.577c0.179-0.134,0.439-0.2,0.776-0.2c0.395,0,0.68,0.069,0.857,0.208
			c0.179,0.139,0.267,0.365,0.267,0.678v1.759c0,0.024,0.003,0.06,0.009,0.108C26.31,28.376,26.316,28.429,26.325,28.489z
			 M25.771,27.077h-0.443c-0.271,0-0.481,0.05-0.632,0.15c-0.149,0.101-0.223,0.242-0.223,0.422c0,0.14,0.051,0.254,0.151,0.346
			c0.103,0.092,0.23,0.136,0.385,0.136c0.246,0,0.434-0.065,0.564-0.197s0.197-0.324,0.197-0.575V27.077z"/>
		<path fill="#3A3A3A" d="M27.685,28.489h-0.525v-4.084h0.525V28.489z"/>
		<path fill="#3A3A3A" d="M30.911,27.574c-0.003,0.296-0.107,0.533-0.317,0.714c-0.208,0.18-0.487,0.27-0.831,0.27
			c-0.444,0-0.779-0.122-1.008-0.366c-0.229-0.244-0.344-0.6-0.344-1.071c0-0.5,0.112-0.882,0.339-1.149
			c0.226-0.266,0.55-0.398,0.971-0.398c0.385,0,0.689,0.11,0.912,0.33c0.219,0.222,0.331,0.523,0.331,0.902
			c0,0.094-0.001,0.163-0.003,0.21c-0.003,0.048-0.005,0.094-0.008,0.136h-2.019v0.056v0.114c0,0.271,0.068,0.478,0.207,0.625
			c0.139,0.145,0.333,0.22,0.587,0.22c0.208,0,0.374-0.053,0.498-0.159c0.122-0.106,0.185-0.25,0.188-0.432H30.911z M28.961,26.782
			h1.47V26.72c0-0.237-0.066-0.428-0.196-0.573c-0.13-0.144-0.298-0.216-0.506-0.216c-0.228,0-0.411,0.078-0.553,0.235
			C29.032,26.322,28.961,26.528,28.961,26.782z"/>
		<path fill="#3A3A3A" d="M31.485,27.633h0.525v0.011c0,0.155,0.055,0.281,0.164,0.375c0.11,0.093,0.256,0.14,0.439,0.14
			c0.178,0,0.322-0.041,0.43-0.125c0.111-0.082,0.166-0.191,0.166-0.323c0-0.098-0.027-0.178-0.084-0.239
			c-0.055-0.062-0.141-0.107-0.262-0.135l-0.602-0.142c-0.256-0.059-0.444-0.15-0.57-0.272c-0.124-0.125-0.187-0.282-0.187-0.47
			c0-0.26,0.106-0.471,0.317-0.633c0.211-0.161,0.49-0.241,0.835-0.241c0.32,0,0.572,0.066,0.756,0.201
			c0.185,0.132,0.277,0.315,0.277,0.548c0,0.022,0,0.04-0.001,0.052c-0.002,0.012-0.004,0.023-0.005,0.031h-0.523v-0.021
			c0-0.137-0.049-0.244-0.145-0.324c-0.099-0.08-0.229-0.12-0.398-0.12c-0.163,0-0.301,0.04-0.405,0.12
			c-0.106,0.08-0.162,0.179-0.162,0.296c0,0.093,0.032,0.167,0.098,0.225c0.064,0.055,0.172,0.104,0.32,0.143l0.648,0.179
			c0.223,0.059,0.391,0.151,0.496,0.275c0.107,0.126,0.159,0.289,0.159,0.489c0,0.269-0.1,0.484-0.307,0.645
			c-0.203,0.16-0.481,0.24-0.831,0.24c-0.396,0-0.686-0.069-0.874-0.208c-0.184-0.138-0.276-0.355-0.276-0.65V27.633z"/>
	</g>
</g>
</svg>
