<?xml version="1.0" encoding="utf-8"?>
<!-- Generator: Adobe Illustrator 16.0.0, SVG Export Plug-In . SVG Version: 6.00 Build 0)  -->
<!DOCTYPE svg PUBLIC "-//W3C//DTD SVG 1.1//EN" "http://www.w3.org/Graphics/SVG/1.1/DTD/svg11.dtd">
<svg version="1.1" id="Capa_1" xmlns="http://www.w3.org/2000/svg" xmlns:xlink="http://www.w3.org/1999/xlink" x="0px" y="0px"
	 width="43.535px" height="56.671px" viewBox="0 0 43.535 56.671" enable-background="new 0 0 43.535 56.671" xml:space="preserve">
<g>
	<g>
		<g>
			<path fill="#B55E47" d="M0,1.184c0,20.754,0,33.549,0,54.304c0,1.578,2.445,1.578,2.445,0c0-20.755,0-33.55,0-54.304
				C2.445-0.395,0-0.395,0,1.184L0,1.184z"/>
		</g>
		<g>
			<linearGradient id="SVGID_2_" gradientUnits="userSpaceOnUse" x1="2.4453" y1="19.4004" x2="43.5352" y2="19.4004">
				<stop  offset="0" style="stop-color:#662483"/>
				<stop  offset="0.0043" style="stop-color:#682482"/>
				<stop  offset="0.1212" style="stop-color:#882277"/>
				<stop  offset="0.2425" style="stop-color:#A21E6D"/>
				<stop  offset="0.3694" style="stop-color:#B61963"/>
				<stop  offset="0.5021" style="stop-color:#C5155C"/>
				<stop  offset="0.6432" style="stop-color:#CF1056"/>
				<stop  offset="0.7985" style="stop-color:#D50C53"/>
				<stop  offset="0.9951" style="stop-color:#D60B52"/>
			</linearGradient>
			<polygon fill="url(#SVGID_2_)" points="43.535,36.131 2.445,36.131 2.445,2.67 43.535,2.67 43.535,6.584 32.855,9.355 
				43.535,13.106 43.535,17.567 39.379,22.727 43.535,26.966 38.726,33.488 			"/>
			<rect y="2.67" fill="#A3195B" width="2.445" height="33.461"/>
		</g>
	</g>
</g>
<g>
	<path fill="#FFFFFF" d="M8.296,18.939H7.6l2.128-5.006h0.717l2.008,5.006h-0.781l-0.497-1.292h-2.32L8.296,18.939z M10.966,17.077
		l-0.919-2.467l-0.971,2.467H10.966z"/>
	<path fill="#FFFFFF" d="M15.604,17.767c-0.027,0.407-0.158,0.718-0.392,0.934c-0.232,0.217-0.556,0.323-0.969,0.323
		c-0.496,0-0.879-0.15-1.147-0.456c-0.27-0.303-0.403-0.736-0.403-1.297c0-0.6,0.14-1.067,0.422-1.4
		c0.282-0.336,0.674-0.504,1.175-0.504c0.392,0,0.704,0.106,0.937,0.317c0.233,0.212,0.351,0.495,0.351,0.851v0.013h-0.624
		c0-0.208-0.067-0.38-0.205-0.519c-0.134-0.141-0.304-0.21-0.504-0.21c-0.274,0-0.49,0.116-0.647,0.349
		c-0.158,0.232-0.237,0.548-0.237,0.95c0,0.47,0.076,0.82,0.219,1.061c0.148,0.239,0.365,0.358,0.653,0.358
		c0.223,0,0.401-0.068,0.538-0.208c0.136-0.139,0.207-0.329,0.21-0.562H15.604z"/>
	<path fill="#FFFFFF" d="M15.869,15.451h0.594v-0.716l0.639-0.217v0.933h0.776v0.457h-0.776v2.143c0,0.181,0.028,0.3,0.089,0.357
		c0.06,0.06,0.179,0.086,0.355,0.086c0.044,0,0.093-0.002,0.145-0.011c0.053-0.008,0.111-0.021,0.174-0.035v0.484
		c-0.104,0.027-0.199,0.049-0.283,0.062c-0.084,0.015-0.158,0.021-0.223,0.021c-0.327,0-0.559-0.056-0.694-0.169
		c-0.134-0.114-0.201-0.303-0.201-0.57v-2.369h-0.594V15.451z"/>
	<path fill="#FFFFFF" d="M19.103,14.645h-0.755v-0.711h0.755V14.645z M18.406,18.939v-3.488h0.645v3.488H18.406z"/>
	<path fill="#FFFFFF" d="M20.984,18.939l-1.423-3.488h0.649l1.113,2.765l1.126-2.765h0.639l-1.473,3.488H20.984z"/>
	<path fill="#FFFFFF" d="M24.321,14.645h-0.754v-0.711h0.754V14.645z M23.626,18.939v-3.488h0.644v3.488H23.626z"/>
	<path fill="#FFFFFF" d="M27.703,18.939l-0.026-0.517c-0.163,0.214-0.332,0.365-0.508,0.461c-0.176,0.094-0.38,0.14-0.612,0.14
		c-0.479,0-0.859-0.159-1.136-0.48c-0.277-0.321-0.415-0.762-0.415-1.319c0-0.572,0.135-1.021,0.405-1.342
		c0.27-0.322,0.645-0.485,1.126-0.485c0.236,0,0.452,0.05,0.645,0.148c0.194,0.099,0.358,0.244,0.495,0.435v-2.046h0.638v4.311
		c0,0.122,0.004,0.239,0.01,0.353c0.007,0.112,0.016,0.227,0.03,0.343H27.703z M25.675,17.155c0,0.443,0.09,0.795,0.272,1.055
		s0.423,0.391,0.722,0.391c0.306,0,0.549-0.119,0.731-0.361c0.185-0.241,0.276-0.566,0.276-0.977c0-0.443-0.091-0.795-0.271-1.055
		c-0.183-0.261-0.423-0.39-0.724-0.39c-0.306,0-0.551,0.12-0.733,0.361C25.766,16.42,25.675,16.746,25.675,17.155z"/>
	<path fill="#FFFFFF" d="M31.921,18.939h-0.578c-0.021-0.072-0.044-0.249-0.066-0.529V18.39c-0.088,0.207-0.229,0.362-0.42,0.473
		c-0.19,0.107-0.424,0.161-0.7,0.161c-0.353,0-0.636-0.095-0.848-0.288c-0.213-0.191-0.319-0.446-0.319-0.762
		c0-0.369,0.147-0.662,0.44-0.878c0.294-0.216,0.696-0.324,1.205-0.324h0.608v-0.424c0-0.187-0.06-0.329-0.176-0.426
		c-0.117-0.096-0.288-0.146-0.514-0.146c-0.215,0-0.385,0.054-0.512,0.16c-0.125,0.104-0.19,0.252-0.196,0.438h-0.618v-0.055
		c0-0.308,0.109-0.543,0.329-0.706c0.221-0.165,0.539-0.247,0.952-0.247c0.481,0,0.832,0.087,1.05,0.257
		c0.219,0.17,0.328,0.447,0.328,0.83v2.153c0,0.03,0.004,0.075,0.007,0.136C31.9,18.802,31.91,18.867,31.921,18.939z M31.243,17.209
		h-0.544c-0.331,0-0.59,0.062-0.774,0.186c-0.183,0.123-0.273,0.294-0.273,0.518c0,0.168,0.062,0.31,0.188,0.423
		c0.123,0.111,0.28,0.168,0.47,0.168c0.302,0,0.532-0.081,0.692-0.242c0.162-0.163,0.242-0.398,0.242-0.705V17.209z"/>
	<path fill="#FFFFFF" d="M35.283,18.939l-0.026-0.517c-0.163,0.214-0.333,0.365-0.51,0.461c-0.173,0.094-0.377,0.14-0.611,0.14
		c-0.479,0-0.858-0.159-1.135-0.48s-0.416-0.762-0.416-1.319c0-0.572,0.137-1.021,0.406-1.342c0.27-0.322,0.645-0.485,1.125-0.485
		c0.237,0,0.453,0.05,0.646,0.148c0.192,0.099,0.357,0.244,0.494,0.435v-2.046h0.638v4.311c0,0.122,0.002,0.239,0.01,0.353
		c0.007,0.112,0.017,0.227,0.03,0.343H35.283z M33.254,17.155c0,0.443,0.091,0.795,0.273,1.055s0.422,0.391,0.722,0.391
		c0.304,0,0.549-0.119,0.733-0.361c0.182-0.241,0.274-0.566,0.274-0.977c0-0.443-0.09-0.795-0.272-1.055
		c-0.18-0.261-0.422-0.39-0.724-0.39c-0.305,0-0.549,0.12-0.731,0.361C33.347,16.42,33.254,16.746,33.254,17.155z"/>
	<path fill="#FFFFFF" d="M22.81,30.521v-1.909h-4.024v-1.556l3.801-5.41h1.412v5.909h1.194v1.057h-1.194v1.909H22.81z M22.81,27.556
		v-4.63l-3.056,4.63H22.81z"/>
</g>
</svg>
