<?xml version="1.0" encoding="utf-8"?>
<!-- Generator: Adobe Illustrator 16.0.0, SVG Export Plug-In . SVG Version: 6.00 Build 0)  -->
<!DOCTYPE svg PUBLIC "-//W3C//DTD SVG 1.1//EN" "http://www.w3.org/Graphics/SVG/1.1/DTD/svg11.dtd">
<svg version="1.1" id="Capa_1" xmlns="http://www.w3.org/2000/svg" xmlns:xlink="http://www.w3.org/1999/xlink" x="0px" y="0px"
	 width="43.535px" height="56.671px" viewBox="0 0 43.535 56.671" enable-background="new 0 0 43.535 56.671" xml:space="preserve">
<g>
	<g>
		<g>
			<path fill="#B55E47" d="M43.535,1.184c0,20.754,0,33.549,0,54.304c0,1.578-2.445,1.578-2.445,0c0-20.755,0-33.55,0-54.304
				C41.09-0.395,43.535-0.395,43.535,1.184L43.535,1.184z"/>
		</g>
		<g>
			
				<linearGradient id="SVGID_2_" gradientUnits="userSpaceOnUse" x1="729.207" y1="19.4004" x2="770.2969" y2="19.4004" gradientTransform="matrix(-1 0 0 1 770.2969 0)">
				<stop  offset="0" style="stop-color:#662483"/>
				<stop  offset="0.0043" style="stop-color:#682482"/>
				<stop  offset="0.1212" style="stop-color:#882277"/>
				<stop  offset="0.2425" style="stop-color:#A21E6D"/>
				<stop  offset="0.3694" style="stop-color:#B61963"/>
				<stop  offset="0.5021" style="stop-color:#C5155C"/>
				<stop  offset="0.6432" style="stop-color:#CF1056"/>
				<stop  offset="0.7985" style="stop-color:#D50C53"/>
				<stop  offset="0.9951" style="stop-color:#D60B52"/>
			</linearGradient>
			<polygon fill="url(#SVGID_2_)" points="0,36.131 41.09,36.131 41.09,2.67 0,2.67 0,6.584 10.68,9.355 0,13.106 0,17.567 
				4.156,22.727 0,26.966 4.81,33.488 			"/>
			<rect x="41.09" y="2.67" fill="#A3195B" width="2.445" height="33.461"/>
		</g>
	</g>
</g>
<g>
	<path fill="#FFFFFF" d="M9.133,15.96H8.436l2.129-5.004h0.715l2.01,5.004h-0.78l-0.498-1.293H9.688L9.133,15.96z M11.803,14.099
		l-0.919-2.467l-0.972,2.467H11.803z"/>
	<path fill="#FFFFFF" d="M16.441,14.787c-0.028,0.406-0.157,0.72-0.391,0.935s-0.557,0.324-0.972,0.324
		c-0.495,0-0.877-0.152-1.146-0.457c-0.271-0.304-0.403-0.737-0.403-1.297c0-0.6,0.139-1.066,0.421-1.402
		c0.282-0.334,0.676-0.501,1.177-0.501c0.391,0,0.703,0.104,0.935,0.317c0.236,0.211,0.351,0.492,0.351,0.848v0.016h-0.624
		c0-0.21-0.068-0.381-0.203-0.521c-0.136-0.142-0.305-0.21-0.507-0.21c-0.273,0-0.488,0.117-0.646,0.35
		c-0.156,0.23-0.234,0.547-0.234,0.951c0,0.466,0.071,0.821,0.218,1.061c0.146,0.238,0.362,0.355,0.65,0.355
		c0.224,0,0.401-0.066,0.539-0.206c0.135-0.14,0.205-0.329,0.211-0.562H16.441z"/>
	<path fill="#FFFFFF" d="M16.707,12.473h0.594v-0.717l0.637-0.216v0.933h0.776v0.458h-0.776v2.14c0,0.182,0.029,0.304,0.091,0.36
		c0.058,0.059,0.177,0.086,0.354,0.086c0.045,0,0.092-0.004,0.146-0.013c0.051-0.006,0.11-0.02,0.173-0.036v0.486
		c-0.104,0.027-0.198,0.047-0.281,0.062s-0.158,0.023-0.224,0.023c-0.328,0-0.56-0.059-0.694-0.17c-0.136-0.114-0.2-0.305-0.2-0.572
		v-2.367h-0.594V12.473z"/>
	<path fill="#FFFFFF" d="M19.938,11.665h-0.752v-0.709h0.752V11.665z M19.242,15.96v-3.487h0.646v3.487H19.242z"/>
	<path fill="#FFFFFF" d="M21.821,15.96l-1.425-3.487h0.652l1.112,2.765l1.126-2.765h0.637l-1.472,3.487H21.821z"/>
	<path fill="#FFFFFF" d="M25.157,11.665h-0.755v-0.709h0.755V11.665z M24.462,15.96v-3.487h0.646v3.487H24.462z"/>
	<path fill="#FFFFFF" d="M28.54,15.96l-0.027-0.515c-0.163,0.213-0.331,0.366-0.507,0.46c-0.178,0.094-0.38,0.141-0.612,0.141
		c-0.479,0-0.857-0.162-1.135-0.482c-0.278-0.32-0.415-0.762-0.415-1.319c0-0.573,0.135-1.019,0.405-1.343
		c0.269-0.32,0.644-0.482,1.123-0.482c0.237,0,0.453,0.049,0.646,0.146c0.195,0.1,0.361,0.244,0.495,0.438v-2.047h0.638v4.31
		c0,0.122,0.004,0.238,0.01,0.353c0.008,0.112,0.018,0.227,0.032,0.342H28.54z M26.512,14.177c0,0.443,0.091,0.795,0.273,1.055
		c0.182,0.26,0.422,0.39,0.719,0.39c0.307,0,0.549-0.118,0.733-0.36c0.185-0.241,0.275-0.566,0.275-0.977
		c0-0.443-0.091-0.795-0.271-1.055c-0.182-0.26-0.423-0.391-0.723-0.391c-0.305,0-0.549,0.121-0.732,0.363
		C26.603,13.442,26.512,13.767,26.512,14.177z"/>
	<path fill="#FFFFFF" d="M32.758,15.96h-0.576c-0.022-0.072-0.047-0.248-0.069-0.529v-0.02c-0.089,0.205-0.227,0.363-0.42,0.473
		c-0.19,0.105-0.423,0.162-0.7,0.162c-0.352,0-0.636-0.098-0.847-0.289c-0.213-0.193-0.32-0.446-0.32-0.763
		c0-0.369,0.147-0.661,0.44-0.878c0.298-0.215,0.697-0.324,1.206-0.324h0.606v-0.424c0-0.188-0.058-0.328-0.175-0.424
		c-0.116-0.098-0.288-0.146-0.513-0.146c-0.215,0-0.387,0.055-0.511,0.161c-0.127,0.104-0.191,0.251-0.199,0.437h-0.618v-0.055
		c0-0.307,0.111-0.543,0.33-0.706c0.222-0.163,0.539-0.246,0.953-0.246c0.481,0,0.832,0.085,1.05,0.255
		c0.218,0.172,0.328,0.447,0.328,0.83v2.154c0,0.03,0.003,0.074,0.007,0.135C32.736,15.821,32.747,15.888,32.758,15.96z
		 M32.078,14.23h-0.543c-0.331,0-0.589,0.062-0.772,0.185c-0.183,0.123-0.275,0.295-0.275,0.518c0,0.17,0.062,0.311,0.187,0.423
		c0.125,0.112,0.283,0.167,0.471,0.167c0.302,0,0.532-0.08,0.694-0.24c0.159-0.162,0.239-0.398,0.239-0.705V14.23z"/>
	<path fill="#FFFFFF" d="M36.12,15.96l-0.026-0.515c-0.165,0.213-0.333,0.366-0.511,0.46c-0.174,0.094-0.377,0.141-0.61,0.141
		c-0.479,0-0.859-0.162-1.135-0.482c-0.277-0.32-0.416-0.762-0.416-1.319c0-0.573,0.135-1.019,0.404-1.343
		c0.271-0.32,0.646-0.482,1.127-0.482c0.237,0,0.452,0.049,0.645,0.146c0.194,0.1,0.36,0.244,0.496,0.438v-2.047h0.637v4.31
		c0,0.122,0.004,0.238,0.011,0.353c0.005,0.112,0.018,0.227,0.029,0.342H36.12z M34.092,14.177c0,0.443,0.089,0.795,0.271,1.055
		c0.184,0.26,0.424,0.39,0.724,0.39c0.305,0,0.549-0.118,0.732-0.36c0.182-0.241,0.275-0.566,0.275-0.977
		c0-0.443-0.092-0.795-0.272-1.055s-0.422-0.391-0.722-0.391c-0.306,0-0.552,0.121-0.734,0.363
		C34.182,13.442,34.092,13.767,34.092,14.177z"/>
	<path fill="#FFFFFF" d="M22.857,27.542v-7.426c-0.297,0.246-0.606,0.473-0.932,0.672c-0.325,0.201-0.668,0.381-1.029,0.541v-1.314
		c0.437-0.207,0.812-0.422,1.128-0.641c0.317-0.221,0.595-0.457,0.833-0.707h1.225v8.875H22.857z"/>
</g>
</svg>
