<?xml version="1.0" encoding="utf-8"?>
<!-- Generator: Adobe Illustrator 16.0.0, SVG Export Plug-In . SVG Version: 6.00 Build 0)  -->
<!DOCTYPE svg PUBLIC "-//W3C//DTD SVG 1.1//EN" "http://www.w3.org/Graphics/SVG/1.1/DTD/svg11.dtd">
<svg version="1.1" id="Capa_1" xmlns="http://www.w3.org/2000/svg" xmlns:xlink="http://www.w3.org/1999/xlink" x="0px" y="0px"
	 width="50.707px" height="65.998px" viewBox="0 0 50.707 65.998" enable-background="new 0 0 50.707 65.998" xml:space="preserve">
<g>
	<g>
		<g>
			<g>
				<path fill="#B55E47" d="M0,1.378c0,24.171,0,39.071,0,63.241c0,1.838,2.859,1.838,2.859,0c0-24.17,0-39.07,0-63.241
					C2.859-0.459,0-0.459,0,1.378L0,1.378z"/>
			</g>
			<g>
				<linearGradient id="SVGID_2_" gradientUnits="userSpaceOnUse" x1="2.8594" y1="22.5947" x2="50.707" y2="22.5947">
					<stop  offset="0" style="stop-color:#662483"/>
					<stop  offset="0.0251" style="stop-color:#652E86"/>
					<stop  offset="0.1244" style="stop-color:#5B4F91"/>
					<stop  offset="0.2286" style="stop-color:#4E6999"/>
					<stop  offset="0.3359" style="stop-color:#3F7D9D"/>
					<stop  offset="0.4471" style="stop-color:#2C8C9E"/>
					<stop  offset="0.5634" style="stop-color:#15969D"/>
					<stop  offset="0.687" style="stop-color:#009C9C"/>
					<stop  offset="0.8229" style="stop-color:#00A09B"/>
					<stop  offset="0.9951" style="stop-color:#00A19A"/>
				</linearGradient>
				<polygon fill="url(#SVGID_2_)" points="50.707,42.082 2.859,42.082 2.859,3.107 50.707,3.107 50.707,7.662 38.266,10.896 
					50.707,15.268 50.707,20.457 45.871,26.473 50.707,31.403 45.109,38.998 				"/>
				<rect y="3.107" fill="#00A19A" width="2.859" height="38.975"/>
			</g>
		</g>
	</g>
	<g>
		<path fill="#FFFFFF" d="M9.672,22.057H8.855l2.48-5.832h0.828l2.34,5.832h-0.902l-0.578-1.504h-2.707L9.672,22.057z
			 M12.773,19.887l-1.062-2.867l-1.137,2.867H12.773z"/>
		<path fill="#FFFFFF" d="M18.18,20.693c-0.035,0.473-0.184,0.838-0.453,1.084c-0.277,0.258-0.645,0.377-1.137,0.377
			c-0.57,0-1.012-0.172-1.332-0.527c-0.312-0.354-0.473-0.859-0.473-1.514c0-0.699,0.172-1.246,0.492-1.633
			c0.332-0.387,0.785-0.58,1.375-0.58c0.453,0,0.816,0.117,1.086,0.365c0.27,0.246,0.406,0.58,0.406,0.988v0.021h-0.719
			c0-0.248-0.086-0.451-0.246-0.613c-0.16-0.16-0.355-0.236-0.59-0.236c-0.312,0-0.559,0.129-0.754,0.398
			c-0.184,0.279-0.277,0.645-0.277,1.105c0,0.549,0.094,0.957,0.258,1.236c0.172,0.279,0.43,0.418,0.762,0.418
			c0.27,0,0.473-0.074,0.633-0.236c0.152-0.16,0.238-0.387,0.238-0.654H18.18z"/>
		<path fill="#FFFFFF" d="M18.488,17.996h0.688v-0.838l0.742-0.246v1.084h0.902v0.527h-0.902v2.502c0,0.205,0.043,0.344,0.109,0.408
			c0.062,0.076,0.215,0.107,0.406,0.107c0.066,0,0.109-0.01,0.172-0.01c0.066-0.012,0.129-0.033,0.203-0.043v0.559
			c-0.117,0.031-0.223,0.064-0.332,0.074c-0.098,0.021-0.184,0.021-0.258,0.021c-0.375,0-0.645-0.064-0.805-0.193
			s-0.238-0.354-0.238-0.666v-2.76h-0.688V17.996z"/>
		<path fill="#FFFFFF" d="M22.262,17.051h-0.883v-0.826h0.883V17.051z M21.445,22.057v-4.061h0.75v4.061H21.445z"/>
		<path fill="#FFFFFF" d="M24.453,22.057l-1.668-4.061h0.766l1.289,3.213l1.309-3.213h0.754l-1.719,4.061H24.453z"/>
		<path fill="#FFFFFF" d="M28.332,17.051h-0.871v-0.826h0.871V17.051z M27.523,22.057v-4.061h0.754v4.061H27.523z"/>
		<path fill="#FFFFFF" d="M32.273,22.057l-0.031-0.602c-0.195,0.248-0.387,0.43-0.594,0.537c-0.203,0.107-0.449,0.162-0.707,0.162
			c-0.559,0-1.012-0.184-1.332-0.559c-0.324-0.377-0.473-0.893-0.473-1.537c0-0.666,0.148-1.191,0.461-1.568
			c0.312-0.365,0.754-0.559,1.32-0.559c0.27,0,0.516,0.055,0.742,0.172c0.227,0.119,0.418,0.279,0.582,0.506v-2.385h0.738v5.027
			c0,0.139,0,0.279,0.012,0.408s0.023,0.258,0.031,0.396H32.273z M29.91,19.984c0,0.516,0.105,0.924,0.32,1.225
			c0.207,0.301,0.484,0.451,0.84,0.451s0.633-0.141,0.848-0.42s0.324-0.654,0.324-1.139c0-0.516-0.109-0.924-0.312-1.225
			c-0.215-0.301-0.496-0.451-0.848-0.451c-0.355,0-0.637,0.141-0.852,0.42S29.91,19.5,29.91,19.984z"/>
		<path fill="#FFFFFF" d="M37.184,22.057h-0.68c-0.02-0.086-0.043-0.289-0.074-0.611v-0.033c-0.098,0.248-0.27,0.43-0.484,0.559
			c-0.223,0.119-0.492,0.184-0.816,0.184c-0.406,0-0.738-0.107-0.988-0.334c-0.258-0.225-0.375-0.525-0.375-0.891
			c0-0.43,0.172-0.773,0.516-1.021c0.344-0.246,0.805-0.375,1.406-0.375h0.711v-0.494c0-0.215-0.074-0.387-0.215-0.494
			c-0.129-0.119-0.332-0.172-0.59-0.172c-0.25,0-0.453,0.064-0.594,0.182c-0.148,0.129-0.234,0.301-0.234,0.516h-0.719v-0.064
			c0-0.354,0.129-0.633,0.375-0.826c0.258-0.193,0.633-0.279,1.117-0.279c0.559,0,0.965,0.096,1.223,0.289
			c0.258,0.205,0.387,0.527,0.387,0.967v2.514c0,0.033,0,0.086,0,0.162C37.16,21.896,37.172,21.971,37.184,22.057z M36.398,20.037
			h-0.645c-0.387,0-0.688,0.076-0.902,0.215c-0.203,0.15-0.312,0.344-0.312,0.613c0,0.193,0.074,0.354,0.227,0.482
			c0.129,0.141,0.32,0.205,0.535,0.205c0.355,0,0.625-0.098,0.809-0.291c0.191-0.182,0.289-0.461,0.289-0.816V20.037z"/>
		<path fill="#FFFFFF" d="M41.102,22.057l-0.043-0.602c-0.18,0.248-0.387,0.43-0.578,0.537c-0.215,0.107-0.453,0.162-0.719,0.162
			c-0.559,0-1-0.184-1.324-0.559c-0.32-0.377-0.48-0.893-0.48-1.537c0-0.666,0.16-1.191,0.473-1.568
			c0.309-0.365,0.75-0.559,1.309-0.559c0.281,0,0.527,0.055,0.754,0.172c0.223,0.119,0.418,0.279,0.566,0.506v-2.385h0.754v5.027
			c0,0.139,0,0.279,0.012,0.408c0.008,0.129,0.008,0.258,0.031,0.396H41.102z M38.738,19.984c0,0.516,0.109,0.924,0.312,1.225
			c0.215,0.301,0.496,0.451,0.848,0.451c0.344,0,0.637-0.141,0.852-0.42c0.203-0.279,0.309-0.654,0.309-1.139
			c0-0.516-0.094-0.924-0.309-1.225c-0.207-0.301-0.484-0.451-0.852-0.451c-0.344,0-0.633,0.141-0.836,0.42
			C38.848,19.125,38.738,19.5,38.738,19.984z"/>
		<path fill="#FFFFFF" d="M26.566,35.551v-2.225h-4.684v-1.815l4.426-6.306h1.645v6.886h1.398v1.235h-1.398v2.225H26.566z
			 M26.566,32.091v-5.393l-3.555,5.393H26.566z"/>
	</g>
</g>
</svg>
