<?xml version="1.0" encoding="utf-8"?>
<!-- Generator: Adobe Illustrator 16.0.0, SVG Export Plug-In . SVG Version: 6.00 Build 0)  -->
<!DOCTYPE svg PUBLIC "-//W3C//DTD SVG 1.1//EN" "http://www.w3.org/Graphics/SVG/1.1/DTD/svg11.dtd">
<svg version="1.1" id="Capa_1" xmlns="http://www.w3.org/2000/svg" xmlns:xlink="http://www.w3.org/1999/xlink" x="0px" y="0px"
	 width="50.702px" height="66px" viewBox="0 0 50.702 66" enable-background="new 0 0 50.702 66" xml:space="preserve">
<g>
	<g>
		<g>
			<g>
				<path fill="#B55E47" d="M50.702,1.378c0,24.171,0,39.071,0,63.243c0,1.838-2.849,1.838-2.849,0c0-24.172,0-39.072,0-63.243
					C47.854-0.459,50.702-0.459,50.702,1.378L50.702,1.378z"/>
			</g>
			<g>
				
					<linearGradient id="SVGID_2_" gradientUnits="userSpaceOnUse" x1="-1093.0215" y1="22.5942" x2="-1045.168" y2="22.5942" gradientTransform="matrix(-1 0 0 1 -1045.168 0)">
					<stop  offset="0" style="stop-color:#662483"/>
					<stop  offset="0.0251" style="stop-color:#652E86"/>
					<stop  offset="0.1244" style="stop-color:#5B4F91"/>
					<stop  offset="0.2286" style="stop-color:#4E6999"/>
					<stop  offset="0.3359" style="stop-color:#3F7D9D"/>
					<stop  offset="0.4471" style="stop-color:#2C8C9E"/>
					<stop  offset="0.5634" style="stop-color:#15969D"/>
					<stop  offset="0.687" style="stop-color:#009C9C"/>
					<stop  offset="0.8229" style="stop-color:#00A09B"/>
					<stop  offset="0.9951" style="stop-color:#00A19A"/>
				</linearGradient>
				<polygon fill="url(#SVGID_2_)" points="0,42.079 47.854,42.079 47.854,3.11 0,3.11 0,7.667 12.438,10.896 0,15.264 0,20.459 
					4.841,26.468 0,31.405 5.602,39.001 				"/>
				<rect x="47.854" y="3.11" fill="#00A19A" width="2.849" height="38.969"/>
			</g>
		</g>
	</g>
	<g>
		<path fill="#FFFFFF" d="M8.238,22.448H7.43l2.476-5.828h0.833l2.342,5.828h-0.909l-0.581-1.507H8.887L8.238,22.448z
			 M11.349,20.279l-1.071-2.873l-1.131,2.873H11.349z"/>
		<path fill="#FFFFFF" d="M16.75,21.08c-0.029,0.477-0.182,0.838-0.454,1.089c-0.272,0.252-0.648,0.378-1.13,0.378
			c-0.577,0-1.023-0.177-1.334-0.531c-0.314-0.354-0.472-0.858-0.472-1.513c0-0.697,0.164-1.242,0.493-1.631
			c0.326-0.392,0.781-0.586,1.366-0.586c0.458,0,0.82,0.123,1.093,0.371c0.271,0.247,0.408,0.576,0.408,0.989v0.016h-0.729
			c0-0.243-0.081-0.443-0.237-0.605s-0.354-0.243-0.588-0.243c-0.318,0-0.569,0.135-0.754,0.405
			c-0.183,0.269-0.273,0.639-0.273,1.105c0,0.546,0.084,0.958,0.256,1.236c0.168,0.277,0.42,0.415,0.756,0.415
			c0.26,0,0.47-0.078,0.627-0.241c0.16-0.16,0.242-0.381,0.246-0.654H16.75z"/>
		<path fill="#FFFFFF" d="M17.061,18.385h0.689v-0.833l0.742-0.254v1.087h0.906v0.533h-0.906v2.494c0,0.21,0.036,0.351,0.105,0.416
			c0.07,0.068,0.207,0.101,0.413,0.101c0.054,0,0.108-0.003,0.171-0.012c0.061-0.011,0.126-0.026,0.201-0.045v0.565
			c-0.122,0.032-0.233,0.058-0.328,0.074c-0.099,0.019-0.186,0.025-0.263,0.025c-0.381,0-0.651-0.064-0.808-0.197
			c-0.158-0.133-0.234-0.353-0.234-0.664v-2.758h-0.689V18.385z"/>
		<path fill="#FFFFFF" d="M20.823,17.445h-0.876V16.62h0.876V17.445z M20.015,22.448v-4.062h0.749v4.062H20.015z"/>
		<path fill="#FFFFFF" d="M23.018,22.448l-1.66-4.062h0.76l1.295,3.22l1.313-3.22h0.741l-1.713,4.062H23.018z"/>
		<path fill="#FFFFFF" d="M26.9,17.445h-0.877V16.62H26.9V17.445z M26.092,22.448v-4.062h0.752v4.062H26.092z"/>
		<path fill="#FFFFFF" d="M30.841,22.448l-0.032-0.602c-0.189,0.247-0.387,0.426-0.59,0.537c-0.203,0.108-0.441,0.163-0.712,0.163
			c-0.561,0-0.999-0.187-1.323-0.562c-0.324-0.373-0.482-0.888-0.482-1.538c0-0.665,0.156-1.187,0.469-1.562
			c0.318-0.377,0.752-0.564,1.312-0.564c0.277,0,0.525,0.061,0.752,0.174c0.226,0.115,0.418,0.285,0.574,0.508V16.62h0.744v5.018
			c0,0.141,0.002,0.28,0.012,0.41c0.008,0.132,0.02,0.265,0.035,0.4H30.841z M28.478,20.37c0,0.517,0.104,0.925,0.318,1.228
			c0.21,0.303,0.493,0.455,0.839,0.455c0.356,0,0.641-0.14,0.855-0.42c0.213-0.281,0.318-0.66,0.318-1.138
			c0-0.516-0.105-0.926-0.313-1.229c-0.212-0.303-0.492-0.453-0.844-0.453c-0.356,0-0.64,0.14-0.853,0.42
			S28.478,19.891,28.478,20.37z"/>
		<path fill="#FFFFFF" d="M35.753,22.448h-0.672c-0.026-0.085-0.052-0.29-0.079-0.618v-0.023c-0.104,0.24-0.265,0.423-0.488,0.551
			c-0.223,0.126-0.495,0.189-0.814,0.189c-0.413,0-0.742-0.112-0.988-0.336c-0.25-0.226-0.373-0.521-0.373-0.891
			c0-0.429,0.172-0.769,0.513-1.021c0.345-0.251,0.812-0.377,1.405-0.377h0.705v-0.493c0-0.221-0.066-0.385-0.203-0.496
			c-0.138-0.112-0.336-0.17-0.598-0.17c-0.25,0-0.449,0.062-0.596,0.186c-0.145,0.123-0.221,0.295-0.23,0.511h-0.719v-0.063
			c0-0.358,0.127-0.633,0.386-0.822c0.255-0.192,0.626-0.288,1.108-0.288c0.561,0,0.967,0.102,1.222,0.3
			c0.256,0.197,0.382,0.52,0.382,0.965v2.51c0,0.033,0.002,0.086,0.01,0.156C35.73,22.286,35.739,22.363,35.753,22.448z
			 M34.961,20.431h-0.629c-0.389,0-0.689,0.074-0.902,0.217c-0.214,0.144-0.32,0.344-0.32,0.604c0,0.195,0.072,0.36,0.217,0.491
			c0.146,0.13,0.328,0.195,0.549,0.195c0.351,0,0.62-0.094,0.807-0.282c0.189-0.188,0.279-0.462,0.279-0.818V20.431z"/>
		<path fill="#FFFFFF" d="M39.67,22.448l-0.034-0.602c-0.19,0.247-0.386,0.426-0.591,0.537c-0.203,0.108-0.44,0.163-0.71,0.163
			c-0.562,0-1.001-0.187-1.325-0.562c-0.322-0.373-0.484-0.888-0.484-1.538c0-0.665,0.156-1.187,0.473-1.562
			c0.314-0.377,0.754-0.564,1.311-0.564c0.279,0,0.526,0.061,0.752,0.174c0.228,0.115,0.418,0.285,0.575,0.508V16.62h0.743v5.018
			c0,0.141,0.006,0.28,0.014,0.41c0.008,0.132,0.02,0.265,0.033,0.4H39.67z M37.307,20.37c0,0.517,0.105,0.925,0.314,1.228
			c0.215,0.303,0.495,0.455,0.842,0.455c0.356,0,0.643-0.14,0.854-0.42c0.215-0.281,0.319-0.66,0.319-1.138
			c0-0.516-0.104-0.926-0.315-1.229s-0.49-0.453-0.842-0.453c-0.355,0-0.639,0.14-0.854,0.42
			C37.412,19.513,37.307,19.891,37.307,20.37z"/>
		<path fill="#FFFFFF" d="M20.693,33.198h1.557c0.044,0.568,0.215,0.993,0.512,1.269c0.295,0.28,0.736,0.419,1.315,0.419
			c0.646,0,1.159-0.164,1.539-0.489c0.378-0.325,0.568-0.762,0.568-1.308c0-0.621-0.22-1.104-0.661-1.441
			c-0.444-0.338-1.076-0.508-1.896-0.508c-0.037,0-0.096,0.004-0.174,0.01c-0.076,0.008-0.136,0.011-0.18,0.011l0.007-1.129
			c0.923-0.024,1.604-0.186,2.047-0.478c0.44-0.296,0.661-0.739,0.661-1.334c0-0.488-0.156-0.873-0.469-1.159
			c-0.316-0.286-0.742-0.426-1.283-0.426c-0.556,0-1,0.137-1.338,0.415c-0.336,0.278-0.512,0.652-0.531,1.128H20.89
			c0.014-0.846,0.315-1.515,0.9-2.009c0.589-0.493,1.382-0.738,2.386-0.738c1.01,0,1.812,0.256,2.408,0.764
			c0.594,0.51,0.892,1.189,0.892,2.041c0,0.554-0.16,1.029-0.474,1.423s-0.781,0.702-1.396,0.924
			c0.64,0.131,1.145,0.419,1.502,0.862c0.36,0.444,0.541,0.998,0.541,1.66c0,0.9-0.333,1.631-0.992,2.184
			c-0.662,0.551-1.547,0.83-2.652,0.83c-1.051,0-1.865-0.255-2.439-0.762C20.994,34.849,20.703,34.13,20.693,33.198z"/>
	</g>
</g>
</svg>
