<?xml version="1.0" encoding="utf-8"?>
<!-- Generator: Adobe Illustrator 16.0.0, SVG Export Plug-In . SVG Version: 6.00 Build 0)  -->
<!DOCTYPE svg PUBLIC "-//W3C//DTD SVG 1.1//EN" "http://www.w3.org/Graphics/SVG/1.1/DTD/svg11.dtd">
<svg version="1.1" id="Capa_1" xmlns="http://www.w3.org/2000/svg" xmlns:xlink="http://www.w3.org/1999/xlink" x="0px" y="0px"
	 width="43.535px" height="56.67px" viewBox="0 0 43.535 56.67" enable-background="new 0 0 43.535 56.67" xml:space="preserve">
<g>
	<g>
		<g>
			<path fill="#B55E47" d="M0,1.183c0,20.755,0,33.549,0,54.304c0,1.578,2.445,1.578,2.445,0c0-20.755,0-33.549,0-54.304
				C2.445-0.395,0-0.395,0,1.183L0,1.183z"/>
		</g>
		<g>
			<linearGradient id="SVGID_2_" gradientUnits="userSpaceOnUse" x1="2.4453" y1="19.3999" x2="43.5352" y2="19.3999">
				<stop  offset="0" style="stop-color:#662483"/>
				<stop  offset="0.0043" style="stop-color:#682482"/>
				<stop  offset="0.1212" style="stop-color:#882277"/>
				<stop  offset="0.2425" style="stop-color:#A21E6D"/>
				<stop  offset="0.3694" style="stop-color:#B61963"/>
				<stop  offset="0.5021" style="stop-color:#C5155C"/>
				<stop  offset="0.6432" style="stop-color:#CF1056"/>
				<stop  offset="0.7985" style="stop-color:#D50C53"/>
				<stop  offset="0.9951" style="stop-color:#D60B52"/>
			</linearGradient>
			<polygon fill="url(#SVGID_2_)" points="43.535,36.13 2.445,36.13 2.445,2.669 43.535,2.669 43.535,6.583 32.855,9.355 
				43.535,13.106 43.535,17.567 39.379,22.726 43.535,26.965 38.726,33.488 			"/>
			<rect y="2.669" fill="#A3195B" width="2.445" height="33.461"/>
		</g>
	</g>
</g>
<g>
	<path fill="#FFFFFF" d="M8.298,17.115H7.602l2.125-5.004h0.717l2.009,5.004h-0.781l-0.497-1.293H8.853L8.298,17.115z
		 M10.967,15.252l-0.92-2.466l-0.972,2.466H10.967z"/>
	<path fill="#FFFFFF" d="M15.604,15.941c-0.025,0.407-0.156,0.72-0.391,0.935c-0.232,0.216-0.554,0.324-0.968,0.324
		c-0.495,0-0.879-0.151-1.147-0.455c-0.27-0.306-0.403-0.74-0.403-1.299c0-0.6,0.141-1.067,0.421-1.402
		c0.282-0.334,0.675-0.502,1.176-0.502c0.392,0,0.703,0.106,0.938,0.318c0.232,0.212,0.35,0.495,0.35,0.849v0.015h-0.626
		c0-0.209-0.066-0.381-0.202-0.521c-0.135-0.139-0.305-0.209-0.505-0.209c-0.274,0-0.489,0.115-0.648,0.349
		c-0.157,0.231-0.235,0.547-0.235,0.951c0,0.468,0.072,0.82,0.22,1.061c0.145,0.238,0.362,0.356,0.648,0.356
		c0.224,0,0.404-0.068,0.54-0.208c0.136-0.138,0.207-0.327,0.211-0.562H15.604z"/>
	<path fill="#FFFFFF" d="M15.869,13.628h0.593v-0.717l0.639-0.217v0.934h0.778v0.459h-0.778v2.139c0,0.182,0.03,0.302,0.091,0.359
		c0.06,0.059,0.179,0.084,0.354,0.084c0.045,0,0.095-0.001,0.147-0.01c0.052-0.007,0.107-0.02,0.172-0.036v0.486
		c-0.104,0.027-0.199,0.048-0.281,0.063c-0.084,0.014-0.158,0.021-0.226,0.021c-0.327,0-0.559-0.055-0.693-0.168
		c-0.134-0.114-0.202-0.304-0.202-0.57v-2.368h-0.593V13.628z"/>
	<path fill="#FFFFFF" d="M19.102,12.82h-0.753v-0.708h0.753V12.82z M18.407,17.115v-3.487h0.644v3.487H18.407z"/>
	<path fill="#FFFFFF" d="M20.986,17.115l-1.426-3.487h0.65l1.115,2.765l1.126-2.765h0.638l-1.473,3.487H20.986z"/>
	<path fill="#FFFFFF" d="M24.321,12.82h-0.753v-0.708h0.753V12.82z M23.624,17.115v-3.487h0.646v3.487H23.624z"/>
	<path fill="#FFFFFF" d="M27.703,17.115L27.676,16.6c-0.164,0.212-0.33,0.367-0.507,0.46c-0.175,0.094-0.381,0.14-0.611,0.14
		c-0.481,0-0.858-0.161-1.135-0.481c-0.277-0.323-0.416-0.761-0.416-1.321c0-0.572,0.135-1.019,0.404-1.342
		c0.271-0.321,0.646-0.483,1.124-0.483c0.238,0,0.454,0.05,0.647,0.148s0.357,0.244,0.493,0.435v-2.045h0.637v4.309
		c0,0.122,0.005,0.239,0.013,0.353c0.007,0.113,0.017,0.227,0.03,0.342H27.703z M25.674,15.331c0,0.443,0.091,0.795,0.274,1.055
		c0.182,0.259,0.422,0.39,0.72,0.39c0.306,0,0.55-0.12,0.733-0.362c0.184-0.24,0.274-0.565,0.274-0.975
		c0-0.444-0.091-0.795-0.272-1.056c-0.18-0.259-0.42-0.389-0.722-0.389c-0.306,0-0.549,0.121-0.731,0.362
		C25.765,14.596,25.674,14.922,25.674,15.331z"/>
	<path fill="#FFFFFF" d="M31.921,17.115h-0.577c-0.022-0.072-0.046-0.249-0.068-0.528v-0.021c-0.088,0.204-0.227,0.363-0.418,0.472
		c-0.191,0.108-0.425,0.163-0.703,0.163c-0.352,0-0.634-0.096-0.846-0.289c-0.213-0.192-0.319-0.446-0.319-0.764
		c0-0.368,0.146-0.661,0.441-0.877c0.294-0.215,0.694-0.323,1.203-0.323h0.609v-0.424c0-0.188-0.058-0.329-0.175-0.425
		s-0.289-0.146-0.515-0.146c-0.216,0-0.384,0.054-0.511,0.162c-0.125,0.104-0.191,0.251-0.199,0.437h-0.617v-0.055
		c0-0.308,0.11-0.544,0.332-0.707c0.221-0.164,0.537-0.247,0.95-0.247c0.481,0,0.833,0.087,1.051,0.257
		c0.219,0.171,0.327,0.447,0.327,0.829v2.155c0,0.028,0.004,0.073,0.009,0.135C31.901,16.977,31.908,17.043,31.921,17.115z
		 M31.243,15.385h-0.545c-0.332,0-0.59,0.062-0.772,0.185s-0.274,0.295-0.274,0.517c0,0.171,0.062,0.312,0.187,0.424
		c0.125,0.112,0.28,0.167,0.471,0.167c0.301,0,0.533-0.08,0.693-0.241c0.159-0.163,0.241-0.398,0.241-0.705V15.385z"/>
	<path fill="#FFFFFF" d="M35.284,17.115L35.255,16.6c-0.161,0.212-0.331,0.367-0.507,0.46c-0.175,0.094-0.379,0.14-0.612,0.14
		c-0.479,0-0.857-0.161-1.133-0.481c-0.277-0.323-0.418-0.761-0.418-1.321c0-0.572,0.137-1.019,0.407-1.342
		c0.271-0.321,0.645-0.483,1.122-0.483c0.238,0,0.456,0.05,0.648,0.148s0.358,0.244,0.492,0.435v-2.045h0.639v4.309
		c0,0.122,0.004,0.239,0.01,0.353c0.007,0.113,0.018,0.227,0.03,0.342H35.284z M33.255,15.331c0,0.443,0.09,0.795,0.272,1.055
		c0.183,0.259,0.422,0.39,0.72,0.39c0.307,0,0.55-0.12,0.735-0.362c0.181-0.24,0.272-0.565,0.272-0.975
		c0-0.444-0.09-0.795-0.271-1.056c-0.181-0.259-0.423-0.389-0.723-0.389c-0.305,0-0.551,0.121-0.734,0.362
		C33.345,14.596,33.255,14.922,33.255,15.331z"/>
	<path fill="#FFFFFF" d="M24.763,28.697h-5.54v-1.274c1.644-1.494,2.775-2.625,3.391-3.397c0.615-0.771,0.925-1.414,0.925-1.928
		c0-0.42-0.133-0.756-0.397-1.014c-0.266-0.257-0.611-0.386-1.041-0.386c-0.442,0-0.785,0.133-1.028,0.392
		c-0.242,0.261-0.365,0.638-0.365,1.126h-1.349c0.025-0.81,0.269-1.436,0.734-1.884c0.464-0.445,1.104-0.668,1.916-0.668
		c0.841,0,1.513,0.221,2.015,0.664c0.501,0.44,0.753,1.035,0.753,1.782c0,0.525-0.129,1.026-0.386,1.502
		c-0.258,0.475-0.801,1.125-1.629,1.95l-2.09,2.09h4.092V28.697z"/>
</g>
</svg>
