<?xml version="1.0" encoding="utf-8"?>
<!-- Generator: Adobe Illustrator 16.0.0, SVG Export Plug-In . SVG Version: 6.00 Build 0)  -->
<!DOCTYPE svg PUBLIC "-//W3C//DTD SVG 1.1//EN" "http://www.w3.org/Graphics/SVG/1.1/DTD/svg11.dtd">
<svg version="1.1" id="Capa_1" xmlns="http://www.w3.org/2000/svg" xmlns:xlink="http://www.w3.org/1999/xlink" x="0px" y="0px"
	 width="50.702px" height="66px" viewBox="0 0 50.702 66" enable-background="new 0 0 50.702 66" xml:space="preserve">
<g>
	<g>
		<g>
			<g>
				<path fill="#B55E47" d="M50.702,1.378c0,24.17,0,39.071,0,63.243c0,1.838-2.848,1.838-2.848,0c0-24.172,0-39.073,0-63.243
					C47.854-0.459,50.702-0.459,50.702,1.378L50.702,1.378z"/>
			</g>
			<g>
				
					<linearGradient id="SVGID_2_" gradientUnits="userSpaceOnUse" x1="-1043.4814" y1="22.5938" x2="-995.627" y2="22.5938" gradientTransform="matrix(-1 0 0 1 -995.627 0)">
					<stop  offset="0" style="stop-color:#662483"/>
					<stop  offset="0.0251" style="stop-color:#652E86"/>
					<stop  offset="0.1244" style="stop-color:#5B4F91"/>
					<stop  offset="0.2286" style="stop-color:#4E6999"/>
					<stop  offset="0.3359" style="stop-color:#3F7D9D"/>
					<stop  offset="0.4471" style="stop-color:#2C8C9E"/>
					<stop  offset="0.5634" style="stop-color:#15969D"/>
					<stop  offset="0.687" style="stop-color:#009C9C"/>
					<stop  offset="0.8229" style="stop-color:#00A09B"/>
					<stop  offset="0.9951" style="stop-color:#00A19A"/>
				</linearGradient>
				<polygon fill="url(#SVGID_2_)" points="0,42.079 47.854,42.079 47.854,3.109 0,3.109 0,7.667 12.438,10.895 0,15.264 0,20.459 
					4.841,26.467 0,31.405 5.601,39.001 				"/>
				<rect x="47.854" y="3.109" fill="#00A19A" width="2.848" height="38.97"/>
			</g>
		</g>
	</g>
	<g>
		<path fill="#FFFFFF" d="M10.636,18.587H9.824l2.479-5.828h0.832l2.341,5.828h-0.909l-0.58-1.506h-2.704L10.636,18.587z
			 M13.745,16.419l-1.07-2.873l-1.131,2.873H13.745z"/>
		<path fill="#FFFFFF" d="M19.147,17.221c-0.032,0.474-0.183,0.838-0.455,1.089c-0.271,0.25-0.647,0.377-1.131,0.377
			c-0.576,0-1.021-0.177-1.334-0.532c-0.315-0.354-0.47-0.858-0.47-1.51c0-0.698,0.161-1.242,0.49-1.634
			c0.329-0.389,0.786-0.583,1.37-0.583c0.455,0,0.818,0.121,1.088,0.369c0.275,0.246,0.409,0.573,0.409,0.987v0.019h-0.728
			c0-0.245-0.079-0.443-0.236-0.606c-0.158-0.165-0.354-0.244-0.59-0.244c-0.318,0-0.568,0.136-0.752,0.407
			c-0.182,0.268-0.273,0.637-0.273,1.107c0,0.542,0.084,0.956,0.254,1.235c0.17,0.277,0.422,0.414,0.758,0.414
			c0.26,0,0.467-0.078,0.628-0.24c0.157-0.163,0.239-0.384,0.245-0.655H19.147z"/>
		<path fill="#FFFFFF" d="M19.458,14.526h0.691v-0.835l0.741-0.251v1.086h0.903v0.533h-0.903v2.492c0,0.211,0.034,0.354,0.105,0.42
			c0.067,0.067,0.206,0.1,0.411,0.1c0.053,0,0.107-0.005,0.17-0.015c0.059-0.007,0.129-0.022,0.201-0.042v0.566
			c-0.12,0.031-0.23,0.055-0.327,0.072c-0.097,0.019-0.185,0.027-0.261,0.027c-0.382,0-0.651-0.068-0.809-0.197
			c-0.158-0.134-0.232-0.355-0.232-0.667v-2.757h-0.691V14.526z"/>
		<path fill="#FFFFFF" d="M23.221,13.585h-0.876v-0.826h0.876V13.585z M22.409,18.587v-4.062h0.754v4.062H22.409z"/>
		<path fill="#FFFFFF" d="M25.413,18.587l-1.658-4.062h0.759l1.296,3.22l1.311-3.22h0.742l-1.714,4.062H25.413z"/>
		<path fill="#FFFFFF" d="M29.299,13.585h-0.88v-0.826h0.88V13.585z M28.489,18.587v-4.062h0.752v4.062H28.489z"/>
		<path fill="#FFFFFF" d="M33.238,18.587l-0.032-0.6c-0.189,0.248-0.385,0.427-0.59,0.536c-0.207,0.108-0.442,0.163-0.713,0.163
			c-0.559,0-0.998-0.188-1.322-0.562s-0.482-0.887-0.482-1.536c0-0.668,0.156-1.187,0.472-1.564
			c0.312-0.373,0.749-0.562,1.308-0.562c0.276,0,0.527,0.057,0.752,0.171c0.228,0.115,0.421,0.284,0.576,0.509v-2.384h0.743v5.02
			c0,0.142,0.005,0.277,0.011,0.41c0.01,0.131,0.021,0.264,0.038,0.398H33.238z M30.876,16.51c0,0.517,0.105,0.926,0.318,1.229
			c0.212,0.303,0.492,0.454,0.838,0.454c0.356,0,0.639-0.138,0.854-0.42c0.215-0.281,0.32-0.66,0.32-1.138
			c0-0.516-0.105-0.926-0.316-1.228c-0.211-0.303-0.492-0.455-0.841-0.455c-0.354,0-0.64,0.141-0.853,0.423
			C30.981,15.655,30.876,16.033,30.876,16.51z"/>
		<path fill="#FFFFFF" d="M38.15,18.587h-0.671c-0.026-0.084-0.055-0.289-0.08-0.616v-0.023c-0.104,0.239-0.265,0.424-0.49,0.551
			c-0.221,0.123-0.492,0.188-0.814,0.188c-0.41,0-0.74-0.113-0.986-0.336c-0.248-0.226-0.373-0.521-0.373-0.889
			c0-0.43,0.172-0.77,0.513-1.022c0.347-0.25,0.812-0.378,1.405-0.378h0.705v-0.493c0-0.219-0.066-0.382-0.203-0.494
			c-0.135-0.113-0.336-0.17-0.598-0.17c-0.25,0-0.449,0.063-0.594,0.188c-0.148,0.122-0.224,0.292-0.232,0.509h-0.721v-0.064
			c0-0.356,0.131-0.632,0.385-0.822c0.258-0.189,0.628-0.286,1.11-0.286c0.561,0,0.97,0.099,1.223,0.297
			c0.253,0.2,0.382,0.521,0.382,0.967v2.509c0,0.035,0.004,0.086,0.008,0.157C38.126,18.425,38.138,18.503,38.15,18.587z
			 M37.358,16.573h-0.632c-0.386,0-0.687,0.072-0.899,0.215c-0.213,0.144-0.32,0.344-0.32,0.604c0,0.197,0.072,0.361,0.217,0.492
			c0.146,0.131,0.33,0.194,0.548,0.194c0.352,0,0.62-0.093,0.809-0.279c0.186-0.189,0.278-0.465,0.278-0.821V16.573z"/>
		<path fill="#FFFFFF" d="M42.066,18.587l-0.03-0.6c-0.193,0.248-0.389,0.427-0.596,0.536c-0.202,0.108-0.438,0.163-0.711,0.163
			c-0.557,0-1-0.188-1.321-0.562c-0.323-0.373-0.484-0.887-0.484-1.536c0-0.668,0.157-1.187,0.471-1.564
			c0.316-0.373,0.753-0.562,1.312-0.562c0.276,0,0.526,0.057,0.751,0.171c0.227,0.115,0.42,0.284,0.578,0.509v-2.384h0.741v5.02
			c0,0.142,0.005,0.277,0.013,0.41c0.006,0.131,0.02,0.264,0.033,0.398H42.066z M39.704,16.51c0,0.517,0.104,0.926,0.314,1.229
			c0.215,0.303,0.494,0.454,0.844,0.454c0.354,0,0.639-0.138,0.853-0.42c0.212-0.281,0.321-0.66,0.321-1.138
			c0-0.516-0.107-0.926-0.318-1.228c-0.21-0.303-0.49-0.455-0.84-0.455c-0.355,0-0.643,0.141-0.855,0.423
			C39.809,15.655,39.704,16.033,39.704,16.51z"/>
		<path fill="#FFFFFF" d="M26.62,32.076v-8.648c-0.346,0.287-0.706,0.551-1.085,0.783c-0.378,0.234-0.778,0.443-1.198,0.63v-1.531
			c0.508-0.241,0.945-0.491,1.312-0.746c0.37-0.257,0.693-0.532,0.971-0.823h1.426v10.336H26.62z"/>
	</g>
</g>
</svg>
