<?xml version="1.0" encoding="utf-8"?>
<!-- Generator: Adobe Illustrator 16.0.0, SVG Export Plug-In . SVG Version: 6.00 Build 0)  -->
<!DOCTYPE svg PUBLIC "-//W3C//DTD SVG 1.1//EN" "http://www.w3.org/Graphics/SVG/1.1/DTD/svg11.dtd">
<svg version="1.1" id="Capa_1" xmlns="http://www.w3.org/2000/svg" xmlns:xlink="http://www.w3.org/1999/xlink" x="0px" y="0px"
	 width="43.535px" height="56.671px" viewBox="0 0 43.535 56.671" enable-background="new 0 0 43.535 56.671" xml:space="preserve">
<g>
	<g>
		<g>
			<path fill="#B55E47" d="M43.535,1.184c0,20.754,0,33.549,0,54.304c0,1.578-2.445,1.578-2.445,0c0-20.755,0-33.55,0-54.304
				C41.09-0.395,43.535-0.395,43.535,1.184L43.535,1.184z"/>
		</g>
		<g>
			
				<linearGradient id="SVGID_2_" gradientUnits="userSpaceOnUse" x1="679.666" y1="19.4004" x2="720.7559" y2="19.4004" gradientTransform="matrix(-1 0 0 1 720.7559 0)">
				<stop  offset="0" style="stop-color:#662483"/>
				<stop  offset="0.0043" style="stop-color:#682482"/>
				<stop  offset="0.1212" style="stop-color:#882277"/>
				<stop  offset="0.2425" style="stop-color:#A21E6D"/>
				<stop  offset="0.3694" style="stop-color:#B61963"/>
				<stop  offset="0.5021" style="stop-color:#C5155C"/>
				<stop  offset="0.6432" style="stop-color:#CF1056"/>
				<stop  offset="0.7985" style="stop-color:#D50C53"/>
				<stop  offset="0.9951" style="stop-color:#D60B52"/>
			</linearGradient>
			<polygon fill="url(#SVGID_2_)" points="0,36.131 41.09,36.131 41.09,2.67 0,2.67 0,6.584 10.68,9.355 0,13.106 0,17.567 
				4.156,22.727 0,26.966 4.81,33.488 			"/>
			<rect x="41.09" y="2.67" fill="#A3195B" width="2.445" height="33.461"/>
		</g>
	</g>
</g>
<g>
	<path fill="#FFFFFF" d="M7.073,19.274H6.379l2.126-5.004h0.716l2.011,5.004H10.45L9.951,17.98h-2.32L7.073,19.274z M9.744,17.412
		l-0.92-2.467l-0.971,2.467H9.744z"/>
	<path fill="#FFFFFF" d="M14.382,18.1c-0.025,0.409-0.156,0.72-0.39,0.936s-0.557,0.324-0.97,0.324
		c-0.496,0-0.879-0.151-1.146-0.456c-0.271-0.305-0.405-0.737-0.405-1.299c0-0.599,0.141-1.066,0.423-1.4
		c0.281-0.336,0.672-0.503,1.174-0.503c0.393,0,0.704,0.105,0.938,0.318c0.232,0.212,0.35,0.495,0.35,0.85v0.014H13.73
		c0-0.209-0.069-0.381-0.203-0.521c-0.135-0.139-0.304-0.209-0.505-0.209c-0.273,0-0.489,0.116-0.647,0.349
		c-0.157,0.23-0.235,0.548-0.235,0.949c0,0.469,0.072,0.822,0.22,1.062c0.145,0.238,0.361,0.356,0.649,0.356
		c0.223,0,0.403-0.067,0.538-0.207c0.138-0.138,0.208-0.327,0.212-0.562H14.382z"/>
	<path fill="#FFFFFF" d="M14.648,15.786h0.593v-0.715l0.637-0.218v0.933h0.778v0.458h-0.778v2.142c0,0.181,0.031,0.301,0.091,0.357
		c0.061,0.059,0.178,0.086,0.354,0.086c0.046,0,0.094-0.002,0.146-0.01c0.053-0.009,0.108-0.022,0.173-0.038v0.485
		c-0.104,0.027-0.2,0.049-0.281,0.063c-0.085,0.016-0.159,0.021-0.226,0.021c-0.327,0-0.56-0.055-0.693-0.169
		c-0.136-0.114-0.201-0.303-0.201-0.57v-2.368h-0.593V15.786z"/>
	<path fill="#FFFFFF" d="M17.88,14.979h-0.753v-0.708h0.753V14.979z M17.186,19.274v-3.488h0.644v3.488H17.186z"/>
	<path fill="#FFFFFF" d="M19.764,19.274l-1.426-3.488h0.652l1.112,2.765l1.128-2.765h0.637l-1.472,3.488H19.764z"/>
	<path fill="#FFFFFF" d="M23.098,14.979h-0.753v-0.708h0.753V14.979z M22.403,19.274v-3.488h0.646v3.488H22.403z"/>
	<path fill="#FFFFFF" d="M26.481,19.274l-0.027-0.517c-0.163,0.213-0.332,0.366-0.507,0.462c-0.175,0.093-0.379,0.14-0.611,0.14
		c-0.481,0-0.858-0.16-1.137-0.482c-0.277-0.32-0.414-0.762-0.414-1.32c0-0.571,0.135-1.019,0.403-1.342
		c0.272-0.323,0.646-0.484,1.126-0.484c0.238,0,0.451,0.052,0.646,0.149c0.194,0.099,0.359,0.244,0.494,0.436v-2.045h0.639v4.309
		c0,0.12,0.002,0.24,0.01,0.352c0.007,0.113,0.017,0.228,0.03,0.344H26.481z M24.452,17.49c0,0.443,0.09,0.794,0.273,1.054
		c0.181,0.261,0.424,0.392,0.72,0.392c0.307,0,0.551-0.12,0.734-0.361s0.274-0.566,0.274-0.977c0-0.442-0.091-0.795-0.27-1.055
		c-0.182-0.26-0.423-0.39-0.725-0.39c-0.306,0-0.549,0.12-0.732,0.361C24.545,16.755,24.452,17.079,24.452,17.49z"/>
	<path fill="#FFFFFF" d="M30.699,19.274h-0.577c-0.022-0.072-0.044-0.249-0.068-0.53v-0.021c-0.089,0.206-0.227,0.363-0.419,0.473
		c-0.19,0.108-0.425,0.163-0.699,0.163c-0.354,0-0.637-0.097-0.849-0.288c-0.214-0.194-0.32-0.448-0.32-0.765
		c0-0.368,0.147-0.66,0.44-0.877c0.296-0.215,0.696-0.323,1.207-0.323h0.604v-0.424c0-0.189-0.057-0.33-0.174-0.426
		c-0.118-0.097-0.288-0.146-0.513-0.146c-0.216,0-0.387,0.054-0.512,0.159c-0.124,0.105-0.19,0.253-0.198,0.438h-0.617v-0.055
		c0-0.308,0.109-0.543,0.331-0.706c0.219-0.165,0.538-0.247,0.952-0.247c0.481,0,0.83,0.087,1.049,0.257
		c0.22,0.17,0.328,0.446,0.328,0.829v2.154c0,0.029,0.002,0.074,0.008,0.135C30.68,19.136,30.688,19.202,30.699,19.274z
		 M30.019,17.543h-0.54c-0.333,0-0.592,0.063-0.774,0.187c-0.184,0.123-0.275,0.295-0.275,0.518c0,0.168,0.062,0.31,0.187,0.422
		c0.125,0.112,0.282,0.168,0.472,0.168c0.301,0,0.532-0.08,0.692-0.242c0.162-0.162,0.239-0.396,0.239-0.703V17.543z"/>
	<path fill="#FFFFFF" d="M34.062,19.274l-0.029-0.517c-0.163,0.213-0.331,0.366-0.507,0.462c-0.175,0.093-0.379,0.14-0.61,0.14
		c-0.481,0-0.859-0.16-1.138-0.482c-0.276-0.32-0.416-0.762-0.416-1.32c0-0.571,0.135-1.019,0.406-1.342
		c0.27-0.323,0.646-0.484,1.125-0.484c0.239,0,0.452,0.052,0.646,0.149c0.195,0.099,0.359,0.244,0.494,0.436v-2.045h0.638v4.309
		c0,0.12,0.005,0.24,0.012,0.352c0.007,0.113,0.018,0.228,0.029,0.344H34.062z M32.033,17.49c0,0.443,0.091,0.794,0.271,1.054
		c0.184,0.261,0.425,0.392,0.723,0.392c0.306,0,0.551-0.12,0.732-0.361c0.185-0.241,0.274-0.566,0.274-0.977
		c0-0.442-0.09-0.795-0.271-1.055c-0.181-0.26-0.42-0.39-0.722-0.39c-0.306,0-0.549,0.12-0.733,0.361
		C32.124,16.755,32.033,17.079,32.033,17.49z"/>
	<path fill="#FFFFFF" d="M17.769,28.505h1.336c0.038,0.488,0.185,0.854,0.439,1.09c0.254,0.24,0.633,0.359,1.13,0.359
		c0.555,0,0.995-0.141,1.321-0.42c0.324-0.279,0.488-0.654,0.488-1.123c0-0.533-0.188-0.948-0.568-1.237
		c-0.381-0.29-0.924-0.437-1.628-0.437c-0.032,0-0.082,0.004-0.149,0.009c-0.065,0.007-0.116,0.009-0.154,0.009l0.006-0.969
		c0.793-0.021,1.378-0.159,1.758-0.41c0.378-0.254,0.567-0.635,0.567-1.146c0-0.419-0.134-0.75-0.402-0.995
		c-0.271-0.246-0.638-0.366-1.102-0.366c-0.478,0-0.859,0.118-1.149,0.356c-0.288,0.239-0.439,0.561-0.456,0.969h-1.269
		c0.012-0.727,0.271-1.301,0.773-1.725c0.505-0.424,1.187-0.634,2.049-0.634c0.867,0,1.556,0.22,2.067,0.655
		c0.51,0.438,0.766,1.021,0.766,1.753c0,0.476-0.138,0.884-0.407,1.222c-0.269,0.338-0.67,0.603-1.198,0.793
		c0.549,0.112,0.982,0.359,1.289,0.74c0.31,0.382,0.465,0.857,0.465,1.426c0,0.773-0.286,1.4-0.853,1.875
		c-0.568,0.473-1.327,0.713-2.276,0.713c-0.902,0-1.602-0.219-2.095-0.654C18.026,29.923,17.776,29.306,17.769,28.505z"/>
</g>
</svg>
