<?xml version="1.0" encoding="utf-8"?>
<!-- Generator: Adobe Illustrator 16.0.0, SVG Export Plug-In . SVG Version: 6.00 Build 0)  -->
<!DOCTYPE svg PUBLIC "-//W3C//DTD SVG 1.1//EN" "http://www.w3.org/Graphics/SVG/1.1/DTD/svg11.dtd">
<svg version="1.1" id="Capa_1" xmlns="http://www.w3.org/2000/svg" xmlns:xlink="http://www.w3.org/1999/xlink" x="0px" y="0px"
	 width="50.702px" height="66.001px" viewBox="0 0 50.702 66.001" enable-background="new 0 0 50.702 66.001" xml:space="preserve">
<g>
	<g>
		<g>
			<g>
				<path fill="#B55E47" d="M0,1.378C0,25.549,0,40.45,0,64.622c0,1.838,2.848,1.838,2.848,0c0-24.172,0-39.073,0-63.244
					C2.848-0.459,0-0.459,0,1.378L0,1.378z"/>
			</g>
			<g>
				<linearGradient id="SVGID_2_" gradientUnits="userSpaceOnUse" x1="2.8477" y1="22.5938" x2="50.7021" y2="22.5938">
					<stop  offset="0" style="stop-color:#662483"/>
					<stop  offset="0.0251" style="stop-color:#652E86"/>
					<stop  offset="0.1244" style="stop-color:#5B4F91"/>
					<stop  offset="0.2286" style="stop-color:#4E6999"/>
					<stop  offset="0.3359" style="stop-color:#3F7D9D"/>
					<stop  offset="0.4471" style="stop-color:#2C8C9E"/>
					<stop  offset="0.5634" style="stop-color:#15969D"/>
					<stop  offset="0.687" style="stop-color:#009C9C"/>
					<stop  offset="0.8229" style="stop-color:#00A09B"/>
					<stop  offset="0.9951" style="stop-color:#00A19A"/>
				</linearGradient>
				<polygon fill="url(#SVGID_2_)" points="50.702,42.079 2.848,42.079 2.848,3.109 50.702,3.109 50.702,7.667 38.265,10.896 
					50.702,15.264 50.702,20.459 45.862,26.468 50.702,31.405 45.101,39.001 				"/>
				<rect y="3.109" fill="#00A19A" width="2.848" height="38.969"/>
			</g>
		</g>
	</g>
	<g>
		<path fill="#FFFFFF" d="M9.664,19.933H8.853l2.476-5.828h0.835l2.339,5.828h-0.909l-0.579-1.506H10.31L9.664,19.933z
			 M12.772,17.764L11.7,14.891l-1.131,2.873H12.772z"/>
		<path fill="#FFFFFF" d="M18.173,18.566c-0.03,0.474-0.182,0.839-0.455,1.089c-0.271,0.252-0.645,0.377-1.127,0.377
			c-0.577,0-1.023-0.176-1.337-0.529c-0.313-0.357-0.47-0.862-0.47-1.513c0-0.699,0.164-1.244,0.49-1.633
			c0.328-0.39,0.786-0.585,1.369-0.585c0.457,0,0.819,0.124,1.092,0.37c0.271,0.247,0.407,0.576,0.407,0.989v0.018h-0.729
			c0-0.244-0.078-0.444-0.235-0.606c-0.158-0.161-0.355-0.244-0.588-0.244c-0.32,0-0.57,0.133-0.756,0.406
			c-0.184,0.27-0.273,0.638-0.273,1.107c0,0.545,0.084,0.955,0.256,1.236c0.168,0.277,0.422,0.415,0.754,0.415
			c0.262,0,0.472-0.079,0.629-0.242c0.158-0.161,0.242-0.381,0.247-0.655H18.173z"/>
		<path fill="#FFFFFF" d="M18.481,15.872h0.69v-0.835l0.744-0.252v1.087h0.907v0.535h-0.907v2.491c0,0.212,0.036,0.352,0.105,0.418
			c0.069,0.068,0.208,0.099,0.413,0.099c0.051,0,0.109-0.002,0.171-0.012c0.061-0.008,0.125-0.023,0.2-0.042v0.566
			c-0.121,0.032-0.232,0.056-0.328,0.073c-0.098,0.016-0.184,0.024-0.263,0.024c-0.381,0-0.649-0.064-0.808-0.196
			c-0.155-0.133-0.235-0.354-0.235-0.664v-2.758h-0.69V15.872z"/>
		<path fill="#FFFFFF" d="M22.246,14.931H21.37v-0.825h0.876V14.931z M21.438,19.933v-4.062h0.748v4.062H21.438z"/>
		<path fill="#FFFFFF" d="M24.441,19.933l-1.66-4.062h0.757l1.299,3.221l1.312-3.221h0.742l-1.714,4.062H24.441z"/>
		<path fill="#FFFFFF" d="M28.325,14.931h-0.876v-0.825h0.876V14.931z M27.514,19.933v-4.062h0.753v4.062H27.514z"/>
		<path fill="#FFFFFF" d="M32.265,19.933l-0.033-0.6c-0.19,0.247-0.384,0.427-0.59,0.536c-0.203,0.11-0.443,0.163-0.712,0.163
			c-0.561,0-0.999-0.187-1.321-0.56c-0.324-0.376-0.484-0.887-0.484-1.539c0-0.667,0.156-1.187,0.471-1.562
			c0.316-0.374,0.752-0.562,1.309-0.562c0.277,0,0.529,0.058,0.755,0.172c0.225,0.115,0.416,0.284,0.573,0.507v-2.381h0.742v5.018
			c0,0.143,0.006,0.279,0.016,0.411c0.007,0.132,0.019,0.264,0.033,0.399H32.265z M29.9,17.855c0,0.517,0.106,0.926,0.32,1.229
			c0.211,0.302,0.49,0.454,0.838,0.454c0.355,0,0.64-0.14,0.854-0.421c0.213-0.279,0.318-0.659,0.318-1.135
			c0-0.517-0.105-0.926-0.316-1.23c-0.21-0.302-0.49-0.453-0.841-0.453c-0.356,0-0.64,0.141-0.852,0.422
			C30.007,17,29.9,17.379,29.9,17.855z"/>
		<path fill="#FFFFFF" d="M37.177,19.933h-0.673c-0.026-0.084-0.054-0.29-0.079-0.615v-0.024c-0.104,0.237-0.264,0.422-0.488,0.549
			c-0.222,0.126-0.493,0.189-0.817,0.189c-0.409,0-0.738-0.112-0.985-0.335c-0.248-0.224-0.371-0.52-0.371-0.89
			c0-0.429,0.17-0.769,0.514-1.022c0.342-0.251,0.809-0.376,1.4-0.376h0.711v-0.495c0-0.218-0.068-0.382-0.204-0.495
			c-0.138-0.113-0.337-0.169-0.601-0.169c-0.251,0-0.446,0.063-0.594,0.188c-0.146,0.121-0.223,0.292-0.232,0.509h-0.719v-0.063
			c0-0.358,0.129-0.633,0.387-0.823c0.258-0.19,0.625-0.288,1.107-0.288c0.56,0,0.969,0.101,1.223,0.299
			c0.255,0.199,0.382,0.52,0.382,0.965v2.51c0,0.033,0.005,0.085,0.009,0.157C37.153,19.772,37.161,19.849,37.177,19.933z
			 M36.388,17.918h-0.636c-0.387,0-0.687,0.072-0.899,0.216c-0.213,0.143-0.32,0.343-0.32,0.601c0,0.199,0.073,0.363,0.218,0.494
			c0.146,0.13,0.326,0.194,0.549,0.194c0.351,0,0.62-0.093,0.807-0.281c0.187-0.189,0.282-0.464,0.282-0.821V17.918z"/>
		<path fill="#FFFFFF" d="M41.093,19.933l-0.033-0.6c-0.188,0.247-0.387,0.427-0.591,0.536c-0.204,0.11-0.44,0.163-0.714,0.163
			c-0.557,0-0.998-0.187-1.318-0.56c-0.324-0.376-0.486-0.887-0.486-1.539c0-0.667,0.158-1.187,0.474-1.562
			c0.315-0.374,0.751-0.562,1.307-0.562c0.278,0,0.531,0.058,0.755,0.172c0.225,0.115,0.418,0.284,0.574,0.507v-2.381h0.742v5.018
			c0,0.143,0.006,0.279,0.012,0.411c0.009,0.132,0.021,0.264,0.035,0.399H41.093z M38.729,17.855c0,0.517,0.105,0.926,0.318,1.229
			c0.212,0.302,0.49,0.454,0.838,0.454c0.356,0,0.641-0.14,0.856-0.421c0.21-0.279,0.317-0.659,0.317-1.135
			c0-0.517-0.105-0.926-0.315-1.23c-0.211-0.302-0.493-0.453-0.843-0.453c-0.354,0-0.641,0.141-0.854,0.422
			C38.835,17,38.729,17.379,38.729,17.855z"/>
		<path fill="#FFFFFF" d="M28.84,33.422h-6.452v-1.484c1.914-1.739,3.231-3.057,3.949-3.957c0.716-0.898,1.076-1.646,1.076-2.246
			c0-0.489-0.154-0.881-0.463-1.181c-0.309-0.299-0.713-0.449-1.213-0.449c-0.516,0-0.914,0.154-1.197,0.457
			c-0.281,0.304-0.425,0.743-0.425,1.312h-1.571c0.029-0.943,0.313-1.672,0.855-2.193c0.54-0.519,1.285-0.778,2.231-0.778
			c0.979,0,1.763,0.258,2.347,0.773c0.584,0.513,0.877,1.206,0.877,2.076c0,0.612-0.15,1.196-0.449,1.749
			c-0.301,0.553-0.934,1.311-1.896,2.271l-2.434,2.434h4.765V33.422z"/>
	</g>
</g>
</svg>
