<?xml version="1.0" encoding="utf-8"?>
<!-- Generator: Adobe Illustrator 16.0.0, SVG Export Plug-In . SVG Version: 6.00 Build 0)  -->
<!DOCTYPE svg PUBLIC "-//W3C//DTD SVG 1.1//EN" "http://www.w3.org/Graphics/SVG/1.1/DTD/svg11.dtd">
<svg version="1.1" id="Capa_1" xmlns="http://www.w3.org/2000/svg" xmlns:xlink="http://www.w3.org/1999/xlink" x="0px" y="0px"
	 width="184.838px" height="172.627px" viewBox="0 0 184.838 172.627" enable-background="new 0 0 184.838 172.627"
	 xml:space="preserve">
<g>
	<path fill-rule="evenodd" clip-rule="evenodd" fill="#F2961C" d="M125.652,0c6.916,0,12.525,6.244,12.525,13.945v9.379
		c0,7.701-5.609,43.283-12.525,43.283h-1.574c-6.918,0-12.527-6.242-12.527-13.943V13.945C111.551,6.244,117.16,0,124.078,0H125.652
		z"/>
	<g>
		<path fill="#FFFFFF" d="M117.699,22.066c0-3.431,0-6.861,0-10.289c0.02-0.041,0.047-0.078,0.055-0.121
			c0.219-1.362,1.371-2.388,2.762-2.393c3.236-0.018,6.471-0.019,9.705,0c1.537,0.008,2.795,1.265,2.803,2.803
			c0.018,3.235,0.012,6.47,0,9.703c-0.002,0.703-0.254,1.32-0.732,1.854c-0.482,0.537-1.09,0.822-1.781,0.965
			c-3.43,0-6.859,0-10.289,0c-0.541-0.124-1.051-0.304-1.486-0.674C118.158,23.422,117.842,22.795,117.699,22.066z M125.365,22.052
			c1.523,0,3.043,0,4.564-0.002c0.455,0,0.562-0.108,0.562-0.558c0.004-3.042,0.004-6.084,0-9.127c0-0.469-0.104-0.572-0.582-0.572
			c-3.031-0.002-6.061-0.002-9.092,0c-0.475,0-0.58,0.104-0.58,0.575c-0.002,3.03-0.002,6.06,0,9.092c0,0.491,0.1,0.59,0.6,0.59
			C122.348,22.052,123.855,22.052,125.365,22.052z"/>
		<path fill-rule="evenodd" clip-rule="evenodd" fill="#FFFFFF" d="M125.391,14.367c1.02,0,2.041,0.002,3.062-0.004
			c0.281,0,0.512,0.068,0.658,0.328c0.156,0.276,0.088,0.512-0.084,0.753c-1.039,1.444-2.07,2.896-3.109,4.34
			c-0.324,0.452-0.787,0.444-1.117-0.013c-1.029-1.436-2.055-2.877-3.086-4.312c-0.172-0.237-0.26-0.474-0.105-0.753
			c0.148-0.273,0.391-0.346,0.684-0.344C123.324,14.371,124.357,14.367,125.391,14.367z"/>
	</g>
	<polygon fill="#2C5A67" points="184.617,119.85 44.002,126.617 19.766,172.627 173.125,169.139 174.254,164.309 	"/>
	<polygon fill="#F2961C" points="184.838,119.686 44.256,127.127 15.504,83.797 168.434,71.805 170.045,76.496 	"/>
	<polygon fill="#2C5A67" points="0,35.428 140.617,28.637 169.168,72.1 16.184,83.383 14.594,78.684 	"/>
	<g>
		<path fill-rule="evenodd" clip-rule="evenodd" fill="#FFFFFF" d="M115.605,42.706c-0.1-0.069-0.26-0.104-0.482-0.104h-0.445v0.913
			h0.445c0.223,0,0.375-0.04,0.479-0.113c0.111-0.075,0.156-0.191,0.156-0.351C115.758,42.895,115.713,42.783,115.605,42.706z
			 M115.605,42.706c-0.1-0.069-0.26-0.104-0.482-0.104h-0.445v0.913h0.445c0.223,0,0.375-0.04,0.479-0.113
			c0.111-0.075,0.156-0.191,0.156-0.351C115.758,42.895,115.713,42.783,115.605,42.706z M115.605,42.706
			c-0.1-0.069-0.26-0.104-0.482-0.104h-0.445v0.913h0.445c0.223,0,0.375-0.04,0.479-0.113c0.111-0.075,0.156-0.191,0.156-0.351
			C115.758,42.895,115.713,42.783,115.605,42.706z M119.586,42.869c-0.189-0.174-0.488-0.262-0.9-0.262h-0.361v2.162h0.361
			c0.414,0,0.717-0.088,0.9-0.253c0.182-0.167,0.275-0.444,0.275-0.822C119.861,43.312,119.768,43.038,119.586,42.869z
			 M115.605,42.706c-0.1-0.069-0.26-0.104-0.482-0.104h-0.445v0.913h0.445c0.223,0,0.375-0.04,0.479-0.113
			c0.111-0.075,0.156-0.191,0.156-0.351C115.758,42.895,115.713,42.783,115.605,42.706z M119.586,42.869
			c-0.189-0.174-0.488-0.262-0.9-0.262h-0.361v2.162h0.361c0.414,0,0.717-0.088,0.9-0.253c0.182-0.167,0.275-0.444,0.275-0.822
			C119.861,43.312,119.768,43.038,119.586,42.869z M132.666,38.484h-20.793c-0.92,0-1.664,0.709-1.664,1.582v25.439
			c0,0.875,0.744,1.584,1.664,1.584h9.213l-0.607-0.699h-6.656c-0.914,0-1.66-0.709-1.66-1.585V48.486h20.469v16.319
			c0,0.876-0.738,1.585-1.66,1.585h-0.938l-0.557,0.699h3.189c0.92,0,1.658-0.709,1.658-1.584V40.066
			C134.324,39.193,133.586,38.484,132.666,38.484z M116.422,43.898c-0.242,0.199-0.58,0.299-1.016,0.299h-0.729v1.233h-1.014v-3.478
			h1.674c0.473,0,0.838,0.096,1.078,0.281c0.248,0.188,0.367,0.467,0.367,0.828C116.783,43.42,116.664,43.698,116.422,43.898z
			 M120.379,45c-0.354,0.287-0.885,0.431-1.596,0.431h-1.473v-3.478h1.473c0.711,0,1.242,0.146,1.596,0.434
			c0.355,0.292,0.529,0.727,0.529,1.308S120.734,44.709,120.379,45z M124.066,42.617h-1.553v0.807h1.439v0.657h-1.439v1.35h-1.012
			v-3.478h2.564V42.617z M118.686,42.607h-0.361v2.162h0.361c0.414,0,0.717-0.088,0.9-0.253c0.182-0.167,0.275-0.444,0.275-0.822
			c0-0.382-0.094-0.656-0.275-0.825C119.396,42.695,119.098,42.607,118.686,42.607z M115.605,42.706
			c-0.1-0.069-0.26-0.104-0.482-0.104h-0.445v0.913h0.445c0.223,0,0.375-0.04,0.479-0.113c0.111-0.075,0.156-0.191,0.156-0.351
			C115.758,42.895,115.713,42.783,115.605,42.706z M119.586,42.869c-0.189-0.174-0.488-0.262-0.9-0.262h-0.361v2.162h0.361
			c0.414,0,0.717-0.088,0.9-0.253c0.182-0.167,0.275-0.444,0.275-0.822C119.861,43.312,119.768,43.038,119.586,42.869z
			 M115.605,42.706c-0.1-0.069-0.26-0.104-0.482-0.104h-0.445v0.913h0.445c0.223,0,0.375-0.04,0.479-0.113
			c0.111-0.075,0.156-0.191,0.156-0.351C115.758,42.895,115.713,42.783,115.605,42.706z M119.586,42.869
			c-0.189-0.174-0.488-0.262-0.9-0.262h-0.361v2.162h0.361c0.414,0,0.717-0.088,0.9-0.253c0.182-0.167,0.275-0.444,0.275-0.822
			C119.861,43.312,119.768,43.038,119.586,42.869z M115.605,42.706c-0.1-0.069-0.26-0.104-0.482-0.104h-0.445v0.913h0.445
			c0.223,0,0.375-0.04,0.479-0.113c0.111-0.075,0.156-0.191,0.156-0.351C115.758,42.895,115.713,42.783,115.605,42.706z"/>
		<polygon fill-rule="evenodd" clip-rule="evenodd" fill="#FFFFFF" points="120.248,64.575 125.355,70.484 130.092,64.575 
			127.748,64.575 127.744,63.135 122.818,63.135 122.836,64.575 		"/>
		<path fill-rule="evenodd" clip-rule="evenodd" fill="#FFFFFF" d="M127.73,61.689c0,0.209-0.18,0.384-0.402,0.384h-3.984
			c-0.225,0-0.408-0.175-0.408-0.384l0,0c0-0.215,0.184-0.386,0.408-0.386h3.984C127.551,61.304,127.73,61.475,127.73,61.689
			L127.73,61.689z"/>
		<path fill-rule="evenodd" clip-rule="evenodd" fill="#FFFFFF" d="M127.73,60.133c0,0.236-0.197,0.428-0.447,0.428h-3.902
			c-0.244,0-0.445-0.191-0.445-0.428l0,0c0-0.235,0.201-0.424,0.445-0.424h3.902C127.533,59.709,127.73,59.897,127.73,60.133
			L127.73,60.133z"/>
	</g>
	<g>
		<path fill="#FFFFFF" d="M29.109,51.293h-2.98v-9.4h2.637c0.924,0,1.621,0.064,2.084,0.191c0.457,0.123,0.879,0.331,1.244,0.621
			c0.527,0.414,0.928,0.971,1.213,1.658c0.281,0.688,0.42,1.477,0.42,2.36c0,0.712-0.1,1.378-0.301,1.976
			c-0.205,0.595-0.486,1.095-0.855,1.488c-0.391,0.398-0.832,0.68-1.348,0.848C30.719,51.209,30.01,51.293,29.109,51.293z
			 M29.393,50.173c1.006,0,1.76-0.288,2.264-0.862c0.504-0.571,0.752-1.435,0.752-2.587c0-1.216-0.279-2.157-0.834-2.813
			c-0.561-0.655-1.363-0.983-2.402-0.983h-1.781v7.246H29.393z"/>
		<path fill="#FFFFFF" d="M40.818,49.189c0,0.684-0.248,1.229-0.73,1.645c-0.479,0.416-1.121,0.623-1.91,0.623
			c-1.02,0-1.795-0.283-2.322-0.846c-0.525-0.561-0.789-1.378-0.789-2.461c0-1.155,0.258-2.035,0.775-2.65
			c0.52-0.61,1.27-0.916,2.236-0.916c0.889,0,1.588,0.255,2.098,0.76c0.512,0.508,0.77,1.202,0.77,2.078
			c0,0.209-0.004,0.372-0.014,0.482c0,0.11-0.012,0.209-0.018,0.311h-4.643v0.131v0.262c0,0.616,0.158,1.098,0.479,1.435
			c0.318,0.341,0.766,0.506,1.346,0.506c0.482,0,0.865-0.117,1.146-0.363c0.285-0.247,0.43-0.573,0.436-0.995H40.818z
			 M36.332,47.367h3.381v-0.145c0-0.547-0.146-0.98-0.449-1.317c-0.301-0.331-0.689-0.501-1.168-0.501
			c-0.518,0-0.941,0.182-1.268,0.543C36.5,46.309,36.332,46.785,36.332,47.367z"/>
		<path fill="#FFFFFF" d="M42.141,49.322h1.209v0.027c0,0.357,0.129,0.646,0.383,0.862c0.25,0.219,0.586,0.322,1.008,0.322
			c0.406,0,0.736-0.094,0.992-0.289c0.248-0.189,0.377-0.437,0.377-0.738c0-0.229-0.062-0.415-0.193-0.554
			c-0.129-0.142-0.328-0.24-0.596-0.311l-1.391-0.325c-0.588-0.136-1.025-0.347-1.311-0.63c-0.285-0.285-0.428-0.646-0.428-1.076
			c0-0.602,0.24-1.086,0.727-1.457c0.49-0.365,1.129-0.557,1.928-0.557c0.732,0,1.312,0.154,1.73,0.461
			c0.432,0.311,0.641,0.73,0.641,1.264c0,0.051,0,0.093,0,0.119s-0.012,0.056-0.012,0.076h-1.207v-0.056
			c0-0.31-0.104-0.564-0.334-0.739c-0.219-0.185-0.523-0.279-0.91-0.279c-0.383,0-0.689,0.095-0.938,0.279
			c-0.246,0.175-0.369,0.402-0.369,0.678c0,0.215,0.072,0.385,0.221,0.513c0.148,0.129,0.396,0.241,0.738,0.335l1.494,0.406
			c0.512,0.135,0.893,0.353,1.143,0.644c0.248,0.282,0.365,0.655,0.365,1.12c0,0.617-0.232,1.11-0.705,1.48
			c-0.473,0.371-1.107,0.559-1.912,0.559c-0.914,0-1.584-0.164-2.01-0.482c-0.428-0.318-0.641-0.818-0.641-1.498V49.322z"/>
		<path fill="#FFFFFF" d="M54.109,49.092c-0.055,0.765-0.297,1.346-0.73,1.754c-0.441,0.404-1.053,0.611-1.828,0.611
			c-0.928,0-1.646-0.289-2.154-0.859c-0.504-0.572-0.76-1.384-0.76-2.443c0-1.119,0.268-1.996,0.797-2.629
			c0.529-0.629,1.262-0.941,2.211-0.941c0.73,0,1.316,0.205,1.752,0.598c0.441,0.397,0.658,0.93,0.658,1.596v0.023h-1.176
			c0-0.388-0.127-0.717-0.377-0.975c-0.258-0.266-0.574-0.395-0.951-0.395c-0.508,0-0.918,0.221-1.213,0.652
			c-0.299,0.438-0.443,1.034-0.443,1.787c0,0.881,0.137,1.547,0.408,1.992c0.281,0.448,0.688,0.671,1.223,0.671
			c0.422,0,0.758-0.13,1.01-0.389c0.262-0.262,0.391-0.617,0.402-1.054H54.109z"/>
		<path fill="#FFFFFF" d="M60.793,51.293h-1.082c-0.045-0.135-0.09-0.463-0.129-0.994v-0.037c-0.164,0.387-0.426,0.683-0.789,0.887
			c-0.357,0.203-0.795,0.309-1.312,0.309c-0.668,0-1.193-0.179-1.594-0.544c-0.398-0.362-0.602-0.837-0.602-1.437
			c0-0.693,0.277-1.237,0.83-1.647c0.553-0.407,1.307-0.606,2.264-0.606h1.133v-0.797c0-0.349-0.1-0.617-0.324-0.799
			c-0.217-0.184-0.539-0.273-0.967-0.273c-0.4,0-0.721,0.103-0.955,0.301c-0.24,0.197-0.357,0.471-0.373,0.822h-1.16v-0.104
			c0-0.574,0.207-1.02,0.619-1.327c0.416-0.31,1.012-0.462,1.791-0.462c0.902,0,1.561,0.162,1.971,0.479
			c0.406,0.325,0.617,0.843,0.617,1.561v4.047c0,0.055,0.006,0.136,0.012,0.253C60.76,51.035,60.77,51.158,60.793,51.293z
			 M59.512,48.043h-1.01c-0.629,0-1.111,0.121-1.457,0.35c-0.344,0.23-0.514,0.555-0.514,0.971c0,0.318,0.115,0.587,0.348,0.793
			c0.23,0.213,0.529,0.316,0.887,0.316c0.562,0,0.994-0.152,1.303-0.453c0.301-0.303,0.443-0.744,0.443-1.324V48.043z"/>
		<path fill="#FFFFFF" d="M62.672,51.293v-5.521c0-0.211-0.002-0.4-0.008-0.559c-0.008-0.154-0.018-0.312-0.035-0.467h1.217
			l0.023,1.25c0.121-0.41,0.332-0.727,0.643-0.938c0.307-0.213,0.709-0.312,1.201-0.312c0.086,0,0.174,0.004,0.258,0.009
			c0.082,0.005,0.164,0.017,0.238,0.034v1.133c-0.129-0.029-0.25-0.049-0.363-0.065c-0.107-0.009-0.209-0.017-0.293-0.017
			c-0.537,0-0.953,0.15-1.248,0.458c-0.285,0.306-0.436,0.744-0.436,1.313v3.682H62.672z"/>
		<path fill="#FFFFFF" d="M71.963,50.051c-0.127,0.261-0.379,0.48-0.756,0.672c-0.379,0.18-0.777,0.275-1.186,0.275
			c-0.926,0-1.631-0.274-2.121-0.825c-0.498-0.55-0.74-1.339-0.74-2.379c0-0.974,0.248-1.755,0.758-2.329
			c0.502-0.58,1.182-0.867,2.037-0.867c0.508,0,0.938,0.078,1.285,0.241c0.346,0.157,0.619,0.396,0.811,0.716l0.047-0.809h1.137
			c-0.018,0.184-0.033,0.367-0.039,0.546c-0.01,0.177-0.014,0.386-0.014,0.613v5.179c0,0.978-0.242,1.693-0.73,2.135
			c-0.488,0.451-1.26,0.677-2.316,0.677c-0.918,0-1.586-0.181-2.008-0.524c-0.418-0.352-0.633-0.908-0.639-1.668h1.305
			c0.004,0.437,0.131,0.768,0.379,0.993c0.246,0.23,0.613,0.347,1.088,0.347c0.578,0,1.008-0.143,1.285-0.43
			c0.281-0.285,0.418-0.729,0.418-1.33V50.051z M72.109,47.731c0-0.703-0.168-1.27-0.504-1.685c-0.338-0.42-0.791-0.632-1.346-0.632
			c-0.564,0-1.006,0.23-1.336,0.677c-0.334,0.454-0.498,1.066-0.498,1.84c0,0.707,0.174,1.268,0.51,1.684
			c0.328,0.412,0.775,0.624,1.346,0.624c0.553,0,0.994-0.226,1.33-0.675C71.945,49.112,72.109,48.506,72.109,47.731z"/>
		<path fill="#FFFFFF" d="M80.287,51.293h-1.082c-0.039-0.135-0.082-0.463-0.129-0.994v-0.037c-0.166,0.387-0.426,0.683-0.787,0.887
			c-0.357,0.203-0.797,0.309-1.314,0.309c-0.664,0-1.195-0.179-1.592-0.544c-0.402-0.362-0.604-0.837-0.604-1.437
			c0-0.693,0.283-1.237,0.83-1.647c0.553-0.407,1.303-0.606,2.266-0.606h1.139v-0.797c0-0.349-0.113-0.617-0.33-0.799
			c-0.221-0.184-0.537-0.273-0.963-0.273c-0.404,0-0.729,0.103-0.967,0.301c-0.234,0.197-0.355,0.471-0.369,0.822h-1.152v-0.104
			c0-0.574,0.203-1.02,0.617-1.327c0.414-0.31,1.012-0.462,1.785-0.462c0.902,0,1.562,0.162,1.977,0.479
			c0.41,0.325,0.613,0.843,0.613,1.561v4.047c0,0.055,0.008,0.136,0.014,0.253C80.248,51.035,80.266,51.158,80.287,51.293z
			 M79.014,48.043h-1.021c-0.623,0-1.113,0.121-1.449,0.35c-0.348,0.23-0.52,0.555-0.52,0.971c0,0.318,0.117,0.587,0.354,0.793
			c0.234,0.213,0.527,0.316,0.883,0.316c0.566,0,1-0.152,1.299-0.453c0.305-0.303,0.455-0.744,0.455-1.324V48.043z"/>
		<path fill="#FFFFFF" d="M82.172,51.293v-5.521c0-0.211-0.006-0.4-0.016-0.559c-0.006-0.154-0.014-0.312-0.027-0.467h1.213
			l0.02,1.25c0.123-0.41,0.336-0.727,0.643-0.938c0.311-0.213,0.713-0.312,1.203-0.312c0.09,0,0.172,0.004,0.256,0.009
			s0.16,0.017,0.24,0.034v1.133c-0.135-0.029-0.254-0.049-0.365-0.065c-0.105-0.009-0.205-0.017-0.291-0.017
			c-0.539,0-0.955,0.15-1.246,0.458c-0.291,0.306-0.439,0.744-0.439,1.313v3.682H82.172z"/>
		<path fill="#FFFFFF" d="M44.57,63.079v-8.876h3.094c0.971,0,1.695,0.203,2.174,0.605c0.477,0.414,0.715,1.021,0.715,1.837
			c0,0.872-0.279,1.516-0.832,1.928c-0.562,0.406-1.439,0.612-2.639,0.612h-1.328v3.894H44.57z M47.467,58.089
			c0.656,0,1.125-0.112,1.41-0.333c0.281-0.225,0.422-0.586,0.422-1.083c0-0.517-0.137-0.89-0.42-1.111
			c-0.281-0.22-0.75-0.335-1.412-0.335h-1.713v2.862H47.467z"/>
		<path fill="#FFFFFF" d="M54.811,63.079H52v-8.876h2.488c0.869,0,1.523,0.062,1.963,0.182c0.434,0.115,0.828,0.312,1.174,0.584
			c0.5,0.395,0.879,0.916,1.143,1.566c0.27,0.649,0.4,1.395,0.4,2.228c0,0.673-0.096,1.299-0.289,1.862
			c-0.186,0.566-0.455,1.033-0.805,1.403c-0.363,0.374-0.785,0.647-1.268,0.806C56.33,62.996,55.66,63.079,54.811,63.079z
			 M55.078,62.015c0.949,0,1.662-0.27,2.133-0.81c0.479-0.54,0.711-1.352,0.711-2.442c0-1.15-0.262-2.036-0.785-2.657
			c-0.531-0.615-1.287-0.926-2.268-0.926h-1.684v6.835H55.078z"/>
		<path fill="#FFFFFF" d="M60.838,63.079v-8.876H66v1.068h-3.977v2.718h3.766v1.057h-3.766v4.033H60.838z"/>
	</g>
	<g>
		<g>
			<path fill="#FFFFFF" d="M64.338,146.895c-0.02,0.803-0.334,1.436-0.924,1.906c-0.605,0.471-1.406,0.707-2.418,0.707
				c-1.234,0-2.178-0.404-2.822-1.199c-0.65-0.799-0.975-1.957-0.975-3.467c0-1.516,0.34-2.691,1.02-3.512
				c0.68-0.83,1.646-1.246,2.895-1.246c0.982,0,1.752,0.227,2.32,0.678c0.559,0.445,0.859,1.068,0.879,1.855h-1.295
				c-0.041-0.469-0.25-0.842-0.621-1.133c-0.371-0.289-0.83-0.432-1.4-0.432c-0.785,0-1.398,0.326-1.832,0.986
				c-0.441,0.658-0.66,1.578-0.66,2.764c0,1.166,0.219,2.062,0.648,2.697c0.432,0.637,1.047,0.959,1.844,0.959
				c0.576,0,1.039-0.141,1.393-0.414c0.35-0.281,0.543-0.666,0.588-1.15H64.338z"/>
			<path fill="#FFFFFF" d="M65.842,149.354v-5.365c0-0.207,0-0.393-0.008-0.543c-0.002-0.15-0.016-0.303-0.021-0.455h1.172
				l0.021,1.215c0.117-0.4,0.322-0.705,0.629-0.91c0.291-0.209,0.684-0.305,1.162-0.305c0.086,0,0.17,0,0.248,0.008
				c0.084,0.006,0.16,0.016,0.232,0.031v1.1c-0.127-0.023-0.24-0.045-0.352-0.057c-0.107-0.012-0.199-0.021-0.285-0.021
				c-0.525,0-0.926,0.148-1.207,0.451c-0.281,0.291-0.428,0.717-0.428,1.273v3.578H65.842z"/>
			<path fill="#FFFFFF" d="M75.793,147.309c-0.004,0.66-0.238,1.193-0.707,1.592c-0.473,0.404-1.09,0.607-1.863,0.607
				c-0.984,0-1.74-0.271-2.252-0.82s-0.764-1.34-0.764-2.393c0-1.125,0.252-1.977,0.752-2.572c0.506-0.588,1.232-0.889,2.17-0.889
				c0.865,0,1.545,0.242,2.039,0.738c0.494,0.498,0.738,1.166,0.738,2.016c0,0.207,0,0.363-0.004,0.475
				c-0.004,0.104-0.01,0.201-0.018,0.301h-4.508v0.121v0.256c0,0.605,0.15,1.07,0.459,1.391c0.307,0.334,0.744,0.496,1.316,0.496
				c0.463,0,0.838-0.117,1.105-0.359c0.279-0.234,0.416-0.553,0.432-0.959H75.793z M71.434,145.535h3.283v-0.141
				c0-0.529-0.148-0.953-0.436-1.281c-0.291-0.32-0.674-0.48-1.129-0.48c-0.508,0-0.92,0.176-1.242,0.527
				C71.594,144.504,71.434,144.969,71.434,145.535z M72.184,142.15l1.262-2.152h1.246l-1.764,2.152H72.184z"/>
			<path fill="#FFFFFF" d="M82.096,149.354l-0.053-0.941c-0.293,0.387-0.602,0.666-0.926,0.838c-0.316,0.17-0.693,0.258-1.113,0.258
				c-0.873,0-1.564-0.297-2.07-0.881c-0.51-0.582-0.764-1.387-0.764-2.406c0-1.051,0.244-1.861,0.742-2.447
				c0.494-0.592,1.176-0.885,2.053-0.885c0.432,0,0.828,0.088,1.178,0.266c0.355,0.182,0.654,0.449,0.9,0.797v-3.732h1.168v7.865
				c0,0.225,0.006,0.436,0.016,0.643c0.014,0.213,0.029,0.416,0.059,0.627H82.096z M78.395,146.094c0,0.809,0.164,1.457,0.5,1.928
				c0.33,0.473,0.771,0.711,1.311,0.711c0.564,0,1.008-0.221,1.342-0.662c0.332-0.438,0.496-1.025,0.496-1.775
				c0-0.809-0.16-1.453-0.492-1.926s-0.77-0.717-1.314-0.717c-0.559,0-1.006,0.225-1.34,0.662
				C78.559,144.76,78.395,145.35,78.395,146.094z"/>
			<path fill="#FFFFFF" d="M86.457,141.518h-1.373v-1.299h1.373V141.518z M85.191,149.354v-6.363h1.172v6.363H85.191z"/>
			<path fill="#FFFFFF" d="M87.48,142.99h1.084v-1.311l1.164-0.396v1.707h1.418v0.838h-1.418v3.902c0,0.328,0.055,0.549,0.16,0.652
				c0.113,0.104,0.33,0.158,0.65,0.158c0.086,0,0.17-0.01,0.264-0.021c0.098-0.018,0.203-0.033,0.318-0.061v0.879
				c-0.191,0.051-0.365,0.088-0.518,0.111c-0.15,0.031-0.289,0.045-0.404,0.045c-0.602,0-1.018-0.1-1.266-0.309
				c-0.246-0.207-0.369-0.551-0.369-1.047v-4.311H87.48V142.99z"/>
			<path fill="#FFFFFF" d="M92.033,146.295c0-1.066,0.279-1.906,0.85-2.521c0.566-0.619,1.336-0.926,2.316-0.926
				c0.99,0,1.762,0.287,2.309,0.863c0.551,0.572,0.824,1.381,0.824,2.406c0,1.072-0.281,1.904-0.854,2.496
				c-0.561,0.596-1.359,0.895-2.393,0.895c-0.939,0-1.691-0.291-2.238-0.861C92.305,148.07,92.033,147.285,92.033,146.295z
				 M95.199,143.691c-0.605,0-1.08,0.225-1.436,0.68c-0.35,0.457-0.527,1.078-0.527,1.857c0,0.768,0.166,1.348,0.51,1.766
				c0.336,0.412,0.816,0.619,1.428,0.619c0.613,0,1.096-0.217,1.443-0.654c0.354-0.445,0.527-1.049,0.527-1.83
				c0-0.773-0.168-1.369-0.51-1.799C96.295,143.898,95.816,143.691,95.199,143.691z"/>
			<path fill="#FFFFFF" d="M99.529,147.438h1.176v0.023c0,0.35,0.119,0.625,0.367,0.838c0.244,0.211,0.572,0.314,0.984,0.314
				c0.393,0,0.715-0.09,0.963-0.279c0.244-0.182,0.367-0.424,0.367-0.721c0-0.225-0.064-0.404-0.189-0.533
				c-0.125-0.135-0.32-0.244-0.58-0.301l-1.352-0.318c-0.568-0.133-0.994-0.338-1.273-0.613c-0.277-0.275-0.416-0.621-0.416-1.045
				c0-0.582,0.234-1.055,0.709-1.414c0.477-0.363,1.096-0.541,1.867-0.541c0.711,0,1.279,0.15,1.691,0.447
				c0.412,0.299,0.615,0.709,0.615,1.229c0,0.049,0,0.092,0,0.115c0,0.027-0.004,0.049-0.01,0.07h-1.168v-0.051
				c0-0.303-0.107-0.547-0.326-0.725c-0.217-0.172-0.518-0.264-0.891-0.264c-0.369,0-0.67,0.092-0.91,0.264
				c-0.236,0.178-0.354,0.402-0.354,0.662c0,0.213,0.064,0.373,0.211,0.5c0.145,0.131,0.387,0.238,0.717,0.322l1.447,0.396
				c0.504,0.131,0.873,0.338,1.113,0.619s0.357,0.646,0.357,1.09c0,0.607-0.229,1.084-0.689,1.443
				c-0.457,0.359-1.078,0.541-1.855,0.541c-0.887,0-1.537-0.154-1.951-0.467c-0.416-0.309-0.621-0.791-0.621-1.453V147.438z"/>
		</g>
	</g>
	<g>
		<path fill-rule="evenodd" clip-rule="evenodd" fill="#FFFFFF" d="M147.287,147.502c-0.811,0.51-1.648,0.59-2.473,0.176
			c-0.346-0.176-0.658-0.324-1.051-0.396c-0.832-0.145-1.611-1.053-1.695-1.885c-0.014-0.182,0.084-0.385,0.029-0.547
			c-0.057-0.158-0.26-0.26-0.359-0.416c-0.404-0.643-0.332-1.828,0.277-2.332c0.045-0.031,0.057-0.131,0.049-0.195
			c-0.109-0.76,0.08-1.414,0.67-1.922c0.145-0.117,0.377-0.164,0.473-0.305s0.047-0.367,0.102-0.543
			c0.193-0.586,0.566-1.004,1.182-1.182c0.057-0.018,0.137-0.064,0.156-0.117c0.338-0.953,1.85-1.164,2.568-0.414
			c0.016,0.018,0.031,0.029,0.057,0.049c0.434-0.434,0.957-0.58,1.555-0.465c0.49,0.094,0.861,0.348,1.068,0.812
			c0.023,0.057,0.074,0.111,0.127,0.125c0.865,0.264,1.252,0.881,1.307,1.746c0,0.01,0.004,0.014,0.006,0.021
			c0.92,0.461,1.301,1.205,1.145,2.215c-0.012,0.059,0.014,0.148,0.057,0.182c0.717,0.588,0.699,2.164-0.037,2.688
			c-0.033,0.023-0.064,0.094-0.057,0.137c0.164,0.826-0.248,1.41-0.816,1.918c-0.375,0.33-0.812,0.535-1.338,0.471
			c-0.047-0.002-0.117,0.016-0.148,0.055c-0.293,0.35-0.689,0.48-1.119,0.523C148.4,147.959,147.797,147.902,147.287,147.502z
			 M147.531,144.123c0,0.863,0,1.744,0,2.625c0,0.318,0.107,0.488,0.4,0.59c0.436,0.16,0.879,0.15,1.318,0.049
			c0.094-0.02,0.186-0.08,0.262-0.143c0.406-0.324,0.572-1.125,0.338-1.584c-0.129-0.252-0.447-0.416-0.697-0.355
			c-0.277,0.066-0.455,0.311-0.455,0.627c-0.004,0.064,0,0.123,0,0.195c-0.166,0.037-0.307,0.074-0.451,0.111
			c-0.256-0.637,0.248-1.426,0.92-1.461c0.77-0.041,1.35,0.594,1.289,1.412c-0.016,0.203-0.053,0.406-0.086,0.631
			c0.59-0.002,0.973-0.332,1.287-0.744c0.236-0.307,0.402-0.646,0.266-1.049c-0.137,0-0.26,0.006-0.383,0
			c-1.016-0.023-1.512-0.771-1.127-1.711c0.088-0.207,0.217-0.402,0.344-0.594c0.23-0.35,0.115-0.727-0.279-0.867
			c-0.102-0.035-0.207-0.059-0.314-0.076c-0.289-0.045-0.529,0.076-0.6,0.359c-0.062,0.229-0.084,0.48-0.053,0.715
			c0.1,0.764-0.354,1.344-1.123,1.359C148.109,144.223,147.838,144.158,147.531,144.123z M145.852,146.121c0-0.061,0-0.1,0-0.141
			c0.008-0.367-0.188-0.637-0.492-0.684c-0.299-0.043-0.623,0.174-0.713,0.5c-0.123,0.475-0.047,0.918,0.252,1.307
			c0.092,0.115,0.238,0.229,0.375,0.27c0.459,0.129,0.922,0.127,1.373-0.051c0.258-0.096,0.375-0.283,0.373-0.562
			c-0.012-0.828-0.004-1.654-0.004-2.479c0-0.062-0.008-0.127-0.012-0.197c-0.133,0.037-0.248,0.074-0.367,0.098
			c-1.021,0.219-1.779-0.406-1.576-1.406c0.033-0.162,0.008-0.342-0.021-0.512c-0.043-0.264-0.195-0.455-0.473-0.484
			c-0.314-0.039-0.615,0.035-0.805,0.303c-0.17,0.238-0.068,0.467,0.068,0.699c0.16,0.27,0.314,0.551,0.398,0.85
			c0.17,0.623-0.139,1.141-0.76,1.311c-0.264,0.074-0.547,0.078-0.855,0.113c-0.135,0.451,0.096,0.824,0.387,1.154
			c0.307,0.35,0.66,0.629,1.178,0.604c-0.033-0.238-0.072-0.451-0.086-0.668c-0.039-0.693,0.354-1.217,1.01-1.346
			c0.393-0.078,0.732,0.031,0.984,0.344c0.26,0.318,0.338,0.684,0.236,1.102C146.156,146.201,146.006,146.16,145.852,146.121z
			 M142.787,142.311c-0.666,0.316-0.834,0.609-0.777,1.336c0.053,0.625,0.424,0.93,1.041,0.855c0.564-0.068,0.814-0.453,0.609-0.98
			c-0.086-0.213-0.23-0.41-0.357-0.607c-0.293-0.451-0.248-0.918,0.152-1.279c0.34-0.312,0.748-0.404,1.199-0.336
			c0.064,0.014,0.145,0.025,0.203-0.002c0.279-0.137,0.545-0.297,0.83-0.428c0.5-0.23,0.678-0.713,0.373-1.168
			c-0.113-0.17-0.322-0.307-0.521-0.381c-0.438-0.164-0.85-0.326-0.951-0.861c-0.467,0.15-0.771,0.428-0.836,0.893
			c-0.072,0.5,0.184,0.834,0.627,1.061c-0.066,0.154-0.129,0.303-0.219,0.516c-0.295-0.24-0.557-0.457-0.836-0.686
			C142.623,140.436,142.389,141.254,142.787,142.311z M149.969,138.484c-0.205,0.494-0.307,0.592-0.836,0.783
			c-0.088,0.031-0.176,0.064-0.26,0.1c-0.307,0.117-0.459,0.355-0.514,0.666c-0.07,0.393,0.145,0.691,0.576,0.865
			c0.236,0.096,0.457,0.229,0.688,0.336c0.084,0.037,0.184,0.078,0.266,0.064c0.453-0.066,0.857,0.025,1.205,0.332
			c0.377,0.332,0.445,0.816,0.178,1.24c-0.084,0.135-0.205,0.252-0.262,0.395c-0.086,0.207-0.172,0.43-0.178,0.654
			c-0.006,0.293,0.217,0.492,0.529,0.559c0.475,0.1,0.838-0.016,1.018-0.318c0.404-0.689,0.158-1.482-0.562-1.818
			c-0.018-0.008-0.031-0.023-0.031-0.023c0.059-0.264,0.137-0.506,0.17-0.758c0.072-0.572-0.184-1.082-0.604-1.279
			c-0.123-0.057-0.199-0.059-0.285,0.068c-0.17,0.248-0.41,0.41-0.707,0.521c-0.064-0.164-0.129-0.311-0.188-0.451
			c0.504-0.301,0.703-0.668,0.625-1.107C150.719,138.898,150.385,138.561,149.969,138.484z M149.273,141.586
			c-0.146-0.061-0.277-0.115-0.406-0.174c-0.17-0.076-0.35-0.141-0.5-0.242c-0.416-0.289-0.596-0.699-0.52-1.195
			c0.082-0.51,0.316-0.904,0.854-1.053c0.125-0.033,0.25-0.074,0.365-0.133c0.488-0.234,0.543-0.764,0.1-1.082
			c-0.389-0.281-0.812-0.301-1.24-0.094c-0.26,0.129-0.395,0.352-0.395,0.646c0,1.592-0.006,3.186,0.004,4.779
			c0.002,0.537,0.068,0.596,0.617,0.625c0.041,0.002,0.084,0.002,0.129,0.002c0.557-0.004,0.771-0.27,0.697-0.822
			C148.912,142.4,148.932,141.969,149.273,141.586z M145.262,141.586c0.277,0.279,0.35,0.588,0.332,0.922
			c-0.004,0.141-0.01,0.285-0.029,0.428c-0.059,0.428,0.135,0.695,0.559,0.715c0.246,0.012,0.498-0.049,0.744-0.084
			c0.119-0.016,0.152-0.094,0.152-0.217c-0.004-1.699,0-3.398-0.012-5.096c0-0.17-0.086-0.363-0.193-0.484
			c-0.371-0.422-1.234-0.367-1.582,0.076c-0.25,0.322-0.18,0.711,0.184,0.908c0.162,0.09,0.342,0.143,0.52,0.199
			c0.312,0.107,0.523,0.316,0.65,0.615c0.322,0.773,0.014,1.502-0.771,1.801C145.645,141.436,145.469,141.504,145.262,141.586z"/>
		<path fill-rule="evenodd" clip-rule="evenodd" fill="#FFFFFF" d="M155.234,142.504c0,4.461-3.613,8.076-8.078,8.076
			c-4.463,0-8.08-3.615-8.08-8.076c0-4.465,3.617-8.082,8.08-8.082C151.621,134.422,155.234,138.039,155.234,142.504z
			 M157.031,142.504c0-5.457-4.42-9.875-9.875-9.875c-5.453,0-9.875,4.418-9.875,9.875c0,4.096,2.492,7.607,6.043,9.102
			c0.006,0.004,0.963,1.117,1.002,1.92s0,1.072,0,1.072h5.588c0,0-0.184-0.979,0.27-1.916c0.219-0.447,0.416-0.773,0.57-0.99
			C154.428,150.252,157.031,146.686,157.031,142.504z"/>
		<path fill-rule="evenodd" clip-rule="evenodd" fill="#FFFFFF" d="M147.232,157.447c0.721,0,1.451-0.064,2.158,0.029
			c0.332,0.043,0.848,0.363,0.879,0.609c0.039,0.307-0.309,0.686-0.537,0.998c-0.195,0.268-0.479,0.469-0.689,0.727
			c-0.85,1.047-2.277,1.26-3.35,0.443c-0.559-0.428-1.094-0.9-1.566-1.42c-0.168-0.184-0.246-0.639-0.135-0.842
			c0.141-0.25,0.512-0.49,0.801-0.514c0.809-0.068,1.625-0.025,2.439-0.025C147.232,157.451,147.232,157.449,147.232,157.447z"/>
		<path fill-rule="evenodd" clip-rule="evenodd" fill="#FFFFFF" d="M147.1,156.729c-0.719,0-1.436,0.01-2.154-0.002
			c-0.549-0.012-1.023-0.189-1.037-0.828c-0.012-0.652,0.445-0.818,1.012-0.816c1.498,0.004,2.998,0.006,4.496,0
			c0.551-0.002,1.014,0.242,0.908,0.785c-0.066,0.332-0.543,0.764-0.891,0.82C148.676,156.812,147.881,156.727,147.1,156.729z"/>
		<path fill-rule="evenodd" clip-rule="evenodd" fill="#FFFFFF" d="M136.459,138.098c-0.766-0.443-1.385-0.803-2.152-1.248
			c0.404-0.701,0.773-1.344,1.225-2.131c0.756,0.453,1.434,0.857,2.15,1.289C137.266,136.721,136.902,137.342,136.459,138.098z"/>
		<path fill-rule="evenodd" clip-rule="evenodd" fill="#FFFFFF" d="M156.74,135.984c0.785-0.447,1.412-0.807,2.162-1.234
			c0.418,0.688,0.809,1.332,1.268,2.088c-0.721,0.428-1.375,0.814-2.135,1.266C157.613,137.414,157.217,136.766,156.74,135.984z"/>
		<path fill-rule="evenodd" clip-rule="evenodd" fill="#FFFFFF" d="M139.051,131.213c0.754-0.443,1.369-0.805,2.104-1.238
			c0.436,0.73,0.82,1.373,1.277,2.141c-0.723,0.434-1.365,0.818-2.113,1.268C139.893,132.654,139.51,132,139.051,131.213z"/>
		<path fill-rule="evenodd" clip-rule="evenodd" fill="#FFFFFF" d="M155.412,131.195c-0.467,0.793-0.838,1.422-1.266,2.148
			c-0.719-0.412-1.375-0.785-2.111-1.207c0.422-0.738,0.781-1.367,1.225-2.143C153.973,130.393,154.627,130.758,155.412,131.195z"/>
		<path fill-rule="evenodd" clip-rule="evenodd" fill="#FFFFFF" d="M133.152,141.812c0.752,0,1.467,0,2.273,0
			c0,0.721,0,1.426,0,2.213c-0.752,0-1.465,0-2.273,0C133.152,143.285,133.152,142.582,133.152,141.812z"/>
		<path fill-rule="evenodd" clip-rule="evenodd" fill="#FFFFFF" d="M146.16,128.752c0.783,0,1.463,0,2.23,0c0,0.777,0,1.49,0,2.316
			c-0.703,0-1.414,0-2.23,0C146.16,130.361,146.16,129.611,146.16,128.752z"/>
		<path fill-rule="evenodd" clip-rule="evenodd" fill="#FFFFFF" d="M159.062,143.992c0-0.717,0-1.389,0-2.154
			c0.752,0,1.502,0,2.332,0c0,0.701,0,1.371,0,2.154C160.643,143.992,159.895,143.992,159.062,143.992z"/>
		<path fill-rule="evenodd" clip-rule="evenodd" fill="#FFFFFF" d="M135.52,151.096c-0.432-0.762-0.789-1.387-1.219-2.146
			c0.713-0.412,1.373-0.791,2.172-1.25c0.354,0.762,0.67,1.441,1.031,2.227C136.863,150.301,136.279,150.646,135.52,151.096z"/>
		<path fill-rule="evenodd" clip-rule="evenodd" fill="#FFFFFF" d="M158.943,151.068c-0.686-0.387-1.268-0.717-1.969-1.111
			c0.314-0.752,0.602-1.438,0.959-2.287c0.793,0.461,1.473,0.855,2.219,1.289C159.723,149.707,159.348,150.361,158.943,151.068z"/>
	</g>
	<g>
		<g>
			<path fill="#FFFFFF" d="M163.369,96.697c0,1.002,0,2.002,0,3.002c-0.066,0.404-0.133,0.809-0.193,1.213
				c-1.111,7.203-6.838,11.672-12.232,12.875c-0.736,0.162-1.49,0.27-2.236,0.404c-0.914,0-1.832,0-2.75,0
				c-0.279-0.051-0.562-0.109-0.846-0.148c-6.436-0.906-11.83-5.836-13.318-12.188c-0.168-0.742-0.275-1.494-0.41-2.242
				c0-0.939,0-1.887,0-2.83c0.025-0.059,0.062-0.121,0.072-0.186c0.508-4.682,2.717-8.414,6.396-11.281
				c3.512-2.732,7.555-3.52,11.891-2.951c6.453,0.84,11.781,5.729,13.211,12.066C163.119,95.182,163.227,95.941,163.369,96.697z
				 M147.393,111.232c6.045,0.094,13.111-4.787,13.082-12.91c-0.027-7.381-5.729-13.137-12.99-13.232
				c-7.969-0.098-13.258,6.898-13.213,13.068C134.33,105.305,140.23,111.232,147.393,111.232z"/>
			<path fill-rule="evenodd" clip-rule="evenodd" fill="#FFFFFF" d="M145.268,99.645c0.674,0.344,1.311,0.668,1.984,1.004
				c-0.715,1.289-1.752,2.086-3.15,2.42c-2.156,0.5-4.396-0.438-5.293-2.264c-0.666-1.346-0.701-2.781-0.354-4.219
				c0.301-1.227,1.021-2.143,2.1-2.773c1.771-1.041,5.297-0.9,6.656,1.742c-0.705,0.363-1.406,0.732-2.014,1.047
				c-0.436-0.375-0.773-0.779-1.197-1.018c-0.936-0.508-2.102-0.09-2.512,0.887c-0.463,1.088-0.459,2.211-0.033,3.32
				c0.297,0.754,0.871,1.174,1.68,1.223c0.85,0.047,1.516-0.275,1.951-1.025C145.135,99.895,145.186,99.799,145.268,99.645z"/>
			<path fill-rule="evenodd" clip-rule="evenodd" fill="#FFFFFF" d="M156.43,95.555c-0.697,0.367-1.381,0.73-2.092,1.107
				c-0.113-0.17-0.213-0.33-0.328-0.48c-0.443-0.59-1.037-0.859-1.77-0.785c-0.77,0.074-1.338,0.463-1.602,1.205
				c-0.352,1.014-0.369,2.037-0.014,3.057c0.283,0.809,0.846,1.297,1.717,1.355c0.879,0.055,1.562-0.293,1.996-1.084
				c0.041-0.072,0.082-0.145,0.127-0.211c0.004-0.016,0.02-0.02,0.062-0.053c0.635,0.314,1.285,0.637,1.971,0.98
				c-0.729,1.275-1.752,2.125-3.156,2.408c-1.842,0.354-3.518,0.02-4.793-1.482c-0.85-1.012-1.053-2.236-1.043-3.51
				c0.02-1.074,0.242-2.104,0.893-2.982c1.059-1.436,2.527-1.965,4.258-1.85c1.514,0.105,2.76,0.68,3.602,1.996
				C156.316,95.322,156.363,95.416,156.43,95.555z"/>
		</g>
	</g>
	<g>
		<g>
			<path fill="#FFFFFF" d="M64.85,94.477c-0.018,0.803-0.324,1.441-0.922,1.91c-0.602,0.471-1.404,0.715-2.422,0.715
				c-1.23,0-2.18-0.408-2.834-1.209c-0.648-0.803-0.975-1.955-0.975-3.479c0-1.516,0.342-2.688,1.027-3.52
				c0.68-0.828,1.65-1.242,2.902-1.242c0.979,0,1.756,0.225,2.314,0.676c0.574,0.451,0.863,1.07,0.887,1.861h-1.301
				c-0.037-0.465-0.24-0.842-0.611-1.133c-0.373-0.291-0.844-0.438-1.41-0.438c-0.781,0-1.398,0.326-1.838,0.99
				c-0.443,0.658-0.66,1.582-0.66,2.768c0,1.176,0.215,2.072,0.654,2.705c0.432,0.639,1.049,0.957,1.844,0.957
				c0.578,0,1.049-0.137,1.391-0.414c0.354-0.275,0.553-0.658,0.598-1.148H64.85z"/>
			<path fill="#FFFFFF" d="M66.365,96.938v-5.373c0-0.211-0.002-0.387-0.008-0.539c-0.008-0.154-0.016-0.314-0.027-0.465h1.176
				l0.029,1.227c0.115-0.408,0.32-0.713,0.619-0.916c0.301-0.209,0.693-0.311,1.168-0.311c0.092,0,0.174,0.002,0.254,0.01
				c0.084,0.008,0.156,0.02,0.23,0.037v1.096c-0.127-0.031-0.242-0.041-0.352-0.055c-0.111-0.014-0.203-0.021-0.283-0.021
				c-0.527,0-0.932,0.148-1.219,0.451c-0.275,0.291-0.418,0.721-0.418,1.279v3.58H66.365z"/>
			<path fill="#FFFFFF" d="M76.332,94.895c0,0.654-0.24,1.195-0.703,1.6c-0.473,0.4-1.1,0.607-1.865,0.607
				c-0.996,0-1.748-0.281-2.26-0.824c-0.514-0.551-0.771-1.344-0.771-2.404c0-1.117,0.256-1.979,0.762-2.572
				c0.508-0.594,1.23-0.893,2.178-0.893c0.857,0,1.541,0.244,2.037,0.74c0.5,0.494,0.746,1.166,0.746,2.021
				c0,0.207-0.002,0.357-0.008,0.471c0,0.104-0.008,0.211-0.018,0.303h-4.525v0.119v0.26c0,0.605,0.156,1.068,0.471,1.398
				c0.309,0.328,0.748,0.492,1.312,0.492c0.467,0,0.836-0.119,1.111-0.359c0.277-0.232,0.42-0.557,0.426-0.959H76.332z
				 M71.969,93.119h3.289v-0.143c0-0.535-0.15-0.955-0.438-1.287c-0.297-0.322-0.668-0.482-1.133-0.482
				c-0.51,0-0.92,0.176-1.242,0.531C72.125,92.086,71.969,92.545,71.969,93.119z"/>
			<path fill="#FFFFFF" d="M82.982,96.938h-1.061c-0.035-0.131-0.082-0.451-0.117-0.965v-0.039c-0.16,0.379-0.42,0.66-0.771,0.861
				c-0.348,0.205-0.771,0.307-1.277,0.307c-0.646,0-1.164-0.18-1.551-0.527c-0.393-0.361-0.586-0.828-0.586-1.402
				c0-0.674,0.271-1.211,0.809-1.605c0.535-0.391,1.271-0.59,2.203-0.59h1.107v-0.777c0-0.342-0.104-0.605-0.316-0.777
				c-0.217-0.176-0.527-0.264-0.943-0.264c-0.389,0-0.701,0.098-0.93,0.291c-0.23,0.199-0.352,0.465-0.363,0.795h-1.135v-0.092
				c0-0.57,0.203-0.994,0.609-1.295c0.404-0.301,0.984-0.449,1.742-0.449c0.877,0,1.518,0.154,1.92,0.463
				c0.4,0.314,0.6,0.818,0.6,1.521v3.939c0,0.055,0.006,0.135,0.012,0.242C82.943,96.686,82.959,96.807,82.982,96.938z
				 M81.738,93.773h-0.982c-0.615,0-1.084,0.111-1.424,0.344c-0.332,0.219-0.5,0.533-0.5,0.941c0,0.312,0.119,0.568,0.34,0.771
				c0.227,0.205,0.518,0.309,0.861,0.309c0.553,0,0.971-0.152,1.27-0.443c0.289-0.293,0.436-0.723,0.436-1.289V93.773z"/>
			<path fill="#FFFFFF" d="M83.971,90.561h1.084v-1.305l1.166-0.398v1.703h1.42v0.838h-1.42v3.92c0,0.33,0.053,0.545,0.16,0.648
				c0.113,0.107,0.33,0.16,0.652,0.16c0.082,0,0.172-0.004,0.268-0.021c0.092-0.012,0.199-0.037,0.318-0.066v0.887
				c-0.193,0.053-0.365,0.088-0.518,0.119c-0.154,0.021-0.287,0.037-0.408,0.037c-0.6,0-1.023-0.104-1.273-0.309
				c-0.244-0.205-0.365-0.553-0.365-1.047v-4.328h-1.084V90.561z"/>
			<path fill="#FFFFFF" d="M90.148,89.084h-1.381v-1.291h1.381V89.084z M88.875,96.938v-6.377h1.18v6.377H88.875z"/>
			<path fill="#FFFFFF" d="M93.857,96.938l-2.604-6.377h1.186l2.041,5.057l2.059-5.057h1.166l-2.693,6.377H93.857z"/>
			<path fill="#FFFFFF" d="M104.182,94.895c-0.006,0.654-0.246,1.195-0.713,1.6c-0.467,0.4-1.09,0.607-1.865,0.607
				c-0.99,0-1.742-0.281-2.258-0.824c-0.512-0.551-0.766-1.344-0.766-2.404c0-1.117,0.252-1.979,0.754-2.572
				c0.512-0.594,1.238-0.893,2.18-0.893c0.865,0,1.545,0.244,2.039,0.74c0.498,0.494,0.744,1.166,0.744,2.021
				c0,0.207,0,0.357-0.006,0.471c-0.004,0.104-0.01,0.211-0.018,0.303h-4.525v0.119v0.26c0,0.605,0.156,1.068,0.469,1.398
				c0.309,0.328,0.746,0.492,1.316,0.492c0.465,0,0.834-0.119,1.109-0.359c0.279-0.232,0.418-0.557,0.428-0.959H104.182z
				 M99.812,93.119h3.289v-0.143c0-0.535-0.145-0.955-0.434-1.287c-0.293-0.322-0.676-0.482-1.135-0.482
				c-0.508,0-0.924,0.176-1.24,0.531C99.975,92.086,99.812,92.545,99.812,93.119z"/>
			<path fill="#FFFFFF" d="M58.531,106.105c-0.021,0.805-0.33,1.443-0.928,1.912c-0.594,0.477-1.402,0.711-2.422,0.711
				c-1.236,0-2.18-0.398-2.83-1.203c-0.65-0.793-0.979-1.961-0.979-3.475c0-1.516,0.346-2.688,1.027-3.523
				c0.686-0.828,1.648-1.242,2.902-1.242c0.98,0,1.762,0.221,2.322,0.676c0.561,0.447,0.855,1.064,0.879,1.867h-1.293
				c-0.047-0.469-0.252-0.852-0.621-1.139c-0.367-0.291-0.84-0.436-1.408-0.436c-0.781,0-1.395,0.33-1.838,0.988
				c-0.438,0.656-0.66,1.59-0.66,2.77c0,1.168,0.215,2.066,0.652,2.707c0.436,0.633,1.047,0.951,1.846,0.951
				c0.58,0,1.047-0.133,1.396-0.414c0.35-0.273,0.551-0.658,0.594-1.15H58.531z"/>
			<path fill="#FFFFFF" d="M59.73,105.508c0-1.066,0.289-1.912,0.855-2.533c0.566-0.613,1.348-0.926,2.324-0.926
				c0.996,0,1.76,0.291,2.314,0.869c0.549,0.574,0.826,1.383,0.826,2.416c0,1.068-0.287,1.902-0.855,2.498
				c-0.57,0.594-1.363,0.896-2.396,0.896c-0.947,0-1.697-0.287-2.24-0.869C60.008,107.291,59.73,106.504,59.73,105.508z
				 M62.91,102.895c-0.602,0-1.082,0.23-1.438,0.686c-0.357,0.455-0.529,1.078-0.529,1.863c0,0.76,0.17,1.35,0.508,1.77
				c0.338,0.414,0.818,0.619,1.432,0.619c0.621,0,1.104-0.217,1.447-0.662c0.355-0.438,0.527-1.047,0.527-1.822
				c0-0.779-0.164-1.379-0.51-1.811C64.016,103.109,63.527,102.895,62.91,102.895z"/>
			<path fill="#FFFFFF" d="M68.934,108.574h-1.176v-5.061c0-0.113-0.01-0.289-0.012-0.529c-0.012-0.238-0.021-0.498-0.047-0.791
				h1.197l0.037,1.084c0.166-0.355,0.422-0.637,0.768-0.844c0.35-0.205,0.742-0.316,1.17-0.316c0.432,0,0.814,0.094,1.164,0.273
				c0.342,0.184,0.652,0.467,0.926,0.848c0.334-0.4,0.658-0.689,0.992-0.855c0.328-0.176,0.715-0.266,1.146-0.266
				c0.449,0,0.855,0.098,1.229,0.281c0.363,0.189,0.625,0.434,0.787,0.746c0.072,0.143,0.127,0.334,0.162,0.562
				c0.025,0.223,0.041,0.545,0.041,0.963v3.904h-1.137v-4.068c0-0.494-0.115-0.869-0.354-1.113c-0.23-0.248-0.578-0.375-1.047-0.375
				c-0.48,0-0.863,0.148-1.17,0.449c-0.305,0.297-0.457,0.68-0.457,1.154v3.953h-1.191v-3.854c0-0.588-0.113-1.02-0.346-1.295
				c-0.227-0.281-0.574-0.42-1.057-0.42c-0.51,0-0.908,0.15-1.193,0.447c-0.287,0.303-0.434,0.723-0.434,1.268V108.574z"/>
			<path fill="#FFFFFF" d="M80.525,108.574H79.34v-5.061c0-0.113,0-0.289-0.008-0.529c-0.012-0.238-0.021-0.498-0.039-0.791h1.195
				l0.037,1.084c0.164-0.355,0.426-0.637,0.768-0.844c0.352-0.205,0.734-0.316,1.164-0.316c0.432,0,0.82,0.094,1.164,0.273
				c0.35,0.184,0.66,0.467,0.934,0.848c0.33-0.4,0.656-0.689,0.99-0.855c0.328-0.176,0.709-0.266,1.148-0.266
				c0.445,0,0.852,0.098,1.217,0.281c0.373,0.189,0.635,0.434,0.795,0.746c0.078,0.143,0.127,0.334,0.16,0.562
				c0.031,0.223,0.045,0.545,0.045,0.963v3.904h-1.137v-4.068c0-0.494-0.123-0.869-0.354-1.113
				c-0.236-0.248-0.584-0.375-1.051-0.375c-0.477,0-0.865,0.148-1.172,0.449c-0.303,0.297-0.455,0.68-0.455,1.154v3.953h-1.193
				v-3.854c0-0.588-0.109-1.02-0.338-1.295c-0.229-0.281-0.584-0.42-1.061-0.42c-0.506,0-0.91,0.15-1.195,0.447
				c-0.287,0.303-0.43,0.723-0.43,1.268V108.574z"/>
			<path fill="#FFFFFF" d="M90.559,105.508c0-1.066,0.291-1.912,0.852-2.533c0.582-0.613,1.348-0.926,2.33-0.926
				c0.992,0,1.764,0.291,2.318,0.869c0.545,0.574,0.82,1.383,0.82,2.416c0,1.068-0.285,1.902-0.855,2.498
				c-0.566,0.594-1.367,0.896-2.395,0.896c-0.943,0-1.693-0.287-2.244-0.869C90.834,107.291,90.559,106.504,90.559,105.508z
				 M93.74,102.895c-0.607,0-1.082,0.23-1.436,0.686c-0.348,0.455-0.531,1.078-0.531,1.863c0,0.76,0.17,1.35,0.504,1.77
				c0.346,0.414,0.818,0.619,1.439,0.619c0.613,0,1.096-0.217,1.445-0.662c0.354-0.438,0.529-1.047,0.529-1.822
				c0-0.779-0.17-1.379-0.512-1.811C94.84,103.109,94.361,102.895,93.74,102.895z"/>
			<path fill="#FFFFFF" d="M99.766,103.238c0.143-0.344,0.393-0.615,0.752-0.818c0.355-0.201,0.77-0.303,1.242-0.303
				c0.426,0,0.805,0.076,1.16,0.232c0.348,0.154,0.619,0.361,0.816,0.631c0.121,0.154,0.193,0.33,0.24,0.541
				c0.053,0.213,0.074,0.572,0.074,1.088v3.965h-1.172v-4.027c0-0.541-0.119-0.938-0.344-1.186c-0.23-0.252-0.592-0.381-1.078-0.381
				c-0.494,0-0.898,0.139-1.223,0.406c-0.314,0.262-0.469,0.615-0.469,1.039v4.148H98.58v-5.068c0-0.234,0-0.467-0.008-0.684
				c-0.012-0.217-0.021-0.424-0.033-0.629h1.189L99.766,103.238z"/>
			<path fill="#FFFFFF" d="M105.543,106.658h1.18v0.023c0,0.344,0.123,0.625,0.375,0.836c0.244,0.211,0.564,0.314,0.979,0.314
				c0.398,0,0.717-0.094,0.967-0.275c0.246-0.186,0.367-0.428,0.367-0.729c0-0.219-0.064-0.395-0.186-0.535
				c-0.125-0.137-0.318-0.234-0.582-0.307l-1.354-0.309c-0.57-0.137-0.994-0.344-1.271-0.617c-0.287-0.277-0.42-0.631-0.42-1.049
				c0-0.582,0.234-1.053,0.705-1.412c0.473-0.363,1.104-0.551,1.869-0.551c0.723,0,1.281,0.156,1.695,0.455
				c0.414,0.295,0.623,0.705,0.623,1.23c0,0.049,0,0.084-0.006,0.115c0,0.021,0,0.049-0.008,0.072h-1.168v-0.053
				c0-0.309-0.113-0.547-0.33-0.725c-0.219-0.182-0.51-0.266-0.891-0.266c-0.367,0-0.672,0.084-0.908,0.266
				c-0.242,0.178-0.359,0.4-0.359,0.662c0,0.211,0.07,0.373,0.211,0.496c0.148,0.127,0.393,0.242,0.727,0.328l1.449,0.404
				c0.502,0.129,0.871,0.33,1.107,0.613c0.242,0.285,0.363,0.645,0.363,1.088c0,0.609-0.23,1.092-0.689,1.449
				c-0.459,0.361-1.08,0.543-1.865,0.543c-0.885,0-1.541-0.154-1.953-0.465c-0.416-0.314-0.627-0.797-0.627-1.459V106.658z"/>
		</g>
	</g>
</g>
</svg>
