<?xml version="1.0" encoding="utf-8"?>
<!-- Generator: Adobe Illustrator 16.0.0, SVG Export Plug-In . SVG Version: 6.00 Build 0)  -->
<!DOCTYPE svg PUBLIC "-//W3C//DTD SVG 1.1//EN" "http://www.w3.org/Graphics/SVG/1.1/DTD/svg11.dtd">
<svg version="1.1" id="Capa_1" xmlns="http://www.w3.org/2000/svg" xmlns:xlink="http://www.w3.org/1999/xlink" x="0px" y="0px"
	 width="31.039px" height="31.049px" viewBox="0 0 31.039 31.049" enable-background="new 0 0 31.039 31.049" xml:space="preserve">
<g>
	<path fill="#FFFFFF" d="M27.449,5.59C24.6,2.179,20.309,0,15.52,0C6.949,0,0,6.948,0,15.519c0,4.04,1.549,7.71,4.08,10.47
		c2.84,3.102,6.898,5.061,11.439,5.061c8.57,0,15.52-6.95,15.52-15.53C31.039,11.749,29.689,8.289,27.449,5.59z M25.52,20.93
		l-4.6,4.589l-5.4-5.4l-5.4,5.4l-4.6-4.589l5.4-5.411l-5.4-5.4l4.6-4.6l5.4,5.401l5.4-5.401l4.6,4.6l-5.4,5.4L25.52,20.93z"/>
</g>
</svg>
