<?xml version="1.0" encoding="utf-8"?>
<!-- Generator: Adobe Illustrator 16.0.0, SVG Export Plug-In . SVG Version: 6.00 Build 0)  -->
<!DOCTYPE svg PUBLIC "-//W3C//DTD SVG 1.1//EN" "http://www.w3.org/Graphics/SVG/1.1/DTD/svg11.dtd">
<svg version="1.1" id="Capa_1" xmlns="http://www.w3.org/2000/svg" xmlns:xlink="http://www.w3.org/1999/xlink" x="0px" y="0px"
	 width="210.378px" height="48.91px" viewBox="0 0 210.378 48.91" enable-background="new 0 0 210.378 48.91" xml:space="preserve">
<polygon fill="#F2961C" points="0,0 14.143,48.91 199.044,38.878 210.378,0 "/>
<g>
	<g>
		<path fill="#331842" d="M57.683,12.889v2.251h-2.87v-2.188c0-0.915-0.132-1.549-0.396-1.899c-0.264-0.352-0.731-0.527-1.403-0.527
			c-0.614,0-1.042,0.199-1.285,0.599s-0.364,1.237-0.364,2.515v14.578c0,1.309,0.128,2.16,0.385,2.554
			c0.257,0.395,0.728,0.592,1.414,0.592c0.585,0,1.007-0.187,1.264-0.56c0.257-0.372,0.386-1.006,0.386-1.899v-2.539h2.87v2.618
			c0,1.607-0.336,2.696-1.007,3.266s-1.871,0.854-3.598,0.854c-1.7,0-2.885-0.367-3.556-1.102c-0.671-0.735-1.007-2.103-1.007-4.104
			V13.958c0-1.99,0.335-3.348,1.007-4.071c0.671-0.724,1.856-1.086,3.556-1.086c1.742,0,2.945,0.282,3.609,0.847
			S57.683,11.292,57.683,12.889z"/>
		<path fill="#331842" d="M71.048,13.958v13.939c0,2.022-0.364,3.396-1.092,4.119c-0.729,0.724-2.028,1.086-3.898,1.086
			c-1.842,0-3.127-0.367-3.855-1.102c-0.729-0.735-1.092-2.103-1.092-4.104V13.958c0-1.979,0.367-3.334,1.103-4.063
			c0.735-0.729,2.031-1.094,3.888-1.094c1.856,0,3.145,0.362,3.866,1.086C70.688,10.61,71.048,11.968,71.048,13.958z M68.199,13.639
			c0-1.191-0.157-2.009-0.471-2.45c-0.314-0.442-0.872-0.663-1.671-0.663c-0.786,0-1.332,0.216-1.639,0.646
			c-0.307,0.432-0.46,1.254-0.46,2.467v14.578c0,1.224,0.157,2.049,0.471,2.475c0.314,0.426,0.871,0.639,1.671,0.639
			c0.785,0,1.331-0.213,1.638-0.639s0.46-1.251,0.46-2.475V13.639z"/>
		<path fill="#331842" d="M75.846,9.152h3.727l4.519,22.146h0.043L83.729,9.152h2.463v23.551h-3.77L77.945,10.86h-0.086
			l0.386,21.843h-2.399V9.152z"/>
		<path fill="#331842" d="M88.998,9.152h9.274v1.868h-3.256v21.683h-2.763V11.021h-3.255V9.152z"/>
		<path fill="#331842" d="M101.121,9.152h2.892v23.551h-2.892V9.152z"/>
		<path fill="#331842" d="M108.832,9.152h3.727l4.52,22.146h0.043l-0.407-22.146h2.463v23.551h-3.77l-4.477-21.843h-0.086
			l0.386,21.843h-2.399V9.152z"/>
		<path fill="#331842" d="M123.932,9.152h2.849v19.064c0,1.224,0.157,2.049,0.471,2.475s0.871,0.639,1.671,0.639
			c0.785,0,1.331-0.213,1.639-0.639c0.307-0.426,0.46-1.251,0.46-2.475V9.152h2.849v18.745c0,2.022-0.364,3.396-1.092,4.119
			c-0.729,0.724-2.028,1.086-3.898,1.086c-1.842,0-3.127-0.367-3.855-1.102c-0.728-0.735-1.092-2.103-1.092-4.104V9.152z"/>
		<path fill="#331842" d="M141.346,9.152h3.984l4.562,23.551h-2.934l-1.093-6.546h-5.184l-1.178,6.546h-2.87L141.346,9.152z
			 M143.231,10.893l-2.292,13.54h4.562l-2.142-13.54H143.231z"/>
		<path fill="#331842" d="M152.784,9.152h4.155c2.142,0,3.591,0.224,4.348,0.671c0.757,0.446,1.135,1.25,1.135,2.41v5.333
			c0,0.979-0.25,1.672-0.75,2.076c-0.5,0.404-1.385,0.649-2.656,0.734c1.356,0.063,2.299,0.298,2.828,0.702
			c0.528,0.405,0.792,1.107,0.792,2.107v9.517h-2.892v-8.798c0-1.106-0.211-1.825-0.632-2.155c-0.421-0.33-1.289-0.495-2.603-0.495
			h-1.007v11.448h-2.72V9.152z M155.504,10.893v8.606h0.964c1.242,0,2.07-0.162,2.485-0.487c0.414-0.324,0.621-1.046,0.621-2.163
			v-3.273c0-1.128-0.208-1.857-0.621-2.188c-0.415-0.33-1.243-0.495-2.485-0.495H155.504z"/>
	</g>
</g>
</svg>
