<?xml version="1.0" encoding="utf-8"?>
<!-- Generator: Adobe Illustrator 16.0.0, SVG Export Plug-In . SVG Version: 6.00 Build 0)  -->
<!DOCTYPE svg PUBLIC "-//W3C//DTD SVG 1.1//EN" "http://www.w3.org/Graphics/SVG/1.1/DTD/svg11.dtd">
<svg version="1.1" id="Capa_1" xmlns="http://www.w3.org/2000/svg" xmlns:xlink="http://www.w3.org/1999/xlink" x="0px" y="0px"
	 width="206.119px" height="48.68px" viewBox="0 0 206.119 48.68" enable-background="new 0 0 206.119 48.68" xml:space="preserve">
<g>
	<polygon fill="#F2961C" points="206.119,48.68 65.34,48.68 38.92,3.891 192.27,0 193.631,4.77 	"/>
	<polygon fill="#2C5A67" points="65.34,48.68 8.561,48.68 0,4.77 38.92,3.891 	"/>
	<g>
		<path fill="#FFFFFF" d="M91.639,22.123v7.336c0,3.09-0.466,5.213-1.397,6.372c-0.933,1.159-2.588,1.737-4.967,1.737
			c-2.389,0-4.047-0.574-4.974-1.722c-0.927-1.148-1.39-3.277-1.39-6.388v-7.336c0-3.08,0.463-5.193,1.39-6.342
			c0.927-1.147,2.585-1.722,4.974-1.722c2.39,0,4.047,0.574,4.974,1.722C91.175,16.93,91.639,19.043,91.639,22.123z M86.958,21.088
			c0-1.473-0.121-2.428-0.362-2.865c-0.242-0.438-0.683-0.656-1.321-0.656c-0.628,0-1.065,0.227-1.312,0.68s-0.371,1.4-0.371,2.842
			v9.422c0,1.463,0.121,2.412,0.363,2.85s0.682,0.656,1.32,0.656c0.628,0,1.066-0.224,1.313-0.672
			c0.247-0.447,0.37-1.393,0.37-2.834V21.088z"/>
		<path fill="#FFFFFF" d="M105.433,25.412v7.631c0,1.535-0.273,2.672-0.818,3.414c-0.546,0.741-1.381,1.111-2.503,1.111
			c-0.659,0-1.243-0.18-1.753-0.54s-0.971-0.922-1.383-1.684v7.847h-4.464V21.304h4.341l0.123,1.839
			c0.412-0.763,0.873-1.324,1.383-1.685s1.094-0.54,1.753-0.54c1.122,0,1.957,0.367,2.503,1.104
			C105.159,22.758,105.433,23.889,105.433,25.412z M100.938,26.076c0-0.73-0.072-1.235-0.216-1.514
			c-0.145-0.277-0.392-0.416-0.741-0.416c-0.361,0-0.618,0.146-0.772,0.439c-0.155,0.293-0.232,0.791-0.232,1.49v6.334
			c0,0.689,0.075,1.184,0.225,1.482c0.148,0.299,0.398,0.447,0.749,0.447c0.36,0,0.615-0.133,0.765-0.4s0.224-0.777,0.224-1.529
			V26.076z"/>
		<path fill="#FFFFFF" d="M119.087,25.891v0.695h-4.341v-0.957c0-0.711-0.095-1.221-0.285-1.529
			c-0.191-0.309-0.508-0.463-0.95-0.463c-0.412,0-0.703,0.162-0.873,0.486s-0.255,0.903-0.255,1.737v6.766
			c0,0.854,0.082,1.437,0.247,1.745s0.448,0.464,0.85,0.464c0.422,0,0.719-0.159,0.889-0.479c0.17-0.318,0.255-0.896,0.255-1.729
			v-1.267h4.464v1.236c0,1.75-0.431,3.017-1.29,3.799c-0.86,0.783-2.253,1.174-4.178,1.174c-2.153,0-3.641-0.504-4.465-1.514
			c-0.823-1.009-1.235-2.878-1.235-5.606v-2.409c0-2.729,0.412-4.599,1.235-5.607c0.824-1.01,2.312-1.514,4.465-1.514
			c1.925,0,3.317,0.389,4.178,1.166C118.656,22.861,119.087,24.131,119.087,25.891z"/>
		<path fill="#FFFFFF" d="M121.388,14.399h4.464v3.677h-4.464V14.399z M121.388,21.304h4.464v15.879h-4.464V21.304z"/>
		<path fill="#FFFFFF" d="M139.615,28.039v2.409c0,2.708-0.407,4.571-1.221,5.591s-2.266,1.529-4.355,1.529
			c-2.091,0-3.545-0.51-4.364-1.529c-0.818-1.02-1.228-2.883-1.228-5.591v-2.409c0-2.709,0.406-4.572,1.221-5.592
			c0.812-1.02,2.26-1.529,4.34-1.529c2.101,0,3.561,0.507,4.379,1.521C139.206,23.453,139.615,25.32,139.615,28.039z M135.151,25.86
			c0-0.845-0.083-1.427-0.247-1.745c-0.165-0.319-0.454-0.479-0.865-0.479c-0.412,0-0.703,0.162-0.873,0.486
			s-0.255,0.903-0.255,1.737v6.766c0,0.854,0.082,1.437,0.247,1.745s0.448,0.464,0.85,0.464c0.422,0,0.719-0.159,0.889-0.479
			c0.17-0.318,0.255-0.896,0.255-1.729V25.86z"/>
		<path fill="#FFFFFF" d="M153.131,25.598v11.585h-4.495V26.076c0-0.73-0.072-1.235-0.216-1.514
			c-0.145-0.277-0.392-0.416-0.741-0.416c-0.361,0-0.618,0.146-0.772,0.439c-0.155,0.293-0.232,0.791-0.232,1.49v11.106h-4.464
			V21.304h4.341l0.123,1.839c0.516-0.763,1.048-1.324,1.599-1.685s1.146-0.54,1.784-0.54c1.133,0,1.929,0.334,2.387,1.004
			S153.131,23.816,153.131,25.598z"/>
		<path fill="#FFFFFF" d="M166.862,28.039v1.899h-6.704v2.688c0,0.834,0.085,1.411,0.255,1.729c0.17,0.32,0.461,0.479,0.873,0.479
			c0.463,0,0.79-0.163,0.98-0.487s0.286-0.898,0.286-1.722v-0.571h4.31v0.541c0,1.75-0.433,3.017-1.298,3.799
			c-0.865,0.783-2.255,1.174-4.17,1.174c-2.143,0-3.628-0.507-4.457-1.521c-0.829-1.014-1.243-2.881-1.243-5.599v-2.409
			c0-2.709,0.406-4.572,1.221-5.592c0.812-1.02,2.26-1.529,4.34-1.529c2.121,0,3.586,0.499,4.395,1.498
			S166.862,25.289,166.862,28.039z M162.553,25.799c0-0.886-0.091-1.498-0.271-1.838c-0.181-0.34-0.486-0.51-0.919-0.51
			c-0.443,0-0.755,0.167-0.935,0.502c-0.181,0.334-0.271,0.949-0.271,1.846v1.606h2.395V25.799z"/>
		<path fill="#FFFFFF" d="M179.837,25.351v0.603h-4.108v-0.727c0-0.658-0.085-1.094-0.255-1.305s-0.477-0.316-0.919-0.316
			c-0.34,0-0.59,0.09-0.749,0.27c-0.16,0.181-0.239,0.451-0.239,0.812v0.479c0,0.381,0.12,0.71,0.362,0.988
			c0.242,0.277,0.744,0.623,1.506,1.035l2.179,1.143c0.854,0.453,1.495,1.027,1.923,1.723c0.427,0.694,0.641,1.511,0.641,2.447
			v0.818c0,1.474-0.458,2.549-1.374,3.229c-0.917,0.68-2.374,1.02-4.372,1.02c-1.946,0-3.277-0.345-3.992-1.035
			c-0.716-0.689-1.074-2.002-1.074-3.938v-0.51h3.955v1.08c0,0.649,0.098,1.095,0.293,1.336c0.195,0.242,0.551,0.363,1.065,0.363
			c0.443,0,0.76-0.103,0.95-0.309c0.19-0.205,0.286-0.557,0.286-1.051V32.95c0-0.483-0.132-0.913-0.395-1.29
			c-0.262-0.375-0.651-0.688-1.166-0.934l-2.054-1.035c-1.123-0.566-1.903-1.133-2.341-1.699s-0.656-1.267-0.656-2.102v-1.204
			c0-1.185,0.479-2.108,1.437-2.772s2.302-0.996,4.031-0.996c1.823,0,3.123,0.337,3.9,1.012
			C179.448,22.604,179.837,23.744,179.837,25.351z"/>
	</g>
	<g>
		<path fill-rule="evenodd" clip-rule="evenodd" fill="#FFFFFF" d="M26.498,40.123c-2.732,0.006-5.467,0.016-8.199,0.023
			c-0.334-0.148-0.41-0.438-0.41-0.758c-0.002-3.92,0.002-7.834-0.012-11.75c0-0.311,0.178-0.447,0.367-0.609
			c2.361-1.984,4.727-3.965,7.092-5.947c1.256-1.055,2.523-2.096,3.766-3.17c0.305-0.266,0.49-0.281,0.795-0.008
			c2.699,2.42,5.41,4.826,8.117,7.238c0.699,0.623,1.396,1.254,2.105,1.865c0.25,0.217,0.365,0.445,0.365,0.789
			c-0.012,3.719-0.008,7.434-0.01,11.152c0,0.996-0.219,1.205-1.199,1.205c-2.311,0-4.619-0.008-6.93,0.01
			c-0.412,0.004-0.516-0.113-0.51-0.516c0.02-1.914,0.01-3.824,0.008-5.738c0-0.939-0.32-1.256-1.273-1.258
			c-0.992-0.004-1.986-0.004-2.98,0c-0.787,0.004-1.062,0.277-1.066,1.084c-0.006,2.018,0,4.041-0.002,6.061
			C26.521,39.906,26.506,40.014,26.498,40.123z"/>
		<path fill-rule="evenodd" clip-rule="evenodd" fill="#FFFFFF" d="M43.586,27.156c-0.793-0.029-1.473-0.367-2.045-0.879
			c-3.527-3.146-7.037-6.309-10.557-9.463c-0.176-0.156-0.355-0.305-0.529-0.461c-0.859-0.77-0.85-0.76-1.713-0.027
			c-4.008,3.393-8.018,6.781-12.025,10.17c-0.377,0.316-0.789,0.57-1.27,0.697c-0.402,0.107-0.787,0.061-1.156-0.127
			c-0.684-0.348-0.727-0.602-0.166-1.098c5.049-4.445,10.102-8.885,15.143-13.342c0.297-0.26,0.449-0.209,0.709,0.027
			c4.873,4.424,9.756,8.842,14.637,13.258c0.531,0.48,0.516,0.643-0.094,1.012C44.232,27.096,43.922,27.172,43.586,27.156z"/>
		<path fill-rule="evenodd" clip-rule="evenodd" fill="#FFFFFF" d="M41.361,21.938c-0.818-0.693-1.498-1.336-2.248-1.877
			c-0.68-0.492-0.977-1.057-0.881-1.906c0.082-0.73,0.02-1.479-0.002-2.219c-0.01-0.297,0.078-0.412,0.393-0.406
			c0.773,0.02,1.553,0.016,2.326,0.004c0.291-0.008,0.422,0.062,0.42,0.387C41.355,17.867,41.361,19.814,41.361,21.938z"/>
	</g>
</g>
</svg>
