<?xml version="1.0" encoding="utf-8"?>
<!-- Generator: Adobe Illustrator 16.0.0, SVG Export Plug-In . SVG Version: 6.00 Build 0)  -->
<!DOCTYPE svg PUBLIC "-//W3C//DTD SVG 1.1//EN" "http://www.w3.org/Graphics/SVG/1.1/DTD/svg11.dtd">
<svg version="1.1" id="Capa_1" xmlns="http://www.w3.org/2000/svg" xmlns:xlink="http://www.w3.org/1999/xlink" x="0px" y="0px"
	 width="33.908px" height="33.92px" viewBox="0 0 33.908 33.92" enable-background="new 0 0 33.908 33.92" xml:space="preserve">
<g>
	<g>
		<g>
			<g>
				<g>
					<path fill="#278136" d="M29.986,6.107C26.873,2.383,22.188,0,16.953,0C7.592,0,0,7.593,0,16.955
						c0,4.413,1.693,8.423,4.457,11.438c3.104,3.387,7.539,5.528,12.496,5.528c9.363,0,16.955-7.593,16.955-16.966
						C33.908,12.836,32.432,9.057,29.986,6.107z M27.877,22.866l-5.023,5.014l-5.9-5.9l-5.896,5.9L6.03,22.866l5.899-5.911
						L6.03,11.056l5.026-5.025l5.896,5.899l5.9-5.899l5.023,5.025l-5.898,5.899L27.877,22.866z"/>
				</g>
			</g>
		</g>
	</g>
</g>
</svg>
