<?xml version="1.0" encoding="utf-8"?>
<!-- Generator: Adobe Illustrator 16.0.0, SVG Export Plug-In . SVG Version: 6.00 Build 0)  -->
<!DOCTYPE svg PUBLIC "-//W3C//DTD SVG 1.1//EN" "http://www.w3.org/Graphics/SVG/1.1/DTD/svg11.dtd">
<svg version="1.1" id="Capa_1" xmlns="http://www.w3.org/2000/svg" xmlns:xlink="http://www.w3.org/1999/xlink" x="0px" y="0px"
	 width="425.584px" height="430.017px" viewBox="0 0 425.584 430.017" enable-background="new 0 0 425.584 430.017"
	 xml:space="preserve">
<g>
	<g>
		<g>
			<path fill="#1CA1BF" d="M347.506,192.329c0.098,15.6,12.941,28.364,28.541,28.364h21.172c15.601,0,28.365,12.763,28.365,28.362
				v12.438c0,15.602-7.164,28.363-15.924,28.363c-8.757,0-15.923,50.415-15.923,66.014v5.973c0,15.6-12.764,28.363-28.363,28.363
				h-11.222c-15.599,0-28.362,8.955-28.362,19.905c0,10.946-12.765,19.904-28.364,19.904h-28.861
				c-15.6,0-28.363-10.078-28.363-22.393c0-12.317-11.867-26.646-26.371-31.849c-14.506-5.199-30.182-2.514-34.834,5.973
				c-4.651,8.482-21.22,15.427-36.82,15.427H108.34c-15.602,0-31.979-12.241-36.391-27.205l-1.862-6.299
				c-4.415-14.963-17.339-73.585-28.718-84.255l-6.386-5.985c-11.382-10.672-20.692-26.903-20.692-36.069
				c0-9.167,7.615-18.349,16.916-20.401c9.308-2.051,16.921-43.388,16.921-58.988v-7.961c0-15.601,12.765-28.363,28.364-28.363l0,0
				c15.601,0,28.364-11.197,28.364-24.88c0-13.685,11.868-24.88,26.37-24.88c14.506,0,26.374-2.456,26.374-16.96
				c0-14.505,12.764-26.374,28.363-26.374h41.798c15.601,0,28.363,12.765,28.363,28.365V95.73c0,15.6,12.765,37.775,28.364,37.775
				l34.333,8.068c15.6,0,28.445,12.763,28.543,28.363L347.506,192.329z"/>
			<path fill="#2AB9D1" d="M347.506,180.343c0.098,15.6,12.941,28.364,28.541,28.364h21.172c15.601,0,28.365,12.763,28.365,28.362
				v12.438c0,15.603-7.164,28.364-15.924,28.364c-8.757,0-15.923,50.415-15.923,66.014v5.971c0,15.602-12.764,28.365-28.363,28.365
				h-11.222c-15.599,0-28.362,8.955-28.362,19.904c0,10.947-12.765,19.905-28.364,19.905h-28.861
				c-15.6,0-28.363-10.078-28.363-22.393c0-12.317-11.867-26.646-26.371-31.849c-14.506-5.201-30.182-2.514-34.834,5.973
				c-4.651,8.482-21.22,15.427-36.82,15.427H108.34c-15.602,0-31.979-12.242-36.391-27.207l-1.862-6.297
				c-4.415-14.963-17.339-73.585-28.718-84.255l-6.386-5.985c-11.382-10.672-20.692-26.903-20.692-36.07
				c0-9.166,7.615-18.349,16.916-20.4c9.308-2.051,16.921-43.387,16.921-58.988v-7.962c0-15.601,12.765-28.363,28.364-28.363l0,0
				c15.601,0,28.364-11.195,28.364-24.88c0-13.685,11.868-24.88,26.37-24.88c14.506,0,26.374-2.457,26.374-16.961
				s12.764-26.373,28.363-26.373h41.798c15.601,0,28.363,12.764,28.363,28.363v38.814c0,15.6,12.765,37.775,28.364,37.775
				l34.333,8.068c15.6,0,28.445,12.762,28.543,28.362L347.506,180.343z"/>
		</g>
		<g>
			<g>
				<g>
					<path fill="#49BDCF" d="M146.357,140.933c-4.756,0-7.151-1.394-9.468-2.741c-2.114-1.229-4.112-2.393-8.178-2.393
						c-4.062,0-6.059,1.162-8.171,2.393c-2.314,1.348-4.709,2.741-9.463,2.741c-4.757,0-7.15-1.394-9.466-2.741
						c-2.113-1.229-4.111-2.393-8.175-2.393v-2.567c4.757,0,7.15,1.394,9.466,2.741c2.114,1.23,4.111,2.393,8.175,2.393
						c4.062,0,6.058-1.162,8.171-2.393c2.315-1.348,4.708-2.741,9.463-2.741c4.759,0,7.152,1.394,9.469,2.741
						c2.114,1.229,4.112,2.393,8.177,2.393s6.062-1.163,8.178-2.393c2.316-1.348,4.711-2.741,9.469-2.741v2.567
						c-4.065,0-6.063,1.163-8.178,2.393C153.511,139.54,151.115,140.933,146.357,140.933z"/>
				</g>
				<g>
					<path fill="#49BDCF" d="M184.862,149.917c-4.757,0-7.151-1.394-9.468-2.741c-2.115-1.229-4.113-2.393-8.178-2.393
						c-4.062,0-6.059,1.162-8.171,2.393c-2.315,1.348-4.709,2.741-9.463,2.741c-4.757,0-7.151-1.394-9.466-2.741
						c-2.113-1.229-4.111-2.393-8.175-2.393v-2.567c4.757,0,7.15,1.394,9.466,2.741c2.114,1.23,4.111,2.393,8.175,2.393
						c4.062,0,6.058-1.162,8.171-2.393c2.314-1.348,4.707-2.741,9.463-2.741c4.758,0,7.152,1.394,9.469,2.741
						c2.114,1.229,4.111,2.393,8.177,2.393c4.064,0,6.062-1.163,8.177-2.393c2.316-1.348,4.712-2.741,9.47-2.741v2.567
						c-4.065,0-6.063,1.163-8.179,2.393C192.016,148.524,189.62,149.917,184.862,149.917z"/>
				</g>
			</g>
			<g>
				<g>
					<path fill="#49BDCF" d="M268.378,184.571c-4.757,0-7.153-1.394-9.468-2.741c-2.115-1.229-4.113-2.393-8.179-2.393
						c-4.062,0-6.058,1.162-8.17,2.393c-2.316,1.348-4.709,2.741-9.463,2.741c-4.757,0-7.151-1.394-9.466-2.741
						c-2.113-1.229-4.111-2.393-8.175-2.393v-2.566c4.757,0,7.15,1.394,9.466,2.741c2.113,1.23,4.111,2.393,8.175,2.393
						c4.061,0,6.058-1.162,8.169-2.393c2.316-1.348,4.709-2.741,9.464-2.741c4.758,0,7.153,1.394,9.47,2.741
						c2.114,1.229,4.112,2.393,8.177,2.393c4.065,0,6.062-1.163,8.177-2.393c2.316-1.348,4.712-2.741,9.47-2.741v2.566
						c-4.065,0-6.063,1.163-8.179,2.393C275.531,183.178,273.135,184.571,268.378,184.571z"/>
				</g>
				<g>
					<path fill="#49BDCF" d="M306.883,193.557c-4.757,0-7.153-1.395-9.469-2.742c-2.114-1.229-4.112-2.393-8.178-2.393
						c-4.062,0-6.059,1.162-8.17,2.393c-2.316,1.348-4.709,2.742-9.463,2.742c-4.758,0-7.151-1.395-9.467-2.742
						c-2.113-1.229-4.11-2.393-8.174-2.393v-2.566c4.756,0,7.15,1.394,9.465,2.741c2.113,1.23,4.111,2.393,8.176,2.393
						c4.061,0,6.057-1.162,8.169-2.393c2.316-1.348,4.709-2.741,9.464-2.741c4.758,0,7.152,1.394,9.469,2.741
						c2.115,1.229,4.113,2.393,8.178,2.393s6.062-1.163,8.177-2.393c2.316-1.348,4.712-2.741,9.47-2.741v2.566
						c-4.066,0-6.064,1.163-8.179,2.393C314.036,192.162,311.639,193.557,306.883,193.557z"/>
				</g>
			</g>
			<g>
				<g>
					<path fill="#49BDCF" d="M89.602,239.847c-4.758,0-7.152-1.394-9.468-2.741c-2.114-1.229-4.112-2.393-8.179-2.393
						c-4.062,0-6.058,1.162-8.171,2.393c-2.314,1.348-4.708,2.741-9.463,2.741s-7.149-1.394-9.465-2.741
						c-2.114-1.229-4.11-2.393-8.175-2.393v-2.566c4.757,0,7.151,1.394,9.466,2.74c2.113,1.231,4.11,2.394,8.174,2.394
						c4.062,0,6.059-1.162,8.171-2.394c2.315-1.347,4.709-2.74,9.463-2.74c4.758,0,7.153,1.394,9.47,2.74
						c2.114,1.23,4.112,2.394,8.177,2.394c4.065,0,6.063-1.163,8.178-2.394c2.316-1.347,4.711-2.74,9.469-2.74v2.566
						c-4.065,0-6.063,1.163-8.178,2.393C96.754,238.453,94.359,239.847,89.602,239.847z"/>
				</g>
				<g>
					<path fill="#49BDCF" d="M128.106,248.831c-4.757,0-7.153-1.394-9.468-2.741c-2.114-1.229-4.112-2.393-8.179-2.393
						c-4.062,0-6.058,1.162-8.171,2.393c-2.314,1.348-4.708,2.741-9.463,2.741c-4.756,0-7.149-1.394-9.465-2.741
						c-2.114-1.229-4.111-2.393-8.175-2.393v-2.566c4.757,0,7.151,1.394,9.466,2.741c2.113,1.23,4.11,2.393,8.174,2.393
						c4.062,0,6.059-1.162,8.171-2.393c2.315-1.348,4.709-2.741,9.463-2.741c4.758,0,7.153,1.394,9.47,2.741
						c2.114,1.229,4.112,2.393,8.177,2.393c4.065,0,6.063-1.163,8.178-2.393c2.316-1.348,4.712-2.741,9.47-2.741v2.566
						c-4.066,0-6.064,1.163-8.179,2.393C135.26,247.438,132.863,248.831,128.106,248.831z"/>
				</g>
			</g>
			<g>
				<g>
					<path fill="#49BDCF" d="M337.259,265.131c-4.758,0-7.151-1.394-9.468-2.741c-2.115-1.229-4.113-2.393-8.178-2.393
						c-4.063,0-6.059,1.161-8.172,2.393c-2.314,1.348-4.708,2.741-9.463,2.741c-4.756,0-7.15-1.394-9.465-2.741
						c-2.114-1.229-4.111-2.393-8.175-2.393v-2.567c4.757,0,7.15,1.394,9.466,2.741c2.114,1.23,4.109,2.393,8.174,2.393
						c4.062,0,6.059-1.162,8.172-2.393c2.313-1.348,4.707-2.741,9.463-2.741c4.758,0,7.152,1.394,9.469,2.741
						c2.114,1.229,4.112,2.393,8.177,2.393c4.065,0,6.062-1.163,8.177-2.393c2.316-1.348,4.712-2.741,9.47-2.741v2.567
						c-4.065,0-6.063,1.163-8.179,2.393C344.412,263.737,342.017,265.131,337.259,265.131z"/>
				</g>
				<g>
					<path fill="#49BDCF" d="M375.764,274.115c-4.757,0-7.153-1.394-9.469-2.741c-2.114-1.229-4.112-2.393-8.178-2.393
						c-4.062,0-6.059,1.161-8.17,2.393c-2.316,1.348-4.709,2.741-9.465,2.741c-4.755,0-7.149-1.394-9.465-2.741
						c-2.113-1.229-4.11-2.393-8.174-2.393v-2.567c4.756,0,7.15,1.394,9.465,2.741c2.115,1.23,4.11,2.393,8.174,2.393
						c4.062,0,6.059-1.162,8.171-2.393c2.316-1.348,4.709-2.741,9.464-2.741c4.758,0,7.152,1.394,9.469,2.741
						c2.115,1.229,4.113,2.393,8.178,2.393s6.062-1.163,8.177-2.393c2.316-1.348,4.712-2.741,9.47-2.741v2.567
						c-4.066,0-6.064,1.163-8.179,2.393C382.917,272.722,380.521,274.115,375.764,274.115z"/>
				</g>
			</g>
			<g>
				<g>
					<path fill="#49BDCF" d="M167.889,307.235c-4.757,0-7.153-1.395-9.469-2.741c-2.114-1.229-4.111-2.393-8.178-2.393
						c-4.062,0-6.058,1.161-8.17,2.393c-2.316,1.347-4.709,2.741-9.463,2.741c-4.757,0-7.151-1.395-9.466-2.741
						c-2.113-1.229-4.111-2.393-8.175-2.393v-2.567c4.757,0,7.15,1.394,9.466,2.741c2.113,1.23,4.11,2.393,8.175,2.393
						c4.061,0,6.058-1.162,8.17-2.393c2.315-1.348,4.709-2.741,9.463-2.741c4.758,0,7.152,1.394,9.469,2.741
						c2.115,1.229,4.113,2.393,8.178,2.393s6.062-1.163,8.178-2.393c2.315-1.348,4.711-2.741,9.469-2.741v2.567
						c-4.066,0-6.063,1.163-8.178,2.393C175.042,305.841,172.646,307.235,167.889,307.235z"/>
				</g>
				<g>
					<path fill="#49BDCF" d="M206.394,316.22c-4.757,0-7.153-1.394-9.469-2.741c-2.114-1.229-4.112-2.393-8.179-2.393
						c-4.061,0-6.057,1.161-8.169,2.393c-2.316,1.348-4.709,2.741-9.464,2.741c-4.756,0-7.15-1.394-9.465-2.741
						c-2.113-1.229-4.111-2.393-8.176-2.393v-2.567c4.758,0,7.151,1.394,9.467,2.741c2.113,1.23,4.11,2.393,8.174,2.393
						c4.062,0,6.059-1.162,8.17-2.393c2.316-1.348,4.709-2.741,9.463-2.741c4.758,0,7.153,1.394,9.47,2.741
						c2.114,1.229,4.112,2.393,8.178,2.393c4.064,0,6.062-1.163,8.177-2.393c2.316-1.348,4.712-2.741,9.47-2.741v2.567
						c-4.066,0-6.063,1.163-8.179,2.393C213.547,314.826,211.15,316.22,206.394,316.22z"/>
				</g>
			</g>
			<g>
				<g>
					<path fill="#49BDCF" d="M300.219,360.009c-4.757,0-7.154-1.395-9.469-2.741c-2.114-1.229-4.112-2.393-8.179-2.393
						c-4.061,0-6.058,1.161-8.169,2.393c-2.316,1.347-4.709,2.741-9.464,2.741c-4.757,0-7.15-1.395-9.466-2.741
						c-2.113-1.229-4.111-2.393-8.175-2.393v-2.567c4.757,0,7.151,1.394,9.466,2.741c2.113,1.23,4.111,2.393,8.175,2.393
						c4.062,0,6.058-1.162,8.17-2.393c2.316-1.348,4.709-2.741,9.463-2.741c4.758,0,7.153,1.394,9.47,2.741
						c2.114,1.229,4.112,2.393,8.178,2.393c4.064,0,6.062-1.163,8.177-2.393c2.316-1.348,4.712-2.741,9.47-2.741v2.567
						c-4.066,0-6.064,1.163-8.179,2.393C307.371,358.614,304.975,360.009,300.219,360.009z"/>
				</g>
				<g>
					<path fill="#49BDCF" d="M338.723,368.993c-4.756,0-7.153-1.394-9.468-2.741c-2.114-1.229-4.112-2.393-8.179-2.393
						c-4.061,0-6.058,1.161-8.17,2.393c-2.316,1.348-4.709,2.741-9.463,2.741c-4.757,0-7.15-1.394-9.466-2.741
						c-2.113-1.229-4.111-2.393-8.175-2.393v-2.567c4.757,0,7.15,1.394,9.466,2.741c2.113,1.23,4.111,2.393,8.175,2.393
						c4.061,0,6.058-1.162,8.17-2.393c2.316-1.348,4.709-2.741,9.463-2.741c4.758,0,7.153,1.394,9.47,2.741
						c2.114,1.229,4.112,2.393,8.177,2.393s6.062-1.163,8.178-2.393c2.316-1.348,4.711-2.741,9.469-2.741v2.567
						c-4.065,0-6.063,1.163-8.178,2.393C345.876,367.6,343.479,368.993,338.723,368.993z"/>
				</g>
			</g>
		</g>
	</g>
	<g>
		<g>
			<g>
				<path fill="#1E737D" d="M187.143,127.25c-1.399-1.4-2.799-2.8-4.198-4.199c1.398-1.398,2.799-2.8,4.198-4.199
					c1.919-1.92-1.058-4.898-2.977-2.978c-1.401,1.399-2.8,2.8-4.2,4.199c-1.4-1.398-2.798-2.799-4.199-4.199
					c-1.92-1.92-4.896,1.058-2.978,2.978c1.401,1.399,2.8,2.799,4.2,4.199c-1.4,1.399-2.801,2.8-4.2,4.199
					c-1.919,1.92,1.058,4.898,2.978,2.978c1.4-1.399,2.799-2.8,4.199-4.199c1.4,1.399,2.799,2.799,4.2,4.199
					C186.085,132.147,189.063,129.169,187.143,127.25z"/>
			</g>
			<circle fill="#1E737D" cx="319.262" cy="332.691" r="6.155"/>
		</g>
		<path fill="none" stroke="#1E737D" stroke-width="3" stroke-miterlimit="10" stroke-dasharray="6,6" d="M180.852,123.051v19.166
			c0,0,0.109,11.085-16.691,10.749s-61.716-1.136-61.716-1.136s-12.092,0.971-12.092,9.54s0,31.074,0,31.074
			s0.392,5.057,12.092,5.057s88.649,0,88.649,0s7.968,0.001,7.968,9.22s-0.064,29.275-0.064,29.275s0.37,7.705-10.241,7.705
			s-50.689,0-50.689,0s-7.154,1.436-7.154,9.337s-1.145,45.903-1.145,45.903s-0.938,7.249,8.97,7.249s108.561,0,108.561,0
			s6.665,1.251,6.665,10.75c0,1.767,0,3.46,0,5.047c0,6.943,13.239,11.837,13.239,11.837h48.718"/>
		<g>
			<g>
				<path fill="#EDBC9A" d="M120.771,309.979c10.365,0,19.66,5.093,26.011,13.157c2.673-1.741,5.69-2.738,8.899-2.738
					c9.102,0,16.747,7.901,18.929,18.604h-20.28h-17.578H87.213C91.081,322.305,104.638,309.979,120.771,309.979z"/>
				<g>
					<g>
						<g>
							<g>
								<path fill="#744210" d="M217.997,3.635c0,21.34,0,42.682,0,64.021c0,3.489-5.409,3.489-5.409,0c0-21.339,0-42.681,0-64.021
									C212.588,0.147,217.997,0.147,217.997,3.635L217.997,3.635z"/>
							</g>
							<g>
								<path fill="#744210" d="M226.299,10.398c-7.336,0-14.674,0-22.013,0c-1.743,0-1.743-2.705,0-2.705
									c7.339,0,14.677,0,22.013,0C228.042,7.693,228.042,10.398,226.299,10.398L226.299,10.398z"/>
							</g>
							<polygon fill="#2D2C24" points="206.074,10.398 214.4,10.398 216.409,10.398 224.738,10.398 224.738,29.245 215.405,24.848 
								206.074,29.245 							"/>
						</g>
						<g>
							<g>
								<path fill="#744210" d="M141.789,2.951c0,24.063,0,65.439,0,89.502c0,3.935-6.104,3.935-6.104,0c0-24.063,0-65.439,0-89.502
									C135.686-0.984,141.789-0.984,141.789,2.951L141.789,2.951z"/>
							</g>
							<g>
								<g>
									<path fill="#744210" d="M151.148,10.576c-8.275,0-16.547,0-24.82,0c-1.968,0-1.968-3.051,0-3.051c8.273,0,16.545,0,24.82,0
										C153.117,7.525,153.117,10.576,151.148,10.576L151.148,10.576z"/>
								</g>
								<polygon fill="#2D2C24" points="128.341,10.576 137.73,10.576 139.996,10.576 149.389,10.576 149.389,22.546 
									138.863,19.752 128.341,22.546 								"/>
							</g>
							<g>
								<path fill="#744210" d="M160.875,30.097c-10.942,0-33.331,0-44.274,0c-2.601,0-2.601-4.035,0-4.035
									c10.943,0,33.332,0,44.274,0C163.476,26.062,163.476,30.097,160.875,30.097L160.875,30.097z"/>
								<path fill="#F2DDC9" d="M118.857,30.097h20.049h0.001h20.048c0,0,7.154,10.731,0,27.02h-20.048h-0.001h-20.049
									C111.702,40.829,118.857,30.097,118.857,30.097z"/>
							</g>
							<g>
								<g>
									<path fill="#744210" d="M151.148,66.843c-8.275,0-16.547,0-24.82,0c-1.968,0-1.968-3.05,0-3.05c8.273,0,16.545,0,24.82,0
										C153.117,63.793,153.117,66.843,151.148,66.843L151.148,66.843z"/>
								</g>
								<polygon fill="#2D2C24" points="128.341,66.843 137.73,66.843 139.996,66.843 149.389,66.843 149.389,78.814 
									138.863,76.019 128.341,78.814 								"/>
							</g>
						</g>
						<g>
							<path fill="#744210" d="M239.908,75.232c0,0-14.066,1.082-15.146,13.526c-1.084,12.442-5.41,31.379-33.545,31.379
								c-28.133,0-55.902,0-55.902,0s-22.548,0-22.548-32.462h80.615V75.232c0,0-2.165-7.575,5.951-7.575c8.114,0,40.575,0,40.575,0
								V75.232z"/>
							<g>
								<circle fill="#F5A31E" cx="172.371" cy="101.471" r="6.222"/>
								<circle fill="#4E2D12" cx="172.372" cy="101.471" r="4.417"/>
							</g>
							<g>
								<circle fill="#F5A31E" cx="150.729" cy="101.471" r="6.222"/>
								<circle fill="#4E2D12" cx="150.729" cy="101.471" r="4.418"/>
							</g>
							<g>
								<circle fill="#F5A31E" cx="129.089" cy="101.471" r="6.222"/>
								<circle fill="#4E2D12" cx="129.088" cy="101.471" r="4.417"/>
							</g>
							<g>
								<g>
									<circle fill="#F5A31E" cx="204.156" cy="78.503" r="4.916"/>
									<circle fill="#4E2D12" cx="204.156" cy="78.503" r="3.49"/>
								</g>
								<g>
									<circle fill="#F5A31E" cx="221.253" cy="78.503" r="4.915"/>
									<path fill="#4E2D12" d="M217.761,78.503c0,1.928,1.563,3.49,3.493,3.49c1.925,0,3.488-1.562,3.488-3.49
										c0-1.926-1.563-3.489-3.488-3.489C219.324,75.014,217.761,76.577,217.761,78.503z"/>
								</g>
							</g>
							<g>
								<g>
									<path fill="#F5A31E" d="M112.767,90.92h83.86V74.776c0,0-0.254-2.549,0.271-3.23c0.491-0.636,1.673-0.643,2.436-0.643
										h40.575v-6.491h-40.575c-4.371,0-6.284,0.882-7.812,2.907c-1.353,1.792-1.387,5.851-1.387,8.295v8.816h-77.368V90.92z"/>
								</g>
								<g>
									<g>
										<g>
											<rect x="236.123" y="47.64" fill="#F5A31E" width="3.785" height="22.851"/>
											<rect x="229.629" y="47.64" fill="#F5A31E" width="3.788" height="22.851"/>
											<rect x="223.137" y="47.64" fill="#F5A31E" width="3.787" height="22.851"/>
										</g>
										<g>
											<rect x="216.645" y="47.64" fill="#F5A31E" width="3.788" height="22.851"/>
											<rect x="210.152" y="47.64" fill="#F5A31E" width="3.786" height="22.851"/>
											<rect x="203.661" y="47.64" fill="#F5A31E" width="3.786" height="22.851"/>
											<rect x="197.168" y="47.64" fill="#F5A31E" width="3.787" height="22.851"/>
											<rect x="190.676" y="47.64" fill="#F5A31E" width="3.787" height="22.851"/>
										</g>
									</g>
									<rect x="190.676" y="43.492" fill="#F5A31E" width="49.232" height="7.033"/>
								</g>
							</g>
							<g>
								<path fill="#FFFFFF" d="M183.656,104.161c4.924,4.921,12.902,4.921,17.822,0c4.924-4.919,4.924-12.901,0-17.822
									c-4.92-4.922-12.898-4.922-17.822,0C178.735,91.259,178.735,99.241,183.656,104.161z M188.736,99.082
									c-2.117-2.118-2.117-5.548,0-7.664c2.116-2.116,5.548-2.116,7.664,0c2.114,2.116,2.114,5.548,0,7.664
									C194.284,101.198,190.854,101.198,188.736,99.082z"/>
								<g>
									<g>
										<path fill="#E62944" d="M187.921,83.532l2.379,6.794c-0.567,0.262-1.097,0.625-1.563,1.092
											c-0.466,0.466-0.828,0.995-1.089,1.562l-6.796-2.378c0.615-1.553,1.548-3.008,2.805-4.264
											C184.912,85.083,186.37,84.146,187.921,83.532z"/>
										<path fill="#E62944" d="M201.479,86.338c1.246,1.245,2.175,2.686,2.79,4.22l-6.798,2.382
											c-0.26-0.552-0.617-1.067-1.07-1.522c-0.499-0.499-1.071-0.877-1.682-1.141l2.378-6.792
											C198.692,84.1,200.19,85.05,201.479,86.338z"/>
										<path fill="#E62944" d="M197.136,106.999l-2.433-6.767c0.596-0.262,1.209-0.663,1.697-1.149
											c0.486-0.486,0.886-1.098,1.147-1.692l6.769,2.429c-0.615,1.582-1.56,3.066-2.838,4.342
											C200.203,105.439,198.719,106.383,197.136,106.999z"/>
										<path fill="#E62944" d="M183.656,104.161c-1.288-1.289-2.238-2.785-2.853-4.384l6.761-2.442
											c0.265,0.609,0.674,1.249,1.172,1.748c0.458,0.454,1.017,0.833,1.568,1.092l-2.424,6.777
											C186.343,106.335,184.902,105.407,183.656,104.161z"/>
									</g>
								</g>
							</g>
						</g>
					</g>
					<g>
						<g>
							<g>
								<g>
									<path fill="#D67B4C" d="M287.17,276.08c0,0,22.748,23.882,21.65,63.03l-7.101-0.424c0,0-0.053-35.867-17.044-61.097
										L287.17,276.08z"/>
									<g>
										<g>
											<path fill="#8EAF25" d="M288.401,275.057l1.447,0.785l2.415-1.635l-0.709-2.396l1.964,1.545l2.417-1.638l-1.225-3.155
												l2.479,2.307l2.416-1.637l-1.481-3.535l2.733,2.683l2.415-1.637l-1.479-3.534l2.734,2.687l2.417-1.64l-1.226-3.153
												l2.48,2.304l2.412-1.635l-0.708-2.396l1.963,1.546l2.415-1.637l-0.194-1.636l1.449,0.784l2.715-1.838
												c-5.275-2.496-13.6-1.175-21.01,3.846c-7.41,5.025-11.723,12.269-11.359,18.091l2.712-1.839L288.401,275.057z"/>
											<path fill="#95C11F" d="M286.482,274.234l1.645-0.005l1.332-2.598l-1.772-1.761l2.463,0.412l1.333-2.595l-2.589-2.181
												l3.28,0.831l1.331-2.597l-2.997-2.388l3.689,1.04l1.328-2.597l-2.996-2.388l3.689,1.041l1.33-2.597l-2.59-2.179
												l3.283,0.832l1.329-2.598l-1.77-1.762l2.463,0.414l1.332-2.598l-0.955-1.341l1.647-0.006l1.494-2.917
												c-5.825,0.345-12.49,5.504-16.574,13.471c-4.087,7.965-4.389,16.391-1.27,21.321l1.496-2.918L286.482,274.234z"/>
											<path fill="#BACF1D" d="M284.623,274.433l1.504-0.678l0.161-2.912l-2.337-0.888l2.42-0.627l0.157-2.913l-3.253-0.935
												l3.336-0.577l0.16-2.914l-3.71-0.962l3.79-0.551l0.161-2.913l-3.71-0.962l3.79-0.552l0.16-2.913l-3.251-0.935
												l3.336-0.579l0.158-2.912l-2.335-0.886l2.415-0.628l0.16-2.912l-1.418-0.837l1.501-0.675l0.179-3.276
												c-5.178,2.688-9.168,10.115-9.654,19.055c-0.491,8.938,2.668,16.755,7.523,19.989l0.179-3.274L284.623,274.433z"/>
											<g>
												<path fill="#94C11F" d="M281.796,279.532l0.195,1.636l-2.415,1.635l-1.965-1.542l0.71,2.394l-2.415,1.638l-2.477-2.307
													l1.222,3.155l-2.414,1.638l-2.735-2.685l1.479,3.534l-2.414,1.64l-2.733-2.685l1.479,3.534l-2.413,1.635l-2.479-2.304
													l1.223,3.153l-2.415,1.637l-1.961-1.545l0.707,2.397l-2.416,1.637l-1.445-0.787l0.194,1.638l-2.715,1.837
													c-0.363-5.822,3.947-13.066,11.357-18.088c7.412-5.022,15.738-6.343,21.013-3.849l-2.715,1.84L281.796,279.532z"/>
												<path fill="#9AC325" d="M281.746,277.44l-0.616,1.529l-2.903,0.275l-0.98-2.3l-0.529,2.442l-2.905,0.273l-1.063-3.211
													l-0.445,3.354l-2.904,0.272l-1.108-3.666l-0.401,3.812l-2.902,0.273l-1.107-3.669l-0.4,3.812l-2.905,0.276l-1.065-3.212
													l-0.443,3.354l-2.903,0.273l-0.98-2.298l-0.53,2.44l-2.902,0.276l-0.895-1.387l-0.616,1.529l-3.261,0.309
													c2.477-5.282,9.737-9.562,18.652-10.406c8.912-0.842,16.848,2.001,20.274,6.724l-3.265,0.308L281.746,277.44z"/>
												<path fill="#BACF1D" d="M282.617,275.793l-1.186,1.146l-2.762-0.933l0.039-2.498l-1.479,2.014l-2.761-0.933l0.332-3.366
													l-1.771,2.883l-2.763-0.931l0.481-3.803l-1.918,3.316l-2.765-0.93l0.481-3.803l-1.919,3.317l-2.763-0.931l0.335-3.367
													l-1.771,2.885l-2.767-0.933l0.043-2.498l-1.477,2.016l-2.768-0.935l-0.249-1.629l-1.186,1.146l-3.106-1.048
													c4.413-3.813,12.79-4.768,21.275-1.907c8.482,2.857,14.573,8.686,15.779,14.394l-3.105-1.048L282.617,275.793z"/>
											</g>
										</g>
										<g>
											<circle fill="#604533" cx="283.009" cy="280.666" r="3.685"/>
											<circle fill="#604533" cx="289.694" cy="274.608" r="3.686"/>
											<circle fill="#705340" cx="284.99" cy="275.847" r="3.685"/>
										</g>
									</g>
								</g>
							</g>
							<path fill="#EDBC9A" d="M342.081,319.312c-14.416,0-27.343,5.093-36.177,13.157c-3.716-1.741-7.914-2.738-12.375-2.738
								c-12.658,0-23.293,7.901-26.328,18.604h28.207h24.447h68.897C383.373,331.639,364.518,319.312,342.081,319.312z"/>
						</g>
						<g>
							<g>
								<g>
									<g>
										<g>
											<g>
												<polygon fill="#B05B3E" points="342.863,321.273 341.945,321.271 324.202,321.242 325.633,332.043 341.93,332.07 
													342.843,332.071 359.14,332.101 360.604,321.304 												"/>
												<g>
													<defs>
														<polygon id="SVGID_9_" points="342.863,321.273 341.945,321.271 324.202,321.242 325.633,332.043 341.93,332.07 
															342.843,332.071 359.14,332.101 360.604,321.304 														"/>
													</defs>
													<clipPath id="SVGID_2_">
														<use xlink:href="#SVGID_9_"  overflow="visible"/>
													</clipPath>
													<g clip-path="url(#SVGID_2_)">
														<path fill="#A1472D" d="M316.959,323.272c14.562,0.025,29.121,0.049,43.682,0.072c2.399,0.004,4.8,0.008,7.201,0.012
															c0.469,0.001,0.472-0.726-0.001-0.729c-14.56-0.023-29.122-0.049-43.68-0.072c-2.4-0.005-4.801-0.009-7.2-0.013
															C316.488,322.543,316.488,323.271,316.959,323.272L316.959,323.272z"/>
														<path fill="#A1472D" d="M316.953,326.19c14.562,0.023,29.123,0.052,43.684,0.075c2.398,0.004,4.799,0.006,7.2,0.013
															c0.47,0.001,0.472-0.731,0-0.731c-14.561-0.024-29.122-0.05-43.681-0.073c-2.399-0.003-4.803-0.011-7.201-0.013
															C316.484,325.461,316.483,326.191,316.953,326.19L316.953,326.19z"/>
														<path fill="#A1472D" d="M316.949,329.109c14.561,0.025,29.123,0.049,43.682,0.074
															c2.399,0.004,4.801,0.009,7.198,0.013c0.472,0,0.474-0.731,0.004-0.731c-14.563-0.023-29.122-0.05-43.684-0.073
															c-2.4-0.005-4.799-0.008-7.198-0.013C316.48,328.38,316.479,329.109,316.949,329.109L316.949,329.109z"/>
														<path fill="#A1472D" d="M316.943,332.03c14.562,0.022,29.123,0.047,43.684,0.071c2.4,0.004,4.8,0.008,7.199,0.011
															c0.471,0.002,0.473-0.729,0.002-0.728c-14.562-0.024-29.123-0.049-43.682-0.075c-2.4-0.004-4.803-0.008-7.2-0.013
															C316.477,331.296,316.474,332.026,316.943,332.03L316.943,332.03z"/>
													</g>
												</g>
											</g>
											<path fill="#F6AC11" d="M359.517,329.326c-0.167-0.028-0.337-0.048-0.511-0.048c-1.559-0.003-2.825,1.258-2.829,2.815
												l2.963,0.007L359.517,329.326z"/>
											<path fill="#F6AC11" d="M325.776,329.223c-0.175,0-0.346,0.018-0.514,0.047l0.37,2.773l2.96,0.005
												C328.597,330.489,327.336,329.225,325.776,329.223z"/>
										</g>
										<polygon fill="#A1472D" points="357.123,315.156 342.416,315.13 327.707,315.106 324.202,321.242 342.404,321.271 
											360.604,321.304 										"/>
										<path fill="#F6AC11" d="M360.604,321.987c-12.135-0.02-24.268-0.041-36.401-0.062c-0.522,0-0.849-0.581-0.591-1.03
											c1.169-2.045,2.334-4.087,3.501-6.136c0.122-0.213,0.302-0.311,0.487-0.328c0.034-0.004,0.068-0.01,0.104-0.011
											c9.808,0.018,19.613,0.035,29.419,0.051c0.24,0,0.474,0.131,0.594,0.341c1.16,2.05,2.319,4.096,3.479,6.147
											C361.452,321.407,361.127,321.987,360.604,321.987z M356.992,315.854C357.026,315.861,357.034,315.858,356.992,315.854
											L356.992,315.854z M347.494,315.824c-6.465-0.01-12.93-0.02-19.393-0.032c-0.905,1.587-1.812,3.176-2.721,4.766
											c11.35,0.02,22.697,0.039,34.049,0.058c-0.64-1.127-1.279-2.255-1.917-3.382c-0.265-0.464-0.527-0.93-0.788-1.393
											c-0.021,0-0.039,0-0.062-0.001C353.605,315.835,350.551,315.832,347.494,315.824z"/>
									</g>
									<g>
										<path fill="#B05B3E" d="M342.443,298.42c-16.248-0.027-18.592,2.433-18.592,2.433l-0.008,3.197l18.591,0.03l18.585,0.033
											l0.006-3.198C361.025,300.915,358.689,298.446,342.443,298.42z"/>
										<g>
											<polygon fill="#8C3926" points="342.706,303.898 342.158,303.898 324.507,303.868 327.979,315.107 342.139,315.13 
												342.688,315.13 356.851,315.155 360.359,303.929 											"/>
											<path fill="#F6AC11" d="M361.02,304.113c-1.169,3.741-2.339,7.482-3.51,11.227c-0.091,0.291-0.35,0.5-0.66,0.5
												c-9.623-0.016-19.248-0.031-28.871-0.048c-0.235-0.001-0.407-0.099-0.517-0.239c-0.062-0.071-0.11-0.159-0.144-0.266
												c-1.16-3.745-2.316-7.492-3.475-11.237c-0.129-0.429,0.229-0.868,0.663-0.867c11.951,0.021,23.903,0.04,35.854,0.061
												C360.797,303.244,361.154,303.685,361.02,304.113z M359.43,304.611c-11.331-0.02-22.664-0.038-33.995-0.056
												c1.017,3.288,2.031,6.577,3.051,9.866c7.376,0.013,14.751,0.024,22.129,0.036c1.665,0.004,3.33,0.007,4.996,0.009
												c0.247,0.002,0.491,0.003,0.736,0.002c0.019-0.056,0.038-0.118,0.061-0.192
												C357.415,311.057,358.422,307.833,359.43,304.611z"/>
										</g>
									</g>
								</g>
								<g>
									<g>
										<path fill="#E59C0D" d="M329.447,320.394c0,0.249-0.935,0.448-2.086,0.448c-1.151-0.002-2.082-0.207-2.082-0.455
											c-0.002-0.249,0.932-0.451,2.083-0.449C328.514,319.94,329.449,320.144,329.447,320.394z"/>
										
											<rect x="325.28" y="319.792" transform="matrix(1 0.0016 -0.0016 1 0.5255 -0.5365)" fill="#E59C0D" width="4.168" height="0.599"/>
										<path fill="#F9BF4A" d="M329.446,319.794c0.003,0.248-0.933,0.451-2.084,0.449c-1.149-0.004-2.085-0.206-2.082-0.455
											c0-0.251,0.933-0.45,2.084-0.447C328.516,319.341,329.446,319.545,329.446,319.794z"/>
									</g>
									<g>
										<ellipse fill="#E59C0D" cx="326.565" cy="319.225" rx="2.084" ry="0.453"/>
										
											<rect x="324.48" y="318.625" transform="matrix(1 0.0014 -0.0014 1 0.4486 -0.4586)" fill="#E59C0D" width="4.169" height="0.6"/>
										<path fill="#F9BF4A" d="M328.65,318.63c-0.001,0.249-0.937,0.45-2.086,0.448c-1.151-0.002-2.083-0.206-2.084-0.456
											c0.001-0.249,0.934-0.45,2.086-0.447C327.714,318.176,328.649,318.38,328.65,318.63z"/>
									</g>
									<g>
										<ellipse fill="#E59C0D" cx="325.877" cy="318.054" rx="2.084" ry="0.451"/>
										
											<rect x="323.794" y="317.454" transform="matrix(1 0.0014 -0.0014 1 0.4471 -0.4578)" fill="#E59C0D" width="4.168" height="0.6"/>
										<path fill="#F9BF4A" d="M327.963,317.458c0,0.249-0.935,0.451-2.086,0.447c-1.15,0-2.084-0.204-2.082-0.454
											c-0.002-0.249,0.934-0.451,2.084-0.448C327.028,317.004,327.964,317.21,327.963,317.458z"/>
									</g>
									<g>
										<path fill="#E59C0D" d="M331.692,316.166c0.003,0.245-0.933,0.447-2.082,0.445c-1.15-0.003-2.084-0.206-2.084-0.454
											c0.001-0.251,0.934-0.45,2.085-0.449C330.762,315.709,331.695,315.914,331.692,316.166z"/>
										
											<rect x="327.527" y="315.562" transform="matrix(1 0.0021 -0.0021 1 0.6671 -0.6947)" fill="#E59C0D" width="4.166" height="0.6"/>
										<ellipse fill="#F9BF4A" cx="329.611" cy="315.562" rx="2.084" ry="0.451"/>
									</g>
									<g>
										<ellipse fill="#E59C0D" cx="328.185" cy="314.901" rx="2.083" ry="0.453"/>
										
											<rect x="326.102" y="314.304" transform="matrix(1 0.0014 -0.0014 1 0.4427 -0.4612)" fill="#E59C0D" width="4.167" height="0.598"/>
										<path fill="#F9BF4A" d="M330.269,314.307c0,0.248-0.935,0.451-2.084,0.447c-1.152,0-2.083-0.205-2.083-0.453
											c0.001-0.251,0.934-0.45,2.085-0.449C329.334,313.854,330.269,314.056,330.269,314.307z"/>
									</g>
									<g>
										<ellipse fill="#E59C0D" cx="329.01" cy="314.153" rx="2.085" ry="0.451"/>
										
											<rect x="326.925" y="313.555" transform="matrix(1 0.0021 -0.0021 1 0.6623 -0.6927)" fill="#E59C0D" width="4.17" height="0.598"/>
										<ellipse fill="#F9BF4A" cx="329.011" cy="313.554" rx="2.085" ry="0.451"/>
									</g>
									<g>
										<ellipse fill="#E59C0D" cx="328.659" cy="313.102" rx="2.083" ry="0.452"/>
										
											<rect x="326.575" y="312.501" transform="matrix(1 0.0014 -0.0014 1 0.4402 -0.4618)" fill="#E59C0D" width="4.167" height="0.601"/>
										<path fill="#F9BF4A" d="M330.742,312.507c0,0.248-0.933,0.447-2.083,0.447c-1.151-0.002-2.084-0.205-2.084-0.456
											c0-0.248,0.934-0.448,2.087-0.447C329.81,312.053,330.744,312.258,330.742,312.507z"/>
									</g>
									<g>
										<ellipse fill="#E59C0D" cx="333.026" cy="316.563" rx="2.083" ry="0.453"/>
										
											<rect x="330.942" y="315.964" transform="matrix(1 0.0016 -0.0016 1 0.5194 -0.546)" fill="#E59C0D" width="4.166" height="0.599"/>
										<ellipse fill="#F9BF4A" cx="333.026" cy="315.964" rx="2.085" ry="0.452"/>
									</g>
									<g>
										<path fill="#E59C0D" d="M335.109,317.471c0,0.249-0.936,0.449-2.087,0.447c-1.15-0.001-2.082-0.204-2.083-0.455
											c0-0.249,0.934-0.451,2.086-0.447C334.174,317.017,335.11,317.22,335.109,317.471z"/>
										
											<rect x="330.94" y="316.867" transform="matrix(1 0.0019 -0.0019 1 0.5948 -0.6234)" fill="#E59C0D" width="4.17" height="0.6"/>
										<ellipse fill="#F9BF4A" cx="333.025" cy="316.867" rx="2.084" ry="0.454"/>
									</g>
									<g>
										<ellipse fill="#E59C0D" cx="333.773" cy="318.52" rx="2.084" ry="0.452"/>
										
											<rect x="331.689" y="317.922" transform="matrix(1 0.0019 -0.0019 1 0.597 -0.6251)" fill="#E59C0D" width="4.168" height="0.598"/>
										<ellipse fill="#F9BF4A" cx="333.775" cy="317.92" rx="2.085" ry="0.451"/>
									</g>
									<g>
										<path fill="#E59C0D" d="M334.727,319.652c0,0.247-0.934,0.447-2.084,0.446c-1.149-0.002-2.083-0.207-2.08-0.455
											c-0.002-0.25,0.931-0.45,2.081-0.447C333.795,319.197,334.729,319.402,334.727,319.652z"/>
										
											<rect x="330.562" y="319.049" transform="matrix(1 0.0021 -0.0021 1 0.6748 -0.7014)" fill="#E59C0D" width="4.164" height="0.599"/>
										<ellipse fill="#F9BF4A" cx="332.645" cy="319.048" rx="2.084" ry="0.453"/>
									</g>
									<g>
										<path fill="#E59C0D" d="M336.342,320.253c0.001,0.248-0.934,0.45-2.085,0.447c-1.15-0.002-2.083-0.207-2.081-0.455
											c0-0.25,0.932-0.449,2.082-0.448C335.411,319.799,336.343,320.002,336.342,320.253z"/>
										
											<rect x="332.176" y="319.65" transform="matrix(1 0.0019 -0.0019 1 0.6006 -0.6263)" fill="#E59C0D" width="4.166" height="0.599"/>
										<ellipse fill="#F9BF4A" cx="334.259" cy="319.649" rx="2.083" ry="0.452"/>
									</g>
									<g>
										<ellipse fill="#E59C0D" cx="330.729" cy="320.396" rx="2.083" ry="0.451"/>
										
											<rect x="328.646" y="319.796" transform="matrix(1 0.0016 -0.0016 1 0.5258 -0.5424)" fill="#E59C0D" width="4.165" height="0.6"/>
										<ellipse fill="#F9BF4A" cx="330.73" cy="319.797" rx="2.084" ry="0.451"/>
									</g>
									<g>
										<path fill="#E59C0D" d="M331.091,317.312c-0.004,0.248-0.937,0.448-2.087,0.447c-1.153-0.004-2.084-0.207-2.083-0.455
											c0-0.25,0.933-0.448,2.084-0.448C330.156,316.858,331.09,317.062,331.091,317.312z"/>
										
											<rect x="326.921" y="316.708" transform="matrix(1 0.0019 -0.0019 1 0.5945 -0.6158)" fill="#E59C0D" width="4.17" height="0.601"/>
										<ellipse fill="#F9BF4A" cx="329.006" cy="316.708" rx="2.085" ry="0.453"/>
									</g>
									<g>
										<ellipse fill="#E59C0D" cx="330.4" cy="319.232" rx="2.084" ry="0.452"/>
										
											<rect x="328.317" y="318.632" transform="matrix(1 0.0016 -0.0016 1 0.5235 -0.5415)" fill="#E59C0D" width="4.168" height="0.6"/>
										<ellipse fill="#F9BF4A" cx="330.402" cy="318.632" rx="2.084" ry="0.453"/>
									</g>
									<g>
										<path fill="#E59C0D" d="M331.815,318.218c0,0.246-0.934,0.448-2.083,0.446c-1.152-0.002-2.085-0.207-2.085-0.454
											c0.003-0.252,0.935-0.451,2.086-0.449C330.883,317.764,331.815,317.966,331.815,318.218z"/>
										
											<rect x="327.648" y="317.613" transform="matrix(1 0.0019 -0.0019 1 0.5965 -0.6175)" fill="#E59C0D" width="4.168" height="0.601"/>
										<ellipse fill="#F9BF4A" cx="329.733" cy="317.613" rx="2.085" ry="0.451"/>
									</g>
									<g>
										<path fill="#E59C0D" d="M339.826,320.411c0,0.249-0.933,0.448-2.086,0.446c-1.149,0.001-2.082-0.203-2.08-0.453
											c0-0.248,0.932-0.451,2.081-0.448C338.894,319.958,339.826,320.161,339.826,320.411z"/>
										
											<rect x="335.661" y="319.809" transform="matrix(1 0.0016 -0.0016 1 0.5257 -0.5538)" fill="#E59C0D" width="4.166" height="0.599"/>
										<path fill="#F9BF4A" d="M339.826,319.812c-0.002,0.249-0.934,0.45-2.086,0.446c-1.148,0-2.08-0.205-2.078-0.453
											c-0.001-0.25,0.93-0.45,2.08-0.449C338.895,319.359,339.826,319.562,339.826,319.812z"/>
									</g>
									<g>
										<ellipse fill="#E59C0D" cx="336.344" cy="319.502" rx="2.083" ry="0.451"/>
										<rect x="334.261" y="318.903" fill="#E59C0D" width="4.167" height="0.6"/>
										<ellipse fill="#F9BF4A" cx="336.345" cy="318.904" rx="2.083" ry="0.452"/>
									</g>
									<g>
										<ellipse fill="#E59C0D" cx="337.693" cy="318.624" rx="2.083" ry="0.452"/>
										
											<rect x="335.61" y="318.023" transform="matrix(1 0.0016 -0.0016 1 0.5229 -0.5538)" fill="#E59C0D" width="4.165" height="0.601"/>
										<ellipse fill="#F9BF4A" cx="337.694" cy="318.024" rx="2.084" ry="0.453"/>
									</g>
									<g>
										<ellipse fill="#E59C0D" cx="336.894" cy="317.459" rx="2.084" ry="0.451"/>
										
											<rect x="334.81" y="316.86" transform="matrix(1 0.0019 -0.0019 1 0.5949 -0.6308)" fill="#E59C0D" width="4.169" height="0.599"/>
										<ellipse fill="#F9BF4A" cx="336.895" cy="316.86" rx="2.084" ry="0.453"/>
									</g>
									<g>
										<ellipse fill="#E59C0D" cx="336.208" cy="316.287" rx="2.084" ry="0.452"/>
										
											<rect x="334.125" y="315.689" transform="matrix(1 0.0019 -0.0019 1 0.5929 -0.6296)" fill="#E59C0D" width="4.168" height="0.598"/>
										<ellipse fill="#F9BF4A" cx="336.208" cy="315.688" rx="2.083" ry="0.451"/>
									</g>
									<g>
										<ellipse fill="#E59C0D" cx="339.94" cy="314.394" rx="2.084" ry="0.451"/>
										
											<rect x="337.855" y="313.796" transform="matrix(1 0.0019 -0.0019 1 0.5892 -0.6365)" fill="#E59C0D" width="4.169" height="0.598"/>
										<ellipse fill="#F9BF4A" cx="339.941" cy="313.795" rx="2.086" ry="0.45"/>
									</g>
									<g>
										<ellipse fill="#E59C0D" cx="343.356" cy="314.798" rx="2.085" ry="0.451"/>
										
											<rect x="341.272" y="314.199" transform="matrix(1 0.0019 -0.0019 1 0.5898 -0.6427)" fill="#E59C0D" width="4.17" height="0.599"/>
										<ellipse fill="#F9BF4A" cx="343.357" cy="314.198" rx="2.084" ry="0.452"/>
									</g>
									<g>
										<ellipse fill="#E59C0D" cx="343.355" cy="315.701" rx="2.083" ry="0.45"/>
										
											<rect x="341.271" y="315.102" transform="matrix(1 0.0016 -0.0016 1 0.5179 -0.5628)" fill="#E59C0D" width="4.167" height="0.599"/>
										<ellipse fill="#F9BF4A" cx="343.355" cy="315.101" rx="2.084" ry="0.452"/>
									</g>
									<g>
										<ellipse fill="#E59C0D" cx="344.104" cy="316.753" rx="2.084" ry="0.45"/>
										
											<rect x="342.021" y="316.153" transform="matrix(1 0.0016 -0.0016 1 0.5195 -0.5639)" fill="#E59C0D" width="4.168" height="0.601"/>
										<ellipse fill="#F9BF4A" cx="344.104" cy="316.153" rx="2.083" ry="0.451"/>
									</g>
									<g>
										<ellipse fill="#E59C0D" cx="342.974" cy="317.88" rx="2.084" ry="0.453"/>
										
											<rect x="340.89" y="317.282" transform="matrix(1 0.0016 -0.0016 1 0.5212 -0.562)" fill="#E59C0D" width="4.169" height="0.599"/>
										<path fill="#F9BF4A" d="M345.059,317.286c0,0.248-0.935,0.448-2.083,0.447c-1.153,0-2.086-0.205-2.086-0.455
											c0.003-0.25,0.936-0.449,2.086-0.447C344.126,316.832,345.062,317.035,345.059,317.286z"/>
									</g>
									<g>
										<ellipse fill="#E59C0D" cx="344.589" cy="318.482" rx="2.085" ry="0.452"/>
										
											<rect x="342.505" y="317.882" transform="matrix(1 0.0014 -0.0014 1 0.4474 -0.4839)" fill="#E59C0D" width="4.17" height="0.601"/>
										<ellipse fill="#F9BF4A" cx="344.59" cy="317.882" rx="2.084" ry="0.455"/>
									</g>
									<g>
										<ellipse fill="#E59C0D" cx="341.06" cy="318.629" rx="2.083" ry="0.452"/>
										
											<rect x="338.977" y="318.028" transform="matrix(1 0.0014 -0.0014 1 0.4479 -0.4792)" fill="#E59C0D" width="4.167" height="0.601"/>
										<ellipse fill="#F9BF4A" cx="341.061" cy="318.03" rx="2.084" ry="0.452"/>
									</g>
									<g>
										<path fill="#E59C0D" d="M341.419,315.545c-0.001,0.25-0.934,0.45-2.087,0.446c-1.15-0.001-2.082-0.203-2.08-0.453
											c0-0.25,0.932-0.452,2.082-0.449C340.487,315.092,341.419,315.296,341.419,315.545z"/>
										
											<rect x="337.252" y="314.942" transform="matrix(1 0.0016 -0.0016 1 0.5176 -0.5562)" fill="#E59C0D" width="4.167" height="0.6"/>
										<ellipse fill="#F9BF4A" cx="339.335" cy="314.941" rx="2.083" ry="0.451"/>
									</g>
									<g>
										<path fill="#E59C0D" d="M342.815,317.468c-0.003,0.249-0.936,0.45-2.087,0.449c-1.148-0.004-2.082-0.207-2.08-0.455
											c-0.001-0.25,0.932-0.45,2.081-0.449C341.881,317.014,342.814,317.22,342.815,317.468z"/>
										
											<rect x="338.648" y="316.864" transform="matrix(1 0.0014 -0.0014 1 0.4463 -0.4788)" fill="#E59C0D" width="4.167" height="0.601"/>
										<path fill="#F9BF4A" d="M342.816,316.869c-0.001,0.25-0.937,0.449-2.086,0.449c-1.148-0.004-2.083-0.206-2.083-0.457
											c0.001-0.248,0.936-0.449,2.083-0.447C341.884,316.415,342.815,316.62,342.816,316.869z"/>
									</g>
									<g>
										<ellipse fill="#E59C0D" cx="340.063" cy="316.446" rx="2.083" ry="0.45"/>
										
											<rect x="337.979" y="315.847" transform="matrix(1 0.0016 -0.0016 1 0.5191 -0.5574)" fill="#E59C0D" width="4.167" height="0.599"/>
										<ellipse fill="#F9BF4A" cx="340.063" cy="315.847" rx="2.084" ry="0.452"/>
									</g>
									<g>
										<path fill="#E59C0D" d="M350.156,318.645c-0.001,0.248-0.935,0.449-2.086,0.447c-1.151-0.001-2.083-0.206-2.08-0.454
											c-0.002-0.25,0.932-0.45,2.082-0.449C349.224,318.192,350.156,318.396,350.156,318.645z"/>
										
											<rect x="345.989" y="318.042" transform="matrix(1 0.0016 -0.0016 1 0.5229 -0.5707)" fill="#E59C0D" width="4.166" height="0.599"/>
										<ellipse fill="#F9BF4A" cx="348.073" cy="318.043" rx="2.085" ry="0.45"/>
									</g>
									<g>
										<ellipse fill="#E59C0D" cx="346.674" cy="317.736" rx="2.084" ry="0.45"/>
										
											<rect x="344.591" y="317.136" transform="matrix(1 0.0019 -0.0019 1 0.5956 -0.6493)" fill="#E59C0D" width="4.168" height="0.601"/>
										<path fill="#F9BF4A" d="M348.759,317.139c0,0.249-0.937,0.451-2.087,0.448s-2.08-0.205-2.08-0.455
											c0-0.249,0.932-0.45,2.083-0.447S348.759,316.889,348.759,317.139z"/>
									</g>
									<g>
										<path fill="#E59C0D" d="M342.139,319.812c0.002,0.248-0.934,0.45-2.084,0.449c-1.15-0.003-2.082-0.208-2.081-0.456
											c-0.001-0.251,0.931-0.452,2.083-0.449C341.207,319.356,342.141,319.561,342.139,319.812z"/>
										
											<rect x="337.975" y="319.208" transform="matrix(1 0.0016 -0.0016 1 0.5248 -0.5577)" fill="#E59C0D" width="4.165" height="0.6"/>
										<path fill="#F9BF4A" d="M342.141,319.211c0,0.25-0.934,0.451-2.086,0.45c-1.15-0.004-2.081-0.207-2.079-0.456
											c-0.001-0.251,0.932-0.448,2.082-0.448C341.21,318.759,342.141,318.962,342.141,319.211z"/>
									</g>
									<g>
										<ellipse fill="#E59C0D" cx="341.639" cy="320.561" rx="2.085" ry="0.451"/>
										
											<rect x="339.554" y="319.96" transform="matrix(1 0.0014 -0.0014 1 0.4503 -0.4797)" fill="#E59C0D" width="4.17" height="0.601"/>
										<path fill="#F9BF4A" d="M343.725,319.963c-0.002,0.251-0.936,0.452-2.085,0.449c-1.15-0.001-2.083-0.204-2.085-0.455
											c0.003-0.249,0.936-0.45,2.085-0.446C342.79,319.512,343.724,319.715,343.725,319.963z"/>
									</g>
									<g>
										<path fill="#E59C0D" d="M345.809,319.673c-0.002,0.247-0.936,0.447-2.087,0.446c-1.148-0.002-2.082-0.208-2.079-0.454
											c-0.003-0.252,0.931-0.451,2.081-0.448C344.873,319.218,345.809,319.421,345.809,319.673z"/>
										
											<rect x="341.643" y="319.068" transform="matrix(1 0.0019 -0.0019 1 0.5995 -0.644)" fill="#E59C0D" width="4.166" height="0.601"/>
										<ellipse fill="#F9BF4A" cx="343.727" cy="319.068" rx="2.084" ry="0.451"/>
									</g>
									<g>
										<ellipse fill="#E59C0D" cx="345.808" cy="320.567" rx="2.084" ry="0.452"/>
										
											<rect x="343.724" y="319.97" transform="matrix(1 0.0019 -0.0019 1 0.6009 -0.6476)" fill="#E59C0D" width="4.168" height="0.598"/>
										<ellipse fill="#F9BF4A" cx="345.808" cy="319.969" rx="2.083" ry="0.451"/>
									</g>
									<g>
										<path fill="#E59C0D" d="M349.602,319.416c-0.003,0.249-0.937,0.449-2.088,0.446c-1.148-0.002-2.081-0.205-2.082-0.453
											c0.001-0.25,0.935-0.451,2.086-0.447C348.666,318.962,349.599,319.166,349.602,319.416z"/>
										
											<rect x="345.432" y="318.814" transform="matrix(1 0.0016 -0.0016 1 0.5236 -0.5693)" fill="#E59C0D" width="4.17" height="0.599"/>
										<ellipse fill="#F9BF4A" cx="347.517" cy="318.813" rx="2.084" ry="0.452"/>
									</g>
									<g>
										<path fill="#E59C0D" d="M351.684,320.426c-0.003,0.248-0.936,0.449-2.088,0.445c-1.148,0-2.082-0.203-2.082-0.454
											c0.003-0.249,0.935-0.45,2.085-0.448S351.682,320.175,351.684,320.426z"/>
										
											<rect x="347.513" y="319.823" transform="matrix(1 0.0021 -0.0021 1 0.6755 -0.7361)" fill="#E59C0D" width="4.17" height="0.599"/>
										<ellipse fill="#F9BF4A" cx="349.598" cy="319.823" rx="2.085" ry="0.452"/>
									</g>
									<g>
										<ellipse fill="#E59C0D" cx="353.766" cy="320.436" rx="2.084" ry="0.45"/>
										
											<rect x="351.682" y="319.836" transform="matrix(1 0.0016 -0.0016 1 0.5254 -0.5797)" fill="#E59C0D" width="4.169" height="0.6"/>
										<ellipse fill="#F9BF4A" cx="353.767" cy="319.836" rx="2.085" ry="0.452"/>
									</g>
									<g>
										<ellipse fill="#E59C0D" cx="358.939" cy="319.127" rx="2.084" ry="0.451"/>
										
											<rect x="356.854" y="318.529" transform="matrix(1 0.0016 -0.0016 1 0.5233 -0.5881)" fill="#E59C0D" width="4.169" height="0.599"/>
										<ellipse fill="#F9BF4A" cx="358.939" cy="318.529" rx="2.085" ry="0.451"/>
									</g>
									<g>
										<ellipse fill="#E59C0D" cx="357.386" cy="320.283" rx="2.084" ry="0.45"/>
										
											<rect x="355.302" y="319.684" transform="matrix(1 0.0019 -0.0019 1 0.6003 -0.6692)" fill="#E59C0D" width="4.169" height="0.6"/>
										<ellipse fill="#F9BF4A" cx="357.388" cy="319.683" rx="2.085" ry="0.451"/>
									</g>
									<g>
										<ellipse fill="#E59C0D" cx="339.965" cy="318.081" rx="2.084" ry="0.449"/>
										
											<rect x="337.882" y="317.482" transform="matrix(1 0.0021 -0.0021 1 0.6709 -0.7162)" fill="#E59C0D" width="4.168" height="0.599"/>
										<ellipse fill="#F9BF4A" cx="339.967" cy="317.481" rx="2.084" ry="0.451"/>
									</g>
									<g>
										<path fill="#E59C0D" d="M357.619,319.386c0,0.249-0.934,0.45-2.084,0.447c-1.15-0.001-2.082-0.205-2.081-0.455
											c-0.001-0.249,0.932-0.45,2.085-0.447C356.687,318.931,357.619,319.138,357.619,319.386z"/>
										
											<rect x="353.454" y="318.785" transform="matrix(1 0.0019 -0.0019 1 0.5992 -0.6663)" fill="#E59C0D" width="4.165" height="0.597"/>
										<path fill="#F9BF4A" d="M357.622,318.786c-0.002,0.248-0.936,0.45-2.086,0.449s-2.082-0.206-2.082-0.454
											c0-0.25,0.933-0.452,2.086-0.448C356.688,318.333,357.62,318.537,357.622,318.786z"/>
									</g>
									<g>
										<ellipse fill="#E59C0D" cx="352.238" cy="319.421" rx="2.084" ry="0.451"/>
										
											<rect x="350.155" y="318.823" transform="matrix(1 0.0016 -0.0016 1 0.5239 -0.5773)" fill="#E59C0D" width="4.168" height="0.599"/>
										<ellipse fill="#F9BF4A" cx="352.24" cy="318.823" rx="2.084" ry="0.45"/>
									</g>
									<g>
										<ellipse fill="#E59C0D" cx="350.156" cy="319.221" rx="2.083" ry="0.452"/>
										
											<rect x="348.074" y="318.622" transform="matrix(1 0.0021 -0.0021 1 0.6736 -0.738)" fill="#E59C0D" width="4.166" height="0.6"/>
										<ellipse fill="#F9BF4A" cx="350.157" cy="318.621" rx="2.083" ry="0.452"/>
									</g>
									<g>
										<ellipse fill="#E59C0D" cx="350.307" cy="318.042" rx="2.084" ry="0.451"/>
										
											<rect x="348.223" y="317.443" transform="matrix(1 0.0016 -0.0016 1 0.5215 -0.574)" fill="#E59C0D" width="4.169" height="0.599"/>
										<ellipse fill="#F9BF4A" cx="350.308" cy="317.443" rx="2.084" ry="0.449"/>
									</g>
									<g>
										<path fill="#E59C0D" d="M351.687,316.949c0.001,0.249-0.934,0.449-2.083,0.446c-1.15-0.002-2.083-0.206-2.083-0.453
											c0.001-0.25,0.934-0.453,2.086-0.449C350.754,316.494,351.687,316.699,351.687,316.949z"/>
										
											<rect x="347.521" y="316.347" transform="matrix(1 0.0016 -0.0016 1 0.5201 -0.5732)" fill="#E59C0D" width="4.166" height="0.599"/>
										<ellipse fill="#F9BF4A" cx="349.604" cy="316.347" rx="2.083" ry="0.45"/>
									</g>
									<g>
										<ellipse fill="#E59C0D" cx="347.144" cy="316.49" rx="2.085" ry="0.45"/>
										
											<rect x="345.061" y="315.89" transform="matrix(1 0.0019 -0.0019 1 0.593 -0.6498)" fill="#E59C0D" width="4.17" height="0.601"/>
										<ellipse fill="#F9BF4A" cx="347.146" cy="315.89" rx="2.083" ry="0.454"/>
									</g>
									<g>
										<ellipse fill="#E59C0D" cx="353.454" cy="318.345" rx="2.083" ry="0.452"/>
										<rect x="351.371" y="317.745" fill="#E59C0D" width="4.166" height="0.601"/>
										<path fill="#F9BF4A" d="M355.54,317.75c-0.001,0.249-0.937,0.45-2.086,0.448c-1.151-0.002-2.082-0.206-2.083-0.456
											c0.001-0.249,0.934-0.451,2.086-0.447C354.604,317.298,355.54,317.5,355.54,317.75z"/>
									</g>
									<g>
										<path fill="#E59C0D" d="M359.475,318.112c0,0.248-0.934,0.45-2.084,0.446c-1.151-0.002-2.084-0.203-2.085-0.451
											c0.002-0.254,0.934-0.453,2.087-0.45C358.542,317.658,359.475,317.861,359.475,318.112z"/>
										<rect x="355.307" y="317.509" fill="#E59C0D" width="4.169" height="0.601"/>
										<ellipse fill="#F9BF4A" cx="357.391" cy="317.509" rx="2.083" ry="0.452"/>
									</g>
									<g>
										<ellipse fill="#E59C0D" cx="355.856" cy="317.073" rx="2.084" ry="0.45"/>
										
											<rect x="353.773" y="316.473" transform="matrix(1 0.0019 -0.0019 1 0.5944 -0.6665)" fill="#E59C0D" width="4.168" height="0.601"/>
										<ellipse fill="#F9BF4A" cx="355.857" cy="316.473" rx="2.084" ry="0.452"/>
									</g>
									<g>
										<path fill="#E59C0D" d="M359.479,316.175c-0.002,0.248-0.935,0.449-2.084,0.447c-1.154-0.002-2.087-0.206-2.084-0.454
											c-0.002-0.251,0.933-0.45,2.084-0.448C358.545,315.721,359.479,315.925,359.479,316.175z"/>
										
											<rect x="355.311" y="315.573" transform="matrix(1 0.0016 -0.0016 1 0.5186 -0.5858)" fill="#E59C0D" width="4.168" height="0.599"/>
										<path fill="#F9BF4A" d="M359.479,315.574c0.001,0.252-0.934,0.451-2.084,0.448c-1.152-0.002-2.086-0.204-2.084-0.453
											c0.001-0.249,0.934-0.451,2.086-0.449C358.547,315.123,359.48,315.326,359.479,315.574z"/>
									</g>
									<g>
										<path fill="#E59C0D" d="M354.927,317.299c0,0.247-0.934,0.45-2.087,0.446c-1.149-0.002-2.082-0.206-2.08-0.454
											c-0.002-0.251,0.932-0.451,2.084-0.448C353.994,316.844,354.928,317.048,354.927,317.299z"/>
										
											<rect x="350.76" y="316.697" transform="matrix(1 0.0019 -0.0019 1 0.5949 -0.661)" fill="#E59C0D" width="4.167" height="0.598"/>
										<path fill="#F9BF4A" d="M354.926,316.698c0.002,0.249-0.932,0.45-2.083,0.449c-1.151-0.004-2.083-0.207-2.083-0.454
											c0-0.251,0.934-0.452,2.084-0.45C353.997,316.244,354.93,316.449,354.926,316.698z"/>
									</g>
									<g>
										<path fill="#E59C0D" d="M357.188,316.208c0.003,0.248-0.932,0.449-2.084,0.447c-1.149-0.002-2.083-0.206-2.082-0.456
											c0-0.249,0.933-0.448,2.082-0.447C356.256,315.755,357.189,315.957,357.188,316.208z"/>
										
											<rect x="353.022" y="315.606" transform="matrix(1 0.0021 -0.0021 1 0.6673 -0.7485)" fill="#E59C0D" width="4.166" height="0.598"/>
										<ellipse fill="#F9BF4A" cx="355.106" cy="315.604" rx="2.083" ry="0.452"/>
									</g>
									<g>
										<ellipse fill="#E59C0D" cx="351.374" cy="316.044" rx="2.084" ry="0.452"/>
										
											<rect x="349.29" y="315.445" transform="matrix(1 0.0016 -0.0016 1 0.5183 -0.5759)" fill="#E59C0D" width="4.168" height="0.6"/>
										<ellipse fill="#F9BF4A" cx="351.374" cy="315.446" rx="2.084" ry="0.452"/>
									</g>
									<g>
										<path fill="#E59C0D" d="M358.945,314.953c0.001,0.25-0.933,0.449-2.086,0.448c-1.15-0.003-2.082-0.206-2.08-0.455
											c-0.002-0.25,0.931-0.449,2.086-0.447C358.014,314.5,358.946,314.705,358.945,314.953z"/>
										
											<rect x="354.78" y="314.351" transform="matrix(1 0.0016 -0.0016 1 0.5168 -0.5851)" fill="#E59C0D" width="4.166" height="0.599"/>
										<ellipse fill="#F9BF4A" cx="356.863" cy="314.352" rx="2.083" ry="0.45"/>
									</g>
									<g>
										<path fill="#E59C0D" d="M355.643,315.301c0.001,0.248-0.932,0.45-2.082,0.448c-1.152-0.002-2.084-0.205-2.083-0.454
											c0-0.252,0.934-0.452,2.085-0.449C354.711,314.849,355.645,315.05,355.643,315.301z"/>
										
											<rect x="351.478" y="314.697" transform="matrix(1 0.0014 -0.0014 1 0.4435 -0.4971)" fill="#E59C0D" width="4.165" height="0.601"/>
										<path fill="#F9BF4A" d="M355.644,314.701c0,0.249-0.934,0.45-2.083,0.449c-1.152-0.003-2.082-0.208-2.083-0.456
											c0.001-0.25,0.934-0.449,2.086-0.447C354.711,314.249,355.645,314.452,355.644,314.701z"/>
									</g>
									<g>
										<ellipse fill="#E59C0D" cx="355.109" cy="314.196" rx="2.084" ry="0.451"/>
										
											<rect x="353.025" y="313.597" transform="matrix(1 0.0019 -0.0019 1 0.5888 -0.6649)" fill="#E59C0D" width="4.169" height="0.6"/>
										<ellipse fill="#F9BF4A" cx="355.109" cy="313.597" rx="2.084" ry="0.453"/>
									</g>
									<g>
										<path fill="#E59C0D" d="M357.73,313.153c0.002,0.246-0.932,0.446-2.084,0.445c-1.15-0.003-2.083-0.207-2.083-0.454
											c0.001-0.25,0.935-0.449,2.085-0.449C356.801,312.697,357.732,312.9,357.73,313.153z"/>
										
											<rect x="353.564" y="312.549" transform="matrix(1 0.0021 -0.0021 1 0.6606 -0.7494)" fill="#E59C0D" width="4.167" height="0.6"/>
										<ellipse fill="#F9BF4A" cx="355.649" cy="312.549" rx="2.084" ry="0.452"/>
									</g>
									<g>
										<path fill="#E59C0D" d="M357.4,312.246c0,0.25-0.934,0.45-2.084,0.447c-1.152-0.001-2.086-0.205-2.084-0.453
											c0-0.251,0.933-0.45,2.087-0.45C356.467,311.794,357.4,311.997,357.4,312.246z"/>
										
											<rect x="353.233" y="311.644" transform="matrix(1 0.0014 -0.0014 1 0.4389 -0.4992)" fill="#E59C0D" width="4.168" height="0.6"/>
										<ellipse fill="#F9BF4A" cx="355.317" cy="311.645" rx="2.084" ry="0.451"/>
									</g>
									<g>
										<ellipse fill="#E59C0D" cx="342.981" cy="313.648" rx="2.083" ry="0.45"/>
										
											<rect x="340.899" y="313.05" transform="matrix(1 0.0019 -0.0019 1 0.5881 -0.6425)" fill="#E59C0D" width="4.167" height="0.599"/>
										<ellipse fill="#F9BF4A" cx="342.983" cy="313.049" rx="2.083" ry="0.451"/>
									</g>
									<g>
										<path fill="#E59C0D" d="M344.143,312.524c0,0.251-0.936,0.45-2.084,0.447c-1.153-0.002-2.085-0.204-2.082-0.455
											c-0.002-0.248,0.934-0.449,2.083-0.448C343.21,312.07,344.142,312.276,344.143,312.524z"/>
										
											<rect x="339.977" y="311.922" transform="matrix(1 0.0019 -0.0019 1 0.5861 -0.6409)" fill="#E59C0D" width="4.166" height="0.599"/>
										<ellipse fill="#F9BF4A" cx="342.06" cy="311.922" rx="2.083" ry="0.451"/>
									</g>
									<g>
										<ellipse fill="#E59C0D" cx="348.078" cy="315.403" rx="2.083" ry="0.454"/>
										
											<rect x="345.996" y="314.805" transform="matrix(1 0.0016 -0.0016 1 0.5175 -0.5707)" fill="#E59C0D" width="4.166" height="0.598"/>
										<ellipse fill="#F9BF4A" cx="348.079" cy="314.805" rx="2.083" ry="0.451"/>
									</g>
									<g>
										<ellipse fill="#E59C0D" cx="334.125" cy="315.416" rx="2.083" ry="0.452"/>
										
											<rect x="332.042" y="314.818" transform="matrix(1 0.0019 -0.0019 1 0.5914 -0.6259)" fill="#E59C0D" width="4.167" height="0.598"/>
										<ellipse fill="#F9BF4A" cx="334.126" cy="314.817" rx="2.084" ry="0.452"/>
									</g>
									<g>
										<ellipse fill="#E59C0D" cx="335.667" cy="314.786" rx="2.083" ry="0.451"/>
										
											<rect x="333.584" y="314.185" transform="matrix(1 0.0016 -0.0016 1 0.5166 -0.5505)" fill="#E59C0D" width="4.165" height="0.601"/>
										<path fill="#F9BF4A" d="M337.753,314.189c0,0.248-0.935,0.448-2.085,0.448c-1.15-0.003-2.085-0.207-2.084-0.456
											c0.001-0.248,0.936-0.449,2.087-0.447C336.818,313.736,337.753,313.939,337.753,314.189z"/>
									</g>
								</g>
							</g>
							<path fill="#EDBC9A" d="M359.325,327.685c-2.284,0-4.271,1.212-5.397,3.017c-1.403-1.282-3.266-2.071-5.316-2.071
								c-2.784,0-5.226,1.443-6.631,3.621c-1.166-1.282-2.832-2.103-4.7-2.103c-1.706,0-3.246,0.68-4.39,1.771
								c-1.434-1.99-3.764-3.29-6.403-3.29c-4.359,0-7.893,3.534-7.893,7.894s3.533,7.893,7.893,7.893c2.64,0,4.97-1.3,6.402-3.289
								c1.145,1.091,2.685,1.77,4.391,1.77c1.868,0,3.534-0.818,4.7-2.101c1.405,2.177,3.847,3.62,6.631,3.62
								c3.327,0,6.168-2.062,7.33-4.975c0.982,0.619,2.137,0.991,3.384,0.991c3.52,0,6.375-2.853,6.375-6.373
								C365.7,330.54,362.845,327.685,359.325,327.685z"/>
						</g>
					</g>
					<g>
						<g>
							<g>
								<g>
									<path fill="#313133" d="M164.16,293.358l-6.583-8.283l-0.108-0.136l-6.581-8.284c0,0-49.36,14.696-30.98,38.13
										l-0.003,0.003c0.02,0.022,0.038,0.044,0.056,0.067c0.02,0.021,0.033,0.043,0.051,0.068l0.004-0.004
										C138.688,338.12,164.16,293.358,164.16,293.358z"/>
									<path fill="#4C4B4C" d="M148.951,278.195c4.424,5.567,8.848,11.134,13.271,16.702c1.985,2.498,5.858-0.58,3.874-3.078
										c-4.424-5.567-8.848-11.135-13.271-16.701C150.84,272.621,146.967,275.697,148.951,278.195L148.951,278.195z"/>
								</g>
								<g>
									<g>
										<path fill="#C66957" d="M137.477,315.289c-0.68-3.764-2.294-6.191-5.225-6.191c-2.93,0-4.545,2.428-5.225,6.191
											c-0.68,3.766-4.213,6.049-4.213,6.049v2.51h9.438h9.438v-2.51C141.689,321.338,138.156,319.055,137.477,315.289z"/>
										<path fill="#B65648" d="M134.736,318.061c0,1.049-0.857,1.908-1.908,1.908h-1.151c-1.052,0-1.909-0.859-1.909-1.908
											v-3.144c0-1.049,0.857-1.907,1.909-1.907h1.151c1.051,0,1.908,0.858,1.908,1.907V318.061z"/>
									</g>
									<path fill="#B55E47" d="M124.379,320.837c0,6.482-5.257,11.739-11.742,11.739c-6.482,0-11.737-5.257-11.737-11.739
										c0-6.483,5.255-11.739,11.737-11.739C119.122,309.098,124.379,314.354,124.379,320.837z M119.222,315.636
										c-1.362,1.362-2.727,2.726-4.089,4.088c0.141,0.312,0.221,0.654,0.233,1.015c1.888,0,3.776,0,5.664,0
										C121.006,318.811,120.334,317.042,119.222,315.636z M118.391,314.731c-1.363-1.286-3.154-2.117-5.138-2.26
										c0,1.9,0,3.802,0,5.703c0.423,0.098,0.81,0.291,1.133,0.562C115.721,317.401,117.056,316.066,118.391,314.731z
										 M112.025,312.472c-1.985,0.143-3.776,0.974-5.139,2.26c1.335,1.335,2.67,2.67,4.003,4.005
										c0.325-0.271,0.711-0.464,1.136-0.562C112.025,316.273,112.025,314.372,112.025,312.472z M107.437,327.421
										c1.282,1.012,2.862,1.655,4.589,1.779c0-1.899,0-3.801,0-5.702c-0.173-0.041-0.34-0.097-0.5-0.168
										C110.163,324.692,108.801,326.057,107.437,327.421z M113.253,329.2c1.728-0.124,3.306-0.768,4.587-1.779
										c-1.363-1.364-2.727-2.729-4.09-4.091c-0.159,0.071-0.324,0.127-0.497,0.168
										C113.253,325.399,113.253,327.301,113.253,329.2z M104.247,320.738c1.889,0,3.776,0,5.664,0
										c0.013-0.36,0.094-0.702,0.233-1.015c-1.363-1.362-2.725-2.726-4.089-4.088
										C104.942,317.042,104.27,318.811,104.247,320.738z M106.534,326.589c1.335-1.335,2.669-2.671,4.005-4.005
										c-0.156-0.187-0.286-0.396-0.387-0.619c-1.942,0-3.884,0-5.825,0C104.566,323.744,105.359,325.345,106.534,326.589z
										 M120.95,321.965c-1.942,0-3.882,0-5.825,0c-0.104,0.224-0.231,0.433-0.386,0.619c1.333,1.334,2.67,2.67,4.003,4.005
										C119.916,325.345,120.711,323.744,120.95,321.965z"/>
									<path fill="#B55E47" d="M163.095,320.837c0,6.482-5.256,11.739-11.739,11.739c-6.484,0-11.74-5.257-11.74-11.739
										c0-6.483,5.256-11.739,11.74-11.739C157.839,309.098,163.095,314.354,163.095,320.837z M157.939,315.636
										c-1.365,1.362-2.728,2.726-4.09,4.088c0.139,0.312,0.221,0.654,0.232,1.015c1.888,0,3.775,0,5.663,0
										C159.724,318.811,159.051,317.042,157.939,315.636z M157.107,314.731c-1.364-1.286-3.154-2.117-5.14-2.26
										c0,1.9,0,3.802,0,5.703c0.424,0.098,0.812,0.291,1.136,0.562C154.436,317.401,155.771,316.066,157.107,314.731z
										 M150.742,312.472c-1.985,0.143-3.775,0.974-5.139,2.26c1.334,1.335,2.668,2.67,4.003,4.005
										c0.323-0.271,0.71-0.464,1.136-0.562C150.742,316.273,150.742,314.372,150.742,312.472z M146.154,327.421
										c1.28,1.012,2.86,1.655,4.588,1.779c0-1.899,0-3.801,0-5.702c-0.174-0.041-0.34-0.097-0.499-0.168
										C148.881,324.692,147.518,326.057,146.154,327.421z M151.968,329.2c1.728-0.124,3.308-0.768,4.588-1.779
										c-1.364-1.364-2.726-2.729-4.088-4.091c-0.159,0.071-0.327,0.127-0.5,0.168C151.968,325.399,151.968,327.301,151.968,329.2
										z M142.963,320.738c1.89,0,3.777,0,5.664,0c0.014-0.36,0.095-0.702,0.233-1.015c-1.364-1.362-2.726-2.726-4.089-4.088
										C143.659,317.042,142.986,318.811,142.963,320.738z M145.251,326.589c1.333-1.335,2.669-2.671,4.005-4.005
										c-0.157-0.187-0.286-0.396-0.388-0.619c-1.942,0-3.883,0-5.825,0C143.283,323.744,144.078,325.345,145.251,326.589z
										 M159.666,321.965c-1.941,0-3.883,0-5.825,0c-0.102,0.224-0.229,0.433-0.387,0.619c1.335,1.334,2.67,2.67,4.004,4.005
										C158.631,325.345,159.426,323.744,159.666,321.965z"/>
								</g>
							</g>
						</g>
						<g>
							<g>
								<path fill="#333132" d="M180.852,255.512c0.775,0,1.529,0.089,2.255,0.252c0.364-0.908,1.252-1.55,2.291-1.55
									c1.365,0,2.471,1.105,2.471,2.469c0,0.473-0.134,0.911-0.364,1.286c2.196,1.879,3.59,4.67,3.59,7.786
									c0,5.658-4.584,10.244-10.242,10.244c-5.656,0-10.244-4.586-10.244-10.244C170.607,260.099,175.195,255.512,180.852,255.512
									z"/>
								<path fill="#333132" d="M186.649,255.585l1.436-2.383c0.382-0.636,0.437-1.263,0.153-1.764
									c-0.342-0.602-1.125-0.947-2.152-0.947h-5.234v0.434h5.234c0.865,0,1.514,0.266,1.774,0.727
									c0.204,0.361,0.151,0.832-0.146,1.327l-1.435,2.383L186.649,255.585z"/>
								<ellipse fill="#424141" cx="178.405" cy="266.299" rx="6.228" ry="6.495"/>
							</g>
						</g>
					</g>
					<g>
						<g>
							<path fill="#EDBC9A" d="M253.443,180.682c4.603-11.422,20.739-19.852,39.938-19.852c19.201,0,35.332,8.43,39.938,19.852
								H253.443z"/>
						</g>
						<g>
							<g>
								<path fill="#A07D65" d="M203.887,194.735c-2.692,0-3.848-1.938-2.568-4.306l24.265-44.893
									c1.279-2.368,3.349-2.354,4.597,0.031l20.013,44.83c1.247,2.386,0.065,4.337-2.626,4.337H203.887z"/>
								<path fill="#C6A896" d="M230.18,145.568c-1.248-2.385-3.317-2.399-4.597-0.031l-8.815,16.31
									c0.502-0.605,1.195-0.984,1.963-0.984c1.192,0,2.196,0.92,2.576,2.186v2.104c0,1.792,1.277,3.264,2.84,3.264
									s2.84-1.472,2.84-3.264v-1.843v-2.045c0-1.793,1.24-3.262,2.753-3.262s2.754,1.469,2.754,3.262v2.045h0.023v5.074
									c0,1.794,1.237,3.262,2.751,3.262c1.515,0,2.754-1.468,2.754-3.262v-5.074L230.18,145.568z"/>
							</g>
							<path fill="#EDBC9A" d="M233.538,179.052c14.188,0,26.911,5.144,35.604,13.288c3.658-1.758,7.79-2.766,12.182-2.766
								c12.456,0,22.922,7.98,25.909,18.79h-27.761h-24.061h-67.808C192.899,191.501,211.456,179.052,233.538,179.052z"/>
							<g>
								<path fill="#A07D65" d="M231.543,201.246c-3.615,0-5.167-2.602-3.448-5.778l32.572-60.26
									c1.716-3.177,4.492-3.159,6.167,0.044l26.861,60.172c1.676,3.202,0.089,5.822-3.523,5.822H231.543z"/>
								<path fill="#C6A896" d="M266.834,135.251c-1.675-3.203-4.451-3.221-6.167-0.044l-11.835,21.893
									c0.672-0.812,1.604-1.322,2.634-1.322c1.601,0,2.952,1.234,3.458,2.934v2.825c0,2.406,1.715,4.379,3.812,4.379
									c2.099,0,3.814-1.973,3.814-4.379v-2.475v-2.745c0-2.406,1.661-4.378,3.692-4.378c2.033,0,3.695,1.972,3.695,4.378v2.745
									h0.031v6.811c0,2.408,1.663,4.379,3.694,4.379c2.033,0,3.695-1.971,3.695-4.379v-6.811L266.834,135.251z"/>
							</g>
						</g>
					</g>
					<g>
						<g>
							<path fill="#F5A31E" d="M376.627,253.14c-0.594-0.593-1.262-1.263-1.971-1.97c0.238-0.262,0.475-0.511,0.705-0.744
								c1.166-1.166-0.642-2.974-1.811-1.809c-0.24,0.242-0.48,0.482-0.723,0.726c-1.965-1.966-4.018-4.019-5.578-5.58
								c0.242-0.241,0.482-0.482,0.724-0.724c1.167-1.167-0.642-2.976-1.808-1.809c-1.239,1.236-2.863,2.467-3.706,4.025
								c-1.454,2.686,0.58,4.789,2.334,6.541c1.735,1.736,3.547,3.546,6.235,2.459c0.667-0.268,1.278-0.719,1.854-1.243
								c0.693,0.694,1.351,1.353,1.935,1.937C375.985,256.115,377.793,254.307,376.627,253.14z M370.715,251.456
								c-1.568,1.566-3.052-0.406-4.112-1.467c-1.021-1.021-3.04-2.54-1.507-4.068c0.115-0.116,0.229-0.234,0.345-0.349
								c1.562,1.56,3.615,3.612,5.58,5.578C370.918,251.252,370.816,251.354,370.715,251.456z"/>
							<g>
								<path fill="#A5C4C6" d="M365.675,241.896c0,0-7.903-9.857-11.965-19.352c0,0-6.305,1.449-14.632-4.567
									c0,0,1.357,6.804,8.469,13.917c6.277,6.275,16.062,12.067,16.062,12.067L365.675,241.896z"/>
								<path fill="#D1E6E8" d="M364.608,242.878l1.027-1.028c-0.78-0.902-7.994-10.113-11.926-19.305c0,0-6.305,1.449-14.632-4.567
									C339.078,217.978,345.1,227.218,364.608,242.878z"/>
							</g>
						</g>
						<g>
							<path fill="#F5A31E" d="M339.559,254.949c0.584-0.584,1.241-1.242,1.937-1.937c0.575,0.524,1.187,0.976,1.852,1.243
								c2.688,1.087,4.502-0.723,6.238-2.459c1.755-1.752,3.788-3.855,2.333-6.541c-0.843-1.559-2.467-2.789-3.707-4.025
								c-1.164-1.167-2.975,0.642-1.807,1.809c0.24,0.241,0.482,0.482,0.724,0.724c-1.562,1.562-3.614,3.614-5.579,5.58
								c-0.241-0.243-0.482-0.483-0.723-0.726c-1.167-1.165-2.977,0.643-1.811,1.809c0.233,0.233,0.466,0.482,0.705,0.744
								c-0.707,0.707-1.377,1.377-1.969,1.97C336.584,254.307,338.393,256.115,339.559,254.949z M343.356,251.15
								c1.966-1.966,4.021-4.019,5.58-5.578c0.116,0.114,0.231,0.232,0.347,0.349c1.532,1.528-0.486,3.048-1.51,4.068
								c-1.059,1.061-2.543,3.033-4.111,1.467C343.56,251.354,343.458,251.252,343.356,251.15z"/>
							<g>
								<path fill="#A5C4C6" d="M348.704,241.896c0,0,7.902-9.857,11.965-19.352c0,0,6.306,1.449,14.632-4.567
									c0,0-1.359,6.804-8.471,13.917c-6.276,6.275-16.062,12.067-16.062,12.067L348.704,241.896z"/>
								<path fill="#D1E6E8" d="M349.77,242.878l-1.027-1.028c0.78-0.902,7.993-10.113,11.927-19.305c0,0,6.306,1.449,14.632-4.567
									C375.301,217.978,369.277,227.218,349.77,242.878z"/>
							</g>
						</g>
					</g>
					<g>
						<path fill="#EDBC9A" d="M50.416,224.319c4.604-11.421,20.738-19.851,39.938-19.851c19.2,0,35.332,8.43,39.937,19.851H50.416z"
							/>
						<g>
							<g>
								<path fill="#D67B4C" d="M112.041,152.064c0,0-22.748,23.881-21.65,63.03l7.101-0.424c0,0,0.054-35.867,17.045-61.097
									L112.041,152.064z"/>
								<g>
									<g>
										<path fill="#8EAF25" d="M110.81,151.041l-1.447,0.785l-2.415-1.635l0.709-2.396l-1.964,1.545l-2.417-1.638l1.225-3.155
											l-2.479,2.307l-2.416-1.637l1.481-3.535l-2.732,2.682l-2.416-1.637l1.479-3.533l-2.733,2.686l-2.418-1.64l1.226-3.153
											l-2.48,2.304l-2.412-1.635l0.708-2.396l-1.962,1.545l-2.416-1.637l0.194-1.636l-1.448,0.785l-2.716-1.837
											c5.275-2.497,13.6-1.176,21.01,3.845c7.41,5.025,11.724,12.269,11.36,18.091l-2.713-1.839L110.81,151.041z"/>
										<path fill="#95C11F" d="M112.729,150.218l-1.645-0.005l-1.332-2.597l1.773-1.761l-2.464,0.412l-1.333-2.595l2.589-2.181
											l-3.279,0.831l-1.332-2.597l2.997-2.388l-3.688,1.041l-1.33-2.597l2.996-2.388l-3.689,1.042l-1.33-2.597l2.59-2.178
											l-3.283,0.832l-1.329-2.598l1.771-1.761l-2.464,0.414l-1.332-2.597l0.956-1.341l-1.646-0.006l-1.494-2.917
											c5.822,0.345,12.488,5.503,16.572,13.47c4.087,7.965,4.389,16.391,1.271,21.322l-1.497-2.918L112.729,150.218z"/>
										<path fill="#BACF1D" d="M114.588,150.417l-1.504-0.677l-0.161-2.913l2.337-0.887l-2.42-0.627l-0.157-2.913l3.253-0.935
											l-3.336-0.577l-0.16-2.915l3.71-0.962l-3.79-0.55l-0.161-2.913l3.71-0.962l-3.79-0.551l-0.16-2.913l3.253-0.935
											l-3.337-0.579l-0.159-2.912l2.335-0.886l-2.415-0.628l-0.16-2.912l1.418-0.837l-1.5-0.674l-0.18-3.276
											c5.178,2.688,9.168,10.115,9.654,19.054c0.491,8.938-2.668,16.755-7.523,19.99l-0.179-3.274L114.588,150.417z"/>
										<g>
											<path fill="#94C11F" d="M117.415,155.517l-0.194,1.636l2.414,1.635l1.965-1.542l-0.71,2.394l2.415,1.638l2.477-2.307
												l-1.222,3.154l2.415,1.639l2.734-2.685l-1.479,3.534l2.415,1.64l2.732-2.685l-1.479,3.534l2.414,1.635l2.479-2.304
												l-1.224,3.153l2.415,1.637l1.96-1.545l-0.705,2.397l2.415,1.637l1.445-0.787l-0.194,1.638l2.717,1.837
												c0.363-5.822-3.949-13.066-11.359-18.088c-7.412-5.022-15.738-6.344-21.012-3.849l2.714,1.84L117.415,155.517z"/>
											<path fill="#9AC325" d="M117.465,153.425l0.616,1.529l2.905,0.275l0.98-2.3l0.528,2.442l2.904,0.273l1.063-3.211
												l0.445,3.354l2.904,0.273l1.108-3.666l0.401,3.812l2.902,0.273l1.108-3.669l0.4,3.812l2.904,0.276l1.065-3.212
												l0.443,3.354l2.903,0.273l0.98-2.298l0.53,2.44l2.902,0.275l0.895-1.386l0.617,1.529l3.262,0.308
												c-2.479-5.281-9.739-9.562-18.654-10.405c-8.911-0.842-16.848,2-20.274,6.724l3.265,0.308L117.465,153.425z"/>
											<path fill="#BACF1D" d="M116.594,151.777l1.187,1.146l2.763-0.933l-0.041-2.498l1.479,2.014l2.761-0.933l-0.332-3.367
												l1.771,2.883l2.763-0.93l-0.48-3.803l1.918,3.317l2.765-0.93l-0.48-3.803l1.917,3.318l2.763-0.932l-0.334-3.367
												l1.771,2.884l2.767-0.933l-0.043-2.498l1.477,2.016l2.769-0.934l0.248-1.629l1.186,1.146l3.106-1.048
												c-4.413-3.814-12.79-4.768-21.275-1.908c-8.482,2.858-14.573,8.686-15.779,14.394l3.105-1.048L116.594,151.777z"/>
										</g>
									</g>
									<g>
										<circle fill="#604533" cx="116.202" cy="156.65" r="3.685"/>
										<circle fill="#604533" cx="109.517" cy="150.592" r="3.686"/>
										<path fill="#705340" d="M110.82,150.41c-0.785,1.879,0.102,4.037,1.98,4.82c1.878,0.786,4.037-0.102,4.82-1.979
											c0.784-1.881-0.102-4.039-1.983-4.823C113.76,147.645,111.602,148.534,110.82,150.41z"/>
									</g>
								</g>
							</g>
							<g>
								<path fill="#D67B4C" d="M70.527,170.403c0,0,18.484,15.364,20.994,43.791l-5.177,0.291c0,0-3.068-25.955-17.494-42.781
									L70.527,170.403z"/>
								<g>
									<g>
										<path fill="#94C11F" d="M69.354,171.12l1.326,0.508l1.876-1.667l-0.876-1.967l1.849,1.098l1.876-1.669l-1.398-2.555
											l2.375,1.688l1.875-1.67l-1.66-2.849l2.635,1.981l1.876-1.67l-1.659-2.848l2.635,1.981l1.873-1.669l-1.398-2.556
											l2.375,1.687l1.877-1.667l-0.875-1.965l1.85,1.096l1.874-1.668l-0.347-1.376l1.32,0.508l2.111-1.876
											c-4.784-1.535-11.737,0.532-17.495,5.657c-5.757,5.122-8.618,11.79-7.651,16.718l2.109-1.875L69.354,171.12z"/>
										<path fill="#9AC325" d="M67.622,170.639l1.407-0.192l0.842-2.367l-1.711-1.302l2.149,0.074l0.843-2.367l-2.456-1.566
											l2.892,0.338l0.846-2.366l-2.828-1.697l3.265,0.472l0.841-2.369l-2.826-1.698l3.267,0.473l0.84-2.366l-2.453-1.568
											l2.895,0.34l0.841-2.367l-1.711-1.302l2.15,0.074l0.842-2.367l-0.969-1.038l1.406-0.19l0.948-2.657
											c-4.931,0.95-10.038,6.109-12.625,13.366c-2.585,7.257-1.89,14.484,1.327,18.337l0.947-2.657L67.622,170.639z"/>
										<path fill="#BACF1D" d="M66.063,171.015l1.206-0.747l-0.195-2.504l-2.094-0.491l1.996-0.81l-0.196-2.504l-2.88-0.431
											l2.779-0.868l-0.19-2.505l-3.276-0.401l3.175-0.9l-0.192-2.502l-3.275-0.402l3.175-0.9l-0.196-2.502l-2.879-0.434
											l2.78-0.868l-0.192-2.503l-2.094-0.494l1.993-0.807l-0.194-2.503l-1.307-0.553l1.205-0.747l-0.217-2.814
											c-4.115,2.876-6.678,9.665-6.086,17.35c0.594,7.682,4.17,13.995,8.677,16.208l-0.218-2.812L66.063,171.015z"/>
										<g>
											<path fill="#94C11F" d="M64.226,175.687l0.35,1.375l-1.876,1.668l-1.85-1.097l0.875,1.966l-1.875,1.668l-2.375-1.688
												l1.4,2.555L57,183.806l-2.639-1.984l1.664,2.849l-1.876,1.669l-2.637-1.98l1.661,2.848l-1.876,1.67l-2.372-1.688
												l1.398,2.555l-1.878,1.67l-1.847-1.099l0.873,1.966l-1.876,1.669l-1.323-0.506l0.351,1.374l-2.108,1.875
												c-0.971-4.926,1.891-11.6,7.648-16.717c5.757-5.124,12.713-7.192,17.494-5.659l-2.11,1.878L64.226,175.687z"/>
											<path fill="#9AC325" d="M63.947,173.908l-0.354,1.375l-2.446,0.562l-1.096-1.853l-0.177,2.144l-2.446,0.562l-1.275-2.621
												v2.913l-2.446,0.562l-1.358-3.003l0.088,3.296l-2.445,0.563l-1.361-3.005l0.088,3.297l-2.446,0.563l-1.273-2.623v2.914
												l-2.445,0.562l-1.095-1.853l-0.179,2.146l-2.445,0.562l-0.919-1.083l-0.354,1.377l-2.749,0.629
												c1.518-4.784,7.232-9.258,14.745-10.983c7.508-1.727,14.603-0.197,18.058,3.445l-2.748,0.633L63.947,173.908z"/>
											<path fill="#BACF1D" d="M64.504,172.401l-0.885,1.113l-2.465-0.484l-0.244-2.136l-1.033,1.888l-2.465-0.483l-0.097-2.911
												l-1.183,2.66l-2.465-0.484l-0.019-3.299l-1.265,3.049l-2.464-0.482l-0.018-3.298l-1.261,3.047l-2.467-0.482l-0.092-2.911
												l-1.186,2.66l-2.465-0.483l-0.245-2.136l-1.034,1.887l-2.467-0.483l-0.398-1.361l-0.88,1.11l-2.771-0.544
												c3.338-3.752,10.377-5.512,17.938-4.028c7.564,1.48,13.421,5.764,15.093,10.501l-2.769-0.545L64.504,172.401z"/>
										</g>
									</g>
									<g>
										<circle fill="#604533" cx="68.322" cy="175.427" r="2.685"/>
										<path fill="#604533" d="M73.729,168.052c0.953,1.138,0.802,2.83-0.338,3.783c-1.141,0.948-2.83,0.797-3.785-0.341
											c-0.949-1.14-0.799-2.836,0.344-3.783C71.088,166.759,72.784,166.912,73.729,168.052z"/>
										<circle fill="#705340" cx="68.663" cy="171.647" r="2.685"/>
									</g>
								</g>
							</g>
						</g>
						<path fill="#EDBC9A" d="M107.091,208.437c-1.985-0.174-3.806,0.728-4.922,2.21c-1.123-1.221-2.681-2.051-4.462-2.207
							c-2.421-0.214-4.653,0.855-6.041,2.641c-0.914-1.205-2.3-2.044-3.924-2.188c-1.482-0.13-2.873,0.343-3.949,1.203
							c-1.096-1.838-3.021-3.146-5.314-3.348c-3.789-0.333-7.131,2.468-7.465,6.257c-0.332,3.788,2.469,7.131,6.258,7.463
							c2.293,0.202,4.418-0.749,5.815-2.369c0.911,1.036,2.197,1.744,3.68,1.874c1.625,0.144,3.135-0.439,4.247-1.466
							c1.054,1.999,3.065,3.44,5.486,3.653c2.892,0.255,5.518-1.32,6.749-3.764c0.808,0.614,1.782,1.025,2.866,1.12
							c3.059,0.27,5.759-1.991,6.028-5.051C112.412,211.406,110.149,208.706,107.091,208.437z"/>
					</g>
				</g>
			</g>
			<g>
				<path opacity="0.5" fill="#FFFFFF" d="M271.455,255.784h-27.932c-3.18,0-5.779-2.414-5.779-5.364c0-2.951,2.6-5.365,5.779-5.365
					h2.801c3.176,0,5.777-2.414,5.777-5.363c0-2.95-2.602-5.364-5.777-5.364h-37.963c-3.178,0-5.777,2.414-5.777,5.364
					c0,2.949,2.6,5.363,5.777,5.363h9.815c3.179,0,5.778,2.414,5.778,5.365c0,2.95-2.6,5.364-5.778,5.364h-1.521
					c-3.178,0-5.777,2.414-5.777,5.364s2.6,5.364,5.777,5.364h54.799c3.178,0,5.777-2.414,5.777-5.364
					S274.633,255.784,271.455,255.784z"/>
				<path opacity="0.5" fill="#FFFFFF" d="M293.628,87.644h-37.962c-3.178,0-5.777,2.414-5.777,5.364c0,2.951,2.6,5.365,5.777,5.365
					h3.873c3.179,0,5.778,2.414,5.778,5.363c0,2.952-2.6,5.365-5.778,5.365h-16.128c-3.177,0-5.776,2.414-5.776,5.364
					c0,2.949,2.6,5.365,5.776,5.365h47.372c3.177,0,5.775-2.416,5.775-5.365c0-2.95-2.599-5.364-5.775-5.364h-5.898
					c-3.178,0-5.776-2.413-5.776-5.365c0-2.949,2.599-5.363,5.776-5.363h8.743c3.177,0,5.778-2.414,5.778-5.365
					C299.406,90.058,296.805,87.644,293.628,87.644z"/>
				<path opacity="0.5" fill="#FFFFFF" d="M68.872,255.158h-9.816c-3.179,0-5.777-2.412-5.777-5.363c0-2.95,2.599-5.364,5.777-5.364
					h1.519c3.178,0,5.779-2.414,5.779-5.364c0-2.951-2.602-5.365-5.779-5.365H5.775c-3.175,0-5.775,2.414-5.775,5.365
					c0,2.95,2.601,5.364,5.775,5.364h27.933c3.179,0,5.779,2.414,5.779,5.364c0,2.951-2.601,5.363-5.779,5.363h-2.8
					c-3.177,0-5.777,2.416-5.777,5.365s2.601,5.363,5.777,5.363h37.964c3.175,0,5.774-2.414,5.774-5.363
					S72.047,255.158,68.872,255.158z"/>
				<path opacity="0.5" fill="#FFFFFF" d="M275.623,381.493h-9.817c-3.179,0-5.775-2.413-5.775-5.363s2.597-5.364,5.775-5.364h1.52
					c3.179,0,5.78-2.414,5.78-5.365c0-2.95-2.602-5.364-5.78-5.364h-54.799c-3.174,0-5.776,2.414-5.776,5.364
					c0,2.951,2.603,5.365,5.776,5.365h27.934c3.179,0,5.778,2.414,5.778,5.364s-2.6,5.363-5.778,5.363h-2.801
					c-3.176,0-5.778,2.415-5.778,5.364s2.603,5.363,5.778,5.363h37.964c3.176,0,5.775-2.414,5.775-5.363
					S278.799,381.493,275.623,381.493z"/>
			</g>
		</g>
	</g>
</g>
</svg>
