<?xml version="1.0" encoding="utf-8"?>
<!-- Generator: Adobe Illustrator 16.0.0, SVG Export Plug-In . SVG Version: 6.00 Build 0)  -->
<!DOCTYPE svg PUBLIC "-//W3C//DTD SVG 1.1//EN" "http://www.w3.org/Graphics/SVG/1.1/DTD/svg11.dtd">
<svg version="1.1" id="Capa_1" xmlns="http://www.w3.org/2000/svg" xmlns:xlink="http://www.w3.org/1999/xlink" x="0px" y="0px"
	 width="192.654px" height="355.273px" viewBox="0 -25.241 192.654 355.273" enable-background="new 0 -25.241 192.654 355.273"
	 xml:space="preserve">
<g>
	<g>
		<path fill-rule="evenodd" clip-rule="evenodd" fill="#F2951B" d="M126.101-25.241c6.918,0,12.525,6.244,12.525,13.945v9.379
			c-3.895,8.078-4.978,16.027-11.895,16.027l-12.75,23.452c-6.918,0-1.982-2.438-1.982-10.14v-38.719
			c0-7.701,5.609-13.945,12.527-13.945H126.101z"/>
		<g>
			<path fill="#FFFFFF" d="M118.206-7.161c0-3.43,0-6.861,0-10.289c0.02-0.041,0.047-0.079,0.054-0.122
				c0.22-1.362,1.372-2.387,2.763-2.392c3.235-0.018,6.471-0.019,9.705,0c1.537,0.009,2.795,1.265,2.803,2.802
				c0.018,3.235,0.012,6.47,0,9.703c-0.002,0.703-0.254,1.322-0.732,1.853c-0.482,0.538-1.09,0.823-1.781,0.965
				c-3.43,0-6.859,0-10.289,0c-0.541-0.123-1.052-0.303-1.486-0.674C118.665-5.805,118.348-6.432,118.206-7.161z M125.872-7.174
				c1.523,0,3.043,0,4.564-0.003c0.455,0,0.562-0.106,0.562-0.558c0.004-3.041,0.004-6.084,0-9.126c0-0.469-0.104-0.573-0.582-0.573
				c-3.031-0.001-6.061-0.001-9.092,0c-0.475,0-0.58,0.104-0.58,0.575c-0.002,3.03-0.002,6.061,0,9.093
				c0,0.491,0.099,0.589,0.599,0.589C122.854-7.174,124.362-7.174,125.872-7.174z"/>
			<path fill-rule="evenodd" clip-rule="evenodd" fill="#FFFFFF" d="M125.897-14.859c1.02,0,2.041,0.001,3.062-0.003
				c0.281,0,0.512,0.068,0.658,0.327c0.156,0.276,0.088,0.512-0.084,0.753c-1.039,1.444-2.07,2.895-3.109,4.339
				c-0.324,0.453-0.788,0.445-1.117-0.011c-1.029-1.436-2.055-2.878-3.086-4.312c-0.172-0.237-0.26-0.474-0.105-0.754
				c0.148-0.273,0.391-0.345,0.684-0.342C123.831-14.856,124.864-14.859,125.897-14.859z"/>
		</g>
		<polygon fill="#2B5A67" points="192.433,277.254 51.818,284.023 27.582,330.032 180.941,326.543 182.07,321.714 		"/>
		<polygon fill="#F2951B" points="192.654,277.09 52.072,284.533 23.32,241.202 176.25,229.211 177.861,233.903 		"/>
		<polygon fill="#F2951B" points="8.039,192.67 148.685,186.551 173.133,140.656 19.76,143.434 18.607,148.258 		"/>
		<polygon fill="#2B5A67" points="7.817,192.833 148.433,186.042 176.984,229.504 24,240.789 22.411,236.089 		"/>
		<polygon fill="#2B5A67" points="184.617,91.213 44.001,97.982 19.764,143.992 173.125,140.502 174.254,135.673 		"/>
		<polygon fill="#F2951B" points="184.838,91.05 44.255,98.491 15.504,55.161 168.433,43.169 170.045,47.861 		"/>
		<polygon fill="#2B5A67" points="0,6.792 140.617,0 169.167,43.464 16.183,54.747 14.594,50.049 		"/>
		<g>
			<path fill-rule="evenodd" clip-rule="evenodd" fill="#FFFFFF" d="M113.384,13.179c-0.1-0.07-0.26-0.105-0.482-0.105h-0.445v0.913
				h0.445c0.223,0,0.375-0.04,0.479-0.113c0.111-0.075,0.156-0.19,0.156-0.351C113.536,13.368,113.491,13.255,113.384,13.179z
				 M113.384,13.179c-0.1-0.07-0.26-0.105-0.482-0.105h-0.445v0.913h0.445c0.223,0,0.375-0.04,0.479-0.113
				c0.111-0.075,0.156-0.19,0.156-0.351C113.536,13.368,113.491,13.255,113.384,13.179z M113.384,13.179
				c-0.1-0.07-0.26-0.105-0.482-0.105h-0.445v0.913h0.445c0.223,0,0.375-0.04,0.479-0.113c0.111-0.075,0.156-0.19,0.156-0.351
				C113.536,13.368,113.491,13.255,113.384,13.179z M117.364,13.341c-0.189-0.173-0.488-0.261-0.9-0.261h-0.361v2.163h0.361
				c0.414,0,0.717-0.088,0.9-0.254c0.182-0.167,0.275-0.443,0.275-0.822C117.639,13.785,117.546,13.511,117.364,13.341z
				 M113.384,13.179c-0.1-0.07-0.26-0.105-0.482-0.105h-0.445v0.913h0.445c0.223,0,0.375-0.04,0.479-0.113
				c0.111-0.075,0.156-0.19,0.156-0.351C113.536,13.368,113.491,13.255,113.384,13.179z M117.364,13.341
				c-0.189-0.173-0.488-0.261-0.9-0.261h-0.361v2.163h0.361c0.414,0,0.717-0.088,0.9-0.254c0.182-0.167,0.275-0.443,0.275-0.822
				C117.639,13.785,117.546,13.511,117.364,13.341z M130.444,8.958h-20.793c-0.92,0-1.664,0.708-1.664,1.582v25.44
				c0,0.875,0.744,1.583,1.664,1.583h9.213l-0.607-0.699H111.6c-0.914,0-1.66-0.709-1.66-1.585V18.959h20.469v16.319
				c0,0.876-0.738,1.585-1.66,1.585h-0.938l-0.557,0.699h3.189c0.92,0,1.658-0.709,1.658-1.583v-25.44
				C132.102,9.666,131.364,8.958,130.444,8.958z M114.2,14.371c-0.242,0.2-0.58,0.299-1.016,0.299h-0.729v1.232h-1.014v-3.477h1.674
				c0.473,0,0.838,0.095,1.078,0.282c0.248,0.188,0.367,0.465,0.367,0.827C114.561,13.893,114.442,14.171,114.2,14.371z
				 M118.157,15.474c-0.354,0.286-0.885,0.429-1.596,0.429h-1.473v-3.477h1.473c0.711,0,1.242,0.146,1.596,0.433
				c0.355,0.292,0.529,0.726,0.529,1.308C118.686,14.748,118.512,15.182,118.157,15.474z M121.844,13.089h-1.553v0.809h1.439v0.656
				h-1.439v1.349h-1.012v-3.477h2.564V13.089z M116.464,13.08h-0.361v2.163h0.361c0.414,0,0.717-0.088,0.9-0.254
				c0.182-0.167,0.275-0.443,0.275-0.822c0-0.382-0.094-0.656-0.275-0.826C117.175,13.168,116.876,13.08,116.464,13.08z
				 M113.384,13.179c-0.1-0.07-0.26-0.105-0.482-0.105h-0.445v0.913h0.445c0.223,0,0.375-0.04,0.479-0.113
				c0.111-0.075,0.156-0.19,0.156-0.351C113.536,13.368,113.491,13.255,113.384,13.179z M117.364,13.341
				c-0.189-0.173-0.488-0.261-0.9-0.261h-0.361v2.163h0.361c0.414,0,0.717-0.088,0.9-0.254c0.182-0.167,0.275-0.443,0.275-0.822
				C117.639,13.785,117.546,13.511,117.364,13.341z M113.384,13.179c-0.1-0.07-0.26-0.105-0.482-0.105h-0.445v0.913h0.445
				c0.223,0,0.375-0.04,0.479-0.113c0.111-0.075,0.156-0.19,0.156-0.351C113.536,13.368,113.491,13.255,113.384,13.179z
				 M117.364,13.341c-0.189-0.173-0.488-0.261-0.9-0.261h-0.361v2.163h0.361c0.414,0,0.717-0.088,0.9-0.254
				c0.182-0.167,0.275-0.443,0.275-0.822C117.639,13.785,117.546,13.511,117.364,13.341z M113.384,13.179
				c-0.1-0.07-0.26-0.105-0.482-0.105h-0.445v0.913h0.445c0.223,0,0.375-0.04,0.479-0.113c0.111-0.075,0.156-0.19,0.156-0.351
				C113.536,13.368,113.491,13.255,113.384,13.179z"/>
			<polygon fill-rule="evenodd" clip-rule="evenodd" fill="#FFFFFF" points="118.026,35.048 123.134,40.958 127.87,35.048 
				125.526,35.048 125.522,33.608 120.596,33.608 120.614,35.048 			"/>
			<path fill-rule="evenodd" clip-rule="evenodd" fill="#FFFFFF" d="M125.509,32.162c0,0.209-0.18,0.384-0.402,0.384h-3.984
				c-0.225,0-0.408-0.175-0.408-0.384l0,0c0-0.215,0.184-0.386,0.408-0.386h3.984C125.329,31.776,125.509,31.947,125.509,32.162
				L125.509,32.162z"/>
			<path fill-rule="evenodd" clip-rule="evenodd" fill="#FFFFFF" d="M125.509,30.605c0,0.235-0.197,0.428-0.447,0.428h-3.902
				c-0.244,0-0.445-0.193-0.445-0.428l0,0c0-0.235,0.201-0.424,0.445-0.424h3.902C125.311,30.182,125.509,30.37,125.509,30.605
				L125.509,30.605z"/>
		</g>
		<g>
			<path fill="#FFFFFF" d="M26.887,21.766h-2.98v-9.401h2.637c0.924,0,1.621,0.065,2.084,0.193c0.457,0.123,0.879,0.33,1.244,0.619
				c0.527,0.416,0.928,0.971,1.213,1.659c0.281,0.688,0.42,1.477,0.42,2.361c0,0.712-0.1,1.377-0.301,1.974
				c-0.205,0.595-0.486,1.096-0.855,1.49c-0.391,0.398-0.832,0.679-1.348,0.848C28.497,21.682,27.788,21.766,26.887,21.766z
				 M27.171,20.646c1.006,0,1.76-0.287,2.264-0.862c0.504-0.571,0.752-1.435,0.752-2.586c0-1.216-0.279-2.157-0.834-2.815
				c-0.561-0.654-1.363-0.982-2.402-0.982h-1.781v7.246H27.171z"/>
			<path fill="#FFFFFF" d="M38.596,19.662c0,0.683-0.248,1.229-0.73,1.644c-0.479,0.416-1.121,0.624-1.91,0.624
				c-1.02,0-1.795-0.283-2.322-0.846c-0.525-0.56-0.789-1.378-0.789-2.461c0-1.155,0.258-2.035,0.775-2.649
				c0.52-0.612,1.27-0.917,2.236-0.917c0.889,0,1.588,0.255,2.098,0.759c0.512,0.509,0.77,1.203,0.77,2.078
				c0,0.21-0.004,0.374-0.014,0.484c0,0.109-0.012,0.209-0.018,0.311H34.05v0.13v0.262c0,0.617,0.158,1.098,0.479,1.435
				c0.318,0.339,0.766,0.505,1.346,0.505c0.482,0,0.865-0.117,1.146-0.364c0.285-0.247,0.43-0.573,0.436-0.995H38.596z M34.11,17.84
				h3.381v-0.145c0-0.546-0.146-0.981-0.449-1.317c-0.301-0.332-0.689-0.501-1.168-0.501c-0.518,0-0.941,0.182-1.268,0.543
				C34.278,16.781,34.11,17.258,34.11,17.84z"/>
			<path fill="#FFFFFF" d="M39.919,19.796h1.209v0.027c0,0.357,0.129,0.644,0.383,0.861c0.25,0.219,0.586,0.322,1.008,0.322
				c0.406,0,0.736-0.092,0.992-0.288c0.248-0.19,0.377-0.437,0.377-0.738c0-0.23-0.062-0.415-0.193-0.555
				c-0.129-0.142-0.328-0.24-0.596-0.309l-1.391-0.327c-0.588-0.135-1.025-0.347-1.311-0.628c-0.285-0.286-0.428-0.646-0.428-1.078
				c0-0.602,0.24-1.085,0.727-1.458c0.49-0.366,1.129-0.557,1.928-0.557c0.732,0,1.312,0.156,1.73,0.461
				c0.432,0.31,0.641,0.729,0.641,1.263c0,0.052,0,0.093,0,0.121c0,0.025-0.012,0.055-0.012,0.075h-1.207v-0.056
				c0-0.31-0.104-0.565-0.334-0.741c-0.219-0.183-0.523-0.278-0.91-0.278c-0.383,0-0.689,0.095-0.938,0.278
				c-0.246,0.176-0.369,0.404-0.369,0.678c0,0.216,0.072,0.386,0.221,0.514c0.148,0.129,0.396,0.241,0.738,0.335l1.494,0.406
				c0.512,0.136,0.893,0.354,1.143,0.645c0.248,0.282,0.365,0.654,0.365,1.119c0,0.619-0.232,1.112-0.705,1.481
				c-0.473,0.371-1.107,0.559-1.912,0.559c-0.914,0-1.584-0.164-2.01-0.482c-0.428-0.319-0.641-0.818-0.641-1.497V19.796z"/>
			<path fill="#FFFFFF" d="M51.887,19.564c-0.055,0.766-0.297,1.347-0.73,1.754c-0.441,0.405-1.053,0.612-1.828,0.612
				c-0.928,0-1.646-0.288-2.154-0.86c-0.504-0.571-0.76-1.383-0.76-2.443c0-1.119,0.268-1.996,0.797-2.628
				c0.529-0.629,1.262-0.942,2.211-0.942c0.73,0,1.316,0.204,1.752,0.598c0.441,0.397,0.658,0.93,0.658,1.595v0.024h-1.176
				c0-0.387-0.127-0.717-0.377-0.976c-0.258-0.265-0.574-0.393-0.951-0.393c-0.508,0-0.918,0.22-1.213,0.652
				c-0.299,0.437-0.443,1.033-0.443,1.787c0,0.881,0.137,1.546,0.408,1.993c0.281,0.448,0.688,0.67,1.223,0.67
				c0.422,0,0.758-0.129,1.01-0.388c0.262-0.262,0.391-0.616,0.402-1.054H51.887z"/>
			<path fill="#FFFFFF" d="M58.571,21.766h-1.082c-0.045-0.135-0.09-0.463-0.129-0.994v-0.038c-0.164,0.387-0.426,0.683-0.789,0.887
				c-0.357,0.203-0.795,0.308-1.312,0.308c-0.668,0-1.193-0.179-1.594-0.544c-0.398-0.363-0.602-0.838-0.602-1.436
				c0-0.695,0.277-1.238,0.83-1.648c0.553-0.408,1.307-0.607,2.264-0.607h1.133v-0.797c0-0.348-0.1-0.618-0.324-0.798
				c-0.217-0.184-0.539-0.273-0.967-0.273c-0.4,0-0.721,0.102-0.955,0.299c-0.24,0.198-0.357,0.471-0.373,0.824h-1.16v-0.104
				c0-0.574,0.207-1.019,0.619-1.328c0.416-0.31,1.012-0.462,1.791-0.462c0.902,0,1.561,0.163,1.971,0.479
				c0.406,0.325,0.617,0.843,0.617,1.561v4.046c0,0.056,0.006,0.136,0.012,0.254C58.538,21.507,58.548,21.631,58.571,21.766z
				 M57.29,18.517h-1.01c-0.629,0-1.111,0.12-1.457,0.349c-0.344,0.23-0.514,0.554-0.514,0.97c0,0.318,0.115,0.586,0.348,0.793
				c0.23,0.212,0.529,0.316,0.887,0.316c0.562,0,0.994-0.152,1.303-0.454c0.301-0.301,0.443-0.744,0.443-1.324V18.517z"/>
			<path fill="#FFFFFF" d="M60.45,21.766v-5.521c0-0.212-0.002-0.401-0.008-0.559c-0.008-0.154-0.018-0.312-0.035-0.466h1.217
				l0.023,1.25c0.121-0.41,0.332-0.727,0.643-0.938c0.307-0.213,0.709-0.312,1.201-0.312c0.086,0,0.174,0.002,0.258,0.009
				c0.082,0.004,0.164,0.017,0.238,0.033v1.133c-0.129-0.027-0.25-0.049-0.363-0.064c-0.107-0.01-0.209-0.017-0.293-0.017
				c-0.537,0-0.953,0.15-1.248,0.458c-0.285,0.306-0.436,0.744-0.436,1.313v3.682H60.45z"/>
			<path fill="#FFFFFF" d="M69.741,20.524c-0.127,0.26-0.379,0.48-0.756,0.67c-0.379,0.182-0.777,0.277-1.186,0.277
				c-0.926,0-1.631-0.274-2.121-0.826c-0.498-0.55-0.74-1.34-0.74-2.378c0-0.974,0.248-1.754,0.758-2.33
				c0.502-0.579,1.182-0.868,2.037-0.868c0.508,0,0.938,0.078,1.285,0.242c0.346,0.157,0.619,0.396,0.811,0.714l0.047-0.807h1.137
				c-0.018,0.183-0.033,0.367-0.039,0.546c-0.01,0.177-0.014,0.385-0.014,0.613v5.178c0,0.977-0.242,1.693-0.73,2.134
				c-0.488,0.452-1.26,0.678-2.316,0.678c-0.918,0-1.586-0.18-2.008-0.525c-0.418-0.352-0.633-0.907-0.639-1.668h1.305
				c0.004,0.437,0.131,0.767,0.379,0.994c0.246,0.23,0.613,0.347,1.088,0.347c0.578,0,1.008-0.145,1.285-0.43
				c0.281-0.286,0.418-0.729,0.418-1.331V20.524z M69.887,18.204c0-0.703-0.168-1.27-0.504-1.684
				c-0.338-0.42-0.791-0.632-1.346-0.632c-0.564,0-1.006,0.23-1.336,0.677c-0.334,0.454-0.498,1.066-0.498,1.84
				c0,0.705,0.174,1.266,0.51,1.683c0.328,0.412,0.775,0.624,1.346,0.624c0.553,0,0.994-0.226,1.33-0.674
				C69.723,19.585,69.887,18.979,69.887,18.204z"/>
			<path fill="#FFFFFF" d="M78.065,21.766h-1.082c-0.039-0.135-0.082-0.463-0.129-0.994v-0.038
				c-0.166,0.387-0.426,0.683-0.787,0.887c-0.357,0.203-0.797,0.308-1.314,0.308c-0.664,0-1.195-0.179-1.592-0.544
				c-0.402-0.363-0.604-0.838-0.604-1.436c0-0.695,0.283-1.238,0.83-1.648c0.553-0.408,1.303-0.607,2.266-0.607h1.139v-0.797
				c0-0.348-0.113-0.618-0.33-0.798c-0.221-0.184-0.537-0.273-0.963-0.273c-0.404,0-0.729,0.102-0.967,0.299
				c-0.234,0.198-0.355,0.471-0.369,0.824H73.01v-0.104c0-0.574,0.203-1.019,0.617-1.328c0.414-0.31,1.012-0.462,1.785-0.462
				c0.902,0,1.562,0.163,1.977,0.479c0.41,0.325,0.613,0.843,0.613,1.561v4.046c0,0.056,0.008,0.136,0.014,0.254
				C78.026,21.507,78.044,21.631,78.065,21.766z M76.792,18.517H75.77c-0.623,0-1.113,0.12-1.449,0.349
				c-0.348,0.23-0.52,0.554-0.52,0.97c0,0.318,0.117,0.586,0.354,0.793c0.234,0.212,0.527,0.316,0.883,0.316
				c0.566,0,1-0.152,1.299-0.454c0.305-0.301,0.455-0.744,0.455-1.324V18.517z"/>
			<path fill="#FFFFFF" d="M79.95,21.766v-5.521c0-0.212-0.006-0.401-0.016-0.559c-0.006-0.154-0.014-0.312-0.027-0.466h1.213
				l0.02,1.25c0.123-0.41,0.336-0.727,0.643-0.938c0.311-0.213,0.713-0.312,1.203-0.312c0.09,0,0.172,0.002,0.256,0.009
				c0.084,0.004,0.16,0.017,0.24,0.033v1.133c-0.135-0.027-0.254-0.049-0.365-0.064c-0.105-0.01-0.205-0.017-0.291-0.017
				c-0.539,0-0.955,0.15-1.246,0.458c-0.291,0.306-0.439,0.744-0.439,1.313v3.682H79.95z"/>
			<path fill="#FFFFFF" d="M42.348,33.551v-8.876h3.094c0.971,0,1.695,0.204,2.174,0.605c0.477,0.413,0.715,1.021,0.715,1.837
				c0,0.873-0.279,1.516-0.832,1.929c-0.562,0.406-1.439,0.613-2.639,0.613h-1.328v3.892H42.348z M45.245,28.562
				c0.656,0,1.125-0.112,1.41-0.332c0.281-0.226,0.422-0.586,0.422-1.084c0-0.518-0.137-0.89-0.42-1.112
				c-0.281-0.219-0.75-0.334-1.412-0.334h-1.713v2.862H45.245z"/>
			<path fill="#FFFFFF" d="M52.589,33.551h-2.811v-8.876h2.488c0.869,0,1.523,0.062,1.963,0.183
				c0.434,0.114,0.828,0.311,1.174,0.583c0.5,0.395,0.879,0.917,1.143,1.567c0.27,0.648,0.4,1.393,0.4,2.227
				c0,0.673-0.096,1.298-0.289,1.862c-0.186,0.566-0.455,1.033-0.805,1.403c-0.363,0.375-0.785,0.647-1.268,0.805
				C54.108,33.469,53.438,33.551,52.589,33.551z M52.856,32.487c0.949,0,1.662-0.269,2.133-0.809
				c0.479-0.541,0.711-1.353,0.711-2.443c0-1.15-0.262-2.036-0.785-2.656c-0.531-0.617-1.287-0.927-2.268-0.927h-1.684v6.835H52.856
				z"/>
			<path fill="#FFFFFF" d="M58.616,33.551v-8.876h5.162v1.069h-3.977v2.718h3.766v1.056h-3.766v4.033H58.616z"/>
		</g>
		<g>
			<path fill="#FFFFFF" d="M52.81,120.58v-8.848h3.318c0.678,0,1.219,0.089,1.627,0.268c0.408,0.181,0.729,0.457,0.959,0.827
				c0.23,0.374,0.348,0.763,0.348,1.169c0,0.377-0.105,0.734-0.307,1.068c-0.207,0.333-0.518,0.604-0.93,0.807
				c0.535,0.158,0.945,0.426,1.232,0.806c0.287,0.376,0.434,0.822,0.434,1.337c0,0.416-0.09,0.801-0.266,1.156
				c-0.172,0.356-0.391,0.631-0.648,0.824c-0.256,0.194-0.578,0.338-0.967,0.438c-0.387,0.098-0.865,0.147-1.428,0.147H52.81z
				 M53.98,115.449h1.914c0.52,0,0.891-0.033,1.117-0.102c0.297-0.087,0.52-0.236,0.674-0.44c0.15-0.206,0.223-0.463,0.223-0.771
				c0-0.293-0.068-0.553-0.209-0.776c-0.141-0.223-0.344-0.377-0.605-0.459c-0.262-0.083-0.709-0.123-1.344-0.123h-1.77V115.449z
				 M53.98,119.535h2.203c0.379,0,0.645-0.015,0.797-0.041c0.268-0.049,0.494-0.129,0.676-0.242s0.328-0.277,0.445-0.491
				c0.117-0.217,0.178-0.464,0.178-0.747c0-0.328-0.086-0.615-0.254-0.86c-0.17-0.241-0.406-0.412-0.705-0.512
				c-0.301-0.098-0.732-0.146-1.293-0.146H53.98V119.535z"/>
			<path fill="#FFFFFF" d="M60.97,112.981v-1.249h1.088v1.249H60.97z M60.97,120.58v-6.412h1.088v6.412H60.97z"/>
			<path fill="#FFFFFF" d="M64.711,120.58h-1.01v-8.848h1.088v3.156c0.457-0.574,1.045-0.863,1.756-0.863
				c0.395,0,0.77,0.08,1.123,0.238c0.35,0.159,0.639,0.385,0.867,0.67c0.225,0.289,0.404,0.633,0.531,1.042
				c0.129,0.405,0.193,0.842,0.193,1.306c0,1.095-0.273,1.944-0.812,2.544c-0.545,0.601-1.197,0.899-1.957,0.899
				c-0.756,0-1.352-0.316-1.779-0.947V120.58z M64.699,117.326c0,0.77,0.105,1.324,0.314,1.666c0.342,0.561,0.803,0.838,1.387,0.838
				c0.475,0,0.885-0.205,1.23-0.617c0.346-0.414,0.52-1.027,0.52-1.846c0-0.834-0.166-1.453-0.498-1.851
				c-0.33-0.399-0.732-0.597-1.203-0.597c-0.477,0-0.887,0.206-1.232,0.618C64.873,115.949,64.699,116.544,64.699,117.326z"/>
			<path fill="#FFFFFF" d="M70.558,120.58v-8.848h1.084v8.848H70.558z"/>
			<path fill="#FFFFFF" d="M73.336,112.981v-1.249h1.084v1.249H73.336z M73.336,120.58v-6.412h1.084v6.412H73.336z"/>
			<path fill="#FFFFFF" d="M75.672,117.375c0-1.188,0.328-2.066,0.986-2.638c0.551-0.475,1.223-0.713,2.016-0.713
				c0.885,0,1.602,0.289,2.16,0.868c0.559,0.575,0.84,1.374,0.84,2.393c0,0.824-0.123,1.472-0.371,1.944s-0.605,0.84-1.08,1.102
				c-0.475,0.261-0.988,0.393-1.549,0.393c-0.896,0-1.623-0.288-2.176-0.865C75.945,119.285,75.672,118.457,75.672,117.375z
				 M76.785,117.375c0,0.819,0.18,1.434,0.537,1.843c0.359,0.409,0.809,0.611,1.352,0.611c0.539,0,0.99-0.205,1.348-0.615
				c0.355-0.41,0.535-1.035,0.535-1.879c0-0.791-0.182-1.389-0.539-1.798c-0.361-0.407-0.807-0.614-1.344-0.614
				c-0.543,0-0.992,0.204-1.352,0.609C76.965,115.941,76.785,116.554,76.785,117.375z"/>
			<path fill="#FFFFFF" d="M82.748,121.111l1.055,0.158c0.045,0.322,0.166,0.562,0.369,0.711c0.27,0.201,0.637,0.301,1.105,0.301
				c0.498,0,0.889-0.1,1.162-0.301c0.273-0.203,0.459-0.482,0.557-0.844c0.057-0.225,0.082-0.688,0.078-1.396
				c-0.475,0.558-1.068,0.839-1.773,0.839c-0.881,0-1.564-0.319-2.047-0.955c-0.482-0.633-0.723-1.396-0.723-2.289
				c0-0.609,0.109-1.17,0.33-1.689c0.223-0.516,0.545-0.916,0.963-1.197c0.42-0.281,0.918-0.424,1.482-0.424
				c0.756,0,1.379,0.306,1.867,0.917v-0.774h1.004v5.544c0,0.995-0.1,1.704-0.305,2.12c-0.201,0.418-0.521,0.744-0.963,0.985
				c-0.441,0.244-0.984,0.363-1.629,0.363c-0.764,0-1.383-0.173-1.852-0.517C82.959,122.319,82.732,121.804,82.748,121.111z
				 M83.648,117.261c0,0.84,0.162,1.453,0.498,1.84c0.334,0.385,0.752,0.578,1.256,0.578c0.498,0,0.92-0.191,1.256-0.575
				c0.338-0.386,0.506-0.987,0.506-1.81c0-0.781-0.172-1.373-0.521-1.773c-0.35-0.396-0.768-0.598-1.256-0.598
				c-0.486,0-0.895,0.198-1.234,0.59C83.814,115.903,83.648,116.488,83.648,117.261z"/>
			<path fill="#FFFFFF" d="M89.808,120.58v-6.412h0.979v0.975c0.248-0.455,0.479-0.756,0.689-0.899
				c0.213-0.146,0.445-0.218,0.697-0.218c0.367,0,0.738,0.117,1.115,0.351l-0.373,1.007c-0.264-0.156-0.529-0.234-0.795-0.234
				c-0.236,0-0.453,0.07-0.639,0.215c-0.193,0.143-0.326,0.342-0.406,0.595c-0.123,0.385-0.182,0.808-0.182,1.265v3.357H89.808z"/>
			<path fill="#FFFFFF" d="M98.119,119.789c-0.404,0.342-0.789,0.582-1.164,0.725c-0.371,0.141-0.771,0.211-1.197,0.211
				c-0.703,0-1.246-0.172-1.623-0.517c-0.377-0.343-0.568-0.784-0.568-1.316c0-0.315,0.074-0.603,0.215-0.862
				c0.143-0.26,0.33-0.465,0.562-0.625c0.232-0.154,0.49-0.273,0.781-0.354c0.211-0.059,0.535-0.111,0.963-0.166
				c0.881-0.104,1.527-0.229,1.939-0.371c0.006-0.148,0.006-0.244,0.006-0.285c0-0.442-0.102-0.754-0.305-0.934
				c-0.281-0.248-0.693-0.371-1.24-0.371c-0.514,0-0.891,0.092-1.131,0.27c-0.24,0.181-0.422,0.498-0.541,0.951L93.756,116
				c0.096-0.455,0.256-0.822,0.477-1.103c0.221-0.278,0.541-0.495,0.959-0.646c0.42-0.148,0.904-0.227,1.455-0.227
				c0.545,0,0.99,0.066,1.334,0.194c0.34,0.129,0.592,0.288,0.754,0.485c0.16,0.193,0.273,0.441,0.338,0.738
				c0.039,0.185,0.053,0.518,0.053,1.002v1.448c0,1.01,0.025,1.648,0.07,1.917c0.045,0.268,0.137,0.521,0.273,0.77h-1.135
				C98.222,120.355,98.148,120.091,98.119,119.789z M98.027,117.365c-0.395,0.158-0.986,0.294-1.773,0.408
				c-0.447,0.064-0.764,0.138-0.949,0.219c-0.184,0.08-0.326,0.196-0.428,0.351c-0.1,0.155-0.148,0.328-0.148,0.517
				c0,0.29,0.107,0.531,0.328,0.724c0.219,0.194,0.539,0.291,0.963,0.291c0.418,0,0.789-0.091,1.113-0.274
				c0.324-0.185,0.568-0.434,0.721-0.752c0.117-0.246,0.174-0.606,0.174-1.086V117.365z"/>
			<path fill="#FFFFFF" d="M101.07,120.58v-5.564h-0.963v-0.848h0.963v-0.679c0-0.43,0.037-0.751,0.113-0.959
				c0.105-0.28,0.287-0.513,0.553-0.685c0.264-0.176,0.631-0.263,1.105-0.263c0.307,0,0.645,0.034,1.014,0.106l-0.162,0.947
				c-0.227-0.039-0.439-0.061-0.639-0.061c-0.33,0-0.564,0.072-0.703,0.213c-0.135,0.141-0.203,0.404-0.203,0.793v0.586h1.248v0.848
				h-1.248v5.564H101.07z"/>
			<path fill="#FFFFFF" d="M104.568,113.375l0.805-1.691h1.422l-1.326,1.691H104.568z M104.623,120.58v-6.412h1.086v6.412H104.623z"
				/>
			<path fill="#FFFFFF" d="M111.857,119.789c-0.402,0.342-0.789,0.582-1.162,0.725c-0.373,0.141-0.77,0.211-1.197,0.211
				c-0.703,0-1.242-0.172-1.623-0.517c-0.377-0.343-0.566-0.784-0.566-1.316c0-0.315,0.072-0.603,0.215-0.862
				s0.332-0.465,0.561-0.625c0.23-0.154,0.49-0.273,0.783-0.354c0.209-0.059,0.535-0.111,0.961-0.166
				c0.877-0.104,1.523-0.229,1.939-0.371c0.006-0.148,0.01-0.244,0.01-0.285c0-0.442-0.104-0.754-0.311-0.934
				c-0.281-0.248-0.689-0.371-1.24-0.371c-0.512,0-0.885,0.092-1.127,0.27c-0.246,0.181-0.426,0.498-0.543,0.951L107.496,116
				c0.096-0.455,0.256-0.822,0.477-1.103c0.221-0.278,0.543-0.495,0.961-0.646c0.416-0.148,0.9-0.227,1.453-0.227
				c0.543,0,0.99,0.066,1.332,0.194c0.342,0.129,0.596,0.288,0.754,0.485c0.162,0.193,0.275,0.441,0.34,0.738
				c0.033,0.185,0.053,0.518,0.053,1.002v1.448c0,1.01,0.025,1.648,0.07,1.917c0.045,0.268,0.139,0.521,0.273,0.77h-1.131
				C111.963,120.355,111.89,120.091,111.857,119.789z M111.767,117.365c-0.396,0.158-0.984,0.294-1.773,0.408
				c-0.447,0.064-0.762,0.138-0.947,0.219c-0.186,0.08-0.33,0.196-0.43,0.351c-0.102,0.155-0.152,0.328-0.152,0.517
				c0,0.29,0.109,0.531,0.33,0.724c0.219,0.194,0.541,0.291,0.965,0.291c0.416,0,0.789-0.091,1.115-0.274
				c0.324-0.185,0.562-0.434,0.719-0.752c0.115-0.246,0.174-0.606,0.174-1.086V117.365z"/>
		</g>
		<g>
			<path fill-rule="evenodd" clip-rule="evenodd" fill="#FFFFFF" d="M165.562,122.498c0,0.85,0,1.582,0,2.411
				c-0.334,0.017-0.65,0.046-0.967,0.046c-8.627,0.002-17.254,0.084-25.879-0.041c-3.221-0.047-3.459,2.023-2.912,4.18
				c0.148,0.588,0.906,1.217,1.523,1.441c0.869,0.316,1.869,0.366,2.812,0.369c8.059,0.025,16.119,0.014,24.178,0.014
				c0.385,0,0.77,0,1.223,0c0,0.824,0,1.578,0,2.413c-0.354,0.017-0.674,0.044-0.992,0.044c-8.207,0.002-16.416,0.023-24.625-0.023
				c-1.23-0.007-2.504-0.203-3.684-0.56c-1.906-0.573-2.914-2.026-3.053-3.989c-0.066-0.968-0.023-1.978,0.18-2.923
				c0.455-2.111,1.977-3.302,4.152-3.37c1.252-0.039,2.506-0.012,3.76-0.012c7.73,0,15.461,0,23.191,0
				C164.818,122.498,165.166,122.498,165.562,122.498z"/>
			<path fill-rule="evenodd" clip-rule="evenodd" fill="#FFFFFF" d="M135.906,120.908c0-0.785,0-1.434,0-2.224
				c0.406,0,0.779,0,1.152,0c7.463,0,14.924,0,22.387,0c0.178,0,0.357,0,0.537,0c2.355-0.005,3.287-1.225,2.697-3.524
				c-0.203-0.794-0.697-1.347-1.482-1.515c-0.75-0.161-1.531-0.249-2.299-0.252c-7.283-0.018-14.566-0.01-21.848-0.01
				c-0.354,0-0.705,0-1.119,0c0-0.751,0-1.423,0-2.183c0.312-0.016,0.629-0.044,0.945-0.044c7.521-0.001,15.043-0.015,22.564,0.023
				c0.938,0.005,1.904,0.189,2.799,0.476c1.367,0.434,2.379,1.412,2.537,2.853c0.139,1.27,0.115,2.63-0.193,3.86
				c-0.439,1.759-1.928,2.396-3.623,2.527c-0.682,0.053-1.371,0.012-2.057,0.012c-7.283,0-14.566,0-21.85,0
				C136.703,120.908,136.349,120.908,135.906,120.908z"/>
			<path fill-rule="evenodd" clip-rule="evenodd" fill="#FFFFFF" d="M160.299,101.47c0,0.578,0,1.137,0,1.807
				c-0.357,0-0.676,0-0.994-0.001c-6.475-0.015-12.951-0.03-19.426-0.044c-1.449-0.004-1.984,0.473-2.102,1.851
				c-0.129,1.485,0.434,2.309,1.771,2.528c0.469,0.076,0.953,0.068,1.43,0.068c6.088,0.004,12.176,0.004,18.264,0.004
				c0.322,0,0.646,0,1.033,0c0,0.652,0,1.232,0,1.938c-0.324,0-0.641,0-0.957,0c-6.088,0-12.176,0.015-18.264-0.016
				c-0.883-0.004-1.793-0.124-2.643-0.364c-1.332-0.376-2.264-1.284-2.404-2.7c-0.094-0.957-0.066-1.975,0.162-2.902
				c0.344-1.402,1.529-2.238,3.094-2.244c6.924-0.025,13.848-0.006,20.771-0.001C160.09,101.393,160.146,101.423,160.299,101.47z"/>
			<path fill-rule="evenodd" clip-rule="evenodd" fill="#FFFFFF" d="M164.187,129.382c-0.205,0.271-0.289,0.487-0.441,0.557
				c-0.176,0.081-0.41,0.036-0.619,0.036c-7.996,0.001-15.994,0.005-23.99-0.013c-0.35,0.001-0.967,0.271-0.916-0.58
				C146.826,129.382,155.404,129.382,164.187,129.382z"/>
			<path fill-rule="evenodd" clip-rule="evenodd" fill="#FFFFFF" d="M160.527,115.953c-0.168,0.156-0.324,0.334-0.514,0.462
				c-0.082,0.057-0.23,0.014-0.352,0.014c-7.191,0.001-14.385,0.003-21.578-0.005c-0.369-0.001-0.922,0.169-0.791-0.639
				c7.676,0,15.354,0,23.031,0C160.392,115.839,160.461,115.896,160.527,115.953z"/>
			<path fill-rule="evenodd" clip-rule="evenodd" fill="#FFFFFF" d="M148.881,114.816c-3.551,0-7.102,0-10.65,0
				c-0.238,0-0.484,0.016-0.713-0.035c-0.102-0.025-0.234-0.197-0.234-0.304c-0.002-0.106,0.129-0.284,0.23-0.307
				c0.227-0.054,0.473-0.038,0.711-0.038c7.1-0.002,14.199-0.002,21.301,0c0.207,0,0.432-0.033,0.619,0.029
				c0.123,0.041,0.24,0.221,0.27,0.357c0.014,0.073-0.154,0.246-0.26,0.268c-0.23,0.047-0.475,0.029-0.713,0.029
				C155.92,114.817,152.4,114.816,148.881,114.816z"/>
			<path fill-rule="evenodd" clip-rule="evenodd" fill="#FFFFFF" d="M160.386,117.845c-7.707,0-15.391,0-23.311,0
				c0.246-0.29,0.344-0.496,0.5-0.563c0.178-0.077,0.41-0.035,0.617-0.035c7.129,0,14.256-0.003,21.385,0.01
				C159.933,117.255,160.568,117.017,160.386,117.845z"/>
			<path fill-rule="evenodd" clip-rule="evenodd" fill="#FFFFFF" d="M164.197,127.587c-0.213,0.277-0.303,0.479-0.455,0.563
				c-0.141,0.077-0.35,0.032-0.529,0.032c-8.057,0-16.115,0.004-24.172-0.01c-0.34,0-0.934,0.232-0.793-0.586
				C146.826,127.587,155.408,127.587,164.197,127.587z"/>
			<path fill-rule="evenodd" clip-rule="evenodd" fill="#FFFFFF" d="M139.467,107.095c0.303-0.328,0.439-0.514,0.613-0.65
				c0.076-0.059,0.232-0.016,0.352-0.016c5.996,0,11.992-0.001,17.988,0.002c0.406,0,0.916-0.098,0.709,0.664
				C152.677,107.095,146.219,107.095,139.467,107.095z"/>
			<path fill-rule="evenodd" clip-rule="evenodd" fill="#FFFFFF" d="M151.205,125.852c3.939,0,7.879,0,11.818,0
				c0.209,0,0.434-0.043,0.623,0.019c0.152,0.051,0.26,0.23,0.389,0.354c-0.121,0.096-0.229,0.236-0.365,0.277
				c-0.164,0.05-0.355,0.018-0.533,0.018c-8,0-15.998,0-23.998-0.002c-0.209,0-0.43,0.034-0.621-0.025
				c-0.123-0.038-0.248-0.206-0.281-0.34c-0.018-0.068,0.15-0.248,0.258-0.27c0.23-0.047,0.475-0.03,0.713-0.03
				C143.207,125.852,147.205,125.852,151.205,125.852z"/>
			<path fill-rule="evenodd" clip-rule="evenodd" fill="#FFFFFF" d="M149.4,105.785c-2.951,0-5.9,0.011-8.852-0.016
				c-0.289-0.002-0.574-0.223-0.863-0.342c0.271-0.104,0.539-0.295,0.809-0.296c5.961-0.018,11.92-0.014,17.881-0.014
				c0.117,0,0.252-0.032,0.354,0.011c0.162,0.07,0.301,0.19,0.449,0.29c-0.16,0.122-0.316,0.339-0.482,0.347
				c-0.803,0.038-1.607,0.02-2.412,0.02C153.988,105.786,151.693,105.786,149.4,105.785z"/>
			<path fill-rule="evenodd" clip-rule="evenodd" fill="#FFFFFF" d="M149.406,103.865c3.008,0,6.02-0.01,9.027,0.015
				c0.248,0.001,0.496,0.225,0.742,0.345c-0.238,0.102-0.479,0.293-0.719,0.293c-6.02,0.017-12.039,0.017-18.057-0.001
				c-0.238-0.001-0.477-0.206-0.713-0.315c0.229-0.111,0.459-0.32,0.689-0.321C143.386,103.859,146.396,103.866,149.406,103.865z"/>
		</g>
		<g>
			<g>
				<path fill="#FFFFFF" d="M38.459,212.421c-0.02,0.804-0.334,1.437-0.924,1.908c-0.605,0.469-1.406,0.705-2.418,0.705
					c-1.234,0-2.178-0.404-2.822-1.197c-0.65-0.801-0.975-1.957-0.975-3.469c0-1.516,0.34-2.689,1.02-3.511
					c0.68-0.83,1.647-1.246,2.895-1.246c0.982,0,1.753,0.226,2.321,0.677c0.558,0.446,0.858,1.068,0.878,1.857h-1.294
					c-0.042-0.471-0.251-0.844-0.622-1.135c-0.371-0.289-0.83-0.431-1.4-0.431c-0.785,0-1.398,0.327-1.832,0.985
					c-0.441,0.659-0.66,1.578-0.66,2.766c0,1.165,0.219,2.061,0.648,2.697c0.432,0.636,1.047,0.958,1.844,0.958
					c0.576,0,1.039-0.14,1.393-0.415c0.35-0.28,0.543-0.664,0.588-1.15H38.459z"/>
				<path fill="#FFFFFF" d="M39.963,214.881v-5.364c0-0.207,0-0.394-0.008-0.545c-0.002-0.15-0.016-0.303-0.021-0.454h1.172
					l0.021,1.216c0.117-0.4,0.322-0.705,0.629-0.912c0.291-0.207,0.684-0.304,1.162-0.304c0.086,0,0.17,0,0.248,0.007
					c0.084,0.007,0.16,0.018,0.232,0.032v1.099c-0.127-0.022-0.24-0.044-0.352-0.055c-0.107-0.014-0.199-0.021-0.284-0.021
					c-0.526,0-0.927,0.148-1.208,0.45c-0.281,0.29-0.428,0.717-0.428,1.272v3.579H39.963z"/>
				<path fill="#FFFFFF" d="M49.914,212.836c-0.004,0.66-0.238,1.192-0.707,1.591c-0.473,0.406-1.09,0.607-1.863,0.607
					c-0.984,0-1.74-0.271-2.252-0.818c-0.512-0.549-0.764-1.341-0.764-2.394c0-1.124,0.252-1.976,0.752-2.571
					c0.506-0.59,1.232-0.889,2.17-0.889c0.865,0,1.545,0.24,2.039,0.738c0.495,0.497,0.738,1.164,0.738,2.015
					c0,0.206,0,0.363-0.004,0.474c-0.004,0.104-0.01,0.203-0.018,0.303h-4.508v0.119v0.256c0,0.607,0.15,1.07,0.459,1.393
					c0.307,0.332,0.744,0.495,1.316,0.495c0.463,0,0.838-0.118,1.105-0.358c0.279-0.234,0.416-0.555,0.432-0.96H49.914z
					 M45.555,211.064h3.282v-0.143c0-0.527-0.148-0.953-0.436-1.28c-0.291-0.321-0.674-0.479-1.129-0.479
					c-0.508,0-0.92,0.176-1.242,0.525C45.715,210.032,45.555,210.498,45.555,211.064z M46.305,207.679l1.261-2.154h1.246
					l-1.764,2.154H46.305z"/>
				<path fill="#FFFFFF" d="M56.217,214.881l-0.053-0.94c-0.293,0.385-0.602,0.666-0.926,0.838
					c-0.316,0.169-0.693,0.256-1.113,0.256c-0.873,0-1.564-0.297-2.07-0.88c-0.51-0.583-0.764-1.388-0.764-2.406
					c0-1.05,0.244-1.862,0.742-2.447c0.495-0.591,1.176-0.884,2.054-0.884c0.431,0,0.827,0.087,1.177,0.264
					c0.355,0.183,0.654,0.451,0.9,0.798v-3.733h1.168v7.866c0,0.226,0.006,0.435,0.017,0.644c0.014,0.211,0.028,0.414,0.058,0.626
					H56.217z M52.515,211.621c0,0.81,0.164,1.457,0.5,1.928c0.33,0.473,0.771,0.711,1.311,0.711c0.564,0,1.008-0.221,1.342-0.661
					c0.332-0.437,0.496-1.026,0.496-1.775c0-0.809-0.16-1.454-0.492-1.927c-0.332-0.472-0.77-0.717-1.314-0.717
					c-0.559,0-1.006,0.225-1.339,0.662C52.679,210.288,52.515,210.877,52.515,211.621z"/>
				<path fill="#FFFFFF" d="M60.579,207.045h-1.374v-1.3h1.374V207.045z M59.312,214.881v-6.363h1.172v6.363H59.312z"/>
				<path fill="#FFFFFF" d="M61.602,208.518h1.083v-1.312l1.164-0.395v1.706h1.418v0.837h-1.418v3.904
					c0,0.328,0.056,0.547,0.16,0.652c0.113,0.103,0.331,0.158,0.65,0.158c0.086,0,0.17-0.01,0.264-0.023
					c0.099-0.018,0.203-0.032,0.318-0.06v0.88c-0.191,0.049-0.365,0.086-0.518,0.109c-0.15,0.032-0.289,0.045-0.403,0.045
					c-0.603,0-1.018-0.1-1.267-0.308c-0.246-0.208-0.369-0.552-0.369-1.046v-4.312h-1.083V208.518z"/>
				<path fill="#FFFFFF" d="M66.154,211.823c0-1.067,0.279-1.907,0.85-2.521c0.566-0.62,1.336-0.926,2.316-0.926
					c0.99,0,1.762,0.286,2.309,0.863c0.551,0.573,0.824,1.38,0.824,2.407c0,1.071-0.281,1.902-0.854,2.494
					c-0.561,0.598-1.359,0.895-2.392,0.895c-0.94,0-1.692-0.289-2.239-0.859C66.426,213.598,66.154,212.813,66.154,211.823z
					 M69.32,209.218c-0.605,0-1.08,0.227-1.435,0.681c-0.351,0.456-0.528,1.077-0.528,1.857c0,0.767,0.166,1.347,0.51,1.766
					c0.336,0.411,0.816,0.618,1.428,0.618c0.614,0,1.096-0.217,1.443-0.653c0.354-0.444,0.527-1.049,0.527-1.831
					c0-0.771-0.168-1.368-0.51-1.798C70.416,209.425,69.937,209.218,69.32,209.218z"/>
				<path fill="#FFFFFF" d="M73.65,212.965h1.176v0.022c0,0.35,0.119,0.627,0.367,0.838c0.244,0.211,0.573,0.314,0.984,0.314
					c0.393,0,0.715-0.09,0.963-0.279c0.244-0.182,0.367-0.423,0.367-0.721c0-0.223-0.064-0.402-0.189-0.531
					c-0.125-0.137-0.32-0.244-0.58-0.301l-1.352-0.32c-0.568-0.133-0.994-0.338-1.273-0.611c-0.276-0.275-0.416-0.623-0.416-1.045
					c0-0.582,0.235-1.057,0.709-1.416c0.477-0.363,1.096-0.54,1.867-0.54c0.711,0,1.279,0.149,1.691,0.446
					c0.412,0.299,0.615,0.71,0.615,1.229c0,0.049,0,0.094,0,0.115c0,0.029-0.004,0.051-0.01,0.07h-1.168v-0.051
					c0-0.301-0.107-0.547-0.326-0.724c-0.217-0.173-0.517-0.263-0.89-0.263c-0.369,0-0.671,0.09-0.911,0.263
					c-0.236,0.177-0.354,0.402-0.354,0.662c0,0.214,0.064,0.374,0.211,0.499c0.146,0.131,0.387,0.238,0.717,0.323l1.447,0.397
					c0.504,0.13,0.873,0.336,1.113,0.619c0.241,0.279,0.358,0.646,0.358,1.088c0,0.608-0.229,1.084-0.69,1.443
					c-0.457,0.36-1.077,0.541-1.855,0.541c-0.887,0-1.537-0.153-1.951-0.465c-0.416-0.311-0.621-0.793-0.621-1.454V212.965z"/>
			</g>
		</g>
		<g>
			<path fill-rule="evenodd" clip-rule="evenodd" fill="#FFFFFF" d="M121.409,213.031c-0.811,0.508-1.649,0.589-2.473,0.174
				c-0.347-0.174-0.659-0.323-1.051-0.395c-0.832-0.146-1.611-1.055-1.696-1.887c-0.014-0.182,0.084-0.384,0.029-0.545
				c-0.056-0.16-0.26-0.262-0.358-0.416c-0.405-0.644-0.333-1.829,0.277-2.333c0.044-0.031,0.057-0.13,0.048-0.196
				c-0.108-0.76,0.081-1.412,0.671-1.921c0.144-0.118,0.376-0.163,0.472-0.306c0.096-0.139,0.047-0.365,0.103-0.541
				c0.193-0.588,0.566-1.005,1.181-1.183c0.058-0.018,0.137-0.063,0.156-0.116c0.338-0.954,1.85-1.166,2.568-0.416
				c0.016,0.019,0.031,0.031,0.057,0.05c0.435-0.433,0.958-0.579,1.556-0.465c0.489,0.094,0.86,0.347,1.068,0.813
				c0.023,0.055,0.073,0.109,0.126,0.124c0.866,0.263,1.253,0.881,1.308,1.745c0,0.01,0.004,0.014,0.006,0.021
				c0.92,0.461,1.3,1.205,1.144,2.217c-0.011,0.058,0.015,0.146,0.057,0.18c0.717,0.59,0.7,2.165-0.036,2.688
				c-0.034,0.023-0.064,0.094-0.057,0.138c0.163,0.826-0.248,1.41-0.816,1.918c-0.375,0.331-0.812,0.534-1.338,0.472
				c-0.047-0.004-0.117,0.016-0.149,0.053c-0.293,0.35-0.688,0.48-1.118,0.523C122.522,213.487,121.918,213.429,121.409,213.031z
				 M121.653,209.651c0,0.862,0,1.745,0,2.626c0,0.317,0.106,0.488,0.4,0.59c0.435,0.16,0.878,0.148,1.317,0.047
				c0.095-0.019,0.187-0.08,0.263-0.141c0.406-0.325,0.571-1.125,0.337-1.584c-0.129-0.254-0.447-0.416-0.697-0.357
				c-0.277,0.067-0.455,0.311-0.455,0.627c-0.003,0.064,0,0.123,0,0.195c-0.165,0.039-0.306,0.075-0.45,0.113
				c-0.256-0.637,0.247-1.426,0.919-1.462c0.77-0.041,1.351,0.594,1.29,1.412c-0.017,0.202-0.053,0.407-0.086,0.63
				c0.59-0.001,0.972-0.332,1.287-0.744c0.236-0.306,0.402-0.645,0.266-1.049c-0.138,0-0.26,0.006-0.383,0
				c-1.016-0.022-1.513-0.771-1.128-1.711c0.089-0.205,0.218-0.4,0.344-0.594c0.23-0.35,0.116-0.727-0.278-0.867
				c-0.103-0.035-0.208-0.059-0.314-0.076c-0.289-0.043-0.529,0.076-0.601,0.359c-0.062,0.23-0.084,0.482-0.052,0.716
				c0.1,0.765-0.354,1.345-1.124,1.358C122.23,209.75,121.96,209.685,121.653,209.651z M119.972,211.65c0-0.062,0-0.101,0-0.143
				c0.008-0.366-0.187-0.637-0.492-0.684c-0.298-0.043-0.623,0.176-0.712,0.5c-0.124,0.475-0.048,0.918,0.251,1.307
				c0.092,0.115,0.239,0.229,0.376,0.27c0.458,0.131,0.922,0.127,1.373-0.049c0.257-0.098,0.374-0.283,0.372-0.564
				c-0.011-0.828-0.004-1.654-0.004-2.479c0-0.06-0.008-0.126-0.012-0.195c-0.133,0.036-0.248,0.073-0.366,0.099
				c-1.022,0.218-1.78-0.408-1.576-1.408c0.033-0.161,0.007-0.34-0.022-0.512c-0.043-0.262-0.194-0.454-0.472-0.484
				c-0.315-0.039-0.615,0.037-0.806,0.305c-0.169,0.236-0.068,0.466,0.068,0.697c0.16,0.27,0.315,0.551,0.398,0.851
				c0.17,0.624-0.139,1.14-0.76,1.31c-0.264,0.075-0.546,0.078-0.854,0.115c-0.135,0.449,0.095,0.822,0.387,1.152
				c0.307,0.35,0.659,0.629,1.178,0.604c-0.033-0.239-0.072-0.452-0.086-0.669c-0.04-0.691,0.353-1.216,1.01-1.346
				c0.393-0.076,0.731,0.032,0.983,0.344c0.26,0.32,0.338,0.684,0.237,1.104C120.277,211.729,120.127,211.689,119.972,211.65z
				 M116.908,207.837c-0.666,0.317-0.834,0.61-0.776,1.338c0.052,0.625,0.424,0.928,1.04,0.855c0.564-0.068,0.814-0.454,0.609-0.98
				c-0.086-0.215-0.229-0.412-0.357-0.607c-0.293-0.451-0.248-0.92,0.152-1.281c0.34-0.311,0.748-0.402,1.199-0.334
				c0.064,0.012,0.145,0.023,0.203-0.002c0.28-0.139,0.545-0.297,0.831-0.429c0.499-0.231,0.677-0.712,0.373-1.169
				c-0.114-0.17-0.323-0.307-0.521-0.381c-0.438-0.164-0.851-0.324-0.951-0.859c-0.468,0.15-0.772,0.426-0.836,0.893
				c-0.073,0.499,0.184,0.834,0.626,1.061c-0.065,0.154-0.129,0.301-0.219,0.515c-0.295-0.241-0.556-0.456-0.835-0.686
				C116.744,205.962,116.51,206.781,116.908,207.837z M124.09,204.013c-0.204,0.494-0.306,0.592-0.836,0.783
				c-0.087,0.029-0.175,0.062-0.259,0.099c-0.308,0.117-0.46,0.354-0.515,0.665c-0.069,0.393,0.145,0.692,0.577,0.865
				c0.235,0.098,0.457,0.23,0.688,0.338c0.084,0.035,0.183,0.076,0.266,0.064c0.452-0.068,0.856,0.023,1.204,0.33
				c0.378,0.332,0.446,0.818,0.178,1.242c-0.083,0.135-0.204,0.251-0.262,0.395c-0.085,0.206-0.171,0.43-0.177,0.652
				c-0.007,0.293,0.216,0.494,0.529,0.559c0.474,0.101,0.837-0.015,1.017-0.318c0.404-0.688,0.159-1.48-0.562-1.818
				c-0.018-0.006-0.031-0.021-0.031-0.021c0.059-0.264,0.138-0.508,0.17-0.759c0.073-0.571-0.184-1.081-0.604-1.278
				c-0.123-0.058-0.199-0.061-0.284,0.067c-0.171,0.247-0.411,0.409-0.707,0.522c-0.064-0.165-0.129-0.312-0.188-0.453
				c0.504-0.3,0.703-0.666,0.625-1.105C124.841,204.425,124.506,204.088,124.09,204.013z M123.394,207.115
				c-0.146-0.062-0.277-0.115-0.405-0.174c-0.17-0.078-0.35-0.143-0.501-0.244c-0.415-0.289-0.595-0.697-0.519-1.195
				c0.082-0.508,0.316-0.903,0.854-1.051c0.125-0.033,0.249-0.076,0.364-0.133c0.489-0.234,0.543-0.764,0.1-1.083
				c-0.388-0.282-0.812-0.301-1.239-0.095c-0.261,0.131-0.395,0.352-0.395,0.646c0,1.593-0.006,3.187,0.004,4.78
				c0.001,0.538,0.068,0.595,0.617,0.624c0.04,0.004,0.083,0.004,0.128,0.004c0.558-0.006,0.772-0.271,0.697-0.822
				C123.034,207.927,123.052,207.497,123.394,207.115z M119.384,207.113c0.277,0.281,0.349,0.588,0.332,0.923
				c-0.004,0.142-0.01,0.284-0.029,0.427c-0.06,0.428,0.134,0.696,0.559,0.716c0.246,0.011,0.498-0.048,0.743-0.083
				c0.12-0.018,0.152-0.095,0.152-0.217c-0.004-1.7,0.001-3.398-0.012-5.098c0-0.169-0.085-0.361-0.192-0.483
				c-0.372-0.421-1.234-0.367-1.582,0.075c-0.251,0.324-0.181,0.713,0.183,0.91c0.162,0.09,0.343,0.141,0.52,0.199
				c0.313,0.105,0.523,0.316,0.65,0.613c0.322,0.773,0.014,1.503-0.771,1.801C119.766,206.963,119.591,207.032,119.384,207.113z"/>
			<path fill-rule="evenodd" clip-rule="evenodd" fill="#FFFFFF" d="M129.355,208.032c0,4.46-3.613,8.077-8.078,8.077
				c-4.462,0-8.079-3.617-8.079-8.077c0-4.465,3.617-8.083,8.079-8.083C125.742,199.949,129.355,203.567,129.355,208.032z
				 M131.152,208.032c0-5.457-4.42-9.876-9.875-9.876c-5.453,0-9.874,4.419-9.874,9.876c0,4.096,2.491,7.606,6.043,9.103
				c0.005,0.002,0.963,1.115,1.001,1.918c0.039,0.803,0,1.072,0,1.072h5.589c0,0-0.185-0.977,0.269-1.914
				c0.22-0.448,0.417-0.773,0.571-0.99C128.549,215.78,131.152,212.213,131.152,208.032z"/>
			<path fill-rule="evenodd" clip-rule="evenodd" fill="#FFFFFF" d="M121.354,222.976c0.721,0,1.45-0.066,2.158,0.029
				c0.332,0.043,0.847,0.363,0.879,0.607c0.039,0.309-0.309,0.688-0.537,1c-0.195,0.266-0.479,0.467-0.689,0.725
				c-0.851,1.047-2.277,1.262-3.35,0.443c-0.559-0.426-1.094-0.898-1.567-1.418c-0.167-0.184-0.246-0.641-0.134-0.842
				c0.14-0.25,0.511-0.49,0.8-0.516c0.809-0.068,1.626-0.023,2.44-0.023C121.354,222.98,121.354,222.978,121.354,222.976z"/>
			<path fill-rule="evenodd" clip-rule="evenodd" fill="#FFFFFF" d="M121.22,222.257c-0.718,0-1.436,0.01-2.153-0.004
				c-0.549-0.01-1.024-0.188-1.037-0.828c-0.013-0.652,0.445-0.818,1.012-0.816c1.498,0.006,2.997,0.007,4.495,0.001
				c0.551-0.003,1.015,0.243,0.908,0.786c-0.066,0.332-0.543,0.764-0.89,0.82C122.797,222.339,122.002,222.253,121.22,222.257z"/>
			<path fill-rule="evenodd" clip-rule="evenodd" fill="#FFFFFF" d="M110.58,203.625c-0.765-0.442-1.384-0.801-2.151-1.246
				c0.403-0.701,0.773-1.346,1.225-2.132c0.755,0.453,1.433,0.858,2.15,1.288C111.386,202.248,111.023,202.869,110.58,203.625z"/>
			<path fill-rule="evenodd" clip-rule="evenodd" fill="#FFFFFF" d="M130.861,201.513c0.785-0.449,1.413-0.807,2.162-1.236
				c0.418,0.689,0.809,1.332,1.268,2.088c-0.721,0.43-1.374,0.815-2.135,1.268C131.734,202.941,131.339,202.294,130.861,201.513z"/>
			<path fill-rule="evenodd" clip-rule="evenodd" fill="#FFFFFF" d="M113.172,196.74c0.754-0.443,1.369-0.805,2.104-1.238
				c0.436,0.73,0.819,1.375,1.276,2.143c-0.722,0.433-1.365,0.818-2.113,1.266C114.013,198.182,113.632,197.529,113.172,196.74z"/>
			<path fill-rule="evenodd" clip-rule="evenodd" fill="#FFFFFF" d="M129.533,196.722c-0.467,0.793-0.837,1.422-1.265,2.148
				c-0.719-0.41-1.376-0.785-2.112-1.205c0.423-0.738,0.781-1.367,1.225-2.143C128.094,195.92,128.749,196.285,129.533,196.722z"/>
			<path fill-rule="evenodd" clip-rule="evenodd" fill="#FFFFFF" d="M107.274,207.339c0.751,0,1.467,0,2.272,0
				c0,0.723,0,1.426,0,2.213c-0.751,0-1.465,0-2.272,0C107.274,208.812,107.274,208.111,107.274,207.339z"/>
			<path fill-rule="evenodd" clip-rule="evenodd" fill="#FFFFFF" d="M120.281,194.281c0.784,0,1.463,0,2.23,0
				c0,0.775,0,1.489,0,2.315c-0.702,0-1.413,0-2.23,0C120.281,195.888,120.281,195.14,120.281,194.281z"/>
			<path fill-rule="evenodd" clip-rule="evenodd" fill="#FFFFFF" d="M133.184,209.521c0-0.719,0-1.389,0-2.154
				c0.752,0,1.502,0,2.332,0c0,0.699,0,1.369,0,2.154C134.763,209.521,134.015,209.521,133.184,209.521z"/>
			<path fill-rule="evenodd" clip-rule="evenodd" fill="#FFFFFF" d="M109.64,216.623c-0.432-0.762-0.788-1.387-1.219-2.146
				c0.714-0.411,1.373-0.791,2.172-1.251c0.354,0.762,0.67,1.443,1.032,2.227C110.985,215.83,110.401,216.173,109.64,216.623z"/>
			<path fill-rule="evenodd" clip-rule="evenodd" fill="#FFFFFF" d="M133.064,216.595c-0.686-0.387-1.268-0.715-1.968-1.111
				c0.314-0.752,0.601-1.436,0.958-2.287c0.793,0.461,1.474,0.856,2.219,1.289C133.844,215.235,133.469,215.888,133.064,216.595z"/>
		</g>
		<g>
			<g>
				<path fill="#FFFFFF" d="M144.691,161.236c0,1,0,2.002,0,3.002c-0.066,0.402-0.133,0.808-0.193,1.212
					c-1.111,7.203-6.838,11.671-12.232,12.874c-0.736,0.162-1.49,0.271-2.236,0.404c-0.914,0-1.832,0-2.75,0
					c-0.279-0.05-0.562-0.109-0.846-0.148c-6.436-0.906-11.83-5.835-13.318-12.188c-0.168-0.742-0.275-1.494-0.41-2.242
					c0-0.938,0-1.887,0-2.83c0.025-0.058,0.062-0.119,0.072-0.184c0.508-4.684,2.717-8.416,6.396-11.281
					c3.512-2.734,7.555-3.52,11.891-2.953c6.453,0.84,11.781,5.729,13.211,12.066C144.441,159.718,144.549,160.48,144.691,161.236z
					 M128.715,175.769c6.045,0.094,13.111-4.786,13.082-12.909c-0.027-7.382-5.729-13.138-12.99-13.233
					c-7.969-0.098-13.258,6.9-13.213,13.068C115.652,169.841,121.552,175.769,128.715,175.769z"/>
				<path fill-rule="evenodd" clip-rule="evenodd" fill="#FFFFFF" d="M126.59,164.181c0.674,0.344,1.311,0.669,1.984,1.006
					c-0.715,1.288-1.752,2.085-3.15,2.418c-2.156,0.502-4.396-0.436-5.293-2.262c-0.666-1.346-0.701-2.781-0.354-4.219
					c0.301-1.227,1.021-2.144,2.1-2.774c1.771-1.042,5.297-0.901,6.656,1.741c-0.705,0.365-1.406,0.733-2.014,1.047
					c-0.436-0.375-0.773-0.778-1.197-1.017c-0.936-0.507-2.102-0.09-2.512,0.886c-0.463,1.088-0.459,2.212-0.033,3.321
					c0.297,0.755,0.871,1.174,1.68,1.222c0.85,0.047,1.516-0.273,1.951-1.025C126.457,164.432,126.508,164.335,126.59,164.181z"/>
				<path fill-rule="evenodd" clip-rule="evenodd" fill="#FFFFFF" d="M137.752,160.091c-0.697,0.369-1.381,0.73-2.092,1.109
					c-0.113-0.17-0.213-0.332-0.328-0.481c-0.443-0.59-1.037-0.859-1.77-0.786c-0.77,0.074-1.338,0.464-1.602,1.205
					c-0.352,1.014-0.369,2.037-0.014,3.059c0.283,0.807,0.846,1.296,1.717,1.354c0.879,0.057,1.562-0.291,1.996-1.082
					c0.041-0.072,0.082-0.146,0.127-0.213c0.004-0.014,0.02-0.018,0.062-0.051c0.635,0.314,1.285,0.635,1.971,0.98
					c-0.729,1.275-1.752,2.123-3.156,2.408c-1.842,0.352-3.518,0.018-4.793-1.484c-0.85-1.012-1.053-2.235-1.043-3.509
					c0.02-1.075,0.242-2.104,0.893-2.983c1.059-1.434,2.527-1.963,4.258-1.849c1.514,0.105,2.76,0.681,3.602,1.996
					C137.638,159.859,137.685,159.954,137.752,160.091z"/>
			</g>
		</g>
		<g>
			<g>
				<path fill="#FFFFFF" d="M46.172,159.015c-0.018,0.802-0.324,1.441-0.922,1.908c-0.602,0.473-1.404,0.715-2.422,0.715
					c-1.23,0-2.18-0.406-2.834-1.209c-0.648-0.801-0.975-1.954-0.975-3.479c0-1.516,0.342-2.688,1.027-3.52
					c0.68-0.827,1.65-1.24,2.902-1.24c0.979,0,1.756,0.223,2.314,0.676c0.574,0.449,0.863,1.068,0.887,1.861h-1.301
					c-0.037-0.467-0.24-0.844-0.611-1.134c-0.373-0.291-0.844-0.438-1.41-0.438c-0.781,0-1.398,0.327-1.838,0.992
					c-0.443,0.656-0.66,1.582-0.66,2.768c0,1.174,0.215,2.07,0.654,2.703c0.432,0.64,1.049,0.958,1.844,0.958
					c0.578,0,1.049-0.137,1.391-0.413c0.354-0.276,0.553-0.66,0.598-1.148H46.172z"/>
				<path fill="#FFFFFF" d="M47.687,161.476v-5.375c0-0.209-0.002-0.385-0.008-0.537c-0.008-0.155-0.016-0.314-0.027-0.467h1.176
					l0.029,1.227c0.115-0.408,0.32-0.712,0.619-0.915c0.301-0.21,0.693-0.312,1.168-0.312c0.092,0,0.174,0.003,0.254,0.011
					c0.084,0.007,0.156,0.019,0.23,0.038v1.096c-0.127-0.032-0.242-0.043-0.352-0.057c-0.111-0.014-0.203-0.02-0.283-0.02
					c-0.527,0-0.932,0.148-1.219,0.449c-0.275,0.293-0.418,0.721-0.418,1.28v3.581H47.687z"/>
				<path fill="#FFFFFF" d="M57.654,159.431c0,0.655-0.24,1.195-0.703,1.6c-0.473,0.4-1.1,0.607-1.865,0.607
					c-0.996,0-1.748-0.279-2.26-0.824c-0.514-0.551-0.771-1.344-0.771-2.402c0-1.118,0.256-1.98,0.762-2.574
					c0.508-0.595,1.23-0.893,2.178-0.893c0.857,0,1.541,0.246,2.037,0.74c0.5,0.494,0.746,1.168,0.746,2.021
					c0,0.207-0.002,0.359-0.008,0.471c0,0.104-0.008,0.211-0.018,0.305h-4.525v0.118v0.26c0,0.604,0.156,1.069,0.471,1.398
					c0.309,0.327,0.748,0.492,1.312,0.492c0.467,0,0.836-0.118,1.111-0.358c0.277-0.234,0.42-0.558,0.426-0.961H57.654z
					 M53.291,157.656h3.289v-0.141c0-0.536-0.15-0.957-0.438-1.287c-0.297-0.323-0.668-0.485-1.133-0.485
					c-0.51,0-0.92,0.177-1.242,0.532C53.447,156.623,53.291,157.083,53.291,157.656z"/>
				<path fill="#FFFFFF" d="M64.304,161.476h-1.061c-0.035-0.131-0.082-0.453-0.117-0.966v-0.04c-0.16,0.379-0.42,0.662-0.771,0.863
					c-0.348,0.203-0.771,0.305-1.277,0.305c-0.646,0-1.164-0.178-1.551-0.526c-0.393-0.361-0.586-0.828-0.586-1.401
					c0-0.676,0.271-1.213,0.809-1.606c0.535-0.392,1.271-0.589,2.203-0.589h1.107v-0.779c0-0.342-0.104-0.604-0.316-0.775
					c-0.217-0.178-0.527-0.265-0.943-0.265c-0.389,0-0.701,0.099-0.93,0.29c-0.23,0.199-0.352,0.465-0.363,0.797h-1.135v-0.094
					c0-0.57,0.203-0.993,0.609-1.294c0.404-0.302,0.984-0.45,1.742-0.45c0.877,0,1.518,0.155,1.92,0.464
					c0.4,0.313,0.6,0.819,0.6,1.521v3.939c0,0.055,0.006,0.135,0.012,0.243C64.265,161.222,64.281,161.345,64.304,161.476z
					 M63.06,158.311h-0.982c-0.615,0-1.084,0.111-1.424,0.343c-0.332,0.22-0.5,0.534-0.5,0.941c0,0.313,0.119,0.57,0.34,0.771
					c0.227,0.206,0.518,0.309,0.861,0.309c0.553,0,0.971-0.152,1.27-0.441c0.289-0.294,0.436-0.724,0.436-1.29V158.311z"/>
				<path fill="#FFFFFF" d="M65.293,155.097h1.084v-1.304l1.166-0.399v1.703h1.42v0.839h-1.42v3.919c0,0.332,0.053,0.546,0.16,0.648
					c0.113,0.108,0.33,0.16,0.652,0.16c0.082,0,0.172-0.005,0.268-0.02c0.092-0.012,0.199-0.037,0.318-0.067v0.886
					c-0.193,0.055-0.365,0.089-0.518,0.119c-0.154,0.022-0.287,0.037-0.408,0.037c-0.6,0-1.023-0.102-1.273-0.309
					c-0.244-0.203-0.365-0.552-0.365-1.047v-4.327h-1.084V155.097z"/>
				<path fill="#FFFFFF" d="M71.47,153.622H70.09v-1.292h1.381V153.622z M70.197,161.476v-6.379h1.18v6.379H70.197z"/>
				<path fill="#FFFFFF" d="M75.179,161.476l-2.604-6.379h1.186l2.041,5.057l2.059-5.057h1.166l-2.693,6.379H75.179z"/>
				<path fill="#FFFFFF" d="M85.504,159.431c-0.006,0.655-0.246,1.195-0.713,1.6c-0.467,0.4-1.09,0.607-1.865,0.607
					c-0.99,0-1.742-0.279-2.258-0.824c-0.512-0.551-0.766-1.344-0.766-2.402c0-1.118,0.252-1.98,0.754-2.574
					c0.512-0.595,1.238-0.893,2.18-0.893c0.865,0,1.545,0.246,2.039,0.74c0.498,0.494,0.744,1.168,0.744,2.021
					c0,0.207,0,0.359-0.006,0.471c-0.004,0.104-0.01,0.211-0.018,0.305H81.07v0.118v0.26c0,0.604,0.156,1.069,0.469,1.398
					c0.309,0.327,0.746,0.492,1.316,0.492c0.465,0,0.834-0.118,1.109-0.358c0.279-0.234,0.418-0.558,0.428-0.961H85.504z
					 M81.135,157.656h3.289v-0.141c0-0.536-0.145-0.957-0.434-1.287c-0.293-0.323-0.676-0.485-1.135-0.485
					c-0.508,0-0.924,0.177-1.24,0.532C81.297,156.623,81.135,157.083,81.135,157.656z"/>
				<path fill="#FFFFFF" d="M39.853,170.642c-0.021,0.807-0.33,1.443-0.928,1.912c-0.594,0.477-1.402,0.713-2.422,0.713
					c-1.236,0-2.18-0.4-2.83-1.203c-0.65-0.795-0.979-1.961-0.979-3.477c0-1.515,0.346-2.687,1.027-3.521
					c0.686-0.83,1.648-1.244,2.902-1.244c0.98,0,1.762,0.223,2.322,0.678c0.561,0.445,0.855,1.062,0.879,1.865h-1.293
					c-0.047-0.467-0.252-0.852-0.621-1.139c-0.367-0.289-0.84-0.434-1.408-0.434c-0.781,0-1.395,0.329-1.838,0.986
					c-0.438,0.658-0.66,1.59-0.66,2.771c0,1.166,0.215,2.064,0.652,2.705c0.436,0.633,1.047,0.953,1.846,0.953
					c0.58,0,1.047-0.135,1.396-0.415c0.35-0.273,0.551-0.658,0.594-1.151H39.853z"/>
				<path fill="#FFFFFF" d="M41.052,170.045c0-1.066,0.289-1.913,0.855-2.532c0.566-0.613,1.348-0.928,2.324-0.928
					c0.996,0,1.76,0.292,2.314,0.871c0.549,0.574,0.826,1.381,0.826,2.414c0,1.069-0.287,1.902-0.855,2.498
					c-0.57,0.594-1.363,0.898-2.396,0.898c-0.947,0-1.697-0.288-2.24-0.869C41.33,171.827,41.052,171.042,41.052,170.045z
					 M44.232,167.431c-0.602,0-1.082,0.23-1.438,0.686c-0.357,0.456-0.529,1.079-0.529,1.865c0,0.76,0.17,1.35,0.508,1.769
					c0.338,0.413,0.818,0.618,1.432,0.618c0.621,0,1.104-0.217,1.447-0.66c0.355-0.439,0.527-1.05,0.527-1.824
					c0-0.779-0.164-1.379-0.51-1.811C45.338,167.648,44.849,167.431,44.232,167.431z"/>
				<path fill="#FFFFFF" d="M50.256,173.111H49.08v-5.06c0-0.112-0.01-0.29-0.012-0.528c-0.012-0.24-0.021-0.499-0.047-0.793h1.197
					l0.037,1.084c0.166-0.355,0.422-0.636,0.768-0.844c0.35-0.205,0.742-0.314,1.17-0.314c0.432,0,0.814,0.094,1.164,0.273
					c0.342,0.182,0.652,0.467,0.926,0.847c0.334-0.401,0.658-0.689,0.992-0.856c0.328-0.176,0.715-0.264,1.146-0.264
					c0.449,0,0.855,0.096,1.229,0.279c0.363,0.189,0.625,0.434,0.787,0.748c0.072,0.142,0.127,0.332,0.162,0.56
					c0.025,0.225,0.041,0.547,0.041,0.966v3.902h-1.137v-4.068c0-0.492-0.115-0.867-0.354-1.113
					c-0.23-0.246-0.578-0.375-1.047-0.375c-0.48,0-0.863,0.148-1.17,0.449c-0.305,0.297-0.457,0.681-0.457,1.154v3.953h-1.191
					v-3.854c0-0.588-0.113-1.02-0.346-1.295c-0.227-0.279-0.574-0.418-1.057-0.418c-0.51,0-0.908,0.15-1.193,0.447
					c-0.287,0.303-0.434,0.721-0.434,1.266V173.111z"/>
				<path fill="#FFFFFF" d="M61.847,173.111h-1.186v-5.06c0-0.112,0-0.29-0.008-0.528c-0.012-0.24-0.021-0.499-0.039-0.793h1.195
					l0.037,1.084c0.164-0.355,0.426-0.636,0.768-0.844c0.352-0.205,0.734-0.314,1.164-0.314c0.432,0,0.82,0.094,1.164,0.273
					c0.35,0.182,0.66,0.467,0.934,0.847c0.33-0.401,0.656-0.689,0.99-0.856c0.328-0.176,0.709-0.264,1.148-0.264
					c0.445,0,0.852,0.096,1.217,0.279c0.373,0.189,0.635,0.434,0.795,0.748c0.078,0.142,0.127,0.332,0.16,0.56
					c0.031,0.225,0.045,0.547,0.045,0.966v3.902h-1.137v-4.068c0-0.492-0.123-0.867-0.354-1.113
					c-0.236-0.246-0.584-0.375-1.051-0.375c-0.477,0-0.865,0.148-1.172,0.449c-0.303,0.297-0.455,0.681-0.455,1.154v3.953h-1.193
					v-3.854c0-0.588-0.109-1.02-0.338-1.295c-0.229-0.279-0.584-0.418-1.061-0.418c-0.506,0-0.91,0.15-1.195,0.447
					c-0.287,0.303-0.43,0.721-0.43,1.266V173.111z"/>
				<path fill="#FFFFFF" d="M71.881,170.045c0-1.066,0.291-1.913,0.852-2.532c0.582-0.613,1.348-0.928,2.33-0.928
					c0.992,0,1.764,0.292,2.318,0.871c0.545,0.574,0.82,1.381,0.82,2.414c0,1.069-0.285,1.902-0.855,2.498
					c-0.566,0.594-1.367,0.898-2.395,0.898c-0.943,0-1.693-0.288-2.244-0.869C72.156,171.827,71.881,171.042,71.881,170.045z
					 M75.062,167.431c-0.607,0-1.082,0.23-1.436,0.686c-0.348,0.456-0.531,1.079-0.531,1.865c0,0.76,0.17,1.35,0.504,1.769
					c0.346,0.413,0.818,0.618,1.439,0.618c0.613,0,1.096-0.217,1.445-0.66c0.354-0.439,0.529-1.05,0.529-1.824
					c0-0.779-0.17-1.379-0.512-1.811C76.162,167.648,75.683,167.431,75.062,167.431z"/>
				<path fill="#FFFFFF" d="M81.088,167.776c0.143-0.345,0.393-0.617,0.752-0.818c0.355-0.2,0.77-0.302,1.242-0.302
					c0.426,0,0.805,0.074,1.16,0.23c0.348,0.155,0.619,0.363,0.816,0.631c0.121,0.154,0.193,0.33,0.24,0.542
					c0.053,0.213,0.074,0.573,0.074,1.089v3.963h-1.172v-4.027c0-0.539-0.119-0.938-0.344-1.184
					c-0.23-0.252-0.592-0.383-1.078-0.383c-0.494,0-0.898,0.14-1.223,0.406c-0.314,0.264-0.469,0.617-0.469,1.039v4.148h-1.186
					v-5.066c0-0.236,0-0.468-0.008-0.684c-0.012-0.217-0.021-0.426-0.033-0.631h1.189L81.088,167.776z"/>
				<path fill="#FFFFFF" d="M86.865,171.196h1.18v0.022c0,0.344,0.123,0.627,0.375,0.836c0.244,0.213,0.564,0.314,0.979,0.314
					c0.398,0,0.717-0.094,0.967-0.273c0.246-0.187,0.367-0.429,0.367-0.729c0-0.219-0.064-0.396-0.186-0.535
					c-0.125-0.139-0.318-0.236-0.582-0.308l-1.354-0.308c-0.57-0.139-0.994-0.346-1.271-0.619c-0.287-0.277-0.42-0.63-0.42-1.047
					c0-0.583,0.234-1.055,0.705-1.414c0.473-0.363,1.104-0.551,1.869-0.551c0.723,0,1.281,0.156,1.695,0.456
					c0.414,0.294,0.623,0.706,0.623,1.23c0,0.048,0,0.084-0.006,0.114c0,0.022,0,0.05-0.008,0.072h-1.168v-0.053
					c0-0.309-0.113-0.545-0.33-0.723c-0.219-0.184-0.51-0.268-0.891-0.268c-0.367,0-0.672,0.084-0.908,0.268
					c-0.242,0.178-0.359,0.4-0.359,0.66c0,0.211,0.07,0.373,0.211,0.498c0.148,0.126,0.393,0.242,0.727,0.326l1.449,0.404
					c0.502,0.13,0.871,0.33,1.107,0.615c0.242,0.283,0.363,0.645,0.363,1.086c0,0.61-0.23,1.094-0.689,1.449
					c-0.459,0.361-1.08,0.545-1.865,0.545c-0.885,0-1.541-0.156-1.953-0.467c-0.416-0.314-0.627-0.797-0.627-1.457V171.196z"/>
			</g>
		</g>
		<g>
			<g>
				<g>
					<path fill="#FFFFFF" d="M68.639,256.289l2.758-7.182h1.025l2.938,7.182h-1.082l-0.838-2.176h-3.002l-0.789,2.176H68.639z
						 M70.712,253.341h2.434l-0.748-1.994c-0.229-0.602-0.4-1.098-0.51-1.486c-0.09,0.459-0.221,0.916-0.387,1.371L70.712,253.341z"
						/>
				</g>
				<g>
					<path fill="#FFFFFF" d="M79.401,254.382l0.869,0.113c-0.094,0.596-0.336,1.062-0.727,1.404
						c-0.391,0.338-0.871,0.506-1.439,0.506c-0.713,0-1.283-0.234-1.717-0.697c-0.432-0.467-0.648-1.135-0.648-2.002
						c0-0.562,0.094-1.055,0.279-1.475s0.473-0.736,0.85-0.949c0.381-0.211,0.795-0.314,1.242-0.314
						c0.564,0,1.027,0.141,1.387,0.428c0.359,0.285,0.59,0.689,0.689,1.217l-0.855,0.133c-0.082-0.35-0.227-0.611-0.434-0.789
						c-0.209-0.176-0.457-0.264-0.75-0.264c-0.447,0-0.809,0.158-1.086,0.479c-0.275,0.316-0.418,0.82-0.418,1.51
						c0,0.699,0.135,1.209,0.402,1.523c0.268,0.316,0.619,0.477,1.051,0.477c0.346,0,0.635-0.107,0.865-0.318
						C79.196,255.148,79.341,254.824,79.401,254.382z"/>
				</g>
				<g>
					<path fill="#FFFFFF" d="M82.95,255.498l0.129,0.779c-0.25,0.055-0.475,0.078-0.666,0.078c-0.32,0-0.568-0.049-0.746-0.15
						c-0.176-0.102-0.299-0.234-0.371-0.398c-0.072-0.166-0.109-0.512-0.109-1.045v-2.992h-0.648v-0.686h0.648v-1.287l0.877-0.529
						v1.816h0.887v0.686h-0.887v3.043c0,0.252,0.018,0.414,0.047,0.484c0.029,0.074,0.082,0.129,0.15,0.174
						c0.07,0.041,0.172,0.062,0.303,0.062C82.661,255.533,82.792,255.521,82.95,255.498z"/>
				</g>
				<g>
					<path fill="#FFFFFF" d="M83.819,250.119v-1.012h0.879v1.012H83.819z M83.819,256.289v-5.205h0.879v5.205H83.819z"/>
				</g>
				<g>
					<path fill="#FFFFFF" d="M87.487,256.289l-1.979-5.205h0.928l1.119,3.117c0.119,0.336,0.232,0.686,0.33,1.049
						c0.082-0.273,0.191-0.605,0.33-0.99l1.156-3.176h0.908l-1.969,5.205H87.487z"/>
				</g>
				<g>
					<path fill="#FFFFFF" d="M91.063,250.119v-1.012h0.883v1.012H91.063z M91.063,256.289v-5.205h0.883v5.205H91.063z"/>
				</g>
				<g>
					<path fill="#FFFFFF" d="M96.663,256.289v-0.656c-0.33,0.512-0.814,0.773-1.455,0.773c-0.414,0-0.795-0.115-1.143-0.344
						s-0.617-0.545-0.809-0.957c-0.191-0.408-0.287-0.883-0.287-1.414c0-0.518,0.086-0.992,0.26-1.414s0.434-0.746,0.779-0.971
						c0.346-0.227,0.732-0.338,1.16-0.338c0.314,0,0.594,0.062,0.838,0.197c0.246,0.131,0.445,0.305,0.598,0.516v-2.574h0.877v7.182
						H96.663z M93.876,253.691c0,0.666,0.141,1.164,0.42,1.494c0.283,0.332,0.613,0.496,0.996,0.496c0.385,0,0.713-0.158,0.98-0.473
						c0.273-0.314,0.406-0.799,0.406-1.445c0-0.711-0.137-1.234-0.412-1.566c-0.273-0.332-0.611-0.5-1.014-0.5
						c-0.393,0-0.719,0.158-0.98,0.48C94.005,252.496,93.876,253,93.876,253.691z"/>
				</g>
				<g>
					<path fill="#FFFFFF" d="M102.264,255.644c-0.326,0.281-0.643,0.475-0.943,0.588c-0.303,0.117-0.627,0.174-0.973,0.174
						c-0.572,0-1.012-0.141-1.318-0.42c-0.309-0.277-0.459-0.635-0.459-1.07c0-0.254,0.057-0.486,0.172-0.699
						c0.117-0.211,0.27-0.377,0.457-0.506c0.186-0.127,0.398-0.225,0.633-0.289c0.174-0.047,0.434-0.09,0.783-0.131
						c0.713-0.086,1.238-0.188,1.572-0.307c0.004-0.121,0.006-0.195,0.006-0.23c0-0.357-0.082-0.609-0.248-0.76
						c-0.227-0.197-0.561-0.297-1.006-0.297c-0.412,0-0.721,0.072-0.918,0.219c-0.197,0.145-0.344,0.4-0.438,0.771l-0.865-0.117
						c0.08-0.371,0.209-0.67,0.391-0.895c0.18-0.227,0.439-0.404,0.775-0.523c0.342-0.125,0.736-0.184,1.184-0.184
						c0.443,0,0.805,0.053,1.08,0.156c0.279,0.104,0.48,0.232,0.611,0.393c0.135,0.158,0.227,0.359,0.277,0.6
						c0.029,0.152,0.045,0.424,0.045,0.816v1.176c0,0.818,0.016,1.338,0.057,1.555c0.037,0.217,0.111,0.426,0.223,0.625h-0.92
						C102.348,256.105,102.292,255.89,102.264,255.644z M102.188,253.675c-0.316,0.131-0.797,0.242-1.438,0.334
						c-0.365,0.053-0.619,0.111-0.77,0.178c-0.15,0.064-0.264,0.16-0.348,0.287c-0.082,0.125-0.123,0.264-0.123,0.418
						c0,0.234,0.088,0.43,0.268,0.588c0.176,0.154,0.439,0.234,0.779,0.234s0.645-0.074,0.908-0.223
						c0.262-0.146,0.459-0.352,0.584-0.611c0.094-0.199,0.139-0.49,0.139-0.883V253.675z"/>
				</g>
				<g>
					<path fill="#FFFFFF" d="M107.823,256.289v-0.656c-0.328,0.512-0.814,0.773-1.455,0.773c-0.414,0-0.795-0.115-1.145-0.344
						c-0.344-0.229-0.615-0.545-0.807-0.957c-0.189-0.408-0.285-0.883-0.285-1.414c0-0.518,0.086-0.992,0.258-1.414
						c0.174-0.422,0.432-0.746,0.777-0.971c0.346-0.227,0.736-0.338,1.164-0.338c0.312,0,0.594,0.062,0.836,0.197
						c0.246,0.131,0.445,0.305,0.598,0.516v-2.574h0.879v7.182H107.823z M105.038,253.691c0,0.666,0.139,1.164,0.42,1.494
						c0.279,0.332,0.611,0.496,0.992,0.496c0.389,0,0.715-0.158,0.984-0.473s0.402-0.799,0.402-1.445
						c0-0.711-0.135-1.234-0.412-1.566c-0.271-0.332-0.607-0.5-1.01-0.5c-0.395,0-0.721,0.158-0.982,0.48
						C105.167,252.496,105.038,253,105.038,253.691z"/>
				</g>
			</g>
			<g>
				<g>
					<path fill="#FFFFFF" d="M57.206,265.509l2.756-7.182h1.023l2.939,7.182h-1.082l-0.836-2.174h-3.004l-0.787,2.174H57.206z
						 M59.278,262.564h2.434l-0.75-1.992c-0.227-0.602-0.396-1.098-0.51-1.488c-0.092,0.459-0.221,0.918-0.385,1.373L59.278,262.564
						z"/>
				</g>
				<g>
					<path fill="#FFFFFF" d="M64.784,265.509v-4.516h-0.777v-0.688h0.777v-0.553c0-0.35,0.033-0.607,0.094-0.777
						c0.084-0.227,0.234-0.416,0.449-0.559c0.213-0.141,0.512-0.211,0.896-0.211c0.248,0,0.523,0.029,0.824,0.088l-0.133,0.77
						c-0.184-0.033-0.357-0.049-0.52-0.049c-0.268,0-0.457,0.057-0.568,0.17c-0.109,0.117-0.166,0.33-0.166,0.645v0.477h1.016v0.688
						h-1.016v4.516H64.784z"/>
				</g>
				<g>
					<path fill="#FFFFFF" d="M67.366,259.345v-1.018h0.881v1.018H67.366z M67.366,265.509v-5.203h0.881v5.203H67.366z"/>
				</g>
				<g>
					<path fill="#FFFFFF" d="M72.985,264.869c-0.326,0.279-0.641,0.477-0.941,0.588c-0.305,0.115-0.629,0.172-0.973,0.172
						c-0.572,0-1.012-0.141-1.32-0.42c-0.307-0.277-0.459-0.633-0.459-1.07c0-0.254,0.059-0.486,0.174-0.699
						c0.117-0.207,0.268-0.377,0.455-0.504c0.188-0.129,0.4-0.227,0.635-0.291c0.172-0.045,0.436-0.09,0.785-0.133
						c0.711-0.082,1.236-0.186,1.572-0.303c0-0.119,0.004-0.199,0.004-0.23c0-0.357-0.084-0.613-0.25-0.76
						c-0.227-0.199-0.559-0.297-1.004-0.297c-0.414,0-0.723,0.072-0.918,0.217c-0.199,0.143-0.346,0.402-0.439,0.773l-0.861-0.119
						c0.076-0.371,0.207-0.668,0.387-0.893c0.178-0.229,0.438-0.402,0.777-0.525c0.34-0.121,0.734-0.184,1.184-0.184
						c0.441,0,0.803,0.051,1.08,0.156c0.277,0.104,0.482,0.234,0.613,0.396c0.131,0.158,0.223,0.355,0.273,0.598
						c0.029,0.152,0.047,0.42,0.047,0.812v1.178c0,0.82,0.018,1.338,0.053,1.555c0.039,0.217,0.113,0.426,0.225,0.623h-0.92
						C73.069,265.326,73.01,265.115,72.985,264.869z M72.913,262.9c-0.318,0.131-0.801,0.242-1.439,0.332
						c-0.365,0.053-0.619,0.113-0.771,0.174c-0.148,0.068-0.268,0.164-0.348,0.291c-0.08,0.125-0.121,0.266-0.121,0.418
						c0,0.236,0.088,0.43,0.266,0.588c0.18,0.156,0.439,0.236,0.783,0.236c0.338,0,0.641-0.074,0.906-0.227
						c0.264-0.145,0.457-0.35,0.582-0.607c0.094-0.199,0.143-0.492,0.143-0.883V262.9z"/>
				</g>
				<g>
					<path fill="#FFFFFF" d="M75.173,265.509v-5.203h0.793v0.74c0.381-0.57,0.93-0.855,1.654-0.855c0.311,0,0.602,0.057,0.863,0.17
						c0.266,0.113,0.461,0.26,0.592,0.441c0.131,0.184,0.223,0.402,0.273,0.654c0.035,0.164,0.049,0.445,0.049,0.855v3.197h-0.879
						v-3.162c0-0.361-0.035-0.629-0.105-0.807c-0.068-0.178-0.189-0.322-0.365-0.428c-0.174-0.104-0.379-0.158-0.615-0.158
						c-0.375,0-0.697,0.117-0.973,0.357c-0.271,0.238-0.408,0.689-0.408,1.357v2.84H75.173z"/>
				</g>
				<g>
					<path fill="#FFFFFF" d="M80.286,265.509v-0.715l3.312-3.801c-0.375,0.02-0.709,0.029-0.996,0.029h-2.123v-0.717h4.254v0.586
						l-2.818,3.301l-0.543,0.602c0.396-0.027,0.766-0.041,1.113-0.041h2.406v0.756H80.286z"/>
				</g>
				<g>
					<path fill="#FFFFFF" d="M89.163,264.869c-0.328,0.279-0.641,0.477-0.943,0.588c-0.301,0.115-0.625,0.172-0.973,0.172
						c-0.574,0-1.012-0.141-1.32-0.42c-0.307-0.277-0.459-0.633-0.459-1.07c0-0.254,0.059-0.486,0.172-0.699
						c0.119-0.207,0.273-0.377,0.459-0.504c0.189-0.129,0.398-0.227,0.635-0.291c0.174-0.045,0.432-0.09,0.785-0.133
						c0.711-0.082,1.234-0.186,1.57-0.303c0.004-0.119,0.006-0.199,0.006-0.23c0-0.357-0.082-0.613-0.248-0.76
						c-0.23-0.199-0.562-0.297-1.008-0.297c-0.414,0-0.721,0.072-0.916,0.217c-0.199,0.143-0.344,0.402-0.441,0.773l-0.861-0.119
						c0.078-0.371,0.207-0.668,0.389-0.893c0.18-0.229,0.439-0.402,0.777-0.525c0.34-0.121,0.734-0.184,1.184-0.184
						c0.441,0,0.803,0.051,1.08,0.156c0.277,0.104,0.482,0.234,0.615,0.396c0.129,0.158,0.219,0.355,0.273,0.598
						c0.029,0.152,0.043,0.42,0.043,0.812v1.178c0,0.82,0.018,1.338,0.057,1.555c0.035,0.217,0.111,0.426,0.223,0.623h-0.92
						C89.249,265.326,89.188,265.115,89.163,264.869z M89.089,262.9c-0.32,0.131-0.797,0.242-1.441,0.332
						c-0.359,0.053-0.615,0.113-0.768,0.174c-0.148,0.068-0.266,0.164-0.35,0.291c-0.082,0.125-0.119,0.266-0.119,0.418
						c0,0.236,0.086,0.43,0.264,0.588c0.178,0.156,0.439,0.236,0.783,0.236c0.342,0,0.641-0.074,0.906-0.227
						c0.266-0.145,0.461-0.35,0.582-0.607c0.096-0.199,0.143-0.492,0.143-0.883V262.9z"/>
				</g>
				<g>
					<path fill="#FFFFFF" d="M91.346,265.509v-5.203h0.789v0.732c0.164-0.256,0.379-0.461,0.65-0.617
						c0.275-0.152,0.582-0.23,0.928-0.23c0.385,0,0.701,0.078,0.949,0.24c0.246,0.162,0.418,0.385,0.521,0.67
						c0.408-0.605,0.947-0.91,1.607-0.91c0.514,0,0.91,0.143,1.191,0.43c0.277,0.285,0.414,0.725,0.414,1.316v3.572H97.52v-3.275
						c0-0.354-0.027-0.605-0.086-0.764c-0.057-0.154-0.158-0.277-0.311-0.373s-0.328-0.143-0.529-0.143
						c-0.365,0-0.67,0.123-0.912,0.365c-0.24,0.244-0.361,0.633-0.361,1.17v3.02H94.44v-3.381c0-0.389-0.074-0.684-0.215-0.879
						c-0.145-0.197-0.383-0.295-0.709-0.295c-0.246,0-0.477,0.064-0.686,0.195c-0.213,0.131-0.367,0.324-0.461,0.574
						c-0.096,0.252-0.141,0.613-0.141,1.088v2.697H91.346z"/>
				</g>
				<g>
					<path fill="#FFFFFF" d="M99.71,259.345v-1.018h0.881v1.018H99.71z M99.71,265.509v-5.203h0.881v5.203H99.71z"/>
				</g>
				<g>
					<path fill="#FFFFFF" d="M105.497,263.835l0.91,0.113c-0.145,0.531-0.41,0.945-0.797,1.238
						c-0.389,0.293-0.885,0.441-1.492,0.441c-0.758,0-1.359-0.234-1.805-0.703c-0.451-0.465-0.672-1.127-0.672-1.973
						c0-0.875,0.225-1.557,0.678-2.039c0.447-0.48,1.033-0.723,1.752-0.723c0.695,0,1.266,0.236,1.705,0.711
						c0.439,0.473,0.664,1.139,0.664,1.998c0,0.053-0.004,0.131-0.008,0.234h-3.881c0.035,0.574,0.195,1.01,0.484,1.312
						c0.293,0.307,0.654,0.455,1.088,0.455c0.324,0,0.602-0.084,0.83-0.254C105.182,264.48,105.362,264.21,105.497,263.835z
						 M102.602,262.408h2.904c-0.039-0.434-0.15-0.764-0.332-0.982c-0.283-0.34-0.646-0.512-1.092-0.512
						c-0.406,0-0.75,0.137-1.023,0.41C102.784,261.593,102.63,261.957,102.602,262.408z"/>
				</g>
				<g>
					<path fill="#FFFFFF" d="M107.516,265.509v-5.203h0.791v0.74c0.383-0.57,0.934-0.855,1.658-0.855c0.312,0,0.6,0.057,0.865,0.17
						c0.262,0.113,0.459,0.26,0.592,0.441c0.131,0.184,0.221,0.402,0.273,0.654c0.031,0.164,0.045,0.445,0.045,0.855v3.197h-0.879
						v-3.162c0-0.361-0.035-0.629-0.104-0.807c-0.07-0.178-0.191-0.322-0.365-0.428c-0.174-0.104-0.379-0.158-0.613-0.158
						c-0.379,0-0.703,0.117-0.975,0.357c-0.271,0.238-0.408,0.689-0.408,1.357v2.84H107.516z"/>
				</g>
				<g>
					<path fill="#FFFFFF" d="M115.022,264.724l0.127,0.779c-0.25,0.049-0.471,0.074-0.668,0.074c-0.32,0-0.568-0.047-0.742-0.15
						c-0.178-0.102-0.301-0.234-0.375-0.396c-0.072-0.166-0.105-0.514-0.105-1.043v-2.994h-0.648v-0.688h0.648v-1.287l0.875-0.529
						v1.816h0.889v0.688h-0.889v3.043c0,0.252,0.016,0.412,0.047,0.484s0.082,0.131,0.152,0.172c0.07,0.043,0.172,0.062,0.299,0.062
						C114.731,264.755,114.862,264.746,115.022,264.724z"/>
				</g>
				<g>
					<path fill="#FFFFFF" d="M115.555,262.91c0-0.965,0.266-1.678,0.803-2.141c0.451-0.385,0.994-0.578,1.639-0.578
						c0.715,0,1.299,0.23,1.754,0.703c0.453,0.469,0.68,1.115,0.68,1.943c0,0.668-0.102,1.193-0.303,1.578
						c-0.199,0.385-0.492,0.684-0.877,0.895c-0.383,0.213-0.803,0.318-1.254,0.318c-0.73,0-1.32-0.234-1.768-0.701
						C115.776,264.46,115.555,263.789,115.555,262.91z M116.462,262.91c0,0.666,0.146,1.164,0.434,1.496
						c0.293,0.334,0.66,0.496,1.102,0.496c0.436,0,0.801-0.162,1.092-0.5c0.289-0.33,0.436-0.838,0.436-1.521
						c0-0.643-0.148-1.131-0.441-1.463c-0.287-0.33-0.654-0.496-1.086-0.496c-0.441,0-0.809,0.164-1.102,0.494
						C116.608,261.746,116.462,262.242,116.462,262.91z"/>
				</g>
			</g>
		</g>
		<g>
			<path fill-rule="evenodd" clip-rule="evenodd" fill="#FFFFFF" d="M143.196,265.861c0.043-0.18,0.07-0.367,0.129-0.543
				c0.322-0.969,1.041-1.51,1.979-1.809c0.078-0.023,0.156-0.041,0.25-0.066c0-0.861,0-1.721,0-2.578
				c0-0.172-0.004-0.344,0.002-0.516c0.014-0.436,0.35-0.797,0.785-0.824c0.301-0.02,0.602-0.004,0.896-0.004
				c0.094-0.562,0.229-0.729,0.58-0.74c0.379-0.012,0.527,0.15,0.646,0.719c0.262,0,0.525,0,0.807,0
				c-0.094-0.424-0.057-0.816,0.293-1.08c0.184-0.139,0.439-0.254,0.664-0.256c4.074-0.016,8.148-0.012,12.225-0.01
				c0.633,0.002,1.098,0.564,0.988,1.184c-0.008,0.049-0.008,0.096-0.014,0.174c0.1,0,0.188,0,0.275,0c0.811,0,1.619,0,2.43,0.002
				c0.658,0.002,1.002,0.334,1.004,0.994c0.008,1.564,0.006,3.127,0,4.689c-0.002,0.664-0.342,0.996-1.002,0.996
				c-6.531,0.002-13.061,0.002-19.59,0c-0.66,0-0.988-0.336-0.99-1.002c0-0.146,0-0.293,0-0.441
				c-0.504,0.055-1.002,0.631-1.033,1.186c-0.043,0.758,0.432,1.373,1.25,1.594c0.625,0.172,1.264,0.234,1.914,0.225
				c0.867-0.014,1.74-0.061,2.598,0.037c1.775,0.207,3.217,1.078,4.352,2.449c0.309,0.371,0.199,0.736-0.291,1.072
				c-0.098,0-0.195,0-0.295,0c-0.113-0.102-0.229-0.205-0.344-0.307c-0.434-0.381-0.834-0.812-1.309-1.135
				c-1.123-0.762-2.402-0.945-3.736-0.932c-0.887,0.01-1.783,0.006-2.66-0.1c-1.07-0.129-1.918-0.697-2.439-1.654
				c-0.191-0.354-0.246-0.781-0.363-1.176C143.196,265.96,143.196,265.912,143.196,265.861z"/>
			<path fill-rule="evenodd" clip-rule="evenodd" fill="#FFFFFF" d="M154.786,243.421c0.236,0.057,0.48,0.09,0.707,0.172
				c1.361,0.496,2.229,1.447,2.467,2.885c0.238,1.449-0.281,2.631-1.445,3.523c-0.137,0.105-0.182,0.195-0.146,0.363
				c0.346,1.627,0.684,3.256,1.023,4.885c0.014,0.062,0.035,0.125,0.061,0.213c0.084,0,0.172,0,0.26,0
				c0.646,0,1.293-0.006,1.939,0.004c0.516,0.008,0.838,0.43,0.674,0.865c-0.047,0.125-0.115,0.193-0.268,0.193
				c-2.471-0.006-4.943-0.006-7.414,0c-0.225,0-0.283-0.129-0.309-0.299c-0.07-0.436,0.223-0.754,0.709-0.76
				c0.539-0.008,1.078-0.004,1.619-0.004c0.088,0,0.178,0,0.305,0c-0.096-0.465-0.186-0.908-0.277-1.352
				c-0.225-1.068-0.455-2.137-0.668-3.209c-0.033-0.17-0.102-0.221-0.26-0.246c-1.5-0.252-2.646-1.365-2.961-2.863
				c-0.428-2.047,0.965-4.031,3.039-4.326c0.037-0.006,0.072-0.029,0.109-0.045C154.229,243.421,154.507,243.421,154.786,243.421z
				 M156.643,246.912c-0.037-0.865-0.328-1.473-0.988-1.869c-0.324-0.193-0.611-0.127-0.783,0.158
				c-0.168,0.273-0.092,0.475,0.254,0.691c0.43,0.268,0.613,0.738,0.482,1.227c-0.021,0.078-0.049,0.156-0.059,0.236
				c-0.027,0.248,0.168,0.521,0.4,0.58c0.229,0.057,0.453-0.072,0.537-0.346C156.565,247.333,156.608,247.068,156.643,246.912z"/>
			<path fill-rule="evenodd" clip-rule="evenodd" fill="#FFFFFF" d="M156.337,257.855c-1.85,0-3.697,0-5.547,0
				c-0.248,0-0.293-0.053-0.27-0.303c0.037-0.396,0.338-0.697,0.732-0.73c0.082-0.008,0.162-0.01,0.244-0.01
				c3.232,0,6.465,0,9.695-0.002c0.336,0,0.637,0.055,0.832,0.361c0.051,0.082,0.096,0.174,0.117,0.266
				c0.078,0.348,0.018,0.418-0.332,0.418C159.985,257.855,158.161,257.855,156.337,257.855z"/>
		</g>
		<g>
			<path fill="#FFFFFF" d="M55.625,67.073v-9.076h1.932l1.951,6.239c0.035,0.132,0.086,0.316,0.15,0.558
				c0.062,0.239,0.139,0.533,0.225,0.882c0.061-0.296,0.121-0.569,0.18-0.821c0.061-0.254,0.115-0.464,0.164-0.631l1.9-6.227h1.865
				v9.076h-1.107v-6.491c0-0.368,0.002-0.702,0.006-0.996c0.004-0.297,0.01-0.597,0.018-0.905l-2.559,8.392h-1.021l-2.621-8.478
				c0.014,0.324,0.021,0.672,0.027,1.044c0.008,0.375,0.01,0.771,0.01,1.195v6.238H55.625z"/>
			<path fill="#FFFFFF" d="M66.574,62.396h-1.162v-0.124c0-0.549,0.189-0.965,0.57-1.25c0.379-0.285,0.938-0.428,1.676-0.428
				c0.729,0,1.266,0.148,1.611,0.444c0.344,0.299,0.516,0.764,0.516,1.394v2.955c0,0.291,0.01,0.577,0.029,0.859
				c0.018,0.279,0.045,0.555,0.082,0.827h-1.082l-0.074-0.795c-0.213,0.277-0.461,0.486-0.744,0.634
				c-0.283,0.148-0.58,0.221-0.893,0.221c-0.537,0-0.975-0.177-1.309-0.533c-0.338-0.358-0.506-0.826-0.506-1.403
				c0-0.726,0.234-1.273,0.705-1.642c0.469-0.371,1.17-0.556,2.102-0.556h0.607v-0.312c0-0.499-0.072-0.84-0.219-1.03
				c-0.145-0.187-0.396-0.283-0.752-0.283c-0.383,0-0.67,0.081-0.865,0.244c-0.193,0.163-0.293,0.401-0.293,0.717V62.396z
				 M68.715,63.755c-0.873,0-1.48,0.102-1.826,0.307c-0.344,0.202-0.516,0.546-0.516,1.029c0,0.313,0.094,0.572,0.281,0.779
				c0.189,0.207,0.428,0.311,0.715,0.311c0.426,0,0.758-0.167,0.992-0.501c0.236-0.335,0.354-0.812,0.354-1.432V63.755z"/>
			<path fill="#FFFFFF" d="M71.177,69.464v-7.597c0-0.324-0.004-0.562-0.012-0.714c-0.01-0.15-0.023-0.287-0.043-0.407h1.111
				l0.062,0.604c0.197-0.259,0.418-0.451,0.662-0.579c0.244-0.126,0.52-0.19,0.826-0.19c0.711,0,1.23,0.26,1.564,0.782
				c0.332,0.52,0.498,1.339,0.498,2.46c0,1.16-0.168,2.018-0.506,2.572c-0.336,0.553-0.854,0.829-1.557,0.829
				c-0.324,0-0.611-0.071-0.863-0.218c-0.252-0.146-0.469-0.364-0.65-0.655v3.112H71.177z M72.26,63.935
				c0,0.82,0.105,1.42,0.314,1.798c0.209,0.38,0.537,0.57,0.984,0.57c0.406,0,0.703-0.192,0.889-0.576
				c0.188-0.383,0.279-0.997,0.279-1.842c0-0.941-0.094-1.591-0.281-1.955c-0.189-0.364-0.512-0.544-0.967-0.544
				c-0.426,0-0.736,0.2-0.93,0.597C72.357,62.38,72.26,63.033,72.26,63.935z"/>
			<path fill="#FFFFFF" d="M78.148,62.396h-1.164v-0.124c0-0.549,0.189-0.965,0.57-1.25c0.379-0.285,0.938-0.428,1.676-0.428
				c0.73,0,1.268,0.148,1.611,0.444c0.344,0.299,0.518,0.764,0.518,1.394v2.955c0,0.291,0.008,0.577,0.027,0.859
				c0.02,0.279,0.047,0.555,0.084,0.827h-1.084l-0.074-0.795c-0.213,0.277-0.461,0.486-0.744,0.634
				c-0.281,0.148-0.58,0.221-0.891,0.221c-0.537,0-0.975-0.177-1.311-0.533c-0.336-0.358-0.504-0.826-0.504-1.403
				c0-0.726,0.234-1.273,0.703-1.642c0.469-0.371,1.17-0.556,2.102-0.556h0.607v-0.312c0-0.499-0.072-0.84-0.217-1.03
				c-0.146-0.187-0.396-0.283-0.754-0.283c-0.383,0-0.67,0.081-0.865,0.244c-0.193,0.163-0.291,0.401-0.291,0.717V62.396z
				 M80.289,63.755c-0.875,0-1.482,0.102-1.828,0.307c-0.344,0.202-0.516,0.546-0.516,1.029c0,0.313,0.094,0.572,0.281,0.779
				c0.189,0.207,0.428,0.311,0.715,0.311c0.426,0,0.758-0.167,0.994-0.501c0.236-0.335,0.354-0.812,0.354-1.432V63.755z"/>
			<path fill="#FFFFFF" d="M49.396,74.772v0.203c0,0.862-0.227,1.532-0.682,2.014c-0.457,0.482-1.09,0.724-1.902,0.724
				c-0.385,0-0.744-0.056-1.08-0.167c-0.334-0.11-0.604-0.262-0.809-0.456c-0.344-0.315-0.588-0.77-0.729-1.364
				c-0.143-0.596-0.213-1.562-0.213-2.892c0-0.931,0.045-1.647,0.133-2.148c0.088-0.499,0.236-0.918,0.445-1.254
				c0.205-0.336,0.502-0.594,0.889-0.775c0.389-0.181,0.838-0.27,1.352-0.27c0.824,0,1.453,0.231,1.885,0.691
				c0.434,0.46,0.648,1.134,0.648,2.015h-1.271v-0.134c0-0.543-0.107-0.944-0.324-1.213c-0.215-0.266-0.541-0.399-0.975-0.399
				c-0.275,0-0.516,0.055-0.723,0.159c-0.207,0.106-0.375,0.263-0.502,0.469c-0.127,0.205-0.217,0.514-0.271,0.931
				c-0.053,0.418-0.078,1.208-0.078,2.372c0,1.375,0.115,2.294,0.348,2.761c0.23,0.468,0.641,0.702,1.227,0.702
				c0.467,0,0.812-0.152,1.037-0.458c0.223-0.307,0.336-0.776,0.336-1.408v-0.104H49.396z"/>
			<path fill="#FFFFFF" d="M50.609,74.396c0-1.15,0.189-1.989,0.568-2.509c0.379-0.522,0.984-0.782,1.812-0.782
				c0.832,0,1.436,0.26,1.809,0.777c0.373,0.52,0.559,1.364,0.559,2.528c0,1.163-0.188,2.006-0.562,2.53
				c-0.375,0.523-0.977,0.784-1.805,0.784c-0.838,0-1.443-0.261-1.818-0.784C50.797,76.417,50.609,75.568,50.609,74.396z
				 M52.99,72.028c-0.451,0-0.777,0.187-0.977,0.554c-0.197,0.37-0.297,0.978-0.297,1.829c0,0.865,0.098,1.479,0.295,1.844
				c0.197,0.365,0.523,0.549,0.979,0.549c0.451,0,0.773-0.184,0.969-0.549c0.193-0.365,0.291-0.975,0.291-1.832
				c0-0.871-0.098-1.487-0.291-1.85C53.763,72.208,53.441,72.028,52.99,72.028z"/>
			<path fill="#FFFFFF" d="M59.984,77.572v-4.042c0-0.615-0.078-1.035-0.236-1.266c-0.158-0.226-0.428-0.341-0.811-0.341
				c-0.43,0-0.744,0.16-0.939,0.479c-0.197,0.318-0.297,0.822-0.297,1.515v3.655h-1.082v-5.327c0-0.137-0.006-0.286-0.016-0.45
				c-0.01-0.165-0.025-0.346-0.045-0.548h1.105l0.049,0.733c0.223-0.308,0.469-0.532,0.736-0.675
				c0.27-0.142,0.582-0.212,0.938-0.212c0.521,0,0.934,0.154,1.238,0.459c0.303,0.305,0.455,0.721,0.455,1.246v4.774H59.984z"/>
			<path fill="#FFFFFF" d="M65.853,75.431h1.088c-0.012,0.726-0.217,1.29-0.617,1.69c-0.4,0.403-0.953,0.603-1.658,0.603
				c-0.834,0-1.436-0.258-1.809-0.775c-0.373-0.517-0.561-1.361-0.561-2.527c0-1.169,0.188-2.015,0.561-2.535
				c0.373-0.522,0.975-0.782,1.809-0.782c0.672,0,1.215,0.181,1.627,0.538c0.412,0.36,0.619,0.832,0.619,1.42v0.134H65.84
				c0-0.368-0.096-0.654-0.291-0.862c-0.195-0.204-0.469-0.307-0.822-0.307c-0.48,0-0.82,0.178-1.021,0.529
				c-0.201,0.354-0.301,0.974-0.301,1.866c0,0.865,0.098,1.478,0.293,1.837c0.193,0.362,0.518,0.543,0.969,0.543
				c0.352,0,0.635-0.124,0.85-0.373C65.728,76.182,65.84,75.848,65.853,75.431z"/>
			<path fill="#FFFFFF" d="M72.621,75.588c-0.033,0.671-0.25,1.194-0.65,1.571c-0.398,0.377-0.939,0.565-1.619,0.565
				c-0.846,0-1.453-0.258-1.818-0.775c-0.367-0.517-0.551-1.381-0.551-2.589c0-1.136,0.188-1.963,0.564-2.479
				c0.379-0.518,0.979-0.776,1.805-0.776c0.781,0,1.355,0.207,1.723,0.618c0.363,0.413,0.547,1.063,0.547,1.955v0.984h-3.52v0.362
				c0,0.624,0.1,1.075,0.299,1.355c0.197,0.282,0.516,0.423,0.951,0.423c0.332,0,0.598-0.106,0.801-0.315
				c0.203-0.208,0.332-0.508,0.387-0.899H72.621z M69.107,73.844h2.443v-0.542c0-0.476-0.1-0.838-0.295-1.083
				c-0.197-0.246-0.486-0.369-0.869-0.369c-0.426,0-0.742,0.158-0.951,0.479C69.228,72.649,69.121,73.153,69.107,73.844z"/>
			<path fill="#FFFFFF" d="M73.808,79.964v-7.598c0-0.323-0.004-0.56-0.012-0.713c-0.01-0.15-0.023-0.288-0.043-0.406h1.113
				l0.061,0.604c0.197-0.26,0.418-0.453,0.662-0.579s0.52-0.191,0.826-0.191c0.711,0,1.23,0.26,1.564,0.783
				c0.332,0.519,0.498,1.339,0.498,2.459c0,1.161-0.168,2.018-0.506,2.572c-0.336,0.554-0.854,0.83-1.557,0.83
				c-0.322,0-0.611-0.072-0.863-0.219c-0.252-0.144-0.469-0.362-0.65-0.654v3.113H73.808z M74.89,74.433
				c0,0.822,0.105,1.422,0.314,1.801c0.209,0.379,0.537,0.57,0.984,0.57c0.406,0,0.703-0.191,0.889-0.575
				c0.188-0.384,0.279-0.999,0.279-1.844c0-0.94-0.094-1.589-0.281-1.952c-0.189-0.364-0.512-0.544-0.967-0.544
				c-0.426,0-0.736,0.198-0.93,0.596C74.988,72.881,74.89,73.531,74.89,74.433z"/>
			<path fill="#FFFFFF" d="M81.152,69.457v1.79h1.262v0.781h-1.262v3.79c0,0.341,0.053,0.575,0.158,0.706
				c0.104,0.129,0.297,0.192,0.574,0.192c0.1,0,0.264-0.007,0.492-0.023h0.037l-0.006,0.818c-0.168,0.037-0.326,0.064-0.473,0.082
				c-0.148,0.02-0.287,0.029-0.414,0.029c-0.533,0-0.908-0.105-1.125-0.313c-0.217-0.208-0.326-0.579-0.326-1.107v-4.172h-0.961
				v-0.781h0.961v-1.272L81.152,69.457z"/>
			<path fill="#FFFFFF" d="M84.371,71.247v4.029c0,0.612,0.078,1.031,0.232,1.258c0.156,0.228,0.428,0.341,0.812,0.341
				c0.428,0,0.738-0.156,0.936-0.471c0.197-0.314,0.295-0.816,0.295-1.503v-3.655h1.084v5.328c0.004,0.14,0.01,0.291,0.02,0.456
				c0.012,0.163,0.025,0.344,0.041,0.542h-1.102l-0.055-0.746c-0.221,0.31-0.469,0.535-0.738,0.679
				c-0.271,0.147-0.582,0.219-0.936,0.219c-0.521,0-0.932-0.152-1.236-0.458c-0.303-0.304-0.455-0.72-0.455-1.246v-4.775H84.371z"/>
			<path fill="#FFFFFF" d="M90.203,72.896h-1.164v-0.124c0-0.548,0.189-0.966,0.57-1.252c0.379-0.284,0.938-0.427,1.676-0.427
				c0.73,0,1.268,0.148,1.611,0.445c0.346,0.299,0.518,0.763,0.518,1.395v2.952c0,0.291,0.008,0.578,0.027,0.858
				c0.02,0.281,0.047,0.556,0.084,0.829h-1.084l-0.074-0.794c-0.213,0.274-0.461,0.486-0.744,0.634
				c-0.281,0.148-0.58,0.222-0.891,0.222c-0.537,0-0.975-0.178-1.311-0.534c-0.336-0.358-0.504-0.827-0.504-1.403
				c0-0.727,0.234-1.273,0.703-1.644c0.469-0.369,1.17-0.555,2.102-0.555h0.609v-0.312c0-0.496-0.074-0.838-0.219-1.027
				c-0.146-0.188-0.396-0.283-0.754-0.283c-0.383,0-0.67,0.081-0.863,0.244c-0.195,0.162-0.293,0.4-0.293,0.717V72.896z
				 M92.344,74.254c-0.873,0-1.482,0.102-1.826,0.305C90.172,74.763,90,75.107,90,75.588c0,0.313,0.094,0.573,0.281,0.78
				c0.191,0.208,0.428,0.311,0.715,0.311c0.428,0,0.758-0.167,0.994-0.501s0.354-0.811,0.354-1.432V74.254z"/>
			<path fill="#FFFFFF" d="M95.875,77.572h-1.082v-9.075h1.082V77.572z"/>
		</g>
		<g>
			<path fill-rule="evenodd" clip-rule="evenodd" fill="#FFFFFF" d="M144.736,64.801h-8.436v-4.149h0.102
				c0.814-0.018,2.395-0.183,3.777-0.332c0.041,0.003,0.082,0.003,0.125,0.006l0.17-0.021c1.053,0.021,2.107,0.091,3.148,0.003
				c0.34-0.03,0.9-0.539,0.912-0.846c0.082-2.103,0.043-4.213,0.043-6.39h-13.424c0,0.021,0,0.046-0.004,0.067
				c-0.488-0.019-0.852-0.021-1.129-0.012c-0.018-0.049-0.033-0.098-0.053-0.146c-0.164,0.07-0.361,0.14-0.568,0.206
				c-0.004,0-0.004,0-0.004,0c-0.123,0.025-0.172,0.053-0.188,0.062c-0.008,0.003-0.01,0.006-0.01,0.006
				c-0.646,0.211-1.309,0.42-1.318,0.657c-0.094,2.192,0.098,4.399,0.203,6.755c2.594,0,5.129,0.031,7.656-0.006
				c-0.07,0.637-0.18,1.583-0.113,2.059c0.305,2.139,0.205,2.249-1.98,2.331c-1.787,0.067-3.568,0.247-5.348,0.377
				c0,1.029,0.018,2.001,0.021,2.941v0.003c-0.018-0.083-0.035-0.166-0.053-0.249c-1.252,0.228-6.369,0.901-7.396,1.511
				c-0.529,0.317-0.373,1.791-0.521,2.743c-0.023,0.149,0.031,0.333-0.039,0.447c-0.717,1.166,0.045,1.998,0.527,2.894
				c0.168-0.019,0.338-0.039,0.506-0.06c-0.139-1.287-0.236-2.58-0.428-3.858c-0.168-1.099-0.053-1.901,1.293-2.04
				c0.811-0.083,5.189-0.981,6.111-1.158v0.001c0.002,0.734-0.01,1.449-0.047,2.165c-0.055,1.12,0.283,1.507,1.438,1.491
				c4.096-0.061,8.197-0.009,12.295-0.042c0.512-0.004,1.02-0.242,1.527-0.373c0.004-0.002,0.004-0.002,0.008-0.006h0.016
				c-0.008,0.003-0.016,0.003-0.023,0.006c-0.004,0.004-0.006,0.009-0.008,0.013c1.43,0.347,1.67-0.652,1.643-1.634
				C145.123,68.518,144.906,66.819,144.736,64.801z"/>
			<path fill-rule="evenodd" clip-rule="evenodd" fill="#FFFFFF" d="M140.91,79.523c-0.074,0.002-0.148,0.009-0.223,0.015
				c-0.012-1.271-0.076-1.988-0.145-2.396c0.232,0.311,0.385,0.755,0.432,1.388c0.393-1.915-0.369-2.901-1.928-2.816
				c-1.783,0.098-3.57,0.234-5.357,0.268c-1.367,0.028-1.76,0.563-1.182,1.798c-0.182,0.213-0.523,0.424-0.525,0.64
				c-0.031,1.769-0.076,3.543,0.078,5.3c0.037,0.376,0.871,0.953,1.355,0.971c2.219,0.084,4.447-0.009,6.672-0.007
				c0.725,0,1.182-0.188,1.117-1.016C141.101,82.287,141.008,80.904,140.91,79.523z"/>
			<path fill-rule="evenodd" clip-rule="evenodd" fill="#FFFFFF" d="M155.929,79.154c0-0.003,0-0.003,0-0.006
				c-0.225-1.497-0.246-1.382-0.775-3.424c0.133,0,0.264-0.003,0.398-0.003c-0.004-0.202-0.006-0.402-0.006-0.606
				c-1.998,0-4.008-0.119-5.982,0.07c-0.639,0.064-1.199,0.943-1.797,1.452v6.256h8.326
				C156.027,81.483,156.367,80.259,155.929,79.154z"/>
			<path fill-rule="evenodd" clip-rule="evenodd" fill="#FFFFFF" d="M123.068,76.308c-1.814,0.312-3.635,0.598-5.449,0.896
				c-0.865-0.059-1.309,0.237-1.203,1.212c0.162,1.5,0.162,3.019,0.369,4.514c0.268,1.954,0.471,2.107,2.533,2.04
				c1.029-0.034,2.049-0.247,3.074-0.378c-0.025-0.005-0.053-0.012-0.076-0.018c0.943-0.055,1.635-0.231,1.711-0.253
				c0.004,0,0.006,0,0.006,0c0.533-0.058,1.068-0.115,1.613-0.173c-0.094-2.091-0.121-4.006-0.285-5.912
				C125.248,76.922,124.603,76.046,123.068,76.308z"/>
			<path fill-rule="evenodd" clip-rule="evenodd" fill="#FFFFFF" d="M152.719,74.011c0.184-0.032,0.365-0.062,0.549-0.094
				c-0.348-1.647-0.691-3.293-1.037-4.94c-0.25-0.282-0.49-0.801-0.75-0.81c-1.955-0.07-3.914-0.038-5.871-0.038
				c0.004,0.187,0.004,0.375,0.006,0.562c0.711,0,1.426-0.05,2.131,0.011c1.422,0.127,2.838,0.313,4.256,0.475
				C152.205,70.796,151.474,72.578,152.719,74.011z"/>
		</g>
	</g>
	<g>
		<path fill-rule="evenodd" clip-rule="evenodd" fill="#FFFFFF" d="M168.068,317.691c0.009-0.155,0.021-0.267,0.021-0.378
			c0.001-2.558-0.008-5.114,0.009-7.671c0.003-0.362-0.116-0.438-0.453-0.436c-2.603,0.013-5.206,0.005-7.809,0.008
			c-0.38,0-0.68-0.141-0.846-0.486c-0.155-0.326-0.153-0.681,0.109-0.933c0.175-0.168,0.451-0.323,0.683-0.324
			c3.053-0.021,6.104-0.018,9.156-0.012c0.553,0.001,0.907,0.36,0.908,0.917c0.004,3.387,0.004,6.772,0,10.158
			c-0.001,0.548-0.325,0.917-0.868,0.919c-3.339,0.01-6.679,0.001-10.019-0.002c-0.689,0-1.379,0.007-2.066,0.003
			c-1.047-0.005-2.092-0.023-3.137-0.021c-0.953,0.001-1.906,0.031-2.859,0.032c-4.212,0.005-8.424,0.002-12.636,0.002
			c-0.149,0-0.3,0.003-0.448-0.009c-0.544-0.044-0.861-0.376-0.869-0.923c-0.01-0.565-0.004-1.129-0.004-1.693
			c0-2.776,0-5.551,0.002-8.327c0-0.734,0.32-1.059,1.047-1.06c2.972,0,5.942-0.001,8.914,0.001
			c0.635,0.001,1.013,0.366,0.982,0.939c-0.026,0.5-0.393,0.815-0.965,0.815c-2.568,0.003-5.137,0.002-7.705,0.003
			c-0.513,0-0.514,0-0.514,0.496c-0.002,2.533,0.004,5.067-0.008,7.601c-0.002,0.307,0.086,0.387,0.388,0.387
			c2.683-0.012,5.367-0.011,8.05-0.006c2.082,0.004,4.164,0.023,6.246,0.022c4.765-0.003,9.529-0.015,14.295-0.023
			C167.796,317.691,167.919,317.691,168.068,317.691z"/>
		<path fill-rule="evenodd" clip-rule="evenodd" fill="#FFFFFF" d="M157.014,295.609c0,1.565,0.008,3.13-0.008,4.695
			c-0.003,0.326,0.104,0.406,0.414,0.402c1.255-0.016,2.51-0.016,3.764-0.005c0.795,0.008,1.25,0.709,0.87,1.333
			c-0.118,0.193-0.289,0.356-0.443,0.527c-1.421,1.565-2.845,3.129-4.267,4.694c-1.075,1.185-2.148,2.37-3.227,3.553
			c-0.441,0.484-1,0.49-1.438,0.009c-1.991-2.188-3.979-4.379-5.967-6.568c-0.594-0.654-1.186-1.311-1.785-1.96
			c-0.291-0.316-0.418-0.663-0.234-1.071c0.18-0.398,0.527-0.52,0.936-0.52c1.266,0,2.532-0.007,3.799,0.007
			c0.275,0.003,0.353-0.088,0.352-0.356c-0.011-2.82-0.012-5.64-0.014-8.46c0-0.367-0.006-0.733,0.004-1.1
			c0.012-0.419,0.426-0.832,0.895-0.844c0.664-0.016,1.329,0.017,1.993,0.022c0.597,0.004,1.192-0.006,1.788-0.003
			s1.192-0.015,1.785,0.025c0.507,0.035,0.724,0.296,0.737,0.82c0.022,0.839,0.031,1.679,0.038,2.518c0.006,0.76,0,1.52,0,2.28
			C157.01,295.609,157.012,295.609,157.014,295.609z M147.612,302.479c-0.013,0.028-0.025,0.057-0.038,0.086
			c1.929,2.124,3.858,4.248,5.821,6.408c1.965-2.162,3.896-4.291,5.897-6.494c-0.226,0-0.339,0-0.451,0
			c-0.863,0-1.727,0.007-2.59-0.003c-0.648-0.008-0.995-0.35-0.997-0.978c-0.004-2.866-0.002-5.732-0.002-8.599
			c0-0.387,0-0.772,0-1.185c-1.07,0-2.07-0.007-3.07,0.002c-0.754,0.006-0.646-0.13-0.648,0.662
			c-0.008,3.026,0.002,6.053,0.002,9.079c0,0.662-0.332,0.998-0.993,1.019c-0.161,0.004-0.321,0.002-0.483,0.002
			C149.243,302.479,148.428,302.479,147.612,302.479z"/>
	</g>
	<g>
		<g>
			<path fill="#FFFFFF" d="M63.876,302.144H60.9v-9.405h2.639c0.925,0,1.614,0.06,2.082,0.188c0.454,0.122,0.873,0.333,1.246,0.62
				c0.525,0.42,0.929,0.973,1.211,1.66c0.285,0.692,0.425,1.481,0.425,2.367c0,0.712-0.106,1.373-0.304,1.973
				c-0.203,0.598-0.487,1.097-0.86,1.49c-0.383,0.399-0.833,0.681-1.346,0.854C65.488,302.058,64.78,302.144,63.876,302.144z
				 M64.164,301.022c1.009,0,1.759-0.287,2.261-0.863c0.504-0.574,0.755-1.43,0.755-2.585c0-1.218-0.277-2.162-0.838-2.816
				c-0.562-0.659-1.361-0.989-2.401-0.989h-1.785v7.254H64.164z"/>
			<path fill="#FFFFFF" d="M75.595,300.038c-0.002,0.682-0.248,1.229-0.731,1.641c-0.481,0.421-1.119,0.624-1.915,0.624
				c-1.019,0-1.794-0.276-2.319-0.844c-0.528-0.555-0.792-1.381-0.792-2.463c0-1.152,0.26-2.037,0.78-2.649
				c0.523-0.61,1.269-0.918,2.233-0.918c0.894,0,1.595,0.255,2.102,0.762c0.508,0.508,0.765,1.197,0.765,2.081
				c0,0.208,0,0.368,0,0.478c-0.011,0.114-0.021,0.218-0.024,0.317h-4.646v0.129v0.256c0,0.623,0.154,1.104,0.477,1.438
				c0.319,0.341,0.765,0.502,1.35,0.502c0.487,0,0.863-0.115,1.144-0.354c0.284-0.245,0.43-0.584,0.442-0.999H75.595z
				 M71.106,298.213h3.381v-0.145c0-0.546-0.148-0.986-0.447-1.312c-0.298-0.339-0.692-0.505-1.167-0.505
				c-0.525,0-0.946,0.186-1.272,0.543S71.106,297.63,71.106,298.213z"/>
			<path fill="#FFFFFF" d="M76.917,300.171h1.211v0.03c0,0.356,0.122,0.643,0.382,0.859c0.255,0.215,0.59,0.326,1.011,0.326
				c0.412,0,0.738-0.098,0.991-0.293c0.248-0.19,0.379-0.438,0.379-0.741c0-0.227-0.064-0.407-0.19-0.552
				c-0.129-0.138-0.326-0.238-0.599-0.31l-1.395-0.326c-0.586-0.137-1.022-0.345-1.309-0.633c-0.288-0.278-0.43-0.641-0.43-1.071
				c0-0.604,0.243-1.087,0.733-1.463c0.483-0.368,1.124-0.56,1.918-0.56c0.736,0,1.314,0.158,1.74,0.465
				c0.429,0.312,0.639,0.731,0.639,1.267c0,0.053,0,0.088-0.002,0.118c0,0.032-0.009,0.051-0.009,0.077h-1.206v-0.055
				c0-0.312-0.108-0.563-0.335-0.749c-0.224-0.181-0.53-0.272-0.916-0.272c-0.379,0-0.69,0.092-0.936,0.272
				c-0.244,0.186-0.368,0.416-0.368,0.688c0,0.211,0.075,0.38,0.222,0.513c0.146,0.129,0.392,0.24,0.736,0.332l1.499,0.403
				c0.508,0.141,0.887,0.354,1.137,0.644c0.247,0.287,0.371,0.659,0.371,1.122c0,0.62-0.237,1.115-0.708,1.483
				c-0.474,0.37-1.11,0.555-1.913,0.555c-0.918,0-1.585-0.158-2.011-0.479c-0.426-0.318-0.644-0.818-0.644-1.494V300.171z"/>
			<path fill="#FFFFFF" d="M88.89,299.935c-0.049,0.769-0.295,1.354-0.729,1.756c-0.435,0.408-1.049,0.611-1.825,0.611
				c-0.932,0-1.647-0.283-2.155-0.854c-0.508-0.577-0.763-1.387-0.763-2.444c0-1.12,0.264-2.002,0.794-2.629
				c0.534-0.634,1.268-0.946,2.215-0.946c0.731,0,1.317,0.202,1.759,0.597c0.44,0.393,0.656,0.934,0.656,1.597v0.025h-1.169
				c0-0.392-0.135-0.713-0.388-0.977c-0.258-0.266-0.574-0.396-0.949-0.396c-0.516,0-0.921,0.223-1.215,0.659
				c-0.297,0.434-0.443,1.029-0.443,1.784c0,0.885,0.138,1.546,0.41,1.994c0.274,0.449,0.685,0.675,1.22,0.675
				c0.425,0,0.767-0.134,1.013-0.395c0.257-0.258,0.388-0.61,0.406-1.058H88.89z"/>
			<path fill="#FFFFFF" d="M95.584,302.144h-1.087c-0.044-0.134-0.086-0.466-0.126-0.996v-0.036
				c-0.162,0.386-0.428,0.685-0.791,0.888c-0.354,0.202-0.792,0.303-1.313,0.303c-0.663,0-1.197-0.177-1.592-0.542
				c-0.401-0.358-0.603-0.835-0.603-1.431c0-0.695,0.276-1.243,0.83-1.649c0.556-0.407,1.31-0.611,2.261-0.611h1.144v-0.796
				c0-0.353-0.108-0.619-0.326-0.799c-0.224-0.185-0.545-0.275-0.967-0.275c-0.406,0-0.726,0.099-0.963,0.301
				c-0.235,0.198-0.355,0.479-0.368,0.823h-1.163v-0.1c0-0.58,0.206-1.024,0.621-1.332c0.417-0.311,1.009-0.463,1.789-0.463
				c0.909,0,1.563,0.161,1.975,0.483c0.409,0.319,0.615,0.842,0.615,1.562v4.048c0,0.052,0,0.135,0.014,0.245
				C95.551,301.89,95.561,302.01,95.584,302.144z M94.306,298.893h-1.02c-0.627,0-1.109,0.114-1.452,0.346
				c-0.347,0.236-0.517,0.558-0.517,0.974c0,0.317,0.115,0.582,0.348,0.793c0.235,0.213,0.53,0.318,0.887,0.318
				c0.563,0,0.996-0.147,1.304-0.459c0.3-0.301,0.45-0.746,0.45-1.322V298.893z"/>
			<path fill="#FFFFFF" d="M97.467,302.144v-5.526c0-0.213-0.008-0.402-0.012-0.558c-0.009-0.156-0.016-0.315-0.035-0.471h1.219
				l0.022,1.253c0.12-0.412,0.334-0.724,0.643-0.938c0.31-0.21,0.71-0.314,1.204-0.314c0.087,0,0.173,0,0.256,0.01
				c0.084,0.013,0.166,0.015,0.236,0.031v1.131c-0.13-0.022-0.253-0.041-0.359-0.059c-0.106-0.008-0.208-0.015-0.292-0.015
				c-0.539,0-0.958,0.144-1.247,0.459c-0.294,0.3-0.44,0.741-0.44,1.315v3.682H97.467z"/>
			<path fill="#FFFFFF" d="M106.764,300.904c-0.133,0.258-0.379,0.476-0.768,0.659c-0.373,0.193-0.769,0.279-1.186,0.279
				c-0.916,0-1.623-0.272-2.119-0.82c-0.492-0.547-0.741-1.342-0.741-2.383c0-0.979,0.253-1.753,0.761-2.327
				c0.506-0.576,1.184-0.873,2.042-0.873c0.508,0,0.938,0.084,1.281,0.244c0.353,0.159,0.618,0.398,0.816,0.716l0.046-0.81h1.131
				c-0.013,0.187-0.027,0.37-0.037,0.546c-0.009,0.179-0.014,0.385-0.014,0.618v5.181c0,0.976-0.241,1.689-0.729,2.138
				c-0.483,0.451-1.262,0.67-2.314,0.67c-0.918,0-1.59-0.17-2.009-0.522c-0.421-0.345-0.634-0.906-0.641-1.668h1.304
				c0.007,0.439,0.131,0.771,0.377,0.996c0.248,0.232,0.609,0.344,1.086,0.344c0.586,0,1.016-0.143,1.293-0.429
				c0.277-0.283,0.421-0.731,0.421-1.334V300.904z M106.907,298.578c0-0.704-0.17-1.267-0.506-1.688
				c-0.339-0.415-0.785-0.623-1.351-0.623c-0.554,0-1,0.222-1.332,0.673c-0.329,0.448-0.499,1.064-0.499,1.84
				c0,0.704,0.17,1.275,0.508,1.686c0.33,0.411,0.785,0.624,1.35,0.624c0.555,0,0.994-0.226,1.331-0.677
				C106.743,299.965,106.907,299.353,106.907,298.578z"/>
			<path fill="#FFFFFF" d="M115.09,302.144h-1.079c-0.049-0.134-0.087-0.466-0.131-0.996v-0.036
				c-0.164,0.386-0.428,0.685-0.787,0.888c-0.366,0.202-0.796,0.303-1.319,0.303c-0.663,0-1.192-0.177-1.597-0.542
				c-0.393-0.358-0.596-0.835-0.596-1.431c0-0.695,0.279-1.243,0.829-1.649c0.554-0.407,1.308-0.611,2.264-0.611h1.141v-0.796
				c0-0.353-0.109-0.619-0.325-0.799c-0.217-0.185-0.543-0.275-0.967-0.275c-0.406,0-0.725,0.099-0.962,0.301
				c-0.239,0.198-0.361,0.479-0.375,0.823h-1.157v-0.1c0-0.58,0.211-1.024,0.621-1.332c0.41-0.311,1.009-0.463,1.787-0.463
				c0.904,0,1.565,0.161,1.976,0.483c0.41,0.319,0.617,0.842,0.617,1.562v4.048c0,0.052,0.005,0.135,0.015,0.245
				C115.052,301.89,115.07,302.01,115.09,302.144z M113.814,298.893h-1.021c-0.623,0-1.108,0.114-1.457,0.346
				c-0.339,0.236-0.516,0.558-0.516,0.974c0,0.317,0.119,0.582,0.356,0.793c0.232,0.213,0.525,0.318,0.883,0.318
				c0.567,0,1-0.147,1.303-0.459c0.305-0.301,0.452-0.746,0.452-1.322V298.893z"/>
			<path fill="#FFFFFF" d="M116.972,302.144v-5.526c0-0.213-0.005-0.402-0.011-0.558c-0.011-0.156-0.021-0.315-0.024-0.471h1.206
				l0.026,1.253c0.117-0.412,0.335-0.724,0.646-0.938c0.304-0.21,0.705-0.314,1.199-0.314c0.087,0,0.169,0,0.255,0.01
				c0.082,0.013,0.164,0.015,0.244,0.031v1.131c-0.14-0.022-0.253-0.041-0.365-0.059c-0.111-0.008-0.211-0.015-0.291-0.015
				c-0.548,0-0.958,0.144-1.253,0.459c-0.288,0.3-0.435,0.741-0.435,1.315v3.682H116.972z"/>
			<path fill="#FFFFFF" d="M71.536,309.428c0-1.562,0.375-2.762,1.118-3.608c0.747-0.842,1.809-1.266,3.188-1.266
				c1.37,0,2.424,0.42,3.169,1.26c0.745,0.843,1.111,2.042,1.111,3.614c0,1.541-0.378,2.73-1.118,3.572
				c-0.747,0.84-1.801,1.262-3.162,1.262c-1.365,0-2.423-0.422-3.177-1.271C71.913,312.146,71.536,310.956,71.536,309.428z
				 M72.878,309.364c0,1.219,0.255,2.159,0.769,2.822c0.511,0.663,1.231,0.988,2.174,0.988c0.951,0,1.681-0.316,2.182-0.971
				c0.508-0.65,0.763-1.587,0.763-2.814c0-1.229-0.255-2.166-0.763-2.824c-0.506-0.651-1.23-0.977-2.182-0.977
				c-0.945,0-1.67,0.325-2.18,0.972C73.133,307.214,72.878,308.148,72.878,309.364z"/>
			<path fill="#FFFFFF" d="M81.864,304.694h1.201v3.846c0.328-0.379,0.681-0.652,1.033-0.83c0.366-0.178,0.759-0.266,1.187-0.266
				c0.885,0,1.567,0.295,2.051,0.881c0.49,0.592,0.729,1.428,0.729,2.509c0,1.064-0.256,1.905-0.762,2.513
				c-0.507,0.61-1.206,0.916-2.092,0.916c-0.463,0-0.873-0.09-1.236-0.273c-0.361-0.173-0.663-0.438-0.909-0.793l-0.056,0.902
				h-1.224c0.026-0.216,0.051-0.426,0.061-0.642c0.015-0.214,0.018-0.433,0.018-0.663V304.694z M83.065,310.938
				c0,0.77,0.175,1.381,0.521,1.841c0.344,0.452,0.807,0.688,1.372,0.688c0.568,0,1.021-0.247,1.36-0.735
				c0.345-0.485,0.514-1.148,0.514-1.984c0-0.768-0.176-1.38-0.523-1.834c-0.342-0.453-0.801-0.678-1.373-0.678
				c-0.569,0-1.018,0.241-1.359,0.727C83.234,309.45,83.065,310.107,83.065,310.938z"/>
			<path fill="#FFFFFF" d="M89.727,314.562v-7.017h1.215v7.265c0,0.647-0.139,1.118-0.423,1.414
				c-0.281,0.297-0.718,0.447-1.325,0.447c-0.077,0-0.233-0.015-0.462-0.034c-0.077-0.006-0.142-0.016-0.184-0.018v-0.886
				c0.485,0,0.803-0.063,0.958-0.188C89.655,315.418,89.727,315.088,89.727,314.562z M91.032,306.029h-1.393v-1.335h1.393V306.029z"
				/>
			<path fill="#FFFFFF" d="M98.397,312c-0.006,0.677-0.247,1.222-0.731,1.64c-0.481,0.414-1.123,0.623-1.916,0.623
				c-1.018,0-1.794-0.279-2.321-0.845c-0.523-0.56-0.789-1.38-0.789-2.466c0-1.153,0.256-2.035,0.78-2.65
				c0.521-0.609,1.266-0.912,2.234-0.912c0.889,0,1.59,0.252,2.098,0.759c0.51,0.507,0.77,1.2,0.77,2.077
				c0,0.214-0.005,0.369-0.009,0.478c-0.002,0.114-0.015,0.218-0.022,0.316h-4.645v0.134v0.256c0,0.619,0.155,1.106,0.479,1.44
				c0.317,0.339,0.764,0.503,1.351,0.503c0.481,0,0.857-0.121,1.144-0.369c0.284-0.24,0.429-0.57,0.438-0.983H98.397z
				 M93.901,310.169h3.39v-0.146c0-0.543-0.153-0.98-0.452-1.315c-0.301-0.333-0.688-0.498-1.164-0.498
				c-0.523,0-0.947,0.181-1.275,0.543C94.071,309.11,93.901,309.59,93.901,310.169z"/>
			<path fill="#FFFFFF" d="M99.306,307.545h1.119v-1.347l1.197-0.404v1.751h1.461v0.861h-1.461v4.02
				c0,0.343,0.061,0.567,0.167,0.676c0.117,0.108,0.337,0.164,0.671,0.164c0.08,0,0.176-0.006,0.273-0.023
				c0.092-0.014,0.206-0.036,0.321-0.068v0.916c-0.193,0.045-0.366,0.088-0.523,0.114c-0.159,0.032-0.304,0.044-0.422,0.044
				c-0.618,0-1.054-0.105-1.308-0.319c-0.251-0.212-0.377-0.567-0.377-1.071v-4.451h-1.119V307.545z"/>
			<path fill="#FFFFFF" d="M103.996,310.952c0-1.095,0.29-1.962,0.873-2.601c0.59-0.633,1.386-0.951,2.392-0.951
				c1.022,0,1.816,0.296,2.379,0.89c0.568,0.589,0.845,1.415,0.845,2.484c0,1.102-0.289,1.951-0.873,2.566
				c-0.59,0.616-1.405,0.922-2.465,0.922c-0.974,0-1.74-0.297-2.302-0.889C104.279,312.786,103.996,311.979,103.996,310.952z
				 M107.26,308.27c-0.622,0-1.112,0.23-1.476,0.705c-0.362,0.469-0.551,1.109-0.551,1.914c0,0.781,0.178,1.387,0.527,1.811
				c0.347,0.428,0.839,0.641,1.476,0.641c0.632,0,1.126-0.225,1.485-0.676c0.361-0.453,0.541-1.082,0.541-1.877
				c0-0.806-0.173-1.421-0.522-1.862C108.392,308.487,107.899,308.27,107.26,308.27z"/>
		</g>
	</g>
</g>
</svg>
