<?xml version="1.0" encoding="utf-8"?>
<!-- Generator: Adobe Illustrator 16.0.0, SVG Export Plug-In . SVG Version: 6.00 Build 0)  -->
<!DOCTYPE svg PUBLIC "-//W3C//DTD SVG 1.1//EN" "http://www.w3.org/Graphics/SVG/1.1/DTD/svg11.dtd">
<svg version="1.1" id="Capa_1" xmlns="http://www.w3.org/2000/svg" xmlns:xlink="http://www.w3.org/1999/xlink" x="0px" y="0px"
	 width="413.547px" height="346.411px" viewBox="0 0 413.547 346.411" enable-background="new 0 0 413.547 346.411"
	 xml:space="preserve">
<g>
	<g>
		<g>
			<path fill="#662483" d="M7.409,6.569h5.727l6.558,33.85h-4.219l-1.569-9.409h-7.45l-1.693,9.409H0.637L7.409,6.569z
				 M10.119,9.071L6.824,28.532h6.558L10.303,9.071H10.119z"/>
			<path fill="#662483" d="M36.041,22.978v1.515h-3.973v-2.226c0-1.545-0.138-2.532-0.415-2.96
				c-0.276-0.428-0.785-0.643-1.524-0.643c-0.738,0-1.252,0.241-1.539,0.723c-0.287,0.482-0.431,1.442-0.431,2.88v12.691
				c0,1.469,0.148,2.44,0.446,2.915c0.297,0.475,0.826,0.711,1.586,0.711c0.718,0,1.211-0.218,1.478-0.654s0.399-1.426,0.399-2.972
				v-2.524h3.973v1.836c0,2.601-0.438,4.372-1.309,5.312c-0.873,0.941-2.407,1.412-4.604,1.412c-2.176,0-3.699-0.482-4.571-1.446
				c-0.872-0.964-1.308-2.738-1.308-5.324V22.978c0-2.616,0.43-4.391,1.293-5.324c0.861-0.933,2.391-1.4,4.586-1.4
				c2.176,0,3.705,0.479,4.588,1.434C35.6,18.645,36.041,20.408,36.041,22.978z"/>
			<path fill="#662483" d="M44.999,10.471v6.357h2.894v2.387h-2.894v17.533c0,0.658,0.169,1.113,0.509,1.365
				c0.338,0.253,0.948,0.379,1.831,0.379h0.554v2.456c-0.226,0.015-0.457,0.026-0.692,0.035c-0.235,0.007-0.569,0.011-1.001,0.011
				c-1.929,0-3.242-0.348-3.939-1.044c-0.699-0.696-1.047-2.245-1.047-4.647V19.214H39.15v-2.387h2.062v-5.209L44.999,10.471z"/>
			<path fill="#662483" d="M51.495,6.569h4.218v3.58h-4.218V6.569z M51.68,16.828h3.787V40.42H51.68V16.828z"/>
			<path fill="#662483" d="M59.254,16.828h3.693l2.647,21.159h0.338l2.833-21.159h3.479l-3.85,23.592h-5.232L59.254,16.828z"/>
			<path fill="#662483" d="M75.878,6.569h4.218v3.58h-4.218V6.569z M76.062,16.828h3.787V40.42h-3.787V16.828z"/>
			<path fill="#662483" d="M94.596,6.569h3.85v33.85h-3.541l-0.309-1.446c-0.513,0.673-1.154,1.178-1.924,1.515
				c-0.77,0.337-1.668,0.505-2.693,0.505c-1.58,0-2.709-0.402-3.387-1.205c-0.678-0.804-1.016-2.207-1.016-4.211V21.67
				c0-2.004,0.338-3.408,1.016-4.211c0.678-0.803,1.807-1.205,3.387-1.205c1.025,0,1.929,0.172,2.709,0.516
				c0.779,0.345,1.416,0.846,1.908,1.503V6.569L94.596,6.569z M94.596,22.267c0-1.331-0.189-2.264-0.568-2.8
				c-0.381-0.535-1.031-0.803-1.955-0.803c-0.945,0-1.611,0.26-2.002,0.78c-0.39,0.521-0.584,1.461-0.584,2.823v12.691
				c0,1.377,0.194,2.326,0.584,2.846c0.391,0.521,1.057,0.78,2.002,0.78c0.924,0,1.574-0.268,1.955-0.803
				c0.379-0.535,0.568-1.476,0.568-2.823V22.267z"/>
			<path fill="#662483" d="M116.608,22.335v18.084h-3.54l-0.246-1.446c-0.514,0.658-1.166,1.159-1.955,1.503
				c-0.791,0.344-1.699,0.516-2.725,0.516c-1.602,0-2.735-0.402-3.402-1.205c-0.667-0.804-1-2.207-1-4.211v-4.705
				c0-1.851,0.672-3.167,2.016-3.947c1.344-0.78,3.699-1.216,7.066-1.308v-3.351c0-1.423-0.181-2.379-0.539-2.869
				c-0.359-0.489-1.001-0.734-1.924-0.734c-0.883,0-1.515,0.226-1.895,0.677c-0.379,0.452-0.568,1.228-0.568,2.33v1.308h-3.787
				v-0.643c0-2.356,0.461-3.959,1.385-4.808c0.924-0.85,2.566-1.274,4.926-1.274c2.299,0,3.904,0.429,4.818,1.285
				C116.151,18.396,116.608,19.995,116.608,22.335z M112.791,27.912c-1.971,0.062-3.31,0.321-4.018,0.78s-1.062,1.285-1.062,2.479
				v3.787c0,1.408,0.186,2.364,0.555,2.869c0.369,0.505,1.025,0.757,1.971,0.757c0.923,0,1.585-0.271,1.984-0.814
				c0.4-0.543,0.602-1.48,0.602-2.812L112.791,27.912z"/>
			<path fill="#662483" d="M131.293,6.569h3.85v33.85h-3.541l-0.309-1.446c-0.513,0.673-1.154,1.178-1.924,1.515
				c-0.77,0.337-1.668,0.505-2.693,0.505c-1.58,0-2.709-0.402-3.387-1.205c-0.678-0.804-1.016-2.207-1.016-4.211V21.67
				c0-2.004,0.338-3.408,1.016-4.211c0.678-0.803,1.807-1.205,3.387-1.205c1.025,0,1.929,0.172,2.709,0.516
				c0.779,0.345,1.416,0.846,1.908,1.503V6.569L131.293,6.569z M131.293,22.267c0-1.331-0.189-2.264-0.568-2.8
				c-0.381-0.535-1.031-0.803-1.955-0.803c-0.945,0-1.611,0.26-2.002,0.78c-0.39,0.521-0.584,1.461-0.584,2.823v12.691
				c0,1.377,0.194,2.326,0.584,2.846c0.391,0.521,1.057,0.78,2.002,0.78c0.924,0,1.574-0.268,1.955-0.803
				c0.379-0.535,0.568-1.476,0.568-2.823V22.267z"/>
			<path fill="#662483" d="M173.439,13.592v2.157c0,0.582-0.123,1.293-0.369,2.134c-0.246,0.842-0.605,1.744-1.077,2.708
				l-8.497,17.327h9.76v2.501h-13.238v-3.328l7.758-15.881l0.092-0.207c1.109-2.157,1.663-3.985,1.663-5.485V13.43
				c0-1.407-0.2-2.41-0.601-3.006c-0.401-0.596-1.062-0.895-1.985-0.895c-0.965,0-1.647,0.318-2.048,0.952
				c-0.4,0.635-0.6,1.764-0.6,3.385v2.203h-3.972v-1.744c0-2.754,0.493-4.639,1.478-5.657c0.985-1.018,2.699-1.526,5.142-1.526
				c2.34,0,4.007,0.49,5.003,1.469C172.942,9.591,173.439,11.251,173.439,13.592z"/>
		</g>
	</g>
	<g>
		<path fill="#2B1C48" d="M44.94,55.006h2.686c1.638,0,2.751,0.173,3.341,0.519c0.589,0.346,0.884,0.958,0.884,1.837v5.176
			c0,0.879-0.295,1.489-0.884,1.831c-0.59,0.342-1.703,0.513-3.341,0.513H47.02v8.13h-2.08V55.006z M47.02,56.337v7.227h0.557
			c0.83,0,1.384-0.124,1.662-0.372c0.279-0.249,0.418-0.808,0.418-1.679v-3.125c0-0.871-0.139-1.43-0.418-1.679
			c-0.278-0.248-0.833-0.372-1.662-0.372H47.02z"/>
		<path fill="#2B1C48" d="M60.841,63.734v6.006c0,1.384-0.251,2.325-0.753,2.826c-0.502,0.5-1.392,0.75-2.669,0.75
			c-1.267,0-2.153-0.254-2.661-0.763c-0.508-0.508-0.762-1.454-0.762-2.838v-5.981c0-1.392,0.249-2.335,0.745-2.832
			c0.497-0.496,1.389-0.745,2.678-0.745c1.266,0,2.153,0.254,2.661,0.763C60.587,61.429,60.841,62.367,60.841,63.734z
			 M58.729,63.356c0-0.74-0.099-1.245-0.295-1.514s-0.535-0.403-1.015-0.403c-0.491,0-0.838,0.143-1.04,0.427
			c-0.202,0.285-0.303,0.781-0.303,1.489v6.75c0,0.749,0.098,1.257,0.294,1.526c0.197,0.268,0.546,0.402,1.048,0.402
			c0.48,0,0.819-0.139,1.015-0.415s0.295-0.781,0.295-1.514V63.356z"/>
		<path fill="#2B1C48" d="M63.854,55.006h2.014v18.005h-2.014V55.006z"/>
		<path fill="#2B1C48" d="M68.98,60.463h2.014v12.549H68.98V60.463z M70.536,56.093h2.309l-2.145,2.722h-1.605L70.536,56.093z"/>
		<path fill="#2B1C48" d="M76.218,57.082v3.381h1.539v1.27h-1.539v9.326c0,0.35,0.09,0.592,0.27,0.727
			c0.18,0.134,0.505,0.201,0.975,0.201h0.294v1.307c-0.12,0.008-0.243,0.014-0.368,0.018c-0.126,0.004-0.303,0.006-0.532,0.006
			c-1.026,0-1.725-0.185-2.096-0.555s-0.557-1.194-0.557-2.473v-8.557h-1.097v-1.27h1.097v-2.771L76.218,57.082z"/>
		<path fill="#2B1C48" d="M79.673,55.006h2.244v1.904h-2.244V55.006z M79.771,60.463h2.014v12.549h-2.014V60.463z"/>
		<path fill="#2B1C48" d="M91.103,63.734v0.806h-2.112v-1.184c0-0.822-0.074-1.347-0.221-1.575
			c-0.147-0.228-0.417-0.342-0.811-0.342s-0.666,0.128-0.819,0.385c-0.153,0.256-0.229,0.767-0.229,1.532v6.75
			c0,0.781,0.079,1.298,0.237,1.55c0.158,0.253,0.439,0.379,0.843,0.379c0.382,0,0.644-0.116,0.786-0.348
			c0.142-0.232,0.213-0.759,0.213-1.581v-1.343h2.112v0.977c0,1.384-0.232,2.325-0.696,2.826c-0.464,0.5-1.28,0.75-2.448,0.75
			c-1.157,0-1.968-0.256-2.432-0.769c-0.464-0.513-0.696-1.457-0.696-2.832v-5.981c0-1.392,0.229-2.335,0.688-2.832
			c0.458-0.496,1.271-0.745,2.44-0.745c1.157,0,1.971,0.254,2.44,0.763C90.868,61.429,91.103,62.367,91.103,63.734z"/>
		<path fill="#2B1C48" d="M100.339,63.393v9.619h-1.883l-0.131-0.77c-0.273,0.351-0.62,0.617-1.04,0.8
			c-0.42,0.184-0.903,0.274-1.449,0.274c-0.852,0-1.455-0.213-1.81-0.641c-0.355-0.427-0.532-1.174-0.532-2.24v-2.502
			c0-0.984,0.357-1.685,1.073-2.1c0.715-0.415,1.967-0.647,3.758-0.696v-1.782c0-0.757-0.095-1.265-0.286-1.526
			c-0.191-0.26-0.532-0.391-1.024-0.391c-0.469,0-0.805,0.12-1.007,0.36c-0.202,0.24-0.303,0.653-0.303,1.239v0.696H93.69v-0.342
			c0-1.253,0.246-2.105,0.737-2.558c0.491-0.451,1.364-0.677,2.62-0.677c1.222,0,2.077,0.228,2.562,0.684
			C100.096,61.297,100.339,62.147,100.339,63.393z M98.309,66.359c-1.048,0.033-1.76,0.171-2.137,0.415
			c-0.376,0.244-0.565,0.683-0.565,1.318v2.015c0,0.749,0.098,1.257,0.295,1.526c0.196,0.268,0.546,0.402,1.048,0.402
			c0.491,0,0.844-0.145,1.057-0.434c0.212-0.288,0.319-0.787,0.319-1.495L98.309,66.359z"/>
		<path fill="#2B1C48" d="M108.887,55.006h2.686c1.638,0,2.751,0.173,3.341,0.519c0.589,0.346,0.884,0.958,0.884,1.837v5.176
			c0,0.879-0.295,1.489-0.884,1.831c-0.59,0.342-1.703,0.513-3.341,0.513h-0.606v8.13h-2.08V55.006z M110.967,56.337v7.227h0.557
			c0.83,0,1.384-0.124,1.662-0.372c0.279-0.249,0.418-0.808,0.418-1.679v-3.125c0-0.871-0.139-1.43-0.418-1.679
			c-0.278-0.248-0.833-0.372-1.662-0.372H110.967z"/>
		<path fill="#2B1C48" d="M118.009,60.463h2.014v9.619c0,0.74,0.106,1.251,0.319,1.532c0.213,0.28,0.576,0.421,1.089,0.421
			c0.502,0,0.857-0.145,1.064-0.434c0.207-0.288,0.311-0.795,0.311-1.52v-9.619h2.047v12.549h-1.883l-0.164-0.77
			c-0.273,0.351-0.611,0.613-1.015,0.788c-0.404,0.175-0.879,0.263-1.425,0.263c-0.863,0-1.471-0.212-1.826-0.635
			c-0.354-0.424-0.532-1.164-0.532-2.223V60.463z M121.939,56.093h2.309l-2.145,2.722h-1.605L121.939,56.093z"/>
		<path fill="#2B1C48" d="M127.933,55.006h2.014v6.226c0.272-0.35,0.619-0.617,1.04-0.799c0.42-0.184,0.903-0.275,1.449-0.275
			c0.852,0,1.455,0.213,1.81,0.641c0.355,0.427,0.532,1.174,0.532,2.24v7.397c0,1.066-0.177,1.813-0.532,2.24
			c-0.355,0.428-0.958,0.641-1.81,0.641c-0.546,0-1.029-0.091-1.449-0.274c-0.42-0.183-0.767-0.449-1.04-0.8l-0.131,0.77h-1.883
			V55.006z M132.665,63.356c0-0.74-0.098-1.245-0.295-1.514c-0.196-0.269-0.546-0.403-1.048-0.403c-0.491,0-0.843,0.145-1.056,0.434
			c-0.213,0.289-0.319,0.783-0.319,1.483v6.75c0,0.716,0.104,1.217,0.311,1.501c0.207,0.285,0.562,0.428,1.064,0.428
			c0.502,0,0.852-0.135,1.048-0.402c0.197-0.27,0.295-0.777,0.295-1.526V63.356z"/>
		<path fill="#2B1C48" d="M137.791,55.006h2.014v18.005h-2.014V55.006z"/>
		<path fill="#2B1C48" d="M142.818,55.006h2.244v1.904h-2.244V55.006z M142.917,60.463h2.014v12.549h-2.014V60.463z"/>
		<path fill="#2B1C48" d="M154.248,63.734v0.806h-2.112v-1.184c0-0.822-0.074-1.347-0.221-1.575
			c-0.147-0.228-0.417-0.342-0.811-0.342s-0.666,0.128-0.819,0.385c-0.153,0.256-0.229,0.767-0.229,1.532v6.75
			c0,0.781,0.079,1.298,0.237,1.55c0.158,0.253,0.439,0.379,0.843,0.379c0.382,0,0.644-0.116,0.786-0.348
			c0.142-0.232,0.213-0.759,0.213-1.581v-1.343h2.112v0.977c0,1.384-0.232,2.325-0.696,2.826c-0.464,0.5-1.28,0.75-2.448,0.75
			c-1.157,0-1.968-0.256-2.432-0.769c-0.464-0.513-0.696-1.457-0.696-2.832v-5.981c0-1.392,0.229-2.335,0.688-2.832
			c0.458-0.496,1.271-0.745,2.44-0.745c1.157,0,1.971,0.254,2.44,0.763C154.013,61.429,154.248,62.367,154.248,63.734z"/>
		<path fill="#2B1C48" d="M163.484,63.393v9.619h-1.883l-0.131-0.77c-0.273,0.351-0.62,0.617-1.04,0.8
			c-0.42,0.184-0.903,0.274-1.449,0.274c-0.852,0-1.455-0.213-1.81-0.641c-0.355-0.427-0.532-1.174-0.532-2.24v-2.502
			c0-0.984,0.357-1.685,1.073-2.1c0.715-0.415,1.967-0.647,3.758-0.696v-1.782c0-0.757-0.095-1.265-0.286-1.526
			c-0.191-0.26-0.532-0.391-1.024-0.391c-0.469,0-0.805,0.12-1.007,0.36c-0.202,0.24-0.303,0.653-0.303,1.239v0.696h-2.014v-0.342
			c0-1.253,0.246-2.105,0.737-2.558c0.491-0.451,1.364-0.677,2.62-0.677c1.222,0,2.077,0.228,2.562,0.684
			C163.241,61.297,163.484,62.147,163.484,63.393z M161.454,66.359c-1.048,0.033-1.76,0.171-2.137,0.415
			c-0.376,0.244-0.565,0.683-0.565,1.318v2.015c0,0.749,0.098,1.257,0.295,1.526c0.196,0.268,0.546,0.402,1.048,0.402
			c0.491,0,0.844-0.145,1.057-0.434c0.212-0.288,0.319-0.787,0.319-1.495L161.454,66.359z"/>
		<path fill="#2B1C48" d="M176.421,55.006h2.047v18.005h-1.883l-0.164-0.77c-0.273,0.358-0.614,0.627-1.023,0.807
			c-0.41,0.179-0.887,0.268-1.433,0.268c-0.841,0-1.441-0.213-1.801-0.641c-0.36-0.427-0.541-1.174-0.541-2.24v-7.397
			c0-1.066,0.18-1.813,0.541-2.24c0.36-0.428,0.96-0.641,1.801-0.641c0.546,0,1.026,0.091,1.441,0.275
			c0.415,0.183,0.753,0.45,1.015,0.799V55.006z M176.421,63.356c0-0.708-0.101-1.204-0.303-1.489
			c-0.202-0.285-0.548-0.427-1.04-0.427c-0.502,0-0.857,0.139-1.064,0.415c-0.208,0.277-0.311,0.777-0.311,1.501v6.75
			c0,0.732,0.104,1.237,0.311,1.514c0.207,0.276,0.562,0.415,1.064,0.415c0.491,0,0.837-0.143,1.04-0.428
			c0.202-0.284,0.303-0.785,0.303-1.501V63.356z"/>
		<path fill="#2B1C48" d="M188.326,63.734v3.723h-4.765v2.649c0,0.749,0.098,1.257,0.294,1.526c0.197,0.268,0.546,0.402,1.048,0.402
			c0.48,0,0.819-0.139,1.015-0.415s0.295-0.781,0.295-1.514v-1.392h2.112v1.025c0,1.384-0.251,2.325-0.753,2.826
			c-0.502,0.5-1.392,0.75-2.669,0.75c-1.267,0-2.153-0.254-2.661-0.763c-0.508-0.508-0.762-1.454-0.762-2.838v-5.981
			c0-1.392,0.249-2.335,0.745-2.832c0.497-0.496,1.389-0.745,2.678-0.745c1.266,0,2.153,0.254,2.661,0.763
			C188.072,61.429,188.326,62.367,188.326,63.734z M186.214,63.356c0-0.74-0.099-1.245-0.295-1.514s-0.535-0.403-1.015-0.403
			c-0.491,0-0.838,0.143-1.04,0.427c-0.202,0.285-0.303,0.781-0.303,1.489v2.832h2.653V63.356z"/>
		<path fill="#2B1C48" d="M198.855,55.006h3.046l3.488,18.005h-2.243l-0.835-5.005h-3.963l-0.9,5.005h-2.194L198.855,55.006z
			 M200.296,56.337l-1.752,10.352h3.488l-1.637-10.352H200.296z"/>
		<path fill="#2B1C48" d="M209.99,57.082v3.381h1.54v1.27h-1.54v9.326c0,0.35,0.091,0.592,0.271,0.727
			c0.181,0.134,0.505,0.201,0.975,0.201h0.295v1.307c-0.12,0.008-0.243,0.014-0.369,0.018c-0.125,0.004-0.303,0.006-0.532,0.006
			c-1.026,0-1.725-0.185-2.096-0.555s-0.557-1.194-0.557-2.473v-8.557h-1.097v-1.27h1.097v-2.771L209.99,57.082z"/>
		<path fill="#2B1C48" d="M220.324,63.734v3.723h-4.766v2.649c0,0.749,0.098,1.257,0.295,1.526c0.196,0.268,0.546,0.402,1.048,0.402
			c0.48,0,0.818-0.139,1.016-0.415c0.196-0.276,0.294-0.781,0.294-1.514v-1.392h2.113v1.025c0,1.384-0.252,2.325-0.754,2.826
			c-0.502,0.5-1.392,0.75-2.669,0.75c-1.267,0-2.153-0.254-2.661-0.763c-0.508-0.508-0.762-1.454-0.762-2.838v-5.981
			c0-1.392,0.248-2.335,0.745-2.832c0.497-0.496,1.39-0.745,2.678-0.745c1.267,0,2.153,0.254,2.661,0.763
			C220.07,61.429,220.324,62.367,220.324,63.734z M218.211,63.356c0-0.74-0.098-1.245-0.294-1.514
			c-0.197-0.269-0.535-0.403-1.016-0.403c-0.491,0-0.838,0.143-1.04,0.427c-0.202,0.285-0.303,0.781-0.303,1.489v2.832h2.652V63.356
			z"/>
		<path fill="#2B1C48" d="M230.183,63.039v9.973h-2.015v-9.656c0-0.716-0.106-1.214-0.319-1.496
			c-0.213-0.28-0.576-0.421-1.089-0.421c-0.502,0-0.862,0.145-1.081,0.434c-0.219,0.289-0.327,0.783-0.327,1.483v9.656h-2.015
			V60.463h1.884l0.131,0.769c0.272-0.35,0.619-0.617,1.04-0.799c0.42-0.184,0.903-0.275,1.449-0.275c0.852,0,1.454,0.213,1.81,0.641
			C230.005,61.226,230.183,61.973,230.183,63.039z"/>
		<path fill="#2B1C48" d="M239.468,63.734v0.806h-2.113v-1.184c0-0.822-0.073-1.347-0.221-1.575
			c-0.147-0.228-0.418-0.342-0.811-0.342s-0.666,0.128-0.818,0.385c-0.153,0.256-0.229,0.767-0.229,1.532v6.75
			c0,0.781,0.079,1.298,0.237,1.55c0.158,0.253,0.439,0.379,0.844,0.379c0.382,0,0.644-0.116,0.785-0.348
			c0.143-0.232,0.213-0.759,0.213-1.581v-1.343h2.113v0.977c0,1.384-0.232,2.325-0.696,2.826c-0.464,0.5-1.28,0.75-2.448,0.75
			c-1.157,0-1.968-0.256-2.432-0.769s-0.696-1.457-0.696-2.832v-5.981c0-1.392,0.229-2.335,0.688-2.832
			c0.459-0.496,1.272-0.745,2.44-0.745c1.157,0,1.971,0.254,2.44,0.763C239.232,61.429,239.468,62.367,239.468,63.734z"/>
		<path fill="#2B1C48" d="M242.022,55.006h2.243v1.904h-2.243V55.006z M242.12,60.463h2.015v12.549h-2.015V60.463z"/>
		<path fill="#2B1C48" d="M254.026,63.734v6.006c0,1.384-0.252,2.325-0.754,2.826c-0.502,0.5-1.392,0.75-2.669,0.75
			c-1.267,0-2.153-0.254-2.661-0.763c-0.508-0.508-0.762-1.454-0.762-2.838v-5.981c0-1.392,0.248-2.335,0.745-2.832
			c0.497-0.496,1.39-0.745,2.678-0.745c1.267,0,2.153,0.254,2.661,0.763C253.772,61.429,254.026,62.367,254.026,63.734z
			 M251.913,63.356c0-0.74-0.098-1.245-0.294-1.514c-0.197-0.269-0.535-0.403-1.016-0.403c-0.491,0-0.838,0.143-1.04,0.427
			c-0.202,0.285-0.303,0.781-0.303,1.489v6.75c0,0.749,0.098,1.257,0.295,1.526c0.196,0.268,0.546,0.402,1.048,0.402
			c0.48,0,0.818-0.139,1.016-0.415c0.196-0.276,0.294-0.781,0.294-1.514V63.356z M251.111,56.093h2.309l-2.146,2.722h-1.604
			L251.111,56.093z"/>
		<path fill="#2B1C48" d="M263.885,63.039v9.973h-2.015v-9.656c0-0.716-0.106-1.214-0.319-1.496
			c-0.213-0.28-0.576-0.421-1.089-0.421c-0.502,0-0.862,0.145-1.081,0.434c-0.219,0.289-0.327,0.783-0.327,1.483v9.656h-2.015
			V60.463h1.884l0.131,0.769c0.272-0.35,0.619-0.617,1.04-0.799c0.42-0.184,0.903-0.275,1.449-0.275c0.852,0,1.454,0.213,1.81,0.641
			C263.707,61.226,263.885,61.973,263.885,63.039z"/>
		<path fill="#2B1C48" d="M266.996,71.034h2.358l-1.72,4.077h-1.802L266.996,71.034z"/>
		<path fill="#2B1C48" d="M279.606,55.006h3.045l3.488,18.005h-2.243l-0.835-5.005h-3.963l-0.901,5.005h-2.194L279.606,55.006z
			 M281.047,56.337l-1.752,10.352h3.488l-1.638-10.352H281.047z"/>
		<path fill="#2B1C48" d="M293.706,63.356v0.708h-2.015v-0.708c0-0.773-0.073-1.286-0.221-1.538
			c-0.147-0.252-0.418-0.378-0.811-0.378c-0.35,0-0.598,0.116-0.745,0.348c-0.147,0.232-0.222,0.625-0.222,1.178v0.5
			c0,0.269,0.068,0.533,0.205,0.793c0.137,0.261,0.357,0.537,0.663,0.83l2.44,2.417c0.272,0.277,0.482,0.562,0.63,0.855
			s0.222,0.569,0.222,0.83v1.195c0,1.083-0.237,1.842-0.713,2.277c-0.475,0.435-1.28,0.652-2.415,0.652
			c-1.179,0-1.998-0.228-2.456-0.684c-0.459-0.455-0.688-1.298-0.688-2.526v-1.074h1.998v1.074c0,0.798,0.079,1.318,0.237,1.562
			s0.439,0.366,0.844,0.366c0.415,0,0.709-0.122,0.884-0.366s0.263-0.671,0.263-1.282v-0.476c0-0.684-0.334-1.343-0.999-1.978
			c-0.022-0.024-0.039-0.041-0.05-0.049l-2.374-2.393c-0.251-0.252-0.432-0.502-0.54-0.751c-0.109-0.248-0.164-0.522-0.164-0.824
			v-0.903c0-1.033,0.231-1.768,0.696-2.204c0.464-0.435,1.236-0.653,2.316-0.653c1.125,0,1.908,0.228,2.351,0.684
			C293.484,61.297,293.706,62.135,293.706,63.356z"/>
		<path fill="#2B1C48" d="M296.359,55.006h2.243v1.904h-2.243V55.006z M296.457,60.463h2.015v12.549h-2.015V60.463z"/>
		<path fill="#2B1C48" d="M307.282,63.356v0.708h-2.015v-0.708c0-0.773-0.073-1.286-0.221-1.538
			c-0.147-0.252-0.418-0.378-0.811-0.378c-0.35,0-0.598,0.116-0.745,0.348c-0.147,0.232-0.222,0.625-0.222,1.178v0.5
			c0,0.269,0.068,0.533,0.205,0.793c0.137,0.261,0.357,0.537,0.663,0.83l2.44,2.417c0.272,0.277,0.482,0.562,0.63,0.855
			s0.222,0.569,0.222,0.83v1.195c0,1.083-0.237,1.842-0.713,2.277c-0.475,0.435-1.28,0.652-2.415,0.652
			c-1.179,0-1.998-0.228-2.456-0.684c-0.459-0.455-0.688-1.298-0.688-2.526v-1.074h1.998v1.074c0,0.798,0.079,1.318,0.237,1.562
			s0.439,0.366,0.844,0.366c0.415,0,0.709-0.122,0.884-0.366s0.263-0.671,0.263-1.282v-0.476c0-0.684-0.334-1.343-0.999-1.978
			c-0.022-0.024-0.039-0.041-0.05-0.049l-2.374-2.393c-0.251-0.252-0.432-0.502-0.54-0.751c-0.109-0.248-0.164-0.522-0.164-0.824
			v-0.903c0-1.033,0.231-1.768,0.696-2.204c0.464-0.435,1.236-0.653,2.316-0.653c1.125,0,1.908,0.228,2.351,0.684
			C307.061,61.297,307.282,62.135,307.282,63.356z"/>
		<path fill="#2B1C48" d="M312.146,57.082v3.381h1.54v1.27h-1.54v9.326c0,0.35,0.091,0.592,0.271,0.727
			c0.181,0.134,0.505,0.201,0.975,0.201h0.295v1.307c-0.12,0.008-0.243,0.014-0.369,0.018c-0.125,0.004-0.303,0.006-0.532,0.006
			c-1.026,0-1.725-0.185-2.096-0.555s-0.557-1.194-0.557-2.473v-8.557h-1.098v-1.27h1.098v-2.771L312.146,57.082z"/>
		<path fill="#2B1C48" d="M322.479,63.734v3.723h-4.766v2.649c0,0.749,0.098,1.257,0.295,1.526c0.196,0.268,0.546,0.402,1.048,0.402
			c0.48,0,0.818-0.139,1.016-0.415c0.196-0.276,0.294-0.781,0.294-1.514v-1.392h2.113v1.025c0,1.384-0.252,2.325-0.754,2.826
			c-0.502,0.5-1.392,0.75-2.669,0.75c-1.267,0-2.153-0.254-2.661-0.763c-0.508-0.508-0.762-1.454-0.762-2.838v-5.981
			c0-1.392,0.248-2.335,0.745-2.832c0.497-0.496,1.39-0.745,2.678-0.745c1.267,0,2.153,0.254,2.661,0.763
			C322.226,61.429,322.479,62.367,322.479,63.734z M320.366,63.356c0-0.74-0.098-1.245-0.294-1.514
			c-0.197-0.269-0.535-0.403-1.016-0.403c-0.491,0-0.838,0.143-1.04,0.427c-0.202,0.285-0.303,0.781-0.303,1.489v2.832h2.652V63.356
			z"/>
		<path fill="#2B1C48" d="M332.338,63.039v9.973h-2.015v-9.656c0-0.716-0.106-1.214-0.319-1.496
			c-0.213-0.28-0.576-0.421-1.089-0.421c-0.502,0-0.862,0.145-1.081,0.434c-0.219,0.289-0.327,0.783-0.327,1.483v9.656h-2.015
			V60.463h1.884l0.131,0.769c0.272-0.35,0.619-0.617,1.04-0.799c0.42-0.184,0.903-0.275,1.449-0.275c0.852,0,1.454,0.213,1.81,0.641
			C332.16,61.226,332.338,61.973,332.338,63.039z"/>
		<path fill="#2B1C48" d="M341.623,63.734v0.806h-2.113v-1.184c0-0.822-0.073-1.347-0.221-1.575
			c-0.147-0.228-0.418-0.342-0.811-0.342s-0.666,0.128-0.818,0.385c-0.153,0.256-0.229,0.767-0.229,1.532v6.75
			c0,0.781,0.079,1.298,0.237,1.55c0.158,0.253,0.439,0.379,0.844,0.379c0.382,0,0.644-0.116,0.785-0.348
			c0.143-0.232,0.213-0.759,0.213-1.581v-1.343h2.113v0.977c0,1.384-0.232,2.325-0.696,2.826c-0.464,0.5-1.28,0.75-2.448,0.75
			c-1.157,0-1.968-0.256-2.432-0.769s-0.696-1.457-0.696-2.832v-5.981c0-1.392,0.229-2.335,0.688-2.832
			c0.459-0.496,1.272-0.745,2.44-0.745c1.157,0,1.971,0.254,2.44,0.763C341.388,61.429,341.623,62.367,341.623,63.734z"/>
		<path fill="#2B1C48" d="M344.178,55.006h2.243v1.904h-2.243V55.006z M344.275,60.463h2.015v12.549h-2.015V60.463z"/>
		<path fill="#2B1C48" d="M355.984,63.393v9.619h-1.883l-0.131-0.77c-0.273,0.351-0.62,0.617-1.04,0.8
			c-0.421,0.184-0.903,0.274-1.449,0.274c-0.852,0-1.455-0.213-1.81-0.641c-0.354-0.427-0.532-1.174-0.532-2.24v-2.502
			c0-0.984,0.357-1.685,1.072-2.1s1.968-0.647,3.759-0.696v-1.782c0-0.757-0.096-1.265-0.287-1.526
			c-0.19-0.26-0.532-0.391-1.023-0.391c-0.47,0-0.805,0.12-1.007,0.36c-0.202,0.24-0.303,0.653-0.303,1.239v0.696h-2.015v-0.342
			c0-1.253,0.246-2.105,0.737-2.558c0.491-0.451,1.364-0.677,2.62-0.677c1.223,0,2.077,0.228,2.562,0.684
			C355.741,61.297,355.984,62.147,355.984,63.393z M353.954,66.359c-1.048,0.033-1.761,0.171-2.137,0.415
			c-0.377,0.244-0.565,0.683-0.565,1.318v2.015c0,0.749,0.099,1.257,0.295,1.526c0.196,0.268,0.546,0.402,1.048,0.402
			c0.491,0,0.844-0.145,1.057-0.434c0.213-0.288,0.319-0.787,0.319-1.495L353.954,66.359z"/>
		<path fill="#2B1C48" d="M363.093,60.463h1.965l1.556,9.351h0.131l1.376-9.351h1.883l-3.488,17.297h-2.014l1.097-5.225
			L363.093,60.463z"/>
		<path fill="#2B1C48" d="M31.242,81.296h3.177c1.638,0,2.746,0.172,3.324,0.514s0.868,0.956,0.868,1.843v4.077
			c0,0.749-0.191,1.277-0.573,1.587c-0.382,0.31-1.059,0.496-2.031,0.562c1.037,0.049,1.758,0.228,2.162,0.537
			s0.606,0.847,0.606,1.611v7.275h-2.21v-6.727c0-0.846-0.162-1.396-0.483-1.647c-0.322-0.252-0.985-0.378-1.99-0.378h-0.77v8.752
			h-2.08V81.296z M33.322,82.627v6.579h0.737c0.95,0,1.583-0.123,1.9-0.372c0.316-0.248,0.475-0.8,0.475-1.653v-2.503
			c0-0.862-0.158-1.42-0.475-1.673c-0.317-0.252-0.95-0.378-1.9-0.378H33.322z"/>
		<path fill="#2B1C48" d="M48.846,90.024v3.723h-4.765v2.649c0,0.749,0.098,1.257,0.294,1.526c0.197,0.268,0.546,0.402,1.048,0.402
			c0.48,0,0.819-0.139,1.015-0.415s0.295-0.781,0.295-1.514v-1.392h2.112v1.025c0,1.384-0.251,2.325-0.753,2.826
			c-0.502,0.5-1.392,0.75-2.669,0.75c-1.267,0-2.153-0.254-2.661-0.763c-0.508-0.508-0.762-1.454-0.762-2.838v-5.981
			c0-1.392,0.249-2.336,0.745-2.832s1.389-0.744,2.678-0.744c1.266,0,2.153,0.254,2.661,0.763
			C48.592,87.72,48.846,88.657,48.846,90.024z M46.734,89.646c0-0.74-0.099-1.244-0.295-1.514c-0.196-0.268-0.535-0.402-1.015-0.402
			c-0.491,0-0.838,0.143-1.04,0.428c-0.202,0.284-0.303,0.781-0.303,1.488v2.832h2.653V89.646z"/>
		<path fill="#2B1C48" d="M58.704,89.329v7.396c0,1.066-0.177,1.813-0.532,2.24c-0.355,0.428-0.958,0.641-1.81,0.641
			c-0.546,0-1.029-0.091-1.449-0.274c-0.42-0.183-0.767-0.449-1.04-0.8v5.518h-2.014V86.753h1.883l0.131,0.77
			c0.272-0.351,0.619-0.617,1.04-0.8c0.42-0.184,0.903-0.274,1.449-0.274c0.852,0,1.455,0.213,1.81,0.641
			C58.527,87.516,58.704,88.263,58.704,89.329z M56.592,89.646c0-0.74-0.098-1.244-0.295-1.514
			c-0.196-0.268-0.546-0.402-1.048-0.402c-0.491,0-0.843,0.145-1.056,0.434s-0.319,0.783-0.319,1.482v6.751
			c0,0.716,0.104,1.217,0.311,1.501c0.207,0.285,0.562,0.428,1.064,0.428c0.502,0,0.852-0.135,1.048-0.402
			c0.197-0.27,0.295-0.777,0.295-1.526V89.646z"/>
		<path fill="#2B1C48" d="M68.301,89.683v9.619h-1.883l-0.131-0.77c-0.273,0.351-0.62,0.617-1.04,0.8
			c-0.42,0.184-0.903,0.274-1.449,0.274c-0.852,0-1.455-0.213-1.81-0.641c-0.355-0.427-0.532-1.174-0.532-2.24v-2.502
			c0-0.984,0.357-1.685,1.073-2.1c0.715-0.415,1.967-0.646,3.758-0.695v-1.783c0-0.756-0.095-1.265-0.286-1.525
			c-0.191-0.261-0.532-0.391-1.024-0.391c-0.469,0-0.805,0.12-1.007,0.36c-0.202,0.24-0.303,0.653-0.303,1.239v0.695h-2.014v-0.342
			c0-1.253,0.246-2.105,0.737-2.558c0.491-0.451,1.364-0.677,2.62-0.677c1.222,0,2.077,0.228,2.562,0.684
			C68.058,87.587,68.301,88.438,68.301,89.683z M66.27,92.649c-1.048,0.032-1.76,0.17-2.137,0.414
			c-0.376,0.244-0.565,0.684-0.565,1.318v2.015c0,0.749,0.098,1.257,0.295,1.526c0.196,0.268,0.546,0.402,1.048,0.402
			c0.491,0,0.844-0.145,1.057-0.434c0.212-0.288,0.319-0.787,0.319-1.495L66.27,92.649z"/>
		<path fill="#2B1C48" d="M76.112,86.472v1.526h-0.344c-0.863,0-1.474,0.161-1.834,0.482c-0.36,0.321-0.54,0.877-0.54,1.666v9.155
			h-2.014V86.753h1.883l0.131,0.77c0.284-0.342,0.63-0.606,1.04-0.794c0.41-0.188,0.854-0.28,1.335-0.28
			c0.033,0,0.087,0.004,0.164,0.012C76.008,86.468,76.068,86.472,76.112,86.472z"/>
		<path fill="#2B1C48" d="M84.136,89.683v9.619h-1.883l-0.131-0.77c-0.273,0.351-0.62,0.617-1.04,0.8
			c-0.42,0.184-0.903,0.274-1.449,0.274c-0.852,0-1.455-0.213-1.81-0.641c-0.355-0.427-0.532-1.174-0.532-2.24v-2.502
			c0-0.984,0.357-1.685,1.073-2.1c0.715-0.415,1.967-0.646,3.758-0.695v-1.783c0-0.756-0.095-1.265-0.286-1.525
			c-0.191-0.261-0.532-0.391-1.024-0.391c-0.469,0-0.805,0.12-1.007,0.36c-0.202,0.24-0.303,0.653-0.303,1.239v0.695h-2.014v-0.342
			c0-1.253,0.246-2.105,0.737-2.558c0.491-0.451,1.364-0.677,2.62-0.677c1.222,0,2.077,0.228,2.562,0.684
			C83.893,87.587,84.136,88.438,84.136,89.683z M82.105,92.649c-1.048,0.032-1.76,0.17-2.137,0.414
			c-0.376,0.244-0.565,0.684-0.565,1.318v2.015c0,0.749,0.098,1.257,0.295,1.526c0.196,0.268,0.546,0.402,1.048,0.402
			c0.491,0,0.844-0.145,1.057-0.434c0.212-0.288,0.319-0.787,0.319-1.495L82.105,92.649z"/>
		<path fill="#2B1C48" d="M93.421,90.024v0.806h-2.112v-1.185c0-0.821-0.074-1.347-0.221-1.574s-0.417-0.342-0.811-0.342
			s-0.666,0.128-0.819,0.385c-0.153,0.256-0.229,0.767-0.229,1.531v6.751c0,0.781,0.079,1.298,0.237,1.55
			c0.158,0.253,0.439,0.379,0.843,0.379c0.382,0,0.644-0.116,0.786-0.348c0.142-0.232,0.213-0.759,0.213-1.581v-1.343h2.112v0.977
			c0,1.384-0.232,2.325-0.696,2.826c-0.464,0.5-1.28,0.75-2.448,0.75c-1.157,0-1.968-0.256-2.432-0.769
			c-0.464-0.513-0.696-1.457-0.696-2.832v-5.981c0-1.392,0.229-2.336,0.688-2.832s1.271-0.744,2.44-0.744
			c1.157,0,1.971,0.254,2.44,0.763S93.421,88.657,93.421,90.024z"/>
		<path fill="#2B1C48" d="M95.976,81.296h2.244V83.2h-2.244V81.296z M96.074,86.753h2.014v12.549h-2.014V86.753z"/>
		<path fill="#2B1C48" d="M107.979,90.024v6.006c0,1.384-0.251,2.325-0.753,2.826c-0.502,0.5-1.392,0.75-2.669,0.75
			c-1.267,0-2.153-0.254-2.661-0.763c-0.508-0.508-0.762-1.454-0.762-2.838v-5.981c0-1.392,0.249-2.336,0.745-2.832
			s1.389-0.744,2.678-0.744c1.266,0,2.153,0.254,2.661,0.763C107.725,87.72,107.979,88.657,107.979,90.024z M105.867,89.646
			c0-0.74-0.099-1.244-0.295-1.514c-0.196-0.268-0.535-0.402-1.015-0.402c-0.491,0-0.838,0.143-1.04,0.428
			c-0.202,0.284-0.303,0.781-0.303,1.488v6.751c0,0.749,0.098,1.257,0.294,1.526c0.197,0.268,0.546,0.402,1.048,0.402
			c0.48,0,0.819-0.139,1.015-0.415s0.295-0.781,0.295-1.514V89.646z M105.064,82.383h2.309l-2.145,2.722h-1.605L105.064,82.383z"/>
		<path fill="#2B1C48" d="M117.837,89.329v9.973h-2.014v-9.656c0-0.716-0.106-1.214-0.319-1.495
			c-0.213-0.28-0.576-0.421-1.089-0.421c-0.502,0-0.863,0.145-1.081,0.434s-0.327,0.783-0.327,1.482v9.656h-2.014V86.753h1.883
			l0.131,0.77c0.272-0.351,0.619-0.617,1.04-0.8c0.42-0.184,0.903-0.274,1.449-0.274c0.852,0,1.455,0.213,1.81,0.641
			C117.66,87.516,117.837,88.263,117.837,89.329z"/>
		<path fill="#2B1C48" d="M126.385,81.296h2.21v18.006h-2.21V81.296z"/>
		<path fill="#2B1C48" d="M138.782,89.329v9.973h-2.014v-9.656c0-0.716-0.106-1.214-0.319-1.495
			c-0.213-0.28-0.576-0.421-1.089-0.421c-0.502,0-0.863,0.145-1.081,0.434s-0.327,0.783-0.327,1.482v9.656h-2.014V86.753h1.883
			l0.131,0.77c0.272-0.351,0.619-0.617,1.04-0.8c0.42-0.184,0.903-0.274,1.449-0.274c0.852,0,1.455,0.213,1.81,0.641
			C138.604,87.516,138.782,88.263,138.782,89.329z"/>
		<path fill="#2B1C48" d="M143.973,83.372v3.381h1.539v1.27h-1.539v9.326c0,0.35,0.09,0.592,0.27,0.727
			c0.18,0.134,0.505,0.201,0.975,0.201h0.294v1.307c-0.12,0.008-0.243,0.014-0.368,0.018c-0.126,0.004-0.303,0.006-0.532,0.006
			c-1.026,0-1.725-0.185-2.096-0.555s-0.557-1.194-0.557-2.473v-8.557h-1.097v-1.27h1.097v-2.771L143.973,83.372z"/>
		<path fill="#2B1C48" d="M154.306,90.024v3.723h-4.765v2.649c0,0.749,0.098,1.257,0.294,1.526c0.197,0.268,0.546,0.402,1.048,0.402
			c0.48,0,0.819-0.139,1.015-0.415s0.295-0.781,0.295-1.514v-1.392h2.112v1.025c0,1.384-0.251,2.325-0.753,2.826
			c-0.502,0.5-1.392,0.75-2.669,0.75c-1.267,0-2.153-0.254-2.661-0.763c-0.508-0.508-0.762-1.454-0.762-2.838v-5.981
			c0-1.392,0.249-2.336,0.745-2.832s1.389-0.744,2.678-0.744c1.266,0,2.153,0.254,2.661,0.763
			C154.052,87.72,154.306,88.657,154.306,90.024z M152.194,89.646c0-0.74-0.099-1.244-0.295-1.514
			c-0.196-0.268-0.535-0.402-1.015-0.402c-0.491,0-0.838,0.143-1.04,0.428c-0.202,0.284-0.303,0.781-0.303,1.488v2.832h2.653V89.646
			z"/>
		<path fill="#2B1C48" d="M162.052,87.522l0.164-0.77h1.883v13.904c0,1.383-0.251,2.323-0.753,2.819s-1.392,0.745-2.669,0.745
			c-1.223,0-2.099-0.243-2.628-0.727c-0.53-0.484-0.794-1.309-0.794-2.473v-0.671h2.113v0.671c0,0.766,0.095,1.278,0.287,1.539
			c0.191,0.26,0.532,0.391,1.023,0.391c0.502,0,0.857-0.141,1.064-0.422c0.207-0.28,0.311-0.783,0.311-1.508v-3.051
			c-0.273,0.357-0.612,0.622-1.015,0.793c-0.404,0.171-0.884,0.256-1.441,0.256c-0.852,0-1.455-0.209-1.81-0.628
			c-0.354-0.419-0.532-1.158-0.532-2.216v-6.848c0-1.066,0.18-1.813,0.541-2.24c0.36-0.428,0.96-0.641,1.801-0.641
			c0.535,0,1.01,0.091,1.425,0.274C161.435,86.905,161.779,87.172,162.052,87.522z M162.052,89.646c0-0.716-0.104-1.218-0.311-1.507
			c-0.208-0.289-0.552-0.434-1.032-0.434c-0.502,0-0.857,0.141-1.064,0.421c-0.208,0.281-0.311,0.787-0.311,1.52v6.178
			c0,0.74,0.104,1.251,0.311,1.531c0.207,0.281,0.562,0.422,1.064,0.422c0.48,0,0.824-0.146,1.032-0.439
			c0.207-0.293,0.311-0.798,0.311-1.514V89.646z"/>
		<path fill="#2B1C48" d="M171.91,86.472v1.526h-0.344c-0.863,0-1.474,0.161-1.834,0.482c-0.36,0.321-0.54,0.877-0.54,1.666v9.155
			h-2.014V86.753h1.883l0.131,0.77c0.284-0.342,0.63-0.606,1.04-0.794c0.41-0.188,0.854-0.28,1.335-0.28
			c0.033,0,0.087,0.004,0.164,0.012C171.806,86.468,171.866,86.472,171.91,86.472z"/>
		<path fill="#2B1C48" d="M179.935,89.683v9.619h-1.883l-0.131-0.77c-0.273,0.351-0.62,0.617-1.04,0.8
			c-0.42,0.184-0.903,0.274-1.449,0.274c-0.852,0-1.455-0.213-1.81-0.641c-0.355-0.427-0.532-1.174-0.532-2.24v-2.502
			c0-0.984,0.357-1.685,1.073-2.1c0.715-0.415,1.967-0.646,3.758-0.695v-1.783c0-0.756-0.095-1.265-0.286-1.525
			c-0.191-0.261-0.532-0.391-1.024-0.391c-0.469,0-0.805,0.12-1.007,0.36c-0.202,0.24-0.303,0.653-0.303,1.239v0.695h-2.014v-0.342
			c0-1.253,0.246-2.105,0.737-2.558c0.491-0.451,1.364-0.677,2.62-0.677c1.222,0,2.077,0.228,2.562,0.684
			C179.691,87.587,179.935,88.438,179.935,89.683z M177.904,92.649c-1.048,0.032-1.76,0.17-2.137,0.414
			c-0.376,0.244-0.565,0.684-0.565,1.318v2.015c0,0.749,0.098,1.257,0.295,1.526c0.196,0.268,0.546,0.402,1.048,0.402
			c0.491,0,0.844-0.145,1.057-0.434c0.212-0.288,0.319-0.787,0.319-1.495L177.904,92.649z"/>
		<path fill="#2B1C48" d="M183.013,81.296h2.014v18.006h-2.014V81.296z"/>
		<path fill="#2B1C48" d="M199.847,89.683v9.619h-1.883l-0.131-0.77c-0.273,0.351-0.62,0.617-1.04,0.8
			c-0.42,0.184-0.903,0.274-1.449,0.274c-0.852,0-1.455-0.213-1.81-0.641c-0.355-0.427-0.532-1.174-0.532-2.24v-2.502
			c0-0.984,0.357-1.685,1.073-2.1c0.715-0.415,1.967-0.646,3.758-0.695v-1.783c0-0.756-0.095-1.265-0.286-1.525
			c-0.191-0.261-0.532-0.391-1.024-0.391c-0.469,0-0.805,0.12-1.007,0.36c-0.202,0.24-0.303,0.653-0.303,1.239v0.695h-2.014v-0.342
			c0-1.253,0.246-2.105,0.737-2.558c0.491-0.451,1.364-0.677,2.62-0.677c1.222,0,2.077,0.228,2.562,0.684
			C199.604,87.587,199.847,88.438,199.847,89.683z M197.816,92.649c-1.048,0.032-1.76,0.17-2.137,0.414
			c-0.376,0.244-0.565,0.684-0.565,1.318v2.015c0,0.749,0.098,1.257,0.295,1.526c0.196,0.268,0.546,0.402,1.048,0.402
			c0.491,0,0.844-0.145,1.057-0.434c0.212-0.288,0.319-0.787,0.319-1.495L197.816,92.649z"/>
		<path fill="#2B1C48" d="M208.051,81.296h2.015v18.006h-2.015V81.296z"/>
		<path fill="#2B1C48" d="M219.76,89.683v9.619h-1.883l-0.131-0.77c-0.273,0.351-0.62,0.617-1.04,0.8
			c-0.421,0.184-0.903,0.274-1.449,0.274c-0.852,0-1.455-0.213-1.81-0.641c-0.354-0.427-0.532-1.174-0.532-2.24v-2.502
			c0-0.984,0.357-1.685,1.072-2.1s1.968-0.646,3.759-0.695v-1.783c0-0.756-0.096-1.265-0.287-1.525
			c-0.19-0.261-0.532-0.391-1.023-0.391c-0.47,0-0.805,0.12-1.007,0.36s-0.303,0.653-0.303,1.239v0.695h-2.015v-0.342
			c0-1.253,0.246-2.105,0.737-2.558c0.491-0.451,1.364-0.677,2.62-0.677c1.223,0,2.077,0.228,2.562,0.684
			C219.517,87.587,219.76,88.438,219.76,89.683z M217.729,92.649c-1.048,0.032-1.761,0.17-2.137,0.414
			c-0.377,0.244-0.565,0.684-0.565,1.318v2.015c0,0.749,0.099,1.257,0.295,1.526c0.196,0.268,0.546,0.402,1.048,0.402
			c0.491,0,0.844-0.145,1.057-0.434c0.213-0.288,0.319-0.787,0.319-1.495L217.729,92.649z"/>
		<path fill="#2B1C48" d="M228.538,89.646v0.709h-2.015v-0.709c0-0.772-0.073-1.285-0.221-1.537
			c-0.147-0.253-0.418-0.379-0.811-0.379c-0.35,0-0.598,0.116-0.745,0.348c-0.147,0.232-0.222,0.625-0.222,1.178v0.501
			c0,0.269,0.068,0.533,0.205,0.794c0.137,0.26,0.357,0.537,0.663,0.83l2.44,2.416c0.272,0.277,0.482,0.562,0.63,0.855
			s0.222,0.569,0.222,0.83v1.195c0,1.083-0.237,1.842-0.713,2.277c-0.475,0.435-1.28,0.652-2.415,0.652
			c-1.179,0-1.998-0.228-2.456-0.684c-0.459-0.455-0.688-1.298-0.688-2.526v-1.074h1.998v1.074c0,0.798,0.079,1.318,0.237,1.562
			s0.439,0.366,0.844,0.366c0.415,0,0.709-0.122,0.884-0.366s0.263-0.671,0.263-1.282v-0.476c0-0.684-0.334-1.343-0.999-1.978
			c-0.022-0.024-0.039-0.041-0.05-0.049l-2.374-2.393c-0.251-0.252-0.432-0.502-0.54-0.751c-0.109-0.248-0.164-0.522-0.164-0.823
			v-0.904c0-1.033,0.231-1.768,0.696-2.203c0.464-0.435,1.236-0.652,2.316-0.652c1.125,0,1.908,0.228,2.351,0.684
			C228.316,87.587,228.538,88.425,228.538,89.646z"/>
		<path fill="#2B1C48" d="M235.384,81.296h2.112l2.243,16.211h0.229l2.112-16.211h1.981l-2.62,18.006H238.2L235.384,81.296z"/>
		<path fill="#2B1C48" d="M246.109,86.753h2.015v12.549h-2.015V86.753z M247.665,82.383h2.31l-2.146,2.722h-1.604L247.665,82.383z"
			/>
		<path fill="#2B1C48" d="M257.442,90.024v0.806h-2.113v-1.185c0-0.821-0.073-1.347-0.221-1.574s-0.418-0.342-0.811-0.342
			s-0.666,0.128-0.818,0.385c-0.153,0.256-0.229,0.767-0.229,1.531v6.751c0,0.781,0.079,1.298,0.237,1.55
			c0.158,0.253,0.439,0.379,0.844,0.379c0.382,0,0.644-0.116,0.785-0.348c0.143-0.232,0.213-0.759,0.213-1.581v-1.343h2.113v0.977
			c0,1.384-0.232,2.325-0.696,2.826c-0.464,0.5-1.28,0.75-2.448,0.75c-1.157,0-1.968-0.256-2.432-0.769s-0.696-1.457-0.696-2.832
			v-5.981c0-1.392,0.229-2.336,0.688-2.832c0.459-0.496,1.272-0.744,2.44-0.744c1.157,0,1.971,0.254,2.44,0.763
			C257.207,87.72,257.442,88.657,257.442,90.024z"/>
		<path fill="#2B1C48" d="M262.207,83.372v3.381h1.54v1.27h-1.54v9.326c0,0.35,0.091,0.592,0.271,0.727
			c0.181,0.134,0.505,0.201,0.975,0.201h0.295v1.307c-0.12,0.008-0.243,0.014-0.369,0.018c-0.125,0.004-0.303,0.006-0.532,0.006
			c-1.026,0-1.725-0.185-2.096-0.555s-0.557-1.194-0.557-2.473v-8.557h-1.098v-1.27h1.098v-2.771L262.207,83.372z"/>
		<path fill="#2B1C48" d="M265.663,81.296h2.243V83.2h-2.243V81.296z M265.761,86.753h2.015v12.549h-2.015V86.753z"/>
		<path fill="#2B1C48" d="M277.061,87.607c0.404-0.423,0.791-0.722,1.163-0.897c0.371-0.175,0.802-0.262,1.293-0.262
			c0.754,0,1.294,0.215,1.622,0.646c0.327,0.432,0.491,1.176,0.491,2.234v9.973h-2.015v-9.656c0-0.716-0.088-1.214-0.262-1.495
			c-0.175-0.28-0.47-0.421-0.885-0.421c-0.426,0-0.734,0.15-0.925,0.451c-0.191,0.302-0.287,0.79-0.287,1.465v9.656h-2.014v-9.656
			c0-0.716-0.085-1.214-0.254-1.495c-0.17-0.28-0.462-0.421-0.876-0.421c-0.426,0-0.734,0.15-0.926,0.451
			c-0.19,0.302-0.286,0.79-0.286,1.465v9.656h-2.015V86.753h1.884l0.131,0.77c0.272-0.358,0.598-0.627,0.975-0.807
			c0.376-0.179,0.799-0.268,1.269-0.268c0.502,0,0.917,0.1,1.245,0.299C276.717,86.946,276.94,87.233,277.061,87.607z"/>
		<path fill="#2B1C48" d="M291.291,89.683v9.619h-1.883l-0.131-0.77c-0.273,0.351-0.62,0.617-1.04,0.8
			c-0.421,0.184-0.903,0.274-1.449,0.274c-0.852,0-1.455-0.213-1.81-0.641c-0.354-0.427-0.532-1.174-0.532-2.24v-2.502
			c0-0.984,0.357-1.685,1.072-2.1s1.968-0.646,3.759-0.695v-1.783c0-0.756-0.096-1.265-0.287-1.525
			c-0.19-0.261-0.532-0.391-1.023-0.391c-0.47,0-0.805,0.12-1.007,0.36s-0.303,0.653-0.303,1.239v0.695h-2.015v-0.342
			c0-1.253,0.246-2.105,0.737-2.558c0.491-0.451,1.364-0.677,2.62-0.677c1.223,0,2.077,0.228,2.562,0.684
			C291.048,87.587,291.291,88.438,291.291,89.683z M289.261,92.649c-1.048,0.032-1.761,0.17-2.137,0.414
			c-0.377,0.244-0.565,0.684-0.565,1.318v2.015c0,0.749,0.099,1.257,0.295,1.526c0.196,0.268,0.546,0.402,1.048,0.402
			c0.491,0,0.844-0.145,1.057-0.434c0.213-0.288,0.319-0.787,0.319-1.495L289.261,92.649z"/>
		<path fill="#2B1C48" d="M300.069,89.646v0.709h-2.015v-0.709c0-0.772-0.073-1.285-0.221-1.537
			c-0.147-0.253-0.418-0.379-0.811-0.379c-0.35,0-0.598,0.116-0.745,0.348c-0.147,0.232-0.222,0.625-0.222,1.178v0.501
			c0,0.269,0.068,0.533,0.205,0.794c0.137,0.26,0.357,0.537,0.663,0.83l2.44,2.416c0.272,0.277,0.482,0.562,0.63,0.855
			s0.222,0.569,0.222,0.83v1.195c0,1.083-0.237,1.842-0.713,2.277c-0.475,0.435-1.28,0.652-2.415,0.652
			c-1.179,0-1.998-0.228-2.456-0.684c-0.459-0.455-0.688-1.298-0.688-2.526v-1.074h1.998v1.074c0,0.798,0.079,1.318,0.237,1.562
			s0.439,0.366,0.844,0.366c0.415,0,0.709-0.122,0.884-0.366s0.263-0.671,0.263-1.282v-0.476c0-0.684-0.334-1.343-0.999-1.978
			c-0.022-0.024-0.039-0.041-0.05-0.049l-2.374-2.393c-0.251-0.252-0.432-0.502-0.54-0.751c-0.109-0.248-0.164-0.522-0.164-0.823
			v-0.904c0-1.033,0.231-1.768,0.696-2.203c0.464-0.435,1.236-0.652,2.316-0.652c1.125,0,1.908,0.228,2.351,0.684
			C299.848,87.587,300.069,88.425,300.069,89.646z"/>
		<path fill="#2B1C48" d="M306.85,86.753h1.965l1.556,9.351h0.131l1.376-9.351h1.883l-3.488,17.297h-2.014l1.097-5.225
			L306.85,86.753z"/>
		<path fill="#2B1C48" d="M321.26,81.296h2.686c1.638,0,2.752,0.174,3.341,0.52c0.59,0.346,0.885,0.958,0.885,1.837v5.176
			c0,0.879-0.295,1.489-0.885,1.831c-0.589,0.342-1.703,0.513-3.341,0.513h-0.605v8.13h-2.08V81.296z M323.34,82.627v7.227h0.557
			c0.83,0,1.384-0.124,1.662-0.372s0.418-0.808,0.418-1.679v-3.125c0-0.871-0.14-1.43-0.418-1.679
			c-0.278-0.248-0.832-0.372-1.662-0.372H323.34z"/>
		<path fill="#2B1C48" d="M332.035,81.296h3.045l3.488,18.006h-2.243l-0.835-5.005h-3.963l-0.901,5.005h-2.194L332.035,81.296z
			 M333.476,82.627l-1.752,10.352h3.488l-1.638-10.352H333.476z"/>
		<path fill="#2B1C48" d="M340.779,81.296h2.686c1.638,0,2.752,0.174,3.341,0.52c0.59,0.346,0.885,0.958,0.885,1.837v5.176
			c0,0.879-0.295,1.489-0.885,1.831c-0.589,0.342-1.703,0.513-3.341,0.513h-0.605v8.13h-2.08V81.296z M342.859,82.627v7.227h0.557
			c0.83,0,1.384-0.124,1.662-0.372s0.418-0.808,0.418-1.679v-3.125c0-0.871-0.14-1.43-0.418-1.679
			c-0.278-0.248-0.832-0.372-1.662-0.372H342.859z"/>
		<path fill="#2B1C48" d="M356.549,84.153v1.721h-2.178v-1.672c0-0.709-0.098-1.194-0.295-1.459
			c-0.196-0.265-0.546-0.396-1.048-0.396c-0.48,0-0.818,0.148-1.016,0.445c-0.196,0.297-0.294,0.824-0.294,1.58v0.879
			c0,0.367,0.067,0.743,0.204,1.13s0.336,0.751,0.598,1.093l2.719,3.576c0.458,0.603,0.791,1.17,0.999,1.703
			c0.207,0.533,0.311,1.084,0.311,1.654v1.221c0,1.562-0.265,2.616-0.794,3.161s-1.471,0.817-2.825,0.817
			c-1.32,0-2.24-0.219-2.759-0.658s-0.778-1.27-0.778-2.49v-2.002h2.194v1.94c0,0.732,0.099,1.229,0.295,1.489
			c0.197,0.261,0.557,0.391,1.081,0.391c0.535,0,0.903-0.148,1.105-0.445s0.303-0.95,0.303-1.959v-1.246
			c0-0.463-0.058-0.885-0.172-1.263c-0.114-0.379-0.281-0.723-0.499-1.032l-2.883-3.832c-0.403-0.514-0.712-1.002-0.925-1.465
			c-0.213-0.465-0.319-0.867-0.319-1.209v-1.05c0-1.399,0.259-2.374,0.777-2.924c0.519-0.549,1.411-0.823,2.678-0.823
			c1.332,0,2.252,0.215,2.76,0.646C356.295,82.106,356.549,82.933,356.549,84.153z"/>
		<path fill="#2B1C48" d="M359.464,81.296h2.211v18.006h-2.211V81.296z"/>
		<path fill="#2B1C48" d="M363.984,81.296h2.112l2.243,16.211h0.229l2.112-16.211h1.981l-2.62,18.006h-3.242L363.984,81.296z"/>
		<path fill="#2B1C48" d="M375.054,81.296h2.211v18.006h-2.211V81.296z"/>
		<path fill="#2B1C48" d="M380.475,97.324h2.31v1.978h-2.31V97.324z"/>
	</g>
</g>
</svg>
