<?xml version="1.0" encoding="utf-8"?>
<!-- Generator: Adobe Illustrator 16.0.0, SVG Export Plug-In . SVG Version: 6.00 Build 0)  -->
<!DOCTYPE svg PUBLIC "-//W3C//DTD SVG 1.1//EN" "http://www.w3.org/Graphics/SVG/1.1/DTD/svg11.dtd">
<svg version="1.1" id="Capa_1" xmlns="http://www.w3.org/2000/svg" xmlns:xlink="http://www.w3.org/1999/xlink" x="0px" y="0px"
	 width="474.559px" height="501.254px" viewBox="0 0 474.559 501.254" enable-background="new 0 0 474.559 501.254"
	 xml:space="preserve">
<g>
	<g>
		<g>
			<path fill="#3EA4DD" d="M7.409,6.569h5.727l6.558,33.85h-4.219l-1.569-9.409h-7.45l-1.693,9.409H0.637L7.409,6.569z
				 M10.119,9.071L6.824,28.532h6.558L10.303,9.071H10.119z"/>
			<path fill="#3EA4DD" d="M36.041,22.978v1.515h-3.973v-2.226c0-1.545-0.138-2.532-0.415-2.96
				c-0.276-0.428-0.785-0.643-1.524-0.643c-0.738,0-1.252,0.241-1.539,0.723s-0.431,1.442-0.431,2.88v12.691
				c0,1.469,0.148,2.44,0.446,2.915c0.297,0.475,0.826,0.711,1.586,0.711c0.718,0,1.211-0.218,1.478-0.654s0.399-1.426,0.399-2.972
				v-2.524h3.973v1.836c0,2.601-0.438,4.372-1.309,5.312c-0.873,0.941-2.407,1.412-4.604,1.412c-2.176,0-3.699-0.482-4.571-1.446
				c-0.872-0.964-1.308-2.738-1.308-5.324V22.978c0-2.616,0.43-4.391,1.293-5.324c0.861-0.933,2.391-1.4,4.586-1.4
				c2.176,0,3.705,0.479,4.588,1.434C35.6,18.645,36.041,20.408,36.041,22.978z"/>
			<path fill="#3EA4DD" d="M44.999,10.471v6.357h2.894v2.387h-2.894v17.533c0,0.658,0.169,1.113,0.509,1.365
				c0.338,0.253,0.948,0.379,1.831,0.379h0.554v2.456c-0.226,0.015-0.457,0.026-0.692,0.035c-0.235,0.007-0.569,0.011-1.001,0.011
				c-1.929,0-3.242-0.348-3.939-1.044c-0.699-0.696-1.047-2.245-1.047-4.647V19.214H39.15v-2.387h2.062v-5.209L44.999,10.471z"/>
			<path fill="#3EA4DD" d="M51.495,6.569h4.218v3.58h-4.218V6.569z M51.68,16.828h3.787V40.42H51.68V16.828z"/>
			<path fill="#3EA4DD" d="M59.254,16.828h3.693l2.647,21.159h0.338l2.833-21.159h3.479l-3.85,23.592h-5.232L59.254,16.828z"/>
			<path fill="#3EA4DD" d="M75.878,6.569h4.218v3.58h-4.218V6.569z M76.062,16.828h3.787V40.42h-3.787V16.828z"/>
			<path fill="#3EA4DD" d="M94.596,6.569h3.85v33.85h-3.541l-0.309-1.446c-0.513,0.673-1.154,1.178-1.924,1.515
				c-0.77,0.337-1.668,0.505-2.693,0.505c-1.58,0-2.709-0.402-3.387-1.205c-0.678-0.804-1.016-2.207-1.016-4.211V21.67
				c0-2.004,0.338-3.408,1.016-4.211c0.678-0.803,1.807-1.205,3.387-1.205c1.025,0,1.929,0.172,2.709,0.516
				c0.779,0.345,1.416,0.846,1.908,1.503V6.569z M94.596,22.267c0-1.331-0.189-2.264-0.568-2.8
				c-0.381-0.535-1.031-0.803-1.955-0.803c-0.945,0-1.611,0.26-2.002,0.78c-0.39,0.521-0.584,1.461-0.584,2.823v12.691
				c0,1.377,0.194,2.326,0.584,2.846c0.391,0.521,1.057,0.78,2.002,0.78c0.924,0,1.574-0.268,1.955-0.803
				c0.379-0.535,0.568-1.476,0.568-2.823V22.267z"/>
			<path fill="#3EA4DD" d="M116.608,22.335v18.084h-3.54l-0.246-1.446c-0.514,0.658-1.166,1.159-1.955,1.503
				c-0.791,0.344-1.699,0.516-2.725,0.516c-1.602,0-2.735-0.402-3.402-1.205c-0.667-0.804-1-2.207-1-4.211v-4.705
				c0-1.851,0.672-3.167,2.016-3.947c1.344-0.78,3.699-1.216,7.066-1.308v-3.351c0-1.423-0.181-2.379-0.539-2.869
				c-0.359-0.489-1.001-0.734-1.924-0.734c-0.883,0-1.515,0.226-1.895,0.677c-0.379,0.452-0.568,1.228-0.568,2.33v1.308h-3.787
				v-0.643c0-2.356,0.461-3.959,1.385-4.808c0.924-0.85,2.566-1.274,4.926-1.274c2.299,0,3.904,0.429,4.818,1.285
				C116.151,18.396,116.608,19.995,116.608,22.335z M112.791,27.912c-1.971,0.062-3.31,0.321-4.018,0.78s-1.062,1.285-1.062,2.479
				v3.787c0,1.408,0.186,2.364,0.555,2.869c0.369,0.505,1.025,0.757,1.971,0.757c0.923,0,1.585-0.271,1.984-0.814
				c0.4-0.543,0.602-1.48,0.602-2.812L112.791,27.912z"/>
			<path fill="#3EA4DD" d="M131.293,6.569h3.85v33.85h-3.541l-0.309-1.446c-0.513,0.673-1.154,1.178-1.924,1.515
				c-0.77,0.337-1.668,0.505-2.693,0.505c-1.58,0-2.709-0.402-3.387-1.205c-0.678-0.804-1.016-2.207-1.016-4.211V21.67
				c0-2.004,0.338-3.408,1.016-4.211c0.678-0.803,1.807-1.205,3.387-1.205c1.025,0,1.929,0.172,2.709,0.516
				c0.779,0.345,1.416,0.846,1.908,1.503V6.569L131.293,6.569z M131.293,22.267c0-1.331-0.189-2.264-0.568-2.8
				c-0.381-0.535-1.031-0.803-1.955-0.803c-0.945,0-1.611,0.26-2.002,0.78c-0.39,0.521-0.584,1.461-0.584,2.823v12.691
				c0,1.377,0.194,2.326,0.584,2.846c0.391,0.521,1.057,0.78,2.002,0.78c0.924,0,1.574-0.268,1.955-0.803
				c0.379-0.535,0.568-1.476,0.568-2.823V22.267z"/>
			<path fill="#3EA4DD" d="M153.676,22.978v7h-8.959v4.98c0,1.408,0.184,2.364,0.554,2.869c0.369,0.505,1.026,0.757,1.97,0.757
				c0.903,0,1.54-0.26,1.909-0.78c0.37-0.52,0.554-1.469,0.554-2.846v-2.616h3.973v1.928c0,2.601-0.473,4.372-1.417,5.312
				c-0.944,0.941-2.616,1.412-5.019,1.412c-2.381,0-4.048-0.479-5.002-1.434c-0.955-0.956-1.432-2.735-1.432-5.336V22.978
				c0-2.616,0.467-4.391,1.4-5.324c0.934-0.933,2.611-1.4,5.033-1.4c2.381,0,4.049,0.479,5.004,1.434
				C153.197,18.645,153.676,20.408,153.676,22.978z M149.703,22.267c0-1.392-0.184-2.341-0.554-2.846
				c-0.369-0.505-1.006-0.757-1.909-0.757c-0.923,0-1.574,0.268-1.955,0.803c-0.379,0.536-0.568,1.469-0.568,2.8v5.324h4.986V22.267
				z"/>
			<path fill="#3EA4DD" d="M170.054,22.267v1.331h-3.786v-1.331c0-1.453-0.139-2.417-0.416-2.892
				c-0.277-0.474-0.785-0.711-1.523-0.711c-0.658,0-1.124,0.218-1.401,0.654c-0.276,0.436-0.415,1.174-0.415,2.214v0.941
				c0,0.505,0.127,1.002,0.385,1.492c0.256,0.49,0.672,1.01,1.246,1.561l4.588,4.544c0.512,0.521,0.908,1.056,1.186,1.606
				c0.276,0.551,0.415,1.071,0.415,1.561v2.249c0,2.035-0.446,3.462-1.339,4.28s-2.407,1.228-4.541,1.228
				c-2.217,0-3.756-0.429-4.618-1.285c-0.862-0.856-1.294-2.44-1.294-4.75v-2.02h3.757v2.02c0,1.5,0.148,2.479,0.446,2.938
				c0.297,0.459,0.826,0.688,1.586,0.688c0.779,0,1.334-0.229,1.662-0.688c0.328-0.459,0.492-1.262,0.492-2.41V34.59
				c0-1.285-0.626-2.524-1.878-3.718c-0.041-0.046-0.071-0.076-0.093-0.092l-4.463-4.498c-0.473-0.474-0.812-0.944-1.017-1.411
				c-0.205-0.467-0.308-0.983-0.308-1.549v-1.698c0-1.943,0.436-3.324,1.309-4.142c0.871-0.818,2.324-1.228,4.355-1.228
				c2.114,0,3.587,0.429,4.418,1.285C169.639,18.396,170.054,19.972,170.054,22.267z"/>
			<path fill="#3EA4DD" d="M184.677,6.569h4.218v3.58h-4.218V6.569z M184.861,16.828h3.787V40.42h-3.787V16.828z"/>
			<path fill="#3EA4DD" d="M207.367,21.67v18.75h-3.787V22.267c0-1.346-0.2-2.284-0.601-2.811c-0.399-0.528-1.083-0.792-2.048-0.792
				c-0.943,0-1.621,0.272-2.031,0.814c-0.41,0.543-0.615,1.473-0.615,2.789V40.42h-3.787V16.828h3.541l0.246,1.446
				c0.512-0.658,1.164-1.159,1.955-1.503c0.789-0.344,1.697-0.516,2.725-0.516c1.6,0,2.734,0.402,3.401,1.205
				C207.033,18.262,207.367,19.666,207.367,21.67z"/>
			<path fill="#3EA4DD" d="M212.97,6.569h4.218v3.58h-4.218V6.569z M213.154,16.828h3.787V40.42h-3.787V16.828z"/>
			<path fill="#3EA4DD" d="M234.459,22.978v1.515h-3.973v-2.226c0-1.545-0.138-2.532-0.415-2.96
				c-0.276-0.428-0.785-0.643-1.524-0.643c-0.738,0-1.252,0.241-1.539,0.723c-0.287,0.482-0.431,1.442-0.431,2.88v12.691
				c0,1.469,0.148,2.44,0.446,2.915c0.297,0.475,0.826,0.711,1.586,0.711c0.718,0,1.211-0.218,1.478-0.654s0.399-1.426,0.399-2.972
				v-2.524h3.973v1.836c0,2.601-0.438,4.372-1.309,5.312c-0.873,0.941-2.407,1.412-4.604,1.412c-2.176,0-3.699-0.482-4.571-1.446
				c-0.872-0.964-1.308-2.738-1.308-5.324V22.978c0-2.616,0.43-4.391,1.293-5.324c0.861-0.933,2.391-1.4,4.586-1.4
				c2.176,0,3.705,0.479,4.588,1.434C234.018,18.645,234.459,20.408,234.459,22.978z"/>
			<path fill="#3EA4DD" d="M239.262,6.569h4.217v3.58h-4.217V6.569z M239.445,16.828h3.787V40.42h-3.787V16.828z"/>
			<path fill="#3EA4DD" d="M261.459,22.335v18.084h-3.541l-0.246-1.446c-0.514,0.658-1.165,1.159-1.955,1.503
				c-0.79,0.344-1.697,0.516-2.725,0.516c-1.602,0-2.734-0.402-3.402-1.205c-0.666-0.804-1-2.207-1-4.211v-4.705
				c0-1.851,0.672-3.167,2.018-3.947c1.344-0.78,3.699-1.216,7.064-1.308v-3.351c0-1.423-0.18-2.379-0.539-2.869
				c-0.359-0.489-1-0.734-1.924-0.734c-0.883,0-1.514,0.226-1.895,0.677c-0.379,0.452-0.568,1.228-0.568,2.33v1.308h-3.787v-0.643
				c0-2.356,0.462-3.959,1.387-4.808c0.922-0.85,2.564-1.274,4.926-1.274c2.297,0,3.903,0.429,4.816,1.285
				C261.002,18.396,261.459,19.995,261.459,22.335z M257.641,27.912c-1.97,0.062-3.309,0.321-4.018,0.78
				c-0.707,0.459-1.062,1.285-1.062,2.479v3.787c0,1.408,0.187,2.364,0.556,2.869c0.368,0.505,1.026,0.757,1.971,0.757
				c0.924,0,1.586-0.271,1.985-0.814s0.601-1.48,0.601-2.812L257.641,27.912z"/>
			<path fill="#3EA4DD" d="M267.246,6.569h3.787v33.85h-3.787V6.569z"/>
			<path fill="#3EA4DD" d="M289.628,22.978v7h-8.959v4.98c0,1.408,0.185,2.364,0.554,2.869s1.026,0.757,1.971,0.757
				c0.902,0,1.539-0.26,1.908-0.78c0.371-0.52,0.556-1.469,0.556-2.846v-2.616h3.972v1.928c0,2.601-0.473,4.372-1.417,5.312
				c-0.942,0.941-2.616,1.412-5.019,1.412c-2.381,0-4.049-0.479-5.002-1.434c-0.955-0.956-1.432-2.735-1.432-5.336V22.978
				c0-2.616,0.467-4.391,1.4-5.324c0.934-0.933,2.611-1.4,5.033-1.4c2.381,0,4.049,0.479,5.002,1.434
				C289.15,18.645,289.628,20.408,289.628,22.978z M285.656,22.267c0-1.392-0.186-2.341-0.555-2.846s-1.007-0.757-1.908-0.757
				c-0.924,0-1.575,0.268-1.955,0.803c-0.381,0.536-0.569,1.469-0.569,2.8v5.324h4.987V22.267z"/>
			<path fill="#3EA4DD" d="M306.006,22.267v1.331h-3.787v-1.331c0-1.453-0.139-2.417-0.414-2.892
				c-0.277-0.474-0.785-0.711-1.524-0.711c-0.656,0-1.123,0.218-1.4,0.654c-0.276,0.436-0.416,1.174-0.416,2.214v0.941
				c0,0.505,0.129,1.002,0.386,1.492c0.256,0.49,0.672,1.01,1.248,1.561l4.586,4.544c0.514,0.521,0.907,1.056,1.186,1.606
				c0.277,0.55,0.416,1.071,0.416,1.561v2.249c0,2.035-0.446,3.462-1.34,4.28s-2.406,1.228-4.541,1.228
				c-2.217,0-3.756-0.429-4.617-1.285c-0.862-0.856-1.293-2.44-1.293-4.75v-2.02h3.756v2.02c0,1.5,0.148,2.479,0.446,2.938
				s0.825,0.688,1.585,0.688c0.779,0,1.334-0.229,1.663-0.688c0.327-0.459,0.491-1.262,0.491-2.41V34.59
				c0-1.285-0.625-2.524-1.877-3.718c-0.041-0.046-0.072-0.076-0.093-0.092L296,26.283c-0.473-0.474-0.811-0.944-1.016-1.411
				s-0.309-0.983-0.309-1.549v-1.698c0-1.943,0.436-3.324,1.309-4.142s2.324-1.228,4.356-1.228c2.113,0,3.586,0.429,4.418,1.285
				C305.59,18.396,306.006,19.972,306.006,22.267z"/>
		</g>
	</g>
	<g>
		<g>
			<path fill="#3C3C3B" d="M3.252,59.376h1.611c0.009,0.279,0.014,0.44,0.014,0.482c0,0.482-0.093,0.898-0.276,1.247
				c-0.185,0.35-0.544,0.742-1.079,1.178c-0.535,0.436-0.855,0.74-0.962,0.914c-0.107,0.174-0.16,0.371-0.16,0.592
				c0,0.325,0.141,0.612,0.42,0.859c0.279,0.248,0.653,0.371,1.123,0.371c0.453,0,0.83-0.125,1.13-0.377
				c0.3-0.252,0.513-0.648,0.635-1.19l1.638,0.21c-0.072,0.528-0.223,0.969-0.451,1.32c-0.312,0.478-0.72,0.831-1.222,1.06
				c-0.501,0.229-1.055,0.343-1.659,0.343c-1.021,0-1.834-0.268-2.441-0.803c-0.607-0.535-0.91-1.154-0.91-1.857
				c0-0.271,0.054-0.534,0.161-0.79c0.108-0.256,0.277-0.513,0.508-0.771c0.231-0.259,0.599-0.595,1.102-1.01
				c0.368-0.296,0.598-0.543,0.688-0.739C3.213,60.217,3.256,59.872,3.252,59.376z M4.863,56.977v1.784H3.08v-1.784H4.863z"/>
			<path fill="#3C3C3B" d="M16.397,62.538c0.462,0.33,0.963,0.593,1.505,0.787l-0.692,1.327c-0.284-0.085-0.561-0.201-0.831-0.35
				c-0.06-0.029-0.477-0.305-1.251-0.825c-0.609,0.267-1.284,0.399-2.024,0.399c-1.431,0-2.551-0.421-3.361-1.263
				c-0.81-0.842-1.216-2.024-1.216-3.548c0-1.52,0.406-2.701,1.219-3.546c0.812-0.844,1.915-1.267,3.308-1.267
				c1.379,0,2.473,0.423,3.281,1.267c0.809,0.845,1.213,2.026,1.213,3.546c0,0.804-0.113,1.51-0.337,2.119
				C17.041,61.651,16.77,62.102,16.397,62.538z M14.887,61.478c0.241-0.284,0.422-0.627,0.543-1.029
				c0.121-0.401,0.181-0.863,0.181-1.383c0-1.075-0.237-1.878-0.711-2.409c-0.474-0.531-1.094-0.797-1.86-0.797
				s-1.387,0.267-1.863,0.8c-0.475,0.533-0.713,1.335-0.713,2.406c0,1.087,0.238,1.9,0.713,2.44c0.477,0.539,1.078,0.81,1.807,0.81
				c0.271,0,0.527-0.045,0.768-0.134c-0.381-0.25-0.768-0.444-1.161-0.584l0.526-1.073C13.733,60.737,14.324,61.054,14.887,61.478z"
				/>
			<path fill="#3C3C3B" d="M23.443,63.718v-1.01c-0.246,0.36-0.568,0.644-0.968,0.852c-0.4,0.207-0.822,0.311-1.267,0.311
				c-0.453,0-0.859-0.1-1.219-0.299c-0.359-0.198-0.62-0.479-0.781-0.838c-0.16-0.359-0.24-0.856-0.24-1.491v-4.266h1.783v3.098
				c0,0.948,0.033,1.528,0.099,1.742c0.066,0.214,0.185,0.383,0.358,0.508s0.394,0.188,0.66,0.188c0.305,0,0.578-0.084,0.818-0.251
				c0.242-0.167,0.406-0.374,0.496-0.622c0.088-0.247,0.133-0.854,0.133-1.818v-2.844H25.1v6.741L23.443,63.718L23.443,63.718z"/>
			<path fill="#3C3C3B" d="M30.852,61.573l1.777,0.298c-0.229,0.652-0.59,1.148-1.082,1.489c-0.494,0.341-1.11,0.511-1.852,0.511
				c-1.172,0-2.039-0.383-2.602-1.148c-0.445-0.614-0.667-1.389-0.667-2.324c0-1.117,0.292-1.991,0.876-2.624
				c0.584-0.633,1.322-0.949,2.215-0.949c1.004,0,1.795,0.331,2.375,0.993c0.579,0.662,0.856,1.677,0.831,3.044h-4.469
				c0.013,0.529,0.157,0.94,0.432,1.234c0.275,0.294,0.618,0.441,1.028,0.441c0.279,0,0.514-0.076,0.705-0.229
				C30.609,62.157,30.754,61.912,30.852,61.573z M30.953,59.77c-0.014-0.517-0.146-0.909-0.4-1.178
				c-0.254-0.269-0.562-0.403-0.927-0.403c-0.39,0-0.711,0.143-0.965,0.426c-0.254,0.283-0.379,0.669-0.374,1.155H30.953z
				 M28.674,56.152l0.876-1.898h1.999l-1.745,1.898H28.674z"/>
			<path fill="#3C3C3B" d="M39.566,54.413v3.421c0.576-0.672,1.264-1.009,2.062-1.009c0.411,0,0.781,0.076,1.111,0.229
				c0.33,0.153,0.578,0.347,0.746,0.584c0.167,0.237,0.281,0.499,0.342,0.787c0.062,0.288,0.093,0.734,0.093,1.339v3.955h-1.784
				v-3.561c0-0.707-0.033-1.156-0.102-1.346c-0.067-0.191-0.188-0.342-0.357-0.454c-0.172-0.112-0.387-0.169-0.645-0.169
				c-0.297,0-0.561,0.072-0.794,0.217c-0.233,0.144-0.403,0.36-0.511,0.65s-0.162,0.718-0.162,1.285v3.377h-1.783v-9.306
				L39.566,54.413L39.566,54.413z"/>
			<path fill="#3C3C3B" d="M47.062,59.034l-1.618-0.292c0.183-0.651,0.495-1.134,0.939-1.447c0.444-0.313,1.104-0.47,1.98-0.47
				c0.796,0,1.388,0.094,1.777,0.282c0.389,0.188,0.663,0.428,0.822,0.718c0.158,0.29,0.237,0.821,0.237,1.597l-0.019,2.082
				c0,0.592,0.028,1.029,0.086,1.311c0.057,0.281,0.163,0.583,0.32,0.904h-1.765c-0.047-0.118-0.104-0.294-0.172-0.527
				c-0.029-0.105-0.051-0.175-0.062-0.209c-0.305,0.296-0.631,0.519-0.979,0.666c-0.347,0.148-0.717,0.223-1.11,0.223
				c-0.694,0-1.241-0.188-1.641-0.564c-0.4-0.377-0.601-0.854-0.601-1.429c0-0.381,0.092-0.721,0.273-1.019
				c0.182-0.299,0.438-0.527,0.765-0.686c0.328-0.159,0.802-0.298,1.419-0.416c0.834-0.156,1.411-0.303,1.732-0.438v-0.178
				c0-0.344-0.084-0.588-0.254-0.733c-0.169-0.146-0.488-0.22-0.958-0.22c-0.317,0-0.565,0.062-0.743,0.188
				C47.312,58.503,47.173,58.72,47.062,59.034z M49.449,60.481c-0.229,0.076-0.59,0.167-1.085,0.272
				c-0.495,0.106-0.819,0.21-0.972,0.312c-0.232,0.165-0.349,0.374-0.349,0.628c0,0.25,0.093,0.466,0.279,0.648
				c0.187,0.182,0.423,0.272,0.711,0.272c0.321,0,0.628-0.105,0.921-0.317c0.215-0.161,0.357-0.357,0.425-0.59
				c0.046-0.152,0.069-0.442,0.069-0.87L49.449,60.481L49.449,60.481z"/>
			<path fill="#3C3C3B" d="M52.115,56.977h1.898l1.612,4.786l1.574-4.786h1.847l-2.38,6.487l-0.425,1.174
				c-0.157,0.395-0.307,0.694-0.447,0.902c-0.143,0.207-0.305,0.375-0.49,0.504c-0.184,0.129-0.41,0.229-0.678,0.302
				c-0.27,0.072-0.573,0.108-0.912,0.108c-0.342,0-0.679-0.036-1.009-0.108l-0.159-1.396c0.279,0.055,0.531,0.083,0.756,0.083
				c0.414,0,0.722-0.122,0.92-0.365c0.199-0.243,0.352-0.554,0.457-0.93L52.115,56.977z"/>
			<path fill="#3C3C3B" d="M63.751,56.977h1.663v0.99c0.216-0.339,0.508-0.613,0.876-0.825s0.776-0.317,1.226-0.317
				c0.782,0,1.447,0.307,1.992,0.921c0.547,0.613,0.819,1.468,0.819,2.564c0,1.125-0.274,2-0.825,2.624s-1.217,0.937-2,0.937
				c-0.372,0-0.709-0.074-1.012-0.223c-0.303-0.147-0.621-0.401-0.955-0.762v3.396h-1.784V56.977z M65.516,60.234
				c0,0.757,0.15,1.316,0.451,1.679c0.3,0.361,0.666,0.542,1.098,0.542c0.414,0,0.76-0.166,1.035-0.498
				c0.274-0.332,0.412-0.877,0.412-1.635c0-0.706-0.142-1.23-0.426-1.574c-0.283-0.342-0.635-0.514-1.053-0.514
				c-0.437,0-0.799,0.168-1.086,0.505C65.66,59.075,65.516,59.574,65.516,60.234z"/>
			<path fill="#3C3C3B" d="M71.33,60.252c0-0.593,0.146-1.166,0.438-1.72c0.293-0.555,0.706-0.979,1.241-1.27
				c0.536-0.293,1.134-0.438,1.794-0.438c1.021,0,1.855,0.331,2.507,0.993c0.652,0.662,0.978,1.499,0.978,2.511
				c0,1.02-0.329,1.865-0.987,2.536c-0.657,0.671-1.486,1.006-2.485,1.006c-0.617,0-1.207-0.14-1.768-0.419
				c-0.561-0.279-0.986-0.688-1.279-1.229C71.477,61.684,71.33,61.027,71.33,60.252z M73.158,60.347
				c0,0.669,0.158,1.182,0.477,1.537c0.316,0.355,0.709,0.533,1.174,0.533c0.465,0,0.855-0.178,1.171-0.533
				c0.316-0.355,0.474-0.872,0.474-1.549c0-0.66-0.158-1.168-0.474-1.523s-0.706-0.533-1.171-0.533
				c-0.465,0-0.857,0.178-1.174,0.533C73.316,59.167,73.158,59.679,73.158,60.347z"/>
			<path fill="#3C3C3B" d="M81.391,63.718h-1.783v-6.741h1.656v0.958c0.284-0.452,0.539-0.751,0.766-0.895
				c0.227-0.144,0.483-0.216,0.771-0.216c0.406,0,0.797,0.112,1.174,0.337l-0.553,1.555c-0.3-0.194-0.579-0.292-0.838-0.292
				c-0.249,0-0.461,0.068-0.635,0.206c-0.173,0.138-0.31,0.387-0.408,0.746c-0.1,0.359-0.15,1.113-0.15,2.26V63.718z"/>
			<path fill="#3C3C3B" d="M90.132,54.413v3.421c0.575-0.672,1.263-1.009,2.063-1.009c0.41,0,0.78,0.076,1.11,0.229
				c0.33,0.153,0.579,0.347,0.745,0.584c0.168,0.237,0.282,0.499,0.344,0.787c0.061,0.288,0.092,0.734,0.092,1.339v3.955h-1.783
				v-3.561c0-0.707-0.034-1.156-0.102-1.346c-0.068-0.191-0.188-0.342-0.359-0.454s-0.386-0.169-0.645-0.169
				c-0.296,0-0.561,0.072-0.793,0.217c-0.232,0.144-0.402,0.36-0.512,0.65c-0.107,0.29-0.161,0.718-0.161,1.285v3.377h-1.784v-9.306
				L90.132,54.413L90.132,54.413z"/>
			<path fill="#3C3C3B" d="M97.629,59.034l-1.619-0.292c0.182-0.651,0.495-1.134,0.939-1.447c0.444-0.313,1.104-0.47,1.98-0.47
				c0.795,0,1.389,0.094,1.777,0.282c0.388,0.188,0.663,0.428,0.822,0.718c0.158,0.29,0.238,0.821,0.238,1.597l-0.02,2.082
				c0,0.592,0.028,1.029,0.086,1.311c0.057,0.281,0.164,0.583,0.32,0.904h-1.765c-0.046-0.118-0.104-0.294-0.171-0.527
				c-0.03-0.105-0.051-0.175-0.064-0.209c-0.305,0.296-0.63,0.519-0.977,0.666c-0.348,0.148-0.718,0.223-1.111,0.223
				c-0.693,0-1.241-0.188-1.641-0.564c-0.4-0.377-0.6-0.854-0.6-1.429c0-0.381,0.09-0.721,0.272-1.019
				c0.183-0.299,0.437-0.527,0.765-0.686c0.328-0.159,0.801-0.298,1.419-0.416c0.833-0.156,1.411-0.303,1.733-0.438v-0.178
				c0-0.344-0.085-0.588-0.254-0.733c-0.17-0.146-0.489-0.22-0.959-0.22c-0.317,0-0.564,0.062-0.742,0.188
				C97.879,58.503,97.738,58.72,97.629,59.034z M100.016,60.481c-0.229,0.076-0.591,0.167-1.086,0.272
				c-0.495,0.106-0.818,0.21-0.971,0.312c-0.233,0.165-0.35,0.374-0.35,0.628c0,0.25,0.094,0.466,0.279,0.648
				c0.186,0.182,0.424,0.272,0.711,0.272c0.322,0,0.629-0.105,0.92-0.317c0.217-0.161,0.357-0.357,0.426-0.59
				c0.047-0.152,0.07-0.442,0.07-0.87L100.016,60.481L100.016,60.481z"/>
			<path fill="#3C3C3B" d="M109.403,58.97l-1.759,0.317c-0.059-0.352-0.193-0.616-0.402-0.794c-0.209-0.178-0.481-0.266-0.816-0.266
				c-0.443,0-0.799,0.153-1.062,0.46c-0.265,0.307-0.396,0.819-0.396,1.539c0,0.8,0.134,1.364,0.402,1.694
				c0.27,0.33,0.63,0.496,1.082,0.496c0.339,0,0.616-0.097,0.832-0.289c0.216-0.192,0.368-0.523,0.457-0.994l1.752,0.299
				c-0.182,0.804-0.531,1.411-1.047,1.822c-0.517,0.41-1.209,0.615-2.076,0.615c-0.986,0-1.771-0.311-2.357-0.934
				c-0.587-0.621-0.88-1.482-0.88-2.583c0-1.113,0.294-1.979,0.882-2.6c0.589-0.62,1.385-0.93,2.387-0.93
				c0.821,0,1.475,0.177,1.959,0.53C108.845,57.705,109.191,58.247,109.403,58.97z"/>
			<path fill="#3C3C3B" d="M114.659,61.573l1.777,0.298c-0.229,0.652-0.589,1.148-1.082,1.489c-0.493,0.341-1.11,0.511-1.851,0.511
				c-1.172,0-2.039-0.383-2.603-1.148c-0.444-0.614-0.667-1.389-0.667-2.324c0-1.117,0.293-1.991,0.877-2.624
				c0.584-0.633,1.322-0.949,2.215-0.949c1.003,0,1.795,0.331,2.374,0.993c0.579,0.662,0.856,1.677,0.831,3.044h-4.469
				c0.014,0.529,0.157,0.94,0.432,1.234c0.275,0.294,0.618,0.441,1.029,0.441c0.279,0,0.514-0.076,0.704-0.229
				S114.562,61.912,114.659,61.573z M114.761,59.77c-0.013-0.517-0.146-0.909-0.399-1.178c-0.253-0.269-0.563-0.403-0.928-0.403
				c-0.389,0-0.711,0.143-0.965,0.426c-0.254,0.283-0.379,0.669-0.374,1.155H114.761z"/>
			<path fill="#3C3C3B" d="M119.693,63.718h-1.784v-6.741h1.657v0.958c0.283-0.452,0.538-0.751,0.764-0.895
				c0.227-0.144,0.484-0.216,0.771-0.216c0.406,0,0.799,0.112,1.175,0.337l-0.552,1.555c-0.301-0.194-0.58-0.292-0.838-0.292
				c-0.25,0-0.462,0.068-0.635,0.206c-0.174,0.138-0.311,0.387-0.41,0.746c-0.099,0.359-0.148,1.113-0.148,2.26V63.718z"/>
			<path fill="#3C3C3B" d="M126.879,61.319h-1.619c-0.004-0.232-0.006-0.374-0.006-0.425c0-0.525,0.086-0.957,0.26-1.295
				c0.174-0.339,0.521-0.72,1.041-1.143c0.521-0.424,0.832-0.701,0.934-0.832c0.156-0.207,0.234-0.436,0.234-0.686
				c0-0.347-0.139-0.645-0.416-0.892c-0.277-0.248-0.65-0.372-1.12-0.372c-0.452,0-0.831,0.13-1.136,0.388
				c-0.305,0.258-0.515,0.651-0.629,1.181l-1.638-0.203c0.046-0.758,0.369-1.4,0.968-1.93c0.6-0.529,1.385-0.793,2.358-0.793
				c1.024,0,1.839,0.268,2.444,0.803c0.604,0.535,0.907,1.158,0.907,1.869c0,0.394-0.111,0.766-0.333,1.117
				c-0.223,0.352-0.697,0.829-1.426,1.435c-0.376,0.313-0.609,0.565-0.701,0.755C126.911,60.488,126.87,60.828,126.879,61.319z
				 M125.26,63.718v-1.783h1.783v1.783H125.26z"/>
			<path fill="#3C3C3B" d="M3.252,184.176h1.611c0.009,0.279,0.014,0.44,0.014,0.482c0,0.482-0.093,0.898-0.276,1.247
				c-0.185,0.35-0.544,0.742-1.079,1.178s-0.855,0.74-0.962,0.914s-0.159,0.37-0.159,0.591c0,0.325,0.141,0.612,0.42,0.859
				c0.279,0.248,0.653,0.371,1.123,0.371c0.453,0,0.83-0.125,1.13-0.377c0.3-0.252,0.513-0.648,0.635-1.19l1.638,0.21
				c-0.072,0.528-0.223,0.969-0.451,1.32c-0.312,0.478-0.72,0.831-1.222,1.06c-0.501,0.229-1.055,0.343-1.659,0.343
				c-1.021,0-1.834-0.268-2.441-0.803c-0.607-0.535-0.91-1.154-0.91-1.857c0-0.271,0.054-0.534,0.161-0.79
				c0.108-0.256,0.277-0.513,0.508-0.771c0.231-0.259,0.599-0.595,1.102-1.01c0.368-0.296,0.598-0.543,0.688-0.739
				C3.213,185.017,3.256,184.671,3.252,184.176z M4.863,181.777v1.784H3.08v-1.784H4.863z"/>
			<path fill="#3C3C3B" d="M14.861,185.096l1.822,0.578c-0.279,1.016-0.744,1.77-1.395,2.263c-0.648,0.493-1.473,0.739-2.472,0.739
				c-1.235,0-2.251-0.422-3.047-1.266c-0.796-0.845-1.193-1.999-1.193-3.463c0-1.549,0.399-2.752,1.2-3.608
				c0.799-0.857,1.852-1.286,3.154-1.286c1.139,0,2.062,0.337,2.773,1.01c0.424,0.397,0.741,0.969,0.953,1.714l-1.86,0.444
				c-0.11-0.482-0.339-0.863-0.688-1.143c-0.349-0.28-0.773-0.419-1.273-0.419c-0.689,0-1.249,0.247-1.678,0.743
				c-0.43,0.494-0.645,1.297-0.645,2.405c0,1.177,0.211,2.015,0.635,2.514c0.423,0.499,0.973,0.749,1.65,0.749
				c0.499,0,0.928-0.158,1.288-0.477C14.447,186.278,14.705,185.778,14.861,185.096z"/>
			<path fill="#3C3C3B" d="M17.87,185.052c0-0.593,0.146-1.166,0.438-1.72c0.291-0.555,0.705-0.979,1.24-1.27
				c0.535-0.293,1.133-0.438,1.793-0.438c1.021,0,1.855,0.331,2.508,0.993c0.653,0.662,0.978,1.499,0.978,2.511
				c0,1.02-0.329,1.865-0.987,2.536c-0.658,0.671-1.486,1.006-2.484,1.006c-0.618,0-1.207-0.14-1.769-0.419
				c-0.561-0.279-0.987-0.688-1.278-1.229C18.016,186.484,17.87,185.827,17.87,185.052z M19.698,185.147
				c0,0.669,0.159,1.182,0.476,1.537c0.318,0.355,0.709,0.533,1.175,0.533c0.466,0,0.856-0.178,1.171-0.533s0.473-0.872,0.473-1.549
				c0-0.66-0.157-1.168-0.473-1.523c-0.314-0.355-0.705-0.533-1.171-0.533c-0.466,0-0.856,0.178-1.175,0.533
				C19.857,183.967,19.698,184.479,19.698,185.147z M20.447,180.952l0.876-1.898h1.999l-1.745,1.898H20.447z"/>
			<path fill="#3C3C3B" d="M26.09,181.777h1.645v0.921c0.588-0.716,1.289-1.073,2.102-1.073c0.432,0,0.806,0.089,1.123,0.267
				c0.317,0.178,0.578,0.446,0.781,0.807c0.296-0.36,0.615-0.629,0.958-0.807c0.343-0.178,0.709-0.267,1.099-0.267
				c0.494,0,0.914,0.101,1.256,0.302c0.344,0.201,0.6,0.496,0.769,0.885c0.122,0.288,0.185,0.754,0.185,1.396v4.311h-1.784v-3.854
				c0-0.668-0.062-1.1-0.185-1.295c-0.164-0.254-0.418-0.381-0.762-0.381c-0.249,0-0.484,0.076-0.704,0.229
				c-0.22,0.153-0.379,0.376-0.476,0.67c-0.098,0.294-0.146,0.759-0.146,1.394v3.237h-1.783v-3.694c0-0.656-0.032-1.079-0.096-1.27
				c-0.064-0.191-0.162-0.332-0.295-0.425c-0.133-0.094-0.314-0.141-0.543-0.141c-0.275,0-0.522,0.074-0.742,0.223
				c-0.221,0.148-0.379,0.361-0.473,0.641c-0.096,0.279-0.144,0.743-0.144,1.391v3.275H26.09V181.777z"/>
			<path fill="#3C3C3B" d="M37.37,185.052c0-0.593,0.146-1.166,0.438-1.72c0.291-0.555,0.705-0.979,1.24-1.27
				c0.535-0.293,1.133-0.438,1.793-0.438c1.021,0,1.855,0.331,2.508,0.993c0.653,0.662,0.978,1.499,0.978,2.511
				c0,1.02-0.329,1.865-0.987,2.536c-0.658,0.671-1.486,1.006-2.484,1.006c-0.618,0-1.207-0.14-1.769-0.419
				c-0.561-0.279-0.987-0.688-1.278-1.229C37.516,186.484,37.37,185.827,37.37,185.052z M39.198,185.147
				c0,0.669,0.159,1.182,0.476,1.537c0.318,0.355,0.709,0.533,1.175,0.533c0.466,0,0.856-0.178,1.171-0.533s0.473-0.872,0.473-1.549
				c0-0.66-0.157-1.168-0.473-1.523c-0.314-0.355-0.705-0.533-1.171-0.533c-0.466,0-0.856,0.178-1.175,0.533
				C39.357,183.967,39.198,184.479,39.198,185.147z"/>
			<path fill="#3C3C3B" d="M49.336,188.518v-9.306h1.783v9.306H49.336z"/>
			<path fill="#3C3C3B" d="M52.535,185.052c0-0.593,0.146-1.166,0.438-1.72c0.292-0.555,0.705-0.979,1.24-1.27
				c0.536-0.293,1.134-0.438,1.794-0.438c1.021,0,1.855,0.331,2.507,0.993c0.652,0.662,0.979,1.499,0.979,2.511
				c0,1.02-0.33,1.865-0.988,2.536c-0.657,0.671-1.486,1.006-2.484,1.006c-0.617,0-1.207-0.14-1.768-0.419s-0.987-0.688-1.279-1.229
				C52.681,186.484,52.535,185.827,52.535,185.052z M54.363,185.147c0,0.669,0.158,1.182,0.476,1.537
				c0.318,0.355,0.709,0.533,1.175,0.533c0.465,0,0.855-0.178,1.17-0.533c0.316-0.355,0.474-0.872,0.474-1.549
				c0-0.66-0.157-1.168-0.474-1.523c-0.314-0.355-0.705-0.533-1.17-0.533c-0.466,0-0.857,0.178-1.175,0.533
				C54.521,183.967,54.363,184.479,54.363,185.147z"/>
			<path fill="#3C3C3B" d="M66.277,179.212v3.421c0.576-0.672,1.264-1.009,2.062-1.009c0.411,0,0.781,0.076,1.111,0.229
				s0.578,0.347,0.746,0.584c0.167,0.237,0.281,0.499,0.342,0.787c0.062,0.288,0.093,0.734,0.093,1.339v3.955h-1.784v-3.561
				c0-0.707-0.033-1.156-0.102-1.346c-0.067-0.191-0.188-0.342-0.357-0.454c-0.172-0.112-0.387-0.169-0.645-0.169
				c-0.297,0-0.561,0.072-0.794,0.217c-0.233,0.144-0.403,0.36-0.511,0.65s-0.162,0.718-0.162,1.285v3.377h-1.783v-9.306
				L66.277,179.212L66.277,179.212z"/>
			<path fill="#3C3C3B" d="M73.773,183.833l-1.618-0.292c0.183-0.651,0.495-1.134,0.938-1.447c0.444-0.312,1.104-0.47,1.98-0.47
				c0.796,0,1.388,0.094,1.777,0.282c0.389,0.188,0.663,0.428,0.822,0.718c0.158,0.29,0.237,0.821,0.237,1.597l-0.019,2.082
				c0,0.592,0.028,1.029,0.086,1.312c0.057,0.281,0.163,0.583,0.32,0.904h-1.765c-0.047-0.118-0.104-0.294-0.172-0.527
				c-0.029-0.105-0.051-0.175-0.062-0.209c-0.305,0.296-0.631,0.519-0.979,0.666c-0.347,0.148-0.717,0.223-1.11,0.223
				c-0.694,0-1.241-0.188-1.641-0.564c-0.4-0.377-0.601-0.854-0.601-1.429c0-0.381,0.092-0.721,0.273-1.019
				c0.182-0.299,0.438-0.527,0.765-0.686c0.328-0.159,0.802-0.298,1.419-0.416c0.834-0.156,1.411-0.303,1.732-0.438v-0.178
				c0-0.344-0.084-0.588-0.254-0.733c-0.169-0.146-0.488-0.22-0.958-0.22c-0.317,0-0.565,0.062-0.743,0.188
				C74.023,183.302,73.884,183.52,73.773,183.833z M76.16,185.281c-0.229,0.076-0.59,0.167-1.085,0.271
				c-0.495,0.106-0.819,0.21-0.972,0.312c-0.232,0.165-0.349,0.374-0.349,0.628c0,0.25,0.093,0.466,0.279,0.648
				c0.187,0.182,0.423,0.272,0.711,0.272c0.321,0,0.628-0.105,0.921-0.317c0.215-0.161,0.357-0.357,0.425-0.59
				c0.046-0.152,0.069-0.442,0.069-0.87L76.16,185.281L76.16,185.281z"/>
			<path fill="#3C3C3B" d="M79.506,188.962l2.037,0.247c0.034,0.237,0.113,0.4,0.235,0.489c0.169,0.127,0.437,0.19,0.8,0.19
				c0.465,0,0.814-0.07,1.047-0.209c0.157-0.094,0.275-0.244,0.355-0.451c0.056-0.148,0.083-0.421,0.083-0.818v-0.984
				c-0.533,0.728-1.206,1.092-2.019,1.092c-0.906,0-1.623-0.383-2.152-1.148c-0.414-0.605-0.621-1.359-0.621-2.26
				c0-1.131,0.271-1.994,0.814-2.59c0.545-0.598,1.221-0.896,2.029-0.896c0.833,0,1.521,0.366,2.062,1.099v-0.946h1.67v6.05
				c0,0.795-0.066,1.39-0.197,1.783c-0.131,0.393-0.315,0.702-0.553,0.927c-0.236,0.225-0.553,0.399-0.949,0.526
				c-0.395,0.127-0.896,0.191-1.5,0.191c-1.143,0-1.953-0.196-2.432-0.588s-0.717-0.888-0.717-1.488
				C79.5,189.119,79.502,189.047,79.506,188.962z M81.1,185.008c0,0.715,0.139,1.238,0.416,1.57
				c0.276,0.332,0.618,0.498,1.024,0.498c0.437,0,0.804-0.17,1.104-0.511c0.3-0.341,0.451-0.845,0.451-1.514
				c0-0.698-0.145-1.217-0.432-1.556c-0.288-0.338-0.652-0.508-1.092-0.508c-0.428,0-0.78,0.167-1.057,0.499
				C81.238,183.82,81.1,184.327,81.1,185.008z"/>
			<path fill="#3C3C3B" d="M87.199,185.052c0-0.593,0.146-1.166,0.438-1.72c0.293-0.555,0.706-0.979,1.241-1.27
				c0.536-0.293,1.134-0.438,1.794-0.438c1.02,0,1.855,0.331,2.507,0.993c0.652,0.662,0.978,1.499,0.978,2.511
				c0,1.02-0.329,1.865-0.987,2.536c-0.657,0.671-1.486,1.006-2.485,1.006c-0.617,0-1.207-0.14-1.768-0.419
				s-0.986-0.688-1.279-1.229C87.346,186.484,87.199,185.827,87.199,185.052z M89.027,185.147c0,0.669,0.158,1.182,0.477,1.537
				c0.316,0.355,0.709,0.533,1.174,0.533c0.465,0,0.855-0.178,1.171-0.533s0.474-0.872,0.474-1.549c0-0.66-0.158-1.168-0.474-1.523
				s-0.706-0.533-1.171-0.533c-0.465,0-0.857,0.178-1.174,0.533C89.186,183.967,89.027,184.479,89.027,185.147z"/>
			<path fill="#3C3C3B" d="M99.387,186.119h-1.619c-0.004-0.232-0.006-0.374-0.006-0.425c0-0.525,0.087-0.957,0.26-1.295
				c0.174-0.339,0.521-0.72,1.041-1.143c0.521-0.424,0.832-0.701,0.934-0.832c0.156-0.207,0.234-0.436,0.234-0.686
				c0-0.347-0.139-0.645-0.416-0.892c-0.276-0.248-0.65-0.372-1.119-0.372c-0.453,0-0.832,0.13-1.137,0.388
				c-0.305,0.258-0.514,0.651-0.629,1.181l-1.637-0.203c0.046-0.758,0.369-1.4,0.967-1.93c0.6-0.529,1.386-0.793,2.359-0.793
				c1.023,0,1.838,0.268,2.443,0.803s0.908,1.158,0.908,1.869c0,0.394-0.111,0.766-0.334,1.117
				c-0.223,0.351-0.697,0.829-1.425,1.435c-0.376,0.313-0.61,0.565-0.702,0.755C99.42,185.288,99.379,185.627,99.387,186.119z
				 M97.768,188.518v-1.783h1.784v1.783H97.768z"/>
			<path fill="#3C3C3B" d="M3.252,340.177h1.611c0.009,0.279,0.014,0.439,0.014,0.482c0,0.481-0.093,0.897-0.276,1.246
				c-0.185,0.35-0.544,0.742-1.079,1.178s-0.855,0.74-0.962,0.914s-0.16,0.371-0.16,0.592c0,0.324,0.141,0.611,0.42,0.859
				c0.279,0.248,0.653,0.371,1.123,0.371c0.453,0,0.83-0.125,1.13-0.377c0.3-0.252,0.513-0.648,0.635-1.191l1.638,0.211
				c-0.072,0.527-0.223,0.969-0.451,1.32c-0.312,0.477-0.72,0.83-1.222,1.059c-0.501,0.229-1.055,0.344-1.659,0.344
				c-1.021,0-1.834-0.268-2.441-0.803c-0.607-0.535-0.91-1.154-0.91-1.856c0-0.271,0.054-0.535,0.161-0.791
				c0.108-0.257,0.277-0.513,0.508-0.771c0.231-0.26,0.599-0.596,1.102-1.01c0.368-0.297,0.598-0.543,0.688-0.74
				C3.213,341.017,3.256,340.671,3.252,340.177z M4.863,337.776v1.784H3.08v-1.784H4.863z"/>
			<path fill="#3C3C3B" d="M16.397,343.337c0.462,0.33,0.963,0.594,1.505,0.787l-0.692,1.328c-0.284-0.086-0.561-0.201-0.831-0.351
				c-0.06-0.028-0.477-0.305-1.251-0.825c-0.609,0.268-1.284,0.399-2.024,0.399c-1.431,0-2.551-0.422-3.361-1.264
				c-0.81-0.842-1.216-2.023-1.216-3.547c0-1.521,0.406-2.701,1.219-3.547c0.812-0.845,1.915-1.267,3.308-1.267
				c1.379,0,2.473,0.422,3.281,1.267c0.809,0.846,1.213,2.026,1.213,3.547c0,0.803-0.113,1.51-0.337,2.119
				C17.041,342.45,16.77,342.901,16.397,343.337z M14.887,342.278c0.241-0.285,0.422-0.627,0.543-1.029
				c0.121-0.402,0.181-0.863,0.181-1.383c0-1.076-0.237-1.879-0.711-2.41s-1.094-0.797-1.86-0.797s-1.387,0.268-1.863,0.801
				c-0.475,0.533-0.713,1.334-0.713,2.406c0,1.086,0.238,1.899,0.713,2.438c0.477,0.539,1.078,0.812,1.807,0.812
				c0.271,0,0.527-0.045,0.768-0.135c-0.381-0.25-0.768-0.443-1.161-0.584l0.526-1.072
				C13.733,341.536,14.324,341.854,14.887,342.278z"/>
			<path fill="#3C3C3B" d="M23.443,344.519v-1.01c-0.246,0.359-0.568,0.644-0.968,0.853c-0.4,0.207-0.822,0.311-1.267,0.311
				c-0.453,0-0.859-0.1-1.219-0.299c-0.36-0.199-0.62-0.479-0.781-0.838c-0.16-0.359-0.24-0.857-0.24-1.492v-4.266h1.783v3.098
				c0,0.949,0.033,1.529,0.099,1.742c0.065,0.215,0.185,0.383,0.358,0.508s0.394,0.188,0.66,0.188c0.305,0,0.578-0.084,0.818-0.25
				c0.242-0.168,0.406-0.375,0.496-0.622c0.088-0.246,0.133-0.854,0.133-1.818v-2.844H25.1v6.741L23.443,344.519L23.443,344.519z"/>
			<path fill="#3C3C3B" d="M30.852,342.372l1.777,0.299c-0.229,0.652-0.59,1.148-1.082,1.488c-0.494,0.342-1.11,0.512-1.852,0.512
				c-1.172,0-2.039-0.383-2.602-1.147c-0.445-0.615-0.667-1.39-0.667-2.324c0-1.117,0.292-1.992,0.876-2.625
				s1.322-0.949,2.215-0.949c1.004,0,1.795,0.332,2.375,0.994c0.579,0.662,0.856,1.676,0.831,3.043h-4.469
				c0.013,0.529,0.157,0.94,0.432,1.234c0.274,0.295,0.618,0.44,1.028,0.44c0.279,0,0.514-0.076,0.705-0.229
				C30.609,342.956,30.754,342.712,30.852,342.372z M30.953,340.569c-0.014-0.517-0.146-0.908-0.4-1.179
				c-0.254-0.268-0.562-0.401-0.927-0.401c-0.39,0-0.711,0.143-0.965,0.426s-0.379,0.668-0.374,1.154H30.953L30.953,340.569z
				 M28.674,336.952l0.876-1.898h1.999l-1.745,1.898H28.674z"/>
			<path fill="#3C3C3B" d="M39.496,344.519h-1.783v-6.741h1.656v0.959c0.284-0.453,0.539-0.752,0.766-0.896
				c0.227-0.145,0.483-0.217,0.771-0.217c0.406,0,0.797,0.113,1.174,0.338l-0.553,1.555c-0.3-0.194-0.579-0.293-0.838-0.293
				c-0.249,0-0.461,0.068-0.635,0.207c-0.173,0.138-0.31,0.388-0.408,0.746c-0.1,0.359-0.15,1.113-0.15,2.261V344.519z"/>
			<path fill="#3C3C3B" d="M47.285,344.519v-1.01c-0.246,0.359-0.568,0.644-0.968,0.853c-0.4,0.207-0.822,0.311-1.267,0.311
				c-0.453,0-0.859-0.1-1.219-0.299s-0.62-0.479-0.781-0.838c-0.16-0.359-0.24-0.857-0.24-1.492v-4.266h1.783v3.098
				c0,0.949,0.033,1.529,0.099,1.742c0.065,0.215,0.185,0.383,0.358,0.508c0.173,0.125,0.394,0.188,0.66,0.188
				c0.305,0,0.578-0.084,0.818-0.25c0.242-0.168,0.406-0.375,0.496-0.622c0.088-0.246,0.133-0.854,0.133-1.818v-2.844h1.783v6.741
				L47.285,344.519L47.285,344.519z"/>
			<path fill="#3C3C3B" d="M53.881,337.776v1.422h-1.219v2.717c0,0.551,0.012,0.871,0.035,0.963c0.021,0.09,0.076,0.166,0.158,0.226
				c0.082,0.059,0.183,0.09,0.301,0.09c0.166,0,0.404-0.06,0.718-0.172l0.152,1.383c-0.415,0.178-0.884,0.268-1.409,0.268
				c-0.322,0-0.611-0.055-0.869-0.162c-0.259-0.106-0.447-0.248-0.568-0.42c-0.121-0.17-0.205-0.401-0.251-0.692
				c-0.038-0.209-0.058-0.628-0.058-1.259V339.2h-0.818v-1.422h0.818v-1.338l1.791-1.041v2.379h1.219V337.776z"/>
			<path fill="#3C3C3B" d="M56.451,339.833l-1.619-0.291c0.183-0.652,0.496-1.135,0.939-1.447c0.445-0.313,1.105-0.471,1.98-0.471
				c0.796,0,1.389,0.094,1.777,0.283c0.39,0.188,0.664,0.428,0.822,0.717c0.158,0.291,0.238,0.822,0.238,1.598l-0.02,2.082
				c0,0.593,0.029,1.029,0.086,1.312c0.057,0.282,0.164,0.582,0.32,0.903H59.21c-0.047-0.118-0.104-0.295-0.172-0.526
				c-0.029-0.105-0.051-0.176-0.063-0.209c-0.305,0.295-0.63,0.518-0.978,0.666c-0.348,0.147-0.717,0.223-1.111,0.223
				c-0.693,0-1.24-0.188-1.641-0.563c-0.4-0.378-0.6-0.854-0.6-1.431c0-0.381,0.091-0.721,0.273-1.018
				c0.182-0.299,0.437-0.527,0.764-0.687c0.328-0.159,0.802-0.299,1.42-0.416c0.833-0.155,1.41-0.303,1.732-0.438v-0.178
				c0-0.345-0.084-0.589-0.254-0.734c-0.17-0.146-0.488-0.219-0.959-0.219c-0.316,0-0.564,0.062-0.742,0.188
				C56.701,339.303,56.561,339.521,56.451,339.833z M58.838,341.28c-0.229,0.076-0.59,0.168-1.086,0.272
				c-0.494,0.105-0.818,0.209-0.971,0.312c-0.232,0.166-0.35,0.375-0.35,0.629c0,0.25,0.094,0.465,0.279,0.647
				c0.187,0.183,0.424,0.271,0.711,0.271c0.322,0,0.629-0.105,0.921-0.316c0.216-0.162,0.357-0.356,0.425-0.59
				c0.047-0.152,0.07-0.442,0.07-0.871L58.838,341.28L58.838,341.28z"/>
			<path fill="#3C3C3B" d="M65.332,342.595l1.789-0.272c0.076,0.348,0.23,0.61,0.464,0.791c0.234,0.18,0.559,0.27,0.978,0.27
				c0.461,0,0.809-0.084,1.041-0.254c0.156-0.119,0.234-0.277,0.234-0.477c0-0.136-0.042-0.246-0.127-0.336
				c-0.088-0.084-0.287-0.162-0.596-0.234c-1.439-0.318-2.352-0.607-2.736-0.869c-0.533-0.365-0.8-0.871-0.8-1.518
				c0-0.584,0.23-1.076,0.692-1.474c0.461-0.397,1.176-0.598,2.145-0.598c0.923,0,1.608,0.15,2.057,0.451
				c0.449,0.301,0.758,0.744,0.928,1.334l-1.683,0.311c-0.071-0.264-0.208-0.463-0.409-0.604c-0.201-0.14-0.488-0.209-0.86-0.209
				c-0.47,0-0.806,0.063-1.009,0.196c-0.136,0.093-0.203,0.214-0.203,0.361c0,0.127,0.059,0.234,0.178,0.324
				c0.16,0.117,0.716,0.285,1.666,0.5c0.949,0.217,1.613,0.479,1.99,0.795c0.372,0.316,0.559,0.758,0.559,1.326
				c0,0.617-0.259,1.147-0.775,1.594c-0.516,0.443-1.279,0.666-2.291,0.666c-0.918,0-1.645-0.188-2.18-0.559
				C65.847,343.739,65.496,343.233,65.332,342.595z"/>
			<path fill="#3C3C3B" d="M73.189,336.862v-1.65h1.784v1.65H73.189z M73.189,344.519v-6.741h1.784v6.741H73.189z"/>
			<path fill="#3C3C3B" d="M76.637,344.962l2.037,0.248c0.034,0.236,0.113,0.4,0.235,0.488c0.169,0.127,0.437,0.19,0.8,0.19
				c0.465,0,0.814-0.069,1.047-0.209c0.157-0.094,0.275-0.244,0.355-0.451c0.056-0.147,0.083-0.422,0.083-0.817v-0.984
				c-0.533,0.728-1.206,1.092-2.019,1.092c-0.906,0-1.623-0.383-2.152-1.147c-0.414-0.605-0.621-1.359-0.621-2.26
				c0-1.131,0.271-1.994,0.814-2.59c0.545-0.599,1.221-0.896,2.029-0.896c0.833,0,1.521,0.367,2.062,1.1v-0.946h1.67v6.051
				c0,0.795-0.066,1.389-0.197,1.783c-0.131,0.393-0.315,0.7-0.553,0.926c-0.236,0.225-0.553,0.399-0.949,0.527
				c-0.395,0.127-0.896,0.19-1.5,0.19c-1.143,0-1.953-0.197-2.432-0.588c-0.479-0.393-0.717-0.889-0.717-1.488
				C76.631,345.118,76.633,345.048,76.637,344.962z M78.23,341.009c0,0.715,0.139,1.238,0.416,1.57
				c0.276,0.332,0.618,0.498,1.024,0.498c0.437,0,0.804-0.17,1.104-0.512c0.301-0.341,0.451-0.845,0.451-1.515
				c0-0.697-0.145-1.217-0.432-1.555c-0.288-0.338-0.652-0.508-1.092-0.508c-0.428,0-0.78,0.166-1.057,0.498
				C78.369,339.819,78.23,340.327,78.23,341.009z"/>
			<path fill="#3C3C3B" d="M84.33,341.052c0-0.592,0.146-1.166,0.438-1.719c0.293-0.555,0.706-0.979,1.241-1.27
				c0.536-0.294,1.134-0.439,1.794-0.439c1.021,0,1.855,0.332,2.507,0.994s0.978,1.498,0.978,2.51c0,1.021-0.329,1.865-0.987,2.537
				c-0.657,0.67-1.486,1.006-2.485,1.006c-0.617,0-1.207-0.141-1.768-0.42s-0.986-0.688-1.279-1.229
				C84.477,342.483,84.33,341.827,84.33,341.052z M86.158,341.147c0,0.668,0.158,1.182,0.477,1.536
				c0.316,0.355,0.709,0.533,1.174,0.533c0.465,0,0.855-0.178,1.171-0.533c0.316-0.354,0.474-0.873,0.474-1.549
				c0-0.66-0.158-1.168-0.474-1.522c-0.316-0.355-0.706-0.533-1.171-0.533c-0.465,0-0.857,0.178-1.174,0.533
				C86.316,339.968,86.158,340.479,86.158,341.147z"/>
			<path fill="#3C3C3B" d="M96.518,342.118h-1.619c-0.004-0.232-0.006-0.373-0.006-0.424c0-0.525,0.087-0.957,0.26-1.295
				c0.174-0.341,0.521-0.722,1.041-1.144c0.521-0.424,0.832-0.701,0.934-0.832c0.156-0.207,0.234-0.436,0.234-0.686
				c0-0.349-0.139-0.646-0.416-0.894c-0.276-0.248-0.65-0.371-1.119-0.371c-0.453,0-0.832,0.129-1.137,0.388
				c-0.305,0.258-0.514,0.651-0.629,1.182l-1.637-0.203c0.046-0.758,0.369-1.399,0.967-1.93c0.6-0.529,1.386-0.793,2.359-0.793
				c1.023,0,1.838,0.268,2.443,0.803s0.908,1.158,0.908,1.869c0,0.393-0.111,0.766-0.334,1.117
				c-0.223,0.351-0.697,0.828-1.425,1.434c-0.376,0.314-0.61,0.566-0.702,0.756C96.551,341.288,96.51,341.628,96.518,342.118z
				 M94.898,344.519v-1.782h1.784v1.782H94.898z"/>
		</g>
	</g>
</g>
</svg>
