<?xml version="1.0" encoding="utf-8"?>
<!-- Generator: Adobe Illustrator 16.0.0, SVG Export Plug-In . SVG Version: 6.00 Build 0)  -->
<!DOCTYPE svg PUBLIC "-//W3C//DTD SVG 1.1//EN" "http://www.w3.org/Graphics/SVG/1.1/DTD/svg11.dtd">
<svg version="1.1" id="Capa_1" xmlns="http://www.w3.org/2000/svg" xmlns:xlink="http://www.w3.org/1999/xlink" x="0px" y="0px"
	 width="415.896px" height="383.352px" viewBox="0 0 415.896 383.352" enable-background="new 0 0 415.896 383.352"
	 xml:space="preserve">
<g>
	<g>
		<g>
			<path fill="#E94E1B" d="M7.409,6.568h5.727l6.558,33.853h-4.219l-1.569-9.409h-7.45L4.763,40.42H0.637L7.409,6.568z M10.119,9.07
				L6.824,28.531h6.558L10.303,9.07H10.119z"/>
			<path fill="#E94E1B" d="M36.041,22.978v1.517h-3.973v-2.229c0-1.545-0.138-2.531-0.415-2.96
				c-0.276-0.429-0.785-0.643-1.524-0.643c-0.738,0-1.252,0.239-1.539,0.723c-0.287,0.482-0.431,1.442-0.431,2.88v12.691
				c0,1.469,0.148,2.438,0.446,2.914c0.297,0.475,0.826,0.712,1.586,0.712c0.718,0,1.211-0.218,1.478-0.654
				c0.267-0.436,0.399-1.427,0.399-2.972v-2.524h3.973v1.836c0,2.603-0.438,4.372-1.309,5.312c-0.873,0.939-2.407,1.411-4.604,1.411
				c-2.176,0-3.699-0.481-4.571-1.445s-1.308-2.738-1.308-5.324V22.978c0-2.616,0.43-4.391,1.293-5.324
				c0.861-0.933,2.391-1.397,4.586-1.397c2.176,0,3.705,0.479,4.588,1.434C35.6,18.645,36.041,20.407,36.041,22.978z"/>
			<path fill="#E94E1B" d="M44.999,10.471v6.356h2.894v2.387h-2.894v17.533c0,0.658,0.169,1.111,0.509,1.363
				c0.338,0.255,0.948,0.381,1.831,0.381h0.554v2.456c-0.226,0.015-0.457,0.023-0.692,0.032c-0.235,0.008-0.569,0.013-1.001,0.013
				c-1.929,0-3.242-0.35-3.939-1.044c-0.699-0.696-1.047-2.245-1.047-4.647V19.214H39.15v-2.387h2.062v-5.21L44.999,10.471z"/>
			<path fill="#E94E1B" d="M51.495,6.568h4.218v3.58h-4.218V6.568z M51.68,16.827h3.787v23.592H51.68V16.827z"/>
			<path fill="#E94E1B" d="M59.254,16.827h3.693l2.647,21.157h0.338l2.833-21.157h3.479l-3.85,23.592h-5.232L59.254,16.827z"/>
			<path fill="#E94E1B" d="M75.878,6.568h4.218v3.58h-4.218V6.568z M76.062,16.827h3.787v23.592h-3.787V16.827z"/>
			<path fill="#E94E1B" d="M94.596,6.568h3.85V40.42h-3.541l-0.309-1.446c-0.513,0.674-1.154,1.179-1.924,1.518
				c-0.77,0.336-1.668,0.504-2.693,0.504c-1.58,0-2.709-0.401-3.387-1.204c-0.678-0.806-1.016-2.207-1.016-4.212V21.67
				c0-2.004,0.338-3.408,1.016-4.212c0.678-0.803,1.807-1.204,3.387-1.204c1.025,0,1.929,0.172,2.709,0.516
				c0.779,0.347,1.416,0.848,1.908,1.504V6.568L94.596,6.568z M94.596,22.266c0-1.33-0.189-2.264-0.568-2.799
				c-0.381-0.535-1.031-0.804-1.955-0.804c-0.945,0-1.611,0.261-2.002,0.778c-0.39,0.521-0.584,1.461-0.584,2.822v12.691
				c0,1.377,0.194,2.326,0.584,2.846c0.391,0.521,1.057,0.78,2.002,0.78c0.924,0,1.574-0.27,1.955-0.806
				c0.379-0.533,0.568-1.476,0.568-2.82V22.266z"/>
			<path fill="#E94E1B" d="M116.608,22.335v18.084h-3.54l-0.246-1.446c-0.514,0.658-1.166,1.159-1.955,1.504
				c-0.791,0.344-1.699,0.518-2.725,0.518c-1.602,0-2.735-0.401-3.402-1.204c-0.667-0.806-1-2.207-1-4.212v-4.704
				c0-1.853,0.672-3.167,2.016-3.947c1.344-0.78,3.699-1.216,7.066-1.308v-3.354c0-1.422-0.181-2.379-0.539-2.868
				c-0.359-0.487-1.001-0.732-1.924-0.732c-0.883,0-1.515,0.226-1.895,0.677c-0.379,0.451-0.568,1.229-0.568,2.33v1.308h-3.787
				v-0.643c0-2.356,0.461-3.959,1.385-4.81c0.924-0.85,2.566-1.271,4.926-1.271c2.299,0,3.904,0.428,4.818,1.285
				C116.151,18.396,116.608,19.994,116.608,22.335z M112.791,27.912c-1.971,0.061-3.31,0.318-4.018,0.777s-1.062,1.285-1.062,2.479
				v3.787c0,1.408,0.186,2.361,0.555,2.869c0.369,0.504,1.025,0.757,1.971,0.757c0.923,0,1.585-0.271,1.984-0.814
				c0.4-0.543,0.602-1.479,0.602-2.812L112.791,27.912z"/>
			<path fill="#E94E1B" d="M131.293,6.568h3.85V40.42h-3.541l-0.309-1.446c-0.513,0.674-1.154,1.179-1.924,1.518
				c-0.77,0.336-1.668,0.504-2.693,0.504c-1.58,0-2.709-0.401-3.387-1.204c-0.678-0.806-1.016-2.207-1.016-4.212V21.67
				c0-2.004,0.338-3.408,1.016-4.212c0.678-0.803,1.807-1.204,3.387-1.204c1.025,0,1.929,0.172,2.709,0.516
				c0.779,0.347,1.416,0.848,1.908,1.504V6.568L131.293,6.568z M131.293,22.266c0-1.33-0.189-2.264-0.568-2.799
				c-0.381-0.535-1.031-0.804-1.955-0.804c-0.945,0-1.611,0.261-2.002,0.778c-0.39,0.521-0.584,1.461-0.584,2.822v12.691
				c0,1.377,0.194,2.326,0.584,2.846c0.391,0.521,1.057,0.78,2.002,0.78c0.924,0,1.574-0.27,1.955-0.806
				c0.379-0.533,0.568-1.476,0.568-2.82V22.266z"/>
			<path fill="#E94E1B" d="M165.682,7.67h5.512v21.756h3.324v2.295h-3.324v8.698h-3.664v-8.698h-8.189v-2.914L165.682,7.67z
				 M167.652,9.92l-5.11,19.506h4.987l0.492-19.506H167.652z"/>
		</g>
	</g>
</g>
<g>
	<path fill="#2B1C48" d="M7.812,51.171h2.08v8.081h3.422v-8.081h2.08v18.005h-2.08V60.57H9.892v8.606h-2.08V51.171z"/>
	<path fill="#2B1C48" d="M25.58,59.899v3.723h-4.765v2.649c0,0.749,0.098,1.257,0.294,1.526c0.197,0.268,0.546,0.402,1.048,0.402
		c0.48,0,0.819-0.139,1.015-0.415s0.295-0.781,0.295-1.514v-1.392h2.112v1.025c0,1.384-0.251,2.325-0.753,2.826
		c-0.502,0.5-1.392,0.75-2.669,0.75c-1.267,0-2.153-0.254-2.661-0.763c-0.508-0.508-0.762-1.454-0.762-2.838v-5.981
		c0-1.392,0.249-2.335,0.745-2.832c0.497-0.496,1.389-0.745,2.678-0.745c1.266,0,2.153,0.254,2.661,0.763
		C25.326,57.594,25.58,58.531,25.58,59.899z M23.468,59.52c0-0.74-0.099-1.245-0.295-1.514s-0.535-0.403-1.015-0.403
		c-0.491,0-0.838,0.143-1.04,0.427c-0.202,0.285-0.303,0.781-0.303,1.489v2.832h2.653V59.52z"/>
	<path fill="#2B1C48" d="M33.326,56.346v1.526h-0.344c-0.863,0-1.474,0.161-1.834,0.482c-0.36,0.321-0.54,0.877-0.54,1.666v9.155
		h-2.014V56.627h1.883l0.131,0.769c0.284-0.342,0.63-0.606,1.04-0.793c0.41-0.187,0.854-0.281,1.335-0.281
		c0.033,0,0.087,0.004,0.164,0.012C33.222,56.343,33.282,56.346,33.326,56.346z"/>
	<path fill="#2B1C48" d="M39.5,56.346v1.526h-0.344c-0.863,0-1.474,0.161-1.834,0.482c-0.36,0.321-0.54,0.877-0.54,1.666v9.155
		h-2.014V56.627h1.883l0.131,0.769c0.284-0.342,0.63-0.606,1.04-0.793c0.41-0.187,0.854-0.281,1.335-0.281
		c0.033,0,0.087,0.004,0.164,0.012C39.396,56.343,39.456,56.346,39.5,56.346z"/>
	<path fill="#2B1C48" d="M47.524,59.557v9.619h-1.883l-0.131-0.77c-0.273,0.351-0.62,0.617-1.04,0.8
		c-0.42,0.184-0.903,0.274-1.449,0.274c-0.852,0-1.455-0.213-1.81-0.641c-0.355-0.427-0.532-1.174-0.532-2.24v-2.502
		c0-0.984,0.357-1.685,1.073-2.1c0.715-0.415,1.967-0.647,3.758-0.696V59.52c0-0.757-0.095-1.265-0.286-1.526
		c-0.191-0.26-0.532-0.391-1.024-0.391c-0.469,0-0.805,0.12-1.007,0.36c-0.202,0.24-0.303,0.653-0.303,1.239v0.696h-2.014v-0.342
		c0-1.253,0.246-2.105,0.737-2.558c0.491-0.451,1.364-0.677,2.62-0.677c1.222,0,2.077,0.228,2.562,0.684
		C47.281,57.462,47.524,58.312,47.524,59.557z M45.493,62.523c-1.048,0.033-1.76,0.171-2.137,0.415
		c-0.376,0.244-0.565,0.683-0.565,1.318v2.015c0,0.749,0.098,1.257,0.295,1.526c0.196,0.268,0.546,0.402,1.048,0.402
		c0.491,0,0.844-0.145,1.057-0.434c0.212-0.288,0.319-0.787,0.319-1.495L45.493,62.523z"/>
	<path fill="#2B1C48" d="M56.776,57.482c0.404-0.423,0.792-0.722,1.163-0.897c0.371-0.175,0.803-0.262,1.294-0.262
		c0.753,0,1.293,0.216,1.621,0.647c0.328,0.432,0.491,1.176,0.491,2.234v9.973h-2.014V59.52c0-0.716-0.087-1.214-0.262-1.496
		c-0.174-0.28-0.469-0.421-0.884-0.421c-0.426,0-0.734,0.151-0.925,0.452c-0.191,0.301-0.287,0.79-0.287,1.465v9.656h-2.014V59.52
		c0-0.716-0.085-1.214-0.254-1.496c-0.169-0.28-0.461-0.421-0.876-0.421c-0.426,0-0.734,0.151-0.925,0.452
		c-0.191,0.301-0.287,0.79-0.287,1.465v9.656h-2.014V56.627h1.883l0.131,0.769c0.272-0.358,0.598-0.626,0.974-0.806
		c0.376-0.179,0.8-0.269,1.269-0.269c0.502,0,0.917,0.1,1.245,0.299C56.432,56.821,56.656,57.108,56.776,57.482z"/>
	<path fill="#2B1C48" d="M64.325,51.171h2.244v1.904h-2.244V51.171z M64.424,56.627h2.014v12.549h-2.014V56.627z"/>
	<path fill="#2B1C48" d="M76.329,59.899v3.723h-4.765v2.649c0,0.749,0.098,1.257,0.294,1.526c0.197,0.268,0.546,0.402,1.048,0.402
		c0.48,0,0.819-0.139,1.015-0.415s0.295-0.781,0.295-1.514v-1.392h2.112v1.025c0,1.384-0.251,2.325-0.753,2.826
		c-0.502,0.5-1.392,0.75-2.669,0.75c-1.267,0-2.153-0.254-2.661-0.763c-0.508-0.508-0.762-1.454-0.762-2.838v-5.981
		c0-1.392,0.249-2.335,0.745-2.832c0.497-0.496,1.389-0.745,2.678-0.745c1.266,0,2.153,0.254,2.661,0.763
		C76.075,57.594,76.329,58.531,76.329,59.899z M74.216,59.52c0-0.74-0.099-1.245-0.295-1.514s-0.535-0.403-1.015-0.403
		c-0.491,0-0.838,0.143-1.04,0.427c-0.202,0.285-0.303,0.781-0.303,1.489v2.832h2.653V59.52z"/>
	<path fill="#2B1C48" d="M86.187,59.203v9.973h-2.014V59.52c0-0.716-0.106-1.214-0.319-1.496c-0.213-0.28-0.576-0.421-1.089-0.421
		c-0.502,0-0.863,0.145-1.081,0.434c-0.218,0.289-0.327,0.783-0.327,1.483v9.656h-2.014V56.627h1.883l0.131,0.769
		c0.272-0.35,0.619-0.617,1.04-0.799c0.42-0.184,0.903-0.275,1.449-0.275c0.852,0,1.455,0.213,1.81,0.641
		C86.009,57.39,86.187,58.137,86.187,59.203z"/>
	<path fill="#2B1C48" d="M91.378,53.246v3.381h1.539v1.27h-1.539v9.326c0,0.35,0.09,0.592,0.27,0.727
		c0.18,0.134,0.505,0.201,0.975,0.201h0.294v1.307c-0.12,0.008-0.243,0.014-0.368,0.018c-0.126,0.004-0.303,0.006-0.532,0.006
		c-1.026,0-1.725-0.185-2.096-0.555s-0.557-1.194-0.557-2.473v-8.557h-1.097v-1.27h1.097v-2.771L91.378,53.246z"/>
	<path fill="#2B1C48" d="M101.515,59.557v9.619h-1.883l-0.131-0.77c-0.273,0.351-0.62,0.617-1.04,0.8
		c-0.42,0.184-0.903,0.274-1.449,0.274c-0.852,0-1.455-0.213-1.81-0.641c-0.355-0.427-0.532-1.174-0.532-2.24v-2.502
		c0-0.984,0.357-1.685,1.073-2.1c0.715-0.415,1.967-0.647,3.758-0.696V59.52c0-0.757-0.095-1.265-0.286-1.526
		c-0.191-0.26-0.532-0.391-1.024-0.391c-0.469,0-0.805,0.12-1.007,0.36c-0.202,0.24-0.303,0.653-0.303,1.239v0.696h-2.014v-0.342
		c0-1.253,0.246-2.105,0.737-2.558c0.491-0.451,1.364-0.677,2.62-0.677c1.222,0,2.077,0.228,2.562,0.684
		C101.271,57.462,101.515,58.312,101.515,59.557z M99.484,62.523c-1.048,0.033-1.76,0.171-2.137,0.415
		c-0.376,0.244-0.565,0.683-0.565,1.318v2.015c0,0.749,0.098,1.257,0.295,1.526c0.196,0.268,0.546,0.402,1.048,0.402
		c0.491,0,0.844-0.145,1.057-0.434c0.212-0.288,0.319-0.787,0.319-1.495L99.484,62.523z"/>
	<path fill="#2B1C48" d="M110.292,59.52v0.708h-2.015V59.52c0-0.773-0.073-1.286-0.221-1.538c-0.147-0.252-0.417-0.378-0.811-0.378
		c-0.35,0-0.598,0.116-0.745,0.348c-0.147,0.232-0.221,0.625-0.221,1.178v0.5c0,0.269,0.068,0.533,0.205,0.793
		c0.136,0.261,0.357,0.537,0.663,0.83l2.44,2.417c0.273,0.277,0.483,0.562,0.631,0.855c0.147,0.293,0.221,0.569,0.221,0.83v1.195
		c0,1.083-0.237,1.842-0.712,2.277c-0.475,0.435-1.28,0.652-2.416,0.652c-1.179,0-1.998-0.228-2.457-0.684
		c-0.458-0.455-0.688-1.298-0.688-2.526v-1.074h1.998v1.074c0,0.798,0.079,1.318,0.237,1.562s0.439,0.366,0.844,0.366
		c0.415,0,0.709-0.122,0.884-0.366c0.174-0.244,0.262-0.671,0.262-1.282v-0.476c0-0.684-0.333-1.343-0.999-1.978
		c-0.022-0.024-0.038-0.041-0.049-0.049l-2.375-2.393c-0.251-0.252-0.432-0.502-0.541-0.751c-0.109-0.248-0.164-0.522-0.164-0.824
		v-0.903c0-1.033,0.232-1.768,0.696-2.204c0.464-0.435,1.236-0.653,2.317-0.653c1.124,0,1.908,0.228,2.35,0.684
		C110.071,57.462,110.292,58.3,110.292,59.52z"/>
	<path fill="#2B1C48" d="M118.168,51.171h2.014v6.226c0.272-0.35,0.619-0.617,1.04-0.799c0.42-0.184,0.903-0.275,1.449-0.275
		c0.852,0,1.455,0.213,1.81,0.641c0.355,0.427,0.532,1.174,0.532,2.24V66.6c0,1.066-0.177,1.813-0.532,2.24
		c-0.355,0.428-0.958,0.641-1.81,0.641c-0.546,0-1.029-0.091-1.449-0.274c-0.42-0.183-0.767-0.449-1.04-0.8l-0.131,0.77h-1.883
		V51.171z M122.901,59.52c0-0.74-0.098-1.245-0.295-1.514c-0.196-0.269-0.546-0.403-1.048-0.403c-0.491,0-0.843,0.145-1.056,0.434
		c-0.213,0.289-0.319,0.783-0.319,1.483v6.75c0,0.716,0.104,1.217,0.311,1.501c0.207,0.285,0.562,0.428,1.064,0.428
		c0.502,0,0.852-0.135,1.048-0.402c0.197-0.27,0.295-0.777,0.295-1.526V59.52z"/>
	<path fill="#2B1C48" d="M134.61,59.557v9.619h-1.883l-0.131-0.77c-0.273,0.351-0.62,0.617-1.04,0.8
		c-0.42,0.184-0.903,0.274-1.449,0.274c-0.852,0-1.455-0.213-1.81-0.641c-0.355-0.427-0.532-1.174-0.532-2.24v-2.502
		c0-0.984,0.357-1.685,1.073-2.1c0.715-0.415,1.967-0.647,3.758-0.696V59.52c0-0.757-0.095-1.265-0.286-1.526
		c-0.191-0.26-0.532-0.391-1.024-0.391c-0.469,0-0.805,0.12-1.007,0.36c-0.202,0.24-0.303,0.653-0.303,1.239v0.696h-2.014v-0.342
		c0-1.253,0.246-2.105,0.737-2.558c0.491-0.451,1.364-0.677,2.62-0.677c1.222,0,2.077,0.228,2.562,0.684
		C134.367,57.462,134.61,58.312,134.61,59.557z M132.579,62.523c-1.048,0.033-1.76,0.171-2.137,0.415
		c-0.376,0.244-0.565,0.683-0.565,1.318v2.015c0,0.749,0.098,1.257,0.295,1.526c0.196,0.268,0.546,0.402,1.048,0.402
		c0.491,0,0.844-0.145,1.057-0.434c0.212-0.288,0.319-0.787,0.319-1.495L132.579,62.523z M131.826,52.257h2.309l-2.145,2.722h-1.605
		L131.826,52.257z"/>
	<path fill="#2B1C48" d="M143.387,59.52v0.708h-2.015V59.52c0-0.773-0.073-1.286-0.221-1.538c-0.147-0.252-0.417-0.378-0.811-0.378
		c-0.35,0-0.598,0.116-0.745,0.348c-0.147,0.232-0.221,0.625-0.221,1.178v0.5c0,0.269,0.068,0.533,0.205,0.793
		c0.136,0.261,0.357,0.537,0.663,0.83l2.44,2.417c0.273,0.277,0.483,0.562,0.631,0.855c0.147,0.293,0.221,0.569,0.221,0.83v1.195
		c0,1.083-0.237,1.842-0.712,2.277c-0.475,0.435-1.28,0.652-2.416,0.652c-1.179,0-1.998-0.228-2.457-0.684
		c-0.458-0.455-0.688-1.298-0.688-2.526v-1.074h1.998v1.074c0,0.798,0.079,1.318,0.237,1.562s0.439,0.366,0.844,0.366
		c0.415,0,0.709-0.122,0.884-0.366c0.174-0.244,0.262-0.671,0.262-1.282v-0.476c0-0.684-0.333-1.343-0.999-1.978
		c-0.022-0.024-0.038-0.041-0.049-0.049l-2.375-2.393c-0.251-0.252-0.432-0.502-0.541-0.751c-0.109-0.248-0.164-0.522-0.164-0.824
		v-0.903c0-1.033,0.232-1.768,0.696-2.204c0.464-0.435,1.236-0.653,2.317-0.653c1.124,0,1.908,0.228,2.35,0.684
		C143.166,57.462,143.387,58.3,143.387,59.52z"/>
	<path fill="#2B1C48" d="M146.04,51.171h2.244v1.904h-2.244V51.171z M146.138,56.627h2.014v12.549h-2.014V56.627z"/>
	<path fill="#2B1C48" d="M157.47,59.899v0.806h-2.112V59.52c0-0.822-0.074-1.347-0.221-1.575c-0.147-0.228-0.417-0.342-0.811-0.342
		s-0.666,0.128-0.819,0.385c-0.153,0.256-0.229,0.767-0.229,1.532v6.75c0,0.781,0.079,1.298,0.237,1.55
		c0.158,0.253,0.439,0.379,0.843,0.379c0.382,0,0.644-0.116,0.786-0.348c0.142-0.232,0.213-0.759,0.213-1.581v-1.343h2.112v0.977
		c0,1.384-0.232,2.325-0.696,2.826c-0.464,0.5-1.28,0.75-2.448,0.75c-1.157,0-1.968-0.256-2.432-0.769
		c-0.464-0.513-0.696-1.457-0.696-2.832v-5.981c0-1.392,0.229-2.335,0.688-2.832c0.458-0.496,1.271-0.745,2.44-0.745
		c1.157,0,1.971,0.254,2.44,0.763C157.235,57.594,157.47,58.531,157.47,59.899z"/>
	<path fill="#2B1C48" d="M166.706,59.557v9.619h-1.883l-0.131-0.77c-0.273,0.351-0.62,0.617-1.04,0.8
		c-0.42,0.184-0.903,0.274-1.449,0.274c-0.852,0-1.455-0.213-1.81-0.641c-0.355-0.427-0.532-1.174-0.532-2.24v-2.502
		c0-0.984,0.357-1.685,1.073-2.1c0.715-0.415,1.967-0.647,3.758-0.696V59.52c0-0.757-0.095-1.265-0.286-1.526
		c-0.191-0.26-0.532-0.391-1.024-0.391c-0.469,0-0.805,0.12-1.007,0.36c-0.202,0.24-0.303,0.653-0.303,1.239v0.696h-2.014v-0.342
		c0-1.253,0.246-2.105,0.737-2.558c0.491-0.451,1.364-0.677,2.62-0.677c1.222,0,2.077,0.228,2.562,0.684
		C166.463,57.462,166.706,58.312,166.706,59.557z M164.675,62.523c-1.048,0.033-1.76,0.171-2.137,0.415
		c-0.376,0.244-0.565,0.683-0.565,1.318v2.015c0,0.749,0.098,1.257,0.295,1.526c0.196,0.268,0.546,0.402,1.048,0.402
		c0.491,0,0.844-0.145,1.057-0.434c0.212-0.288,0.319-0.787,0.319-1.495L164.675,62.523z"/>
	<path fill="#2B1C48" d="M175.483,59.52v0.708h-2.015V59.52c0-0.773-0.073-1.286-0.221-1.538c-0.147-0.252-0.417-0.378-0.811-0.378
		c-0.35,0-0.598,0.116-0.745,0.348c-0.147,0.232-0.221,0.625-0.221,1.178v0.5c0,0.269,0.068,0.533,0.205,0.793
		c0.136,0.261,0.357,0.537,0.663,0.83l2.44,2.417c0.273,0.277,0.483,0.562,0.631,0.855c0.147,0.293,0.221,0.569,0.221,0.83v1.195
		c0,1.083-0.237,1.842-0.712,2.277c-0.475,0.435-1.28,0.652-2.416,0.652c-1.179,0-1.998-0.228-2.457-0.684
		c-0.458-0.455-0.688-1.298-0.688-2.526v-1.074h1.998v1.074c0,0.798,0.079,1.318,0.237,1.562s0.439,0.366,0.844,0.366
		c0.415,0,0.709-0.122,0.884-0.366c0.174-0.244,0.262-0.671,0.262-1.282v-0.476c0-0.684-0.333-1.343-0.999-1.978
		c-0.022-0.024-0.038-0.041-0.049-0.049l-2.375-2.393c-0.251-0.252-0.432-0.502-0.541-0.751c-0.109-0.248-0.164-0.522-0.164-0.824
		v-0.903c0-1.033,0.232-1.768,0.696-2.204c0.464-0.435,1.236-0.653,2.317-0.653c1.124,0,1.908,0.228,2.35,0.684
		C175.262,57.462,175.483,58.3,175.483,59.52z"/>
	<path fill="#2B1C48" d="M190.205,59.203V66.6c0,1.066-0.177,1.813-0.532,2.24c-0.355,0.428-0.958,0.641-1.81,0.641
		c-0.546,0-1.029-0.091-1.449-0.274c-0.42-0.183-0.767-0.449-1.04-0.8v5.518h-2.014V56.627h1.883l0.131,0.769
		c0.272-0.35,0.619-0.617,1.04-0.799c0.42-0.184,0.903-0.275,1.449-0.275c0.852,0,1.455,0.213,1.81,0.641
		C190.027,57.39,190.205,58.137,190.205,59.203z M188.092,59.52c0-0.74-0.098-1.245-0.295-1.514
		c-0.196-0.269-0.546-0.403-1.048-0.403c-0.491,0-0.843,0.145-1.056,0.434c-0.213,0.289-0.319,0.783-0.319,1.483v6.75
		c0,0.716,0.104,1.217,0.311,1.501c0.207,0.285,0.562,0.428,1.064,0.428c0.502,0,0.852-0.135,1.048-0.402
		c0.197-0.27,0.295-0.777,0.295-1.526V59.52z"/>
	<path fill="#2B1C48" d="M199.801,59.557v9.619h-1.883l-0.131-0.77c-0.273,0.351-0.62,0.617-1.04,0.8
		c-0.42,0.184-0.903,0.274-1.449,0.274c-0.852,0-1.455-0.213-1.81-0.641c-0.355-0.427-0.532-1.174-0.532-2.24v-2.502
		c0-0.984,0.357-1.685,1.073-2.1c0.715-0.415,1.967-0.647,3.758-0.696V59.52c0-0.757-0.095-1.265-0.286-1.526
		c-0.191-0.26-0.532-0.391-1.024-0.391c-0.469,0-0.805,0.12-1.007,0.36c-0.202,0.24-0.303,0.653-0.303,1.239v0.696h-2.014v-0.342
		c0-1.253,0.246-2.105,0.737-2.558c0.491-0.451,1.364-0.677,2.62-0.677c1.222,0,2.077,0.228,2.562,0.684
		C199.558,57.462,199.801,58.312,199.801,59.557z M197.771,62.523c-1.048,0.033-1.76,0.171-2.137,0.415
		c-0.376,0.244-0.565,0.683-0.565,1.318v2.015c0,0.749,0.098,1.257,0.295,1.526c0.196,0.268,0.546,0.402,1.048,0.402
		c0.491,0,0.844-0.145,1.057-0.434c0.212-0.288,0.319-0.787,0.319-1.495L197.771,62.523z"/>
	<path fill="#2B1C48" d="M207.612,56.346v1.526h-0.344c-0.863,0-1.474,0.161-1.834,0.482c-0.36,0.321-0.54,0.877-0.54,1.666v9.155
		h-2.014V56.627h1.883l0.131,0.769c0.284-0.342,0.63-0.606,1.04-0.793c0.41-0.187,0.854-0.281,1.335-0.281
		c0.033,0,0.087,0.004,0.164,0.012C207.508,56.343,207.568,56.346,207.612,56.346z"/>
	<path fill="#2B1C48" d="M215.636,59.557v9.619h-1.883l-0.131-0.77c-0.273,0.351-0.619,0.617-1.039,0.8
		c-0.422,0.184-0.904,0.274-1.449,0.274c-0.852,0-1.455-0.213-1.811-0.641c-0.354-0.427-0.531-1.174-0.531-2.24v-2.502
		c0-0.984,0.357-1.685,1.072-2.1s1.967-0.647,3.758-0.696V59.52c0-0.757-0.096-1.265-0.287-1.526
		c-0.189-0.26-0.531-0.391-1.023-0.391c-0.469,0-0.805,0.12-1.006,0.36c-0.203,0.24-0.303,0.653-0.303,1.239v0.696h-2.016v-0.342
		c0-1.253,0.246-2.105,0.738-2.558c0.49-0.451,1.363-0.677,2.619-0.677c1.223,0,2.078,0.228,2.562,0.684
		C215.394,57.462,215.636,58.312,215.636,59.557z M213.606,62.523c-1.049,0.033-1.762,0.171-2.137,0.415
		c-0.377,0.244-0.566,0.683-0.566,1.318v2.015c0,0.749,0.1,1.257,0.295,1.526c0.197,0.268,0.547,0.402,1.049,0.402
		c0.49,0,0.844-0.145,1.057-0.434c0.213-0.288,0.318-0.787,0.318-1.495L213.606,62.523z"/>
	<path fill="#2B1C48" d="M230.424,59.557v9.619h-1.883l-0.131-0.77c-0.273,0.351-0.62,0.617-1.04,0.8
		c-0.421,0.184-0.903,0.274-1.449,0.274c-0.852,0-1.455-0.213-1.81-0.641c-0.354-0.427-0.532-1.174-0.532-2.24v-2.502
		c0-0.984,0.357-1.685,1.072-2.1s1.968-0.647,3.759-0.696V59.52c0-0.757-0.096-1.265-0.287-1.526
		c-0.19-0.26-0.532-0.391-1.023-0.391c-0.47,0-0.805,0.12-1.007,0.36c-0.202,0.24-0.303,0.653-0.303,1.239v0.696h-2.015v-0.342
		c0-1.253,0.246-2.105,0.737-2.558c0.491-0.451,1.364-0.677,2.62-0.677c1.223,0,2.077,0.228,2.562,0.684
		C230.181,57.462,230.424,58.312,230.424,59.557z M228.394,62.523c-1.048,0.033-1.761,0.171-2.137,0.415
		c-0.377,0.244-0.565,0.683-0.565,1.318v2.015c0,0.749,0.099,1.257,0.295,1.526c0.196,0.268,0.546,0.402,1.048,0.402
		c0.491,0,0.844-0.145,1.057-0.434c0.213-0.288,0.319-0.787,0.319-1.495L228.394,62.523z"/>
	<path fill="#2B1C48" d="M241.021,51.171h3.045l3.488,18.005h-2.243l-0.835-5.005h-3.963l-0.901,5.005h-2.194L241.021,51.171z
		 M242.461,52.501l-1.752,10.352h3.488l-1.638-10.352H242.461z"/>
	<path fill="#2B1C48" d="M252.155,53.246v3.381h1.54v1.27h-1.54v9.326c0,0.35,0.091,0.592,0.271,0.727
		c0.181,0.134,0.505,0.201,0.975,0.201h0.295v1.307c-0.12,0.008-0.243,0.014-0.369,0.018c-0.125,0.004-0.303,0.006-0.532,0.006
		c-1.026,0-1.725-0.185-2.096-0.555s-0.557-1.194-0.557-2.473v-8.557h-1.098v-1.27h1.098v-2.771L252.155,53.246z"/>
	<path fill="#2B1C48" d="M262.489,59.899v3.723h-4.766v2.649c0,0.749,0.098,1.257,0.295,1.526c0.196,0.268,0.546,0.402,1.048,0.402
		c0.48,0,0.818-0.139,1.016-0.415c0.196-0.276,0.294-0.781,0.294-1.514v-1.392h2.113v1.025c0,1.384-0.252,2.325-0.754,2.826
		c-0.502,0.5-1.392,0.75-2.669,0.75c-1.267,0-2.153-0.254-2.661-0.763c-0.508-0.508-0.762-1.454-0.762-2.838v-5.981
		c0-1.392,0.248-2.335,0.745-2.832c0.497-0.496,1.39-0.745,2.678-0.745c1.267,0,2.153,0.254,2.661,0.763
		C262.235,57.594,262.489,58.531,262.489,59.899z M260.376,59.52c0-0.74-0.098-1.245-0.294-1.514
		c-0.197-0.269-0.535-0.403-1.016-0.403c-0.491,0-0.838,0.143-1.04,0.427c-0.202,0.285-0.303,0.781-0.303,1.489v2.832h2.652V59.52z"
		/>
	<path fill="#2B1C48" d="M272.348,59.203v9.973h-2.015V59.52c0-0.716-0.106-1.214-0.319-1.496c-0.213-0.28-0.576-0.421-1.089-0.421
		c-0.502,0-0.862,0.145-1.081,0.434c-0.219,0.289-0.327,0.783-0.327,1.483v9.656h-2.015V56.627h1.884l0.131,0.769
		c0.272-0.35,0.619-0.617,1.04-0.799c0.42-0.184,0.903-0.275,1.449-0.275c0.852,0,1.454,0.213,1.81,0.641
		C272.17,57.39,272.348,58.137,272.348,59.203z"/>
	<path fill="#2B1C48" d="M281.633,59.899v0.806h-2.113V59.52c0-0.822-0.073-1.347-0.221-1.575c-0.147-0.228-0.418-0.342-0.811-0.342
		s-0.666,0.128-0.818,0.385c-0.153,0.256-0.229,0.767-0.229,1.532v6.75c0,0.781,0.079,1.298,0.237,1.55
		c0.158,0.253,0.439,0.379,0.844,0.379c0.382,0,0.644-0.116,0.785-0.348c0.143-0.232,0.213-0.759,0.213-1.581v-1.343h2.113v0.977
		c0,1.384-0.232,2.325-0.696,2.826c-0.464,0.5-1.28,0.75-2.448,0.75c-1.157,0-1.968-0.256-2.432-0.769s-0.696-1.457-0.696-2.832
		v-5.981c0-1.392,0.229-2.335,0.688-2.832c0.459-0.496,1.272-0.745,2.44-0.745c1.157,0,1.971,0.254,2.44,0.763
		C281.397,57.594,281.633,58.531,281.633,59.899z"/>
	<path fill="#2B1C48" d="M284.188,51.171h2.243v1.904h-2.243V51.171z M284.285,56.627h2.015v12.549h-2.015V56.627z"/>
	<path fill="#2B1C48" d="M296.191,59.899v6.006c0,1.384-0.252,2.325-0.754,2.826c-0.502,0.5-1.392,0.75-2.669,0.75
		c-1.267,0-2.153-0.254-2.661-0.763c-0.508-0.508-0.762-1.454-0.762-2.838v-5.981c0-1.392,0.248-2.335,0.745-2.832
		c0.497-0.496,1.39-0.745,2.678-0.745c1.267,0,2.153,0.254,2.661,0.763C295.938,57.594,296.191,58.531,296.191,59.899z
		 M294.078,59.52c0-0.74-0.098-1.245-0.294-1.514c-0.197-0.269-0.535-0.403-1.016-0.403c-0.491,0-0.838,0.143-1.04,0.427
		c-0.202,0.285-0.303,0.781-0.303,1.489v6.75c0,0.749,0.098,1.257,0.295,1.526c0.196,0.268,0.546,0.402,1.048,0.402
		c0.48,0,0.818-0.139,1.016-0.415c0.196-0.276,0.294-0.781,0.294-1.514V59.52z M293.276,52.257h2.309l-2.146,2.722h-1.604
		L293.276,52.257z"/>
	<path fill="#2B1C48" d="M306.05,59.203v9.973h-2.015V59.52c0-0.716-0.106-1.214-0.319-1.496c-0.213-0.28-0.576-0.421-1.089-0.421
		c-0.502,0-0.862,0.145-1.081,0.434c-0.219,0.289-0.327,0.783-0.327,1.483v9.656h-2.015V56.627h1.884l0.131,0.769
		c0.272-0.35,0.619-0.617,1.04-0.799c0.42-0.184,0.903-0.275,1.449-0.275c0.852,0,1.454,0.213,1.81,0.641
		C305.872,57.39,306.05,58.137,306.05,59.203z"/>
	<path fill="#2B1C48" d="M320.461,59.899v0.806h-2.113V59.52c0-0.822-0.073-1.347-0.221-1.575c-0.147-0.228-0.418-0.342-0.811-0.342
		s-0.666,0.128-0.818,0.385c-0.153,0.256-0.229,0.767-0.229,1.532v6.75c0,0.781,0.079,1.298,0.237,1.55
		c0.158,0.253,0.439,0.379,0.844,0.379c0.382,0,0.644-0.116,0.785-0.348c0.143-0.232,0.213-0.759,0.213-1.581v-1.343h2.113v0.977
		c0,1.384-0.232,2.325-0.696,2.826c-0.464,0.5-1.28,0.75-2.448,0.75c-1.157,0-1.968-0.256-2.432-0.769s-0.696-1.457-0.696-2.832
		v-5.981c0-1.392,0.229-2.335,0.688-2.832c0.459-0.496,1.272-0.745,2.44-0.745c1.157,0,1.971,0.254,2.44,0.763
		C320.226,57.594,320.461,58.531,320.461,59.899z"/>
	<path fill="#2B1C48" d="M329.894,59.899v6.006c0,1.384-0.252,2.325-0.754,2.826c-0.502,0.5-1.392,0.75-2.669,0.75
		c-1.267,0-2.153-0.254-2.661-0.763c-0.508-0.508-0.762-1.454-0.762-2.838v-5.981c0-1.392,0.248-2.335,0.745-2.832
		c0.497-0.496,1.39-0.745,2.678-0.745c1.267,0,2.153,0.254,2.661,0.763C329.64,57.594,329.894,58.531,329.894,59.899z M327.78,59.52
		c0-0.74-0.098-1.245-0.294-1.514c-0.197-0.269-0.535-0.403-1.016-0.403c-0.491,0-0.838,0.143-1.04,0.427
		c-0.202,0.285-0.303,0.781-0.303,1.489v6.75c0,0.749,0.098,1.257,0.295,1.526c0.196,0.268,0.546,0.402,1.048,0.402
		c0.48,0,0.818-0.139,1.016-0.415c0.196-0.276,0.294-0.781,0.294-1.514V59.52z"/>
	<path fill="#2B1C48" d="M339.752,59.203v9.973h-2.015V59.52c0-0.716-0.106-1.214-0.319-1.496c-0.213-0.28-0.576-0.421-1.089-0.421
		c-0.502,0-0.862,0.145-1.081,0.434c-0.219,0.289-0.327,0.783-0.327,1.483v9.656h-2.015V56.627h1.884l0.131,0.769
		c0.272-0.35,0.619-0.617,1.04-0.799c0.42-0.184,0.903-0.275,1.449-0.275c0.852,0,1.454,0.213,1.81,0.641
		C339.574,57.39,339.752,58.137,339.752,59.203z"/>
	<path fill="#2B1C48" d="M348.3,51.171h5.765v1.428h-3.685v6.482h3.521v1.416h-3.521v7.251h3.783v1.428H348.3V51.171z"/>
	<path fill="#2B1C48" d="M363.661,59.203v9.973h-2.015V59.52c0-0.716-0.106-1.214-0.319-1.496c-0.213-0.28-0.576-0.421-1.089-0.421
		c-0.502,0-0.862,0.145-1.081,0.434c-0.219,0.289-0.327,0.783-0.327,1.483v9.656h-2.015V56.627h1.884l0.131,0.769
		c0.272-0.35,0.619-0.617,1.04-0.799c0.42-0.184,0.903-0.275,1.449-0.275c0.852,0,1.454,0.213,1.81,0.641
		C363.483,57.39,363.661,58.137,363.661,59.203z"/>
	<path fill="#2B1C48" d="M370.424,50.902v1.294h-0.295c-0.469,0-0.794,0.067-0.974,0.202c-0.181,0.134-0.271,0.376-0.271,0.726
		v3.503h1.539v1.245h-1.539v11.304h-2.015V57.872h-1.097v-1.245h1.097v-2.722c0-1.286,0.186-2.112,0.558-2.478
		c0.37-0.366,1.069-0.549,2.096-0.549c0.229,0,0.409,0.002,0.54,0.006C370.194,50.888,370.314,50.894,370.424,50.902z"/>
	<path fill="#2B1C48" d="M378.924,59.899v6.006c0,1.384-0.252,2.325-0.754,2.826c-0.502,0.5-1.392,0.75-2.669,0.75
		c-1.267,0-2.153-0.254-2.661-0.763c-0.508-0.508-0.762-1.454-0.762-2.838v-5.981c0-1.392,0.248-2.335,0.745-2.832
		c0.497-0.496,1.39-0.745,2.678-0.745c1.267,0,2.153,0.254,2.661,0.763C378.67,57.594,378.924,58.531,378.924,59.899z
		 M376.811,59.52c0-0.74-0.098-1.245-0.294-1.514c-0.197-0.269-0.535-0.403-1.016-0.403c-0.491,0-0.838,0.143-1.04,0.427
		c-0.202,0.285-0.303,0.781-0.303,1.489v6.75c0,0.749,0.098,1.257,0.295,1.526c0.196,0.268,0.546,0.402,1.048,0.402
		c0.48,0,0.818-0.139,1.016-0.415c0.196-0.276,0.294-0.781,0.294-1.514V59.52z"/>
	<path fill="#2B1C48" d="M386.669,57.396l0.164-0.769h1.884v17.297h-2.048v-5.518c-0.272,0.351-0.611,0.613-1.015,0.788
		c-0.404,0.175-0.885,0.263-1.441,0.263c-0.852,0-1.455-0.212-1.81-0.635c-0.354-0.424-0.532-1.164-0.532-2.223v-7.397
		c0-1.066,0.181-1.813,0.541-2.24c0.359-0.428,0.96-0.641,1.801-0.641c0.535,0,1.01,0.091,1.425,0.275
		C386.053,56.78,386.396,57.047,386.669,57.396z M386.669,59.52c0-0.716-0.104-1.219-0.311-1.507
		c-0.208-0.289-0.552-0.434-1.032-0.434c-0.502,0-0.856,0.141-1.064,0.421c-0.207,0.281-0.311,0.788-0.311,1.52v6.726
		c0,0.74,0.104,1.251,0.311,1.532c0.208,0.28,0.562,0.421,1.064,0.421c0.48,0,0.824-0.146,1.032-0.439
		c0.207-0.293,0.311-0.798,0.311-1.514V59.52z"/>
	<path fill="#2B1C48" d="M391.795,56.627h2.015v9.619c0,0.74,0.106,1.251,0.319,1.532c0.213,0.28,0.575,0.421,1.089,0.421
		c0.502,0,0.856-0.145,1.064-0.434c0.207-0.288,0.312-0.795,0.312-1.52v-9.619h2.047v12.549h-1.884l-0.163-0.77
		c-0.273,0.351-0.612,0.613-1.016,0.788c-0.404,0.175-0.879,0.263-1.425,0.263c-0.862,0-1.472-0.212-1.826-0.635
		c-0.354-0.424-0.532-1.164-0.532-2.223V56.627z"/>
	<path fill="#2B1C48" d="M408.499,59.899v3.723h-4.766v2.649c0,0.749,0.098,1.257,0.295,1.526c0.196,0.268,0.546,0.402,1.048,0.402
		c0.48,0,0.818-0.139,1.016-0.415c0.196-0.276,0.294-0.781,0.294-1.514v-1.392h2.113v1.025c0,1.384-0.252,2.325-0.754,2.826
		c-0.502,0.5-1.392,0.75-2.669,0.75c-1.267,0-2.153-0.254-2.661-0.763c-0.508-0.508-0.762-1.454-0.762-2.838v-5.981
		c0-1.392,0.248-2.335,0.745-2.832c0.497-0.496,1.39-0.745,2.678-0.745c1.267,0,2.153,0.254,2.661,0.763
		C408.245,57.594,408.499,58.531,408.499,59.899z M406.386,59.52c0-0.74-0.098-1.245-0.294-1.514
		c-0.197-0.269-0.535-0.403-1.016-0.403c-0.491,0-0.838,0.143-1.04,0.427c-0.202,0.285-0.303,0.781-0.303,1.489v2.832h2.652V59.52z"
		/>
	<path fill="#2B1C48" d="M34.66,77.46h2.686c1.638,0,2.751,0.174,3.341,0.52c0.589,0.346,0.884,0.958,0.884,1.837v5.176
		c0,0.879-0.295,1.489-0.884,1.831c-0.59,0.342-1.703,0.513-3.341,0.513H36.74v8.13h-2.08V77.46z M36.74,78.791v7.227h0.557
		c0.83,0,1.384-0.124,1.662-0.372c0.279-0.248,0.418-0.808,0.418-1.679v-3.125c0-0.871-0.139-1.43-0.418-1.679
		c-0.278-0.248-0.833-0.372-1.662-0.372H36.74z"/>
	<path fill="#2B1C48" d="M50.103,85.81v0.709h-2.015V85.81c0-0.772-0.073-1.285-0.221-1.537c-0.147-0.253-0.417-0.379-0.811-0.379
		c-0.35,0-0.598,0.116-0.745,0.348c-0.147,0.232-0.221,0.625-0.221,1.178v0.501c0,0.269,0.068,0.533,0.205,0.794
		c0.136,0.26,0.357,0.537,0.663,0.83l2.44,2.416c0.273,0.277,0.483,0.562,0.631,0.855c0.147,0.293,0.221,0.569,0.221,0.83v1.195
		c0,1.083-0.237,1.842-0.712,2.277c-0.475,0.435-1.28,0.652-2.416,0.652c-1.179,0-1.998-0.228-2.457-0.684
		c-0.458-0.455-0.688-1.298-0.688-2.526v-1.074h1.998v1.074c0,0.798,0.079,1.318,0.237,1.562s0.439,0.366,0.844,0.366
		c0.415,0,0.709-0.122,0.884-0.366c0.174-0.244,0.262-0.671,0.262-1.282v-0.476c0-0.684-0.333-1.343-0.999-1.978
		c-0.022-0.024-0.038-0.041-0.049-0.049l-2.375-2.393c-0.251-0.252-0.432-0.502-0.541-0.751c-0.109-0.248-0.164-0.522-0.164-0.823
		v-0.904c0-1.033,0.232-1.768,0.696-2.203c0.464-0.435,1.236-0.652,2.317-0.652c1.124,0,1.908,0.228,2.35,0.684
		C49.881,83.751,50.103,84.589,50.103,85.81z"/>
	<path fill="#2B1C48" d="M52.755,77.46h2.244v1.904h-2.244V77.46z M52.854,82.917h2.014v12.549h-2.014V82.917z"/>
	<path fill="#2B1C48" d="M64.185,86.189v0.806h-2.112V85.81c0-0.821-0.074-1.347-0.221-1.574s-0.417-0.342-0.811-0.342
		s-0.666,0.128-0.819,0.385c-0.153,0.256-0.229,0.767-0.229,1.531v6.751c0,0.781,0.079,1.298,0.237,1.55
		c0.158,0.253,0.439,0.379,0.843,0.379c0.382,0,0.644-0.116,0.786-0.348c0.142-0.232,0.213-0.759,0.213-1.581v-1.343h2.112v0.977
		c0,1.384-0.232,2.325-0.696,2.826c-0.464,0.5-1.28,0.75-2.448,0.75c-1.157,0-1.968-0.256-2.432-0.769
		c-0.464-0.513-0.696-1.457-0.696-2.832v-5.981c0-1.392,0.229-2.336,0.688-2.832s1.271-0.744,2.44-0.744
		c1.157,0,1.971,0.254,2.44,0.763S64.185,84.822,64.185,86.189z"/>
	<path fill="#2B1C48" d="M73.618,86.189v6.006c0,1.384-0.251,2.325-0.753,2.826c-0.502,0.5-1.392,0.75-2.669,0.75
		c-1.267,0-2.153-0.254-2.661-0.763c-0.508-0.508-0.762-1.454-0.762-2.838v-5.981c0-1.392,0.249-2.336,0.745-2.832
		s1.389-0.744,2.678-0.744c1.266,0,2.153,0.254,2.661,0.763C73.364,83.884,73.618,84.822,73.618,86.189z M71.505,85.81
		c0-0.74-0.099-1.244-0.295-1.514c-0.196-0.268-0.535-0.402-1.015-0.402c-0.491,0-0.838,0.143-1.04,0.428
		c-0.202,0.284-0.303,0.781-0.303,1.488v6.751c0,0.749,0.098,1.257,0.294,1.526c0.197,0.268,0.546,0.402,1.048,0.402
		c0.48,0,0.819-0.139,1.015-0.415s0.295-0.781,0.295-1.514V85.81z"/>
	<path fill="#2B1C48" d="M82.33,85.81v0.709h-2.015V85.81c0-0.772-0.073-1.285-0.221-1.537c-0.147-0.253-0.417-0.379-0.811-0.379
		c-0.35,0-0.598,0.116-0.745,0.348c-0.147,0.232-0.221,0.625-0.221,1.178v0.501c0,0.269,0.068,0.533,0.205,0.794
		c0.136,0.26,0.357,0.537,0.663,0.83l2.44,2.416c0.273,0.277,0.483,0.562,0.631,0.855c0.147,0.293,0.221,0.569,0.221,0.83v1.195
		c0,1.083-0.237,1.842-0.712,2.277c-0.475,0.435-1.28,0.652-2.416,0.652c-1.179,0-1.998-0.228-2.457-0.684
		c-0.458-0.455-0.688-1.298-0.688-2.526v-1.074h1.998v1.074c0,0.798,0.079,1.318,0.237,1.562s0.439,0.366,0.844,0.366
		c0.415,0,0.709-0.122,0.884-0.366c0.174-0.244,0.262-0.671,0.262-1.282v-0.476c0-0.684-0.333-1.343-0.999-1.978
		c-0.022-0.024-0.038-0.041-0.049-0.049l-2.375-2.393c-0.251-0.252-0.432-0.502-0.541-0.751c-0.109-0.248-0.164-0.522-0.164-0.823
		v-0.904c0-1.033,0.232-1.768,0.696-2.203c0.464-0.435,1.236-0.652,2.317-0.652c1.124,0,1.908,0.228,2.35,0.684
		C82.108,83.751,82.33,84.589,82.33,85.81z"/>
	<path fill="#2B1C48" d="M91.86,86.189v6.006c0,1.384-0.251,2.325-0.753,2.826c-0.502,0.5-1.392,0.75-2.669,0.75
		c-1.267,0-2.153-0.254-2.661-0.763c-0.508-0.508-0.762-1.454-0.762-2.838v-5.981c0-1.392,0.249-2.336,0.745-2.832
		s1.389-0.744,2.678-0.744c1.266,0,2.153,0.254,2.661,0.763C91.606,83.884,91.86,84.822,91.86,86.189z M89.748,85.81
		c0-0.74-0.099-1.244-0.295-1.514c-0.196-0.268-0.535-0.402-1.015-0.402c-0.491,0-0.838,0.143-1.04,0.428
		c-0.202,0.284-0.303,0.781-0.303,1.488v6.751c0,0.749,0.098,1.257,0.294,1.526c0.197,0.268,0.546,0.402,1.048,0.402
		c0.48,0,0.819-0.139,1.015-0.415s0.295-0.781,0.295-1.514V85.81z"/>
	<path fill="#2B1C48" d="M101.079,86.189v0.806h-2.112V85.81c0-0.821-0.074-1.347-0.221-1.574s-0.417-0.342-0.811-0.342
		s-0.666,0.128-0.819,0.385c-0.153,0.256-0.229,0.767-0.229,1.531v6.751c0,0.781,0.079,1.298,0.237,1.55
		c0.158,0.253,0.439,0.379,0.843,0.379c0.382,0,0.644-0.116,0.786-0.348c0.142-0.232,0.213-0.759,0.213-1.581v-1.343h2.112v0.977
		c0,1.384-0.232,2.325-0.696,2.826c-0.464,0.5-1.28,0.75-2.448,0.75c-1.157,0-1.968-0.256-2.432-0.769
		c-0.464-0.513-0.696-1.457-0.696-2.832v-5.981c0-1.392,0.229-2.336,0.688-2.832s1.271-0.744,2.44-0.744
		c1.157,0,1.971,0.254,2.44,0.763S101.079,84.822,101.079,86.189z"/>
	<path fill="#2B1C48" d="M103.634,77.46h2.244v1.904h-2.244V77.46z M103.732,82.917h2.014v12.549h-2.014V82.917z"/>
	<path fill="#2B1C48" d="M115.441,85.847v9.619h-1.883l-0.131-0.77c-0.273,0.351-0.62,0.617-1.04,0.8
		c-0.42,0.184-0.903,0.274-1.449,0.274c-0.852,0-1.455-0.213-1.81-0.641c-0.355-0.427-0.532-1.174-0.532-2.24v-2.502
		c0-0.984,0.357-1.685,1.073-2.1c0.715-0.415,1.967-0.646,3.758-0.695V85.81c0-0.756-0.095-1.265-0.286-1.525
		c-0.191-0.261-0.532-0.391-1.024-0.391c-0.469,0-0.805,0.12-1.007,0.36c-0.202,0.24-0.303,0.653-0.303,1.239v0.695h-2.014v-0.342
		c0-1.253,0.246-2.105,0.737-2.558c0.491-0.451,1.364-0.677,2.62-0.677c1.222,0,2.077,0.228,2.562,0.684
		C115.198,83.751,115.441,84.602,115.441,85.847z M113.41,88.814c-1.048,0.032-1.76,0.17-2.137,0.414
		c-0.376,0.244-0.565,0.684-0.565,1.318v2.015c0,0.749,0.098,1.257,0.295,1.526c0.196,0.268,0.546,0.402,1.048,0.402
		c0.491,0,0.844-0.145,1.057-0.434c0.212-0.288,0.319-0.787,0.319-1.495L113.41,88.814z"/>
	<path fill="#2B1C48" d="M118.52,77.46h2.014v18.006h-2.014V77.46z"/>
	<path fill="#2B1C48" d="M135.354,85.847v9.619h-1.883l-0.131-0.77c-0.273,0.351-0.62,0.617-1.04,0.8
		c-0.42,0.184-0.903,0.274-1.449,0.274c-0.852,0-1.455-0.213-1.81-0.641c-0.355-0.427-0.532-1.174-0.532-2.24v-2.502
		c0-0.984,0.357-1.685,1.073-2.1c0.715-0.415,1.967-0.646,3.758-0.695V85.81c0-0.756-0.095-1.265-0.286-1.525
		c-0.191-0.261-0.532-0.391-1.024-0.391c-0.469,0-0.805,0.12-1.007,0.36c-0.202,0.24-0.303,0.653-0.303,1.239v0.695h-2.014v-0.342
		c0-1.253,0.246-2.105,0.737-2.558c0.491-0.451,1.364-0.677,2.62-0.677c1.222,0,2.077,0.228,2.562,0.684
		C135.11,83.751,135.354,84.602,135.354,85.847z M133.323,88.814c-1.048,0.032-1.76,0.17-2.137,0.414
		c-0.376,0.244-0.565,0.684-0.565,1.318v2.015c0,0.749,0.098,1.257,0.295,1.526c0.196,0.268,0.546,0.402,1.048,0.402
		c0.491,0,0.844-0.145,1.057-0.434c0.212-0.288,0.319-0.787,0.319-1.495L133.323,88.814z"/>
	<path fill="#2B1C48" d="M142.526,77.46h2.112l2.244,16.211h0.229l2.113-16.211h1.981l-2.62,18.006h-3.243L142.526,77.46z"/>
	<path fill="#2B1C48" d="M153.252,82.917h2.014v12.549h-2.014V82.917z M154.808,78.547h2.309l-2.145,2.722h-1.605L154.808,78.547z"
		/>
	<path fill="#2B1C48" d="M164.583,86.189v0.806h-2.112V85.81c0-0.821-0.074-1.347-0.221-1.574s-0.417-0.342-0.811-0.342
		s-0.666,0.128-0.819,0.385c-0.153,0.256-0.229,0.767-0.229,1.531v6.751c0,0.781,0.079,1.298,0.237,1.55
		c0.158,0.253,0.439,0.379,0.843,0.379c0.382,0,0.644-0.116,0.786-0.348c0.142-0.232,0.213-0.759,0.213-1.581v-1.343h2.112v0.977
		c0,1.384-0.232,2.325-0.696,2.826c-0.464,0.5-1.28,0.75-2.448,0.75c-1.157,0-1.968-0.256-2.432-0.769
		c-0.464-0.513-0.696-1.457-0.696-2.832v-5.981c0-1.392,0.229-2.336,0.688-2.832s1.271-0.744,2.44-0.744
		c1.157,0,1.971,0.254,2.44,0.763S164.583,84.822,164.583,86.189z"/>
	<path fill="#2B1C48" d="M169.349,79.536v3.381h1.539v1.27h-1.539v9.326c0,0.35,0.09,0.592,0.27,0.727
		c0.18,0.134,0.505,0.201,0.975,0.201h0.294v1.307c-0.12,0.008-0.243,0.014-0.368,0.018c-0.126,0.004-0.303,0.006-0.532,0.006
		c-1.026,0-1.725-0.185-2.096-0.555s-0.557-1.194-0.557-2.473v-8.557h-1.097v-1.27h1.097v-2.771L169.349,79.536z"/>
	<path fill="#2B1C48" d="M172.804,77.46h2.244v1.904h-2.244V77.46z M172.903,82.917h2.014v12.549h-2.014V82.917z"/>
	<path fill="#2B1C48" d="M184.202,83.772c0.404-0.423,0.792-0.722,1.163-0.897c0.371-0.175,0.803-0.262,1.294-0.262
		c0.753,0,1.293,0.215,1.621,0.646s0.491,1.176,0.491,2.234v9.973h-2.014V85.81c0-0.716-0.087-1.214-0.262-1.495
		c-0.174-0.28-0.469-0.421-0.884-0.421c-0.426,0-0.734,0.15-0.925,0.451c-0.191,0.302-0.287,0.79-0.287,1.465v9.656h-2.014V85.81
		c0-0.716-0.085-1.214-0.254-1.495c-0.169-0.28-0.461-0.421-0.876-0.421c-0.426,0-0.734,0.15-0.925,0.451
		c-0.191,0.302-0.287,0.79-0.287,1.465v9.656h-2.014V82.917h1.883l0.131,0.77c0.272-0.358,0.598-0.627,0.974-0.807
		c0.376-0.179,0.8-0.268,1.269-0.268c0.502,0,0.917,0.1,1.245,0.299S184.082,83.398,184.202,83.772z"/>
	<path fill="#2B1C48" d="M198.433,85.847v9.619h-1.883l-0.131-0.77c-0.273,0.351-0.62,0.617-1.04,0.8
		c-0.42,0.184-0.903,0.274-1.449,0.274c-0.852,0-1.455-0.213-1.81-0.641c-0.355-0.427-0.532-1.174-0.532-2.24v-2.502
		c0-0.984,0.357-1.685,1.073-2.1c0.715-0.415,1.967-0.646,3.758-0.695V85.81c0-0.756-0.095-1.265-0.286-1.525
		c-0.191-0.261-0.532-0.391-1.024-0.391c-0.469,0-0.805,0.12-1.007,0.36c-0.202,0.24-0.303,0.653-0.303,1.239v0.695h-2.014v-0.342
		c0-1.253,0.246-2.105,0.737-2.558c0.491-0.451,1.364-0.677,2.62-0.677c1.222,0,2.077,0.228,2.562,0.684
		C198.189,83.751,198.433,84.602,198.433,85.847z M196.402,88.814c-1.048,0.032-1.76,0.17-2.137,0.414
		c-0.376,0.244-0.565,0.684-0.565,1.318v2.015c0,0.749,0.098,1.257,0.295,1.526c0.196,0.268,0.546,0.402,1.048,0.402
		c0.491,0,0.844-0.145,1.057-0.434c0.212-0.288,0.319-0.787,0.319-1.495L196.402,88.814z"/>
	<path fill="#2B1C48" d="M207.21,85.81v0.709h-2.015V85.81c0-0.772-0.073-1.285-0.221-1.537c-0.147-0.253-0.417-0.379-0.811-0.379
		c-0.35,0-0.598,0.116-0.745,0.348c-0.147,0.232-0.221,0.625-0.221,1.178v0.501c0,0.269,0.068,0.533,0.205,0.794
		c0.136,0.26,0.357,0.537,0.663,0.83l2.44,2.416c0.273,0.277,0.483,0.562,0.631,0.855c0.147,0.293,0.221,0.569,0.221,0.83v1.195
		c0,1.083-0.237,1.842-0.712,2.277c-0.475,0.435-1.28,0.652-2.416,0.652c-1.179,0-1.998-0.228-2.457-0.684
		c-0.458-0.455-0.688-1.298-0.688-2.526v-1.074h1.998v1.074c0,0.798,0.079,1.318,0.237,1.562s0.439,0.366,0.844,0.366
		c0.415,0,0.709-0.122,0.884-0.366c0.174-0.244,0.262-0.671,0.262-1.282v-0.476c0-0.684-0.333-1.343-0.999-1.978
		c-0.022-0.024-0.038-0.041-0.049-0.049l-2.375-2.393c-0.251-0.252-0.432-0.502-0.541-0.751c-0.109-0.248-0.164-0.522-0.164-0.823
		v-0.904c0-1.033,0.232-1.768,0.696-2.203c0.464-0.435,1.236-0.652,2.317-0.652c1.124,0,1.908,0.228,2.35,0.684
		C206.989,83.751,207.21,84.589,207.21,85.81z"/>
	<path fill="#2B1C48" d="M219.818,77.46h2.048v18.006h-1.884l-0.164-0.77c-0.272,0.358-0.613,0.627-1.023,0.807
		c-0.409,0.179-0.887,0.268-1.433,0.268c-0.841,0-1.441-0.213-1.801-0.641c-0.36-0.427-0.541-1.174-0.541-2.24v-7.396
		c0-1.066,0.181-1.813,0.541-2.24c0.359-0.428,0.96-0.641,1.801-0.641c0.546,0,1.026,0.091,1.441,0.274
		c0.414,0.183,0.753,0.449,1.015,0.8V77.46z M219.818,85.81c0-0.707-0.101-1.204-0.303-1.488c-0.202-0.285-0.549-0.428-1.04-0.428
		c-0.502,0-0.856,0.139-1.064,0.415c-0.207,0.276-0.311,0.777-0.311,1.501v6.751c0,0.732,0.104,1.237,0.311,1.514
		c0.208,0.276,0.562,0.415,1.064,0.415c0.491,0,0.838-0.143,1.04-0.428c0.202-0.284,0.303-0.785,0.303-1.501V85.81z"/>
	<path fill="#2B1C48" d="M231.725,86.189v3.723h-4.766v2.649c0,0.749,0.098,1.257,0.295,1.526c0.196,0.268,0.546,0.402,1.048,0.402
		c0.48,0,0.818-0.139,1.016-0.415c0.196-0.276,0.294-0.781,0.294-1.514v-1.392h2.113v1.025c0,1.384-0.252,2.325-0.754,2.826
		c-0.502,0.5-1.392,0.75-2.669,0.75c-1.267,0-2.153-0.254-2.661-0.763c-0.508-0.508-0.762-1.454-0.762-2.838v-5.981
		c0-1.392,0.248-2.336,0.745-2.832s1.39-0.744,2.678-0.744c1.267,0,2.153,0.254,2.661,0.763S231.725,84.822,231.725,86.189z
		 M229.611,85.81c0-0.74-0.098-1.244-0.294-1.514c-0.197-0.268-0.535-0.402-1.016-0.402c-0.491,0-0.838,0.143-1.04,0.428
		c-0.202,0.284-0.303,0.781-0.303,1.488v2.832h2.652V85.81z"/>
	<path fill="#2B1C48" d="M234.737,77.46h2.015v18.006h-2.015V77.46z"/>
	<path fill="#2B1C48" d="M252.244,80.318v1.721h-2.194v-1.672c0-0.7-0.102-1.185-0.303-1.453c-0.202-0.269-0.56-0.402-1.073-0.402
		c-0.47,0-0.797,0.152-0.982,0.457c-0.186,0.306-0.278,0.946-0.278,1.923v11.146c0,1,0.099,1.651,0.295,1.953
		c0.196,0.301,0.557,0.451,1.081,0.451c0.447,0,0.77-0.143,0.966-0.428c0.196-0.284,0.295-0.769,0.295-1.452v-1.94h2.194v2.002
		c0,1.229-0.257,2.061-0.77,2.496c-0.514,0.435-1.431,0.652-2.751,0.652c-1.3,0-2.206-0.28-2.719-0.842
		c-0.514-0.562-0.77-1.607-0.77-3.137V81.135c0-1.521,0.256-2.56,0.77-3.112c0.513-0.554,1.419-0.83,2.719-0.83
		c1.331,0,2.251,0.215,2.759,0.646S252.244,79.097,252.244,80.318z"/>
	<path fill="#2B1C48" d="M261.398,86.189v6.006c0,1.384-0.252,2.325-0.754,2.826c-0.502,0.5-1.392,0.75-2.669,0.75
		c-1.267,0-2.153-0.254-2.661-0.763c-0.508-0.508-0.762-1.454-0.762-2.838v-5.981c0-1.392,0.248-2.336,0.745-2.832
		s1.39-0.744,2.678-0.744c1.267,0,2.153,0.254,2.661,0.763S261.398,84.822,261.398,86.189z M259.285,85.81
		c0-0.74-0.098-1.244-0.294-1.514c-0.197-0.268-0.535-0.402-1.016-0.402c-0.491,0-0.838,0.143-1.04,0.428
		c-0.202,0.284-0.303,0.781-0.303,1.488v6.751c0,0.749,0.098,1.257,0.295,1.526c0.196,0.268,0.546,0.402,1.048,0.402
		c0.48,0,0.818-0.139,1.016-0.415c0.196-0.276,0.294-0.781,0.294-1.514V85.81z"/>
	<path fill="#2B1C48" d="M271.257,85.493v9.973h-2.015V85.81c0-0.716-0.106-1.214-0.319-1.495c-0.213-0.28-0.576-0.421-1.089-0.421
		c-0.502,0-0.862,0.145-1.081,0.434s-0.327,0.783-0.327,1.482v9.656h-2.015V82.917h1.884l0.131,0.77
		c0.272-0.351,0.619-0.617,1.04-0.8c0.42-0.184,0.903-0.274,1.449-0.274c0.852,0,1.454,0.213,1.81,0.641
		C271.079,83.68,271.257,84.427,271.257,85.493z"/>
	<path fill="#2B1C48" d="M278.02,77.193v1.293h-0.295c-0.469,0-0.794,0.067-0.974,0.202c-0.181,0.134-0.271,0.376-0.271,0.726v3.504
		h1.539v1.245h-1.539v11.304h-2.015V84.162h-1.097v-1.245h1.097v-2.723c0-1.285,0.186-2.111,0.558-2.478
		c0.37-0.366,1.069-0.55,2.096-0.55c0.229,0,0.409,0.003,0.54,0.007S277.91,77.184,278.02,77.193z"/>
	<path fill="#2B1C48" d="M279.739,77.46h2.015v18.006h-2.015V77.46z"/>
	<path fill="#2B1C48" d="M284.768,77.46h2.243v1.904h-2.243V77.46z M284.865,82.917h2.015v12.549h-2.015V82.917z"/>
	<path fill="#2B1C48" d="M296.198,86.189v0.806h-2.113V85.81c0-0.821-0.073-1.347-0.221-1.574s-0.418-0.342-0.811-0.342
		s-0.666,0.128-0.818,0.385c-0.153,0.256-0.229,0.767-0.229,1.531v6.751c0,0.781,0.079,1.298,0.237,1.55
		c0.158,0.253,0.439,0.379,0.844,0.379c0.382,0,0.644-0.116,0.785-0.348c0.143-0.232,0.213-0.759,0.213-1.581v-1.343h2.113v0.977
		c0,1.384-0.232,2.325-0.696,2.826c-0.464,0.5-1.28,0.75-2.448,0.75c-1.157,0-1.968-0.256-2.432-0.769s-0.696-1.457-0.696-2.832
		v-5.981c0-1.392,0.229-2.336,0.688-2.832c0.459-0.496,1.272-0.744,2.44-0.744c1.157,0,1.971,0.254,2.44,0.763
		C295.963,83.884,296.198,84.822,296.198,86.189z"/>
	<path fill="#2B1C48" d="M300.963,79.536v3.381h1.54v1.27h-1.54v9.326c0,0.35,0.091,0.592,0.271,0.727
		c0.181,0.134,0.505,0.201,0.975,0.201h0.295v1.307c-0.12,0.008-0.243,0.014-0.369,0.018c-0.125,0.004-0.303,0.006-0.532,0.006
		c-1.026,0-1.725-0.185-2.096-0.555s-0.557-1.194-0.557-2.473v-8.557h-1.098v-1.27h1.098v-2.771L300.963,79.536z"/>
	<path fill="#2B1C48" d="M311.297,86.189v6.006c0,1.384-0.252,2.325-0.754,2.826c-0.502,0.5-1.392,0.75-2.669,0.75
		c-1.267,0-2.153-0.254-2.661-0.763c-0.508-0.508-0.762-1.454-0.762-2.838v-5.981c0-1.392,0.248-2.336,0.745-2.832
		s1.39-0.744,2.678-0.744c1.267,0,2.153,0.254,2.661,0.763S311.297,84.822,311.297,86.189z M309.184,85.81
		c0-0.74-0.098-1.244-0.294-1.514c-0.197-0.268-0.535-0.402-1.016-0.402c-0.491,0-0.838,0.143-1.04,0.428
		c-0.202,0.284-0.303,0.781-0.303,1.488v6.751c0,0.749,0.098,1.257,0.295,1.526c0.196,0.268,0.546,0.402,1.048,0.402
		c0.48,0,0.818-0.139,1.016-0.415c0.196-0.276,0.294-0.781,0.294-1.514V85.81z"/>
	<path fill="#2B1C48" d="M321.827,77.46h3.045l3.488,18.006h-2.243l-0.835-5.005h-3.963l-0.901,5.005h-2.194L321.827,77.46z
		 M323.268,78.791l-1.752,10.352h3.488l-1.638-10.352H323.268z"/>
	<path fill="#2B1C48" d="M334.96,82.636v1.526h-0.344c-0.862,0-1.474,0.161-1.834,0.482s-0.54,0.877-0.54,1.666v9.155h-2.015V82.917
		h1.884l0.131,0.77c0.283-0.342,0.63-0.606,1.04-0.794c0.409-0.188,0.854-0.28,1.334-0.28c0.033,0,0.088,0.004,0.164,0.012
		S334.917,82.636,334.96,82.636z"/>
	<path fill="#2B1C48" d="M342.575,83.772c0.404-0.423,0.791-0.722,1.163-0.897c0.371-0.175,0.802-0.262,1.293-0.262
		c0.754,0,1.294,0.215,1.622,0.646c0.327,0.432,0.491,1.176,0.491,2.234v9.973h-2.015V85.81c0-0.716-0.088-1.214-0.262-1.495
		c-0.175-0.28-0.47-0.421-0.885-0.421c-0.426,0-0.734,0.15-0.925,0.451c-0.191,0.302-0.287,0.79-0.287,1.465v9.656h-2.014V85.81
		c0-0.716-0.085-1.214-0.254-1.495c-0.17-0.28-0.462-0.421-0.876-0.421c-0.426,0-0.734,0.15-0.926,0.451
		c-0.19,0.302-0.286,0.79-0.286,1.465v9.656h-2.015V82.917h1.884l0.131,0.77c0.272-0.358,0.598-0.627,0.975-0.807
		c0.376-0.179,0.799-0.268,1.269-0.268c0.502,0,0.917,0.1,1.245,0.299C342.231,83.111,342.455,83.398,342.575,83.772z"/>
	<path fill="#2B1C48" d="M356.806,85.847v9.619h-1.883l-0.131-0.77c-0.273,0.351-0.62,0.617-1.04,0.8
		c-0.421,0.184-0.903,0.274-1.449,0.274c-0.852,0-1.455-0.213-1.81-0.641c-0.354-0.427-0.532-1.174-0.532-2.24v-2.502
		c0-0.984,0.357-1.685,1.072-2.1s1.968-0.646,3.759-0.695V85.81c0-0.756-0.096-1.265-0.287-1.525
		c-0.19-0.261-0.532-0.391-1.023-0.391c-0.47,0-0.805,0.12-1.007,0.36s-0.303,0.653-0.303,1.239v0.695h-2.015v-0.342
		c0-1.253,0.246-2.105,0.737-2.558c0.491-0.451,1.364-0.677,2.62-0.677c1.223,0,2.077,0.228,2.562,0.684
		C356.562,83.751,356.806,84.602,356.806,85.847z M354.775,88.814c-1.048,0.032-1.761,0.17-2.137,0.414
		c-0.377,0.244-0.565,0.684-0.565,1.318v2.015c0,0.749,0.099,1.257,0.295,1.526c0.196,0.268,0.546,0.402,1.048,0.402
		c0.491,0,0.844-0.145,1.057-0.434c0.213-0.288,0.319-0.787,0.319-1.495L354.775,88.814z"/>
	<path fill="#2B1C48" d="M364.617,77.46h2.048v18.006h-1.884l-0.164-0.77c-0.272,0.358-0.613,0.627-1.023,0.807
		c-0.409,0.179-0.887,0.268-1.433,0.268c-0.841,0-1.441-0.213-1.801-0.641c-0.36-0.427-0.541-1.174-0.541-2.24v-7.396
		c0-1.066,0.181-1.813,0.541-2.24c0.359-0.428,0.96-0.641,1.801-0.641c0.546,0,1.026,0.091,1.441,0.274
		c0.414,0.183,0.753,0.449,1.015,0.8V77.46z M364.617,85.81c0-0.707-0.101-1.204-0.303-1.488c-0.202-0.285-0.549-0.428-1.04-0.428
		c-0.502,0-0.856,0.139-1.064,0.415c-0.207,0.276-0.311,0.777-0.311,1.501v6.751c0,0.732,0.104,1.237,0.311,1.514
		c0.208,0.276,0.562,0.415,1.064,0.415c0.491,0,0.838-0.143,1.04-0.428c0.202-0.284,0.303-0.785,0.303-1.501V85.81z"/>
	<path fill="#2B1C48" d="M376.523,86.189v6.006c0,1.384-0.252,2.325-0.754,2.826c-0.502,0.5-1.392,0.75-2.669,0.75
		c-1.267,0-2.153-0.254-2.661-0.763c-0.508-0.508-0.762-1.454-0.762-2.838v-5.981c0-1.392,0.248-2.336,0.745-2.832
		s1.39-0.744,2.678-0.744c1.267,0,2.153,0.254,2.661,0.763S376.523,84.822,376.523,86.189z M374.41,85.81
		c0-0.74-0.098-1.244-0.294-1.514c-0.197-0.268-0.535-0.402-1.016-0.402c-0.491,0-0.838,0.143-1.04,0.428
		c-0.202,0.284-0.303,0.781-0.303,1.488v6.751c0,0.749,0.098,1.257,0.295,1.526c0.196,0.268,0.546,0.402,1.048,0.402
		c0.48,0,0.818-0.139,1.016-0.415c0.196-0.276,0.294-0.781,0.294-1.514V85.81z"/>
	<path fill="#2B1C48" d="M379.405,93.489h2.31v1.978h-2.31V93.489z"/>
</g>
</svg>
