<?xml version="1.0" encoding="utf-8"?>
<!-- Generator: Adobe Illustrator 16.0.0, SVG Export Plug-In . SVG Version: 6.00 Build 0)  -->
<!DOCTYPE svg PUBLIC "-//W3C//DTD SVG 1.1//EN" "http://www.w3.org/Graphics/SVG/1.1/DTD/svg11.dtd">
<svg version="1.1" id="Capa_1" xmlns="http://www.w3.org/2000/svg" xmlns:xlink="http://www.w3.org/1999/xlink" x="0px" y="0px"
	 width="415.383px" height="371.141px" viewBox="0 0 415.383 371.141" enable-background="new 0 0 415.383 371.141"
	 xml:space="preserve">
<g>
	<g>
		<g>
			<path fill="#A3195B" d="M7.389,6.569h5.727l6.558,33.851h-4.219l-1.569-9.409h-7.45l-1.693,9.409H0.616L7.389,6.569z
				 M10.099,9.071L6.804,28.532h6.558l-3.08-19.462H10.099z"/>
			<path fill="#A3195B" d="M36.021,22.978v1.516h-3.973v-2.227c0-1.545-0.138-2.532-0.415-2.96
				c-0.276-0.429-0.785-0.644-1.524-0.644c-0.738,0-1.252,0.24-1.539,0.724c-0.287,0.481-0.431,1.441-0.431,2.88v12.69
				c0,1.469,0.148,2.439,0.446,2.915c0.297,0.476,0.826,0.711,1.586,0.711c0.718,0,1.211-0.218,1.478-0.653
				c0.267-0.437,0.399-1.427,0.399-2.973v-2.523h3.973v1.836c0,2.602-0.438,4.372-1.309,5.312c-0.873,0.94-2.407,1.412-4.604,1.412
				c-2.176,0-3.699-0.481-4.571-1.446c-0.872-0.964-1.308-2.737-1.308-5.323V22.978c0-2.616,0.43-4.392,1.293-5.324
				c0.861-0.933,2.391-1.399,4.586-1.399c2.176,0,3.705,0.479,4.588,1.435C35.579,18.645,36.021,20.408,36.021,22.978z"/>
			<path fill="#A3195B" d="M44.979,10.471v6.356h2.894v2.387h-2.894v17.533c0,0.658,0.169,1.112,0.509,1.364
				c0.338,0.254,0.948,0.38,1.831,0.38h0.554v2.456c-0.226,0.015-0.457,0.025-0.692,0.034c-0.235,0.008-0.569,0.012-1.001,0.012
				c-1.929,0-3.242-0.349-3.939-1.044c-0.699-0.696-1.047-2.245-1.047-4.647V19.214H39.13v-2.387h2.062v-5.209L44.979,10.471z"/>
			<path fill="#A3195B" d="M51.475,6.569h4.218v3.58h-4.218V6.569z M51.659,16.828h3.787V40.42h-3.787V16.828z"/>
			<path fill="#A3195B" d="M59.233,16.828h3.693l2.648,21.158h0.338l2.833-21.158h3.479l-3.85,23.592h-5.232L59.233,16.828z"/>
			<path fill="#A3195B" d="M75.857,6.569h4.218v3.58h-4.218V6.569z M76.042,16.828h3.787V40.42h-3.787V16.828z"/>
			<path fill="#A3195B" d="M94.575,6.569h3.85v33.851h-3.541l-0.309-1.445c-0.513,0.673-1.154,1.178-1.924,1.516
				c-0.77,0.337-1.668,0.505-2.693,0.505c-1.58,0-2.709-0.402-3.387-1.205c-0.678-0.805-1.016-2.207-1.016-4.211V21.67
				c0-2.004,0.338-3.407,1.016-4.211c0.678-0.803,1.807-1.205,3.387-1.205c1.025,0,1.929,0.172,2.709,0.517
				c0.779,0.346,1.416,0.847,1.908,1.503V6.569L94.575,6.569z M94.575,22.267c0-1.331-0.189-2.265-0.568-2.801
				c-0.381-0.534-1.031-0.803-1.955-0.803c-0.945,0-1.611,0.26-2.002,0.779c-0.39,0.521-0.584,1.461-0.584,2.823v12.69
				c0,1.377,0.194,2.326,0.584,2.847c0.391,0.521,1.057,0.779,2.002,0.779c0.924,0,1.574-0.269,1.955-0.804
				c0.379-0.534,0.568-1.476,0.568-2.822V22.267z"/>
			<path fill="#A3195B" d="M116.588,22.335v18.084h-3.54l-0.246-1.445c-0.514,0.657-1.166,1.158-1.955,1.503
				c-0.791,0.344-1.699,0.517-2.725,0.517c-1.602,0-2.735-0.402-3.402-1.205c-0.667-0.805-1-2.207-1-4.211v-4.705
				c0-1.852,0.672-3.167,2.016-3.947c1.344-0.779,3.699-1.216,7.066-1.308v-3.352c0-1.424-0.181-2.38-0.539-2.869
				c-0.359-0.488-1.001-0.733-1.924-0.733c-0.883,0-1.515,0.227-1.895,0.677c-0.379,0.452-0.568,1.229-0.568,2.33v1.309h-3.787
				v-0.644c0-2.355,0.461-3.959,1.385-4.809c0.924-0.851,2.566-1.273,4.926-1.273c2.299,0,3.904,0.43,4.818,1.285
				C116.131,18.396,116.588,19.995,116.588,22.335z M112.771,27.912c-1.971,0.062-3.31,0.32-4.018,0.779s-1.062,1.285-1.062,2.479
				v3.787c0,1.408,0.186,2.364,0.555,2.869s1.025,0.757,1.971,0.757c0.923,0,1.585-0.271,1.984-0.813
				c0.4-0.543,0.602-1.479,0.602-2.812L112.771,27.912z"/>
			<path fill="#A3195B" d="M131.272,6.569h3.85v33.851h-3.541l-0.309-1.445c-0.513,0.673-1.154,1.178-1.924,1.516
				c-0.77,0.337-1.668,0.505-2.693,0.505c-1.58,0-2.709-0.402-3.387-1.205c-0.678-0.805-1.016-2.207-1.016-4.211V21.67
				c0-2.004,0.338-3.407,1.016-4.211c0.678-0.803,1.807-1.205,3.387-1.205c1.025,0,1.929,0.172,2.709,0.517
				c0.779,0.346,1.416,0.847,1.908,1.503V6.569L131.272,6.569z M131.272,22.267c0-1.331-0.189-2.265-0.568-2.801
				c-0.381-0.534-1.031-0.803-1.955-0.803c-0.945,0-1.611,0.26-2.002,0.779c-0.39,0.521-0.584,1.461-0.584,2.823v12.69
				c0,1.377,0.194,2.326,0.584,2.847c0.391,0.521,1.057,0.779,2.002,0.779c0.924,0,1.574-0.269,1.955-0.804
				c0.379-0.534,0.568-1.476,0.568-2.822V22.267z"/>
			<path fill="#A3195B" d="M173.235,14.326v5.554c0,1.086-0.246,1.891-0.739,2.41c-0.493,0.521-1.313,0.865-2.463,1.033
				c1.149,0.152,1.97,0.489,2.463,1.01s0.739,1.324,0.739,2.41v7c0,2.831-0.478,4.747-1.432,5.749
				c-0.955,1.002-2.664,1.503-5.127,1.503c-2.422,0-4.12-0.517-5.094-1.55c-0.976-1.031-1.463-2.948-1.463-5.748v-2.249h3.91v2.776
				c0,1.622,0.199,2.747,0.6,3.374c0.4,0.627,1.082,0.94,2.047,0.94c0.965,0,1.637-0.311,2.018-0.931
				c0.379-0.618,0.569-1.748,0.569-3.385v-7.16c0-0.994-0.252-1.664-0.755-2.008c-0.503-0.346-1.514-0.518-3.032-0.518h-1.077
				v-2.501h1.077c1.498,0,2.504-0.181,3.017-0.54c0.514-0.358,0.771-1.036,0.771-2.031v-5.6c0-1.79-0.175-2.96-0.523-3.512
				c-0.348-0.551-0.976-0.826-1.878-0.826c-0.924,0-1.576,0.314-1.955,0.941c-0.38,0.627-0.569,1.76-0.569,3.396v2.11h-3.972v-1.651
				c0-2.738,0.482-4.62,1.447-5.646s2.647-1.538,5.049-1.538c2.359,0,4.012,0.509,4.957,1.525
				C172.763,9.687,173.235,11.573,173.235,14.326z"/>
		</g>
	</g>
</g>
<g>
	<path fill="#2B1C48" d="M9.684,50.309h5.764v1.428h-3.685v6.482h3.521v1.416h-3.521v7.251h3.783v1.428H9.684V50.309z"/>
	<path fill="#2B1C48" d="M25.044,58.342v9.973H23.03v-9.656c0-0.716-0.106-1.214-0.319-1.496c-0.213-0.28-0.576-0.421-1.089-0.421
		c-0.502,0-0.863,0.145-1.081,0.434c-0.218,0.289-0.327,0.783-0.327,1.483v9.656h-2.014V55.766h1.883l0.131,0.769
		c0.272-0.35,0.619-0.617,1.04-0.799c0.42-0.184,0.903-0.275,1.449-0.275c0.852,0,1.455,0.213,1.81,0.641
		C24.867,56.529,25.044,57.276,25.044,58.342z"/>
	<path fill="#2B1C48" d="M31.807,50.041v1.294h-0.294c-0.47,0-0.794,0.067-0.975,0.202c-0.18,0.134-0.27,0.376-0.27,0.726v3.503
		h1.539v1.245h-1.539v11.304h-2.014V57.011h-1.097v-1.245h1.097v-2.722c0-1.286,0.186-2.112,0.557-2.478s1.07-0.549,2.096-0.549
		c0.229,0,0.409,0.002,0.541,0.006C31.578,50.027,31.698,50.033,31.807,50.041z"/>
	<path fill="#2B1C48" d="M40.306,59.037v6.006c0,1.384-0.251,2.325-0.753,2.826c-0.502,0.5-1.392,0.75-2.669,0.75
		c-1.267,0-2.153-0.254-2.661-0.763c-0.508-0.508-0.762-1.454-0.762-2.838v-5.981c0-1.392,0.249-2.335,0.745-2.832
		c0.497-0.496,1.389-0.745,2.678-0.745c1.266,0,2.153,0.254,2.661,0.763C40.052,56.732,40.306,57.67,40.306,59.037z M38.194,58.659
		c0-0.74-0.099-1.245-0.295-1.514s-0.535-0.403-1.015-0.403c-0.491,0-0.838,0.143-1.04,0.427c-0.202,0.285-0.303,0.781-0.303,1.489
		v6.75c0,0.749,0.098,1.257,0.294,1.526c0.197,0.268,0.546,0.402,1.048,0.402c0.48,0,0.819-0.139,1.015-0.415
		s0.295-0.781,0.295-1.514V58.659z"/>
	<path fill="#2B1C48" d="M48.052,56.535l0.164-0.769h1.883v17.297h-2.047v-5.518c-0.273,0.351-0.612,0.613-1.015,0.788
		c-0.404,0.175-0.884,0.263-1.441,0.263c-0.852,0-1.455-0.212-1.81-0.635c-0.354-0.424-0.532-1.164-0.532-2.223v-7.397
		c0-1.066,0.18-1.813,0.541-2.24c0.36-0.428,0.96-0.641,1.801-0.641c0.535,0,1.01,0.091,1.425,0.275
		C47.435,55.918,47.779,56.185,48.052,56.535z M48.052,58.659c0-0.716-0.104-1.219-0.311-1.507
		c-0.208-0.289-0.552-0.434-1.032-0.434c-0.502,0-0.857,0.141-1.064,0.421c-0.208,0.281-0.311,0.788-0.311,1.52v6.726
		c0,0.74,0.104,1.251,0.311,1.532c0.207,0.28,0.562,0.421,1.064,0.421c0.48,0,0.824-0.146,1.032-0.439
		c0.207-0.293,0.311-0.798,0.311-1.514V58.659z"/>
	<path fill="#2B1C48" d="M53.178,55.766h2.014v9.619c0,0.74,0.106,1.251,0.319,1.532c0.213,0.28,0.576,0.421,1.089,0.421
		c0.502,0,0.857-0.145,1.064-0.434c0.207-0.288,0.311-0.795,0.311-1.52v-9.619h2.047v12.549h-1.883l-0.164-0.77
		c-0.273,0.351-0.611,0.613-1.015,0.788c-0.404,0.175-0.879,0.263-1.425,0.263c-0.863,0-1.471-0.212-1.826-0.635
		c-0.354-0.424-0.532-1.164-0.532-2.223V55.766z"/>
	<path fill="#2B1C48" d="M69.881,59.037v3.723h-4.765v2.649c0,0.749,0.098,1.257,0.294,1.526c0.197,0.268,0.546,0.402,1.048,0.402
		c0.48,0,0.819-0.139,1.015-0.415s0.295-0.781,0.295-1.514v-1.392h2.112v1.025c0,1.384-0.251,2.325-0.753,2.826
		c-0.502,0.5-1.392,0.75-2.669,0.75c-1.267,0-2.153-0.254-2.661-0.763c-0.508-0.508-0.762-1.454-0.762-2.838v-5.981
		c0-1.392,0.249-2.335,0.745-2.832c0.497-0.496,1.389-0.745,2.678-0.745c1.266,0,2.153,0.254,2.661,0.763
		C69.627,56.732,69.881,57.67,69.881,59.037z M67.769,58.659c0-0.74-0.099-1.245-0.295-1.514s-0.535-0.403-1.015-0.403
		c-0.491,0-0.838,0.143-1.04,0.427c-0.202,0.285-0.303,0.781-0.303,1.489v2.832h2.653V58.659z"/>
	<path fill="#2B1C48" d="M78.593,58.659v0.708h-2.015v-0.708c0-0.773-0.073-1.286-0.221-1.538c-0.147-0.252-0.417-0.378-0.811-0.378
		c-0.35,0-0.598,0.116-0.745,0.348c-0.147,0.232-0.221,0.625-0.221,1.178v0.5c0,0.269,0.068,0.533,0.205,0.793
		c0.136,0.261,0.357,0.537,0.663,0.83l2.44,2.417c0.273,0.277,0.483,0.562,0.631,0.855c0.147,0.293,0.221,0.569,0.221,0.83v1.195
		c0,1.083-0.237,1.842-0.712,2.277c-0.475,0.435-1.28,0.652-2.416,0.652c-1.179,0-1.998-0.228-2.457-0.684
		c-0.458-0.455-0.688-1.298-0.688-2.526v-1.074h1.998v1.074c0,0.798,0.079,1.318,0.237,1.562s0.439,0.366,0.844,0.366
		c0.415,0,0.709-0.122,0.884-0.366c0.174-0.244,0.262-0.671,0.262-1.282v-0.476c0-0.684-0.333-1.343-0.999-1.978
		c-0.022-0.024-0.038-0.041-0.049-0.049l-2.375-2.393c-0.251-0.252-0.432-0.502-0.541-0.751c-0.109-0.248-0.164-0.522-0.164-0.824
		v-0.903c0-1.033,0.232-1.768,0.696-2.204c0.464-0.435,1.236-0.653,2.317-0.653c1.124,0,1.908,0.228,2.35,0.684
		C78.372,56.6,78.593,57.438,78.593,58.659z"/>
	<path fill="#2B1C48" d="M85.372,55.766h1.965l1.556,9.351h0.131l1.376-9.351h1.883l-3.488,17.297H86.78l1.097-5.225L85.372,55.766z
		"/>
	<path fill="#2B1C48" d="M106.283,58.342v7.397c0,1.066-0.177,1.813-0.532,2.24c-0.355,0.428-0.958,0.641-1.81,0.641
		c-0.546,0-1.029-0.091-1.449-0.274c-0.42-0.183-0.767-0.449-1.04-0.8v5.518h-2.014V55.766h1.883l0.131,0.769
		c0.272-0.35,0.619-0.617,1.04-0.799c0.42-0.184,0.903-0.275,1.449-0.275c0.852,0,1.455,0.213,1.81,0.641
		C106.106,56.529,106.283,57.276,106.283,58.342z M104.171,58.659c0-0.74-0.098-1.245-0.295-1.514
		c-0.196-0.269-0.546-0.403-1.048-0.403c-0.491,0-0.843,0.145-1.056,0.434c-0.213,0.289-0.319,0.783-0.319,1.483v6.75
		c0,0.716,0.104,1.217,0.311,1.501c0.207,0.285,0.562,0.428,1.064,0.428c0.502,0,0.852-0.135,1.048-0.402
		c0.197-0.27,0.295-0.777,0.295-1.526V58.659z"/>
	<path fill="#2B1C48" d="M114.029,55.485v1.526h-0.344c-0.863,0-1.474,0.161-1.834,0.482c-0.36,0.321-0.54,0.877-0.54,1.666v9.155
		h-2.014V55.766h1.883l0.131,0.769c0.284-0.342,0.63-0.606,1.04-0.793c0.41-0.187,0.854-0.281,1.335-0.281
		c0.033,0,0.087,0.004,0.164,0.012C113.925,55.481,113.985,55.485,114.029,55.485z"/>
	<path fill="#2B1C48" d="M115.372,50.309h2.244v1.904h-2.244V50.309z M115.471,55.766h2.014v12.549h-2.014V55.766z"/>
	<path fill="#2B1C48" d="M127.441,58.342v9.973h-2.014v-9.656c0-0.716-0.106-1.214-0.319-1.496c-0.213-0.28-0.576-0.421-1.089-0.421
		c-0.502,0-0.863,0.145-1.081,0.434c-0.218,0.289-0.327,0.783-0.327,1.483v9.656h-2.014V55.766h1.883l0.131,0.769
		c0.272-0.35,0.619-0.617,1.04-0.799c0.42-0.184,0.903-0.275,1.449-0.275c0.852,0,1.455,0.213,1.81,0.641
		C127.264,56.529,127.441,57.276,127.441,58.342z"/>
	<path fill="#2B1C48" d="M136.726,59.037v0.806h-2.112v-1.184c0-0.822-0.074-1.347-0.221-1.575
		c-0.147-0.228-0.417-0.342-0.811-0.342s-0.666,0.128-0.819,0.385c-0.153,0.256-0.229,0.767-0.229,1.532v6.75
		c0,0.781,0.079,1.298,0.237,1.55c0.158,0.253,0.439,0.379,0.843,0.379c0.382,0,0.644-0.116,0.786-0.348
		c0.142-0.232,0.213-0.759,0.213-1.581v-1.343h2.112v0.977c0,1.384-0.232,2.325-0.696,2.826c-0.464,0.5-1.28,0.75-2.448,0.75
		c-1.157,0-1.968-0.256-2.432-0.769c-0.464-0.513-0.696-1.457-0.696-2.832v-5.981c0-1.392,0.229-2.335,0.688-2.832
		c0.458-0.496,1.271-0.745,2.44-0.745c1.157,0,1.971,0.254,2.44,0.763C136.491,56.732,136.726,57.67,136.726,59.037z"/>
	<path fill="#2B1C48" d="M139.281,50.309h2.244v1.904h-2.244V50.309z M139.379,55.766h2.014v12.549h-2.014V55.766z"/>
	<path fill="#2B1C48" d="M151.35,58.342v7.397c0,1.066-0.177,1.813-0.532,2.24c-0.355,0.428-0.958,0.641-1.81,0.641
		c-0.546,0-1.029-0.091-1.449-0.274c-0.42-0.183-0.767-0.449-1.04-0.8v5.518h-2.014V55.766h1.883l0.131,0.769
		c0.272-0.35,0.619-0.617,1.04-0.799c0.42-0.184,0.903-0.275,1.449-0.275c0.852,0,1.455,0.213,1.81,0.641
		C151.172,56.529,151.35,57.276,151.35,58.342z M149.237,58.659c0-0.74-0.098-1.245-0.295-1.514
		c-0.196-0.269-0.546-0.403-1.048-0.403c-0.491,0-0.843,0.145-1.056,0.434c-0.213,0.289-0.319,0.783-0.319,1.483v6.75
		c0,0.716,0.104,1.217,0.311,1.501c0.207,0.285,0.562,0.428,1.064,0.428c0.502,0,0.852-0.135,1.048-0.402
		c0.197-0.27,0.295-0.777,0.295-1.526V58.659z"/>
	<path fill="#2B1C48" d="M154.265,50.309h2.244v1.904h-2.244V50.309z M154.363,55.766h2.014v12.549h-2.014V55.766z"/>
	<path fill="#2B1C48" d="M166.268,59.037v6.006c0,1.384-0.251,2.325-0.753,2.826c-0.502,0.5-1.392,0.75-2.669,0.75
		c-1.267,0-2.153-0.254-2.661-0.763c-0.508-0.508-0.762-1.454-0.762-2.838v-5.981c0-1.392,0.249-2.335,0.745-2.832
		c0.497-0.496,1.389-0.745,2.678-0.745c1.266,0,2.153,0.254,2.661,0.763C166.014,56.732,166.268,57.67,166.268,59.037z
		 M164.156,58.659c0-0.74-0.099-1.245-0.295-1.514s-0.535-0.403-1.015-0.403c-0.491,0-0.838,0.143-1.04,0.427
		c-0.202,0.285-0.303,0.781-0.303,1.489v6.75c0,0.749,0.098,1.257,0.294,1.526c0.197,0.268,0.546,0.402,1.048,0.402
		c0.48,0,0.819-0.139,1.015-0.415s0.295-0.781,0.295-1.514V58.659z"/>
	<path fill="#2B1C48" d="M174.98,58.659v0.708h-2.015v-0.708c0-0.773-0.073-1.286-0.221-1.538c-0.147-0.252-0.417-0.378-0.811-0.378
		c-0.35,0-0.598,0.116-0.745,0.348c-0.147,0.232-0.221,0.625-0.221,1.178v0.5c0,0.269,0.068,0.533,0.205,0.793
		c0.136,0.261,0.357,0.537,0.663,0.83l2.44,2.417c0.273,0.277,0.483,0.562,0.631,0.855c0.147,0.293,0.221,0.569,0.221,0.83v1.195
		c0,1.083-0.237,1.842-0.712,2.277c-0.475,0.435-1.28,0.652-2.416,0.652c-1.179,0-1.998-0.228-2.457-0.684
		c-0.458-0.455-0.688-1.298-0.688-2.526v-1.074h1.998v1.074c0,0.798,0.079,1.318,0.237,1.562s0.439,0.366,0.844,0.366
		c0.415,0,0.709-0.122,0.884-0.366c0.174-0.244,0.262-0.671,0.262-1.282v-0.476c0-0.684-0.333-1.343-0.999-1.978
		c-0.022-0.024-0.038-0.041-0.049-0.049l-2.375-2.393c-0.251-0.252-0.432-0.502-0.541-0.751c-0.109-0.248-0.164-0.522-0.164-0.824
		v-0.903c0-1.033,0.232-1.768,0.696-2.204c0.464-0.435,1.236-0.653,2.317-0.653c1.124,0,1.908,0.228,2.35,0.684
		C174.759,56.6,174.98,57.438,174.98,58.659z"/>
	<path fill="#2B1C48" d="M187.589,50.309h2.047v18.005h-1.883l-0.164-0.77c-0.273,0.358-0.614,0.627-1.023,0.807
		c-0.41,0.179-0.887,0.268-1.433,0.268c-0.841,0-1.441-0.213-1.801-0.641c-0.36-0.427-0.541-1.174-0.541-2.24v-7.397
		c0-1.066,0.18-1.813,0.541-2.24c0.36-0.428,0.96-0.641,1.801-0.641c0.546,0,1.026,0.091,1.441,0.275
		c0.415,0.183,0.753,0.45,1.015,0.799V50.309z M187.589,58.659c0-0.708-0.101-1.204-0.303-1.489
		c-0.202-0.285-0.548-0.427-1.04-0.427c-0.502,0-0.857,0.139-1.064,0.415c-0.208,0.277-0.311,0.777-0.311,1.501v6.75
		c0,0.732,0.104,1.237,0.311,1.514c0.207,0.276,0.562,0.415,1.064,0.415c0.491,0,0.837-0.143,1.04-0.428
		c0.202-0.284,0.303-0.785,0.303-1.501V58.659z"/>
	<path fill="#2B1C48" d="M199.494,59.037v3.723h-4.765v2.649c0,0.749,0.098,1.257,0.294,1.526c0.197,0.268,0.546,0.402,1.048,0.402
		c0.48,0,0.819-0.139,1.015-0.415s0.295-0.781,0.295-1.514v-1.392h2.112v1.025c0,1.384-0.251,2.325-0.753,2.826
		c-0.502,0.5-1.392,0.75-2.669,0.75c-1.267,0-2.153-0.254-2.661-0.763c-0.508-0.508-0.762-1.454-0.762-2.838v-5.981
		c0-1.392,0.249-2.335,0.745-2.832c0.497-0.496,1.389-0.745,2.678-0.745c1.266,0,2.153,0.254,2.661,0.763
		C199.24,56.732,199.494,57.67,199.494,59.037z M197.382,58.659c0-0.74-0.099-1.245-0.295-1.514s-0.535-0.403-1.015-0.403
		c-0.491,0-0.838,0.143-1.04,0.427c-0.202,0.285-0.303,0.781-0.303,1.489v2.832h2.653V58.659z"/>
	<path fill="#2B1C48" d="M207.633,50.309h2.014v18.005h-2.014V50.309z"/>
	<path fill="#2B1C48" d="M219.341,58.696v9.619h-1.883l-0.131-0.77c-0.273,0.351-0.62,0.617-1.04,0.8
		c-0.421,0.184-0.903,0.274-1.449,0.274c-0.852,0-1.455-0.213-1.81-0.641c-0.354-0.427-0.532-1.174-0.532-2.24v-2.502
		c0-0.984,0.357-1.685,1.072-2.1s1.968-0.647,3.759-0.696v-1.782c0-0.757-0.096-1.265-0.287-1.526
		c-0.19-0.26-0.532-0.391-1.023-0.391c-0.47,0-0.805,0.12-1.007,0.36c-0.202,0.24-0.303,0.653-0.303,1.239v0.696h-2.015v-0.342
		c0-1.253,0.246-2.105,0.737-2.558c0.491-0.451,1.364-0.677,2.62-0.677c1.223,0,2.077,0.228,2.562,0.684
		C219.098,56.6,219.341,57.45,219.341,58.696z M217.311,61.662c-1.048,0.033-1.761,0.171-2.137,0.415
		c-0.377,0.244-0.565,0.683-0.565,1.318v2.015c0,0.749,0.099,1.257,0.295,1.526c0.196,0.268,0.546,0.402,1.048,0.402
		c0.491,0,0.844-0.145,1.057-0.434c0.213-0.288,0.319-0.787,0.319-1.495L217.311,61.662z"/>
	<path fill="#2B1C48" d="M229.938,50.309h3.045l3.488,18.005h-2.243l-0.835-5.005h-3.963l-0.901,5.005h-2.194L229.938,50.309z
		 M231.378,51.64l-1.752,10.352h3.488l-1.638-10.352H231.378z"/>
	<path fill="#2B1C48" d="M241.072,52.385v3.381h1.54v1.27h-1.54v9.326c0,0.35,0.091,0.592,0.271,0.727
		c0.181,0.134,0.505,0.201,0.975,0.201h0.295v1.307c-0.12,0.008-0.243,0.014-0.369,0.018c-0.125,0.004-0.303,0.006-0.532,0.006
		c-1.026,0-1.725-0.185-2.096-0.555s-0.557-1.194-0.557-2.473v-8.557h-1.098v-1.27h1.098v-2.771L241.072,52.385z"/>
	<path fill="#2B1C48" d="M251.406,59.037v3.723h-4.766v2.649c0,0.749,0.098,1.257,0.295,1.526c0.196,0.268,0.546,0.402,1.048,0.402
		c0.48,0,0.818-0.139,1.016-0.415c0.196-0.276,0.294-0.781,0.294-1.514v-1.392h2.113v1.025c0,1.384-0.252,2.325-0.754,2.826
		c-0.502,0.5-1.392,0.75-2.669,0.75c-1.267,0-2.153-0.254-2.661-0.763c-0.508-0.508-0.762-1.454-0.762-2.838v-5.981
		c0-1.392,0.248-2.335,0.745-2.832c0.497-0.496,1.39-0.745,2.678-0.745c1.267,0,2.153,0.254,2.661,0.763
		C251.152,56.732,251.406,57.67,251.406,59.037z M249.293,58.659c0-0.74-0.098-1.245-0.294-1.514
		c-0.197-0.269-0.535-0.403-1.016-0.403c-0.491,0-0.838,0.143-1.04,0.427c-0.202,0.285-0.303,0.781-0.303,1.489v2.832h2.652V58.659z
		"/>
	<path fill="#2B1C48" d="M261.265,58.342v9.973h-2.015v-9.656c0-0.716-0.106-1.214-0.319-1.496c-0.213-0.28-0.576-0.421-1.089-0.421
		c-0.502,0-0.862,0.145-1.081,0.434c-0.219,0.289-0.327,0.783-0.327,1.483v9.656h-2.015V55.766h1.884l0.131,0.769
		c0.272-0.35,0.619-0.617,1.04-0.799c0.42-0.184,0.903-0.275,1.449-0.275c0.852,0,1.454,0.213,1.81,0.641
		C261.087,56.529,261.265,57.276,261.265,58.342z"/>
	<path fill="#2B1C48" d="M270.55,59.037v0.806h-2.113v-1.184c0-0.822-0.073-1.347-0.221-1.575c-0.147-0.228-0.418-0.342-0.811-0.342
		s-0.666,0.128-0.818,0.385c-0.153,0.256-0.229,0.767-0.229,1.532v6.75c0,0.781,0.079,1.298,0.237,1.55
		c0.158,0.253,0.439,0.379,0.844,0.379c0.382,0,0.644-0.116,0.785-0.348c0.143-0.232,0.213-0.759,0.213-1.581v-1.343h2.113v0.977
		c0,1.384-0.232,2.325-0.696,2.826c-0.464,0.5-1.28,0.75-2.448,0.75c-1.157,0-1.968-0.256-2.432-0.769s-0.696-1.457-0.696-2.832
		v-5.981c0-1.392,0.229-2.335,0.688-2.832c0.459-0.496,1.272-0.745,2.44-0.745c1.157,0,1.971,0.254,2.44,0.763
		C270.314,56.732,270.55,57.67,270.55,59.037z"/>
	<path fill="#2B1C48" d="M273.104,50.309h2.243v1.904h-2.243V50.309z M273.202,55.766h2.015v12.549h-2.015V55.766z"/>
	<path fill="#2B1C48" d="M285.108,59.037v6.006c0,1.384-0.252,2.325-0.754,2.826c-0.502,0.5-1.392,0.75-2.669,0.75
		c-1.267,0-2.153-0.254-2.661-0.763c-0.508-0.508-0.762-1.454-0.762-2.838v-5.981c0-1.392,0.248-2.335,0.745-2.832
		c0.497-0.496,1.39-0.745,2.678-0.745c1.267,0,2.153,0.254,2.661,0.763C284.854,56.732,285.108,57.67,285.108,59.037z
		 M282.995,58.659c0-0.74-0.098-1.245-0.294-1.514c-0.197-0.269-0.535-0.403-1.016-0.403c-0.491,0-0.838,0.143-1.04,0.427
		c-0.202,0.285-0.303,0.781-0.303,1.489v6.75c0,0.749,0.098,1.257,0.295,1.526c0.196,0.268,0.546,0.402,1.048,0.402
		c0.48,0,0.818-0.139,1.016-0.415c0.196-0.276,0.294-0.781,0.294-1.514V58.659z M282.193,51.396h2.309l-2.146,2.722h-1.604
		L282.193,51.396z"/>
	<path fill="#2B1C48" d="M294.967,58.342v9.973h-2.015v-9.656c0-0.716-0.106-1.214-0.319-1.496c-0.213-0.28-0.576-0.421-1.089-0.421
		c-0.502,0-0.862,0.145-1.081,0.434c-0.219,0.289-0.327,0.783-0.327,1.483v9.656h-2.015V55.766h1.884l0.131,0.769
		c0.272-0.35,0.619-0.617,1.04-0.799c0.42-0.184,0.903-0.275,1.449-0.275c0.852,0,1.454,0.213,1.81,0.641
		C294.789,56.529,294.967,57.276,294.967,58.342z"/>
	<path fill="#2B1C48" d="M303.515,50.309h2.686c1.638,0,2.752,0.173,3.341,0.519c0.59,0.346,0.885,0.958,0.885,1.837v5.176
		c0,0.879-0.295,1.489-0.885,1.831c-0.589,0.342-1.703,0.513-3.341,0.513h-0.605v8.13h-2.08V50.309z M305.595,51.64v7.227h0.557
		c0.83,0,1.384-0.124,1.662-0.372c0.278-0.249,0.418-0.808,0.418-1.679v-3.125c0-0.871-0.14-1.43-0.418-1.679
		c-0.278-0.248-0.832-0.372-1.662-0.372H305.595z"/>
	<path fill="#2B1C48" d="M318.957,58.659v0.708h-2.015v-0.708c0-0.773-0.073-1.286-0.221-1.538
		c-0.147-0.252-0.418-0.378-0.811-0.378c-0.35,0-0.598,0.116-0.745,0.348c-0.147,0.232-0.222,0.625-0.222,1.178v0.5
		c0,0.269,0.068,0.533,0.205,0.793c0.137,0.261,0.357,0.537,0.663,0.83l2.44,2.417c0.272,0.277,0.482,0.562,0.63,0.855
		s0.222,0.569,0.222,0.83v1.195c0,1.083-0.237,1.842-0.713,2.277c-0.475,0.435-1.28,0.652-2.415,0.652
		c-1.179,0-1.998-0.228-2.456-0.684c-0.459-0.455-0.688-1.298-0.688-2.526v-1.074h1.998v1.074c0,0.798,0.079,1.318,0.237,1.562
		s0.439,0.366,0.844,0.366c0.415,0,0.709-0.122,0.884-0.366s0.263-0.671,0.263-1.282v-0.476c0-0.684-0.334-1.343-0.999-1.978
		c-0.022-0.024-0.039-0.041-0.05-0.049l-2.374-2.393c-0.251-0.252-0.432-0.502-0.54-0.751c-0.109-0.248-0.164-0.522-0.164-0.824
		v-0.903c0-1.033,0.231-1.768,0.696-2.204c0.464-0.435,1.236-0.653,2.316-0.653c1.125,0,1.908,0.228,2.351,0.684
		C318.735,56.6,318.957,57.438,318.957,58.659z"/>
	<path fill="#2B1C48" d="M321.61,50.309h2.243v1.904h-2.243V50.309z M321.708,55.766h2.015v12.549h-2.015V55.766z"/>
	<path fill="#2B1C48" d="M333.041,59.037v0.806h-2.113v-1.184c0-0.822-0.073-1.347-0.221-1.575
		c-0.147-0.228-0.418-0.342-0.811-0.342s-0.666,0.128-0.818,0.385c-0.153,0.256-0.229,0.767-0.229,1.532v6.75
		c0,0.781,0.079,1.298,0.237,1.55c0.158,0.253,0.439,0.379,0.844,0.379c0.382,0,0.644-0.116,0.785-0.348
		c0.143-0.232,0.213-0.759,0.213-1.581v-1.343h2.113v0.977c0,1.384-0.232,2.325-0.696,2.826c-0.464,0.5-1.28,0.75-2.448,0.75
		c-1.157,0-1.968-0.256-2.432-0.769s-0.696-1.457-0.696-2.832v-5.981c0-1.392,0.229-2.335,0.688-2.832
		c0.459-0.496,1.272-0.745,2.44-0.745c1.157,0,1.971,0.254,2.44,0.763C332.806,56.732,333.041,57.67,333.041,59.037z"/>
	<path fill="#2B1C48" d="M342.474,59.037v6.006c0,1.384-0.252,2.325-0.754,2.826c-0.502,0.5-1.392,0.75-2.669,0.75
		c-1.267,0-2.153-0.254-2.661-0.763c-0.508-0.508-0.762-1.454-0.762-2.838v-5.981c0-1.392,0.248-2.335,0.745-2.832
		c0.497-0.496,1.39-0.745,2.678-0.745c1.267,0,2.153,0.254,2.661,0.763C342.22,56.732,342.474,57.67,342.474,59.037z M340.36,58.659
		c0-0.74-0.098-1.245-0.294-1.514c-0.197-0.269-0.535-0.403-1.016-0.403c-0.491,0-0.838,0.143-1.04,0.427
		c-0.202,0.285-0.303,0.781-0.303,1.489v6.75c0,0.749,0.098,1.257,0.295,1.526c0.196,0.268,0.546,0.402,1.048,0.402
		c0.48,0,0.818-0.139,1.016-0.415c0.196-0.276,0.294-0.781,0.294-1.514V58.659z"/>
	<path fill="#2B1C48" d="M351.186,58.659v0.708h-2.015v-0.708c0-0.773-0.073-1.286-0.221-1.538
		c-0.147-0.252-0.418-0.378-0.811-0.378c-0.35,0-0.598,0.116-0.745,0.348c-0.147,0.232-0.222,0.625-0.222,1.178v0.5
		c0,0.269,0.068,0.533,0.205,0.793c0.137,0.261,0.357,0.537,0.663,0.83l2.44,2.417c0.272,0.277,0.482,0.562,0.63,0.855
		s0.222,0.569,0.222,0.83v1.195c0,1.083-0.237,1.842-0.713,2.277c-0.475,0.435-1.28,0.652-2.415,0.652
		c-1.179,0-1.998-0.228-2.456-0.684c-0.459-0.455-0.688-1.298-0.688-2.526v-1.074h1.998v1.074c0,0.798,0.079,1.318,0.237,1.562
		s0.439,0.366,0.844,0.366c0.415,0,0.709-0.122,0.884-0.366s0.263-0.671,0.263-1.282v-0.476c0-0.684-0.334-1.343-0.999-1.978
		c-0.022-0.024-0.039-0.041-0.05-0.049l-2.374-2.393c-0.251-0.252-0.432-0.502-0.54-0.751c-0.109-0.248-0.164-0.522-0.164-0.824
		v-0.903c0-1.033,0.231-1.768,0.696-2.204c0.464-0.435,1.236-0.653,2.316-0.653c1.125,0,1.908,0.228,2.351,0.684
		C350.964,56.6,351.186,57.438,351.186,58.659z"/>
	<path fill="#2B1C48" d="M360.717,59.037v6.006c0,1.384-0.252,2.325-0.754,2.826c-0.502,0.5-1.392,0.75-2.669,0.75
		c-1.267,0-2.153-0.254-2.661-0.763c-0.508-0.508-0.762-1.454-0.762-2.838v-5.981c0-1.392,0.248-2.335,0.745-2.832
		c0.497-0.496,1.39-0.745,2.678-0.745c1.267,0,2.153,0.254,2.661,0.763C360.463,56.732,360.717,57.67,360.717,59.037z
		 M358.604,58.659c0-0.74-0.098-1.245-0.294-1.514c-0.197-0.269-0.535-0.403-1.016-0.403c-0.491,0-0.838,0.143-1.04,0.427
		c-0.202,0.285-0.303,0.781-0.303,1.489v6.75c0,0.749,0.098,1.257,0.295,1.526c0.196,0.268,0.546,0.402,1.048,0.402
		c0.48,0,0.818-0.139,1.016-0.415c0.196-0.276,0.294-0.781,0.294-1.514V58.659z"/>
	<path fill="#2B1C48" d="M369.937,59.037v0.806h-2.113v-1.184c0-0.822-0.073-1.347-0.221-1.575
		c-0.147-0.228-0.418-0.342-0.811-0.342s-0.666,0.128-0.818,0.385c-0.153,0.256-0.229,0.767-0.229,1.532v6.75
		c0,0.781,0.079,1.298,0.237,1.55c0.158,0.253,0.439,0.379,0.844,0.379c0.382,0,0.644-0.116,0.785-0.348
		c0.143-0.232,0.213-0.759,0.213-1.581v-1.343h2.113v0.977c0,1.384-0.232,2.325-0.696,2.826c-0.464,0.5-1.28,0.75-2.448,0.75
		c-1.157,0-1.968-0.256-2.432-0.769s-0.696-1.457-0.696-2.832v-5.981c0-1.392,0.229-2.335,0.688-2.832
		c0.459-0.496,1.272-0.745,2.44-0.745c1.157,0,1.971,0.254,2.44,0.763C369.701,56.732,369.937,57.67,369.937,59.037z"/>
	<path fill="#2B1C48" d="M372.491,50.309h2.243v1.904h-2.243V50.309z M372.589,55.766h2.015v12.549h-2.015V55.766z"/>
	<path fill="#2B1C48" d="M384.298,58.696v9.619h-1.883l-0.131-0.77c-0.273,0.351-0.62,0.617-1.04,0.8
		c-0.421,0.184-0.903,0.274-1.449,0.274c-0.852,0-1.455-0.213-1.81-0.641c-0.354-0.427-0.532-1.174-0.532-2.24v-2.502
		c0-0.984,0.357-1.685,1.072-2.1s1.968-0.647,3.759-0.696v-1.782c0-0.757-0.096-1.265-0.287-1.526
		c-0.19-0.26-0.532-0.391-1.023-0.391c-0.47,0-0.805,0.12-1.007,0.36c-0.202,0.24-0.303,0.653-0.303,1.239v0.696h-2.015v-0.342
		c0-1.253,0.246-2.105,0.737-2.558c0.491-0.451,1.364-0.677,2.62-0.677c1.223,0,2.077,0.228,2.562,0.684
		C384.055,56.6,384.298,57.45,384.298,58.696z M382.268,61.662c-1.048,0.033-1.761,0.171-2.137,0.415
		c-0.377,0.244-0.565,0.683-0.565,1.318v2.015c0,0.749,0.099,1.257,0.295,1.526c0.196,0.268,0.546,0.402,1.048,0.402
		c0.491,0,0.844-0.145,1.057-0.434c0.213-0.288,0.319-0.787,0.319-1.495L382.268,61.662z"/>
	<path fill="#2B1C48" d="M387.377,50.309h2.015v18.005h-2.015V50.309z"/>
	<path fill="#2B1C48" d="M404.212,58.696v9.619h-1.883l-0.131-0.77c-0.273,0.351-0.62,0.617-1.04,0.8
		c-0.421,0.184-0.903,0.274-1.449,0.274c-0.852,0-1.455-0.213-1.81-0.641c-0.354-0.427-0.532-1.174-0.532-2.24v-2.502
		c0-0.984,0.357-1.685,1.072-2.1s1.968-0.647,3.759-0.696v-1.782c0-0.757-0.096-1.265-0.287-1.526
		c-0.19-0.26-0.532-0.391-1.023-0.391c-0.47,0-0.805,0.12-1.007,0.36c-0.202,0.24-0.303,0.653-0.303,1.239v0.696h-2.015v-0.342
		c0-1.253,0.246-2.105,0.737-2.558c0.491-0.451,1.364-0.677,2.62-0.677c1.223,0,2.077,0.228,2.562,0.684
		C403.969,56.6,404.212,57.45,404.212,58.696z M402.182,61.662c-1.048,0.033-1.761,0.171-2.137,0.415
		c-0.377,0.244-0.565,0.683-0.565,1.318v2.015c0,0.749,0.099,1.257,0.295,1.526c0.196,0.268,0.546,0.402,1.048,0.402
		c0.491,0,0.844-0.145,1.057-0.434c0.213-0.288,0.319-0.787,0.319-1.495L402.182,61.662z"/>
	<path fill="#2B1C48" d="M86.731,76.599h2.112l2.244,16.211h0.229l2.113-16.211h1.981l-2.62,18.006h-3.243L86.731,76.599z"/>
	<path fill="#2B1C48" d="M97.458,82.056h2.014v12.549h-2.014V82.056z M99.013,77.686h2.309l-2.145,2.722h-1.605L99.013,77.686z"/>
	<path fill="#2B1C48" d="M108.789,85.327v0.806h-2.112v-1.185c0-0.821-0.074-1.347-0.221-1.574s-0.417-0.342-0.811-0.342
		s-0.666,0.128-0.819,0.385c-0.153,0.256-0.229,0.767-0.229,1.531v6.751c0,0.781,0.079,1.298,0.237,1.55
		c0.158,0.253,0.439,0.379,0.843,0.379c0.382,0,0.644-0.116,0.786-0.348c0.142-0.232,0.213-0.759,0.213-1.581v-1.343h2.112v0.977
		c0,1.384-0.232,2.325-0.696,2.826c-0.464,0.5-1.28,0.75-2.448,0.75c-1.157,0-1.968-0.256-2.432-0.769
		c-0.464-0.513-0.696-1.457-0.696-2.832v-5.981c0-1.392,0.229-2.336,0.688-2.832s1.271-0.744,2.44-0.744
		c1.157,0,1.971,0.254,2.44,0.763S108.789,83.96,108.789,85.327z"/>
	<path fill="#2B1C48" d="M113.555,78.675v3.381h1.539v1.27h-1.539v9.326c0,0.35,0.09,0.592,0.27,0.727
		c0.18,0.134,0.505,0.201,0.975,0.201h0.294v1.307c-0.12,0.008-0.243,0.014-0.368,0.018c-0.126,0.004-0.303,0.006-0.532,0.006
		c-1.026,0-1.725-0.185-2.096-0.555s-0.557-1.194-0.557-2.473v-8.557h-1.097v-1.27h1.097v-2.771L113.555,78.675z"/>
	<path fill="#2B1C48" d="M117.01,76.599h2.244v1.904h-2.244V76.599z M117.108,82.056h2.014v12.549h-2.014V82.056z"/>
	<path fill="#2B1C48" d="M128.407,82.91c0.404-0.423,0.792-0.722,1.163-0.897c0.371-0.175,0.803-0.262,1.294-0.262
		c0.753,0,1.293,0.215,1.621,0.646s0.491,1.176,0.491,2.234v9.973h-2.014v-9.656c0-0.716-0.087-1.214-0.262-1.495
		c-0.174-0.28-0.469-0.421-0.884-0.421c-0.426,0-0.734,0.15-0.925,0.451c-0.191,0.302-0.287,0.79-0.287,1.465v9.656h-2.014v-9.656
		c0-0.716-0.085-1.214-0.254-1.495c-0.169-0.28-0.461-0.421-0.876-0.421c-0.426,0-0.734,0.15-0.925,0.451
		c-0.191,0.302-0.287,0.79-0.287,1.465v9.656h-2.014V82.056h1.883l0.131,0.77c0.272-0.358,0.598-0.627,0.974-0.807
		c0.376-0.179,0.8-0.268,1.269-0.268c0.502,0,0.917,0.1,1.245,0.299S128.287,82.536,128.407,82.91z"/>
	<path fill="#2B1C48" d="M142.638,84.986v9.619h-1.883l-0.131-0.77c-0.273,0.351-0.62,0.617-1.04,0.8
		c-0.42,0.184-0.903,0.274-1.449,0.274c-0.852,0-1.455-0.213-1.81-0.641c-0.355-0.427-0.532-1.174-0.532-2.24v-2.502
		c0-0.984,0.357-1.685,1.073-2.1c0.715-0.415,1.967-0.646,3.758-0.695v-1.783c0-0.756-0.095-1.265-0.286-1.525
		c-0.191-0.261-0.532-0.391-1.024-0.391c-0.469,0-0.805,0.12-1.007,0.36c-0.202,0.24-0.303,0.653-0.303,1.239v0.695h-2.014v-0.342
		c0-1.253,0.246-2.105,0.737-2.558c0.491-0.451,1.364-0.677,2.62-0.677c1.222,0,2.077,0.228,2.562,0.684
		C142.395,82.89,142.638,83.74,142.638,84.986z M140.607,87.952c-1.048,0.032-1.76,0.17-2.137,0.414
		c-0.376,0.244-0.565,0.684-0.565,1.318v2.015c0,0.749,0.098,1.257,0.295,1.526c0.196,0.268,0.546,0.402,1.048,0.402
		c0.491,0,0.844-0.145,1.057-0.434c0.212-0.288,0.319-0.787,0.319-1.495L140.607,87.952z"/>
	<path fill="#2B1C48" d="M151.416,84.948v0.709h-2.015v-0.709c0-0.772-0.073-1.285-0.221-1.537
		c-0.147-0.253-0.417-0.379-0.811-0.379c-0.35,0-0.598,0.116-0.745,0.348c-0.147,0.232-0.221,0.625-0.221,1.178v0.501
		c0,0.269,0.068,0.533,0.205,0.794c0.136,0.26,0.357,0.537,0.663,0.83l2.44,2.416c0.273,0.277,0.483,0.562,0.631,0.855
		c0.147,0.293,0.221,0.569,0.221,0.83v1.195c0,1.083-0.237,1.842-0.712,2.277c-0.475,0.435-1.28,0.652-2.416,0.652
		c-1.179,0-1.998-0.228-2.457-0.684c-0.458-0.455-0.688-1.298-0.688-2.526v-1.074h1.998v1.074c0,0.798,0.079,1.318,0.237,1.562
		s0.439,0.366,0.844,0.366c0.415,0,0.709-0.122,0.884-0.366c0.174-0.244,0.262-0.671,0.262-1.282v-0.476
		c0-0.684-0.333-1.343-0.999-1.978c-0.022-0.024-0.038-0.041-0.049-0.049l-2.375-2.393c-0.251-0.252-0.432-0.502-0.541-0.751
		c-0.109-0.248-0.164-0.522-0.164-0.823v-0.904c0-1.033,0.232-1.768,0.696-2.203c0.464-0.435,1.236-0.652,2.317-0.652
		c1.124,0,1.908,0.228,2.35,0.684C151.194,82.89,151.416,83.728,151.416,84.948z"/>
	<path fill="#2B1C48" d="M164.024,76.599h2.047v18.006h-1.883l-0.164-0.77c-0.273,0.358-0.614,0.627-1.023,0.807
		c-0.41,0.179-0.887,0.268-1.433,0.268c-0.841,0-1.441-0.213-1.801-0.641c-0.36-0.427-0.541-1.174-0.541-2.24v-7.396
		c0-1.066,0.18-1.813,0.541-2.24c0.36-0.428,0.96-0.641,1.801-0.641c0.546,0,1.026,0.091,1.441,0.274
		c0.415,0.183,0.753,0.449,1.015,0.8V76.599z M164.024,84.948c0-0.707-0.101-1.204-0.303-1.488c-0.202-0.285-0.548-0.428-1.04-0.428
		c-0.502,0-0.857,0.139-1.064,0.415c-0.208,0.276-0.311,0.777-0.311,1.501v6.751c0,0.732,0.104,1.237,0.311,1.514
		c0.207,0.276,0.562,0.415,1.064,0.415c0.491,0,0.837-0.143,1.04-0.428c0.202-0.284,0.303-0.785,0.303-1.501V84.948z"/>
	<path fill="#2B1C48" d="M175.93,85.327v3.723h-4.765v2.649c0,0.749,0.098,1.257,0.294,1.526c0.197,0.268,0.546,0.402,1.048,0.402
		c0.48,0,0.819-0.139,1.015-0.415s0.295-0.781,0.295-1.514v-1.392h2.112v1.025c0,1.384-0.251,2.325-0.753,2.826
		c-0.502,0.5-1.392,0.75-2.669,0.75c-1.267,0-2.153-0.254-2.661-0.763c-0.508-0.508-0.762-1.454-0.762-2.838v-5.981
		c0-1.392,0.249-2.336,0.745-2.832s1.389-0.744,2.678-0.744c1.266,0,2.153,0.254,2.661,0.763
		C175.676,83.023,175.93,83.96,175.93,85.327z M173.817,84.948c0-0.74-0.099-1.244-0.295-1.514
		c-0.196-0.268-0.535-0.402-1.015-0.402c-0.491,0-0.838,0.143-1.04,0.428c-0.202,0.284-0.303,0.781-0.303,1.488v2.832h2.653V84.948z
		"/>
	<path fill="#2B1C48" d="M178.943,76.599h2.014v18.006h-2.014V76.599z"/>
	<path fill="#2B1C48" d="M196.448,79.456v1.721h-2.194v-1.672c0-0.7-0.101-1.185-0.303-1.453s-0.56-0.402-1.073-0.402
		c-0.469,0-0.797,0.152-0.982,0.457c-0.186,0.306-0.278,0.946-0.278,1.923v11.146c0,1,0.098,1.651,0.295,1.953
		c0.196,0.301,0.557,0.451,1.081,0.451c0.448,0,0.77-0.143,0.966-0.428c0.196-0.284,0.295-0.769,0.295-1.452v-1.94h2.194v2.002
		c0,1.229-0.257,2.061-0.77,2.496c-0.513,0.435-1.43,0.652-2.751,0.652c-1.299,0-2.205-0.28-2.718-0.842s-0.77-1.607-0.77-3.137
		V80.274c0-1.521,0.256-2.56,0.77-3.112c0.513-0.554,1.419-0.83,2.718-0.83c1.332,0,2.251,0.215,2.759,0.646
		S196.448,78.236,196.448,79.456z"/>
	<path fill="#2B1C48" d="M205.602,85.327v6.006c0,1.384-0.251,2.325-0.753,2.826c-0.502,0.5-1.392,0.75-2.669,0.75
		c-1.267,0-2.153-0.254-2.661-0.763c-0.508-0.508-0.762-1.454-0.762-2.838v-5.981c0-1.392,0.249-2.336,0.745-2.832
		s1.389-0.744,2.678-0.744c1.266,0,2.153,0.254,2.661,0.763C205.348,83.023,205.602,83.96,205.602,85.327z M203.49,84.948
		c0-0.74-0.099-1.244-0.295-1.514c-0.196-0.268-0.535-0.402-1.015-0.402c-0.491,0-0.838,0.143-1.04,0.428
		c-0.202,0.284-0.303,0.781-0.303,1.488v6.751c0,0.749,0.098,1.257,0.294,1.526c0.197,0.268,0.546,0.402,1.048,0.402
		c0.48,0,0.819-0.139,1.015-0.415s0.295-0.781,0.295-1.514V84.948z"/>
	<path fill="#2B1C48" d="M215.461,84.632v9.973h-2.016v-9.656c0-0.716-0.105-1.214-0.318-1.495c-0.213-0.28-0.576-0.421-1.09-0.421
		c-0.502,0-0.861,0.145-1.08,0.434s-0.328,0.783-0.328,1.482v9.656h-2.014V82.056h1.883l0.131,0.77
		c0.273-0.351,0.619-0.617,1.041-0.8c0.42-0.184,0.902-0.274,1.449-0.274c0.852,0,1.453,0.213,1.809,0.641
		C215.283,82.819,215.461,83.566,215.461,84.632z"/>
	<path fill="#2B1C48" d="M222.223,76.331v1.293h-0.295c-0.469,0-0.794,0.067-0.974,0.202c-0.181,0.134-0.271,0.376-0.271,0.726
		v3.504h1.539v1.245h-1.539v11.304h-2.015V83.301h-1.097v-1.245h1.097v-2.723c0-1.285,0.186-2.111,0.558-2.478
		c0.37-0.366,1.069-0.55,2.096-0.55c0.229,0,0.409,0.003,0.54,0.007S222.113,76.323,222.223,76.331z"/>
	<path fill="#2B1C48" d="M223.942,76.599h2.015v18.006h-2.015V76.599z"/>
	<path fill="#2B1C48" d="M228.971,76.599h2.243v1.904h-2.243V76.599z M229.068,82.056h2.015v12.549h-2.015V82.056z"/>
	<path fill="#2B1C48" d="M240.401,85.327v0.806h-2.113v-1.185c0-0.821-0.073-1.347-0.221-1.574s-0.418-0.342-0.811-0.342
		s-0.666,0.128-0.818,0.385c-0.153,0.256-0.229,0.767-0.229,1.531v6.751c0,0.781,0.079,1.298,0.237,1.55
		c0.158,0.253,0.439,0.379,0.844,0.379c0.382,0,0.644-0.116,0.785-0.348c0.143-0.232,0.213-0.759,0.213-1.581v-1.343h2.113v0.977
		c0,1.384-0.232,2.325-0.696,2.826c-0.464,0.5-1.28,0.75-2.448,0.75c-1.157,0-1.968-0.256-2.432-0.769s-0.696-1.457-0.696-2.832
		v-5.981c0-1.392,0.229-2.336,0.688-2.832c0.459-0.496,1.272-0.744,2.44-0.744c1.157,0,1.971,0.254,2.44,0.763
		C240.166,83.023,240.401,83.96,240.401,85.327z"/>
	<path fill="#2B1C48" d="M245.166,78.675v3.381h1.54v1.27h-1.54v9.326c0,0.35,0.091,0.592,0.271,0.727
		c0.181,0.134,0.505,0.201,0.975,0.201h0.295v1.307c-0.12,0.008-0.243,0.014-0.369,0.018c-0.125,0.004-0.303,0.006-0.532,0.006
		c-1.026,0-1.725-0.185-2.096-0.555s-0.557-1.194-0.557-2.473v-8.557h-1.098v-1.27h1.098v-2.771L245.166,78.675z"/>
	<path fill="#2B1C48" d="M255.5,85.327v6.006c0,1.384-0.252,2.325-0.754,2.826c-0.502,0.5-1.392,0.75-2.669,0.75
		c-1.267,0-2.153-0.254-2.661-0.763c-0.508-0.508-0.762-1.454-0.762-2.838v-5.981c0-1.392,0.248-2.336,0.745-2.832
		s1.39-0.744,2.678-0.744c1.267,0,2.153,0.254,2.661,0.763S255.5,83.96,255.5,85.327z M253.387,84.948
		c0-0.74-0.098-1.244-0.294-1.514c-0.197-0.268-0.535-0.402-1.016-0.402c-0.491,0-0.838,0.143-1.04,0.428
		c-0.202,0.284-0.303,0.781-0.303,1.488v6.751c0,0.749,0.098,1.257,0.295,1.526c0.196,0.268,0.546,0.402,1.048,0.402
		c0.48,0,0.818-0.139,1.016-0.415c0.196-0.276,0.294-0.781,0.294-1.514V84.948z"/>
	<path fill="#2B1C48" d="M266.03,76.599h3.045l3.488,18.006h-2.243l-0.835-5.005h-3.963l-0.901,5.005h-2.194L266.03,76.599z
		 M267.471,77.93l-1.752,10.352h3.488l-1.638-10.352H267.471z"/>
	<path fill="#2B1C48" d="M279.163,81.775v1.526h-0.344c-0.862,0-1.474,0.161-1.834,0.482s-0.54,0.877-0.54,1.666v9.155h-2.015
		V82.056h1.884l0.131,0.77c0.283-0.342,0.63-0.606,1.04-0.794c0.409-0.188,0.854-0.28,1.334-0.28c0.033,0,0.088,0.004,0.164,0.012
		S279.12,81.775,279.163,81.775z"/>
	<path fill="#2B1C48" d="M286.778,82.91c0.404-0.423,0.791-0.722,1.163-0.897c0.371-0.175,0.802-0.262,1.293-0.262
		c0.754,0,1.294,0.215,1.622,0.646c0.327,0.432,0.491,1.176,0.491,2.234v9.973h-2.015v-9.656c0-0.716-0.088-1.214-0.262-1.495
		c-0.175-0.28-0.47-0.421-0.885-0.421c-0.426,0-0.734,0.15-0.925,0.451c-0.191,0.302-0.287,0.79-0.287,1.465v9.656h-2.014v-9.656
		c0-0.716-0.085-1.214-0.254-1.495c-0.17-0.28-0.462-0.421-0.876-0.421c-0.426,0-0.734,0.15-0.926,0.451
		c-0.19,0.302-0.286,0.79-0.286,1.465v9.656h-2.015V82.056h1.884l0.131,0.77c0.272-0.358,0.598-0.627,0.975-0.807
		c0.376-0.179,0.799-0.268,1.269-0.268c0.502,0,0.917,0.1,1.245,0.299C286.435,82.249,286.658,82.536,286.778,82.91z"/>
	<path fill="#2B1C48" d="M301.009,84.986v9.619h-1.883l-0.131-0.77c-0.273,0.351-0.62,0.617-1.04,0.8
		c-0.421,0.184-0.903,0.274-1.449,0.274c-0.852,0-1.455-0.213-1.81-0.641c-0.354-0.427-0.532-1.174-0.532-2.24v-2.502
		c0-0.984,0.357-1.685,1.072-2.1s1.968-0.646,3.759-0.695v-1.783c0-0.756-0.096-1.265-0.287-1.525
		c-0.19-0.261-0.532-0.391-1.023-0.391c-0.47,0-0.805,0.12-1.007,0.36s-0.303,0.653-0.303,1.239v0.695h-2.015v-0.342
		c0-1.253,0.246-2.105,0.737-2.558c0.491-0.451,1.364-0.677,2.62-0.677c1.223,0,2.077,0.228,2.562,0.684
		C300.766,82.89,301.009,83.74,301.009,84.986z M298.979,87.952c-1.048,0.032-1.761,0.17-2.137,0.414
		c-0.377,0.244-0.565,0.684-0.565,1.318v2.015c0,0.749,0.099,1.257,0.295,1.526c0.196,0.268,0.546,0.402,1.048,0.402
		c0.491,0,0.844-0.145,1.057-0.434c0.213-0.288,0.319-0.787,0.319-1.495L298.979,87.952z"/>
	<path fill="#2B1C48" d="M308.82,76.599h2.048v18.006h-1.884l-0.164-0.77c-0.272,0.358-0.613,0.627-1.023,0.807
		c-0.409,0.179-0.887,0.268-1.433,0.268c-0.841,0-1.441-0.213-1.801-0.641c-0.36-0.427-0.541-1.174-0.541-2.24v-7.396
		c0-1.066,0.181-1.813,0.541-2.24c0.359-0.428,0.96-0.641,1.801-0.641c0.546,0,1.026,0.091,1.441,0.274
		c0.414,0.183,0.753,0.449,1.015,0.8V76.599z M308.82,84.948c0-0.707-0.101-1.204-0.303-1.488c-0.202-0.285-0.549-0.428-1.04-0.428
		c-0.502,0-0.856,0.139-1.064,0.415c-0.207,0.276-0.311,0.777-0.311,1.501v6.751c0,0.732,0.104,1.237,0.311,1.514
		c0.208,0.276,0.562,0.415,1.064,0.415c0.491,0,0.838-0.143,1.04-0.428c0.202-0.284,0.303-0.785,0.303-1.501V84.948z"/>
	<path fill="#2B1C48" d="M320.727,85.327v6.006c0,1.384-0.252,2.325-0.754,2.826c-0.502,0.5-1.392,0.75-2.669,0.75
		c-1.267,0-2.153-0.254-2.661-0.763c-0.508-0.508-0.762-1.454-0.762-2.838v-5.981c0-1.392,0.248-2.336,0.745-2.832
		s1.39-0.744,2.678-0.744c1.267,0,2.153,0.254,2.661,0.763S320.727,83.96,320.727,85.327z M318.613,84.948
		c0-0.74-0.098-1.244-0.294-1.514c-0.197-0.268-0.535-0.402-1.016-0.402c-0.491,0-0.838,0.143-1.04,0.428
		c-0.202,0.284-0.303,0.781-0.303,1.488v6.751c0,0.749,0.098,1.257,0.295,1.526c0.196,0.268,0.546,0.402,1.048,0.402
		c0.48,0,0.818-0.139,1.016-0.415c0.196-0.276,0.294-0.781,0.294-1.514V84.948z"/>
	<path fill="#2B1C48" d="M323.608,92.627h2.31v1.978h-2.31V92.627z"/>
</g>
</svg>
