<?xml version="1.0" encoding="utf-8"?>
<!-- Generator: Adobe Illustrator 16.0.0, SVG Export Plug-In . SVG Version: 6.00 Build 0)  -->
<!DOCTYPE svg PUBLIC "-//W3C//DTD SVG 1.1//EN" "http://www.w3.org/Graphics/SVG/1.1/DTD/svg11.dtd">
<svg version="1.1" id="Capa_1" xmlns="http://www.w3.org/2000/svg" xmlns:xlink="http://www.w3.org/1999/xlink" x="0px" y="0px"
	 width="416.215px" height="240.023px" viewBox="0 0 416.215 240.023" enable-background="new 0 0 416.215 240.023"
	 xml:space="preserve">
<g>
	<g>
		<g>
			<path fill="#3AAA35" d="M7.389,6.569h5.727l6.558,33.851h-4.219l-1.569-9.409h-7.45L4.743,40.42H0.616L7.389,6.569z
				 M10.099,9.071L6.804,28.532h6.558L10.282,9.07L10.099,9.071L10.099,9.071z"/>
			<path fill="#3AAA35" d="M36.021,22.978v1.516h-3.973v-2.227c0-1.545-0.138-2.532-0.415-2.96
				c-0.276-0.431-0.785-0.646-1.524-0.646c-0.738,0-1.252,0.241-1.539,0.726c-0.287,0.479-0.431,1.439-0.431,2.88v12.688
				c0,1.469,0.148,2.439,0.446,2.915c0.297,0.478,0.826,0.711,1.586,0.711c0.718,0,1.211-0.218,1.478-0.651
				c0.267-0.438,0.399-1.429,0.399-2.975v-2.521h3.973v1.836c0,2.602-0.438,4.372-1.309,5.312c-0.873,0.94-2.407,1.412-4.604,1.412
				c-2.176,0-3.699-0.479-4.571-1.446c-0.872-0.964-1.308-2.735-1.308-5.321V22.978c0-2.616,0.43-4.394,1.293-5.324
				c0.861-0.933,2.391-1.399,4.586-1.399c2.176,0,3.705,0.479,4.588,1.437C35.579,18.645,36.021,20.408,36.021,22.978z"/>
			<path fill="#3AAA35" d="M44.979,10.471v6.354h2.894v2.387h-2.894v17.533c0,0.658,0.169,1.112,0.509,1.364
				c0.338,0.254,0.948,0.38,1.831,0.38h0.554v2.456c-0.226,0.015-0.457,0.025-0.692,0.034c-0.235,0.008-0.569,0.012-1.001,0.012
				c-1.929,0-3.242-0.349-3.939-1.044c-0.699-0.696-1.047-2.245-1.047-4.647V19.214H39.13v-2.387h2.062v-5.209L44.979,10.471z"/>
			<path fill="#3AAA35" d="M51.475,6.569h4.218v3.58h-4.218V6.569z M51.659,16.828h3.787V40.42h-3.787V16.828z"/>
			<path fill="#3AAA35" d="M59.233,16.828h3.693l2.648,21.158h0.338l2.833-21.158h3.479l-3.85,23.592h-5.232L59.233,16.828z"/>
			<path fill="#3AAA35" d="M75.857,6.569h4.218v3.58h-4.218V6.569z M76.042,16.828h3.787V40.42h-3.787V16.828z"/>
			<path fill="#3AAA35" d="M94.575,6.569h3.85V40.42h-3.541l-0.309-1.443c-0.513,0.673-1.154,1.178-1.924,1.515
				c-0.77,0.338-1.668,0.506-2.693,0.506c-1.58,0-2.709-0.402-3.387-1.205c-0.678-0.805-1.016-2.207-1.016-4.211V21.67
				c0-2.004,0.338-3.405,1.016-4.211c0.678-0.803,1.807-1.205,3.387-1.205c1.025,0,1.929,0.172,2.709,0.519
				c0.779,0.346,1.416,0.847,1.908,1.503V6.569L94.575,6.569z M94.575,22.267c0-1.331-0.189-2.267-0.568-2.803
				c-0.381-0.532-1.031-0.803-1.955-0.803c-0.945,0-1.611,0.26-2.002,0.779c-0.39,0.521-0.584,1.462-0.584,2.823v12.688
				c0,1.377,0.194,2.326,0.584,2.846c0.391,0.521,1.057,0.78,2.002,0.78c0.924,0,1.574-0.269,1.955-0.803
				c0.379-0.535,0.568-1.479,0.568-2.823V22.267z"/>
			<path fill="#3AAA35" d="M116.588,22.335v18.084h-3.54l-0.246-1.443c-0.514,0.655-1.166,1.156-1.955,1.503
				c-0.791,0.344-1.699,0.517-2.725,0.517c-1.602,0-2.735-0.402-3.402-1.205c-0.667-0.805-1-2.207-1-4.211v-4.705
				c0-1.852,0.672-3.167,2.016-3.947c1.344-0.777,3.699-1.216,7.066-1.308v-3.352c0-1.426-0.181-2.382-0.539-2.869
				c-0.359-0.488-1.001-0.733-1.924-0.733c-0.883,0-1.515,0.229-1.895,0.677c-0.379,0.452-0.568,1.229-0.568,2.33v1.311h-3.787
				v-0.646c0-2.354,0.461-3.959,1.385-4.809c0.924-0.853,2.566-1.273,4.926-1.273c2.299,0,3.904,0.432,4.818,1.285
				C116.131,18.396,116.588,19.995,116.588,22.335z M112.771,27.912c-1.971,0.062-3.31,0.32-4.018,0.779s-1.062,1.285-1.062,2.479
				v3.787c0,1.408,0.186,2.364,0.555,2.869s1.025,0.757,1.971,0.757c0.923,0,1.585-0.271,1.984-0.812
				c0.4-0.543,0.602-1.479,0.602-2.812L112.771,27.912z"/>
			<path fill="#3AAA35" d="M131.272,6.569h3.85V40.42h-3.541l-0.309-1.443c-0.513,0.673-1.154,1.178-1.924,1.515
				c-0.77,0.338-1.668,0.506-2.693,0.506c-1.58,0-2.709-0.402-3.387-1.205c-0.678-0.805-1.016-2.207-1.016-4.211V21.67
				c0-2.004,0.338-3.405,1.016-4.211c0.678-0.803,1.807-1.205,3.387-1.205c1.025,0,1.929,0.172,2.709,0.519
				c0.779,0.346,1.416,0.847,1.908,1.503V6.569L131.272,6.569z M131.272,22.267c0-1.331-0.189-2.267-0.568-2.803
				c-0.381-0.532-1.031-0.803-1.955-0.803c-0.945,0-1.611,0.26-2.002,0.779c-0.39,0.521-0.584,1.462-0.584,2.823v12.688
				c0,1.377,0.194,2.326,0.584,2.846c0.391,0.521,1.057,0.78,2.002,0.78c0.924,0,1.574-0.269,1.955-0.803
				c0.379-0.535,0.568-1.479,0.568-2.823V22.267z"/>
			<path fill="#3AAA35" d="M165.046,7.671h3.848V40.42h-3.848V11.274c-0.738,0.49-1.479,0.9-2.217,1.239
				c-0.738,0.337-1.498,0.609-2.278,0.823v-3.188c0.882-0.32,1.698-0.688,2.448-1.104C163.747,8.635,164.431,8.176,165.046,7.671z"
				/>
		</g>
	</g>
</g>
<g>
	<path fill="#2B1C48" d="M14.096,55.006h2.849L20.4,71.937h0.033l-0.311-16.931h1.883v18.005h-2.882L15.7,56.312h-0.065
		l0.295,16.699h-1.834V55.006z"/>
	<path fill="#2B1C48" d="M32.174,63.734v6.006c0,1.384-0.251,2.325-0.753,2.826c-0.502,0.5-1.392,0.75-2.669,0.75
		c-1.267,0-2.153-0.254-2.661-0.763c-0.508-0.508-0.762-1.454-0.762-2.838v-5.981c0-1.392,0.249-2.335,0.745-2.832
		c0.497-0.496,1.389-0.745,2.678-0.745c1.266,0,2.153,0.254,2.661,0.763C31.92,61.429,32.174,62.367,32.174,63.734z M30.062,63.356
		c0-0.74-0.099-1.245-0.295-1.514s-0.535-0.403-1.015-0.403c-0.491,0-0.838,0.143-1.04,0.427c-0.202,0.285-0.303,0.781-0.303,1.489
		v6.75c0,0.749,0.098,1.257,0.294,1.526c0.197,0.268,0.546,0.402,1.048,0.402c0.48,0,0.819-0.139,1.015-0.415
		s0.295-0.781,0.295-1.514V63.356z"/>
	<path fill="#2B1C48" d="M41.394,63.734v0.806h-2.112v-1.184c0-0.822-0.074-1.347-0.221-1.575c-0.147-0.228-0.417-0.342-0.811-0.342
		s-0.666,0.128-0.819,0.385c-0.153,0.256-0.229,0.767-0.229,1.532v6.75c0,0.781,0.079,1.298,0.237,1.55
		c0.158,0.253,0.439,0.379,0.843,0.379c0.382,0,0.644-0.116,0.786-0.348c0.142-0.232,0.213-0.759,0.213-1.581v-1.343h2.112v0.977
		c0,1.384-0.232,2.325-0.696,2.826c-0.464,0.5-1.28,0.75-2.448,0.75c-1.157,0-1.968-0.256-2.432-0.769
		c-0.464-0.513-0.696-1.457-0.696-2.832v-5.981c0-1.392,0.229-2.335,0.688-2.832c0.458-0.496,1.271-0.745,2.44-0.745
		c1.157,0,1.971,0.254,2.44,0.763C41.159,61.429,41.394,62.367,41.394,63.734z"/>
	<path fill="#2B1C48" d="M43.948,55.006h2.244v1.904h-2.244V55.006z M44.047,60.463h2.014v12.549h-2.014V60.463z"/>
	<path fill="#2B1C48" d="M55.952,63.734v6.006c0,1.384-0.251,2.325-0.753,2.826c-0.502,0.5-1.392,0.75-2.669,0.75
		c-1.267,0-2.153-0.254-2.661-0.763c-0.508-0.508-0.762-1.454-0.762-2.838v-5.981c0-1.392,0.249-2.335,0.745-2.832
		c0.497-0.496,1.389-0.745,2.678-0.745c1.266,0,2.153,0.254,2.661,0.763C55.698,61.429,55.952,62.367,55.952,63.734z M53.839,63.356
		c0-0.74-0.099-1.245-0.295-1.514s-0.535-0.403-1.015-0.403c-0.491,0-0.838,0.143-1.04,0.427c-0.202,0.285-0.303,0.781-0.303,1.489
		v6.75c0,0.749,0.098,1.257,0.294,1.526c0.197,0.268,0.546,0.402,1.048,0.402c0.48,0,0.819-0.139,1.015-0.415
		s0.295-0.781,0.295-1.514V63.356z"/>
	<path fill="#2B1C48" d="M65.81,63.038v9.973h-2.014v-9.656c0-0.716-0.106-1.214-0.319-1.496c-0.213-0.28-0.576-0.421-1.089-0.421
		c-0.502,0-0.863,0.145-1.081,0.434c-0.218,0.289-0.327,0.783-0.327,1.483v9.656h-2.014V60.463h1.883l0.131,0.769
		c0.272-0.35,0.619-0.617,1.04-0.799c0.42-0.184,0.903-0.275,1.449-0.275c0.852,0,1.455,0.213,1.81,0.641
		C65.632,61.225,65.81,61.972,65.81,63.038z"/>
	<path fill="#2B1C48" d="M75.668,63.734v3.723h-4.765v2.649c0,0.749,0.098,1.257,0.294,1.526c0.197,0.268,0.546,0.402,1.048,0.402
		c0.48,0,0.819-0.139,1.015-0.415s0.295-0.781,0.295-1.514v-1.392h2.112v1.025c0,1.384-0.251,2.325-0.753,2.826
		c-0.502,0.5-1.392,0.75-2.669,0.75c-1.267,0-2.153-0.254-2.661-0.763c-0.508-0.508-0.762-1.454-0.762-2.838v-5.981
		c0-1.392,0.249-2.335,0.745-2.832c0.497-0.496,1.389-0.745,2.678-0.745c1.266,0,2.153,0.254,2.661,0.763
		C75.414,61.429,75.668,62.367,75.668,63.734z M73.556,63.356c0-0.74-0.099-1.245-0.295-1.514s-0.535-0.403-1.015-0.403
		c-0.491,0-0.838,0.143-1.04,0.427c-0.202,0.285-0.303,0.781-0.303,1.489v2.832h2.653V63.356z"/>
	<path fill="#2B1C48" d="M84.38,63.356v0.708h-2.015v-0.708c0-0.773-0.073-1.286-0.221-1.538c-0.147-0.252-0.417-0.378-0.811-0.378
		c-0.35,0-0.598,0.116-0.745,0.348c-0.147,0.232-0.221,0.625-0.221,1.178v0.5c0,0.269,0.068,0.533,0.205,0.793
		c0.136,0.261,0.357,0.537,0.663,0.83l2.44,2.417c0.273,0.277,0.483,0.562,0.631,0.855c0.147,0.293,0.221,0.569,0.221,0.83v1.195
		c0,1.083-0.237,1.842-0.712,2.277c-0.475,0.435-1.28,0.652-2.416,0.652c-1.179,0-1.998-0.228-2.457-0.684
		c-0.458-0.455-0.688-1.298-0.688-2.526v-1.074h1.998v1.074c0,0.798,0.079,1.318,0.237,1.562s0.439,0.366,0.844,0.366
		c0.415,0,0.709-0.122,0.884-0.366c0.174-0.244,0.262-0.671,0.262-1.282v-0.476c0-0.684-0.333-1.343-0.999-1.978
		c-0.022-0.024-0.038-0.041-0.049-0.049l-2.375-2.393c-0.251-0.252-0.432-0.502-0.541-0.751c-0.109-0.248-0.164-0.522-0.164-0.824
		v-0.903c0-1.033,0.232-1.768,0.696-2.204c0.464-0.435,1.236-0.653,2.317-0.653c1.124,0,1.908,0.228,2.35,0.684
		C84.159,61.297,84.38,62.135,84.38,63.356z"/>
	<path fill="#2B1C48" d="M92.256,55.006h2.014v6.226c0.272-0.35,0.619-0.617,1.04-0.799c0.42-0.184,0.903-0.275,1.449-0.275
		c0.852,0,1.455,0.213,1.81,0.641c0.355,0.427,0.532,1.174,0.532,2.24v7.397c0,1.066-0.177,1.813-0.532,2.24
		c-0.355,0.428-0.958,0.641-1.81,0.641c-0.546,0-1.029-0.091-1.449-0.274c-0.42-0.183-0.767-0.449-1.04-0.8l-0.131,0.77h-1.883
		V55.006z M96.989,63.356c0-0.74-0.098-1.245-0.295-1.514c-0.196-0.269-0.546-0.403-1.048-0.403c-0.491,0-0.843,0.145-1.056,0.434
		c-0.213,0.289-0.319,0.783-0.319,1.483v6.75c0,0.716,0.104,1.217,0.311,1.501c0.207,0.285,0.562,0.428,1.064,0.428
		c0.502,0,0.852-0.135,1.048-0.402c0.197-0.27,0.295-0.777,0.295-1.526V63.356z"/>
	<path fill="#2B1C48" d="M108.698,63.392v9.619h-1.883l-0.131-0.77c-0.273,0.351-0.62,0.617-1.04,0.8
		c-0.42,0.184-0.903,0.274-1.449,0.274c-0.852,0-1.455-0.213-1.81-0.641c-0.355-0.427-0.532-1.174-0.532-2.24v-2.502
		c0-0.984,0.357-1.685,1.073-2.1c0.715-0.415,1.967-0.647,3.758-0.696v-1.782c0-0.757-0.095-1.265-0.286-1.526
		c-0.191-0.26-0.532-0.391-1.024-0.391c-0.469,0-0.805,0.12-1.007,0.36c-0.202,0.24-0.303,0.653-0.303,1.239v0.696h-2.014v-0.342
		c0-1.253,0.246-2.105,0.737-2.558c0.491-0.451,1.364-0.677,2.62-0.677c1.222,0,2.077,0.228,2.562,0.684
		C108.455,61.297,108.698,62.147,108.698,63.392z M106.667,66.359c-1.048,0.033-1.76,0.171-2.137,0.415
		c-0.376,0.244-0.565,0.683-0.565,1.318v2.015c0,0.749,0.098,1.257,0.295,1.526c0.196,0.268,0.546,0.402,1.048,0.402
		c0.491,0,0.844-0.145,1.057-0.434c0.212-0.288,0.319-0.787,0.319-1.495L106.667,66.359z M105.914,56.093h2.309l-2.145,2.722h-1.605
		L105.914,56.093z"/>
	<path fill="#2B1C48" d="M117.475,63.356v0.708h-2.015v-0.708c0-0.773-0.073-1.286-0.221-1.538
		c-0.147-0.252-0.417-0.378-0.811-0.378c-0.35,0-0.598,0.116-0.745,0.348c-0.147,0.232-0.221,0.625-0.221,1.178v0.5
		c0,0.269,0.068,0.533,0.205,0.793c0.136,0.261,0.357,0.537,0.663,0.83l2.44,2.417c0.273,0.277,0.483,0.562,0.631,0.855
		c0.147,0.293,0.221,0.569,0.221,0.83v1.195c0,1.083-0.237,1.842-0.712,2.277c-0.475,0.435-1.28,0.652-2.416,0.652
		c-1.179,0-1.998-0.228-2.457-0.684c-0.458-0.455-0.688-1.298-0.688-2.526v-1.074h1.998v1.074c0,0.798,0.079,1.318,0.237,1.562
		s0.439,0.366,0.844,0.366c0.415,0,0.709-0.122,0.884-0.366c0.174-0.244,0.262-0.671,0.262-1.282v-0.476
		c0-0.684-0.333-1.343-0.999-1.978c-0.022-0.024-0.038-0.041-0.049-0.049l-2.375-2.393c-0.251-0.252-0.432-0.502-0.541-0.751
		c-0.109-0.248-0.164-0.522-0.164-0.824v-0.903c0-1.033,0.232-1.768,0.696-2.204c0.464-0.435,1.236-0.653,2.317-0.653
		c1.124,0,1.908,0.228,2.35,0.684C117.254,61.297,117.475,62.135,117.475,63.356z"/>
	<path fill="#2B1C48" d="M120.127,55.006h2.244v1.904h-2.244V55.006z M120.226,60.463h2.014v12.549h-2.014V60.463z"/>
	<path fill="#2B1C48" d="M131.558,63.734v0.806h-2.112v-1.184c0-0.822-0.074-1.347-0.221-1.575
		c-0.147-0.228-0.417-0.342-0.811-0.342s-0.666,0.128-0.819,0.385c-0.153,0.256-0.229,0.767-0.229,1.532v6.75
		c0,0.781,0.079,1.298,0.237,1.55c0.158,0.253,0.439,0.379,0.843,0.379c0.382,0,0.644-0.116,0.786-0.348
		c0.142-0.232,0.213-0.759,0.213-1.581v-1.343h2.112v0.977c0,1.384-0.232,2.325-0.696,2.826c-0.464,0.5-1.28,0.75-2.448,0.75
		c-1.157,0-1.968-0.256-2.432-0.769c-0.464-0.513-0.696-1.457-0.696-2.832v-5.981c0-1.392,0.229-2.335,0.688-2.832
		c0.458-0.496,1.271-0.745,2.44-0.745c1.157,0,1.971,0.254,2.44,0.763C131.323,61.429,131.558,62.367,131.558,63.734z"/>
	<path fill="#2B1C48" d="M140.794,63.392v9.619h-1.883l-0.131-0.77c-0.273,0.351-0.62,0.617-1.04,0.8
		c-0.42,0.184-0.903,0.274-1.449,0.274c-0.852,0-1.455-0.213-1.81-0.641c-0.355-0.427-0.532-1.174-0.532-2.24v-2.502
		c0-0.984,0.357-1.685,1.073-2.1c0.715-0.415,1.967-0.647,3.758-0.696v-1.782c0-0.757-0.095-1.265-0.286-1.526
		c-0.191-0.26-0.532-0.391-1.024-0.391c-0.469,0-0.805,0.12-1.007,0.36c-0.202,0.24-0.303,0.653-0.303,1.239v0.696h-2.014v-0.342
		c0-1.253,0.246-2.105,0.737-2.558c0.491-0.451,1.364-0.677,2.62-0.677c1.222,0,2.077,0.228,2.562,0.684
		C140.551,61.297,140.794,62.147,140.794,63.392z M138.763,66.359c-1.048,0.033-1.76,0.171-2.137,0.415
		c-0.376,0.244-0.565,0.683-0.565,1.318v2.015c0,0.749,0.098,1.257,0.295,1.526c0.196,0.268,0.546,0.402,1.048,0.402
		c0.491,0,0.844-0.145,1.057-0.434c0.212-0.288,0.319-0.787,0.319-1.495L138.763,66.359z"/>
	<path fill="#2B1C48" d="M149.571,63.356v0.708h-2.015v-0.708c0-0.773-0.073-1.286-0.221-1.538
		c-0.147-0.252-0.417-0.378-0.811-0.378c-0.35,0-0.598,0.116-0.745,0.348c-0.147,0.232-0.221,0.625-0.221,1.178v0.5
		c0,0.269,0.068,0.533,0.205,0.793c0.136,0.261,0.357,0.537,0.663,0.83l2.44,2.417c0.273,0.277,0.483,0.562,0.631,0.855
		c0.147,0.293,0.221,0.569,0.221,0.83v1.195c0,1.083-0.237,1.842-0.712,2.277c-0.475,0.435-1.28,0.652-2.416,0.652
		c-1.179,0-1.998-0.228-2.457-0.684c-0.458-0.455-0.688-1.298-0.688-2.526v-1.074h1.998v1.074c0,0.798,0.079,1.318,0.237,1.562
		s0.439,0.366,0.844,0.366c0.415,0,0.709-0.122,0.884-0.366c0.174-0.244,0.262-0.671,0.262-1.282v-0.476
		c0-0.684-0.333-1.343-0.999-1.978c-0.022-0.024-0.038-0.041-0.049-0.049l-2.375-2.393c-0.251-0.252-0.432-0.502-0.541-0.751
		c-0.109-0.248-0.164-0.522-0.164-0.824v-0.903c0-1.033,0.232-1.768,0.696-2.204c0.464-0.435,1.236-0.653,2.317-0.653
		c1.124,0,1.908,0.228,2.35,0.684C149.35,61.297,149.571,62.135,149.571,63.356z"/>
	<path fill="#2B1C48" d="M162.18,55.006h2.047v18.005h-1.883l-0.164-0.77c-0.273,0.358-0.614,0.627-1.023,0.807
		c-0.41,0.179-0.887,0.268-1.433,0.268c-0.841,0-1.441-0.213-1.801-0.641c-0.36-0.427-0.541-1.174-0.541-2.24v-7.397
		c0-1.066,0.18-1.813,0.541-2.24c0.36-0.428,0.96-0.641,1.801-0.641c0.546,0,1.026,0.091,1.441,0.275
		c0.415,0.183,0.753,0.45,1.015,0.799V55.006z M162.18,63.356c0-0.708-0.101-1.204-0.303-1.489c-0.202-0.285-0.548-0.427-1.04-0.427
		c-0.502,0-0.857,0.139-1.064,0.415c-0.208,0.277-0.311,0.777-0.311,1.501v6.75c0,0.732,0.104,1.237,0.311,1.514
		c0.207,0.276,0.562,0.415,1.064,0.415c0.491,0,0.837-0.143,1.04-0.428c0.202-0.284,0.303-0.785,0.303-1.501V63.356z"/>
	<path fill="#2B1C48" d="M174.085,63.734v3.723h-4.765v2.649c0,0.749,0.098,1.257,0.294,1.526c0.197,0.268,0.546,0.402,1.048,0.402
		c0.48,0,0.819-0.139,1.015-0.415s0.295-0.781,0.295-1.514v-1.392h2.112v1.025c0,1.384-0.251,2.325-0.753,2.826
		c-0.502,0.5-1.392,0.75-2.669,0.75c-1.267,0-2.153-0.254-2.661-0.763c-0.508-0.508-0.762-1.454-0.762-2.838v-5.981
		c0-1.392,0.249-2.335,0.745-2.832c0.497-0.496,1.389-0.745,2.678-0.745c1.266,0,2.153,0.254,2.661,0.763
		C173.832,61.429,174.085,62.367,174.085,63.734z M171.973,63.356c0-0.74-0.099-1.245-0.295-1.514s-0.535-0.403-1.015-0.403
		c-0.491,0-0.838,0.143-1.04,0.427c-0.202,0.285-0.303,0.781-0.303,1.489v2.832h2.653V63.356z"/>
	<path fill="#2B1C48" d="M182.568,55.006h2.44c2.063,0,3.412,0.242,4.045,0.726c0.633,0.484,0.95,1.593,0.95,3.327v9.9
		c0,1.726-0.322,2.832-0.966,3.32s-1.987,0.732-4.028,0.732h-2.44V55.006z M184.647,56.337v15.345h0.671
		c1.004,0,1.667-0.124,1.99-0.373c0.322-0.248,0.483-0.795,0.483-1.642V58.387c0-0.854-0.164-1.41-0.491-1.666
		c-0.328-0.257-0.988-0.385-1.981-0.385H184.647z"/>
	<path fill="#2B1C48" d="M200.106,63.734v3.723h-4.765v2.649c0,0.749,0.098,1.257,0.294,1.526c0.197,0.268,0.546,0.402,1.048,0.402
		c0.48,0,0.819-0.139,1.015-0.415s0.295-0.781,0.295-1.514v-1.392h2.112v1.025c0,1.384-0.251,2.325-0.753,2.826
		c-0.502,0.5-1.392,0.75-2.669,0.75c-1.267,0-2.153-0.254-2.661-0.763c-0.508-0.508-0.762-1.454-0.762-2.838v-5.981
		c0-1.392,0.249-2.335,0.745-2.832c0.497-0.496,1.389-0.745,2.678-0.745c1.266,0,2.153,0.254,2.661,0.763
		C199.852,61.429,200.106,62.367,200.106,63.734z M197.994,63.356c0-0.74-0.099-1.245-0.295-1.514s-0.535-0.403-1.015-0.403
		c-0.491,0-0.838,0.143-1.04,0.427c-0.202,0.285-0.303,0.781-0.303,1.489v2.832h2.653V63.356z"/>
	<path fill="#2B1C48" d="M207.852,60.182v1.526h-0.344c-0.862,0-1.474,0.161-1.834,0.482c-0.36,0.321-0.54,0.877-0.54,1.666v9.155
		h-2.015V60.463h1.884l0.131,0.769c0.283-0.342,0.63-0.606,1.04-0.793c0.409-0.187,0.854-0.281,1.334-0.281
		c0.033,0,0.088,0.004,0.164,0.012C207.748,60.178,207.809,60.182,207.852,60.182z"/>
	<path fill="#2B1C48" d="M216.073,63.734v3.723h-4.766v2.649c0,0.749,0.098,1.257,0.295,1.526c0.196,0.268,0.546,0.402,1.048,0.402
		c0.48,0,0.818-0.139,1.016-0.415c0.196-0.276,0.294-0.781,0.294-1.514v-1.392h2.113v1.025c0,1.384-0.252,2.325-0.754,2.826
		c-0.502,0.5-1.392,0.75-2.669,0.75c-1.267,0-2.153-0.254-2.661-0.763c-0.508-0.508-0.762-1.454-0.762-2.838v-5.981
		c0-1.392,0.248-2.335,0.745-2.832c0.497-0.496,1.39-0.745,2.678-0.745c1.267,0,2.153,0.254,2.661,0.763
		C215.819,61.429,216.073,62.367,216.073,63.734z M213.96,63.356c0-0.74-0.098-1.245-0.294-1.514
		c-0.197-0.269-0.535-0.403-1.016-0.403c-0.491,0-0.838,0.143-1.04,0.427c-0.202,0.285-0.303,0.781-0.303,1.489v2.832h2.652V63.356z
		"/>
	<path fill="#2B1C48" d="M225.293,63.734v0.806h-2.113v-1.184c0-0.822-0.073-1.347-0.221-1.575
		c-0.147-0.228-0.418-0.342-0.811-0.342s-0.666,0.128-0.818,0.385c-0.153,0.256-0.229,0.767-0.229,1.532v6.75
		c0,0.781,0.079,1.298,0.237,1.55c0.158,0.253,0.439,0.379,0.844,0.379c0.382,0,0.644-0.116,0.785-0.348
		c0.143-0.232,0.213-0.759,0.213-1.581v-1.343h2.113v0.977c0,1.384-0.232,2.325-0.696,2.826c-0.464,0.5-1.28,0.75-2.448,0.75
		c-1.157,0-1.968-0.256-2.432-0.769s-0.696-1.457-0.696-2.832v-5.981c0-1.392,0.229-2.335,0.688-2.832
		c0.459-0.496,1.272-0.745,2.44-0.745c1.157,0,1.971,0.254,2.44,0.763C225.058,61.429,225.293,62.367,225.293,63.734z"/>
	<path fill="#2B1C48" d="M227.945,55.006h2.015v6.226c0.272-0.35,0.619-0.617,1.04-0.799c0.42-0.184,0.903-0.275,1.449-0.275
		c0.852,0,1.454,0.213,1.81,0.641c0.354,0.427,0.532,1.174,0.532,2.24v9.973h-2.015v-9.656c0-0.716-0.106-1.214-0.319-1.496
		c-0.213-0.28-0.576-0.421-1.089-0.421c-0.502,0-0.862,0.145-1.081,0.434c-0.219,0.289-0.327,0.783-0.327,1.483v9.656h-2.015V55.006
		z"/>
	<path fill="#2B1C48" d="M244.649,63.734v6.006c0,1.384-0.252,2.325-0.754,2.826c-0.502,0.5-1.392,0.75-2.669,0.75
		c-1.267,0-2.153-0.254-2.661-0.763c-0.508-0.508-0.762-1.454-0.762-2.838v-5.981c0-1.392,0.248-2.335,0.745-2.832
		c0.497-0.496,1.39-0.745,2.678-0.745c1.267,0,2.153,0.254,2.661,0.763C244.396,61.429,244.649,62.367,244.649,63.734z
		 M242.536,63.356c0-0.74-0.098-1.245-0.294-1.514c-0.197-0.269-0.535-0.403-1.016-0.403c-0.491,0-0.838,0.143-1.04,0.427
		c-0.202,0.285-0.303,0.781-0.303,1.489v6.75c0,0.749,0.098,1.257,0.295,1.526c0.196,0.268,0.546,0.402,1.048,0.402
		c0.48,0,0.818-0.139,1.016-0.415c0.196-0.276,0.294-0.781,0.294-1.514V63.356z"/>
	<path fill="#2B1C48" d="M253.361,63.356v0.708h-2.015v-0.708c0-0.773-0.073-1.286-0.221-1.538
		c-0.147-0.252-0.418-0.378-0.811-0.378c-0.35,0-0.598,0.116-0.745,0.348c-0.147,0.232-0.222,0.625-0.222,1.178v0.5
		c0,0.269,0.068,0.533,0.205,0.793c0.137,0.261,0.357,0.537,0.663,0.83l2.44,2.417c0.272,0.277,0.482,0.562,0.63,0.855
		s0.222,0.569,0.222,0.83v1.195c0,1.083-0.237,1.842-0.713,2.277c-0.475,0.435-1.28,0.652-2.415,0.652
		c-1.179,0-1.998-0.228-2.456-0.684c-0.459-0.455-0.688-1.298-0.688-2.526v-1.074h1.998v1.074c0,0.798,0.079,1.318,0.237,1.562
		s0.439,0.366,0.844,0.366c0.415,0,0.709-0.122,0.884-0.366s0.263-0.671,0.263-1.282v-0.476c0-0.684-0.334-1.343-0.999-1.978
		c-0.022-0.024-0.039-0.041-0.05-0.049l-2.374-2.393c-0.251-0.252-0.432-0.502-0.54-0.751c-0.109-0.248-0.164-0.522-0.164-0.824
		v-0.903c0-1.033,0.231-1.768,0.696-2.204c0.464-0.435,1.236-0.653,2.316-0.653c1.125,0,1.908,0.228,2.351,0.684
		C253.14,61.297,253.361,62.135,253.361,63.356z"/>
	<path fill="#2B1C48" d="M261.582,55.006h2.08v8.081h3.423v-8.081h2.079v18.005h-2.079v-8.606h-3.423v8.606h-2.08V55.006z"/>
	<path fill="#2B1C48" d="M272.57,60.463h2.015v9.619c0,0.74,0.106,1.251,0.319,1.532c0.213,0.28,0.575,0.421,1.089,0.421
		c0.502,0,0.856-0.145,1.064-0.434c0.207-0.288,0.312-0.795,0.312-1.52v-9.619h2.047v12.549h-1.884l-0.163-0.77
		c-0.273,0.351-0.612,0.613-1.016,0.788c-0.404,0.175-0.879,0.263-1.425,0.263c-0.862,0-1.472-0.212-1.826-0.635
		c-0.354-0.424-0.532-1.164-0.532-2.223V60.463z"/>
	<path fill="#2B1C48" d="M288.668,61.317c0.404-0.423,0.791-0.722,1.163-0.897c0.371-0.175,0.802-0.262,1.293-0.262
		c0.754,0,1.294,0.216,1.622,0.647c0.327,0.432,0.491,1.176,0.491,2.234v9.973h-2.015v-9.656c0-0.716-0.088-1.214-0.262-1.496
		c-0.175-0.28-0.47-0.421-0.885-0.421c-0.426,0-0.734,0.151-0.925,0.452c-0.191,0.301-0.287,0.79-0.287,1.465v9.656h-2.014v-9.656
		c0-0.716-0.085-1.214-0.254-1.496c-0.17-0.28-0.462-0.421-0.876-0.421c-0.426,0-0.734,0.151-0.926,0.452
		c-0.19,0.301-0.286,0.79-0.286,1.465v9.656h-2.015V60.463h1.884l0.131,0.769c0.272-0.358,0.598-0.626,0.975-0.806
		c0.376-0.179,0.799-0.269,1.269-0.269c0.502,0,0.917,0.1,1.245,0.299C288.324,60.656,288.548,60.943,288.668,61.317z"/>
	<path fill="#2B1C48" d="M302.898,63.392v9.619h-1.883l-0.131-0.77c-0.273,0.351-0.62,0.617-1.04,0.8
		c-0.421,0.184-0.903,0.274-1.449,0.274c-0.852,0-1.455-0.213-1.81-0.641c-0.354-0.427-0.532-1.174-0.532-2.24v-2.502
		c0-0.984,0.357-1.685,1.072-2.1s1.968-0.647,3.759-0.696v-1.782c0-0.757-0.096-1.265-0.287-1.526
		c-0.19-0.26-0.532-0.391-1.023-0.391c-0.47,0-0.805,0.12-1.007,0.36c-0.202,0.24-0.303,0.653-0.303,1.239v0.696h-2.015v-0.342
		c0-1.253,0.246-2.105,0.737-2.558c0.491-0.451,1.364-0.677,2.62-0.677c1.223,0,2.077,0.228,2.562,0.684
		C302.655,61.297,302.898,62.147,302.898,63.392z M300.868,66.359c-1.048,0.033-1.761,0.171-2.137,0.415
		c-0.377,0.244-0.565,0.683-0.565,1.318v2.015c0,0.749,0.099,1.257,0.295,1.526c0.196,0.268,0.546,0.402,1.048,0.402
		c0.491,0,0.844-0.145,1.057-0.434c0.213-0.288,0.319-0.787,0.319-1.495L300.868,66.359z"/>
	<path fill="#2B1C48" d="M312.823,63.038v9.973h-2.015v-9.656c0-0.716-0.106-1.214-0.319-1.496c-0.213-0.28-0.576-0.421-1.089-0.421
		c-0.502,0-0.862,0.145-1.081,0.434c-0.219,0.289-0.327,0.783-0.327,1.483v9.656h-2.015V60.463h1.884l0.131,0.769
		c0.272-0.35,0.619-0.617,1.04-0.799c0.42-0.184,0.903-0.275,1.449-0.275c0.852,0,1.454,0.213,1.81,0.641
		C312.646,61.225,312.823,61.972,312.823,63.038z"/>
	<path fill="#2B1C48" d="M322.682,63.734v6.006c0,1.384-0.252,2.325-0.754,2.826c-0.502,0.5-1.392,0.75-2.669,0.75
		c-1.267,0-2.153-0.254-2.661-0.763c-0.508-0.508-0.762-1.454-0.762-2.838v-5.981c0-1.392,0.248-2.335,0.745-2.832
		c0.497-0.496,1.39-0.745,2.678-0.745c1.267,0,2.153,0.254,2.661,0.763C322.428,61.429,322.682,62.367,322.682,63.734z
		 M320.568,63.356c0-0.74-0.098-1.245-0.294-1.514c-0.197-0.269-0.535-0.403-1.016-0.403c-0.491,0-0.838,0.143-1.04,0.427
		c-0.202,0.285-0.303,0.781-0.303,1.489v6.75c0,0.749,0.098,1.257,0.295,1.526c0.196,0.268,0.546,0.402,1.048,0.402
		c0.48,0,0.818-0.139,1.016-0.415c0.196-0.276,0.294-0.781,0.294-1.514V63.356z"/>
	<path fill="#2B1C48" d="M331.394,63.356v0.708h-2.015v-0.708c0-0.773-0.073-1.286-0.221-1.538
		c-0.147-0.252-0.418-0.378-0.811-0.378c-0.35,0-0.598,0.116-0.745,0.348c-0.147,0.232-0.222,0.625-0.222,1.178v0.5
		c0,0.269,0.068,0.533,0.205,0.793c0.137,0.261,0.357,0.537,0.663,0.83l2.44,2.417c0.272,0.277,0.482,0.562,0.63,0.855
		s0.222,0.569,0.222,0.83v1.195c0,1.083-0.237,1.842-0.713,2.277c-0.475,0.435-1.28,0.652-2.415,0.652
		c-1.179,0-1.998-0.228-2.456-0.684c-0.459-0.455-0.688-1.298-0.688-2.526v-1.074h1.998v1.074c0,0.798,0.079,1.318,0.237,1.562
		s0.439,0.366,0.844,0.366c0.415,0,0.709-0.122,0.884-0.366s0.263-0.671,0.263-1.282v-0.476c0-0.684-0.334-1.343-0.999-1.978
		c-0.022-0.024-0.039-0.041-0.05-0.049l-2.374-2.393c-0.251-0.252-0.432-0.502-0.54-0.751c-0.109-0.248-0.164-0.522-0.164-0.824
		v-0.903c0-1.033,0.231-1.768,0.696-2.204c0.464-0.435,1.236-0.653,2.316-0.653c1.125,0,1.908,0.228,2.351,0.684
		C331.172,61.297,331.394,62.135,331.394,63.356z"/>
	<path fill="#2B1C48" d="M337.207,54.738h1.572c-0.731,1.97-1.277,3.85-1.638,5.64c-0.36,1.791-0.54,3.536-0.54,5.237
		c0,1.692,0.18,3.437,0.54,5.23c0.36,1.795,0.906,3.677,1.638,5.646h-1.572c-0.917-1.839-1.604-3.666-2.063-5.48
		c-0.458-1.814-0.688-3.613-0.688-5.396s0.229-3.583,0.688-5.401C335.603,58.393,336.29,56.569,337.207,54.738z"/>
	<path fill="#2B1C48" d="M341.464,55.006h2.44c2.063,0,3.411,0.242,4.045,0.726c0.633,0.484,0.949,1.593,0.949,3.327v9.9
		c0,1.726-0.321,2.832-0.966,3.32s-1.987,0.732-4.028,0.732h-2.44V55.006z M343.544,56.337v15.345h0.672
		c1.004,0,1.667-0.124,1.989-0.373c0.322-0.248,0.483-0.795,0.483-1.642V58.387c0-0.854-0.164-1.41-0.491-1.666
		c-0.328-0.257-0.988-0.385-1.981-0.385H343.544z"/>
	<path fill="#2B1C48" d="M352.566,55.006h2.44c2.063,0,3.411,0.242,4.045,0.726c0.633,0.484,0.949,1.593,0.949,3.327v9.9
		c0,1.726-0.321,2.832-0.966,3.32s-1.987,0.732-4.028,0.732h-2.44V55.006z M354.646,56.337v15.345h0.672
		c1.004,0,1.667-0.124,1.989-0.373c0.322-0.248,0.483-0.795,0.483-1.642V58.387c0-0.854-0.164-1.41-0.491-1.666
		c-0.328-0.257-0.988-0.385-1.981-0.385H354.646z"/>
	<path fill="#2B1C48" d="M363.669,55.006h2.08v8.081h3.423v-8.081h2.079v18.005h-2.079v-8.606h-3.423v8.606h-2.08V55.006z"/>
	<path fill="#2B1C48" d="M375.001,55.006h2.08v8.081h3.423v-8.081h2.079v18.005h-2.079v-8.606h-3.423v8.606h-2.08V55.006z"/>
	<path fill="#2B1C48" d="M385.253,54.738h1.604c0.917,1.831,1.604,3.656,2.063,5.475c0.458,1.818,0.688,3.619,0.688,5.401
		c0,1.774-0.229,3.57-0.688,5.39c-0.459,1.818-1.146,3.647-2.063,5.486h-1.604c0.742-1.993,1.291-3.883,1.646-5.67
		c0.354-1.786,0.532-3.521,0.532-5.206s-0.178-3.42-0.532-5.206C386.544,58.621,385.995,56.732,385.253,54.738z"/>
	<path fill="#2B1C48" d="M396.994,60.463h1.965l1.556,9.351h0.131l1.376-9.351h1.883l-3.488,17.297h-2.014l1.097-5.225
		L396.994,60.463z"/>
	<path fill="#2B1C48" d="M45.209,81.296h2.44c2.063,0,3.412,0.243,4.045,0.727c0.633,0.484,0.95,1.594,0.95,3.326v9.9
		c0,1.726-0.322,2.832-0.966,3.32s-1.987,0.732-4.028,0.732h-2.44V81.296z M47.289,82.627v15.345h0.671
		c1.004,0,1.667-0.124,1.99-0.373c0.322-0.248,0.483-0.795,0.483-1.642V84.677c0-0.854-0.164-1.41-0.491-1.666
		c-0.328-0.257-0.988-0.385-1.981-0.385H47.289z"/>
	<path fill="#2B1C48" d="M62.748,90.024v3.723h-4.765v2.649c0,0.749,0.098,1.257,0.294,1.526c0.197,0.268,0.546,0.402,1.048,0.402
		c0.48,0,0.819-0.139,1.015-0.415s0.295-0.781,0.295-1.514v-1.392h2.112v1.025c0,1.384-0.251,2.325-0.753,2.826
		c-0.502,0.5-1.392,0.75-2.669,0.75c-1.267,0-2.153-0.254-2.661-0.763c-0.508-0.508-0.762-1.454-0.762-2.838v-5.981
		c0-1.392,0.249-2.336,0.745-2.832s1.389-0.744,2.678-0.744c1.266,0,2.153,0.254,2.661,0.763
		C62.494,87.719,62.748,88.657,62.748,90.024z M60.635,89.645c0-0.74-0.099-1.244-0.295-1.514c-0.196-0.268-0.535-0.402-1.015-0.402
		c-0.491,0-0.838,0.143-1.04,0.428c-0.202,0.284-0.303,0.781-0.303,1.488v2.832h2.653V89.645z"/>
	<path fill="#2B1C48" d="M70.493,86.471v1.526h-0.344c-0.863,0-1.474,0.161-1.834,0.482c-0.36,0.321-0.54,0.877-0.54,1.666v9.155
		h-2.014V86.753h1.883l0.131,0.77c0.284-0.342,0.63-0.606,1.04-0.794c0.41-0.188,0.854-0.28,1.335-0.28
		c0.033,0,0.087,0.004,0.164,0.012C70.389,86.468,70.449,86.471,70.493,86.471z"/>
	<path fill="#2B1C48" d="M78.714,90.024v3.723h-4.765v2.649c0,0.749,0.098,1.257,0.294,1.526c0.197,0.268,0.546,0.402,1.048,0.402
		c0.48,0,0.819-0.139,1.015-0.415s0.295-0.781,0.295-1.514v-1.392h2.112v1.025c0,1.384-0.251,2.325-0.753,2.826
		c-0.502,0.5-1.392,0.75-2.669,0.75c-1.267,0-2.153-0.254-2.661-0.763c-0.508-0.508-0.762-1.454-0.762-2.838v-5.981
		c0-1.392,0.249-2.336,0.745-2.832s1.389-0.744,2.678-0.744c1.266,0,2.153,0.254,2.661,0.763
		C78.46,87.719,78.714,88.657,78.714,90.024z M76.602,89.645c0-0.74-0.099-1.244-0.295-1.514c-0.196-0.268-0.535-0.402-1.015-0.402
		c-0.491,0-0.838,0.143-1.04,0.428c-0.202,0.284-0.303,0.781-0.303,1.488v2.832h2.653V89.645z"/>
	<path fill="#2B1C48" d="M87.933,90.024v0.806h-2.112v-1.185c0-0.821-0.074-1.347-0.221-1.574s-0.417-0.342-0.811-0.342
		s-0.666,0.128-0.819,0.385c-0.153,0.256-0.229,0.767-0.229,1.531v6.751c0,0.781,0.079,1.298,0.237,1.55
		c0.158,0.253,0.439,0.379,0.843,0.379c0.382,0,0.644-0.116,0.786-0.348c0.142-0.232,0.213-0.759,0.213-1.581v-1.343h2.112v0.977
		c0,1.384-0.232,2.325-0.696,2.826c-0.464,0.5-1.28,0.75-2.448,0.75c-1.157,0-1.968-0.256-2.432-0.769
		c-0.464-0.513-0.696-1.457-0.696-2.832v-5.981c0-1.392,0.229-2.336,0.688-2.832s1.271-0.744,2.44-0.744
		c1.157,0,1.971,0.254,2.44,0.763S87.933,88.657,87.933,90.024z"/>
	<path fill="#2B1C48" d="M90.586,81.296h2.014v6.227c0.272-0.351,0.619-0.617,1.04-0.8c0.42-0.184,0.903-0.274,1.449-0.274
		c0.852,0,1.455,0.213,1.81,0.641c0.355,0.427,0.532,1.174,0.532,2.24v9.973h-2.014v-9.656c0-0.716-0.106-1.214-0.319-1.495
		c-0.213-0.28-0.576-0.421-1.089-0.421c-0.502,0-0.863,0.145-1.081,0.434s-0.327,0.783-0.327,1.482v9.656h-2.014V81.296z"/>
	<path fill="#2B1C48" d="M107.29,90.024v6.006c0,1.384-0.251,2.325-0.753,2.826c-0.502,0.5-1.392,0.75-2.669,0.75
		c-1.267,0-2.153-0.254-2.661-0.763c-0.508-0.508-0.762-1.454-0.762-2.838v-5.981c0-1.392,0.249-2.336,0.745-2.832
		s1.389-0.744,2.678-0.744c1.266,0,2.153,0.254,2.661,0.763C107.036,87.719,107.29,88.657,107.29,90.024z M105.177,89.645
		c0-0.74-0.099-1.244-0.295-1.514c-0.196-0.268-0.535-0.402-1.015-0.402c-0.491,0-0.838,0.143-1.04,0.428
		c-0.202,0.284-0.303,0.781-0.303,1.488v6.751c0,0.749,0.098,1.257,0.294,1.526c0.197,0.268,0.546,0.402,1.048,0.402
		c0.48,0,0.819-0.139,1.015-0.415s0.295-0.781,0.295-1.514V89.645z"/>
	<path fill="#2B1C48" d="M115.772,81.296h2.21v18.006h-2.21V81.296z"/>
	<path fill="#2B1C48" d="M128.168,89.329v9.973h-2.014v-9.656c0-0.716-0.106-1.214-0.319-1.495c-0.213-0.28-0.576-0.421-1.089-0.421
		c-0.502,0-0.863,0.145-1.081,0.434s-0.327,0.783-0.327,1.482v9.656h-2.014V86.753h1.883l0.131,0.77
		c0.272-0.351,0.619-0.617,1.04-0.8c0.42-0.184,0.903-0.274,1.449-0.274c0.852,0,1.455,0.213,1.81,0.641
		C127.991,87.515,128.168,88.262,128.168,89.329z"/>
	<path fill="#2B1C48" d="M133.36,83.372v3.381h1.539v1.27h-1.539v9.326c0,0.35,0.09,0.592,0.27,0.727
		c0.18,0.134,0.505,0.201,0.975,0.201h0.294v1.307c-0.12,0.008-0.243,0.014-0.368,0.018c-0.126,0.004-0.303,0.006-0.532,0.006
		c-1.026,0-1.725-0.185-2.096-0.555s-0.557-1.194-0.557-2.473v-8.557h-1.097v-1.27h1.097v-2.771L133.36,83.372z"/>
	<path fill="#2B1C48" d="M143.693,90.024v3.723h-4.765v2.649c0,0.749,0.098,1.257,0.294,1.526c0.197,0.268,0.546,0.402,1.048,0.402
		c0.48,0,0.819-0.139,1.015-0.415s0.295-0.781,0.295-1.514v-1.392h2.112v1.025c0,1.384-0.251,2.325-0.753,2.826
		c-0.502,0.5-1.392,0.75-2.669,0.75c-1.267,0-2.153-0.254-2.661-0.763c-0.508-0.508-0.762-1.454-0.762-2.838v-5.981
		c0-1.392,0.249-2.336,0.745-2.832s1.389-0.744,2.678-0.744c1.266,0,2.153,0.254,2.661,0.763
		C143.439,87.719,143.693,88.657,143.693,90.024z M141.581,89.645c0-0.74-0.099-1.244-0.295-1.514
		c-0.196-0.268-0.535-0.402-1.015-0.402c-0.491,0-0.838,0.143-1.04,0.428c-0.202,0.284-0.303,0.781-0.303,1.488v2.832h2.653V89.645z
		"/>
	<path fill="#2B1C48" d="M151.438,86.471v1.526h-0.344c-0.863,0-1.474,0.161-1.834,0.482c-0.36,0.321-0.54,0.877-0.54,1.666v9.155
		h-2.014V86.753h1.883l0.131,0.77c0.284-0.342,0.63-0.606,1.04-0.794c0.41-0.188,0.854-0.28,1.335-0.28
		c0.033,0,0.087,0.004,0.164,0.012C151.334,86.468,151.395,86.471,151.438,86.471z"/>
	<path fill="#2B1C48" d="M159.725,89.329v9.973h-2.014v-9.656c0-0.716-0.106-1.214-0.319-1.495c-0.213-0.28-0.576-0.421-1.089-0.421
		c-0.502,0-0.863,0.145-1.081,0.434s-0.327,0.783-0.327,1.482v9.656h-2.014V86.753h1.883l0.131,0.77
		c0.272-0.351,0.619-0.617,1.04-0.8c0.42-0.184,0.903-0.274,1.449-0.274c0.852,0,1.455,0.213,1.81,0.641
		C159.547,87.515,159.725,88.262,159.725,89.329z"/>
	<path fill="#2B1C48" d="M169.387,89.682v9.619h-1.883l-0.131-0.77c-0.273,0.351-0.62,0.617-1.04,0.8
		c-0.42,0.184-0.903,0.274-1.449,0.274c-0.852,0-1.455-0.213-1.81-0.641c-0.355-0.427-0.532-1.174-0.532-2.24v-2.502
		c0-0.984,0.357-1.685,1.073-2.1c0.715-0.415,1.967-0.646,3.758-0.695v-1.783c0-0.756-0.095-1.265-0.286-1.525
		c-0.191-0.261-0.532-0.391-1.024-0.391c-0.469,0-0.805,0.12-1.007,0.36c-0.202,0.24-0.303,0.653-0.303,1.239v0.695h-2.014v-0.342
		c0-1.253,0.246-2.105,0.737-2.558c0.491-0.451,1.364-0.677,2.62-0.677c1.222,0,2.077,0.228,2.562,0.684
		C169.144,87.587,169.387,88.437,169.387,89.682z M167.356,92.649c-1.048,0.032-1.76,0.17-2.137,0.414
		c-0.376,0.244-0.565,0.684-0.565,1.318v2.015c0,0.749,0.098,1.257,0.295,1.526c0.196,0.268,0.546,0.402,1.048,0.402
		c0.491,0,0.844-0.145,1.057-0.434c0.212-0.288,0.319-0.787,0.319-1.495L167.356,92.649z"/>
	<path fill="#2B1C48" d="M178.671,90.024v0.806h-2.112v-1.185c0-0.821-0.074-1.347-0.221-1.574s-0.417-0.342-0.811-0.342
		s-0.666,0.128-0.819,0.385c-0.153,0.256-0.229,0.767-0.229,1.531v6.751c0,0.781,0.079,1.298,0.237,1.55
		c0.158,0.253,0.439,0.379,0.843,0.379c0.382,0,0.644-0.116,0.786-0.348c0.142-0.232,0.213-0.759,0.213-1.581v-1.343h2.112v0.977
		c0,1.384-0.232,2.325-0.696,2.826c-0.464,0.5-1.28,0.75-2.448,0.75c-1.157,0-1.968-0.256-2.432-0.769
		c-0.464-0.513-0.696-1.457-0.696-2.832v-5.981c0-1.392,0.229-2.336,0.688-2.832s1.271-0.744,2.44-0.744
		c1.157,0,1.971,0.254,2.44,0.763S178.671,88.657,178.671,90.024z"/>
	<path fill="#2B1C48" d="M181.226,81.296h2.244V83.2h-2.244V81.296z M181.325,86.753h2.014v12.549h-2.014V86.753z"/>
	<path fill="#2B1C48" d="M193.229,90.024v6.006c0,1.384-0.251,2.325-0.753,2.826c-0.502,0.5-1.392,0.75-2.669,0.75
		c-1.267,0-2.153-0.254-2.661-0.763c-0.508-0.508-0.762-1.454-0.762-2.838v-5.981c0-1.392,0.249-2.336,0.745-2.832
		s1.389-0.744,2.678-0.744c1.266,0,2.153,0.254,2.661,0.763C192.976,87.719,193.229,88.657,193.229,90.024z M191.117,89.645
		c0-0.74-0.099-1.244-0.295-1.514c-0.196-0.268-0.535-0.402-1.015-0.402c-0.491,0-0.838,0.143-1.04,0.428
		c-0.202,0.284-0.303,0.781-0.303,1.488v6.751c0,0.749,0.098,1.257,0.294,1.526c0.197,0.268,0.546,0.402,1.048,0.402
		c0.48,0,0.819-0.139,1.015-0.415s0.295-0.781,0.295-1.514V89.645z"/>
	<path fill="#2B1C48" d="M203.088,89.329v9.973h-2.015v-9.656c0-0.716-0.106-1.214-0.319-1.495c-0.213-0.28-0.576-0.421-1.089-0.421
		c-0.502,0-0.863,0.145-1.081,0.434s-0.327,0.783-0.327,1.482v9.656h-2.014V86.753h1.883l0.131,0.77
		c0.272-0.351,0.619-0.617,1.04-0.8c0.42-0.184,0.903-0.274,1.45-0.274c0.852,0,1.454,0.213,1.81,0.641
		C202.91,87.515,203.088,88.262,203.088,89.329z"/>
	<path fill="#2B1C48" d="M212.749,89.682v9.619h-1.883l-0.131-0.77c-0.273,0.351-0.62,0.617-1.04,0.8
		c-0.421,0.184-0.903,0.274-1.449,0.274c-0.852,0-1.455-0.213-1.81-0.641c-0.354-0.427-0.532-1.174-0.532-2.24v-2.502
		c0-0.984,0.357-1.685,1.072-2.1s1.968-0.646,3.759-0.695v-1.783c0-0.756-0.096-1.265-0.287-1.525
		c-0.19-0.261-0.532-0.391-1.023-0.391c-0.47,0-0.805,0.12-1.007,0.36s-0.303,0.653-0.303,1.239v0.695h-2.015v-0.342
		c0-1.253,0.246-2.105,0.737-2.558c0.491-0.451,1.364-0.677,2.62-0.677c1.223,0,2.077,0.228,2.562,0.684
		C212.506,87.587,212.749,88.437,212.749,89.682z M210.719,92.649c-1.048,0.032-1.761,0.17-2.137,0.414
		c-0.377,0.244-0.565,0.684-0.565,1.318v2.015c0,0.749,0.099,1.257,0.295,1.526c0.196,0.268,0.546,0.402,1.048,0.402
		c0.491,0,0.844-0.145,1.057-0.434c0.213-0.288,0.319-0.787,0.319-1.495L210.719,92.649z"/>
	<path fill="#2B1C48" d="M215.828,81.296h2.015v18.006h-2.015V81.296z"/>
	<path fill="#2B1C48" d="M226.424,81.296h2.08v8.082h3.423v-8.082h2.079v18.006h-2.079v-8.605h-3.423v8.605h-2.08V81.296z"/>
	<path fill="#2B1C48" d="M237.412,86.753h2.015v9.619c0,0.74,0.106,1.251,0.319,1.532c0.213,0.28,0.575,0.421,1.089,0.421
		c0.502,0,0.856-0.145,1.064-0.434c0.207-0.288,0.312-0.795,0.312-1.52v-9.619h2.047v12.549h-1.884l-0.163-0.77
		c-0.273,0.351-0.612,0.613-1.016,0.788c-0.404,0.175-0.879,0.263-1.425,0.263c-0.862,0-1.472-0.212-1.826-0.635
		c-0.354-0.424-0.532-1.164-0.532-2.223V86.753z"/>
	<path fill="#2B1C48" d="M253.51,87.607c0.404-0.423,0.791-0.722,1.163-0.897c0.371-0.175,0.802-0.262,1.293-0.262
		c0.754,0,1.294,0.215,1.622,0.646c0.327,0.432,0.491,1.176,0.491,2.234v9.973h-2.015v-9.656c0-0.716-0.088-1.214-0.262-1.495
		c-0.175-0.28-0.47-0.421-0.885-0.421c-0.426,0-0.734,0.15-0.925,0.451c-0.191,0.302-0.287,0.79-0.287,1.465v9.656h-2.014v-9.656
		c0-0.716-0.085-1.214-0.254-1.495c-0.17-0.28-0.462-0.421-0.876-0.421c-0.426,0-0.734,0.15-0.926,0.451
		c-0.19,0.302-0.286,0.79-0.286,1.465v9.656h-2.015V86.753h1.884l0.131,0.77c0.272-0.358,0.598-0.627,0.975-0.807
		c0.376-0.179,0.799-0.268,1.269-0.268c0.502,0,0.917,0.1,1.245,0.299C253.166,86.946,253.39,87.233,253.51,87.607z"/>
	<path fill="#2B1C48" d="M267.74,89.682v9.619h-1.883l-0.131-0.77c-0.273,0.351-0.62,0.617-1.04,0.8
		c-0.421,0.184-0.903,0.274-1.449,0.274c-0.852,0-1.455-0.213-1.81-0.641c-0.354-0.427-0.532-1.174-0.532-2.24v-2.502
		c0-0.984,0.357-1.685,1.072-2.1s1.968-0.646,3.759-0.695v-1.783c0-0.756-0.096-1.265-0.287-1.525
		c-0.19-0.261-0.532-0.391-1.023-0.391c-0.47,0-0.805,0.12-1.007,0.36s-0.303,0.653-0.303,1.239v0.695h-2.015v-0.342
		c0-1.253,0.246-2.105,0.737-2.558c0.491-0.451,1.364-0.677,2.62-0.677c1.223,0,2.077,0.228,2.562,0.684
		C267.497,87.587,267.74,88.437,267.74,89.682z M265.71,92.649c-1.048,0.032-1.761,0.17-2.137,0.414
		c-0.377,0.244-0.565,0.684-0.565,1.318v2.015c0,0.749,0.099,1.257,0.295,1.526c0.196,0.268,0.546,0.402,1.048,0.402
		c0.491,0,0.844-0.145,1.057-0.434c0.213-0.288,0.319-0.787,0.319-1.495L265.71,92.649z"/>
	<path fill="#2B1C48" d="M277.665,89.329v9.973h-2.015v-9.656c0-0.716-0.106-1.214-0.319-1.495c-0.213-0.28-0.576-0.421-1.089-0.421
		c-0.502,0-0.862,0.145-1.081,0.434s-0.327,0.783-0.327,1.482v9.656h-2.015V86.753h1.884l0.131,0.77
		c0.272-0.351,0.619-0.617,1.04-0.8c0.42-0.184,0.903-0.274,1.449-0.274c0.852,0,1.454,0.213,1.81,0.641
		C277.487,87.515,277.665,88.262,277.665,89.329z"/>
	<path fill="#2B1C48" d="M280.646,81.296h2.243V83.2h-2.243V81.296z M280.743,86.753h2.015v12.549h-2.015V86.753z"/>
	<path fill="#2B1C48" d="M287.981,83.372v3.381h1.54v1.27h-1.54v9.326c0,0.35,0.091,0.592,0.271,0.727
		c0.181,0.134,0.505,0.201,0.975,0.201h0.295v1.307c-0.12,0.008-0.243,0.014-0.369,0.018c-0.125,0.004-0.303,0.006-0.532,0.006
		c-1.026,0-1.725-0.185-2.096-0.555s-0.557-1.194-0.557-2.473v-8.557h-1.098v-1.27h1.098v-2.771L287.981,83.372z"/>
	<path fill="#2B1C48" d="M298.118,89.682v9.619h-1.883l-0.131-0.77c-0.273,0.351-0.62,0.617-1.04,0.8
		c-0.421,0.184-0.903,0.274-1.449,0.274c-0.852,0-1.455-0.213-1.81-0.641c-0.354-0.427-0.532-1.174-0.532-2.24v-2.502
		c0-0.984,0.357-1.685,1.072-2.1s1.968-0.646,3.759-0.695v-1.783c0-0.756-0.096-1.265-0.287-1.525
		c-0.19-0.261-0.532-0.391-1.023-0.391c-0.47,0-0.805,0.12-1.007,0.36s-0.303,0.653-0.303,1.239v0.695h-2.015v-0.342
		c0-1.253,0.246-2.105,0.737-2.558c0.491-0.451,1.364-0.677,2.62-0.677c1.223,0,2.077,0.228,2.562,0.684
		C297.875,87.587,298.118,88.437,298.118,89.682z M296.088,92.649c-1.048,0.032-1.761,0.17-2.137,0.414
		c-0.377,0.244-0.565,0.684-0.565,1.318v2.015c0,0.749,0.099,1.257,0.295,1.526c0.196,0.268,0.546,0.402,1.048,0.402
		c0.491,0,0.844-0.145,1.057-0.434c0.213-0.288,0.319-0.787,0.319-1.495L296.088,92.649z"/>
	<path fill="#2B1C48" d="M305.93,86.471v1.526h-0.344c-0.862,0-1.474,0.161-1.834,0.482s-0.54,0.877-0.54,1.666v9.155h-2.015V86.753
		h1.884l0.131,0.77c0.283-0.342,0.63-0.606,1.04-0.794c0.409-0.188,0.854-0.28,1.334-0.28c0.033,0,0.088,0.004,0.164,0.012
		S305.887,86.471,305.93,86.471z"/>
	<path fill="#2B1C48" d="M307.273,81.296h2.243V83.2h-2.243V81.296z M307.371,86.753h2.015v12.549h-2.015V86.753z"/>
	<path fill="#2B1C48" d="M319.277,90.024v6.006c0,1.384-0.252,2.325-0.754,2.826c-0.502,0.5-1.392,0.75-2.669,0.75
		c-1.267,0-2.153-0.254-2.661-0.763c-0.508-0.508-0.762-1.454-0.762-2.838v-5.981c0-1.392,0.248-2.336,0.745-2.832
		s1.39-0.744,2.678-0.744c1.267,0,2.153,0.254,2.661,0.763S319.277,88.657,319.277,90.024z M317.164,89.645
		c0-0.74-0.098-1.244-0.294-1.514c-0.197-0.268-0.535-0.402-1.016-0.402c-0.491,0-0.838,0.143-1.04,0.428
		c-0.202,0.284-0.303,0.781-0.303,1.488v6.751c0,0.749,0.098,1.257,0.295,1.526c0.196,0.268,0.546,0.402,1.048,0.402
		c0.48,0,0.818-0.139,1.016-0.415c0.196-0.276,0.294-0.781,0.294-1.514V89.645z"/>
	<path fill="#2B1C48" d="M330.479,81.028h1.572c-0.731,1.969-1.277,3.849-1.638,5.639c-0.36,1.791-0.54,3.536-0.54,5.237
		c0,1.692,0.18,3.437,0.54,5.23c0.36,1.795,0.906,3.677,1.638,5.646h-1.572c-0.917-1.839-1.604-3.666-2.063-5.48
		c-0.458-1.814-0.688-3.613-0.688-5.396s0.229-3.583,0.688-5.401C328.874,84.683,329.562,82.858,330.479,81.028z"/>
	<path fill="#2B1C48" d="M334.735,81.296h2.44c2.063,0,3.411,0.243,4.045,0.727c0.633,0.484,0.949,1.594,0.949,3.326v9.9
		c0,1.726-0.321,2.832-0.966,3.32s-1.987,0.732-4.028,0.732h-2.44V81.296z M336.815,82.627v15.345h0.672
		c1.004,0,1.667-0.124,1.989-0.373c0.322-0.248,0.483-0.795,0.483-1.642V84.677c0-0.854-0.164-1.41-0.491-1.666
		c-0.328-0.257-0.988-0.385-1.981-0.385H336.815z"/>
	<path fill="#2B1C48" d="M345.838,81.296h2.211v18.006h-2.211V81.296z"/>
	<path fill="#2B1C48" d="M351.733,81.296h2.08v8.082h3.423v-8.082h2.079v18.006h-2.079v-8.605h-3.423v8.605h-2.08V81.296z"/>
	<path fill="#2B1C48" d="M361.985,81.028h1.604c0.917,1.83,1.604,3.655,2.063,5.475c0.458,1.818,0.688,3.619,0.688,5.401
		c0,1.774-0.229,3.57-0.688,5.39c-0.459,1.818-1.146,3.647-2.063,5.486h-1.604c0.742-1.993,1.291-3.883,1.646-5.67
		c0.354-1.786,0.532-3.521,0.532-5.206s-0.178-3.42-0.532-5.206S362.728,83.021,361.985,81.028z"/>
	<path fill="#2B1C48" d="M369.566,97.324h2.31v1.978h-2.31V97.324z"/>
</g>
</svg>
