<?xml version="1.0" encoding="utf-8"?>
<!-- Generator: Adobe Illustrator 16.0.0, SVG Export Plug-In . SVG Version: 6.00 Build 0)  -->
<!DOCTYPE svg PUBLIC "-//W3C//DTD SVG 1.1//EN" "http://www.w3.org/Graphics/SVG/1.1/DTD/svg11.dtd">
<svg version="1.1" id="Capa_1" xmlns="http://www.w3.org/2000/svg" xmlns:xlink="http://www.w3.org/1999/xlink" x="0px" y="0px"
	 width="458.551px" height="111.431px" viewBox="0 0 458.551 111.431" enable-background="new 0 0 458.551 111.431"
	 xml:space="preserve">
<polygon opacity="0.7" fill="#FFFFFF" points="458.551,7.65 0,0 0,111.431 414.549,111.38 "/>
<g>
	<path fill="#3EA4DD" d="M48.738,36.252h5.973c3.079,0,5.162,0.321,6.25,0.964s1.632,1.798,1.632,3.465v7.665
		c0,1.408-0.359,2.402-1.078,2.983c-0.719,0.582-1.99,0.934-3.817,1.056c1.95,0.092,3.305,0.429,4.064,1.01
		c0.759,0.582,1.139,1.591,1.139,3.029v13.678h-4.156V57.457c0-1.591-0.303-2.624-0.908-3.098c-0.605-0.474-1.853-0.711-3.74-0.711
		h-1.447v16.455h-3.91V36.252z M52.648,38.753v12.37h1.386c1.785,0,2.976-0.233,3.571-0.7c0.595-0.467,0.893-1.503,0.893-3.11
		v-4.705c0-1.622-0.298-2.669-0.893-3.144c-0.596-0.474-1.786-0.711-3.571-0.711H52.648z"/>
	<path fill="#3EA4DD" d="M69.549,36.252h4.095v27.401c0,1.76,0.226,2.945,0.678,3.557c0.451,0.612,1.251,0.918,2.401,0.918
		c1.128,0,1.913-0.306,2.354-0.918c0.441-0.612,0.662-1.797,0.662-3.557V36.252h4.095v26.942c0,2.907-0.523,4.881-1.57,5.921
		s-2.914,1.561-5.603,1.561c-2.648,0-4.495-0.528-5.542-1.583s-1.57-3.021-1.57-5.898V36.252z"/>
	<path fill="#3EA4DD" d="M87.744,36.252h13.331v2.685h-4.68v31.165h-3.972V38.937h-4.68V36.252z"/>
	<path fill="#3EA4DD" d="M109.017,36.252h5.727l6.558,33.85h-4.218l-1.57-9.409h-7.45l-1.693,9.409h-4.125L109.017,36.252z
		 M111.726,38.753l-3.294,19.461h6.558l-3.079-19.461H111.726z"/>
	<path fill="#3EA4DD" d="M135.092,36.252h4.588c3.879,0,6.413,0.456,7.604,1.366s1.786,2.995,1.786,6.253v18.612
		c0,3.244-0.605,5.324-1.816,6.242s-3.736,1.377-7.573,1.377h-4.588V36.252z M139.002,38.753v28.847h1.263
		c1.888,0,3.135-0.233,3.74-0.7s0.908-1.496,0.908-3.087V42.609c0-1.606-0.308-2.65-0.924-3.133
		c-0.615-0.481-1.857-0.723-3.725-0.723H139.002z"/>
	<path fill="#3EA4DD" d="M155.965,36.252h10.837v2.685h-6.927v12.186h6.619v2.662h-6.619v13.632h7.111v2.685h-11.021V36.252z"/>
	<path fill="#331842" d="M182.256,36.252h5.357l6.496,31.831h0.062l-0.585-31.831h3.54v33.85h-5.418l-6.435-31.395h-0.123
		l0.554,31.395h-3.448V36.252z"/>
	<path fill="#331842" d="M207.994,36.252h5.727l6.558,33.85h-4.218l-1.57-9.409h-7.45l-1.693,9.409h-4.125L207.994,36.252z
		 M210.703,38.753l-3.294,19.461h6.558l-3.079-19.461H210.703z"/>
	<path fill="#331842" d="M221.847,36.252h3.972l4.218,30.477h0.431l3.972-30.477h3.726l-4.926,33.85h-6.096L221.847,36.252z"/>
	<path fill="#331842" d="M242.659,36.252h10.837v2.685h-6.927v12.186h6.619v2.662h-6.619v13.632h7.111v2.685h-11.021V36.252z"/>
	<path fill="#331842" d="M273.692,43.16v1.744h-4.095v-2.203c0-1.713-0.241-2.888-0.724-3.522s-1.319-0.953-2.509-0.953
		c-1.15,0-1.961,0.329-2.433,0.987c-0.473,0.658-0.708,1.821-0.708,3.488v20.907c0,1.79,0.258,2.999,0.773,3.626
		c0.516,0.627,1.434,0.941,2.753,0.941c0.392,0,0.825-0.026,1.3-0.08c0.474-0.054,0.989-0.134,1.547-0.241l0.03-11.888h-3.51v-2.501
		h7.574v16.064c-1.252,0.383-2.474,0.669-3.664,0.861c-1.19,0.191-2.391,0.287-3.602,0.287c-2.709,0-4.603-0.532-5.681-1.595
		c-1.077-1.063-1.616-3.025-1.616-5.886V43.16c0-2.846,0.534-4.792,1.602-5.841c1.066-1.047,2.965-1.572,5.695-1.572
		c2.709,0,4.597,0.516,5.664,1.549C273.158,38.329,273.692,40.284,273.692,43.16z"/>
	<path fill="#331842" d="M284.343,36.252h5.727l6.558,33.85h-4.218l-1.57-9.409h-7.45l-1.693,9.409h-4.125L284.343,36.252z
		 M287.052,38.753l-3.294,19.461h6.558l-3.079-19.461H287.052z"/>
	<path fill="#331842" d="M313.775,41.622v3.236h-4.125v-3.144c0-1.315-0.19-2.226-0.57-2.731s-1.052-0.757-2.016-0.757
		c-0.883,0-1.499,0.287-1.848,0.861c-0.35,0.573-0.523,1.778-0.523,3.614v20.953c0,1.882,0.185,3.106,0.555,3.672
		c0.369,0.566,1.046,0.849,2.031,0.849c0.842,0,1.447-0.268,1.816-0.803c0.37-0.535,0.555-1.446,0.555-2.731v-3.649h4.125v3.764
		c0,2.311-0.482,3.875-1.447,4.693c-0.965,0.818-2.688,1.228-5.172,1.228c-2.442,0-4.146-0.528-5.11-1.583s-1.447-3.021-1.447-5.898
		V43.16c0-2.861,0.482-4.812,1.447-5.852c0.965-1.04,2.668-1.561,5.11-1.561c2.504,0,4.233,0.406,5.188,1.216
		C313.297,37.774,313.775,39.327,313.775,41.622z"/>
	<path fill="#331842" d="M318.885,36.252h4.156v33.85h-4.156V36.252z"/>
	<path fill="#331842" d="M344.069,43.16v20.035c0,2.907-0.523,4.881-1.57,5.921s-2.914,1.561-5.603,1.561
		c-2.648,0-4.495-0.528-5.542-1.583s-1.57-3.021-1.57-5.898V43.16c0-2.846,0.528-4.792,1.586-5.841
		c1.057-1.047,2.919-1.572,5.588-1.572c2.667,0,4.52,0.521,5.557,1.561C343.55,38.348,344.069,40.299,344.069,43.16z
		 M339.974,42.701c0-1.713-0.226-2.888-0.677-3.522c-0.452-0.635-1.253-0.953-2.401-0.953c-1.13,0-1.914,0.31-2.355,0.929
		c-0.441,0.62-0.662,1.802-0.662,3.546v20.953c0,1.76,0.226,2.945,0.678,3.557c0.451,0.612,1.251,0.918,2.401,0.918
		c1.128,0,1.913-0.306,2.354-0.918c0.441-0.612,0.662-1.797,0.662-3.557V42.701z M337.912,28.059h4.341l-4.033,5.118h-3.017
		L337.912,28.059z"/>
	<path fill="#331842" d="M350.964,36.252h5.357l6.496,31.831h0.062l-0.585-31.831h3.54v33.85h-5.418l-6.435-31.395h-0.123
		l0.554,31.395h-3.448V36.252z"/>
</g>
</svg>
