<?xml version="1.0" encoding="utf-8"?>
<!-- Generator: Adobe Illustrator 16.0.0, SVG Export Plug-In . SVG Version: 6.00 Build 0)  -->
<!DOCTYPE svg PUBLIC "-//W3C//DTD SVG 1.1//EN" "http://www.w3.org/Graphics/SVG/1.1/DTD/svg11.dtd">
<svg version="1.1" id="Capa_1" xmlns="http://www.w3.org/2000/svg" xmlns:xlink="http://www.w3.org/1999/xlink" x="0px" y="0px"
	 width="206.121px" height="48.68px" viewBox="0 0 206.121 48.68" enable-background="new 0 0 206.121 48.68" xml:space="preserve">
<g>
	<polygon fill="#F2961C" points="206.121,48.68 65.341,48.68 38.92,3.89 192.271,0 193.631,4.77 	"/>
	<polygon fill="#A0C219" points="65.341,48.68 8.561,48.68 0,4.77 38.92,3.89 	"/>
	<g>
		<path fill="#FFFFFF" d="M91.639,22.122v7.337c0,3.089-0.466,5.213-1.397,6.372c-0.933,1.158-2.588,1.737-4.967,1.737
			c-2.389,0-4.047-0.573-4.974-1.722c-0.927-1.148-1.39-3.277-1.39-6.387v-7.337c0-3.079,0.463-5.192,1.39-6.342
			c0.927-1.147,2.585-1.722,4.974-1.722c2.39,0,4.047,0.574,4.974,1.722C91.176,16.93,91.639,19.043,91.639,22.122z M86.959,21.087
			c0-1.473-0.121-2.427-0.362-2.865c-0.242-0.438-0.683-0.656-1.321-0.656c-0.628,0-1.065,0.228-1.312,0.681
			c-0.247,0.452-0.371,1.399-0.371,2.842v9.422c0,1.462,0.121,2.412,0.363,2.85c0.242,0.438,0.682,0.656,1.32,0.656
			c0.628,0,1.066-0.224,1.313-0.672s0.37-1.393,0.37-2.834V21.087z"/>
		<path fill="#FFFFFF" d="M105.434,25.412v7.63c0,1.535-0.273,2.672-0.818,3.414c-0.547,0.741-1.381,1.111-2.503,1.111
			c-0.659,0-1.243-0.18-1.753-0.541c-0.51-0.36-0.971-0.922-1.383-1.684v7.847h-4.464V21.303h4.341l0.123,1.838
			c0.412-0.762,0.873-1.323,1.383-1.684c0.51-0.36,1.094-0.541,1.753-0.541c1.122,0,1.957,0.368,2.503,1.104
			C105.16,22.758,105.434,23.888,105.434,25.412z M100.938,26.076c0-0.731-0.072-1.236-0.216-1.515
			c-0.145-0.277-0.392-0.417-0.741-0.417c-0.361,0-0.618,0.146-0.772,0.44c-0.155,0.293-0.232,0.791-0.232,1.491v6.333
			c0,0.689,0.075,1.184,0.225,1.482c0.148,0.299,0.398,0.448,0.749,0.448c0.36,0,0.615-0.134,0.765-0.401
			c0.15-0.267,0.224-0.776,0.224-1.528v-6.334H100.938z"/>
		<path fill="#FFFFFF" d="M119.088,25.891v0.695h-4.341v-0.958c0-0.711-0.095-1.22-0.285-1.529c-0.19-0.309-0.508-0.463-0.95-0.463
			c-0.412,0-0.703,0.162-0.873,0.486s-0.255,0.903-0.255,1.737v6.767c0,0.854,0.082,1.437,0.247,1.746
			c0.165,0.309,0.448,0.463,0.85,0.463c0.422,0,0.72-0.16,0.89-0.479c0.17-0.318,0.255-0.896,0.255-1.729v-1.268h4.464v1.236
			c0,1.75-0.431,3.017-1.29,3.8s-2.253,1.174-4.178,1.174c-2.153,0-3.641-0.504-4.465-1.514c-0.823-1.009-1.235-2.878-1.235-5.607
			v-2.409c0-2.729,0.412-4.599,1.235-5.607c0.824-1.009,2.312-1.514,4.465-1.514c1.925,0,3.316,0.389,4.178,1.167
			C118.657,22.861,119.088,24.13,119.088,25.891z"/>
		<path fill="#FFFFFF" d="M121.389,14.399h4.463v3.677h-4.463V14.399z M121.389,21.303h4.463v15.879h-4.463V21.303z"/>
		<path fill="#FFFFFF" d="M139.616,28.038v2.409c0,2.708-0.407,4.572-1.222,5.592c-0.813,1.019-2.266,1.528-4.354,1.528
			c-2.091,0-3.545-0.51-4.364-1.528c-0.818-1.021-1.228-2.884-1.228-5.592v-2.409c0-2.708,0.405-4.572,1.221-5.593
			c0.812-1.02,2.261-1.528,4.34-1.528c2.101,0,3.562,0.507,4.38,1.521C139.207,23.453,139.616,25.319,139.616,28.038z
			 M135.152,25.86c0-0.844-0.084-1.426-0.248-1.746c-0.164-0.318-0.453-0.479-0.864-0.479c-0.412,0-0.703,0.162-0.873,0.486
			s-0.255,0.903-0.255,1.737v6.767c0,0.854,0.082,1.437,0.247,1.746c0.165,0.309,0.448,0.463,0.85,0.463
			c0.423,0,0.72-0.16,0.89-0.479c0.17-0.318,0.254-0.896,0.254-1.729V25.86L135.152,25.86z"/>
		<path fill="#FFFFFF" d="M153.132,25.597v11.585h-4.495V26.076c0-0.731-0.072-1.236-0.216-1.515
			c-0.146-0.277-0.392-0.417-0.741-0.417c-0.361,0-0.617,0.146-0.771,0.44c-0.155,0.293-0.232,0.791-0.232,1.491v11.105h-4.464
			V21.303h4.341l0.123,1.838c0.516-0.762,1.049-1.323,1.6-1.684s1.146-0.541,1.783-0.541c1.133,0,1.93,0.335,2.387,1.004
			C152.902,22.591,153.132,23.816,153.132,25.597z"/>
		<path fill="#FFFFFF" d="M166.863,28.038v1.899h-6.704v2.688c0,0.834,0.085,1.411,0.255,1.729c0.17,0.319,0.461,0.479,0.873,0.479
			c0.463,0,0.79-0.163,0.98-0.487c0.189-0.324,0.285-0.897,0.285-1.722v-0.572h4.311v0.541c0,1.75-0.434,3.017-1.299,3.8
			c-0.864,0.783-2.254,1.174-4.17,1.174c-2.143,0-3.627-0.507-4.457-1.521c-0.828-1.014-1.242-2.881-1.242-5.6v-2.409
			c0-2.708,0.406-4.572,1.221-5.593c0.812-1.02,2.26-1.528,4.34-1.528c2.121,0,3.586,0.5,4.395,1.499
			C166.46,23.416,166.863,25.289,166.863,28.038z M162.553,25.798c0-0.886-0.091-1.499-0.271-1.838
			c-0.181-0.34-0.486-0.51-0.919-0.51c-0.443,0-0.756,0.167-0.936,0.502c-0.181,0.335-0.271,0.949-0.271,1.846v1.605h2.395
			L162.553,25.798L162.553,25.798z"/>
		<path fill="#FFFFFF" d="M179.838,25.35v0.604h-4.107v-0.727c0-0.659-0.086-1.094-0.256-1.305s-0.477-0.316-0.918-0.316
			c-0.341,0-0.591,0.09-0.75,0.271c-0.16,0.18-0.238,0.451-0.238,0.811v0.479c0,0.381,0.119,0.71,0.361,0.987
			c0.242,0.278,0.744,0.623,1.506,1.035l2.18,1.144c0.854,0.453,1.494,1.026,1.923,1.722c0.427,0.695,0.642,1.511,0.642,2.448v0.817
			c0,1.474-0.459,2.55-1.375,3.229s-2.373,1.02-4.371,1.02c-1.947,0-3.277-0.345-3.992-1.034c-0.717-0.689-1.074-2.003-1.074-3.938
			v-0.51h3.955v1.081c0,0.648,0.098,1.094,0.293,1.336s0.551,0.363,1.064,0.363c0.443,0,0.76-0.104,0.95-0.31
			s0.286-0.556,0.286-1.05V32.95c0-0.484-0.132-0.914-0.395-1.29s-0.651-0.688-1.166-0.936l-2.055-1.035
			c-1.123-0.565-1.902-1.132-2.341-1.698c-0.438-0.567-0.655-1.268-0.655-2.102v-1.205c0-1.184,0.479-2.107,1.437-2.771
			c0.958-0.665,2.302-0.997,4.03-0.997c1.824,0,3.123,0.337,3.9,1.012C179.449,22.604,179.838,23.744,179.838,25.35z"/>
	</g>
	<g>
		<path fill="#FFFFFF" d="M26.499,40.122c-2.733,0.007-5.467,0.017-8.2,0.023c-0.333-0.147-0.409-0.438-0.409-0.758
			c-0.001-3.918,0.002-7.833-0.013-11.75c0-0.311,0.178-0.448,0.367-0.609c2.363-1.983,4.728-3.964,7.092-5.947
			c1.256-1.055,2.524-2.097,3.766-3.169c0.305-0.266,0.491-0.281,0.796-0.008c2.699,2.419,5.409,4.826,8.117,7.237
			c0.7,0.624,1.396,1.254,2.104,1.865c0.251,0.217,0.366,0.447,0.366,0.79c-0.011,3.719-0.007,7.434-0.009,11.153
			c0,0.995-0.219,1.203-1.2,1.203c-2.31,0-4.62-0.007-6.93,0.012c-0.411,0.003-0.515-0.114-0.509-0.517
			c0.02-1.915,0.009-3.826,0.007-5.738c0-0.939-0.32-1.256-1.274-1.259c-0.992-0.004-1.986-0.004-2.979,0
			c-0.789,0.004-1.063,0.278-1.067,1.084c-0.005,2.02,0,4.042-0.001,6.062C26.523,39.905,26.506,40.014,26.499,40.122z"/>
		<path fill="#FFFFFF" d="M43.587,27.156c-0.794-0.029-1.472-0.367-2.044-0.879c-3.528-3.146-7.037-6.308-10.556-9.463
			c-0.176-0.157-0.356-0.305-0.53-0.461c-0.86-0.769-0.851-0.76-1.714-0.026c-4.008,3.394-8.017,6.78-12.024,10.17
			c-0.376,0.316-0.789,0.57-1.271,0.697c-0.402,0.106-0.787,0.062-1.156-0.127c-0.683-0.349-0.727-0.601-0.165-1.097
			c5.049-4.446,10.102-8.886,15.143-13.343c0.296-0.26,0.449-0.209,0.709,0.026c4.873,4.426,9.754,8.843,14.636,13.259
			c0.531,0.479,0.516,0.644-0.094,1.012C44.234,27.096,43.923,27.173,43.587,27.156z"/>
		<path fill="#FFFFFF" d="M41.362,21.938c-0.819-0.693-1.499-1.336-2.248-1.877c-0.68-0.493-0.976-1.056-0.881-1.907
			c0.082-0.729,0.02-1.478-0.002-2.218c-0.009-0.297,0.078-0.413,0.393-0.407c0.774,0.021,1.552,0.018,2.326,0.005
			c0.291-0.009,0.422,0.062,0.42,0.387C41.357,17.867,41.362,19.815,41.362,21.938z"/>
	</g>
</g>
</svg>
