<?xml version="1.0" encoding="utf-8"?>
<!-- Generator: Adobe Illustrator 16.0.0, SVG Export Plug-In . SVG Version: 6.00 Build 0)  -->
<!DOCTYPE svg PUBLIC "-//W3C//DTD SVG 1.1//EN" "http://www.w3.org/Graphics/SVG/1.1/DTD/svg11.dtd">
<svg version="1.1" id="Capa_1" xmlns="http://www.w3.org/2000/svg" xmlns:xlink="http://www.w3.org/1999/xlink" x="0px" y="0px"
	 width="661.969px" height="48.682px" viewBox="0 0 661.969 48.682" enable-background="new 0 0 661.969 48.682"
	 xml:space="preserve">
<g>
	<polygon fill="#F2961C" points="350.013,49.092 55.596,49.092 -0.415,0.412 386.023,0.412 	"/>
</g>
<g>
	<polygon fill="#A0C219" points="397.089,0.413 605.545,0.413 661.556,49.093 361.08,49.093 	"/>
</g>
<g>
	<path fill="#FFFFFF" d="M399.442,13.527h5.698c2.235,0,3.839,0.412,4.812,1.235c0.973,0.824,1.459,2.173,1.459,4.047v0.958
		c0,1.637-0.351,2.854-1.05,3.646c-0.701,0.793-1.859,1.308-3.477,1.545c1.679,0.144,2.854,0.634,3.521,1.468
		s1.004,2.266,1.004,4.293v5.592h-4.695v-6.996c0-1.144-0.157-1.867-0.472-2.171c-0.313-0.304-0.944-0.456-1.893-0.456h-0.51v9.623
		h-4.401V13.527H399.442z M403.844,16.925v6.41h0.417c0.916,0,1.55-0.188,1.899-0.563c0.351-0.376,0.524-1.053,0.524-2.03v-1.221
		c0-0.979-0.175-1.654-0.524-2.031c-0.351-0.376-0.983-0.563-1.899-0.563L403.844,16.925L403.844,16.925z"/>
	<path fill="#FFFFFF" d="M414.657,20.431h4.494v11.106c0,0.752,0.071,1.262,0.217,1.528c0.144,0.269,0.396,0.401,0.757,0.401
		c0.35,0,0.603-0.148,0.757-0.447s0.231-0.793,0.231-1.482V20.431h4.464v15.878h-4.34l-0.124-1.838
		c-0.516,0.762-1.048,1.324-1.6,1.684c-0.551,0.361-1.146,0.541-1.784,0.541c-1.133,0-1.928-0.335-2.387-1.004
		c-0.458-0.67-0.687-1.899-0.687-3.69L414.657,20.431L414.657,20.431z"/>
	<path fill="#FFFFFF" d="M433.208,16.353v4.078h2.055v2.688h-2.055v8.062c0,0.896,0.083,1.485,0.247,1.77
		c0.165,0.282,0.459,0.426,0.881,0.426c0.165,0,0.34-0.015,0.525-0.039c0.185-0.025,0.411-0.07,0.68-0.131v3.135
		c-0.618,0.113-1.159,0.201-1.622,0.263c-0.464,0.062-0.86,0.093-1.188,0.093c-1.546,0-2.596-0.329-3.151-0.987
		c-0.556-0.659-0.834-2.07-0.834-4.232v-8.356h-1.685v-2.688h1.685v-2.348L433.208,16.353z"/>
	<path fill="#FFFFFF" d="M447.897,24.663v11.646h-4.264l-0.186-1.838c-0.494,0.772-1.007,1.336-1.537,1.691
		c-0.53,0.354-1.114,0.532-1.753,0.532c-1.153,0-2.006-0.371-2.558-1.111c-0.551-0.741-0.825-1.879-0.825-3.413v-1.9
		c0-1.38,0.497-2.389,1.489-3.026c0.994-0.64,2.723-1.035,5.184-1.189v-1.097c0-0.865-0.077-1.447-0.231-1.746
		c-0.154-0.298-0.417-0.448-0.788-0.448c-0.423,0-0.724,0.144-0.902,0.433c-0.182,0.288-0.271,0.788-0.271,1.498v0.264h-3.954
		v-0.293c0-1.74,0.383-2.945,1.15-3.615c0.767-0.669,2.145-1.004,4.132-1.004c2.019,0,3.408,0.332,4.171,0.997
		C447.516,21.705,447.897,22.913,447.897,24.663z M443.449,28.757c-0.845,0.082-1.421,0.27-1.73,0.563
		c-0.309,0.293-0.463,0.789-0.463,1.49v1.035c0,0.793,0.082,1.333,0.247,1.621c0.165,0.289,0.442,0.433,0.834,0.433
		c0.401,0,0.688-0.148,0.857-0.447c0.169-0.3,0.255-0.834,0.255-1.605V28.757z"/>
	<path fill="#FFFFFF" d="M463.884,13.527h4.448V36.31h-4.325l-0.123-1.838c-0.423,0.762-0.889,1.324-1.397,1.684
		c-0.511,0.361-1.089,0.541-1.737,0.541c-1.122,0-1.957-0.37-2.502-1.111c-0.546-0.741-0.819-1.879-0.819-3.413V24.54
		c0-1.524,0.271-2.654,0.812-3.392c0.54-0.735,1.377-1.104,2.51-1.104c0.639,0,1.21,0.178,1.715,0.533
		c0.504,0.354,0.979,0.919,1.421,1.69v-8.742H463.884z M463.884,25.204c0-0.7-0.08-1.197-0.239-1.491
		c-0.159-0.293-0.42-0.44-0.779-0.44c-0.34,0-0.582,0.14-0.727,0.417c-0.145,0.278-0.217,0.783-0.217,1.515v6.333
		c0,0.752,0.072,1.262,0.217,1.528c0.145,0.269,0.396,0.401,0.757,0.401c0.351,0,0.603-0.148,0.758-0.447
		c0.153-0.299,0.23-0.793,0.23-1.482V25.204L463.884,25.204z"/>
	<path fill="#FFFFFF" d="M482.095,27.166v1.898h-6.704v2.688c0,0.834,0.085,1.412,0.255,1.729c0.171,0.319,0.462,0.479,0.873,0.479
		c0.464,0,0.79-0.162,0.98-0.486s0.286-0.897,0.286-1.723v-0.571h4.31v0.541c0,1.751-0.433,3.017-1.298,3.8s-2.255,1.174-4.17,1.174
		c-2.143,0-3.628-0.508-4.457-1.521s-1.243-2.881-1.243-5.6v-2.409c0-2.708,0.406-4.572,1.222-5.592
		c0.812-1.021,2.26-1.529,4.34-1.529c2.121,0,3.586,0.5,4.395,1.499C481.692,22.544,482.095,24.416,482.095,27.166z M477.786,24.927
		c0-0.886-0.091-1.499-0.271-1.839s-0.485-0.51-0.919-0.51c-0.442,0-0.755,0.167-0.935,0.502c-0.181,0.335-0.271,0.949-0.271,1.847
		v1.604h2.396L477.786,24.927L477.786,24.927z"/>
	<path fill="#FFFFFF" d="M491.935,13.527h6.147l3.383,19.277h0.31l-0.341-19.277h3.831V36.31h-6.209l-3.32-19.292h-0.31l0.31,19.292
		h-3.801V13.527L491.935,13.527z"/>
	<path fill="#FFFFFF" d="M519.012,24.663v11.646h-4.263l-0.186-1.838c-0.494,0.772-1.008,1.336-1.537,1.691
		c-0.53,0.354-1.114,0.532-1.753,0.532c-1.153,0-2.007-0.371-2.558-1.111c-0.551-0.741-0.826-1.879-0.826-3.413v-1.9
		c0-1.38,0.497-2.389,1.49-3.026c0.994-0.64,2.723-1.035,5.184-1.189v-1.097c0-0.865-0.077-1.447-0.231-1.746
		c-0.155-0.298-0.417-0.448-0.788-0.448c-0.423,0-0.724,0.144-0.903,0.433c-0.181,0.288-0.271,0.788-0.271,1.498v0.264h-3.954
		v-0.293c0-1.74,0.383-2.945,1.15-3.615c0.767-0.669,2.145-1.004,4.132-1.004c2.019,0,3.408,0.332,4.171,0.997
		C518.631,21.705,519.012,22.913,519.012,24.663z M514.564,28.757c-0.846,0.082-1.422,0.27-1.73,0.563
		c-0.309,0.293-0.463,0.789-0.463,1.49v1.035c0,0.793,0.082,1.333,0.247,1.621c0.165,0.289,0.441,0.433,0.834,0.433
		c0.4,0,0.688-0.148,0.856-0.447c0.169-0.3,0.256-0.834,0.256-1.605V28.757z"/>
	<path fill="#FFFFFF" d="M520.433,20.431h4.248l1.421,10.875h0.154l1.685-10.875h3.723l-3.197,15.878h-4.711L520.433,20.431z"/>
	<path fill="#FFFFFF" d="M544.19,27.166v1.898h-6.704v2.688c0,0.834,0.085,1.412,0.255,1.729c0.17,0.319,0.461,0.479,0.873,0.479
		c0.463,0,0.79-0.162,0.979-0.486c0.19-0.324,0.286-0.897,0.286-1.723v-0.571h4.311v0.541c0,1.751-0.434,3.017-1.299,3.8
		c-0.864,0.783-2.255,1.174-4.17,1.174c-2.143,0-3.628-0.508-4.457-1.521c-0.828-1.013-1.242-2.881-1.242-5.6v-2.409
		c0-2.708,0.405-4.572,1.221-5.592c0.812-1.021,2.26-1.529,4.34-1.529c2.121,0,3.586,0.5,4.396,1.499
		C543.787,22.544,544.19,24.416,544.19,27.166z M539.88,24.927c0-0.886-0.091-1.499-0.271-1.839c-0.182-0.34-0.486-0.51-0.919-0.51
		c-0.443,0-0.756,0.167-0.936,0.502c-0.181,0.335-0.271,0.949-0.271,1.847v1.604h2.395L539.88,24.927L539.88,24.927z"/>
	<path fill="#FFFFFF" d="M553.149,22.269l0.123-1.838h4.324V37.36c0,1.957-0.394,3.31-1.182,4.056
		c-0.787,0.746-2.206,1.12-4.255,1.12c-1.916,0-3.301-0.341-4.155-1.021s-1.282-1.782-1.282-3.306v-0.293h4.464v0.229
		c0,0.547,0.077,0.961,0.231,1.244c0.155,0.283,0.381,0.425,0.68,0.425c0.381,0,0.651-0.162,0.812-0.486
		c0.159-0.324,0.239-0.888,0.239-1.69v-3.893c-0.443,0.771-0.917,1.333-1.422,1.684s-1.097,0.524-1.775,0.524
		c-1.104,0-1.921-0.37-2.456-1.111c-0.536-0.742-0.804-1.874-0.804-3.398V24.54c0-1.524,0.271-2.654,0.812-3.392
		c0.54-0.735,1.377-1.104,2.51-1.104c0.64,0,1.21,0.178,1.716,0.533C552.232,20.933,552.706,21.497,553.149,22.269z M553.149,25.204
		c0-0.7-0.08-1.197-0.239-1.491c-0.16-0.293-0.42-0.44-0.78-0.44c-0.34,0-0.582,0.14-0.726,0.417
		c-0.146,0.278-0.218,0.783-0.218,1.515v5.606c0,0.741,0.072,1.248,0.218,1.521c0.144,0.271,0.396,0.409,0.757,0.409
		c0.35,0,0.602-0.149,0.757-0.448c0.154-0.299,0.231-0.793,0.231-1.482V25.204z"/>
	<path fill="#FFFFFF" d="M571.066,24.663v11.646h-4.264l-0.186-1.838c-0.494,0.772-1.007,1.336-1.537,1.691
		c-0.53,0.354-1.114,0.532-1.753,0.532c-1.153,0-2.006-0.371-2.557-1.111c-0.552-0.741-0.826-1.879-0.826-3.413v-1.9
		c0-1.38,0.497-2.389,1.489-3.026c0.994-0.64,2.723-1.035,5.184-1.189v-1.097c0-0.865-0.077-1.447-0.231-1.746
		c-0.154-0.298-0.417-0.448-0.788-0.448c-0.423,0-0.724,0.144-0.902,0.433c-0.182,0.288-0.271,0.788-0.271,1.498v0.264h-3.954
		v-0.293c0-1.74,0.383-2.945,1.15-3.615c0.767-0.669,2.145-1.004,4.132-1.004c2.019,0,3.408,0.332,4.171,0.997
		C570.685,21.705,571.066,22.913,571.066,24.663z M566.618,28.757c-0.845,0.082-1.421,0.27-1.73,0.563
		c-0.309,0.293-0.463,0.789-0.463,1.49v1.035c0,0.793,0.082,1.333,0.247,1.621c0.165,0.289,0.442,0.433,0.834,0.433
		c0.401,0,0.688-0.148,0.857-0.447c0.169-0.3,0.255-0.834,0.255-1.605V28.757z"/>
	<path fill="#FFFFFF" d="M584.83,25.018v0.695h-4.341v-0.958c0-0.711-0.096-1.22-0.285-1.529c-0.191-0.309-0.508-0.463-0.95-0.463
		c-0.412,0-0.703,0.162-0.873,0.486s-0.255,0.903-0.255,1.736v6.767c0,0.854,0.082,1.438,0.247,1.746
		c0.165,0.308,0.448,0.463,0.85,0.463c0.423,0,0.72-0.159,0.89-0.479c0.17-0.317,0.255-0.896,0.255-1.729v-1.267h4.464v1.235
		c0,1.751-0.431,3.017-1.29,3.8c-0.86,0.783-2.253,1.174-4.178,1.174c-2.153,0-3.642-0.504-4.465-1.514s-1.235-2.879-1.235-5.607
		v-2.408c0-2.729,0.412-4.599,1.235-5.607s2.312-1.514,4.465-1.514c1.925,0,3.316,0.389,4.178,1.167
		C584.399,21.989,584.83,23.258,584.83,25.018z"/>
	<path fill="#FFFFFF" d="M587.13,13.527h4.464v3.677h-4.464V13.527z M587.13,20.431h4.464v15.878h-4.464V20.431z"/>
	<path fill="#FFFFFF" d="M605.358,27.166v2.409c0,2.709-0.407,4.571-1.222,5.592c-0.813,1.02-2.266,1.528-4.354,1.528
		c-2.091,0-3.545-0.51-4.364-1.528c-0.818-1.021-1.228-2.883-1.228-5.592v-2.409c0-2.708,0.405-4.572,1.221-5.593
		c0.812-1.02,2.26-1.528,4.34-1.528c2.101,0,3.561,0.507,4.379,1.521C604.949,22.581,605.358,24.447,605.358,27.166z M599.72,14.191
		h3.476l-2.44,4.155h-2.271L599.72,14.191z M600.894,24.987c0-0.844-0.083-1.426-0.246-1.744c-0.165-0.319-0.454-0.479-0.865-0.479
		c-0.412,0-0.703,0.162-0.873,0.486s-0.255,0.903-0.255,1.736v6.767c0,0.854,0.082,1.438,0.247,1.746
		c0.165,0.308,0.447,0.463,0.85,0.463c0.422,0,0.719-0.159,0.889-0.479c0.17-0.317,0.255-0.896,0.255-1.729L600.894,24.987
		L600.894,24.987z"/>
	<path fill="#FFFFFF" d="M618.873,24.725v11.584h-4.495V25.204c0-0.731-0.072-1.236-0.216-1.515
		c-0.146-0.277-0.393-0.417-0.741-0.417c-0.361,0-0.618,0.146-0.771,0.44c-0.155,0.293-0.232,0.791-0.232,1.491v11.104h-4.464
		V20.431h4.341l0.123,1.838c0.516-0.762,1.048-1.323,1.599-1.684c0.552-0.36,1.146-0.541,1.784-0.541
		c1.133,0,1.93,0.335,2.387,1.004C618.643,21.719,618.873,22.944,618.873,24.725z"/>
</g>
<g>
	<path fill="#FFFFFF" d="M57.448,13.527h4.711V36.31h-4.711V13.527z"/>
	<path fill="#FFFFFF" d="M76.107,24.725v11.584h-4.495V25.204c0-0.731-0.072-1.236-0.216-1.515
		c-0.145-0.277-0.392-0.417-0.741-0.417c-0.361,0-0.618,0.146-0.772,0.44c-0.155,0.293-0.232,0.791-0.232,1.491v11.104h-4.464
		V20.431h4.341l0.123,1.838c0.516-0.762,1.048-1.323,1.599-1.684s1.146-0.541,1.784-0.541c1.133,0,1.929,0.335,2.387,1.004
		C75.877,21.719,76.107,22.944,76.107,24.725z"/>
	<path fill="#FFFFFF" d="M85.25,13.187v2.718h-0.247c-0.639,0-1.079,0.089-1.32,0.264c-0.242,0.175-0.363,0.479-0.363,0.911v3.352
		h1.39v2.688h-1.39v13.19h-4.464V23.118H77.62V20.43h1.236v-2.116c0-1.297,0.074-2.24,0.224-2.827s0.404-1.04,0.765-1.358
		c0.392-0.351,0.891-0.604,1.498-0.766c0.607-0.158,1.385-0.238,2.333-0.238c0.298,0,0.762,0.016,1.39,0.046
		C85.148,13.181,85.209,13.187,85.25,13.187z"/>
	<path fill="#FFFFFF" d="M97.238,27.166v2.409c0,2.709-0.407,4.571-1.221,5.592c-0.814,1.02-2.266,1.528-4.355,1.528
		c-2.091,0-3.545-0.51-4.364-1.528c-0.818-1.021-1.228-2.883-1.228-5.592v-2.409c0-2.708,0.406-4.572,1.221-5.593
		c0.812-1.02,2.26-1.528,4.34-1.528c2.101,0,3.561,0.507,4.379,1.521C96.829,22.581,97.238,24.447,97.238,27.166z M92.774,24.987
		c0-0.844-0.083-1.426-0.247-1.744c-0.165-0.319-0.454-0.479-0.865-0.479c-0.412,0-0.703,0.162-0.873,0.486
		s-0.255,0.903-0.255,1.736v6.767c0,0.854,0.082,1.438,0.247,1.746c0.165,0.308,0.448,0.463,0.85,0.463
		c0.422,0,0.719-0.159,0.889-0.479c0.17-0.317,0.255-0.896,0.255-1.729L92.774,24.987L92.774,24.987z"/>
	<path fill="#FFFFFF" d="M107.494,20.4v3.414c-1.195,0.021-2.026,0.273-2.495,0.757c-0.469,0.485-0.703,1.339-0.703,2.564v9.175
		h-4.464V20.431h4.341l0.123,1.869c0.474-0.7,0.93-1.197,1.367-1.491s0.93-0.439,1.476-0.439c0.041,0,0.101,0.005,0.178,0.015
		C107.394,20.394,107.452,20.4,107.494,20.4z"/>
	<path fill="#FFFFFF" d="M119.635,22.424c0.556-0.834,1.117-1.439,1.684-1.815c0.565-0.376,1.199-0.563,1.899-0.563
		c1.133,0,1.926,0.332,2.379,0.997c0.453,0.664,0.68,1.892,0.68,3.684V36.31h-4.387V25.204c0-0.722-0.08-1.224-0.239-1.507
		c-0.16-0.282-0.431-0.425-0.812-0.425c-0.381,0-0.653,0.145-0.818,0.434c-0.165,0.288-0.247,0.788-0.247,1.498v11.104h-4.402
		V25.204c0-0.71-0.08-1.21-0.239-1.498c-0.16-0.289-0.43-0.434-0.811-0.434c-0.382,0-0.654,0.145-0.819,0.434
		c-0.165,0.288-0.247,0.788-0.247,1.498v11.104h-4.402V20.431h4.341l0.123,1.838c0.516-0.762,1.048-1.323,1.599-1.684
		s1.146-0.541,1.784-0.541c0.813,0,1.476,0.206,1.985,0.618C119.195,21.073,119.511,21.661,119.635,22.424z"/>
	<path fill="#FFFFFF" d="M139.714,24.663v11.646h-4.263l-0.186-1.838c-0.494,0.772-1.007,1.336-1.537,1.691
		c-0.53,0.354-1.114,0.532-1.753,0.532c-1.153,0-2.006-0.371-2.557-1.111c-0.551-0.741-0.826-1.879-0.826-3.413v-1.9
		c0-1.38,0.497-2.389,1.49-3.026c0.994-0.64,2.722-1.035,5.183-1.189v-1.097c0-0.865-0.077-1.447-0.231-1.746
		c-0.155-0.298-0.417-0.448-0.788-0.448c-0.423,0-0.724,0.144-0.903,0.433c-0.181,0.288-0.271,0.788-0.271,1.498v0.264h-3.954
		v-0.293c0-1.74,0.383-2.945,1.15-3.615c0.767-0.669,2.145-1.004,4.132-1.004c2.019,0,3.408,0.332,4.171,0.997
		C139.333,21.705,139.714,22.913,139.714,24.663z M135.266,28.757c-0.845,0.082-1.421,0.27-1.73,0.563
		c-0.309,0.293-0.463,0.789-0.463,1.49v1.035c0,0.793,0.082,1.333,0.247,1.621c0.165,0.289,0.442,0.433,0.834,0.433
		c0.401,0,0.688-0.148,0.857-0.447c0.169-0.3,0.255-0.834,0.255-1.605V28.757z"/>
	<path fill="#FFFFFF" d="M153.478,25.018v0.695h-4.341v-0.958c0-0.711-0.095-1.22-0.285-1.529c-0.191-0.309-0.508-0.463-0.95-0.463
		c-0.412,0-0.703,0.162-0.873,0.486c-0.17,0.324-0.255,0.903-0.255,1.736v6.767c0,0.854,0.082,1.438,0.247,1.746
		c0.165,0.308,0.448,0.463,0.85,0.463c0.422,0,0.719-0.159,0.889-0.479c0.17-0.317,0.255-0.896,0.255-1.729v-1.267h4.464v1.235
		c0,1.751-0.431,3.017-1.29,3.8c-0.86,0.783-2.253,1.174-4.178,1.174c-2.153,0-3.641-0.504-4.465-1.514
		c-0.823-1.01-1.235-2.879-1.235-5.607v-2.408c0-2.729,0.412-4.599,1.235-5.607c0.824-1.009,2.312-1.514,4.465-1.514
		c1.925,0,3.317,0.389,4.178,1.167C153.047,21.989,153.478,23.258,153.478,25.018z"/>
	<path fill="#FFFFFF" d="M155.779,13.527h4.464v3.677h-4.464V13.527z M155.779,20.431h4.464v15.878h-4.464V20.431z"/>
	<path fill="#FFFFFF" d="M174.006,27.166v2.409c0,2.709-0.407,4.571-1.221,5.592c-0.814,1.02-2.266,1.528-4.355,1.528
		c-2.091,0-3.545-0.51-4.364-1.528c-0.818-1.021-1.228-2.883-1.228-5.592v-2.409c0-2.708,0.406-4.572,1.221-5.593
		c0.812-1.02,2.26-1.528,4.34-1.528c2.101,0,3.561,0.507,4.379,1.521C173.597,22.581,174.006,24.447,174.006,27.166z
		 M168.369,14.191h3.475l-2.44,4.155h-2.271L168.369,14.191z M169.542,24.987c0-0.844-0.083-1.426-0.247-1.744
		c-0.165-0.319-0.454-0.479-0.865-0.479c-0.412,0-0.703,0.162-0.873,0.486s-0.255,0.903-0.255,1.736v6.767
		c0,0.854,0.082,1.438,0.247,1.746c0.165,0.308,0.448,0.463,0.85,0.463c0.422,0,0.719-0.159,0.889-0.479
		c0.17-0.317,0.255-0.896,0.255-1.729L169.542,24.987L169.542,24.987z"/>
	<path fill="#FFFFFF" d="M187.521,24.725v11.584h-4.495V25.204c0-0.731-0.072-1.236-0.216-1.515
		c-0.145-0.277-0.392-0.417-0.741-0.417c-0.361,0-0.618,0.146-0.772,0.44c-0.155,0.293-0.232,0.791-0.232,1.491v11.104H176.6V20.431
		h4.341l0.123,1.838c0.516-0.762,1.048-1.323,1.599-1.684c0.551-0.36,1.146-0.541,1.784-0.541c1.133,0,1.929,0.335,2.387,1.004
		C187.292,21.719,187.521,22.944,187.521,24.725z"/>
	<path fill="#FFFFFF" d="M203.477,13.527h4.448V36.31H203.6l-0.123-1.838c-0.423,0.762-0.889,1.324-1.398,1.684
		c-0.51,0.361-1.089,0.541-1.737,0.541c-1.122,0-1.957-0.37-2.502-1.111c-0.546-0.741-0.819-1.879-0.819-3.413V24.54
		c0-1.524,0.271-2.654,0.812-3.392c0.54-0.735,1.377-1.104,2.51-1.104c0.639,0,1.21,0.178,1.715,0.533
		c0.504,0.354,0.978,0.919,1.421,1.69v-8.742H203.477z M203.477,25.204c0-0.7-0.08-1.197-0.239-1.491
		c-0.16-0.293-0.42-0.44-0.78-0.44c-0.34,0-0.582,0.14-0.726,0.417c-0.145,0.278-0.217,0.783-0.217,1.515v6.333
		c0,0.752,0.072,1.262,0.217,1.528c0.144,0.269,0.396,0.401,0.757,0.401c0.35,0,0.602-0.148,0.757-0.447
		c0.154-0.299,0.231-0.793,0.231-1.482V25.204L203.477,25.204z"/>
	<path fill="#FFFFFF" d="M221.689,27.166v1.898h-6.704v2.688c0,0.834,0.085,1.412,0.255,1.729c0.17,0.319,0.461,0.479,0.873,0.479
		c0.463,0,0.79-0.162,0.98-0.486c0.19-0.324,0.286-0.897,0.286-1.723v-0.571h4.31v0.541c0,1.751-0.433,3.017-1.298,3.8
		c-0.865,0.783-2.255,1.174-4.17,1.174c-2.143,0-3.628-0.508-4.457-1.521c-0.829-1.013-1.243-2.881-1.243-5.6v-2.409
		c0-2.708,0.406-4.572,1.221-5.592c0.812-1.021,2.26-1.529,4.34-1.529c2.121,0,3.586,0.5,4.395,1.499S221.689,24.416,221.689,27.166
		z M217.379,24.927c0-0.886-0.091-1.499-0.271-1.839c-0.181-0.34-0.486-0.51-0.919-0.51c-0.443,0-0.755,0.167-0.935,0.502
		c-0.181,0.335-0.271,0.949-0.271,1.847v1.604h2.395L217.379,24.927L217.379,24.927z"/>
	<path fill="#FFFFFF" d="M224.284,13.527h4.464V36.31h-4.464V13.527z"/>
	<path fill="#FFFFFF" d="M238.649,13.527h4.912c2.513,0,4.283,0.475,5.313,1.421c1.029,0.947,1.545,2.544,1.545,4.789v1.482
		c0,2.132-0.492,3.7-1.476,4.704s-2.516,1.506-4.596,1.506h-1.297v8.881h-4.402L238.649,13.527L238.649,13.527z M243.051,16.925
		v7.136h0.417c0.844,0,1.434-0.211,1.769-0.633s0.502-1.179,0.502-2.271v-1.358c0-1.081-0.167-1.831-0.502-2.248
		s-0.925-0.625-1.769-0.625H243.051z"/>
	<path fill="#FFFFFF" d="M260.166,20.4v3.414c-1.195,0.021-2.026,0.273-2.495,0.757c-0.469,0.485-0.703,1.339-0.703,2.564v9.175
		h-4.464V20.431h4.341l0.123,1.869c0.474-0.7,0.93-1.197,1.367-1.491s0.93-0.439,1.476-0.439c0.041,0,0.101,0.005,0.178,0.015
		C260.066,20.394,260.124,20.4,260.166,20.4z"/>
	<path fill="#FFFFFF" d="M272.631,27.166v2.409c0,2.709-0.407,4.571-1.221,5.592c-0.814,1.02-2.266,1.528-4.355,1.528
		c-2.091,0-3.545-0.51-4.364-1.528c-0.818-1.021-1.228-2.883-1.228-5.592v-2.409c0-2.708,0.406-4.572,1.221-5.593
		c0.812-1.02,2.26-1.528,4.34-1.528c2.101,0,3.561,0.507,4.379,1.521C272.222,22.581,272.631,24.447,272.631,27.166z
		 M268.167,24.987c0-0.844-0.083-1.426-0.247-1.744c-0.165-0.319-0.454-0.479-0.865-0.479c-0.412,0-0.703,0.162-0.873,0.486
		s-0.255,0.903-0.255,1.736v6.767c0,0.854,0.082,1.438,0.247,1.746c0.165,0.308,0.448,0.463,0.85,0.463
		c0.422,0,0.719-0.159,0.889-0.479c0.17-0.317,0.255-0.896,0.255-1.729L268.167,24.987L268.167,24.987z"/>
	<path fill="#FFFFFF" d="M281.589,22.269l0.123-1.838h4.325V37.36c0,1.957-0.394,3.31-1.182,4.056
		c-0.787,0.746-2.206,1.12-4.255,1.12c-1.916,0-3.301-0.341-4.155-1.021c-0.855-0.68-1.282-1.782-1.282-3.306v-0.293h4.464v0.229
		c0,0.547,0.077,0.961,0.231,1.244c0.155,0.283,0.381,0.425,0.68,0.425c0.381,0,0.651-0.162,0.812-0.486
		c0.159-0.324,0.239-0.888,0.239-1.69v-3.893c-0.443,0.771-0.917,1.333-1.421,1.684c-0.505,0.351-1.097,0.524-1.776,0.524
		c-1.103,0-1.921-0.37-2.456-1.111c-0.536-0.742-0.804-1.874-0.804-3.398V24.54c0-1.524,0.271-2.654,0.812-3.392
		c0.54-0.735,1.377-1.104,2.51-1.104c0.639,0,1.21,0.178,1.715,0.533C280.672,20.933,281.146,21.497,281.589,22.269z
		 M281.589,25.204c0-0.7-0.08-1.197-0.239-1.491c-0.16-0.293-0.42-0.44-0.78-0.44c-0.34,0-0.582,0.14-0.726,0.417
		c-0.145,0.278-0.217,0.783-0.217,1.515v5.606c0,0.741,0.072,1.248,0.217,1.521c0.144,0.271,0.396,0.409,0.757,0.409
		c0.35,0,0.602-0.149,0.757-0.448c0.154-0.299,0.231-0.793,0.231-1.482V25.204L281.589,25.204z"/>
	<path fill="#FFFFFF" d="M296.357,20.4v3.414c-1.195,0.021-2.026,0.273-2.495,0.757c-0.469,0.485-0.703,1.339-0.703,2.564v9.175
		h-4.464V20.431h4.341l0.123,1.869c0.474-0.7,0.93-1.197,1.367-1.491s0.93-0.439,1.476-0.439c0.041,0,0.101,0.005,0.178,0.015
		C296.257,20.394,296.315,20.4,296.357,20.4z"/>
	<path fill="#FFFFFF" d="M308.528,24.663v11.646h-4.263l-0.186-1.838c-0.494,0.772-1.007,1.336-1.537,1.691
		c-0.53,0.354-1.114,0.532-1.753,0.532c-1.153,0-2.006-0.371-2.557-1.111c-0.551-0.741-0.826-1.879-0.826-3.413v-1.9
		c0-1.38,0.497-2.389,1.49-3.026c0.994-0.64,2.722-1.035,5.183-1.189v-1.097c0-0.865-0.077-1.447-0.231-1.746
		c-0.155-0.298-0.417-0.448-0.788-0.448c-0.423,0-0.724,0.144-0.903,0.433c-0.181,0.288-0.271,0.788-0.271,1.498v0.264h-3.954
		v-0.293c0-1.74,0.383-2.945,1.15-3.615c0.767-0.669,2.145-1.004,4.132-1.004c2.019,0,3.408,0.332,4.171,0.997
		C308.147,21.705,308.528,22.913,308.528,24.663z M304.08,28.757c-0.845,0.082-1.421,0.27-1.73,0.563
		c-0.309,0.293-0.463,0.789-0.463,1.49v1.035c0,0.793,0.082,1.333,0.247,1.621c0.165,0.289,0.442,0.433,0.834,0.433
		c0.401,0,0.688-0.148,0.857-0.447c0.169-0.3,0.255-0.834,0.255-1.605V28.757z"/>
	<path fill="#FFFFFF" d="M321.967,22.424c0.557-0.834,1.117-1.439,1.685-1.815c0.564-0.376,1.198-0.563,1.898-0.563
		c1.133,0,1.926,0.332,2.379,0.997c0.453,0.664,0.681,1.892,0.681,3.684V36.31h-4.388V25.204c0-0.722-0.08-1.224-0.238-1.507
		c-0.16-0.282-0.432-0.425-0.812-0.425s-0.653,0.145-0.818,0.434c-0.165,0.288-0.246,0.788-0.246,1.498v11.104h-4.402V25.204
		c0-0.71-0.08-1.21-0.239-1.498c-0.16-0.289-0.43-0.434-0.811-0.434c-0.383,0-0.654,0.145-0.819,0.434
		c-0.165,0.288-0.247,0.788-0.247,1.498v11.104h-4.402V20.431h4.342l0.122,1.838c0.517-0.762,1.049-1.323,1.6-1.684
		s1.146-0.541,1.784-0.541c0.812,0,1.476,0.206,1.984,0.618C321.527,21.073,321.843,21.661,321.967,22.424z"/>
	<path fill="#FFFFFF" d="M342.046,24.663v11.646h-4.263l-0.187-1.838c-0.494,0.772-1.007,1.336-1.537,1.691
		c-0.529,0.354-1.113,0.532-1.753,0.532c-1.152,0-2.006-0.371-2.557-1.111c-0.551-0.741-0.826-1.879-0.826-3.413v-1.9
		c0-1.38,0.497-2.389,1.49-3.026c0.994-0.64,2.722-1.035,5.183-1.189v-1.097c0-0.865-0.076-1.447-0.23-1.746
		c-0.155-0.298-0.417-0.448-0.788-0.448c-0.423,0-0.724,0.144-0.903,0.433c-0.181,0.288-0.271,0.788-0.271,1.498v0.264h-3.954
		v-0.293c0-1.74,0.383-2.945,1.149-3.615c0.768-0.669,2.146-1.004,4.133-1.004c2.019,0,3.407,0.332,4.171,0.997
		C341.666,21.705,342.046,22.913,342.046,24.663z M337.598,28.757c-0.845,0.082-1.421,0.27-1.729,0.563
		c-0.31,0.293-0.463,0.789-0.463,1.49v1.035c0,0.793,0.082,1.333,0.247,1.621c0.165,0.289,0.441,0.433,0.834,0.433
		c0.4,0,0.688-0.148,0.856-0.447c0.169-0.3,0.255-0.834,0.255-1.605V28.757z"/>
</g>
</svg>
