<?xml version="1.0" encoding="utf-8"?>
<!-- Generator: Adobe Illustrator 16.0.0, SVG Export Plug-In . SVG Version: 6.00 Build 0)  -->
<!DOCTYPE svg PUBLIC "-//W3C//DTD SVG 1.1//EN" "http://www.w3.org/Graphics/SVG/1.1/DTD/svg11.dtd">
<svg version="1.1" id="Capa_1" xmlns="http://www.w3.org/2000/svg" xmlns:xlink="http://www.w3.org/1999/xlink" x="0px" y="0px"
	 width="77.267px" height="36.931px" viewBox="0 0 77.267 36.931" enable-background="new 0 0 77.267 36.931" xml:space="preserve">
<g>
	<g>
		<path fill="#3D5963" d="M0.031,17.411C0.611,7.246,9.357-0.552,19.521,0.03C29.689,0.608,37.48,9.354,36.902,19.519
			C36.32,29.687,27.576,37.48,17.412,36.9C7.246,36.317-0.551,27.575,0.031,17.411z M5.73,17.737
			c-0.4,7.024,4.986,13.061,12.008,13.462c7.021,0.402,13.061-4.983,13.463-12.005c0.402-7.023-4.986-13.064-12.006-13.467
			C12.174,5.328,6.133,10.714,5.73,17.737z"/>
		<path fill="#3D5963" d="M19.82,28.577h-2.613V11.409c-0.219,0.197-0.555,0.463-1.01,0.788c-0.455,0.327-1.127,0.78-2.018,1.358
			v-2.787c0.404-0.197,0.895-0.493,1.469-0.888c0.574-0.392,1.295-0.921,2.17-1.583h2.002V28.577z"/>
	</g>
	<g>
		<g>
			<path fill="#3D5963" d="M40.367,17.411C40.947,7.246,49.691-0.552,59.855,0.03c10.168,0.578,17.959,9.324,17.381,19.488
				C76.654,29.687,67.912,37.48,57.748,36.9C47.58,36.317,39.785,27.575,40.367,17.411z M46.064,17.737
				c-0.402,7.024,4.986,13.061,12.008,13.462c7.023,0.402,13.064-4.983,13.467-12.005c0.402-7.023-4.988-13.064-12.01-13.467
				C52.508,5.328,46.467,10.714,46.064,17.737z"/>
		</g>
		<path fill="#3D5963" d="M53.363,28.577v-2.588l6.279-8.91c0.598-0.852,1.066-1.678,1.41-2.472c0.34-0.797,0.512-1.454,0.512-1.976
			c0-0.759-0.242-1.365-0.73-1.819c-0.484-0.454-1.129-0.683-1.928-0.683c-0.875,0-1.52,0.26-1.93,0.773
			c-0.41,0.517-0.646,1.363-0.713,2.539h-2.814c0-0.058-0.004-0.15-0.012-0.278c-0.012-0.127-0.016-0.22-0.016-0.277
			c0-1.581,0.473-2.797,1.422-3.645c0.947-0.849,2.314-1.272,4.109-1.272c1.637,0,2.912,0.398,3.826,1.193
			c0.916,0.795,1.369,1.9,1.369,3.312c0,0.975-0.23,2.039-0.695,3.189c-0.465,1.151-1.174,2.418-2.121,3.802l-4.881,6.694h7.787
			v2.416H53.363z"/>
	</g>
</g>
</svg>
