<?xml version="1.0" encoding="utf-8"?>
<!-- Generator: Adobe Illustrator 16.0.0, SVG Export Plug-In . SVG Version: 6.00 Build 0)  -->
<!DOCTYPE svg PUBLIC "-//W3C//DTD SVG 1.1//EN" "http://www.w3.org/Graphics/SVG/1.1/DTD/svg11.dtd">
<svg version="1.1" id="Capa_1" xmlns="http://www.w3.org/2000/svg" xmlns:xlink="http://www.w3.org/1999/xlink" x="0px" y="0px"
	 width="206.119px" height="48.68px" viewBox="0 0 206.119 48.68" enable-background="new 0 0 206.119 48.68" xml:space="preserve">
<g>
	<polygon fill="#F2961C" points="206.119,48.68 65.34,48.68 38.92,3.891 192.271,0 193.631,4.77 	"/>
	<polygon fill="#A0C219" points="65.34,48.68 8.561,48.68 0,4.77 38.92,3.891 	"/>
	<g>
		<path fill="#FFFFFF" d="M91.637,22.122v7.338c0,3.089-0.465,5.213-1.396,6.371c-0.934,1.157-2.588,1.737-4.967,1.737
			c-2.389,0-4.047-0.573-4.975-1.723c-0.926-1.148-1.389-3.277-1.389-6.387v-7.338c0-3.078,0.463-5.191,1.389-6.341
			c0.928-1.147,2.586-1.723,4.975-1.723s4.047,0.574,4.973,1.723C91.174,16.931,91.637,19.044,91.637,22.122z M86.957,21.087
			c0-1.473-0.121-2.427-0.363-2.865c-0.242-0.438-0.682-0.656-1.32-0.656c-0.629,0-1.066,0.228-1.312,0.681
			c-0.248,0.452-0.371,1.399-0.371,2.842v9.423c0,1.462,0.121,2.412,0.363,2.851c0.242,0.438,0.682,0.656,1.32,0.656
			c0.627,0,1.066-0.225,1.312-0.672c0.248-0.448,0.371-1.393,0.371-2.835V21.087z"/>
		<path fill="#FFFFFF" d="M105.433,25.413v7.63c0,1.534-0.273,2.673-0.818,3.413c-0.547,0.741-1.381,1.112-2.504,1.112
			c-0.658,0-1.242-0.181-1.752-0.541c-0.51-0.359-0.971-0.922-1.383-1.684v7.847H94.51V21.304h4.342l0.123,1.838
			c0.412-0.762,0.873-1.322,1.383-1.684c0.51-0.36,1.094-0.541,1.752-0.541c1.123,0,1.958,0.369,2.504,1.104
			C105.158,22.759,105.433,23.889,105.433,25.413z M100.936,26.077c0-0.731-0.072-1.236-0.215-1.515
			c-0.145-0.278-0.393-0.418-0.742-0.418c-0.361,0-0.617,0.146-0.771,0.44c-0.156,0.294-0.232,0.79-0.232,1.491v6.332
			c0,0.689,0.074,1.185,0.225,1.482c0.148,0.299,0.398,0.448,0.748,0.448c0.361,0,0.615-0.135,0.766-0.402
			c0.148-0.268,0.223-0.776,0.223-1.528v-6.331H100.936z"/>
		<path fill="#FFFFFF" d="M119.086,25.892v0.695h-4.342v-0.958c0-0.711-0.095-1.22-0.285-1.529c-0.19-0.309-0.508-0.464-0.949-0.464
			c-0.411,0-0.702,0.162-0.872,0.486c-0.171,0.324-0.257,0.903-0.257,1.737v6.767c0,0.854,0.082,1.437,0.248,1.746
			c0.164,0.309,0.447,0.463,0.851,0.463c0.422,0,0.719-0.16,0.889-0.479c0.17-0.318,0.254-0.896,0.254-1.729v-1.268h4.465v1.235
			c0,1.751-0.432,3.018-1.291,3.801c-0.859,0.782-2.252,1.174-4.178,1.174c-2.152,0-3.641-0.505-4.465-1.514
			c-0.822-1.01-1.234-2.879-1.234-5.607v-2.409c0-2.729,0.412-4.599,1.234-5.607c0.824-1.008,2.312-1.514,4.465-1.514
			c1.926,0,3.318,0.39,4.178,1.167C118.655,22.861,119.086,24.13,119.086,25.892z"/>
		<path fill="#FFFFFF" d="M121.388,14.399h4.463v3.677h-4.463V14.399z M121.388,21.304h4.463v15.879h-4.463V21.304z"/>
		<path fill="#FFFFFF" d="M139.612,28.038v2.409c0,2.708-0.405,4.572-1.221,5.593c-0.812,1.02-2.266,1.528-4.354,1.528
			s-3.545-0.51-4.363-1.528c-0.817-1.02-1.229-2.885-1.229-5.593v-2.409c0-2.708,0.406-4.572,1.222-5.593
			c0.812-1.02,2.26-1.528,4.34-1.528c2.103,0,3.562,0.508,4.379,1.521C139.205,23.454,139.612,25.319,139.612,28.038z
			 M135.149,25.86c0-0.844-0.084-1.426-0.248-1.746c-0.164-0.317-0.452-0.479-0.864-0.479s-0.703,0.162-0.873,0.486
			s-0.254,0.903-0.254,1.737v6.767c0,0.854,0.082,1.437,0.245,1.746c0.166,0.309,0.449,0.463,0.851,0.463
			c0.423,0,0.72-0.16,0.89-0.479c0.17-0.318,0.256-0.896,0.256-1.729V25.86H135.149z"/>
		<path fill="#FFFFFF" d="M153.129,25.598v11.585h-4.494V26.077c0-0.731-0.071-1.236-0.217-1.515s-0.392-0.418-0.739-0.418
			c-0.361,0-0.619,0.146-0.773,0.44s-0.232,0.79-0.232,1.491v11.104h-4.463V21.304h4.34l0.123,1.838
			c0.516-0.762,1.049-1.322,1.6-1.684c0.552-0.36,1.146-0.541,1.783-0.541c1.133,0,1.93,0.336,2.387,1.004
			C152.899,22.591,153.129,23.816,153.129,25.598z"/>
		<path fill="#FFFFFF" d="M166.86,28.038v1.899h-6.705v2.688c0,0.834,0.087,1.411,0.257,1.729s0.461,0.479,0.873,0.479
			c0.463,0,0.789-0.162,0.979-0.486c0.189-0.324,0.285-0.897,0.285-1.723v-0.572h4.311v0.541c0,1.751-0.434,3.018-1.299,3.801
			c-0.865,0.782-2.254,1.174-4.17,1.174c-2.143,0-3.627-0.508-4.457-1.521c-0.828-1.015-1.242-2.881-1.242-5.601v-2.409
			c0-2.708,0.406-4.572,1.222-5.593c0.812-1.02,2.26-1.528,4.34-1.528c2.121,0,3.586,0.5,4.396,1.499
			C166.458,23.416,166.86,25.289,166.86,28.038z M162.551,25.799c0-0.886-0.09-1.499-0.271-1.839c-0.182-0.34-0.485-0.51-0.92-0.51
			c-0.442,0-0.754,0.168-0.934,0.502c-0.182,0.336-0.271,0.95-0.271,1.847v1.605h2.396V25.799z"/>
		<path fill="#FFFFFF" d="M179.836,25.351v0.604h-4.108v-0.727c0-0.659-0.084-1.094-0.254-1.306c-0.17-0.211-0.478-0.316-0.92-0.316
			c-0.341,0-0.591,0.09-0.748,0.271c-0.16,0.18-0.24,0.45-0.24,0.811v0.479c0,0.381,0.121,0.711,0.363,0.987
			c0.241,0.279,0.743,0.623,1.506,1.035l2.178,1.145c0.854,0.453,1.496,1.025,1.924,1.722c0.426,0.695,0.641,1.512,0.641,2.449
			v0.817c0,1.474-0.459,2.55-1.375,3.229s-2.373,1.02-4.371,1.02c-1.947,0-3.277-0.346-3.992-1.034
			c-0.717-0.689-1.073-2.003-1.073-3.939v-0.51h3.954v1.082c0,0.647,0.099,1.094,0.293,1.336c0.195,0.242,0.552,0.363,1.064,0.363
			c0.443,0,0.76-0.104,0.951-0.311c0.189-0.206,0.285-0.556,0.285-1.05V32.95c0-0.484-0.131-0.914-0.395-1.289
			c-0.263-0.377-0.65-0.688-1.166-0.937l-2.054-1.035c-1.123-0.564-1.903-1.132-2.342-1.697c-0.438-0.566-0.656-1.268-0.656-2.102
			v-1.205c0-1.184,0.479-2.107,1.438-2.771c0.957-0.665,2.301-0.997,4.031-0.997c1.821,0,3.123,0.338,3.899,1.012
			C179.446,22.604,179.836,23.744,179.836,25.351z"/>
	</g>
	<g>
		<path fill="#FFFFFF" d="M26.498,40.123c-2.732,0.006-5.467,0.016-8.199,0.022c-0.334-0.147-0.41-0.438-0.41-0.758
			c-0.002-3.92,0.002-7.834-0.012-11.75c0-0.311,0.178-0.447,0.367-0.609c2.361-1.983,4.727-3.965,7.092-5.946
			c1.256-1.056,2.523-2.097,3.766-3.17c0.305-0.267,0.49-0.281,0.795-0.009c2.699,2.42,5.41,4.826,8.117,7.238
			c0.699,0.623,1.396,1.254,2.105,1.865c0.25,0.217,0.365,0.445,0.365,0.789c-0.012,3.719-0.008,7.434-0.01,11.151
			c0,0.996-0.219,1.205-1.199,1.205c-2.311,0-4.619-0.008-6.93,0.011c-0.412,0.004-0.516-0.113-0.51-0.517
			c0.02-1.914,0.01-3.824,0.008-5.737c0-0.939-0.32-1.257-1.273-1.259c-0.992-0.004-1.986-0.004-2.98,0
			c-0.787,0.004-1.062,0.277-1.066,1.084c-0.006,2.019,0,4.041-0.002,6.062C26.521,39.906,26.506,40.014,26.498,40.123z"/>
		<path fill="#FFFFFF" d="M43.586,27.156c-0.793-0.028-1.473-0.366-2.045-0.879c-3.527-3.146-7.037-6.309-10.557-9.463
			c-0.176-0.155-0.355-0.305-0.529-0.461c-0.859-0.77-0.85-0.76-1.713-0.026c-4.008,3.393-8.018,6.78-12.025,10.17
			c-0.377,0.315-0.789,0.569-1.27,0.696c-0.402,0.107-0.787,0.062-1.156-0.127c-0.684-0.348-0.727-0.602-0.166-1.098
			c5.049-4.445,10.102-8.885,15.143-13.342c0.297-0.26,0.449-0.209,0.709,0.026c4.873,4.425,9.756,8.843,14.637,13.259
			c0.531,0.479,0.516,0.643-0.094,1.012C44.232,27.096,43.922,27.172,43.586,27.156z"/>
		<path fill="#FFFFFF" d="M41.361,21.938c-0.818-0.692-1.498-1.336-2.248-1.877c-0.68-0.492-0.977-1.057-0.881-1.906
			c0.082-0.729,0.02-1.479-0.002-2.219c-0.01-0.297,0.078-0.412,0.393-0.406c0.773,0.021,1.553,0.017,2.326,0.005
			c0.291-0.009,0.422,0.062,0.42,0.387C41.355,17.867,41.361,19.814,41.361,21.938z"/>
	</g>
</g>
</svg>
