<?xml version="1.0" encoding="utf-8"?>
<!-- Generator: Adobe Illustrator 16.0.0, SVG Export Plug-In . SVG Version: 6.00 Build 0)  -->
<!DOCTYPE svg PUBLIC "-//W3C//DTD SVG 1.1//EN" "http://www.w3.org/Graphics/SVG/1.1/DTD/svg11.dtd">
<svg version="1.1" id="Capa_1" xmlns="http://www.w3.org/2000/svg" xmlns:xlink="http://www.w3.org/1999/xlink" x="0px" y="0px"
	 width="1102.836px" height="174.945px" viewBox="0 0 1102.836 174.945" enable-background="new 0 0 1102.836 174.945"
	 xml:space="preserve">
<g>
	<g>
		<g>
			<g>
				<path fill="#FFFFFF" d="M28.863,91.874v5.649h-7.202v-5.488c0-2.298-0.332-3.887-0.994-4.769
					c-0.664-0.881-1.837-1.322-3.521-1.322c-1.541,0-2.616,0.501-3.226,1.503s-0.913,3.105-0.913,6.311v36.581
					c0,3.285,0.322,5.423,0.967,6.411c0.646,0.988,1.828,1.482,3.548,1.482c1.469,0,2.526-0.468,3.171-1.402
					c0.646-0.936,0.968-2.524,0.968-4.769v-6.37h7.202v6.57c0,4.034-0.842,6.766-2.525,8.194c-1.686,1.429-4.695,2.144-9.03,2.144
					c-4.265,0-7.238-0.922-8.923-2.765c-1.685-1.844-2.526-5.275-2.526-10.298V94.559c0-4.994,0.842-8.4,2.526-10.217
					s4.658-2.725,8.923-2.725c4.371,0,7.391,0.708,9.057,2.124S28.863,87.868,28.863,91.874z"/>
				<path fill="#FFFFFF" d="M58.909,111.146v19.713c0,4.542-0.824,7.633-2.473,9.275c-1.648,1.644-4.568,2.465-8.761,2.465
					c-4.157,0-7.068-0.835-8.734-2.505c-1.666-1.669-2.499-4.773-2.499-9.315v-19.633c0-4.567,0.814-7.666,2.445-9.295
					c1.63-1.629,4.56-2.444,8.788-2.444c4.156,0,7.068,0.835,8.734,2.504C58.076,103.581,58.909,106.659,58.909,111.146z
					 M51.976,109.904c0-2.43-0.322-4.087-0.968-4.968c-0.645-0.882-1.756-1.322-3.332-1.322c-1.612,0-2.751,0.468-3.413,1.402
					c-0.663,0.936-0.994,2.564-0.994,4.888v22.157c0,2.458,0.322,4.127,0.967,5.009c0.646,0.881,1.792,1.322,3.44,1.322
					c1.576,0,2.688-0.454,3.332-1.362c0.646-0.908,0.968-2.564,0.968-4.969V109.904z"/>
				<path fill="#FFFFFF" d="M89.063,103.214c1.325-1.389,2.598-2.371,3.816-2.945c1.218-0.574,2.634-0.861,4.246-0.861
					c2.473,0,4.246,0.708,5.321,2.123c1.075,1.416,1.612,3.86,1.612,7.333v32.734h-6.611v-31.693c0-2.35-0.287-3.986-0.86-4.908
					c-0.573-0.921-1.541-1.382-2.902-1.382c-1.397,0-2.41,0.494-3.037,1.482s-0.94,2.591-0.94,4.808v31.693h-6.611v-31.693
					c0-2.35-0.277-3.986-0.833-4.908c-0.556-0.921-1.514-1.382-2.875-1.382c-1.397,0-2.411,0.494-3.037,1.482
					c-0.628,0.988-0.94,2.591-0.94,4.808v31.693H68.8v-41.188h6.181l0.431,2.523c0.895-1.175,1.962-2.057,3.198-2.645
					c1.235-0.587,2.624-0.881,4.165-0.881c1.647,0,3.01,0.327,4.085,0.981C87.935,101.044,88.669,101.985,89.063,103.214z"/>
				<path fill="#FFFFFF" d="M136.632,108.863v24.28c0,3.5-0.582,5.95-1.746,7.353c-1.165,1.402-3.145,2.104-5.939,2.104
					c-1.793,0-3.378-0.301-4.757-0.901c-1.38-0.602-2.519-1.476-3.413-2.625v18.11h-6.611v-56.774h6.181l0.431,2.523
					c0.895-1.147,2.033-2.023,3.413-2.624c1.379-0.601,2.964-0.901,4.757-0.901c2.795,0,4.774,0.701,5.939,2.104
					C136.05,102.913,136.632,105.364,136.632,108.863z M129.698,109.904c0-2.43-0.322-4.087-0.967-4.968
					c-0.646-0.882-1.793-1.322-3.44-1.322c-1.612,0-2.769,0.475-3.467,1.422c-0.699,0.949-1.048,2.571-1.048,4.868v22.157
					c0,2.351,0.34,3.994,1.021,4.929s1.846,1.402,3.494,1.402c1.647,0,2.795-0.441,3.44-1.322c0.645-0.882,0.967-2.551,0.967-5.009
					V109.904z"/>
				<path fill="#FFFFFF" d="M168.774,111.146v12.221h-15.641v8.694c0,2.458,0.322,4.127,0.967,5.009
					c0.646,0.881,1.792,1.322,3.44,1.322c1.576,0,2.688-0.454,3.332-1.362c0.646-0.908,0.968-2.564,0.968-4.969v-4.567h6.934v3.365
					c0,4.542-0.824,7.633-2.473,9.275c-1.648,1.644-4.568,2.465-8.761,2.465c-4.157,0-7.068-0.835-8.734-2.505
					c-1.666-1.669-2.499-4.773-2.499-9.315v-19.633c0-4.567,0.814-7.666,2.445-9.295c1.63-1.629,4.56-2.444,8.788-2.444
					c4.156,0,7.068,0.835,8.734,2.504C167.941,103.581,168.774,106.659,168.774,111.146z M161.841,109.904
					c0-2.43-0.322-4.087-0.968-4.968c-0.645-0.882-1.756-1.322-3.332-1.322c-1.612,0-2.751,0.468-3.413,1.402
					c-0.663,0.936-0.994,2.564-0.994,4.888v9.296h8.707V109.904z"/>
				<path fill="#FFFFFF" d="M185.599,89.311v11.099h5.053v4.167h-5.053v30.61c0,1.149,0.296,1.943,0.887,2.385
					c0.592,0.44,1.657,0.661,3.198,0.661h0.968v4.287c-0.396,0.026-0.798,0.046-1.21,0.06s-0.994,0.021-1.747,0.021
					c-3.368,0-5.662-0.608-6.88-1.823c-1.219-1.215-1.827-3.92-1.827-8.113v-28.087h-3.602v-4.167h3.602v-9.096L185.599,89.311z"/>
				<path fill="#FFFFFF" d="M219.515,111.146v12.221h-15.641v8.694c0,2.458,0.322,4.127,0.967,5.009
					c0.646,0.881,1.792,1.322,3.44,1.322c1.576,0,2.688-0.454,3.332-1.362c0.646-0.908,0.968-2.564,0.968-4.969v-4.567h6.934v3.365
					c0,4.542-0.824,7.633-2.473,9.275c-1.648,1.644-4.568,2.465-8.761,2.465c-4.157,0-7.068-0.835-8.734-2.505
					c-1.666-1.669-2.499-4.773-2.499-9.315v-19.633c0-4.567,0.814-7.666,2.445-9.295c1.63-1.629,4.56-2.444,8.788-2.444
					c4.156,0,7.068,0.835,8.734,2.504C218.682,103.581,219.515,106.659,219.515,111.146z M212.581,109.904
					c0-2.43-0.322-4.087-0.968-4.968c-0.645-0.882-1.756-1.322-3.332-1.322c-1.612,0-2.751,0.468-3.413,1.402
					c-0.663,0.936-0.994,2.564-0.994,4.888v9.296h8.707V109.904z"/>
				<path fill="#FFFFFF" d="M251.872,108.863v32.734h-6.61v-31.693c0-2.35-0.35-3.986-1.049-4.908
					c-0.698-0.921-1.891-1.382-3.574-1.382c-1.648,0-2.831,0.475-3.548,1.422c-0.717,0.949-1.074,2.571-1.074,4.868v31.693h-6.611
					v-41.188h6.181l0.431,2.523c0.895-1.147,2.033-2.023,3.413-2.624c1.379-0.601,2.964-0.901,4.757-0.901
					c2.795,0,4.774,0.701,5.939,2.104C251.29,102.913,251.872,105.364,251.872,108.863z"/>
				<path fill="#FFFFFF" d="M282.349,111.146v2.645h-6.934v-3.887c0-2.697-0.242-4.42-0.726-5.168
					c-0.484-0.748-1.371-1.122-2.661-1.122s-2.186,0.421-2.688,1.262c-0.502,0.842-0.752,2.519-0.752,5.028v22.157
					c0,2.564,0.259,4.261,0.779,5.089c0.519,0.828,1.441,1.242,2.768,1.242c1.254,0,2.114-0.381,2.58-1.143
					c0.466-0.761,0.699-2.49,0.699-5.188v-4.407h6.934v3.205c0,4.542-0.762,7.633-2.284,9.275c-1.523,1.644-4.202,2.465-8.036,2.465
					c-3.799,0-6.459-0.842-7.981-2.524c-1.523-1.683-2.284-4.781-2.284-9.296v-19.633c0-4.567,0.752-7.666,2.257-9.295
					s4.174-2.444,8.009-2.444c3.798,0,6.468,0.835,8.009,2.504C281.577,103.581,282.349,106.659,282.349,111.146z"/>
				<path fill="#FFFFFF" d="M290.733,82.499h7.363v6.25h-7.363V82.499z M291.056,100.409h6.611v41.188h-6.611V100.409z"/>
				<path fill="#FFFFFF" d="M329.487,110.024v31.573h-6.182l-0.43-2.524c-0.896,1.149-2.034,2.023-3.413,2.625
					c-1.38,0.601-2.966,0.901-4.757,0.901c-2.795,0-4.775-0.701-5.939-2.104c-1.165-1.402-1.747-3.853-1.747-7.353v-8.214
					c0-3.231,1.174-5.529,3.521-6.892s6.459-2.123,12.336-2.283v-5.851c0-2.483-0.314-4.153-0.94-5.008
					c-0.628-0.854-1.747-1.282-3.359-1.282c-1.541,0-2.644,0.395-3.306,1.182c-0.664,0.788-0.994,2.144-0.994,4.067v2.283h-6.611
					v-1.122c0-4.112,0.806-6.911,2.418-8.394c1.613-1.482,4.479-2.224,8.601-2.224c4.013,0,6.816,0.748,8.412,2.243
					C328.689,103.147,329.487,105.938,329.487,110.024z M322.822,119.761c-3.44,0.107-5.778,0.562-7.015,1.362
					c-1.236,0.802-1.854,2.244-1.854,4.327v6.611c0,2.458,0.323,4.127,0.968,5.009c0.645,0.881,1.791,1.322,3.44,1.322
					c1.612,0,2.768-0.475,3.467-1.423c0.698-0.947,1.048-2.584,1.048-4.908L322.822,119.761z"/>
			</g>
		</g>
	</g>
	<g>
		<path fill="#D5D831" d="M480.001,116.182c-3.631,1.613-11.699,3.496-21.919,3.496c-32.947,0-48.546-22.995-48.546-51.773
			c0-37.249,24.205-54.866,50.966-54.866c10.489,0,17.751,2.152,20.71,3.766l-4.304,19.23c-3.496-1.614-8.472-3.093-15.062-3.093
			c-14.927,0-27.433,10.22-27.433,33.618c0,21.651,10.758,32.947,27.567,32.947c5.379,0,11.431-1.076,15.062-2.421L480.001,116.182z
			"/>
		<path fill="#D5D831" d="M559.069,80.008c0,29.45-18.961,39.805-35.502,39.805c-20.979,0-35.367-14.523-35.367-38.863
			c0-25.416,15.33-39.806,36.173-39.806C546.024,41.144,559.069,57.281,559.069,80.008z M523.836,58.356
			c-8.875,0-11.699,11.565-11.699,22.055c0,12.641,3.631,22.188,11.699,22.188c7.664,0,11.295-10.086,11.295-22.188
			C535.131,69.249,531.905,58.356,523.836,58.356z"/>
		<path fill="#D5D831" d="M639.077,95.203c0,8.338,0.27,17.078,0.537,23.13h-20.709l-1.074-9.816h-0.404
			c-4.035,7.127-11.834,11.296-19.902,11.296c-17.348,0-28.643-16.675-28.643-38.998c0-25.685,13.984-39.671,29.719-39.671
			c8.068,0,13.85,3.228,16.406,7.8h0.402V9.945h23.668V95.203z M615.409,73.553c0-10.489-6.186-13.582-10.221-13.582
			c-8.605,0-12.506,9.413-12.506,20.844c0,13.044,5.111,19.902,12.373,19.902c4.438,0,10.354-2.824,10.354-13.179V73.553z"/>
		<path fill="#D5D831" d="M654.94,56.34c0-8.203,5.781-14.389,13.447-14.389c7.799,0,13.447,5.782,13.447,14.389
			c0,8.203-5.244,14.254-13.447,14.254S654.94,64.273,654.94,56.34z M654.94,105.558c0-8.068,5.781-14.254,13.447-14.254
			c7.799,0,13.447,5.782,13.447,14.254c0,8.338-5.244,14.255-13.447,14.255S654.94,113.626,654.94,105.558z"/>
	</g>
	
		<line fill="none" stroke="#E3E036" stroke-width="3" stroke-miterlimit="10" stroke-dasharray="5" x1="411.483" y1="141.598" x2="1102.836" y2="141.598"/>
</g>
</svg>
