<?xml version="1.0" encoding="utf-8"?>
<!-- Generator: Adobe Illustrator 16.0.3, SVG Export Plug-In . SVG Version: 6.00 Build 0)  -->
<!DOCTYPE svg PUBLIC "-//W3C//DTD SVG 1.1//EN" "http://www.w3.org/Graphics/SVG/1.1/DTD/svg11.dtd">
<svg version="1.1" id="Capa_1" xmlns="http://www.w3.org/2000/svg" xmlns:xlink="http://www.w3.org/1999/xlink" x="0px" y="0px"
	 width="1203.344px" height="375.283px" viewBox="0 0 1203.344 375.283" enable-background="new 0 0 1203.344 375.283"
	 xml:space="preserve">
<g>
	<g>
		<g>
			<g>
				<circle fill="none" stroke="#FFFFFF" stroke-width="3" stroke-miterlimit="10" cx="550.811" cy="36.592" r="19.479"/>
			</g>
			<g>
				<g>
					<path fill="#EBE658" d="M558.014,45.876h-13.206v-1.885h5.321V29.542L545.11,31.4v-2.162l5.429-2.069h2.509v16.822h4.966
						V45.876z"/>
				</g>
			</g>
		</g>
		<g>
			<g>
				<circle fill="none" stroke="#FFFFFF" stroke-width="3" stroke-miterlimit="10" cx="603.44" cy="36.592" r="19.479"/>
			</g>
			<g>
				<g>
					<path fill="#EBE658" d="M609.985,46.876h-13.813v-1.568c3.5-2.892,5.772-4.83,6.816-5.814c1.044-0.984,1.893-2.018,2.545-3.098
						c0.652-1.082,0.979-2.158,0.979-3.23c0-1.037-0.425-1.854-1.271-2.452c-0.85-0.598-2.038-0.896-3.568-0.896
						c-1.175,0-2.753,0.269-4.733,0.804l-0.409-1.858c1.791-0.562,3.666-0.844,5.624-0.844c2.242,0,4.049,0.468,5.419,1.404
						c1.371,0.936,2.056,2.187,2.056,3.751c0,1.116-0.353,2.224-1.059,3.322s-1.611,2.153-2.714,3.164
						c-1.104,1.011-3.253,2.82-6.443,5.432h10.572V46.876L609.985,46.876z"/>
				</g>
			</g>
		</g>
		<g>
			<g>
				<circle fill="none" stroke="#FFFFFF" stroke-width="3" stroke-miterlimit="10" cx="656.069" cy="36.592" r="19.479"/>
			</g>
			<g>
				<g>
					<path fill="#EBE658" d="M658.648,36.883c1.529,0.316,2.759,0.895,3.685,1.733c0.925,0.84,1.388,1.782,1.388,2.828
						c0,1.635-0.859,3.008-2.581,4.12c-1.72,1.111-3.749,1.667-6.087,1.667c-1.992,0-3.777-0.325-5.355-0.975l0.568-1.78
						c1.649,0.571,3.28,0.856,4.896,0.856c1.519,0,2.813-0.349,3.889-1.048c1.073-0.698,1.61-1.597,1.61-2.696
						c0-1.08-0.575-1.959-1.727-2.637c-1.15-0.676-2.676-1.015-4.573-1.015h-0.767v-1.78h0.214c1.827,0,3.334-0.318,4.521-0.955
						c1.187-0.638,1.779-1.496,1.779-2.578c0-0.878-0.428-1.566-1.281-2.062c-0.854-0.497-2.028-0.745-3.523-0.745
						c-1.294,0-2.741,0.26-4.343,0.778l-0.392-1.859c1.612-0.545,3.238-0.817,4.876-0.817c2.242,0,4.091,0.438,5.545,1.312
						c1.453,0.875,2.18,1.998,2.18,3.369c0,0.949-0.442,1.834-1.326,2.656c-0.884,0.821-1.948,1.338-3.193,1.549v0.079H658.648z"/>
				</g>
			</g>
		</g>
		<g>
			<g>
				<circle fill="none" stroke="#FFFFFF" stroke-width="3" stroke-miterlimit="10" cx="708.699" cy="36.592" r="19.479"/>
			</g>
			<g>
				<g>
					<path fill="#EBE658" d="M717.881,42.578h-3.097v4.298h-2.919v-4.298h-10.928v-1.647l9.913-12.656h3.934v12.418h3.097V42.578z
						 M711.865,40.692V30.409l-7.974,10.283H711.865z"/>
				</g>
			</g>
		</g>
		<g>
			<g>
				<circle fill="none" stroke="#FFFFFF" stroke-width="3" stroke-miterlimit="10" cx="761.329" cy="36.592" r="19.479"/>
			</g>
			<g>
				<g>
					<path fill="#EBE658" d="M759.139,35.775c0.808-0.158,1.597-0.237,2.367-0.237c2.372,0,4.247,0.538,5.624,1.615
						c1.376,1.076,2.064,2.419,2.064,4.027c0,1.688-0.802,3.118-2.403,4.291c-1.602,1.174-3.554,1.76-5.855,1.76
						c-2.194,0-4.033-0.272-5.517-0.816l0.587-1.833c1.613,0.501,3.28,0.751,5.001,0.751c1.531,0,2.769-0.364,3.711-1.094
						c0.943-0.73,1.415-1.749,1.415-3.059c0-1.239-0.445-2.192-1.335-2.861c-0.89-0.667-2.035-1.002-3.435-1.002
						c-1.021,0-2.029,0.146-3.025,0.436l-1.745-0.594v-8.885h11.48v1.885h-8.936L759.139,35.775L759.139,35.775z"/>
				</g>
			</g>
		</g>
		<g>
			<g>
				<circle fill="none" stroke="#FFFFFF" stroke-width="3" stroke-miterlimit="10" cx="813.958" cy="36.592" r="19.479"/>
			</g>
			<g>
				<g>
					<path fill="#EBE658" d="M810.485,37.187c1.565-0.94,3.27-1.411,5.107-1.411c2.124,0,3.896,0.503,5.313,1.51
						c1.418,1.006,2.127,2.305,2.127,3.896c0,1.749-0.629,3.195-1.888,4.338c-1.258,1.143-2.937,1.713-5.035,1.713
						c-2.683,0-4.807-0.911-6.372-2.735c-1.566-1.823-2.351-4.054-2.351-6.69c0-2.812,0.816-5.163,2.447-7.053
						c1.632-1.89,3.865-2.835,6.701-2.835c1.958,0,3.647,0.216,5.072,0.646l-0.464,1.926c-1.648-0.449-3.155-0.673-4.521-0.673
						c-1.934,0-3.441,0.686-4.521,2.057C811.025,33.244,810.485,35.016,810.485,37.187z M810.575,39.045
						c0,1.591,0.504,3.037,1.513,4.337c1.008,1.302,2.277,1.951,3.81,1.951c1.293,0,2.29-0.351,2.989-1.055
						c0.699-0.702,1.051-1.674,1.051-2.913c0-1.143-0.387-2.044-1.157-2.702c-0.771-0.66-1.856-0.989-3.257-0.989
						C813.707,37.674,812.058,38.131,810.575,39.045z"/>
				</g>
			</g>
		</g>
		<g>
			<g>
				<circle fill="none" stroke="#FFFFFF" stroke-width="3" stroke-miterlimit="10" cx="866.588" cy="36.592" r="19.479"/>
			</g>
			<g>
				<g>
					<path fill="#EBE658" d="M875.111,29.816l-9.949,17.06h-2.989l9.808-16.717h-11.766v-1.885h14.896V29.816z"/>
				</g>
			</g>
		</g>
		<g>
			<g>
				<circle fill="none" stroke="#FFFFFF" stroke-width="3" stroke-miterlimit="10" cx="919.218" cy="36.592" r="19.479"/>
			</g>
			<g>
				<g>
					<path fill="#EBE658" d="M922.757,36.672c1.709,0.369,3.034,0.998,3.979,1.886c0.943,0.888,1.415,1.924,1.415,3.111
						c0,1.705-0.764,3.059-2.287,4.061c-1.524,1.002-3.402,1.502-5.633,1.502c-2.339,0-4.258-0.505-5.759-1.516
						c-1.501-1.011-2.251-2.351-2.251-4.021c0-1.177,0.486-2.215,1.459-3.111c0.974-0.896,2.332-1.533,4.076-1.911
						c-1.389-0.264-2.501-0.771-3.337-1.522c-0.837-0.752-1.255-1.593-1.255-2.525c0-1.194,0.641-2.278,1.922-3.249
						c1.281-0.972,2.973-1.457,5.072-1.457c2.076,0,3.794,0.483,5.152,1.45c1.357,0.967,2.037,2.053,2.037,3.256
						c0,0.906-0.427,1.738-1.28,2.499C925.213,35.883,924.109,36.399,922.757,36.672z M920.158,37.621
						c-3.251,0.703-4.876,2.026-4.876,3.968c0,1.135,0.492,2.042,1.477,2.723c0.985,0.682,2.143,1.021,3.472,1.021
						c1.376,0,2.535-0.336,3.479-1.008c0.943-0.673,1.415-1.584,1.415-2.736c0-0.869-0.326-1.649-0.979-2.34
						C923.492,38.56,922.163,38.017,920.158,37.621z M920.158,35.775c0.06,0,0.345-0.053,0.854-0.158
						c0.51-0.105,0.946-0.235,1.31-0.389c0.36-0.154,0.695-0.35,1.005-0.587c0.309-0.237,0.558-0.517,0.748-0.837
						c0.188-0.321,0.284-0.679,0.284-1.075c0-0.844-0.409-1.544-1.229-2.103c-0.819-0.558-1.81-0.837-2.973-0.837
						c-1.127,0-2.095,0.286-2.9,0.857c-0.808,0.571-1.211,1.266-1.211,2.082c0,0.52,0.146,0.972,0.438,1.358
						c0.29,0.387,0.651,0.698,1.086,0.937c0.433,0.236,0.931,0.422,1.493,0.553C919.627,35.71,919.992,35.775,920.158,35.775z"/>
				</g>
			</g>
		</g>
		<g>
			<g>
				<circle fill="none" stroke="#FFFFFF" stroke-width="3" stroke-miterlimit="10" cx="971.847" cy="36.592" r="19.479"/>
			</g>
			<g>
				<g>
					<path fill="#EBE658" d="M977.646,37.938c-1.447,0.94-3.149,1.411-5.107,1.411c-2.124,0-3.896-0.504-5.313-1.51
						c-1.418-1.007-2.127-2.305-2.127-3.896c0-1.704,0.68-3.14,2.038-4.304c1.358-1.165,3.111-1.747,5.259-1.747
						c2.622,0,4.67,0.888,6.142,2.663c1.471,1.775,2.207,4.03,2.207,6.763c0,2.734-0.863,5.065-2.59,6.994
						c-1.728,1.93-4.037,2.895-6.934,2.895c-1.944,0-3.63-0.221-5.054-0.66l0.462-1.911c1.638,0.448,3.146,0.673,4.521,0.673
						c1.97,0,3.545-0.708,4.726-2.123S977.646,40.021,977.646,37.938z M977.576,36.079c0-1.67-0.457-3.136-1.371-4.397
						c-0.913-1.261-2.111-1.892-3.595-1.892c-1.341,0-2.411,0.367-3.213,1.101s-1.201,1.69-1.201,2.868
						c0,1.08,0.405,1.966,1.22,2.656c0.813,0.689,1.877,1.035,3.194,1.035c1.814,0,3.394-0.413,4.733-1.24L977.576,36.079z"/>
				</g>
			</g>
		</g>
		<g>
			<g>
				<circle fill="none" stroke="#FFFFFF" stroke-width="3" stroke-miterlimit="10" cx="1024.477" cy="36.592" r="19.479"/>
			</g>
			<g>
				<g>
					<path fill="#EBE658" d="M1023.116,45.804h-13.207v-1.885h5.322V29.47l-5.021,1.858v-2.162l5.43-2.069h2.509v16.822h4.967
						V45.804z"/>
					<path fill="#EBE658" d="M1032.224,26.846c2.656,0,4.701,0.846,6.132,2.538c1.43,1.691,2.145,4.066,2.145,7.125
						c0,2.963-0.693,5.312-2.082,7.047c-1.389,1.736-3.453,2.604-6.193,2.604c-2.646,0-4.688-0.844-6.123-2.531
						c-1.435-1.687-2.153-4.061-2.153-7.119c0-2.97,0.696-5.323,2.092-7.06C1027.433,27.714,1029.493,26.846,1032.224,26.846z
						 M1032.224,44.261c1.757,0,3.058-0.617,3.906-1.852c0.849-1.235,1.271-3.201,1.271-5.9c0-2.706-0.425-4.673-1.271-5.899
						c-0.85-1.226-2.149-1.839-3.906-1.839c-1.731,0-3.026,0.629-3.881,1.885c-0.854,1.258-1.28,3.209-1.28,5.854
						c0,2.682,0.424,4.644,1.272,5.887C1029.183,43.64,1030.479,44.261,1032.224,44.261z M1032.151,34.532
						c0.748,0,1.379,0.19,1.896,0.573c0.516,0.382,0.773,0.851,0.773,1.403c0,0.572-0.263,1.062-0.783,1.471
						c-0.521,0.408-1.15,0.613-1.887,0.613c-0.724,0-1.345-0.205-1.859-0.613c-0.516-0.409-0.773-0.898-0.773-1.471
						c0-0.562,0.25-1.032,0.757-1.41C1030.778,34.721,1031.403,34.532,1032.151,34.532z"/>
				</g>
			</g>
		</g>
		<g>
			<g>
				<circle fill="none" stroke="#FFFFFF" stroke-width="3" stroke-miterlimit="10" cx="1077.105" cy="36.592" r="19.479"/>
			</g>
			<g>
				<g>
					<path fill="#EBE658" d="M1076.311,44.876h-13.207v-1.885h5.321V28.542l-5.019,1.858v-2.162l5.429-2.069h2.509v16.822h4.966
						L1076.311,44.876L1076.311,44.876z"/>
					<path fill="#EBE658" d="M1092.643,44.876h-13.206v-1.885h5.321V28.542l-5.019,1.858v-2.162l5.429-2.069h2.509v16.822h4.966
						V44.876L1092.643,44.876z"/>
				</g>
			</g>
		</g>
		<g>
			<g>
				<circle fill="none" stroke="#FFFFFF" stroke-width="3" stroke-miterlimit="10" cx="1129.735" cy="36.592" r="19.479"/>
			</g>
			<g>
				<path fill="#EBE658" d="M1128.494,44.876h-13.206v-1.885h5.321V28.542l-5.02,1.858v-2.162l5.429-2.069h2.51v16.822h4.966V44.876
					L1128.494,44.876z"/>
				<path fill="#EBE658" d="M1144.169,44.876h-13.812v-1.568c3.5-2.892,5.771-4.83,6.815-5.814c1.044-0.984,1.894-2.018,2.545-3.098
					c0.653-1.082,0.979-2.158,0.979-3.23c0-1.037-0.426-1.854-1.272-2.452c-0.849-0.598-2.038-0.896-3.567-0.896
					c-1.176,0-2.754,0.269-4.734,0.804l-0.409-1.858c1.791-0.562,3.666-0.844,5.624-0.844c2.242,0,4.049,0.468,5.419,1.404
					c1.371,0.936,2.056,2.187,2.056,3.751c0,1.116-0.353,2.224-1.059,3.322s-1.611,2.153-2.714,3.164
					c-1.104,1.011-3.252,2.82-6.443,5.432h10.572V44.876L1144.169,44.876z"/>
			</g>
		</g>
	</g>
	<g>
		<g>
			<g>
				<path fill="#E3E036" stroke="#E3E036" stroke-width="2" stroke-miterlimit="10" d="M95.044,141.015v0.518v0.575H73.272v-0.575
					V100.9v-0.633h21.463v0.633v0.461H74.894v21.755h15.519v0.575v0.518H74.894v16.806H95.044L95.044,141.015z"/>
				<path fill="#E3E036" stroke="#E3E036" stroke-width="2" stroke-miterlimit="10" d="M130.481,100.498h1.699l-11.35,41.38h-0.663
					h-0.147h-0.147h-0.663l-11.35-41.38h1.699l10.5,38.56L130.481,100.498z"/>
				<path fill="#E3E036" stroke="#E3E036" stroke-width="2" stroke-miterlimit="10" d="M166.382,142.107h-1.698l-3.475-12.604
					h-13.434l-3.629,12.604h-1.698l11.35-41.84h1.312L166.382,142.107z M160.746,128.295l-6.254-24.862l-6.485,24.862H160.746z
					 M154.184,100.268h0.077h0.154h0.077h0.077h0.154H154.184z"/>
				<path fill="#E3E036" stroke="#E3E036" stroke-width="2" stroke-miterlimit="10" d="M179.969,142.107v-0.575v-41.265h0.811h0.811
					v40.747h20.691v0.518v0.575H179.969L179.969,142.107z"/>
				<path fill="#E3E036" stroke="#E3E036" stroke-width="2" stroke-miterlimit="10" d="M241.732,132.784c0,0.077,0,0.365,0,0.863
					c0,0.499-0.103,1.104-0.308,1.813s-0.525,1.467-0.962,2.272c-0.437,0.807-1.091,1.555-1.962,2.245
					c-1.949,1.573-4.693,2.359-8.233,2.359c-3.437,0-6.129-0.786-8.078-2.359c-0.873-0.69-1.526-1.458-1.962-2.302
					c-0.437-0.844-0.731-1.641-0.886-2.389c-0.155-0.748-0.23-1.391-0.23-1.928s0-0.863,0-0.979v-32.345h0.811h0.812v32.402v0.058
					c0,0.422,0,0.834,0,1.237c0,0.402,0.05,0.797,0.154,1.18c0.104,0.69,0.349,1.41,0.735,2.158
					c0.388,0.748,0.969,1.448,1.744,2.101c1.603,1.305,3.901,1.957,6.9,1.957c3.049,0,5.427-0.671,7.132-2.015
					c0.723-0.613,1.277-1.275,1.666-1.985c0.388-0.71,0.659-1.391,0.814-2.043c0.103-0.384,0.167-0.758,0.193-1.123
					c0.025-0.364,0.038-0.738,0.038-1.122v-0.058v-32.747h0.811h0.811V132.784L241.732,132.784z"/>
				<path fill="#E3E036" stroke="#E3E036" stroke-width="2" stroke-miterlimit="10" d="M277.556,142.107h-1.698l-3.475-12.604
					h-13.434l-3.629,12.604h-1.698l11.35-41.84h1.312L277.556,142.107z M271.92,128.295l-6.254-24.862l-6.485,24.862H271.92z
					 M265.357,100.268h0.077h0.154h0.077h0.077h0.154H265.357z"/>
				<path fill="#E3E036" stroke="#E3E036" stroke-width="2" stroke-miterlimit="10" d="M312.221,132.555c0,0.038,0,0.336,0,0.892
					c0,0.557-0.091,1.237-0.271,2.043c-0.181,0.806-0.489,1.65-0.927,2.532c-0.438,0.883-1.094,1.669-1.969,2.359
					c-2.007,1.574-4.786,2.36-8.338,2.36c-3.552,0-6.254-0.786-8.106-2.36c-0.927-0.728-1.609-1.515-2.046-2.359
					c-0.438-0.844-0.733-1.64-0.888-2.389c-0.154-0.748-0.22-1.39-0.193-1.928c0.025-0.537,0.039-0.863,0.039-0.979v-23.653
					c0-3.069,1.235-5.468,3.705-7.194c0.978-0.651,2.123-1.17,3.436-1.554c1.312-0.383,2.664-0.575,4.054-0.575
					c2.779,0,5.301,0.69,7.566,2.071c1.286,0.806,2.277,1.909,2.973,3.31c0.694,1.401,1.042,2.926,1.042,4.575H310.6
					c0-1.496-0.297-2.8-0.889-3.913c-0.592-1.112-1.364-2.023-2.315-2.734c-0.953-0.709-2.021-1.237-3.204-1.582
					c-1.185-0.346-2.343-0.519-3.475-0.519c-1.185,0-2.354,0.164-3.513,0.489c-1.158,0.326-2.188,0.815-3.088,1.468
					c-0.901,0.653-1.622,1.496-2.162,2.532c-0.54,1.036-0.811,2.244-0.811,3.626v23.711v0.058c0,0.96,0.063,1.775,0.192,2.446
					c0.128,0.672,0.387,1.391,0.772,2.158c0.385,0.767,0.965,1.458,1.737,2.071c1.646,1.344,3.938,2.015,6.871,2.015
					c3.036,0,5.404-0.671,7.103-2.015c0.772-0.613,1.352-1.313,1.737-2.101c0.387-0.785,0.656-1.544,0.811-2.272
					c0.155-0.729,0.232-1.592,0.232-2.59L312.221,132.555L312.221,132.555z"/>
				<path fill="#E3E036" stroke="#E3E036" stroke-width="2" stroke-miterlimit="10" d="M328.278,142.107v-41.84h0.811h0.811v41.84
					h-0.811H328.278z"/>
				<path fill="#E3E036" stroke="#E3E036" stroke-width="2" stroke-miterlimit="10" d="M368.733,133.072c0,0.115,0,0.423,0,0.921
					c0,0.499-0.104,1.104-0.309,1.812c-0.207,0.711-0.528,1.468-0.966,2.273c-0.438,0.805-1.094,1.554-1.969,2.244
					c-1.03,0.769-2.483,1.353-4.361,1.756c-1.88,0.402-3.694,0.604-5.443,0.604c-1.751,0-3.552-0.202-5.404-0.604
					c-1.854-0.403-3.27-0.987-4.246-1.756c-0.876-0.69-1.532-1.457-1.969-2.302c-0.438-0.844-0.733-1.64-0.889-2.389
					c-0.154-0.748-0.231-1.39-0.231-1.928c0-0.537,0-0.863,0-0.979v-23.596c0-1.534,0.296-2.906,0.888-4.115
					c0.592-1.209,1.531-2.234,2.818-3.079c0.514-0.345,1.145-0.651,1.892-0.921c0.745-0.268,1.531-0.489,2.354-0.661
					c0.823-0.173,1.646-0.308,2.471-0.403c0.823-0.096,1.595-0.144,2.316-0.144c0.668,0,1.428,0.038,2.277,0.115
					c0.849,0.077,1.698,0.201,2.548,0.374c0.85,0.172,1.646,0.384,2.394,0.633c0.745,0.25,1.376,0.547,1.892,0.892
					c2.625,1.727,3.938,4.164,3.938,7.31L368.733,133.072L368.733,133.072z M367.112,109.131c0-1.343-0.232-2.494-0.695-3.453
					c-0.463-0.959-1.107-1.765-1.93-2.417c-0.464-0.384-1.069-0.72-1.814-1.008c-0.747-0.287-1.532-0.526-2.355-0.719
					c-0.823-0.193-1.647-0.326-2.47-0.403c-0.824-0.076-1.545-0.115-2.162-0.115c-1.185,0-2.432,0.106-3.744,0.316
					c-1.312,0.212-2.51,0.614-3.591,1.209c-1.08,0.596-1.969,1.42-2.663,2.475c-0.695,1.056-1.042,2.427-1.042,4.115v23.653
					c-0.053,0.96,0,1.784,0.154,2.475c0.154,0.691,0.411,1.42,0.771,2.188c0.359,0.768,0.927,1.458,1.699,2.071
					c0.822,0.653,2.058,1.143,3.705,1.468c1.646,0.326,3.217,0.489,4.71,0.489c0.771,0,1.569-0.038,2.394-0.115
					c0.822-0.076,1.633-0.201,2.432-0.374c0.798-0.173,1.531-0.383,2.2-0.633c0.669-0.249,1.209-0.547,1.621-0.893
					c0.772-0.613,1.338-1.284,1.699-2.014c0.359-0.729,0.617-1.41,0.771-2.043c0.154-0.634,0.232-1.391,0.232-2.273L367.112,109.131
					z"/>
				<path fill="#E3E036" stroke="#E3E036" stroke-width="2" stroke-miterlimit="10" d="M382.32,142.107h-0.812h-0.811v-41.265
					v-0.575h1.312l21.383,36.66c0.31,0.538,0.528,0.96,0.658,1.267c0.13,0.308,0.245,0.557,0.35,0.748v-38.675h0.771h0.851v41.84
					h-1.396l-21.146-36.372c-0.104-0.191-0.323-0.585-0.658-1.18c-0.336-0.595-0.556-1.065-0.658-1.41L382.32,142.107z
					 M381.779,100.268h-0.077h-0.077h-0.077h-0.077h-0.077h-0.077h-0.077H381.779z M405.481,142.107h-0.154h-0.154h-0.154h-0.076
					H405.481z"/>
			</g>
			<g>
				<path fill="#FFFFFF" d="M99.659,24.381v6.608h-8.424v-6.421c0-2.687-0.389-4.546-1.163-5.576
					c-0.776-1.031-2.148-1.547-4.118-1.547c-1.803,0-3.06,0.586-3.771,1.758c-0.714,1.171-1.069,3.632-1.069,7.381V69.37
					c0,3.843,0.377,6.343,1.132,7.498c0.754,1.156,2.138,1.734,4.149,1.734c1.718,0,2.954-0.546,3.709-1.641
					c0.754-1.093,1.132-2.952,1.132-5.576v-7.451h8.424v7.686c0,4.718-0.985,7.912-2.954,9.583
					c-1.971,1.671-5.491,2.508-10.562,2.508c-4.988,0-8.466-1.078-10.436-3.233c-1.971-2.156-2.955-6.17-2.955-12.045V27.521
					c0-5.843,0.984-9.826,2.955-11.951c1.97-2.124,5.447-3.187,10.436-3.187c5.113,0,8.645,0.828,10.594,2.484
					C98.685,16.524,99.659,19.694,99.659,24.381z"/>
				<path fill="#FFFFFF" d="M126.943,33.285v5.858h-1.32c-3.312,0-5.658,0.617-7.041,1.851c-1.383,1.234-2.074,3.367-2.074,6.397
					v35.147h-7.733V34.363h7.23l0.503,2.952c1.089-1.312,2.42-2.327,3.992-3.046c1.571-0.719,3.278-1.078,5.123-1.078
					c0.126,0,0.335,0.017,0.629,0.047C126.545,33.27,126.775,33.285,126.943,33.285z"/>
				<path fill="#FFFFFF" d="M132.099,13.415h8.613v7.311h-8.613V13.415z M132.476,34.363h7.733v48.176h-7.733V34.363z"/>
				<path fill="#FFFFFF" d="M160.264,21.382v12.981h5.909v4.874h-5.909v35.804c0,1.344,0.346,2.272,1.037,2.788
					c0.691,0.516,1.938,0.773,3.741,0.773h1.131v5.015c-0.461,0.03-0.933,0.054-1.414,0.07c-0.482,0.015-1.163,0.023-2.043,0.023
					c-3.94,0-6.623-0.711-8.048-2.133c-1.425-1.421-2.137-4.584-2.137-9.489V39.237h-4.213v-4.874h4.213V23.725L160.264,21.382z"/>
				<path fill="#FFFFFF" d="M199.934,46.923v14.293H181.64v10.17c0,2.875,0.377,4.827,1.131,5.857
					c0.755,1.031,2.096,1.547,4.024,1.547c1.844,0,3.143-0.531,3.897-1.594c0.754-1.062,1.132-2.999,1.132-5.811v-5.343h8.109v3.937
					c0,5.312-0.964,8.928-2.892,10.849c-1.929,1.922-5.344,2.883-10.247,2.883c-4.863,0-8.268-0.978-10.217-2.93
					c-1.948-1.952-2.923-5.584-2.923-10.896V46.923c0-5.343,0.953-8.967,2.86-10.873c1.906-1.905,5.333-2.858,10.279-2.858
					c4.861,0,8.267,0.977,10.216,2.929C198.959,38.073,199.934,41.674,199.934,46.923z M191.824,45.47
					c0-2.843-0.378-4.78-1.132-5.811c-0.755-1.031-2.054-1.547-3.897-1.547c-1.887,0-3.218,0.547-3.992,1.641
					c-0.776,1.094-1.163,2.999-1.163,5.717v10.872h10.185L191.824,45.47L191.824,45.47z"/>
				<path fill="#FFFFFF" d="M229.67,33.285v5.858h-1.32c-3.312,0-5.658,0.617-7.041,1.851c-1.383,1.234-2.074,3.367-2.074,6.397
					v35.147h-7.733V34.363h7.23l0.503,2.952c1.089-1.312,2.42-2.327,3.992-3.046c1.571-0.719,3.278-1.078,5.123-1.078
					c0.126,0,0.335,0.017,0.629,0.047C229.271,33.27,229.502,33.285,229.67,33.285z"/>
				<path fill="#FFFFFF" d="M234.825,13.415h8.613v7.311h-8.613V13.415z M235.202,34.363h7.733v48.176h-7.733V34.363z"/>
				<path fill="#FFFFFF" d="M280.907,46.923V69.98c0,5.312-0.964,8.928-2.892,10.849c-1.929,1.922-5.344,2.883-10.247,2.883
					c-4.863,0-8.268-0.978-10.217-2.93c-1.948-1.952-2.923-5.584-2.923-10.896V46.923c0-5.343,0.953-8.967,2.86-10.873
					c1.906-1.905,5.333-2.858,10.279-2.858c4.861,0,8.267,0.977,10.216,2.929C279.933,38.073,280.907,41.674,280.907,46.923z
					 M272.798,45.47c0-2.843-0.378-4.78-1.132-5.811c-0.755-1.031-2.054-1.547-3.897-1.547c-1.887,0-3.218,0.547-3.992,1.641
					c-0.776,1.094-1.163,2.999-1.163,5.717v25.916c0,2.875,0.377,4.827,1.131,5.857c0.755,1.031,2.096,1.547,4.024,1.547
					c1.844,0,3.143-0.531,3.897-1.594c0.754-1.062,1.132-2.999,1.132-5.811V45.47z"/>
				<path fill="#FFFFFF" d="M314.353,45.47v2.718h-7.732V45.47c0-2.968-0.283-4.936-0.849-5.904
					c-0.566-0.968-1.604-1.453-3.112-1.453c-1.342,0-2.294,0.445-2.86,1.336c-0.565,0.89-0.849,2.397-0.849,4.521v1.922
					c0,1.031,0.262,2.047,0.786,3.046c0.523,1.001,1.372,2.062,2.546,3.187l9.367,9.279c1.048,1.062,1.854,2.156,2.421,3.28
					c0.565,1.125,0.849,2.188,0.849,3.188v4.592c0,4.156-0.912,7.069-2.735,8.74c-1.822,1.671-4.914,2.508-9.272,2.508
					c-4.526,0-7.67-0.875-9.431-2.625c-1.76-1.749-2.64-4.982-2.64-9.7v-4.124h7.67v4.124c0,3.062,0.303,5.061,0.911,5.998
					c0.607,0.938,1.687,1.406,3.237,1.406c1.593,0,2.725-0.469,3.396-1.406c0.67-0.938,1.006-2.577,1.006-4.921v-1.827
					c0-2.624-1.279-5.155-3.835-7.592c-0.085-0.094-0.147-0.156-0.188-0.188l-9.116-9.186c-0.965-0.968-1.656-1.929-2.074-2.882
					c-0.42-0.953-0.629-2.007-0.629-3.163v-3.469c0-3.967,0.89-6.787,2.672-8.458c1.781-1.672,4.746-2.508,8.896-2.508
					c4.316,0,7.324,0.875,9.021,2.624C313.504,37.566,314.353,40.783,314.353,45.47z"/>
				<path fill="#FFFFFF" d="M362.761,13.415h7.858v69.124h-7.229l-0.629-2.952c-1.048,1.375-2.357,2.406-3.929,3.093
					c-1.572,0.687-3.406,1.031-5.501,1.031c-3.229,0-5.532-0.82-6.916-2.461c-1.383-1.64-2.074-4.506-2.074-8.6V44.251
					c0-4.092,0.691-6.959,2.074-8.599c1.384-1.641,3.688-2.461,6.916-2.461c2.095,0,3.938,0.352,5.532,1.055
					c1.592,0.703,2.892,1.727,3.897,3.069L362.761,13.415L362.761,13.415z M362.761,45.47c0-2.718-0.388-4.623-1.163-5.717
					c-0.775-1.094-2.105-1.641-3.992-1.641c-1.928,0-3.29,0.531-4.086,1.594c-0.797,1.062-1.194,2.983-1.194,5.764v25.916
					c0,2.812,0.397,4.749,1.194,5.811c0.796,1.062,2.158,1.594,4.086,1.594c1.887,0,3.217-0.546,3.992-1.641
					c0.775-1.093,1.163-3.015,1.163-5.764V45.47z"/>
				<path fill="#FFFFFF" d="M408.466,46.923v14.293h-18.294v10.17c0,2.875,0.377,4.827,1.131,5.857
					c0.755,1.031,2.096,1.547,4.024,1.547c1.844,0,3.143-0.531,3.896-1.594c0.754-1.062,1.133-2.999,1.133-5.811v-5.343h8.108v3.937
					c0,5.312-0.964,8.928-2.892,10.849c-1.93,1.922-5.345,2.883-10.247,2.883c-4.863,0-8.268-0.978-10.217-2.93
					c-1.948-1.952-2.923-5.584-2.923-10.896V46.923c0-5.343,0.953-8.967,2.86-10.873c1.906-1.905,5.333-2.858,10.279-2.858
					c4.86,0,8.267,0.977,10.216,2.929C407.491,38.073,408.466,41.674,408.466,46.923z M400.356,45.47
					c0-2.843-0.379-4.78-1.133-5.811c-0.755-1.031-2.054-1.547-3.896-1.547c-1.887,0-3.218,0.547-3.992,1.641
					c-0.776,1.094-1.163,2.999-1.163,5.717v10.872h10.186L400.356,45.47L400.356,45.47z"/>
			</g>
		</g>
		<line fill="none" stroke="#E3E036" stroke-width="3" stroke-miterlimit="10" x1="366.527" y1="96.697" x2="374.958" y2="90.466"/>
	</g>
	
		<line fill="none" stroke="#E3E036" stroke-width="3" stroke-miterlimit="10" stroke-dasharray="5" x1="519.517" y1="15.113" x2="519.517" y2="375.283"/>
</g>
</svg>
