<?xml version="1.0" encoding="utf-8"?>
<!-- Generator: Adobe Illustrator 16.0.0, SVG Export Plug-In . SVG Version: 6.00 Build 0)  -->
<!DOCTYPE svg PUBLIC "-//W3C//DTD SVG 1.1//EN" "http://www.w3.org/Graphics/SVG/1.1/DTD/svg11.dtd">
<svg version="1.1" id="Capa_1" xmlns="http://www.w3.org/2000/svg" xmlns:xlink="http://www.w3.org/1999/xlink" x="0px" y="0px"
	 width="1187.868px" height="308.244px" viewBox="0 0 1187.868 308.244" enable-background="new 0 0 1187.868 308.244"
	 xml:space="preserve">
<g>
	<g>
		<g>
			<g>
				<path fill="#FFFFFF" d="M5.687,106.295h17.406v4.312H11.967v19.573h10.631v4.275H11.967v21.896h11.422v4.312H5.687V106.295z"/>
				<path fill="#FFFFFF" d="M48.608,131.507v2.139h-6.082v-2.139c0-2.334-0.223-3.882-0.668-4.644s-1.261-1.144-2.447-1.144
					c-1.056,0-1.806,0.351-2.25,1.051c-0.445,0.7-0.668,1.887-0.668,3.558v1.511c0,0.812,0.206,1.61,0.618,2.396
					s1.079,1.621,2.003,2.506l7.367,7.299c0.824,0.836,1.459,1.695,1.904,2.58s0.668,1.721,0.668,2.507v3.612
					c0,3.269-0.718,5.56-2.151,6.874c-1.435,1.314-3.865,1.973-7.294,1.973c-3.561,0-6.032-0.688-7.417-2.064
					s-2.077-3.919-2.077-7.63v-3.244h6.033v3.244c0,2.408,0.238,3.98,0.717,4.718c0.478,0.737,1.326,1.105,2.547,1.105
					c1.252,0,2.143-0.368,2.67-1.105s0.791-2.027,0.791-3.87v-1.438c0-2.064-1.006-4.055-3.017-5.972
					c-0.066-0.074-0.115-0.123-0.148-0.147l-7.17-7.225c-0.759-0.762-1.303-1.518-1.632-2.267c-0.329-0.75-0.494-1.579-0.494-2.488
					v-2.728c0-3.121,0.7-5.339,2.102-6.653c1.4-1.314,3.733-1.973,6.997-1.973c3.395,0,5.761,0.688,7.096,2.064
					C47.94,125.291,48.608,127.821,48.608,131.507z"/>
				<path fill="#FFFFFF" d="M63.294,112.561v10.211h4.647v3.833h-4.647v28.162c0,1.057,0.271,1.787,0.815,2.193
					c0.544,0.405,1.524,0.607,2.942,0.607h0.89v3.944c-0.362,0.024-0.733,0.043-1.112,0.056c-0.379,0.012-0.915,0.019-1.607,0.019
					c-3.099,0-5.209-0.56-6.329-1.678c-1.121-1.118-1.681-3.605-1.681-7.464v-25.84h-3.313v-3.833h3.313v-8.367L63.294,112.561z"/>
				<path fill="#FFFFFF" d="M88.314,121.924v4.607h-1.038c-2.604,0-4.45,0.485-5.538,1.456s-1.632,2.648-1.632,5.031v27.646h-6.082
					v-37.893h5.687l0.396,2.322c0.856-1.032,1.903-1.83,3.14-2.396c1.236-0.564,2.579-0.848,4.03-0.848
					c0.099,0,0.264,0.013,0.494,0.037S88.183,121.924,88.314,121.924z"/>
				<path fill="#FFFFFF" d="M112.545,131.618v29.046h-5.687l-0.396-2.322c-0.824,1.057-1.871,1.861-3.14,2.414
					c-1.27,0.554-2.729,0.83-4.377,0.83c-2.571,0-4.393-0.646-5.464-1.936s-1.606-3.544-1.606-6.764v-7.557
					c0-2.973,1.079-5.087,3.238-6.34c2.159-1.254,5.941-1.954,11.349-2.102v-5.382c0-2.285-0.289-3.82-0.865-4.607
					c-0.577-0.786-1.607-1.18-3.091-1.18c-1.418,0-2.432,0.363-3.041,1.088c-0.61,0.725-0.915,1.972-0.915,3.741v2.102h-6.082
					v-1.032c0-3.784,0.742-6.358,2.226-7.723c1.483-1.363,4.12-2.046,7.911-2.046c3.692,0,6.271,0.688,7.739,2.064
					C111.811,125.291,112.545,127.858,112.545,131.618z M106.413,140.575c-3.164,0.099-5.315,0.516-6.453,1.253
					c-1.137,0.737-1.705,2.064-1.705,3.981v6.082c0,2.261,0.296,3.796,0.89,4.607c0.594,0.811,1.648,1.216,3.165,1.216
					c1.483,0,2.546-0.436,3.189-1.309c0.643-0.871,0.964-2.377,0.964-4.515L106.413,140.575z"/>
				<path fill="#FFFFFF" d="M128.221,112.561v10.211h4.647v3.833h-4.647v28.162c0,1.057,0.271,1.787,0.815,2.193
					c0.544,0.405,1.524,0.607,2.942,0.607h0.89v3.944c-0.362,0.024-0.733,0.043-1.112,0.056c-0.379,0.012-0.915,0.019-1.607,0.019
					c-3.099,0-5.209-0.56-6.329-1.678c-1.121-1.118-1.681-3.605-1.681-7.464v-25.84h-3.313v-3.833h3.313v-8.367L128.221,112.561z"/>
				<path fill="#FFFFFF" d="M159.422,132.65v11.242h-14.39v7.999c0,2.261,0.297,3.796,0.89,4.607
					c0.594,0.811,1.648,1.216,3.165,1.216c1.45,0,2.473-0.417,3.065-1.253c0.594-0.835,0.891-2.359,0.891-4.57v-4.202h6.379v3.096
					c0,4.178-0.759,7.022-2.274,8.533c-1.518,1.512-4.203,2.268-8.061,2.268c-3.824,0-6.503-0.769-8.035-2.304
					c-1.533-1.536-2.3-4.393-2.3-8.57V132.65c0-4.202,0.75-7.053,2.25-8.552s4.194-2.249,8.085-2.249
					c3.823,0,6.502,0.769,8.035,2.304C158.655,125.689,159.422,128.521,159.422,132.65z M153.043,131.507
					c0-2.235-0.297-3.76-0.891-4.57c-0.593-0.811-1.615-1.217-3.065-1.217c-1.483,0-2.53,0.431-3.14,1.291
					c-0.61,0.86-0.915,2.358-0.915,4.496v8.552h8.011V131.507z"/>
				<path fill="#FFFFFF" d="M182.811,125.094l0.495-2.322h5.687v41.984c0,4.177-0.759,7.016-2.274,8.515
					c-1.518,1.498-4.203,2.248-8.061,2.248c-3.692,0-6.338-0.731-7.937-2.192c-1.6-1.463-2.398-3.951-2.398-7.465v-2.027h6.379
					v2.027c0,2.31,0.288,3.857,0.865,4.645c0.576,0.786,1.607,1.18,3.091,1.18c1.516,0,2.588-0.424,3.214-1.271
					c0.626-0.849,0.939-2.366,0.939-4.553v-9.215c-0.824,1.081-1.847,1.88-3.065,2.396c-1.22,0.517-2.67,0.774-4.352,0.774
					c-2.571,0-4.394-0.633-5.464-1.898c-1.072-1.266-1.607-3.495-1.607-6.69v-20.679c0-3.219,0.544-5.474,1.632-6.764
					s2.9-1.936,5.439-1.936c1.615,0,3.049,0.276,4.302,0.83C180.948,123.232,181.986,124.037,182.811,125.094z M182.811,131.507
					c0-2.162-0.313-3.68-0.939-4.552s-1.665-1.309-3.115-1.309c-1.517,0-2.588,0.424-3.214,1.271
					c-0.627,0.848-0.939,2.378-0.939,4.589v18.652c0,2.236,0.312,3.777,0.939,4.626c0.626,0.848,1.697,1.271,3.214,1.271
					c1.45,0,2.489-0.442,3.115-1.327s0.939-2.408,0.939-4.57V131.507z"/>
				<path fill="#FFFFFF" d="M197.992,106.295h6.774v5.75h-6.774V106.295z M198.289,122.771h6.082v37.893h-6.082V122.771z"/>
				<path fill="#FFFFFF" d="M233.645,131.618v29.046h-5.687l-0.396-2.322c-0.824,1.057-1.871,1.861-3.14,2.414
					c-1.27,0.554-2.729,0.83-4.377,0.83c-2.571,0-4.393-0.646-5.464-1.936s-1.606-3.544-1.606-6.764v-7.557
					c0-2.973,1.079-5.087,3.238-6.34c2.159-1.254,5.941-1.954,11.349-2.102v-5.382c0-2.285-0.289-3.82-0.865-4.607
					c-0.577-0.786-1.607-1.18-3.091-1.18c-1.418,0-2.432,0.363-3.041,1.088c-0.61,0.725-0.915,1.972-0.915,3.741v2.102h-6.082
					v-1.032c0-3.784,0.742-6.358,2.226-7.723c1.483-1.363,4.12-2.046,7.911-2.046c3.692,0,6.271,0.688,7.739,2.064
					C232.91,125.291,233.645,127.858,233.645,131.618z M227.513,140.575c-3.164,0.099-5.315,0.516-6.453,1.253
					c-1.137,0.737-1.705,2.064-1.705,3.981v6.082c0,2.261,0.296,3.796,0.89,4.607c0.594,0.811,1.648,1.216,3.165,1.216
					c1.483,0,2.546-0.436,3.189-1.309c0.643-0.871,0.964-2.377,0.964-4.515L227.513,140.575z"/>
			</g>
		</g>
		<g>
			<g>
				<path fill="#E3E036" stroke="#E3E036" stroke-width="2" stroke-miterlimit="10" d="M5.768,184.804v21.787H5.334H4.856v-23.178
					v-0.032v-0.291h0.737l8.022,11.702l8.022-11.702h0.694v0.291v0.032v23.178h-0.456h-0.455v-21.819l-7.502,11.152h-0.607
					L5.768,184.804z M5.464,183.09H5.42H5.377H5.334H5.29H5.247H5.203H5.16H5.464z M21.726,183.09h0.043h0.044h0.043h0.044h0.043
					h0.043h0.044H21.726z"/>
				<path fill="#E3E036" stroke="#E3E036" stroke-width="2" stroke-miterlimit="10" d="M42.54,205.977v0.291v0.323H30.312v-0.323
					v-22.821v-0.356h12.056v0.356v0.258H31.223v12.22h8.716v0.323v0.291h-8.716v9.438H42.54z"/>
				<path fill="#E3E036" stroke="#E3E036" stroke-width="2" stroke-miterlimit="10" d="M55.637,183.736h-7.199v-0.29v-0.323h15.179
					v0.323v0.323l0.043-0.033h-7.112v22.854H56.07h-0.434V183.736z"/>
				<path fill="#E3E036" stroke="#E3E036" stroke-width="2" stroke-miterlimit="10" d="M82.739,201.516c0,0.065,0,0.238,0,0.518
					c0,0.28-0.059,0.62-0.174,1.019s-0.297,0.824-0.542,1.276c-0.246,0.453-0.614,0.873-1.105,1.261
					c-0.579,0.432-1.396,0.76-2.45,0.986c-1.056,0.227-2.075,0.339-3.058,0.339s-1.994-0.112-3.035-0.339s-1.836-0.555-2.385-0.986
					c-0.492-0.388-0.861-0.818-1.106-1.293c-0.246-0.474-0.412-0.921-0.498-1.342c-0.087-0.42-0.131-0.78-0.131-1.082
					s0-0.485,0-0.55v-13.254c0-0.861,0.166-1.633,0.499-2.312c0.332-0.679,0.859-1.255,1.583-1.729
					c0.288-0.193,0.643-0.366,1.062-0.517c0.419-0.15,0.859-0.275,1.322-0.372c0.462-0.097,0.925-0.172,1.388-0.227
					c0.462-0.053,0.896-0.08,1.301-0.08c0.376,0,0.803,0.021,1.279,0.064c0.478,0.043,0.954,0.113,1.432,0.21
					c0.477,0.097,0.925,0.216,1.344,0.355c0.419,0.141,0.773,0.308,1.062,0.501c1.475,0.97,2.212,2.339,2.212,4.105V201.516z
					 M81.828,188.068c0-0.754-0.13-1.4-0.39-1.939c-0.261-0.538-0.622-0.991-1.084-1.357c-0.261-0.216-0.601-0.404-1.02-0.566
					c-0.419-0.161-0.86-0.296-1.322-0.403c-0.463-0.107-0.926-0.184-1.388-0.227c-0.463-0.043-0.867-0.064-1.215-0.064
					c-0.665,0-1.365,0.06-2.103,0.178s-1.41,0.345-2.017,0.679c-0.607,0.334-1.106,0.798-1.496,1.39
					c-0.391,0.594-0.586,1.363-0.586,2.312v13.286c-0.029,0.539,0,1.002,0.087,1.39c0.087,0.389,0.231,0.798,0.434,1.229
					c0.202,0.432,0.521,0.819,0.954,1.164c0.462,0.366,1.156,0.642,2.082,0.824c0.925,0.184,1.806,0.274,2.645,0.274
					c0.434,0,0.882-0.021,1.345-0.064c0.462-0.043,0.917-0.113,1.366-0.21c0.447-0.097,0.859-0.215,1.235-0.355
					c0.376-0.14,0.679-0.308,0.911-0.501c0.434-0.345,0.751-0.722,0.954-1.132c0.201-0.409,0.347-0.792,0.434-1.147
					s0.13-0.781,0.13-1.276L81.828,188.068z"/>
				<path fill="#E3E036" stroke="#E3E036" stroke-width="2" stroke-miterlimit="10" d="M89.504,183.09h6.505
					c0.781,0,1.532,0.103,2.255,0.308s1.359,0.501,1.908,0.889c1.388,0.97,2.082,2.317,2.082,4.041v13.027
					c0,1.768-0.694,3.114-2.082,4.041c-0.549,0.388-1.186,0.684-1.908,0.889s-1.474,0.307-2.255,0.307h-3.513h-2.992v-0.323V183.09z
					 M101.343,188.327c0-0.776-0.151-1.455-0.455-2.036c-0.304-0.582-0.709-1.056-1.214-1.423c-0.507-0.366-1.078-0.641-1.713-0.824
					c-0.637-0.183-1.287-0.274-1.952-0.274h-3.513h-2.081v22.143h2.081h3.513c0.665,0,1.315-0.086,1.952-0.259
					c0.635-0.172,1.206-0.446,1.713-0.824c0.505-0.376,0.91-0.851,1.214-1.422s0.455-1.255,0.455-2.053V188.327z"/>
				<path fill="#E3E036" stroke="#E3E036" stroke-width="2" stroke-miterlimit="10" d="M123.068,201.516c0,0.065,0,0.238,0,0.518
					c0,0.28-0.059,0.62-0.174,1.019s-0.297,0.824-0.542,1.276c-0.246,0.453-0.614,0.873-1.105,1.261
					c-0.579,0.432-1.396,0.76-2.45,0.986c-1.056,0.227-2.075,0.339-3.058,0.339s-1.994-0.112-3.035-0.339s-1.836-0.555-2.385-0.986
					c-0.492-0.388-0.861-0.818-1.106-1.293c-0.246-0.474-0.412-0.921-0.498-1.342c-0.087-0.42-0.131-0.78-0.131-1.082
					s0-0.485,0-0.55v-13.254c0-0.861,0.166-1.633,0.499-2.312c0.332-0.679,0.859-1.255,1.583-1.729
					c0.288-0.193,0.643-0.366,1.062-0.517c0.419-0.15,0.859-0.275,1.322-0.372c0.462-0.097,0.925-0.172,1.388-0.227
					c0.462-0.053,0.896-0.08,1.301-0.08c0.376,0,0.803,0.021,1.279,0.064c0.478,0.043,0.954,0.113,1.432,0.21
					c0.477,0.097,0.925,0.216,1.344,0.355c0.419,0.141,0.773,0.308,1.062,0.501c1.475,0.97,2.212,2.339,2.212,4.105V201.516z
					 M122.157,188.068c0-0.754-0.13-1.4-0.39-1.939c-0.261-0.538-0.622-0.991-1.084-1.357c-0.261-0.216-0.601-0.404-1.02-0.566
					c-0.419-0.161-0.86-0.296-1.322-0.403c-0.463-0.107-0.926-0.184-1.388-0.227c-0.463-0.043-0.867-0.064-1.215-0.064
					c-0.665,0-1.365,0.06-2.103,0.178s-1.41,0.345-2.017,0.679c-0.607,0.334-1.106,0.798-1.496,1.39
					c-0.391,0.594-0.586,1.363-0.586,2.312v13.286c-0.029,0.539,0,1.002,0.087,1.39c0.087,0.389,0.231,0.798,0.434,1.229
					c0.202,0.432,0.521,0.819,0.954,1.164c0.462,0.366,1.156,0.642,2.082,0.824c0.925,0.184,1.806,0.274,2.645,0.274
					c0.434,0,0.882-0.021,1.345-0.064c0.462-0.043,0.917-0.113,1.366-0.21c0.447-0.097,0.859-0.215,1.235-0.355
					c0.376-0.14,0.679-0.308,0.911-0.501c0.434-0.345,0.751-0.722,0.954-1.132c0.201-0.409,0.347-0.792,0.434-1.147
					s0.13-0.781,0.13-1.276L122.157,188.068z"/>
				<path fill="#E3E036" stroke="#E3E036" stroke-width="2" stroke-miterlimit="10" d="M130.873,206.591v-0.323V183.09h0.455h0.456
					v22.887h11.621v0.291v0.323H130.873z"/>
				<path fill="#E3E036" stroke="#E3E036" stroke-width="2" stroke-miterlimit="10" d="M165.088,201.516c0,0.065,0,0.238,0,0.518
					c0,0.28-0.059,0.62-0.174,1.019s-0.297,0.824-0.542,1.276c-0.246,0.453-0.614,0.873-1.105,1.261
					c-0.579,0.432-1.396,0.76-2.45,0.986c-1.056,0.227-2.075,0.339-3.058,0.339s-1.994-0.112-3.035-0.339s-1.836-0.555-2.385-0.986
					c-0.492-0.388-0.861-0.818-1.106-1.293c-0.246-0.474-0.412-0.921-0.498-1.342c-0.087-0.42-0.131-0.78-0.131-1.082
					s0-0.485,0-0.55v-13.254c0-0.861,0.166-1.633,0.499-2.312c0.332-0.679,0.859-1.255,1.583-1.729
					c0.288-0.193,0.643-0.366,1.062-0.517c0.419-0.15,0.859-0.275,1.322-0.372c0.462-0.097,0.925-0.172,1.388-0.227
					c0.462-0.053,0.896-0.08,1.301-0.08c0.376,0,0.803,0.021,1.279,0.064c0.478,0.043,0.954,0.113,1.432,0.21
					c0.477,0.097,0.925,0.216,1.344,0.355c0.419,0.141,0.773,0.308,1.062,0.501c1.475,0.97,2.212,2.339,2.212,4.105V201.516z
					 M164.177,188.068c0-0.754-0.13-1.4-0.39-1.939c-0.261-0.538-0.622-0.991-1.084-1.357c-0.261-0.216-0.601-0.404-1.02-0.566
					c-0.419-0.161-0.86-0.296-1.322-0.403c-0.463-0.107-0.926-0.184-1.388-0.227c-0.463-0.043-0.867-0.064-1.215-0.064
					c-0.665,0-1.365,0.06-2.103,0.178s-1.41,0.345-2.017,0.679c-0.607,0.334-1.106,0.798-1.496,1.39
					c-0.391,0.594-0.586,1.363-0.586,2.312v13.286c-0.029,0.539,0,1.002,0.087,1.39c0.087,0.389,0.231,0.798,0.434,1.229
					c0.202,0.432,0.521,0.819,0.954,1.164c0.462,0.366,1.156,0.642,2.082,0.824c0.925,0.184,1.806,0.274,2.645,0.274
					c0.434,0,0.882-0.021,1.345-0.064c0.462-0.043,0.917-0.113,1.366-0.21c0.447-0.097,0.859-0.215,1.235-0.355
					c0.376-0.14,0.679-0.308,0.911-0.501c0.434-0.345,0.751-0.722,0.954-1.132c0.201-0.409,0.347-0.792,0.434-1.147
					s0.13-0.781,0.13-1.276L164.177,188.068z"/>
				<path fill="#E3E036" stroke="#E3E036" stroke-width="2" stroke-miterlimit="10" d="M178.878,196.31v-0.677l5.681,0.032v5.835
					c0,0.065-0.007,0.239-0.021,0.52c-0.015,0.281-0.072,0.616-0.174,1.005s-0.281,0.811-0.542,1.264
					c-0.26,0.454-0.622,0.876-1.084,1.265c-1.127,0.908-2.674,1.361-4.64,1.361c-1.995,0-3.513-0.441-4.554-1.325
					c-0.521-0.409-0.903-0.851-1.149-1.325c-0.245-0.474-0.411-0.921-0.498-1.342c-0.087-0.42-0.124-0.78-0.108-1.083
					c0.014-0.301,0.021-0.484,0.021-0.549v-13.286c0-1.724,0.693-3.071,2.081-4.041c0.549-0.366,1.193-0.657,1.93-0.873
					c0.737-0.215,1.496-0.323,2.277-0.323c0.722,0,1.452,0.104,2.189,0.309c0.737,0.206,1.41,0.54,2.017,1.003
					c0.607,0.462,1.099,1.044,1.475,1.744c0.375,0.7,0.563,1.535,0.563,2.505h-0.91c0-0.841-0.159-1.568-0.478-2.182
					c-0.318-0.614-0.73-1.121-1.235-1.52c-0.507-0.398-1.078-0.695-1.713-0.89c-0.637-0.193-1.272-0.29-1.908-0.29
					c-0.666,0-1.323,0.086-1.974,0.259s-1.229,0.447-1.734,0.825s-0.91,0.853-1.214,1.425c-0.304,0.571-0.456,1.246-0.456,2.023
					v13.337v0.032c0,0.54,0.036,0.998,0.108,1.376s0.218,0.782,0.435,1.214s0.542,0.819,0.976,1.165
					c0.925,0.756,2.211,1.133,3.859,1.133c1.705,0,3.035-0.377,3.989-1.131c0.434-0.345,0.759-0.722,0.976-1.132
					c0.217-0.409,0.369-0.792,0.456-1.147c0.086-0.355,0.13-0.781,0.13-1.276v-0.033l-0.044-5.172L178.878,196.31z"/>
				<path fill="#E3E036" stroke="#E3E036" stroke-width="2" stroke-miterlimit="10" d="M193.448,206.591V183.09h0.455h0.455v23.501
					h-0.455H193.448z"/>
				<path fill="#E3E036" stroke="#E3E036" stroke-width="2" stroke-miterlimit="10" d="M216.171,201.226c0,0.021,0,0.188,0,0.501
					s-0.051,0.694-0.152,1.147c-0.102,0.452-0.274,0.927-0.52,1.422c-0.246,0.496-0.615,0.938-1.106,1.325
					c-1.127,0.884-2.688,1.326-4.684,1.326c-1.994,0-3.512-0.442-4.553-1.326c-0.521-0.409-0.904-0.851-1.149-1.325
					c-0.246-0.474-0.412-0.921-0.499-1.342c-0.086-0.42-0.123-0.78-0.108-1.082s0.022-0.485,0.022-0.55v-13.286
					c0-1.724,0.693-3.071,2.081-4.041c0.549-0.366,1.192-0.657,1.93-0.872c0.737-0.216,1.496-0.323,2.276-0.323
					c1.562,0,2.978,0.388,4.25,1.163c0.723,0.453,1.279,1.072,1.67,1.859c0.39,0.786,0.585,1.644,0.585,2.569h-0.954
					c0-0.841-0.166-1.572-0.498-2.198c-0.333-0.625-0.767-1.137-1.301-1.535c-0.536-0.398-1.136-0.695-1.8-0.889
					c-0.666-0.194-1.316-0.291-1.952-0.291c-0.665,0-1.322,0.092-1.973,0.274c-0.65,0.184-1.229,0.458-1.734,0.824
					c-0.507,0.367-0.911,0.841-1.215,1.423c-0.303,0.581-0.455,1.261-0.455,2.036v13.318v0.032c0,0.539,0.036,0.997,0.108,1.374
					s0.217,0.781,0.434,1.212c0.217,0.432,0.542,0.819,0.976,1.164c0.925,0.755,2.212,1.131,3.859,1.131
					c1.706,0,3.036-0.376,3.99-1.131c0.434-0.345,0.759-0.738,0.976-1.18s0.368-0.867,0.455-1.277
					c0.087-0.409,0.13-0.894,0.13-1.454H216.171z"/>
				<path fill="#E3E036" stroke="#E3E036" stroke-width="2" stroke-miterlimit="10" d="M236.031,206.591h-0.954l-1.951-7.079h-7.545
					l-2.039,7.079h-0.953l6.374-23.501h0.737L236.031,206.591z M232.866,198.833l-3.513-13.965l-3.643,13.965H232.866z
					 M229.18,183.09h0.044h0.086h0.044h0.043h0.087H229.18z"/>
			</g>
			
				<line fill="#E3E036" stroke="#E3E036" stroke-width="2" stroke-miterlimit="10" x1="164.734" y1="181.748" x2="169.386" y2="178.31"/>
		</g>
	</g>
	<g>
		<g>
			<path fill="#2B6189" d="M837.413,99.281c0-1.025,0.363-1.899,1.09-2.622c0.729-0.723,1.6-1.084,2.615-1.084
				c1.025,0,1.902,0.361,2.629,1.084c0.729,0.723,1.092,1.597,1.092,2.622s-0.363,1.902-1.092,2.629
				c-0.727,0.729-1.604,1.092-2.629,1.092c-1.016,0-1.887-0.363-2.615-1.092C837.776,101.184,837.413,100.307,837.413,99.281z"/>
			<path fill="#2B6189" d="M857.026,109.799V88.324h15.527v2.534h-12.686v6.577h11.881v2.52h-11.881v7.31h13.184v2.534H857.026z"/>
			<path fill="#2B6189" d="M876.583,109.799V88.324h2.637v21.475H876.583z"/>
			<path fill="#2B6189" d="M891.655,91.356v-3.032h2.637v3.032H891.655z M891.655,109.799V94.242h2.637v15.557H891.655z"/>
			<path fill="#2B6189" d="M898.305,109.799V94.242h2.373v2.212c1.143-1.709,2.793-2.563,4.951-2.563
				c0.938,0,1.799,0.168,2.586,0.506c0.785,0.336,1.375,0.778,1.766,1.325s0.664,1.196,0.82,1.948
				c0.098,0.488,0.146,1.343,0.146,2.563v9.565h-2.637v-9.463c0-1.074-0.104-1.877-0.309-2.41c-0.205-0.531-0.568-0.956-1.09-1.273
				c-0.523-0.317-1.137-0.477-1.84-0.477c-1.123,0-2.092,0.356-2.906,1.069c-0.816,0.713-1.225,2.065-1.225,4.058v8.496H898.305z"/>
			<path fill="#2B6189" d="M913.936,105.155l2.607-0.41c0.146,1.045,0.553,1.846,1.223,2.402c0.668,0.557,1.604,0.835,2.805,0.835
				c1.211,0,2.109-0.246,2.695-0.74c0.586-0.492,0.879-1.071,0.879-1.735c0-0.596-0.258-1.064-0.775-1.406
				c-0.361-0.234-1.26-0.532-2.695-0.894c-1.934-0.488-3.275-0.91-4.021-1.268c-0.748-0.355-1.314-0.85-1.699-1.479
				c-0.387-0.631-0.578-1.326-0.578-2.088c0-0.693,0.158-1.335,0.475-1.926c0.318-0.591,0.75-1.082,1.297-1.473
				c0.41-0.303,0.969-0.559,1.678-0.77c0.707-0.209,1.467-0.314,2.277-0.314c1.221,0,2.293,0.176,3.215,0.527
				c0.924,0.352,1.605,0.828,2.045,1.428c0.439,0.602,0.742,1.404,0.908,2.41l-2.578,0.352c-0.117-0.801-0.457-1.426-1.02-1.875
				c-0.561-0.449-1.354-0.674-2.379-0.674c-1.211,0-2.076,0.2-2.594,0.601s-0.775,0.869-0.775,1.406
				c0,0.342,0.107,0.649,0.322,0.923c0.215,0.283,0.551,0.518,1.01,0.703c0.264,0.098,1.041,0.322,2.33,0.674
				c1.865,0.498,3.166,0.906,3.902,1.223c0.738,0.318,1.316,0.779,1.736,1.385s0.631,1.357,0.631,2.256
				c0,0.879-0.258,1.707-0.77,2.482c-0.514,0.777-1.252,1.377-2.219,1.803c-0.967,0.424-2.061,0.637-3.281,0.637
				c-2.021,0-3.562-0.42-4.623-1.26C914.905,108.051,914.229,106.806,913.936,105.155z"/>
			<path fill="#2B6189" d="M935.747,107.44l0.381,2.329c-0.742,0.156-1.406,0.234-1.992,0.234c-0.957,0-1.699-0.151-2.227-0.454
				s-0.898-0.7-1.113-1.194c-0.215-0.492-0.322-1.53-0.322-3.112v-8.95h-1.934v-2.051h1.934V90.39l2.623-1.582v5.435h2.65v2.051
				h-2.65v9.097c0,0.752,0.045,1.235,0.139,1.45c0.092,0.215,0.244,0.386,0.453,0.513c0.211,0.127,0.512,0.19,0.902,0.19
				C934.883,107.543,935.268,107.509,935.747,107.44z"/>
			<path fill="#2B6189" d="M938.295,109.799V94.242h2.373v2.358c0.605-1.104,1.166-1.831,1.678-2.183
				c0.514-0.352,1.076-0.527,1.691-0.527c0.889,0,1.793,0.283,2.711,0.85l-0.908,2.446c-0.645-0.381-1.289-0.571-1.934-0.571
				c-0.576,0-1.094,0.174-1.553,0.52c-0.459,0.348-0.787,0.828-0.982,1.443c-0.293,0.938-0.439,1.963-0.439,3.076v8.145H938.295z"/>
			<path fill="#2B6189" d="M958.51,109.799v-2.285c-1.211,1.758-2.855,2.637-4.936,2.637c-0.918,0-1.775-0.176-2.57-0.527
				c-0.797-0.352-1.389-0.793-1.773-1.326c-0.387-0.531-0.656-1.184-0.812-1.955c-0.107-0.518-0.162-1.338-0.162-2.461v-9.639h2.637
				v8.628c0,1.377,0.055,2.305,0.162,2.783c0.166,0.693,0.518,1.237,1.055,1.634c0.537,0.395,1.201,0.593,1.992,0.593
				s1.533-0.202,2.227-0.608c0.693-0.404,1.184-0.956,1.473-1.654c0.287-0.698,0.432-1.712,0.432-3.04v-8.335h2.637v15.557H958.51z"
				/>
			<path fill="#2B6189" d="M975.151,104.101l2.594,0.337c-0.283,1.787-1.01,3.186-2.176,4.197c-1.168,1.01-2.6,1.516-4.299,1.516
				c-2.129,0-3.842-0.695-5.135-2.088c-1.295-1.391-1.941-3.386-1.941-5.983c0-1.68,0.279-3.149,0.836-4.409
				s1.402-2.205,2.541-2.834c1.137-0.631,2.375-0.945,3.713-0.945c1.689,0,3.072,0.428,4.146,1.281
				c1.074,0.855,1.762,2.068,2.064,3.641l-2.562,0.396c-0.244-1.045-0.678-1.831-1.297-2.358c-0.621-0.527-1.369-0.791-2.248-0.791
				c-1.328,0-2.408,0.477-3.238,1.428c-0.83,0.953-1.244,2.459-1.244,4.52c0,2.09,0.4,3.608,1.201,4.556s1.846,1.421,3.135,1.421
				c1.035,0,1.898-0.317,2.592-0.952S974.965,105.419,975.151,104.101z"/>
			<path fill="#2B6189" d="M985.756,107.44l0.381,2.329c-0.742,0.156-1.406,0.234-1.992,0.234c-0.957,0-1.699-0.151-2.227-0.454
				s-0.898-0.7-1.113-1.194c-0.215-0.492-0.322-1.53-0.322-3.112v-8.95h-1.934v-2.051h1.934V90.39l2.623-1.582v5.435h2.65v2.051
				h-2.65v9.097c0,0.752,0.045,1.235,0.139,1.45c0.092,0.215,0.244,0.386,0.453,0.513c0.211,0.127,0.512,0.19,0.902,0.19
				C984.893,107.543,985.278,107.509,985.756,107.44z"/>
			<path fill="#2B6189" d="M987.354,102.021c0-2.881,0.801-5.015,2.402-6.401c1.338-1.152,2.969-1.729,4.893-1.729
				c2.139,0,3.887,0.701,5.244,2.102c1.357,1.402,2.035,3.338,2.035,5.809c0,2.002-0.299,3.577-0.9,4.725
				c-0.6,1.147-1.475,2.038-2.621,2.673c-1.148,0.635-2.4,0.952-3.758,0.952c-2.178,0-3.939-0.698-5.281-2.095
				C988.024,106.659,987.354,104.647,987.354,102.021z M990.063,102.021c0,1.992,0.436,3.484,1.305,4.476s1.963,1.486,3.281,1.486
				c1.309,0,2.396-0.498,3.266-1.494s1.305-2.515,1.305-4.556c0-1.924-0.438-3.381-1.311-4.372c-0.875-0.991-1.961-1.487-3.26-1.487
				c-1.318,0-2.412,0.493-3.281,1.479S990.063,100.028,990.063,102.021z"/>
			<path fill="#2B6189" d="M1004.991,109.799V94.242h2.373v2.358c0.605-1.104,1.164-1.831,1.676-2.183
				c0.514-0.352,1.078-0.527,1.693-0.527c0.889,0,1.791,0.283,2.709,0.85l-0.908,2.446c-0.645-0.381-1.289-0.571-1.934-0.571
				c-0.576,0-1.094,0.174-1.553,0.52c-0.459,0.348-0.785,0.828-0.98,1.443c-0.293,0.938-0.439,1.963-0.439,3.076v8.145H1004.991z"/>
			<path fill="#2B6189" d="M1030.655,103.354v-2.651h8.1v2.651H1030.655z"/>
			<path fill="#2B6189" d="M1055.264,109.799v-18.94h-7.076v-2.534h17.021v2.534h-7.104v18.94H1055.264z"/>
			<path fill="#2B6189" d="M1076.87,109.799v-2.285c-1.211,1.758-2.855,2.637-4.936,2.637c-0.918,0-1.775-0.176-2.57-0.527
				c-0.797-0.352-1.389-0.793-1.773-1.326c-0.387-0.531-0.656-1.184-0.812-1.955c-0.107-0.518-0.162-1.338-0.162-2.461v-9.639h2.637
				v8.628c0,1.377,0.055,2.305,0.162,2.783c0.166,0.693,0.518,1.237,1.055,1.634c0.537,0.395,1.201,0.593,1.992,0.593
				s1.533-0.202,2.227-0.608c0.693-0.404,1.184-0.956,1.473-1.654c0.287-0.698,0.432-1.712,0.432-3.04v-8.335h2.637v15.557H1076.87z
				"/>
			<path fill="#2B6189" d="M1089.116,107.44l0.381,2.329c-0.742,0.156-1.406,0.234-1.992,0.234c-0.957,0-1.699-0.151-2.227-0.454
				s-0.898-0.7-1.113-1.194c-0.215-0.492-0.322-1.53-0.322-3.112v-8.95h-1.934v-2.051h1.934V90.39l2.623-1.582v5.435h2.65v2.051
				h-2.65v9.097c0,0.752,0.045,1.235,0.139,1.45c0.092,0.215,0.244,0.386,0.453,0.513c0.211,0.127,0.512,0.19,0.902,0.19
				C1088.252,107.543,1088.637,107.509,1089.116,107.44z"/>
			<path fill="#2B6189" d="M1090.713,102.021c0-2.881,0.801-5.015,2.402-6.401c1.338-1.152,2.969-1.729,4.893-1.729
				c2.139,0,3.887,0.701,5.244,2.102c1.357,1.402,2.035,3.338,2.035,5.809c0,2.002-0.299,3.577-0.9,4.725
				c-0.6,1.147-1.475,2.038-2.621,2.673c-1.148,0.635-2.4,0.952-3.758,0.952c-2.178,0-3.939-0.698-5.281-2.095
				C1091.383,106.659,1090.713,104.647,1090.713,102.021z M1093.422,102.021c0,1.992,0.436,3.484,1.305,4.476
				s1.963,1.486,3.281,1.486c1.309,0,2.396-0.498,3.266-1.494s1.305-2.515,1.305-4.556c0-1.924-0.438-3.381-1.311-4.372
				c-0.875-0.991-1.961-1.487-3.26-1.487c-1.318,0-2.412,0.493-3.281,1.479S1093.422,100.028,1093.422,102.021z"/>
			<path fill="#2B6189" d="M1108.35,109.799V94.242h2.373v2.358c0.605-1.104,1.164-1.831,1.676-2.183
				c0.514-0.352,1.078-0.527,1.693-0.527c0.889,0,1.791,0.283,2.709,0.85l-0.908,2.446c-0.645-0.381-1.289-0.571-1.934-0.571
				c-0.576,0-1.094,0.174-1.553,0.52c-0.459,0.348-0.785,0.828-0.98,1.443c-0.293,0.938-0.439,1.963-0.439,3.076v8.145H1108.35z"/>
			<path fill="#2B6189" d="M837.413,135.281c0-1.025,0.363-1.899,1.09-2.622c0.729-0.723,1.6-1.084,2.615-1.084
				c1.025,0,1.902,0.361,2.629,1.084c0.729,0.723,1.092,1.597,1.092,2.622s-0.363,1.902-1.092,2.629
				c-0.727,0.729-1.604,1.092-2.629,1.092c-1.016,0-1.887-0.363-2.615-1.092C837.776,137.184,837.413,136.307,837.413,135.281z"/>
			<path fill="#2B6189" d="M857.026,145.799v-21.475h15.527v2.534h-12.686v6.577h11.881v2.52h-11.881v7.31h13.184v2.534H857.026z"/>
			<path fill="#2B6189" d="M876.583,145.799v-21.475h2.637v21.475H876.583z"/>
			<path fill="#2B6189" d="M902.29,140.789l2.725,0.337c-0.43,1.592-1.225,2.827-2.387,3.706s-2.646,1.318-4.453,1.318
				c-2.275,0-4.08-0.7-5.414-2.102c-1.332-1.401-1.998-3.367-1.998-5.896c0-2.617,0.674-4.648,2.021-6.094s3.096-2.168,5.244-2.168
				c2.08,0,3.779,0.708,5.098,2.124s1.977,3.408,1.977,5.977c0,0.156-0.004,0.391-0.014,0.703h-11.602
				c0.098,1.709,0.58,3.018,1.449,3.926s1.953,1.362,3.252,1.362c0.967,0,1.793-0.254,2.477-0.762S901.889,141.902,902.29,140.789z
				 M893.633,136.526h8.686c-0.117-1.309-0.449-2.29-0.996-2.944c-0.84-1.016-1.928-1.523-3.266-1.523
				c-1.211,0-2.23,0.405-3.055,1.216C894.176,134.085,893.721,135.169,893.633,136.526z"/>
			<path fill="#2B6189" d="M908.325,145.799v-15.557h2.373v2.212c1.143-1.709,2.793-2.563,4.951-2.563
				c0.938,0,1.799,0.168,2.586,0.506c0.785,0.336,1.375,0.778,1.766,1.325s0.664,1.196,0.82,1.948
				c0.098,0.488,0.146,1.343,0.146,2.563v9.565h-2.637v-9.463c0-1.074-0.104-1.877-0.309-2.41c-0.205-0.531-0.568-0.956-1.09-1.273
				c-0.523-0.317-1.137-0.477-1.84-0.477c-1.123,0-2.092,0.356-2.906,1.069c-0.816,0.713-1.225,2.065-1.225,4.058v8.496H908.325z"/>
			<path fill="#2B6189" d="M930.766,143.44l0.381,2.329c-0.742,0.156-1.406,0.234-1.992,0.234c-0.957,0-1.699-0.151-2.227-0.454
				s-0.898-0.7-1.113-1.194c-0.215-0.492-0.322-1.53-0.322-3.112v-8.95h-1.934v-2.051h1.934v-3.853l2.623-1.582v5.435h2.65v2.051
				h-2.65v9.097c0,0.752,0.045,1.235,0.139,1.45c0.092,0.215,0.244,0.386,0.453,0.513c0.211,0.127,0.512,0.19,0.902,0.19
				C929.903,143.543,930.288,143.509,930.766,143.44z"/>
			<path fill="#2B6189" d="M932.364,138.021c0-2.881,0.801-5.015,2.402-6.401c1.338-1.152,2.969-1.729,4.893-1.729
				c2.139,0,3.887,0.701,5.244,2.102c1.357,1.402,2.035,3.338,2.035,5.809c0,2.002-0.299,3.577-0.9,4.725
				c-0.6,1.147-1.475,2.038-2.621,2.673c-1.148,0.635-2.4,0.952-3.758,0.952c-2.178,0-3.939-0.698-5.281-2.095
				C933.034,142.659,932.364,140.647,932.364,138.021z M935.073,138.021c0,1.992,0.436,3.484,1.305,4.476s1.963,1.486,3.281,1.486
				c1.309,0,2.396-0.498,3.266-1.494s1.305-2.515,1.305-4.556c0-1.924-0.438-3.381-1.311-4.372c-0.875-0.991-1.961-1.487-3.26-1.487
				c-1.318,0-2.412,0.493-3.281,1.479S935.073,136.028,935.073,138.021z"/>
			<path fill="#2B6189" d="M950,145.799v-15.557h2.373v2.358c0.605-1.104,1.164-1.831,1.676-2.183
				c0.514-0.352,1.078-0.527,1.693-0.527c0.889,0,1.791,0.283,2.709,0.85l-0.908,2.446c-0.645-0.381-1.289-0.571-1.934-0.571
				c-0.576,0-1.094,0.174-1.553,0.52c-0.459,0.348-0.785,0.828-0.98,1.443c-0.293,0.938-0.439,1.963-0.439,3.076v8.145H950z"/>
			<path fill="#2B6189" d="M960.02,145.799v-15.557h2.373v2.212c1.143-1.709,2.793-2.563,4.951-2.563
				c0.938,0,1.799,0.168,2.584,0.506c0.787,0.336,1.375,0.778,1.766,1.325s0.664,1.196,0.82,1.948
				c0.098,0.488,0.146,1.343,0.146,2.563v9.565h-2.637v-9.463c0-1.074-0.102-1.877-0.307-2.41c-0.205-0.531-0.57-0.956-1.092-1.273
				c-0.523-0.317-1.135-0.477-1.838-0.477c-1.123,0-2.094,0.356-2.908,1.069c-0.816,0.713-1.223,2.065-1.223,4.058v8.496H960.02z"/>
			<path fill="#2B6189" d="M975.723,138.021c0-2.881,0.801-5.015,2.402-6.401c1.338-1.152,2.969-1.729,4.893-1.729
				c2.139,0,3.887,0.701,5.244,2.102c1.357,1.402,2.035,3.338,2.035,5.809c0,2.002-0.299,3.577-0.9,4.725
				c-0.6,1.147-1.475,2.038-2.621,2.673c-1.148,0.635-2.4,0.952-3.758,0.952c-2.178,0-3.939-0.698-5.281-2.095
				C976.393,142.659,975.723,140.647,975.723,138.021z M978.432,138.021c0,1.992,0.436,3.484,1.305,4.476s1.963,1.486,3.281,1.486
				c1.309,0,2.396-0.498,3.266-1.494s1.305-2.515,1.305-4.556c0-1.924-0.438-3.381-1.311-4.372c-0.875-0.991-1.961-1.487-3.26-1.487
				c-1.318,0-2.412,0.493-3.281,1.479S978.432,136.028,978.432,138.021z"/>
			<path fill="#2B6189" d="M837.413,171.281c0-1.025,0.363-1.899,1.09-2.622c0.729-0.723,1.6-1.084,2.615-1.084
				c1.025,0,1.902,0.361,2.629,1.084c0.729,0.723,1.092,1.597,1.092,2.622s-0.363,1.902-1.092,2.629
				c-0.727,0.729-1.604,1.092-2.629,1.092c-1.016,0-1.887-0.363-2.615-1.092C837.776,173.184,837.413,172.307,837.413,171.281z"/>
			<path fill="#2B6189" d="M856.85,181.799v-21.475h2.842v18.94h10.576v2.534H856.85z"/>
			<path fill="#2B6189" d="M883.467,179.88c-0.977,0.83-1.918,1.416-2.82,1.758c-0.904,0.342-1.873,0.513-2.908,0.513
				c-1.709,0-3.021-0.418-3.939-1.252c-0.918-0.836-1.377-1.902-1.377-3.201c0-0.762,0.172-1.457,0.52-2.088
				c0.346-0.629,0.801-1.135,1.363-1.516c0.561-0.381,1.193-0.669,1.896-0.864c0.518-0.137,1.299-0.269,2.344-0.396
				c2.129-0.254,3.695-0.557,4.701-0.908c0.01-0.361,0.016-0.591,0.016-0.688c0-1.074-0.25-1.831-0.748-2.271
				c-0.674-0.596-1.674-0.894-3.002-0.894c-1.24,0-2.156,0.218-2.746,0.651c-0.592,0.436-1.029,1.204-1.312,2.308l-2.578-0.352
				c0.234-1.104,0.621-1.994,1.158-2.673s1.312-1.201,2.328-1.568c1.016-0.365,2.193-0.549,3.531-0.549
				c1.328,0,2.406,0.156,3.236,0.469s1.441,0.706,1.832,1.18s0.664,1.071,0.82,1.794c0.088,0.449,0.131,1.26,0.131,2.432v3.516
				c0,2.451,0.057,4.002,0.17,4.651c0.111,0.649,0.334,1.271,0.666,1.867h-2.754C883.721,181.252,883.545,180.612,883.467,179.88z
				 M883.247,173.991c-0.957,0.391-2.393,0.723-4.307,0.996c-1.084,0.156-1.85,0.332-2.299,0.527s-0.797,0.481-1.041,0.856
				c-0.244,0.377-0.365,0.794-0.365,1.253c0,0.703,0.266,1.289,0.799,1.758c0.531,0.469,1.311,0.703,2.336,0.703
				c1.016,0,1.918-0.222,2.709-0.667c0.791-0.443,1.373-1.052,1.744-1.823c0.283-0.596,0.424-1.475,0.424-2.637V173.991z"/>
			<path fill="#2B6189" d="M888.946,177.155l2.607-0.41c0.146,1.045,0.553,1.846,1.223,2.402c0.668,0.557,1.604,0.835,2.805,0.835
				c1.211,0,2.109-0.246,2.695-0.74c0.586-0.492,0.879-1.071,0.879-1.735c0-0.596-0.258-1.064-0.775-1.406
				c-0.361-0.234-1.26-0.532-2.695-0.894c-1.934-0.488-3.275-0.91-4.021-1.268c-0.748-0.355-1.314-0.85-1.699-1.479
				c-0.387-0.631-0.578-1.326-0.578-2.088c0-0.693,0.158-1.335,0.475-1.926c0.318-0.591,0.75-1.082,1.297-1.473
				c0.41-0.303,0.969-0.559,1.678-0.77c0.707-0.209,1.467-0.314,2.277-0.314c1.221,0,2.293,0.176,3.215,0.527
				c0.924,0.352,1.605,0.828,2.045,1.428c0.439,0.602,0.742,1.404,0.908,2.41l-2.578,0.352c-0.117-0.801-0.457-1.426-1.02-1.875
				c-0.561-0.449-1.354-0.674-2.379-0.674c-1.211,0-2.076,0.2-2.594,0.601s-0.775,0.869-0.775,1.406
				c0,0.342,0.107,0.649,0.322,0.923c0.215,0.283,0.551,0.518,1.01,0.703c0.264,0.098,1.041,0.322,2.33,0.674
				c1.865,0.498,3.166,0.906,3.902,1.223c0.738,0.318,1.316,0.779,1.736,1.385s0.631,1.357,0.631,2.256
				c0,0.879-0.258,1.707-0.77,2.482c-0.514,0.777-1.252,1.377-2.219,1.803c-0.967,0.424-2.061,0.637-3.281,0.637
				c-2.021,0-3.562-0.42-4.623-1.26C889.915,180.051,889.239,178.806,888.946,177.155z"/>
			<path fill="#2B6189" d="M918.594,181.799v-18.94h-7.076v-2.534h17.021v2.534h-7.104v18.94H918.594z"/>
			<path fill="#2B6189" d="M931.938,181.799v-21.475h2.842v21.475H931.938z"/>
			<path fill="#2B6189" d="M955.112,174.27l2.842,0.718c-0.596,2.334-1.668,4.114-3.215,5.339c-1.549,1.227-3.439,1.839-5.676,1.839
				c-2.314,0-4.197-0.471-5.648-1.413c-1.449-0.942-2.553-2.308-3.311-4.095c-0.756-1.787-1.135-3.706-1.135-5.757
				c0-2.236,0.428-4.187,1.281-5.852c0.855-1.665,2.07-2.93,3.648-3.795c1.576-0.863,3.312-1.296,5.207-1.296
				c2.148,0,3.955,0.547,5.42,1.641s2.486,2.632,3.062,4.614l-2.799,0.659c-0.498-1.562-1.221-2.7-2.168-3.413
				s-2.139-1.069-3.574-1.069c-1.65,0-3.029,0.396-4.139,1.187c-1.107,0.791-1.887,1.854-2.336,3.186
				c-0.449,1.334-0.674,2.708-0.674,4.124c0,1.826,0.266,3.421,0.799,4.782c0.531,1.363,1.359,2.381,2.482,3.055
				s2.34,1.011,3.648,1.011c1.592,0,2.939-0.459,4.043-1.377S954.721,176.076,955.112,174.27z"/>
			<path fill="#2B6189" d="M837.413,207.281c0-1.025,0.363-1.899,1.09-2.622c0.729-0.723,1.6-1.084,2.615-1.084
				c1.025,0,1.902,0.361,2.629,1.084c0.729,0.723,1.092,1.597,1.092,2.622s-0.363,1.902-1.092,2.629
				c-0.727,0.729-1.604,1.092-2.629,1.092c-1.016,0-1.887-0.363-2.615-1.092C837.776,209.184,837.413,208.307,837.413,207.281z"/>
			<path fill="#2B6189" d="M857.026,217.799v-21.475h15.527v2.534h-12.686v6.577h11.881v2.52h-11.881v7.31h13.184v2.534H857.026z"/>
			<path fill="#2B6189" d="M876.583,217.799v-21.475h2.637v21.475H876.583z"/>
			<path fill="#2B6189" d="M897.397,215.44l0.381,2.329c-0.742,0.156-1.406,0.234-1.992,0.234c-0.957,0-1.699-0.151-2.227-0.454
				s-0.898-0.7-1.113-1.194c-0.215-0.492-0.322-1.53-0.322-3.112v-8.95h-1.934v-2.051h1.934v-3.853l2.623-1.582v5.435h2.65v2.051
				h-2.65v9.097c0,0.752,0.045,1.235,0.139,1.45c0.092,0.215,0.244,0.386,0.453,0.513c0.211,0.127,0.512,0.19,0.902,0.19
				C896.534,215.543,896.918,215.509,897.397,215.44z"/>
			<path fill="#2B6189" d="M899.946,217.799v-15.557h2.373v2.358c0.605-1.104,1.166-1.831,1.678-2.183
				c0.514-0.352,1.076-0.527,1.691-0.527c0.889,0,1.793,0.283,2.711,0.85l-0.908,2.446c-0.645-0.381-1.289-0.571-1.934-0.571
				c-0.576,0-1.094,0.174-1.553,0.52c-0.459,0.348-0.787,0.828-0.982,1.443c-0.293,0.938-0.439,1.963-0.439,3.076v8.145H899.946z"/>
			<path fill="#2B6189" d="M920.118,215.88c-0.977,0.83-1.918,1.416-2.82,1.758c-0.904,0.342-1.873,0.513-2.908,0.513
				c-1.709,0-3.021-0.418-3.939-1.252c-0.918-0.836-1.377-1.902-1.377-3.201c0-0.762,0.172-1.457,0.52-2.088
				c0.346-0.629,0.801-1.135,1.363-1.516c0.561-0.381,1.193-0.669,1.896-0.864c0.518-0.137,1.299-0.269,2.344-0.396
				c2.129-0.254,3.695-0.557,4.701-0.908c0.01-0.361,0.016-0.591,0.016-0.688c0-1.074-0.25-1.831-0.748-2.271
				c-0.674-0.596-1.674-0.894-3.002-0.894c-1.24,0-2.156,0.218-2.746,0.651c-0.592,0.436-1.029,1.204-1.312,2.308l-2.578-0.352
				c0.234-1.104,0.621-1.994,1.158-2.673s1.312-1.201,2.328-1.568c1.016-0.365,2.193-0.549,3.531-0.549
				c1.328,0,2.406,0.156,3.236,0.469s1.441,0.706,1.832,1.18s0.664,1.071,0.82,1.794c0.088,0.449,0.131,1.26,0.131,2.432v3.516
				c0,2.451,0.057,4.002,0.17,4.651c0.111,0.649,0.334,1.271,0.666,1.867h-2.754C920.372,217.252,920.196,216.612,920.118,215.88z
				 M919.897,209.991c-0.957,0.391-2.393,0.723-4.307,0.996c-1.084,0.156-1.85,0.332-2.299,0.527s-0.797,0.481-1.041,0.856
				c-0.244,0.377-0.365,0.794-0.365,1.253c0,0.703,0.266,1.289,0.799,1.758c0.531,0.469,1.311,0.703,2.336,0.703
				c1.016,0,1.918-0.222,2.709-0.667c0.791-0.443,1.373-1.052,1.744-1.823c0.283-0.596,0.424-1.475,0.424-2.637V209.991z"/>
			<path fill="#2B6189" d="M929.083,217.799h-2.447v-21.475h2.637v7.661c1.113-1.396,2.535-2.095,4.264-2.095
				c0.957,0,1.861,0.193,2.717,0.578c0.854,0.387,1.557,0.929,2.109,1.627c0.551,0.698,0.984,1.54,1.297,2.526
				s0.469,2.041,0.469,3.164c0,2.666-0.66,4.727-1.979,6.182s-2.9,2.183-4.746,2.183c-1.836,0-3.275-0.767-4.32-2.3V217.799z
				 M929.053,209.903c0,1.865,0.254,3.213,0.762,4.043c0.83,1.357,1.953,2.036,3.369,2.036c1.152,0,2.148-0.5,2.988-1.502
				c0.84-1,1.26-2.492,1.26-4.475c0-2.031-0.404-3.53-1.209-4.497c-0.807-0.967-1.779-1.45-2.922-1.45
				c-1.152,0-2.148,0.501-2.988,1.502S929.053,208.009,929.053,209.903z"/>
			<path fill="#2B6189" d="M953.487,215.88c-0.977,0.83-1.918,1.416-2.82,1.758c-0.904,0.342-1.873,0.513-2.908,0.513
				c-1.709,0-3.021-0.418-3.939-1.252c-0.918-0.836-1.377-1.902-1.377-3.201c0-0.762,0.172-1.457,0.52-2.088
				c0.346-0.629,0.801-1.135,1.363-1.516c0.561-0.381,1.193-0.669,1.896-0.864c0.518-0.137,1.299-0.269,2.344-0.396
				c2.129-0.254,3.695-0.557,4.701-0.908c0.01-0.361,0.016-0.591,0.016-0.688c0-1.074-0.25-1.831-0.748-2.271
				c-0.674-0.596-1.674-0.894-3.002-0.894c-1.24,0-2.156,0.218-2.746,0.651c-0.592,0.436-1.029,1.204-1.312,2.308l-2.578-0.352
				c0.234-1.104,0.621-1.994,1.158-2.673s1.312-1.201,2.328-1.568c1.016-0.365,2.193-0.549,3.531-0.549
				c1.328,0,2.406,0.156,3.236,0.469s1.441,0.706,1.832,1.18s0.664,1.071,0.82,1.794c0.088,0.449,0.131,1.26,0.131,2.432v3.516
				c0,2.451,0.057,4.002,0.17,4.651c0.111,0.649,0.334,1.271,0.666,1.867h-2.754C953.741,217.252,953.565,216.612,953.487,215.88z
				 M953.266,209.991c-0.957,0.391-2.393,0.723-4.307,0.996c-1.084,0.156-1.85,0.332-2.299,0.527s-0.797,0.481-1.041,0.856
				c-0.244,0.377-0.365,0.794-0.365,1.253c0,0.703,0.266,1.289,0.799,1.758c0.531,0.469,1.311,0.703,2.336,0.703
				c1.016,0,1.918-0.222,2.709-0.667c0.791-0.443,1.373-1.052,1.744-1.823c0.283-0.596,0.424-1.475,0.424-2.637V209.991z"/>
			<path fill="#2B6189" d="M956.665,223.834l0.498-2.241c0.527,0.137,0.943,0.205,1.246,0.205c0.537,0,0.938-0.179,1.201-0.534
				c0.264-0.357,0.395-1.248,0.395-2.674v-16.348h2.637v16.406c0,1.914-0.248,3.247-0.746,3.999
				c-0.635,0.977-1.689,1.465-3.164,1.465C958.018,224.112,957.329,224.02,956.665,223.834z M960.004,199.386v-3.062h2.637v3.062
				H960.004z"/>
			<path fill="#2B6189" d="M965.704,210.021c0-2.881,0.801-5.015,2.402-6.401c1.338-1.152,2.969-1.729,4.893-1.729
				c2.139,0,3.887,0.701,5.244,2.102c1.357,1.402,2.035,3.338,2.035,5.809c0,2.002-0.299,3.577-0.9,4.725
				c-0.6,1.147-1.475,2.038-2.621,2.673c-1.148,0.635-2.4,0.952-3.758,0.952c-2.178,0-3.939-0.698-5.281-2.095
				C966.374,214.659,965.704,212.647,965.704,210.021z M968.413,210.021c0,1.992,0.436,3.484,1.305,4.476s1.963,1.486,3.281,1.486
				c1.309,0,2.396-0.498,3.266-1.494s1.305-2.515,1.305-4.556c0-1.924-0.438-3.381-1.311-4.372c-0.875-0.991-1.961-1.487-3.26-1.487
				c-1.318,0-2.412,0.493-3.281,1.479S968.413,208.028,968.413,210.021z"/>
			<path fill="#2B6189" d="M1001.856,212.101l2.592,0.337c-0.283,1.787-1.008,3.186-2.174,4.197
				c-1.168,1.01-2.602,1.516-4.301,1.516c-2.129,0-3.84-0.695-5.133-2.088c-1.295-1.391-1.941-3.386-1.941-5.983
				c0-1.68,0.277-3.149,0.834-4.409s1.404-2.205,2.543-2.834c1.137-0.631,2.375-0.945,3.713-0.945c1.689,0,3.07,0.428,4.145,1.281
				c1.074,0.855,1.764,2.068,2.066,3.641l-2.564,0.396c-0.244-1.045-0.676-1.831-1.295-2.358c-0.621-0.527-1.371-0.791-2.25-0.791
				c-1.328,0-2.406,0.477-3.236,1.428c-0.83,0.953-1.246,2.459-1.246,4.52c0,2.09,0.4,3.608,1.201,4.556s1.846,1.421,3.135,1.421
				c1.035,0,1.9-0.317,2.594-0.952S1001.67,213.419,1001.856,212.101z"/>
			<path fill="#2B6189" d="M1005.723,210.021c0-2.881,0.801-5.015,2.402-6.401c1.338-1.152,2.969-1.729,4.893-1.729
				c2.139,0,3.887,0.701,5.244,2.102c1.357,1.402,2.035,3.338,2.035,5.809c0,2.002-0.299,3.577-0.9,4.725
				c-0.6,1.147-1.475,2.038-2.621,2.673c-1.148,0.635-2.4,0.952-3.758,0.952c-2.178,0-3.939-0.698-5.281-2.095
				C1006.393,214.659,1005.723,212.647,1005.723,210.021z M1008.432,210.021c0,1.992,0.436,3.484,1.305,4.476
				s1.963,1.486,3.281,1.486c1.309,0,2.396-0.498,3.266-1.494s1.305-2.515,1.305-4.556c0-1.924-0.438-3.381-1.311-4.372
				c-0.875-0.991-1.961-1.487-3.26-1.487c-1.318,0-2.412,0.493-3.281,1.479S1008.432,208.028,1008.432,210.021z"/>
			<path fill="#2B6189" d="M1023.331,217.799v-21.475h2.637v21.475H1023.331z"/>
			<path fill="#2B6189" d="M1040.206,215.88c-0.977,0.83-1.918,1.416-2.82,1.758c-0.904,0.342-1.873,0.513-2.908,0.513
				c-1.709,0-3.021-0.418-3.939-1.252c-0.918-0.836-1.377-1.902-1.377-3.201c0-0.762,0.172-1.457,0.52-2.088
				c0.346-0.629,0.801-1.135,1.363-1.516c0.561-0.381,1.193-0.669,1.896-0.864c0.518-0.137,1.299-0.269,2.344-0.396
				c2.129-0.254,3.695-0.557,4.701-0.908c0.01-0.361,0.016-0.591,0.016-0.688c0-1.074-0.25-1.831-0.748-2.271
				c-0.674-0.596-1.674-0.894-3.002-0.894c-1.24,0-2.156,0.218-2.746,0.651c-0.592,0.436-1.029,1.204-1.312,2.308l-2.578-0.352
				c0.234-1.104,0.621-1.994,1.158-2.673s1.312-1.201,2.328-1.568c1.016-0.365,2.193-0.549,3.531-0.549
				c1.328,0,2.406,0.156,3.236,0.469s1.441,0.706,1.832,1.18s0.664,1.071,0.82,1.794c0.088,0.449,0.131,1.26,0.131,2.432v3.516
				c0,2.451,0.057,4.002,0.17,4.651c0.111,0.649,0.334,1.271,0.666,1.867h-2.754C1040.459,217.252,1040.284,216.612,1040.206,215.88
				z M1039.985,209.991c-0.957,0.391-2.393,0.723-4.307,0.996c-1.084,0.156-1.85,0.332-2.299,0.527s-0.797,0.481-1.041,0.856
				c-0.244,0.377-0.365,0.794-0.365,1.253c0,0.703,0.266,1.289,0.799,1.758c0.531,0.469,1.311,0.703,2.336,0.703
				c1.016,0,1.918-0.222,2.709-0.667c0.791-0.443,1.373-1.052,1.744-1.823c0.283-0.596,0.424-1.475,0.424-2.637V209.991z"/>
			<path fill="#2B6189" d="M1049.17,217.799h-2.447v-21.475h2.637v7.661c1.113-1.396,2.535-2.095,4.264-2.095
				c0.957,0,1.861,0.193,2.717,0.578c0.854,0.387,1.557,0.929,2.109,1.627c0.551,0.698,0.984,1.54,1.297,2.526
				s0.469,2.041,0.469,3.164c0,2.666-0.66,4.727-1.979,6.182s-2.9,2.183-4.746,2.183c-1.836,0-3.275-0.767-4.32-2.3V217.799z
				 M1049.141,209.903c0,1.865,0.254,3.213,0.762,4.043c0.83,1.357,1.953,2.036,3.369,2.036c1.152,0,2.148-0.5,2.988-1.502
				c0.84-1,1.26-2.492,1.26-4.475c0-2.031-0.404-3.53-1.209-4.497c-0.807-0.967-1.779-1.45-2.922-1.45
				c-1.152,0-2.148,0.501-2.988,1.502S1049.141,208.009,1049.141,209.903z"/>
			<path fill="#2B6189" d="M1062.442,210.021c0-2.881,0.801-5.015,2.402-6.401c1.338-1.152,2.969-1.729,4.893-1.729
				c2.139,0,3.887,0.701,5.244,2.102c1.357,1.402,2.035,3.338,2.035,5.809c0,2.002-0.299,3.577-0.9,4.725
				c-0.6,1.147-1.475,2.038-2.621,2.673c-1.148,0.635-2.4,0.952-3.758,0.952c-2.178,0-3.939-0.698-5.281-2.095
				C1063.112,214.659,1062.442,212.647,1062.442,210.021z M1065.151,210.021c0,1.992,0.436,3.484,1.305,4.476
				s1.963,1.486,3.281,1.486c1.309,0,2.396-0.498,3.266-1.494s1.305-2.515,1.305-4.556c0-1.924-0.438-3.381-1.311-4.372
				c-0.875-0.991-1.961-1.487-3.26-1.487c-1.318,0-2.412,0.493-3.281,1.479S1065.151,208.028,1065.151,210.021z"/>
			<path fill="#2B6189" d="M1080.079,217.799v-15.557h2.373v2.358c0.605-1.104,1.164-1.831,1.676-2.183
				c0.514-0.352,1.078-0.527,1.693-0.527c0.889,0,1.791,0.283,2.709,0.85l-0.908,2.446c-0.645-0.381-1.289-0.571-1.934-0.571
				c-0.576,0-1.094,0.174-1.553,0.52c-0.459,0.348-0.785,0.828-0.98,1.443c-0.293,0.938-0.439,1.963-0.439,3.076v8.145H1080.079z"/>
			<path fill="#2B6189" d="M1100.249,215.88c-0.977,0.83-1.916,1.416-2.82,1.758c-0.902,0.342-1.871,0.513-2.906,0.513
				c-1.709,0-3.023-0.418-3.941-1.252c-0.918-0.836-1.377-1.902-1.377-3.201c0-0.762,0.174-1.457,0.52-2.088
				c0.348-0.629,0.801-1.135,1.363-1.516c0.561-0.381,1.193-0.669,1.896-0.864c0.518-0.137,1.299-0.269,2.344-0.396
				c2.129-0.254,3.697-0.557,4.703-0.908c0.01-0.361,0.014-0.591,0.014-0.688c0-1.074-0.248-1.831-0.746-2.271
				c-0.674-0.596-1.676-0.894-3.004-0.894c-1.24,0-2.156,0.218-2.746,0.651c-0.592,0.436-1.027,1.204-1.311,2.308l-2.578-0.352
				c0.234-1.104,0.619-1.994,1.156-2.673s1.314-1.201,2.33-1.568c1.016-0.365,2.191-0.549,3.529-0.549
				c1.328,0,2.408,0.156,3.238,0.469s1.439,0.706,1.83,1.18s0.664,1.071,0.82,1.794c0.088,0.449,0.133,1.26,0.133,2.432v3.516
				c0,2.451,0.055,4.002,0.168,4.651c0.111,0.649,0.334,1.271,0.666,1.867h-2.754
				C1100.502,217.252,1100.327,216.612,1100.249,215.88z M1100.03,209.991c-0.957,0.391-2.393,0.723-4.307,0.996
				c-1.084,0.156-1.852,0.332-2.301,0.527s-0.795,0.481-1.039,0.856c-0.244,0.377-0.367,0.794-0.367,1.253
				c0,0.703,0.266,1.289,0.799,1.758c0.531,0.469,1.311,0.703,2.336,0.703c1.016,0,1.92-0.222,2.711-0.667
				c0.791-0.443,1.371-1.052,1.742-1.823c0.283-0.596,0.426-1.475,0.426-2.637V209.991z"/>
			<path fill="#2B6189" d="M1112.54,215.44l0.381,2.329c-0.742,0.156-1.406,0.234-1.992,0.234c-0.957,0-1.699-0.151-2.227-0.454
				s-0.898-0.7-1.113-1.194c-0.215-0.492-0.322-1.53-0.322-3.112v-8.95h-1.934v-2.051h1.934v-3.853l2.621-1.582v5.435h2.652v2.051
				h-2.652v9.097c0,0.752,0.047,1.235,0.141,1.45c0.092,0.215,0.242,0.386,0.453,0.513c0.209,0.127,0.51,0.19,0.9,0.19
				C1111.674,215.543,1112.061,215.509,1112.54,215.44z"/>
			<path fill="#2B6189" d="M1115.131,199.356v-3.032h2.637v3.032H1115.131z M1115.131,217.799v-15.557h2.637v15.557H1115.131z"/>
			<path fill="#2B6189" d="M1126.104,217.799l-5.918-15.557h2.783l3.34,9.316c0.361,1.006,0.693,2.051,0.996,3.135
				c0.234-0.82,0.561-1.807,0.98-2.959l3.457-9.492h2.711l-5.889,15.557H1126.104z"/>
			<path fill="#2B6189" d="M1135.801,210.021c0-2.881,0.801-5.015,2.402-6.401c1.338-1.152,2.969-1.729,4.893-1.729
				c2.139,0,3.887,0.701,5.244,2.102c1.357,1.402,2.035,3.338,2.035,5.809c0,2.002-0.299,3.577-0.9,4.725
				c-0.6,1.147-1.475,2.038-2.621,2.673c-1.148,0.635-2.4,0.952-3.758,0.952c-2.178,0-3.939-0.698-5.281-2.095
				C1136.471,214.659,1135.801,212.647,1135.801,210.021z M1138.51,210.021c0,1.992,0.436,3.484,1.305,4.476
				s1.963,1.486,3.281,1.486c1.309,0,2.396-0.498,3.266-1.494s1.305-2.515,1.305-4.556c0-1.924-0.438-3.381-1.311-4.372
				c-0.875-0.991-1.961-1.487-3.26-1.487c-1.318,0-2.412,0.493-3.281,1.479S1138.51,208.028,1138.51,210.021z"/>
			<path fill="#2B6189" d="M1154.213,217.799v-3.003h3.004v3.003H1154.213z"/>
		</g>
	</g>
	
		<line fill="none" stroke="#E3E036" stroke-width="3" stroke-miterlimit="10" stroke-dasharray="5" x1="807.899" y1="0" x2="807.899" y2="308.244"/>
</g>
</svg>
