<?xml version="1.0" encoding="utf-8"?>
<!-- Generator: Adobe Illustrator 16.0.0, SVG Export Plug-In . SVG Version: 6.00 Build 0)  -->
<!DOCTYPE svg PUBLIC "-//W3C//DTD SVG 1.1//EN" "http://www.w3.org/Graphics/SVG/1.1/DTD/svg11.dtd">
<svg version="1.1" id="Capa_1" xmlns="http://www.w3.org/2000/svg" xmlns:xlink="http://www.w3.org/1999/xlink" x="0px" y="0px"
	 width="1246.997px" height="582px" viewBox="0 0 1246.997 582" enable-background="new 0 0 1246.997 582" xml:space="preserve">
<path fill="#3D5964" d="M1224.694,20.797c-6.142-0.351-11.403,4.341-11.756,10.481c-0.351,6.141,4.341,11.401,10.483,11.755
	c6.14,0.35,11.4-4.345,11.753-10.482C1235.525,26.411,1230.836,21.149,1224.694,20.797z M1229.213,36.384
	c0.318,0.36,0.287,0.91-0.072,1.233c-0.362,0.317-0.909,0.287-1.229-0.073l-3.925-4.398l-4.397,3.922
	c-0.36,0.319-0.912,0.289-1.232-0.072c-0.314-0.36-0.282-0.908,0.069-1.23l4.398-3.923l-3.921-4.4
	c-0.321-0.36-0.285-0.908,0.078-1.233c0.352-0.309,0.902-0.286,1.224,0.072l3.923,4.399l4.399-3.921
	c0.357-0.313,0.906-0.279,1.231,0.069c0.319,0.363,0.288,0.91-0.071,1.233l-4.398,3.923L1229.213,36.384z"/>
<g>
	<path fill="#3D5964" d="M1203.145,30.718c0.657-11.532,10.576-20.375,22.107-19.716c11.532,0.658,20.374,10.576,19.714,22.108
		c-0.659,11.53-10.575,20.376-22.107,19.716C1211.328,52.166,1202.484,42.25,1203.145,30.718z M1209.61,31.088
		c-0.456,7.967,5.654,14.815,13.618,15.271c7.969,0.457,14.818-5.652,15.273-13.618c0.456-7.966-5.653-14.819-13.62-15.274
		C1216.917,17.013,1210.065,23.122,1209.61,31.088z"/>
</g>
<g>
	<path fill="#75A5D7" d="M1224.056,57.12c-13.92,0-25.205-11.285-25.205-25.205c0-5.988,2.092-11.485,5.58-15.809L26,0L0,582
		l1244.475-19.972l2.401-519.409C1242.851,51.186,1234.148,57.12,1224.056,57.12z"/>
</g>
<g>
	<path fill="#6390B9" d="M1224.056,57.12c-13.92,0-25.205-11.285-25.205-25.205c0-5.955,2.07-11.424,5.523-15.737L26,0.072
		l-7.393,172.481l1227.675-1.386l0.283-127.913C1242.414,51.478,1233.896,57.12,1224.056,57.12z"/>
</g>
</svg>
