<?xml version="1.0" encoding="utf-8"?>
<!-- Generator: Adobe Illustrator 16.0.0, SVG Export Plug-In . SVG Version: 6.00 Build 0)  -->
<!DOCTYPE svg PUBLIC "-//W3C//DTD SVG 1.1//EN" "http://www.w3.org/Graphics/SVG/1.1/DTD/svg11.dtd">
<svg version="1.1" id="Capa_1" xmlns="http://www.w3.org/2000/svg" xmlns:xlink="http://www.w3.org/1999/xlink" x="0px" y="0px"
	 width="1070.679px" height="257.116px" viewBox="0 0 1070.679 257.116" enable-background="new 0 0 1070.679 257.116"
	 xml:space="preserve">
<g>
	<g>
		<g>
			<path fill="#E3E036" stroke="#E3E036" stroke-miterlimit="10" d="M26.327,196.085v-2.208l18.523,0.105v19.027
				c0,0.213-0.024,0.777-0.07,1.693c-0.049,0.915-0.236,2.008-0.565,3.275c-0.332,1.269-0.92,2.644-1.768,4.123
				c-0.849,1.48-2.028,2.854-3.535,4.122c-3.677,2.961-8.721,4.44-15.131,4.44c-6.504,0-11.453-1.439-14.848-4.322
				c-1.696-1.334-2.947-2.774-3.747-4.321c-0.802-1.545-1.343-3.004-1.626-4.374c-0.282-1.371-0.402-2.547-0.354-3.531
				c0.047-0.983,0.071-1.581,0.071-1.792v-43.322c0-5.622,2.262-10.015,6.787-13.177c1.789-1.193,3.889-2.143,6.292-2.846
				c2.404-0.701,4.879-1.054,7.424-1.054c2.355,0,4.737,0.336,7.142,1.006c2.403,0.672,4.595,1.761,6.575,3.268
				c1.979,1.509,3.581,3.404,4.808,5.688c1.224,2.284,1.838,5.007,1.838,8.169h-2.97c0-2.74-0.519-5.112-1.555-7.115
				c-1.039-2.003-2.382-3.653-4.03-4.954c-1.65-1.3-3.513-2.267-5.586-2.898c-2.074-0.633-4.149-0.949-6.222-0.949
				c-2.169,0-4.312,0.282-6.434,0.846c-2.121,0.562-4.008,1.459-5.656,2.69c-1.65,1.232-2.97,2.78-3.959,4.645
				c-0.99,1.864-1.485,4.065-1.485,6.598v43.489v0.105c0,1.761,0.117,3.256,0.354,4.488c0.234,1.231,0.707,2.551,1.414,3.957
				c0.707,1.407,1.768,2.674,3.182,3.8c3.017,2.464,7.212,3.694,12.585,3.694c5.562,0,9.898-1.229,13.01-3.689
				c1.414-1.123,2.475-2.354,3.182-3.689c0.707-1.334,1.201-2.582,1.484-3.741c0.283-1.16,0.424-2.547,0.424-4.164v-0.105
				l-0.141-16.865L26.327,196.085z"/>
			<path fill="#E3E036" stroke="#E3E036" stroke-miterlimit="10" d="M112.016,227.607v0.948v1.054H72.14v-1.054v-74.418v-1.159
				h39.31v1.159v0.844H75.109v39.844h28.423v1.054v0.949H75.109v30.779H112.016z"/>
			<path fill="#E3E036" stroke="#E3E036" stroke-miterlimit="10" d="M141.002,229.609h-1.484h-1.484v-75.577v-1.054h2.403
				l39.162,67.145c0.566,0.985,0.968,1.758,1.207,2.319c0.236,0.562,0.448,1.02,0.638,1.37v-70.834h1.414h1.556v76.631h-2.554
				l-38.729-66.617c-0.189-0.351-0.592-1.07-1.206-2.161c-0.614-1.088-1.017-1.949-1.204-2.582L141.002,229.609z M140.013,152.979
				h-0.142h-0.142h-0.142h-0.141h-0.142h-0.142h-0.142H140.013z M183.424,229.609h-0.283h-0.283h-0.282h-0.142H183.424z"/>
			<path fill="#E3E036" stroke="#E3E036" stroke-miterlimit="10" d="M251.014,227.607v0.948v1.054h-39.876v-1.054v-74.418v-1.159
				h39.31v1.159v0.844h-36.341v39.844h28.423v1.054v0.949h-28.423v30.779H251.014z"/>
			<path fill="#E3E036" stroke="#E3E036" stroke-miterlimit="10" d="M302.061,196.512c-1.039,0.142-2.1,0.229-3.182,0.264
				c-1.085,0.036-2.24,0.053-3.465,0.053h-13.292v32.781h-1.555h-1.414v-75.366v-1.265h1.696h14.564
				c5.091,0,9.355,0.598,12.797,1.792c3.44,1.195,6.103,2.882,7.99,5.06c1.789,2.108,3.182,4.479,4.171,7.115
				c0.99,2.635,1.484,5.288,1.484,7.958c0,2.74-0.494,5.429-1.484,8.063c-0.989,2.636-2.382,4.973-4.171,7.01
				c-1.321,1.547-2.877,2.846-4.667,3.9c-1.792,1.054-4.054,1.792-6.787,2.213L302.061,196.512z M313.656,188.803
				c1.602-1.902,2.875-4.07,3.818-6.501c0.941-2.431,1.414-4.915,1.414-7.451c0-2.466-0.473-4.915-1.414-7.346
				c-0.943-2.431-2.217-4.597-3.818-6.501c-1.604-1.831-3.913-3.257-6.929-4.278c-3.018-1.021-6.787-1.533-11.312-1.533h-13.292
				v39.422h13.292c5.467,0,9.475-0.511,12.02-1.531C309.979,192.062,312.052,190.634,313.656,188.803z M304.748,196.09
				l19.655,33.414h-3.111l-19.372-32.992L304.748,196.09z"/>
			<path fill="#E3E036" stroke="#E3E036" stroke-miterlimit="10" d="M384.923,229.609h-3.111l-6.363-23.084h-24.604l-6.646,23.084
				h-3.111l20.787-76.631h2.403L384.923,229.609z M374.6,204.312l-11.453-45.535l-11.878,45.535H374.6z M362.582,152.979h0.141
				h0.283h0.142h0.142h0.282H362.582z"/>
			<path fill="#E3E036" stroke="#E3E036" stroke-miterlimit="10" d="M409.809,229.609v-1.054v-75.577h1.484h1.484v74.629h37.896
				v0.948v1.054H409.809z"/>
		</g>
		<g>
			<path fill="#FFFFFF" d="M2.383,50.259h10.644v86.688H2.383V50.259z"/>
			<path fill="#FFFFFF" d="M62.066,88.93v48.017h-9.698V90.458c0-3.447-0.512-5.848-1.537-7.199
				c-1.024-1.352-2.772-2.027-5.243-2.027c-2.418,0-4.152,0.695-5.203,2.086c-1.052,1.392-1.577,3.771-1.577,7.141v46.488H29.11
				V76.529h9.066l0.631,3.703c1.313-1.685,2.982-2.969,5.007-3.85c2.022-0.882,4.349-1.322,6.978-1.322
				c4.1,0,7.003,1.028,8.712,3.085C61.211,80.202,62.066,83.798,62.066,88.93z"/>
			<path fill="#FFFFFF" d="M94.628,48.966v6.229h-1.419c-2.261,0-3.824,0.323-4.691,0.97s-1.301,1.812-1.301,3.497v16.867h7.411
				v5.995h-7.411v54.422H77.52V82.524h-5.282v-5.995h5.282V63.424c0-6.19,0.893-10.168,2.681-11.931
				c1.786-1.764,5.15-2.645,10.092-2.645c1.104,0,1.971,0.01,2.602,0.029S94.102,48.927,94.628,48.966z"/>
			<path fill="#FFFFFF" d="M135.547,92.28v28.915c0,6.662-1.21,11.196-3.627,13.605c-2.418,2.41-6.701,3.615-12.852,3.615
				c-6.098,0-10.367-1.226-12.812-3.674s-3.666-7.003-3.666-13.664V92.28c0-6.7,1.195-11.245,3.587-13.635s6.688-3.585,12.891-3.585
				c6.097,0,10.368,1.225,12.812,3.673C134.324,81.183,135.547,85.697,135.547,92.28z M125.376,90.458
				c0-3.564-0.473-5.994-1.419-7.287s-2.576-1.939-4.889-1.939c-2.365,0-4.034,0.686-5.006,2.057
				c-0.974,1.372-1.459,3.762-1.459,7.17v32.501c0,3.605,0.474,6.053,1.419,7.346c0.946,1.293,2.628,1.939,5.046,1.939
				c2.312,0,3.942-0.665,4.889-1.998c0.946-1.331,1.419-3.761,1.419-7.287V90.458z"/>
			<path fill="#FFFFFF" d="M172.839,75.178v7.347h-1.655c-4.153,0-7.096,0.773-8.831,2.321c-1.734,1.548-2.602,4.223-2.602,8.022
				v44.078h-9.697V76.529h9.066l0.631,3.703c1.366-1.646,3.036-2.919,5.007-3.82s4.112-1.352,6.426-1.352
				c0.157,0,0.42,0.02,0.788,0.059C172.339,75.158,172.628,75.178,172.839,75.178z"/>
			<path fill="#FFFFFF" d="M209.501,80.644c1.943-2.037,3.81-3.477,5.598-4.32c1.786-0.842,3.863-1.263,6.229-1.263
				c3.626,0,6.229,1.038,7.805,3.114c1.577,2.077,2.365,5.662,2.365,10.755v48.017H221.8V90.458c0-3.447-0.421-5.848-1.262-7.199
				s-2.26-2.027-4.257-2.027c-2.05,0-3.536,0.726-4.455,2.174c-0.92,1.45-1.38,3.801-1.38,7.053v46.488h-9.697V90.458
				c0-3.447-0.407-5.848-1.222-7.199c-0.815-1.352-2.222-2.027-4.218-2.027c-2.051,0-3.536,0.726-4.455,2.174
				c-0.92,1.45-1.38,3.801-1.38,7.053v46.488h-9.697V76.529h9.066l0.631,3.703c1.313-1.724,2.878-3.017,4.691-3.879
				c1.813-0.861,3.85-1.293,6.11-1.293c2.417,0,4.415,0.479,5.992,1.439C207.845,77.461,208.922,78.842,209.501,80.644z"/>
			<path fill="#FFFFFF" d="M278.014,90.635v46.312h-9.066l-0.631-3.702c-1.314,1.685-2.984,2.968-5.007,3.849
				c-2.023,0.882-4.35,1.323-6.978,1.323c-4.1,0-7.005-1.029-8.712-3.086c-1.709-2.057-2.562-5.651-2.562-10.784v-12.049
				c0-4.74,1.722-8.11,5.164-10.108s9.474-3.115,18.095-3.35v-8.581c0-3.644-0.461-6.092-1.38-7.347
				c-0.92-1.253-2.562-1.88-4.928-1.88c-2.261,0-3.877,0.578-4.849,1.733c-0.974,1.156-1.459,3.145-1.459,5.965v3.351h-9.697v-1.646
				c0-6.033,1.183-10.139,3.548-12.312c2.365-2.175,6.569-3.262,12.614-3.262c5.887,0,10,1.097,12.339,3.291
				S278.014,84.64,278.014,90.635z M268.237,104.916c-5.046,0.157-8.476,0.822-10.289,1.998s-2.72,3.291-2.72,6.348v9.697
				c0,3.605,0.473,6.053,1.419,7.346s2.628,1.939,5.046,1.939c2.365,0,4.061-0.694,5.085-2.086c1.025-1.391,1.538-3.791,1.538-7.199
				L268.237,104.916z"/>
			<path fill="#FFFFFF" d="M322.717,92.28v3.879h-10.171v-5.701c0-3.957-0.354-6.484-1.063-7.581
				c-0.71-1.097-2.011-1.646-3.903-1.646c-1.892,0-3.206,0.617-3.941,1.851c-0.737,1.234-1.104,3.693-1.104,7.376v32.501
				c0,3.761,0.381,6.25,1.144,7.464c0.761,1.215,2.115,1.821,4.061,1.821c1.839,0,3.101-0.558,3.784-1.675
				c0.683-1.116,1.024-3.652,1.024-7.61v-6.465h10.171v4.701c0,6.662-1.117,11.196-3.351,13.605
				c-2.234,2.41-6.163,3.615-11.787,3.615c-5.571,0-9.475-1.234-11.708-3.703c-2.234-2.469-3.351-7.013-3.351-13.635V92.28
				c0-6.7,1.104-11.245,3.312-13.635c2.207-2.39,6.122-3.585,11.747-3.585c5.571,0,9.487,1.225,11.748,3.673
				C321.586,81.183,322.717,85.697,322.717,92.28z"/>
			<path fill="#FFFFFF" d="M335.017,50.259h10.801v9.168h-10.801V50.259z M335.489,76.529h9.697v60.417h-9.697V76.529z"/>
			<path fill="#FFFFFF" d="M392.808,92.28v28.915c0,6.662-1.21,11.196-3.627,13.605c-2.418,2.41-6.701,3.615-12.852,3.615
				c-6.098,0-10.367-1.226-12.812-3.674s-3.666-7.003-3.666-13.664V92.28c0-6.7,1.195-11.245,3.587-13.635s6.688-3.585,12.891-3.585
				c6.097,0,10.368,1.225,12.812,3.673C391.585,81.183,392.808,85.697,392.808,92.28z M382.637,90.458
				c0-3.564-0.473-5.994-1.419-7.287s-2.576-1.939-4.889-1.939c-2.365,0-4.034,0.686-5.006,2.057
				c-0.974,1.372-1.459,3.762-1.459,7.17v32.501c0,3.605,0.474,6.053,1.419,7.346c0.946,1.293,2.628,1.939,5.046,1.939
				c2.312,0,3.942-0.665,4.889-1.998c0.946-1.331,1.419-3.761,1.419-7.287V90.458z M378.773,55.489h11.117l-10.328,13.106h-7.727
				L378.773,55.489z"/>
			<path fill="#FFFFFF" d="M440.27,88.93v48.017h-9.698V90.458c0-3.447-0.512-5.848-1.537-7.199
				c-1.024-1.352-2.772-2.027-5.243-2.027c-2.418,0-4.152,0.695-5.203,2.086c-1.052,1.392-1.577,3.771-1.577,7.141v46.488h-9.697
				V76.529h9.066l0.631,3.703c1.313-1.685,2.982-2.969,5.007-3.85c2.022-0.882,4.349-1.322,6.978-1.322
				c4.1,0,7.003,1.028,8.712,3.085C439.414,80.202,440.27,83.798,440.27,88.93z"/>
		</g>
	</g>
	<g>
		<path fill="#D5D831" d="M630.886,28.982c-0.906,0.402-2.918,0.871-5.467,0.871c-8.217,0-12.107-5.734-12.107-12.912
			c0-9.29,6.037-13.684,12.711-13.684c2.615,0,4.426,0.536,5.164,0.938l-1.072,4.797c-0.873-0.403-2.113-0.771-3.758-0.771
			c-3.723,0-6.842,2.549-6.842,8.385c0,5.399,2.684,8.217,6.877,8.217c1.34,0,2.85-0.269,3.756-0.604L630.886,28.982z"/>
		<path fill="#D5D831" d="M650.609,19.96c0,7.345-4.729,9.928-8.854,9.928c-5.232,0-8.82-3.622-8.82-9.693
			c0-6.339,3.822-9.927,9.021-9.927C647.355,10.268,650.609,14.292,650.609,19.96z M641.822,14.561c-2.213,0-2.918,2.884-2.918,5.5
			c0,3.152,0.906,5.534,2.918,5.534c1.912,0,2.818-2.516,2.818-5.534C644.64,17.277,643.833,14.561,641.822,14.561z"/>
		<path fill="#D5D831" d="M670.568,23.75c0,2.079,0.066,4.26,0.135,5.769h-5.166l-0.268-2.448h-0.102
			c-1.006,1.777-2.951,2.817-4.963,2.817c-4.326,0-7.145-4.159-7.145-9.727c0-6.406,3.488-9.894,7.412-9.894
			c2.014,0,3.455,0.805,4.092,1.945h0.102V2.486h5.902V23.75z M664.666,18.351c0-2.616-1.543-3.388-2.549-3.388
			c-2.146,0-3.119,2.348-3.119,5.198c0,3.253,1.273,4.964,3.084,4.964c1.107,0,2.584-0.704,2.584-3.287V18.351z"/>
		<path fill="#D5D831" d="M674.529,14.058c0-2.046,1.441-3.589,3.354-3.589c1.945,0,3.354,1.442,3.354,3.589
			c0,2.046-1.309,3.555-3.354,3.555C675.835,17.612,674.529,16.036,674.529,14.058z M674.529,26.332
			c0-2.012,1.441-3.555,3.354-3.555c1.945,0,3.354,1.442,3.354,3.555c0,2.08-1.309,3.556-3.354,3.556
			C675.835,29.888,674.529,28.345,674.529,26.332z"/>
	</g>
	<g>
		<path fill="#D5D831" d="M614.552,55.355c1.777-0.302,4.227-0.536,6.809-0.536c4.293,0,7.109,0.838,9.289,2.549
			c2.516,2.046,3.959,5.332,3.959,10.095c0,5.534-1.912,8.922-4.059,10.766c-2.314,1.979-5.836,2.918-10.33,2.918
			c-2.516,0-4.428-0.201-5.668-0.368V55.355z M620.421,76.385c0.369,0.066,0.939,0.066,1.408,0.066
			c3.857,0.034,6.607-2.549,6.607-8.955c0-5.399-2.482-8.082-6.205-8.082c-0.838,0-1.408,0.066-1.811,0.167V76.385z"/>
		<path fill="#D5D831" d="M652.455,80.208c-1.744,0.704-3.992,1.039-6.238,1.039c-5.938,0-9.291-3.555-9.291-9.458
			c0-5.399,3.152-10.128,8.787-10.128c4.494,0,7.682,3.019,7.682,9.424c0,0.906-0.035,1.845-0.168,2.482H642.56
			c0.135,2.247,2.146,3.286,4.596,3.286c1.709,0,3.186-0.302,4.527-0.737L652.455,80.208z M647.994,69.509
			c0-1.677-0.537-3.79-2.582-3.79c-2.014,0-2.785,2.214-2.885,3.79H647.994z"/>
		<path fill="#D5D831" d="M673.15,80.912h-5.902V69.945c0-1.979-0.604-3.421-2.281-3.421c-1.24,0-2.549,0.905-2.549,3.32v11.067
			h-5.902V68.066c0-2.247-0.066-4.259-0.135-6.037h5.064l0.303,2.382h0.1c0.84-1.274,2.617-2.75,5.232-2.75
			c3.957,0,6.07,2.851,6.07,7.747V80.912z"/>
		<path fill="#D5D831" d="M693.847,71.354c0,7.345-4.73,9.928-8.855,9.928c-5.232,0-8.82-3.622-8.82-9.693
			c0-6.339,3.824-9.927,9.021-9.927C690.593,61.661,693.847,65.686,693.847,71.354z M685.06,65.954c-2.215,0-2.918,2.884-2.918,5.5
			c0,3.152,0.904,5.534,2.918,5.534c1.91,0,2.816-2.516,2.816-5.534C687.876,68.671,687.072,65.954,685.06,65.954z"/>
		<path fill="#D5D831" d="M723.531,80.912h-5.801V70.381c0-2.381-0.537-3.924-2.146-3.924c-1.375,0-2.348,1.174-2.348,3.085v11.37
			h-5.803V69.911c0-1.845-0.471-3.454-2.113-3.454c-0.871,0-2.381,0.704-2.381,3.119v11.336h-5.803V68.066
			c0-2.247-0.066-4.259-0.135-6.037h5.031l0.27,2.349h0.1c0.873-1.175,2.516-2.717,5.199-2.717c2.314,0,3.99,1.106,4.729,2.884
			h0.066c0.738-1.073,2.449-2.884,5.367-2.884c3.689,0,5.768,2.75,5.768,7.78V80.912z"/>
		<path fill="#D5D831" d="M730.445,59.917c-1.777,0-3.018-1.274-3.018-2.985c0-1.777,1.273-3.019,3.018-3.019
			c1.777,0,3.02,1.241,3.02,3.019S732.156,59.917,730.445,59.917z M733.396,80.912h-5.902V62.029h5.902V80.912z"/>
		<path fill="#D5D831" d="M754.058,80.912h-5.902V69.945c0-1.979-0.605-3.421-2.281-3.421c-1.24,0-2.549,0.905-2.549,3.32v11.067
			h-5.902V68.066c0-2.247-0.068-4.259-0.135-6.037h5.064l0.301,2.382h0.102c0.838-1.274,2.615-2.75,5.232-2.75
			c3.957,0,6.07,2.851,6.07,7.747V80.912z"/>
		<path fill="#D5D831" d="M772.943,76.451c0,1.677,0.068,3.32,0.303,4.461h-5.299l-0.336-1.812h-0.1
			c-1.141,1.51-2.918,2.181-4.863,2.181c-3.422,0-5.668-2.616-5.668-5.803c0-4.997,4.459-7.144,10.027-7.177
			c0-1.442-0.637-2.482-3.02-2.482c-1.777,0-3.453,0.537-4.66,1.274l-1.074-3.823c1.207-0.671,3.656-1.609,6.908-1.609
			c6.238,0,7.781,3.957,7.781,8.149V76.451z M767.208,71.991c-2.449,0-4.527,0.704-4.527,2.884c0,1.543,0.939,2.214,1.979,2.214
			c1.207,0,2.549-0.872,2.549-2.649V71.991z"/>
		<path fill="#D5D831" d="M789.681,80.543c-0.805,0.369-2.482,0.704-4.326,0.704c-5.635,0-9.223-3.521-9.223-9.559
			c0-5.701,3.689-9.994,10.027-9.994c1.477,0,2.885,0.302,3.723,0.604l-0.838,4.461c-0.604-0.201-1.408-0.437-2.582-0.437
			c-2.684,0-4.395,2.08-4.361,5.132c0,3.287,1.879,5.132,4.395,5.132c1.039,0,1.912-0.168,2.648-0.47L789.681,80.543z"/>
		<path fill="#D5D831" d="M795.486,59.917c-1.777,0-3.018-1.274-3.018-2.985c0-1.777,1.273-3.019,3.018-3.019
			c1.777,0,3.02,1.241,3.02,3.019S797.197,59.917,795.486,59.917z M798.437,80.912h-5.902V62.029h5.902V80.912z"/>
		<path fill="#D5D831" d="M819.166,71.354c0,7.345-4.729,9.928-8.854,9.928c-5.232,0-8.82-3.622-8.82-9.693
			c0-6.339,3.822-9.927,9.021-9.927C815.912,61.661,819.166,65.686,819.166,71.354z M810.378,65.954c-2.213,0-2.918,2.884-2.918,5.5
			c0,3.152,0.906,5.534,2.918,5.534c1.912,0,2.818-2.516,2.818-5.534C813.197,68.671,812.39,65.954,810.378,65.954z M810.949,54.081
			h5.232l-4.326,5.701h-3.924L810.949,54.081z"/>
		<path fill="#D5D831" d="M839.091,80.912h-5.902V69.945c0-1.979-0.605-3.421-2.281-3.421c-1.24,0-2.549,0.905-2.549,3.32v11.067
			h-5.902V68.066c0-2.247-0.068-4.259-0.135-6.037h5.064l0.301,2.382h0.102c0.838-1.274,2.615-2.75,5.232-2.75
			c3.957,0,6.07,2.851,6.07,7.747V80.912z"/>
		<path fill="#D5D831" d="M866.763,75.144c0,2.079,0.068,4.26,0.135,5.769h-5.164l-0.27-2.448h-0.1
			c-1.006,1.777-2.951,2.817-4.965,2.817c-4.326,0-7.143-4.159-7.143-9.727c0-6.406,3.488-9.894,7.412-9.894
			c2.012,0,3.453,0.805,4.092,1.945h0.1V53.88h5.902V75.144z M860.861,69.744c0-2.616-1.543-3.388-2.549-3.388
			c-2.146,0-3.119,2.348-3.119,5.198c0,3.253,1.275,4.964,3.086,4.964c1.107,0,2.582-0.704,2.582-3.287V69.744z"/>
		<path fill="#D5D831" d="M885.482,80.208c-1.744,0.704-3.992,1.039-6.238,1.039c-5.938,0-9.291-3.555-9.291-9.458
			c0-5.399,3.152-10.128,8.787-10.128c4.494,0,7.682,3.019,7.682,9.424c0,0.906-0.035,1.845-0.168,2.482h-10.666
			c0.135,2.247,2.146,3.286,4.596,3.286c1.709,0,3.186-0.302,4.527-0.737L885.482,80.208z M881.021,69.509
			c0-1.677-0.537-3.79-2.582-3.79c-2.014,0-2.785,2.214-2.885,3.79H881.021z"/>
		<path fill="#D5D831" d="M895.445,80.912h-5.902V53.913h5.902V80.912z"/>
		<path fill="#D5D831" d="M911.814,64.411c1.107-1.744,2.953-2.75,5.232-2.75c4.16,0,7.01,4.024,7.01,9.659
			c0,6.908-3.857,9.961-7.547,9.961c-1.91,0-3.354-0.872-4.023-1.912h-0.102v9.056h-5.902V68.268c0-2.348-0.066-4.427-0.135-6.238
			h5.098l0.303,2.382H911.814z M912.384,73.332c0,1.912,1.074,3.32,2.584,3.32c2.078,0,3.119-2.18,3.119-5.131
			c0-3.153-1.074-5.098-3.053-5.098c-1.375,0-2.65,1.24-2.65,3.253V73.332z"/>
		<path fill="#D5D831" d="M938.212,67.43c-0.402-0.101-0.838-0.135-1.441-0.135c-1.51,0-2.918,0.705-3.42,2.382
			c-0.168,0.436-0.236,1.106-0.236,1.777v9.458h-5.902V68.134c0-2.481-0.066-4.394-0.135-6.104h5.064l0.236,3.153h0.133
			c0.939-2.482,2.918-3.521,4.461-3.521c0.57,0,0.873,0.033,1.24,0.101V67.43z"/>
		<path fill="#D5D831" d="M957.433,71.354c0,7.345-4.729,9.928-8.854,9.928c-5.232,0-8.82-3.622-8.82-9.693
			c0-6.339,3.822-9.927,9.021-9.927C954.179,61.661,957.433,65.686,957.433,71.354z M948.646,65.954c-2.213,0-2.918,2.884-2.918,5.5
			c0,3.152,0.906,5.534,2.918,5.534c1.912,0,2.818-2.516,2.818-5.534C951.464,68.671,950.658,65.954,948.646,65.954z"/>
		<path fill="#D5D831" d="M977.324,62.029c-0.066,1.477-0.168,3.254-0.168,5.836v10.599c0,4.729-1.105,10.33-9.793,10.33
			c-2.213,0-4.393-0.402-5.971-1.174l1.074-4.494c1.107,0.57,2.816,1.106,4.695,1.106c2.582,0,4.158-1.543,4.158-4.527v-1.04h-0.066
			c-0.939,1.342-2.516,2.079-4.26,2.079c-4.527,0-7.109-4.192-7.109-9.156c0-6.07,3.42-9.927,7.646-9.927
			c2.012,0,3.488,0.905,4.359,2.414h0.068l0.268-2.046H977.324z M971.253,69.441c0-2.112-1.141-3.119-2.381-3.119
			c-1.846,0-3.053,2.08-3.053,5.165c0,2.952,1.141,4.83,2.984,4.83c1.275,0,2.449-0.839,2.449-3.22V69.441z"/>
		<path fill="#D5D831" d="M992.152,67.43c-0.402-0.101-0.838-0.135-1.441-0.135c-1.51,0-2.918,0.705-3.422,2.382
			c-0.168,0.436-0.234,1.106-0.234,1.777v9.458h-5.902V68.134c0-2.481-0.068-4.394-0.135-6.104h5.064l0.234,3.153h0.135
			c0.939-2.482,2.918-3.521,4.461-3.521c0.568,0,0.871,0.033,1.24,0.101V67.43z"/>
		<path fill="#D5D831" d="M1009.56,76.451c0,1.677,0.068,3.32,0.303,4.461h-5.299l-0.336-1.812h-0.1
			c-1.141,1.51-2.918,2.181-4.863,2.181c-3.422,0-5.668-2.616-5.668-5.803c0-4.997,4.459-7.144,10.027-7.177
			c0-1.442-0.637-2.482-3.02-2.482c-1.777,0-3.453,0.537-4.66,1.274l-1.074-3.823c1.207-0.671,3.656-1.609,6.908-1.609
			c6.238,0,7.781,3.957,7.781,8.149V76.451z M1003.826,71.991c-2.449,0-4.527,0.704-4.527,2.884c0,1.543,0.939,2.214,1.979,2.214
			c1.207,0,2.549-0.872,2.549-2.649V71.991z"/>
		<path fill="#D5D831" d="M1039.982,80.912h-5.801V70.381c0-2.381-0.537-3.924-2.146-3.924c-1.375,0-2.348,1.174-2.348,3.085v11.37
			h-5.803V69.911c0-1.845-0.471-3.454-2.113-3.454c-0.871,0-2.381,0.704-2.381,3.119v11.336h-5.803V68.066
			c0-2.247-0.066-4.259-0.135-6.037h5.031l0.27,2.349h0.1c0.873-1.175,2.516-2.717,5.199-2.717c2.314,0,3.99,1.106,4.729,2.884
			h0.066c0.738-1.073,2.449-2.884,5.367-2.884c3.689,0,5.768,2.75,5.768,7.78V80.912z"/>
		<path fill="#D5D831" d="M1058.835,76.451c0,1.677,0.068,3.32,0.303,4.461h-5.299l-0.336-1.812h-0.1
			c-1.141,1.51-2.918,2.181-4.863,2.181c-3.422,0-5.668-2.616-5.668-5.803c0-4.997,4.459-7.144,10.027-7.177
			c0-1.442-0.637-2.482-3.02-2.482c-1.777,0-3.453,0.537-4.66,1.274l-1.074-3.823c1.207-0.671,3.656-1.609,6.908-1.609
			c6.238,0,7.781,3.957,7.781,8.149V76.451z M1053.101,71.991c-2.449,0-4.527,0.704-4.527,2.884c0,1.543,0.939,2.214,1.979,2.214
			c1.207,0,2.549-0.872,2.549-2.649V71.991z"/>
		<path fill="#D5D831" d="M1062.796,65.451c0-2.046,1.443-3.589,3.354-3.589c1.945,0,3.355,1.442,3.355,3.589
			c0,2.045-1.309,3.555-3.355,3.555C1064.105,69.006,1062.796,67.43,1062.796,65.451z M1062.796,77.726
			c0-2.012,1.443-3.555,3.354-3.555c1.945,0,3.355,1.442,3.355,3.555c0,2.08-1.309,3.556-3.355,3.556
			C1064.105,81.281,1062.796,79.738,1062.796,77.726z"/>
	</g>
	<g>
		<path fill="#D5D831" d="M614.552,151.145c1.777-0.302,4.227-0.536,6.809-0.536c4.293,0,7.109,0.838,9.289,2.549
			c2.516,2.046,3.959,5.332,3.959,10.095c0,5.534-1.912,8.922-4.059,10.766c-2.314,1.979-5.836,2.918-10.33,2.918
			c-2.516,0-4.428-0.201-5.668-0.368V151.145z M620.421,172.174c0.369,0.066,0.939,0.066,1.408,0.066
			c3.857,0.034,6.607-2.549,6.607-8.955c0-5.399-2.482-8.082-6.205-8.082c-0.838,0-1.408,0.066-1.811,0.167V172.174z"/>
		<path fill="#D5D831" d="M654.265,170.631c0,2.314,0.102,4.394,0.168,6.07h-5.098l-0.27-2.348h-0.1
			c-0.805,1.207-2.516,2.717-5.266,2.717c-3.824,0-5.971-2.583-5.971-8.016v-11.236h5.904v10.397c0,2.549,0.703,4.024,2.348,4.024
			c1.207,0,2.381-0.938,2.381-2.851v-11.571h5.902V170.631z"/>
		<path fill="#D5D831" d="M669.294,163.219c-0.402-0.101-0.838-0.135-1.441-0.135c-1.51,0-2.918,0.705-3.422,2.382
			c-0.168,0.436-0.234,1.106-0.234,1.777v9.458h-5.902v-12.778c0-2.481-0.068-4.394-0.135-6.104h5.064l0.234,3.153h0.135
			c0.939-2.482,2.918-3.521,4.461-3.521c0.568,0,0.871,0.033,1.24,0.101V163.219z"/>
		<path fill="#D5D831" d="M686.703,172.24c0,1.677,0.066,3.32,0.301,4.461h-5.299l-0.334-1.812h-0.102
			c-1.141,1.51-2.918,2.181-4.863,2.181c-3.42,0-5.668-2.616-5.668-5.803c0-4.997,4.461-7.144,10.027-7.177
			c0-1.442-0.637-2.482-3.018-2.482c-1.777,0-3.455,0.537-4.662,1.274l-1.072-3.823c1.207-0.671,3.654-1.609,6.908-1.609
			c6.238,0,7.781,3.957,7.781,8.149V172.24z M680.966,167.78c-2.447,0-4.527,0.704-4.527,2.884c0,1.543,0.939,2.214,1.979,2.214
			c1.209,0,2.549-0.872,2.549-2.649V167.78z"/>
		<path fill="#D5D831" d="M703.441,176.332c-0.805,0.369-2.482,0.704-4.326,0.704c-5.635,0-9.223-3.521-9.223-9.559
			c0-5.701,3.689-9.994,10.027-9.994c1.477,0,2.885,0.302,3.723,0.604l-0.838,4.461c-0.604-0.201-1.408-0.437-2.582-0.437
			c-2.684,0-4.395,2.08-4.361,5.132c0,3.287,1.879,5.132,4.395,5.132c1.039,0,1.912-0.168,2.648-0.47L703.441,176.332z"/>
		<path fill="#D5D831" d="M709.246,155.706c-1.777,0-3.018-1.274-3.018-2.985c0-1.777,1.273-3.019,3.018-3.019
			c1.777,0,3.02,1.241,3.02,3.019S710.957,155.706,709.246,155.706z M712.197,176.701h-5.902v-18.883h5.902V176.701z"/>
		<path fill="#D5D831" d="M732.925,167.143c0,7.345-4.729,9.928-8.854,9.928c-5.232,0-8.82-3.622-8.82-9.693
			c0-6.339,3.822-9.927,9.021-9.927C729.671,157.45,732.925,161.475,732.925,167.143z M724.138,161.743
			c-2.213,0-2.918,2.884-2.918,5.5c0,3.152,0.906,5.534,2.918,5.534c1.912,0,2.818-2.516,2.818-5.534
			C726.957,164.46,726.15,161.743,724.138,161.743z M724.708,149.87h5.232l-4.326,5.701h-3.924L724.708,149.87z"/>
		<path fill="#D5D831" d="M752.851,176.701h-5.902v-10.967c0-1.979-0.605-3.421-2.281-3.421c-1.24,0-2.549,0.905-2.549,3.32v11.067
			h-5.902v-12.846c0-2.247-0.068-4.259-0.135-6.037h5.064l0.301,2.382h0.102c0.838-1.274,2.615-2.75,5.232-2.75
			c3.957,0,6.07,2.851,6.07,7.747V176.701z"/>
		<path fill="#D5D831" d="M756.777,161.24c0-2.046,1.443-3.589,3.354-3.589c1.945,0,3.355,1.442,3.355,3.589
			c0,2.045-1.309,3.555-3.355,3.555C758.085,164.795,756.777,163.219,756.777,161.24z M756.777,173.515
			c0-2.012,1.443-3.555,3.354-3.555c1.945,0,3.355,1.442,3.355,3.555c0,2.08-1.309,3.556-3.355,3.556
			C758.085,177.07,756.777,175.527,756.777,173.515z"/>
	</g>
	<g>
		<path fill="#D5D831" d="M614.552,217.438c1.678-0.302,4.025-0.536,6.977-0.536c3.42,0,5.936,0.569,7.68,2.046
			c1.643,1.341,2.615,3.555,2.615,5.97c0,7.211-5.869,8.888-9.926,8.888c-0.57,0-1.074-0.034-1.477-0.067v9.257h-5.869V217.438z
			 M620.421,229.109c0.369,0.033,0.738,0.066,1.342,0.066c2.75,0,4.227-1.643,4.227-3.991c0-2.381-1.443-3.688-3.791-3.688
			c-0.805,0-1.441,0.101-1.777,0.201V229.109z"/>
		<path fill="#D5D831" d="M651.515,233.436c0,7.345-4.73,9.928-8.855,9.928c-5.232,0-8.82-3.622-8.82-9.693
			c0-6.339,3.824-9.927,9.021-9.927C648.261,223.743,651.515,227.768,651.515,233.436z M642.728,228.036
			c-2.215,0-2.918,2.884-2.918,5.5c0,3.152,0.904,5.534,2.918,5.534c1.91,0,2.816-2.516,2.816-5.534
			C645.544,230.753,644.74,228.036,642.728,228.036z"/>
		<path fill="#D5D831" d="M660.808,226.124c1.006-1.408,2.615-2.381,4.83-2.381c4.191,0,6.707,3.991,6.707,9.391
			c0,6.774-3.623,10.229-7.58,10.229c-1.844,0-3.521-0.671-4.729-2.75h-0.066l-0.303,2.381h-4.998
			c0.068-1.476,0.135-3.689,0.135-5.769v-21.23h5.902v10.129H660.808z M660.707,235.481c0,2.113,1.342,3.187,2.617,3.187
			c1.979,0,3.086-1.845,3.086-5.199c0-2.951-1.008-4.997-3.086-4.997c-1.309,0-2.617,1.174-2.617,3.22V235.481z"/>
		<path fill="#D5D831" d="M681.437,242.994h-5.902v-26.999h5.902V242.994z"/>
		<path fill="#D5D831" d="M700.355,238.533c0,1.677,0.066,3.32,0.301,4.461h-5.299l-0.334-1.812h-0.102
			c-1.141,1.51-2.918,2.181-4.863,2.181c-3.42,0-5.668-2.616-5.668-5.803c0-4.997,4.461-7.144,10.027-7.177
			c0-1.442-0.637-2.482-3.018-2.482c-1.777,0-3.455,0.537-4.662,1.274l-1.072-3.823c1.207-0.671,3.654-1.609,6.908-1.609
			c6.238,0,7.781,3.957,7.781,8.149V238.533z M694.619,234.073c-2.447,0-4.527,0.704-4.527,2.884c0,1.543,0.939,2.214,1.979,2.214
			c1.209,0,2.549-0.872,2.549-2.649V234.073z"/>
		<path fill="#D5D831" d="M717.093,242.625c-0.805,0.369-2.482,0.704-4.326,0.704c-5.635,0-9.223-3.521-9.223-9.559
			c0-5.701,3.689-9.994,10.027-9.994c1.477,0,2.885,0.302,3.723,0.604l-0.838,4.461c-0.604-0.201-1.408-0.437-2.582-0.437
			c-2.684,0-4.395,2.08-4.361,5.132c0,3.287,1.879,5.132,4.395,5.132c1.039,0,1.912-0.168,2.648-0.47L717.093,242.625z"/>
		<path fill="#D5D831" d="M722.898,221.999c-1.777,0-3.02-1.274-3.02-2.985c0-1.777,1.275-3.019,3.02-3.019
			c1.777,0,3.018,1.241,3.018,3.019S724.607,221.999,722.898,221.999z M725.849,242.994h-5.902v-18.883h5.902V242.994z"/>
		<path fill="#D5D831" d="M746.578,233.436c0,7.345-4.73,9.928-8.855,9.928c-5.232,0-8.82-3.622-8.82-9.693
			c0-6.339,3.824-9.927,9.021-9.927C743.324,223.743,746.578,227.768,746.578,233.436z M737.791,228.036
			c-2.215,0-2.918,2.884-2.918,5.5c0,3.152,0.904,5.534,2.918,5.534c1.91,0,2.816-2.516,2.816-5.534
			C740.607,230.753,739.802,228.036,737.791,228.036z M738.361,216.163h5.23l-4.326,5.701h-3.924L738.361,216.163z"/>
		<path fill="#D5D831" d="M766.501,242.994h-5.902v-10.967c0-1.979-0.604-3.421-2.281-3.421c-1.24,0-2.549,0.905-2.549,3.32v11.067
			h-5.902v-12.846c0-2.247-0.066-4.259-0.135-6.037h5.064l0.303,2.382h0.1c0.84-1.274,2.617-2.75,5.232-2.75
			c3.957,0,6.07,2.851,6.07,7.747V242.994z"/>
		<path fill="#D5D831" d="M794.21,233.436c0,7.345-4.73,9.928-8.855,9.928c-5.232,0-8.82-3.622-8.82-9.693
			c0-6.339,3.824-9.927,9.021-9.927C790.957,223.743,794.21,227.768,794.21,233.436z M785.423,228.036
			c-2.215,0-2.918,2.884-2.918,5.5c0,3.152,0.904,5.534,2.918,5.534c1.91,0,2.816-2.516,2.816-5.534
			C788.24,230.753,787.435,228.036,785.423,228.036z"/>
		<path fill="#D5D831" d="M803.501,226.124c1.006-1.408,2.617-2.381,4.83-2.381c4.193,0,6.707,3.991,6.707,9.391
			c0,6.774-3.621,10.229-7.578,10.229c-1.846,0-3.521-0.671-4.73-2.75h-0.066l-0.303,2.381h-4.996
			c0.066-1.476,0.135-3.689,0.135-5.769v-21.23h5.902v10.129H803.501z M803.402,235.481c0,2.113,1.342,3.187,2.615,3.187
			c1.979,0,3.086-1.845,3.086-5.199c0-2.951-1.006-4.997-3.086-4.997c-1.307,0-2.615,1.174-2.615,3.22V235.481z"/>
		<path fill="#D5D831" d="M824.601,241.049c0,3.924-0.537,9.961-9.391,9.961l-0.502-4.595c3.621-0.402,3.99-1.744,3.99-6.573v-15.73
			h5.902V241.049z M821.65,221.999c-1.777,0-3.018-1.274-3.018-2.985c0-1.777,1.273-3.019,3.051-3.019s2.986,1.274,2.986,3.019
			C824.669,220.825,823.394,221.999,821.65,221.999z"/>
		<path fill="#D5D831" d="M843.285,242.29c-1.744,0.704-3.992,1.039-6.238,1.039c-5.938,0-9.291-3.555-9.291-9.458
			c0-5.399,3.152-10.128,8.787-10.128c4.494,0,7.682,3.019,7.682,9.424c0,0.906-0.035,1.845-0.168,2.482H833.39
			c0.135,2.247,2.146,3.286,4.596,3.286c1.709,0,3.186-0.302,4.527-0.737L843.285,242.29z M838.824,231.591
			c0-1.677-0.537-3.79-2.582-3.79c-2.014,0-2.785,2.214-2.885,3.79H838.824z"/>
		<path fill="#D5D831" d="M848.218,220.657l5.834-1.644v5.098h3.926v4.26h-3.926v7.11c0,2.214,0.705,3.019,2.113,3.019
			c0.672,0,1.041-0.033,1.543-0.168l0.033,4.562c-0.736,0.234-2.045,0.436-3.621,0.436c-5.803,0-5.902-4.963-5.902-7.109v-7.849
			h-2.314v-4.26h2.314V220.657z"/>
		<path fill="#D5D831" d="M863.781,221.999c-1.777,0-3.018-1.274-3.018-2.985c0-1.777,1.273-3.019,3.018-3.019
			c1.777,0,3.02,1.241,3.02,3.019S865.492,221.999,863.781,221.999z M866.732,242.994h-5.902v-18.883h5.902V242.994z"/>
		<path fill="#D5D831" d="M886.958,224.111l-6.139,18.883h-5.701l-6.139-18.849h6.373l1.879,8.284
			c0.369,1.644,0.637,3.186,0.904,4.896h0.102c0.234-1.744,0.502-3.187,0.871-4.896l1.812-8.318H886.958z"/>
		<path fill="#D5D831" d="M905.91,233.436c0,7.345-4.73,9.928-8.855,9.928c-5.232,0-8.82-3.622-8.82-9.693
			c0-6.339,3.824-9.927,9.021-9.927C902.656,223.743,905.91,227.768,905.91,233.436z M897.123,228.036
			c-2.215,0-2.918,2.884-2.918,5.5c0,3.152,0.904,5.534,2.918,5.534c1.91,0,2.816-2.516,2.816-5.534
			C899.939,230.753,899.134,228.036,897.123,228.036z"/>
		<path fill="#D5D831" d="M909.132,227.533c0-2.046,1.441-3.589,3.354-3.589c1.945,0,3.354,1.442,3.354,3.589
			c0,2.045-1.309,3.555-3.354,3.555C910.439,231.088,909.132,229.512,909.132,227.533z M909.132,239.808
			c0-2.012,1.441-3.555,3.354-3.555c1.945,0,3.354,1.442,3.354,3.555c0,2.08-1.309,3.556-3.354,3.556
			C910.439,243.363,909.132,241.82,909.132,239.808z"/>
	</g>
	<g>
		
			<line fill="none" stroke="#1B91B8" stroke-width="2" stroke-miterlimit="10" stroke-dasharray="5" x1="456.144" y1="101.567" x2="612.171" y2="34.899"/>
		
			<line fill="none" stroke="#1B91B8" stroke-width="2" stroke-miterlimit="10" stroke-dasharray="5" x1="456.144" y1="129.899" x2="612.171" y2="87.497"/>
		
			<line fill="none" stroke="#1B91B8" stroke-width="2" stroke-miterlimit="10" stroke-dasharray="5" x1="456.144" y1="155.152" x2="615.089" y2="183.923"/>
		
			<line fill="none" stroke="#1B91B8" stroke-width="2" stroke-miterlimit="10" stroke-dasharray="5" x1="456.144" y1="191.105" x2="612.171" y2="251.399"/>
		
			<line fill="none" stroke="#1B91B8" stroke-width="2" stroke-miterlimit="10" stroke-dasharray="5" x1="612.171" y1="34.899" x2="681.425" y2="34.899"/>
		
			<line fill="none" stroke="#1B91B8" stroke-width="2" stroke-miterlimit="10" stroke-dasharray="5" x1="612.171" y1="87.497" x2="1068.426" y2="87.497"/>
		
			<line fill="none" stroke="#1B91B8" stroke-width="2" stroke-miterlimit="10" stroke-dasharray="5" x1="612.171" y1="183.701" x2="764.926" y2="183.701"/>
		
			<line fill="none" stroke="#1B91B8" stroke-width="2" stroke-miterlimit="10" stroke-dasharray="5" x1="612.171" y1="251.399" x2="913.926" y2="251.399"/>
	</g>
</g>
</svg>
