<?xml version="1.0" encoding="utf-8"?>
<!-- Generator: Adobe Illustrator 16.0.0, SVG Export Plug-In . SVG Version: 6.00 Build 0)  -->
<!DOCTYPE svg PUBLIC "-//W3C//DTD SVG 1.1//EN" "http://www.w3.org/Graphics/SVG/1.1/DTD/svg11.dtd">
<svg version="1.1" id="Capa_1" xmlns="http://www.w3.org/2000/svg" xmlns:xlink="http://www.w3.org/1999/xlink" x="0px" y="0px"
	 width="250.75px" height="105.727px" viewBox="0 0 250.75 105.727" enable-background="new 0 0 250.75 105.727"
	 xml:space="preserve">
<g>
	<g>
		<g>
			<defs>
				<polygon id="SVGID_19_" points="-13.014,-73.636 273.755,-78.499 273.755,-332.521 -13.014,-332.521 				"/>
			</defs>
			<clipPath id="SVGID_2_">
				<use xlink:href="#SVGID_19_"  overflow="visible"/>
			</clipPath>
			<path clip-path="url(#SVGID_2_)" fill="#ECE7ED" d="M182.975-104.643c1.419,26.268,26.603,207.857,20.922,248.319
				c-52.529,1.065-90.152,3.194-90.152,3.194l-8.847-255.66C104.897-108.789,174.615-105.307,182.975-104.643"/>
			<path clip-path="url(#SVGID_2_)" fill="#3F5964" d="M236.903,158.164c-16.503,10.649-48.981,9.584-48.981,9.584
				c2.131-36.735,5.324-210.764-13.307-273.055c11.713,0,37.115,6.122,43.504,10.381c6.39,4.26,72.557,142.951,66.701,244.105
				c-18.635-4.791-37.268-1.065-37.268-1.065c0.533-32.477-25.024-149.603-25.024-149.603
				C223.595,52.283,234.068,92.85,236.903,158.164"/>
			<path clip-path="url(#SVGID_2_)" fill="#2F3461" d="M223.595,17.678c-0.399,0.018-0.999-5.941-1.776-15.57
				c-0.735-9.634-1.742-22.932-3.03-37.596c-1.264-14.668-2.907-27.876-4.188-37.434c-1.411-9.525-2.379-15.43-1.953-15.526
				c0.329-0.079,1.987,5.692,3.908,15.202c1.796,9.524,3.761,22.783,5.029,37.506c1.291,14.717,1.985,28.069,2.218,37.742
				C224.069,11.671,223.969,17.656,223.595,17.678"/>
			<path clip-path="url(#SVGID_2_)" fill="#3F5964" d="M112.737-109.742c-11.181,2.129-30.789,3.992-39.309,8.785
				c-8.519,4.792,0.178,63.353,0.178,63.353c10.114,58.564,5.875,66.971,4.911,105.878C77,129.515,59.926,153.511,59.926,153.511
				c31.945,19.165,69.09,14.645,69.09,14.645C149.246,122.37,155.33,58.493,112.737-109.742"/>
			<path clip-path="url(#SVGID_2_)" fill="#3F5964" d="M75.114-101.49c-7.808,0.711-23.336,8.336-40.372,62.643
				C17.704,15.459,0.312,40.66,0.312,63.021c0,22.361,4.26,96.899,9.229,106.482c14.197-9.583,35.14-11.359,41.174-8.519
				c0.707-47.209-17.75-88.379,13.13-146.234C81.238-16.838,91.796-42.214,75.114-101.49"/>
		</g>
	</g>
</g>
<g>
	<g>
		<path fill="#FFFFFF" d="M12.346,8.694h5.257v35.658c0,3.746-0.632,6.323-1.895,7.73c-1.264,1.407-3.471,2.11-6.622,2.11
			s-5.345-0.557-6.58-1.67c-1.236-1.113-1.854-3.148-1.854-6.105v-4.981h5.337v4.83c0,1.863,0.225,3.098,0.673,3.705
			s1.256,0.911,2.424,0.911c1.223,0,2.071-0.395,2.547-1.185c0.475-0.789,0.713-2.369,0.713-4.738V8.694z"/>
		<path fill="#FFFFFF" d="M25.874,22.271h5.012v23.934c0,1.843,0.265,3.113,0.795,3.812c0.529,0.698,1.433,1.048,2.709,1.048
			c1.249,0,2.133-0.359,2.648-1.078s0.774-1.979,0.774-3.782V22.271h5.094v31.224H38.22l-0.407-1.913
			c-0.68,0.87-1.521,1.523-2.526,1.959c-1.005,0.435-2.187,0.652-3.545,0.652c-2.146,0-3.66-0.526-4.543-1.579
			s-1.324-2.896-1.324-5.528V22.271z"/>
		<path fill="#FFFFFF" d="M64.745,29.47v1.762h-5.012V29.47c0-1.924-0.184-3.199-0.55-3.827c-0.367-0.627-1.039-0.941-2.018-0.941
			c-0.869,0-1.487,0.288-1.854,0.865c-0.367,0.577-0.55,1.555-0.55,2.932v1.245c0,0.668,0.169,1.326,0.509,1.975
			c0.34,0.647,0.89,1.336,1.65,2.065l6.071,6.014c0.679,0.688,1.202,1.397,1.568,2.126c0.367,0.729,0.55,1.418,0.55,2.065v2.977
			c0,2.693-0.591,4.582-1.772,5.665s-3.185,1.625-6.01,1.625c-2.934,0-4.971-0.567-6.111-1.701
			c-1.142-1.134-1.712-3.229-1.712-6.287v-2.673h4.972v2.673c0,1.984,0.196,3.28,0.591,3.888c0.393,0.607,1.093,0.911,2.098,0.911
			c1.032,0,1.766-0.304,2.2-0.911s0.652-1.671,0.652-3.189V45.78c0-1.701-0.829-3.341-2.485-4.921
			c-0.055-0.061-0.096-0.101-0.122-0.121l-5.908-5.953c-0.626-0.627-1.073-1.25-1.345-1.868c-0.272-0.617-0.407-1.301-0.407-2.05
			v-2.248c0-2.571,0.576-4.398,1.731-5.482c1.154-1.083,3.076-1.625,5.766-1.625c2.797,0,4.747,0.567,5.847,1.701
			C64.195,24.347,64.745,26.433,64.745,29.47z"/>
		<path fill="#FFFFFF" d="M76.847,13.857v8.414h3.83v3.158h-3.83v23.206c0,0.87,0.225,1.473,0.673,1.807s1.256,0.501,2.424,0.501
			h0.733v3.25c-0.299,0.021-0.604,0.035-0.916,0.046c-0.312,0.01-0.754,0.016-1.324,0.016c-2.554,0-4.293-0.461-5.216-1.383
			c-0.924-0.921-1.386-2.971-1.386-6.15V25.43h-2.729v-3.158h2.729v-6.895L76.847,13.857z"/>
		<path fill="#FFFFFF" d="M85.444,8.694h5.582v4.738h-5.582V8.694z M85.688,22.271H90.7v31.224h-5.012V22.271z"/>
		<path fill="#FFFFFF" d="M107.61,8.026v3.22h-0.733c-1.168,0-1.977,0.167-2.425,0.501s-0.672,0.937-0.672,1.807v8.718h3.83v3.098
			h-3.83v28.126h-5.012V25.369h-2.73v-3.098h2.73v-6.773c0-3.199,0.461-5.255,1.385-6.166s2.662-1.366,5.216-1.366
			c0.57,0,1.019,0.005,1.345,0.015C107.04,7.991,107.339,8.006,107.61,8.026z"/>
		<path fill="#FFFFFF" d="M111.644,8.694h5.582v4.738h-5.582V8.694z M111.888,22.271h5.012v31.224h-5.012V22.271z"/>
		<path fill="#FFFFFF" d="M140.084,30.411v2.005h-5.256V29.47c0-2.045-0.184-3.351-0.55-3.918c-0.367-0.566-1.039-0.851-2.018-0.851
			c-0.978,0-1.657,0.319-2.037,0.957c-0.381,0.638-0.57,1.908-0.57,3.812v16.797c0,1.943,0.197,3.229,0.591,3.857
			s1.093,0.941,2.099,0.941c0.95,0,1.603-0.289,1.956-0.866c0.353-0.577,0.529-1.888,0.529-3.933v-3.342h5.256v2.431
			c0,3.442-0.577,5.786-1.731,7.031c-1.155,1.245-3.186,1.868-6.092,1.868c-2.879,0-4.896-0.639-6.051-1.914
			s-1.731-3.624-1.731-7.047V30.411c0-3.462,0.57-5.812,1.712-7.046c1.141-1.235,3.164-1.854,6.07-1.854
			c2.879,0,4.903,0.634,6.071,1.898C139.5,24.676,140.084,27.01,140.084,30.411z"/>
		<path fill="#FFFFFF" d="M163.064,29.561v23.935h-4.686l-0.326-1.913c-0.68,0.87-1.542,1.533-2.587,1.989
			c-1.047,0.455-2.248,0.684-3.606,0.684c-2.119,0-3.62-0.532-4.503-1.595c-0.883-1.063-1.324-2.921-1.324-5.574v-6.227
			c0-2.449,0.89-4.191,2.669-5.224c1.779-1.033,4.896-1.61,9.352-1.731V29.47c0-1.883-0.238-3.148-0.713-3.797
			c-0.476-0.647-1.324-0.972-2.547-0.972c-1.168,0-2.004,0.299-2.506,0.896c-0.503,0.597-0.754,1.625-0.754,3.082v1.731h-5.012
			v-0.851c0-3.117,0.611-5.239,1.834-6.363c1.222-1.123,3.395-1.686,6.52-1.686c3.041,0,5.167,0.567,6.376,1.701
			S163.064,26.463,163.064,29.561z M158.012,36.941c-2.607,0.081-4.38,0.426-5.317,1.033c-0.937,0.607-1.405,1.7-1.405,3.28v5.012
			c0,1.863,0.244,3.128,0.733,3.796c0.489,0.669,1.357,1.003,2.607,1.003c1.223,0,2.099-0.359,2.628-1.078
			c0.53-0.719,0.795-1.959,0.795-3.721L158.012,36.941z"/>
		<path fill="#FFFFFF" d="M186.167,30.411v2.005h-5.256V29.47c0-2.045-0.184-3.351-0.55-3.918c-0.367-0.566-1.039-0.851-2.018-0.851
			c-0.978,0-1.657,0.319-2.037,0.957c-0.381,0.638-0.57,1.908-0.57,3.812v16.797c0,1.943,0.197,3.229,0.591,3.857
			s1.093,0.941,2.099,0.941c0.95,0,1.603-0.289,1.956-0.866c0.353-0.577,0.529-1.888,0.529-3.933v-3.342h5.256v2.431
			c0,3.442-0.577,5.786-1.731,7.031c-1.155,1.245-3.186,1.868-6.092,1.868c-2.879,0-4.896-0.639-6.051-1.914
			s-1.731-3.624-1.731-7.047V30.411c0-3.462,0.57-5.812,1.712-7.046c1.141-1.235,3.164-1.854,6.07-1.854
			c2.879,0,4.903,0.634,6.071,1.898C185.583,24.676,186.167,27.01,186.167,30.411z"/>
		<path fill="#FFFFFF" d="M192.524,8.694h5.582v4.738h-5.582V8.694z M192.769,22.271h5.012v31.224h-5.012V22.271z"/>
		<path fill="#FFFFFF" d="M222.392,30.411v14.944c0,3.442-0.626,5.786-1.875,7.031s-3.463,1.868-6.642,1.868
			c-3.151,0-5.357-0.634-6.621-1.898c-1.263-1.266-1.895-3.619-1.895-7.062V30.411c0-3.462,0.618-5.812,1.854-7.046
			c1.235-1.235,3.456-1.854,6.661-1.854c3.151,0,5.358,0.634,6.622,1.898C221.76,24.676,222.392,27.01,222.392,30.411z
			 M217.135,29.47c0-1.842-0.244-3.098-0.733-3.767c-0.488-0.668-1.331-1.002-2.526-1.002c-1.222,0-2.085,0.354-2.587,1.063
			c-0.503,0.709-0.754,1.943-0.754,3.705v16.797c0,1.863,0.244,3.128,0.733,3.796c0.489,0.669,1.358,1.003,2.607,1.003
			c1.195,0,2.038-0.345,2.526-1.033c0.489-0.688,0.733-1.943,0.733-3.766V29.47z M215.139,11.397h5.745l-5.338,6.773h-3.993
			L215.139,11.397z"/>
		<path fill="#FFFFFF" d="M246.92,28.68v24.815h-5.012V29.47c0-1.781-0.266-3.022-0.795-3.721s-1.434-1.048-2.71-1.048
			c-1.249,0-2.146,0.359-2.688,1.078c-0.544,0.719-0.815,1.949-0.815,3.69v24.025h-5.012V22.271h4.686l0.326,1.913
			c0.679-0.87,1.541-1.533,2.588-1.989c1.045-0.455,2.247-0.684,3.605-0.684c2.119,0,3.619,0.532,4.503,1.595
			C246.478,24.17,246.92,26.027,246.92,28.68z"/>
	</g>
</g>
<g>
	<g>
		<path fill="#D5D831" d="M77.795,86.206c0.58-10.165,9.326-17.963,19.49-17.381c10.168,0.578,17.959,9.324,17.381,19.488
			c-0.582,10.168-9.326,17.962-19.49,17.383C85.01,105.112,77.213,96.37,77.795,86.206z M83.495,86.532
			c-0.4,7.024,4.986,13.061,12.008,13.462c7.021,0.402,13.061-4.983,13.463-12.005c0.402-7.023-4.986-13.064-12.006-13.467
			C89.938,74.123,83.897,79.509,83.495,86.532z"/>
		<path fill="#3D5963" d="M97.584,97.372h-2.613V80.204c-0.219,0.197-0.555,0.463-1.01,0.788c-0.455,0.327-1.127,0.78-2.018,1.358
			v-2.787c0.404-0.197,0.895-0.492,1.469-0.888c0.574-0.392,1.295-0.921,2.17-1.583h2.002V97.372z"/>
	</g>
	<g>
		<g>
			<path fill="#D5D831" d="M118.131,86.206c0.58-10.165,9.324-17.963,19.488-17.381c10.168,0.578,17.959,9.324,17.381,19.488
				c-0.582,10.168-9.324,17.962-19.488,17.383C125.344,105.112,117.549,96.37,118.131,86.206z M123.829,86.532
				c-0.402,7.024,4.986,13.061,12.008,13.462c7.023,0.402,13.064-4.983,13.467-12.005c0.402-7.023-4.988-13.064-12.01-13.467
				C130.272,74.123,124.231,79.509,123.829,86.532z"/>
		</g>
		<path fill="#3D5963" d="M131.127,97.372v-2.588l6.279-8.91c0.598-0.852,1.066-1.678,1.41-2.471
			c0.34-0.798,0.512-1.455,0.512-1.977c0-0.759-0.242-1.365-0.73-1.819c-0.484-0.454-1.129-0.683-1.928-0.683
			c-0.875,0-1.52,0.26-1.93,0.773c-0.41,0.517-0.646,1.363-0.713,2.539h-2.814c0-0.058-0.004-0.15-0.012-0.278
			c-0.012-0.126-0.016-0.22-0.016-0.277c0-1.581,0.473-2.797,1.422-3.645c0.947-0.849,2.314-1.272,4.109-1.272
			c1.637,0,2.912,0.398,3.826,1.193c0.916,0.795,1.369,1.9,1.369,3.312c0,0.975-0.23,2.039-0.695,3.189
			c-0.465,1.152-1.174,2.418-2.121,3.802l-4.881,6.694h7.787v2.416H131.127z"/>
	</g>
</g>
</svg>
