<?xml version="1.0" encoding="utf-8"?>
<!-- Generator: Adobe Illustrator 16.0.0, SVG Export Plug-In . SVG Version: 6.00 Build 0)  -->
<!DOCTYPE svg PUBLIC "-//W3C//DTD SVG 1.1//EN" "http://www.w3.org/Graphics/SVG/1.1/DTD/svg11.dtd">
<svg version="1.1" id="Capa_1" xmlns="http://www.w3.org/2000/svg" xmlns:xlink="http://www.w3.org/1999/xlink" x="0px" y="0px"
	 width="192.652px" height="330.032px" viewBox="0 0 192.652 330.032" enable-background="new 0 0 192.652 330.032"
	 xml:space="preserve">
<g>
	<path fill="#F2961C" d="M166.737,68.301c6.917,0,12.525,6.244,12.525,13.945v9.379c0,7.701-5.608,43.28-12.525,43.28h-1.575
		c-6.917,0-12.525-6.241-12.525-13.94V82.246c0-7.701,5.608-13.945,12.525-13.945H166.737L166.737,68.301z"/>
	<g>
		<path fill="#FFFFFF" d="M159.042,87.465c0-3.429,0-6.86,0-10.288c0.02-0.041,0.047-0.079,0.055-0.122
			c0.219-1.362,1.371-2.387,2.762-2.392c3.236-0.018,6.472-0.019,9.705,0c1.537,0.009,2.795,1.265,2.804,2.802
			c0.018,3.236,0.012,6.471,0,9.704c-0.002,0.703-0.255,1.322-0.732,1.853c-0.482,0.538-1.09,0.823-1.781,0.965
			c-3.43,0-6.858,0-10.289,0c-0.541-0.123-1.051-0.303-1.485-0.674C159.5,88.821,159.184,88.194,159.042,87.465z M166.708,87.452
			c1.522,0,3.043,0,4.563-0.003c0.455,0,0.562-0.106,0.562-0.558c0.004-3.041,0.004-6.084,0-9.126c0-0.469-0.104-0.573-0.582-0.573
			c-3.031-0.001-6.062-0.001-9.092,0c-0.476,0-0.58,0.104-0.58,0.575c-0.002,3.03-0.002,6.062,0,9.093c0,0.491,0.1,0.589,0.6,0.589
			C163.69,87.452,165.198,87.452,166.708,87.452z"/>
		<path fill="#FFFFFF" d="M166.733,79.767c1.021,0,2.041,0.001,3.062-0.003c0.281,0,0.512,0.068,0.658,0.327
			c0.155,0.276,0.088,0.513-0.084,0.753c-1.039,1.444-2.07,2.895-3.109,4.339c-0.324,0.453-0.787,0.445-1.117-0.011
			c-1.029-1.436-2.055-2.878-3.086-4.312c-0.172-0.237-0.26-0.473-0.104-0.754c0.147-0.273,0.391-0.345,0.684-0.342
			C164.667,79.771,165.7,79.767,166.733,79.767z"/>
	</g>
	<polygon fill="#2C5A67" points="192.432,277.254 51.818,284.022 27.582,330.032 180.94,326.543 182.069,321.715 	"/>
	<polygon fill="#F2961C" points="192.653,277.09 52.072,284.534 23.32,241.202 176.249,229.211 177.86,233.903 	"/>
	<polygon fill="#F2961C" points="8.039,192.67 148.684,186.551 173.131,140.656 19.76,143.435 18.607,148.259 	"/>
	<polygon fill="#2C5A67" points="7.816,192.833 148.432,186.042 176.983,229.504 24,240.79 22.41,236.09 	"/>
	<polygon fill="#2C5A67" points="184.616,91.214 44,97.983 19.764,143.992 173.124,140.503 174.252,135.674 	"/>
	<g>
		<path fill="#FFFFFF" d="M140.127,105.825c-0.1-0.071-0.26-0.106-0.481-0.106H139.2v0.914h0.445c0.223,0,0.375-0.04,0.477-0.114
			c0.113-0.074,0.158-0.19,0.158-0.351C140.28,106.014,140.235,105.901,140.127,105.825z M140.127,105.825
			c-0.1-0.071-0.26-0.106-0.481-0.106H139.2v0.914h0.445c0.223,0,0.375-0.04,0.477-0.114c0.113-0.074,0.158-0.19,0.158-0.351
			C140.28,106.014,140.235,105.901,140.127,105.825z M140.127,105.825c-0.1-0.071-0.26-0.106-0.481-0.106H139.2v0.914h0.445
			c0.223,0,0.375-0.04,0.477-0.114c0.113-0.074,0.158-0.19,0.158-0.351C140.28,106.014,140.235,105.901,140.127,105.825z
			 M144.108,105.987c-0.189-0.172-0.488-0.261-0.902-0.261h-0.359v2.163h0.359c0.414,0,0.719-0.088,0.902-0.254
			c0.18-0.167,0.274-0.444,0.274-0.822C144.383,106.43,144.287,106.157,144.108,105.987z M140.127,105.825
			c-0.1-0.071-0.26-0.106-0.481-0.106H139.2v0.914h0.445c0.223,0,0.375-0.04,0.477-0.114c0.113-0.074,0.158-0.19,0.158-0.351
			C140.28,106.014,140.235,105.901,140.127,105.825z M144.108,105.987c-0.189-0.172-0.488-0.261-0.902-0.261h-0.359v2.163h0.359
			c0.414,0,0.719-0.088,0.902-0.254c0.18-0.167,0.274-0.444,0.274-0.822C144.383,106.43,144.287,106.157,144.108,105.987z
			 M157.187,101.603h-20.791c-0.92,0-1.664,0.708-1.664,1.582v25.44c0,0.875,0.744,1.583,1.664,1.583h9.212l-0.608-0.699h-6.655
			c-0.913,0-1.659-0.709-1.659-1.585v-16.319h20.467v16.319c0,0.876-0.738,1.585-1.66,1.585h-0.938l-0.557,0.699h3.189
			c0.92,0,1.657-0.709,1.657-1.583v-25.44C158.844,102.311,158.107,101.603,157.187,101.603z M140.944,107.017
			c-0.242,0.2-0.58,0.299-1.017,0.299h-0.729v1.233h-1.014v-3.477h1.674c0.471,0,0.838,0.095,1.078,0.282
			c0.248,0.188,0.366,0.465,0.366,0.827C141.306,106.538,141.187,106.817,140.944,107.017z M144.901,108.119
			c-0.354,0.286-0.885,0.43-1.597,0.43h-1.475v-3.477h1.475c0.712,0,1.242,0.147,1.597,0.433c0.354,0.292,0.528,0.727,0.528,1.308
			C145.431,107.394,145.256,107.827,144.901,108.119z M148.588,105.735h-1.553v0.809h1.439v0.656h-1.439v1.35h-1.012v-3.477h2.563
			L148.588,105.735L148.588,105.735z M143.205,105.726h-0.359v2.163h0.359c0.414,0,0.719-0.088,0.902-0.254
			c0.18-0.167,0.274-0.444,0.274-0.822c0-0.383-0.096-0.656-0.274-0.826C143.918,105.814,143.619,105.726,143.205,105.726z
			 M140.127,105.825c-0.1-0.071-0.26-0.106-0.481-0.106H139.2v0.914h0.445c0.223,0,0.375-0.04,0.477-0.114
			c0.113-0.074,0.158-0.19,0.158-0.351C140.28,106.014,140.235,105.901,140.127,105.825z M144.108,105.987
			c-0.189-0.172-0.488-0.261-0.902-0.261h-0.359v2.163h0.359c0.414,0,0.719-0.088,0.902-0.254c0.18-0.167,0.274-0.444,0.274-0.822
			C144.383,106.43,144.287,106.157,144.108,105.987z M140.127,105.825c-0.1-0.071-0.26-0.106-0.481-0.106H139.2v0.914h0.445
			c0.223,0,0.375-0.04,0.477-0.114c0.113-0.074,0.158-0.19,0.158-0.351C140.28,106.014,140.235,105.901,140.127,105.825z
			 M144.108,105.987c-0.189-0.172-0.488-0.261-0.902-0.261h-0.359v2.163h0.359c0.414,0,0.719-0.088,0.902-0.254
			c0.18-0.167,0.274-0.444,0.274-0.822C144.383,106.43,144.287,106.157,144.108,105.987z M140.127,105.825
			c-0.1-0.071-0.26-0.106-0.481-0.106H139.2v0.914h0.445c0.223,0,0.375-0.04,0.477-0.114c0.113-0.074,0.158-0.19,0.158-0.351
			C140.28,106.014,140.235,105.901,140.127,105.825z"/>
		<polygon fill="#FFFFFF" points="144.771,127.694 149.877,133.603 154.612,127.694 152.269,127.694 152.265,126.254 
			147.34,126.254 147.358,127.694 		"/>
		<path fill="#FFFFFF" d="M152.25,124.808c0,0.209-0.18,0.385-0.401,0.385h-3.982c-0.225,0-0.41-0.176-0.41-0.385l0,0
			c0-0.215,0.187-0.386,0.41-0.386h3.982C152.071,124.422,152.25,124.593,152.25,124.808L152.25,124.808z"/>
		<path fill="#FFFFFF" d="M152.25,123.251c0,0.235-0.197,0.428-0.447,0.428h-3.899c-0.244,0-0.447-0.193-0.447-0.428l0,0
			c0-0.235,0.203-0.424,0.447-0.424h3.899C152.053,122.827,152.25,123.016,152.25,123.251L152.25,123.251z"/>
	</g>
	<g>
		<path fill="#FFFFFF" d="M53.63,114.412h-2.979v-9.401h2.636c0.925,0,1.622,0.064,2.084,0.192c0.457,0.123,0.879,0.33,1.245,0.62
			c0.527,0.416,0.928,0.971,1.212,1.659c0.282,0.688,0.42,1.477,0.42,2.361c0,0.711-0.099,1.377-0.3,1.974
			c-0.205,0.595-0.486,1.096-0.855,1.489c-0.391,0.399-0.832,0.68-1.348,0.849C55.24,114.327,54.531,114.412,53.63,114.412z
			 M53.913,113.291c1.007,0,1.761-0.287,2.265-0.862c0.505-0.571,0.753-1.435,0.753-2.586c0-1.216-0.279-2.157-0.835-2.815
			c-0.561-0.654-1.362-0.982-2.401-0.982h-1.782v7.246L53.913,113.291L53.913,113.291z"/>
		<path fill="#FFFFFF" d="M65.339,112.308c0,0.683-0.248,1.229-0.729,1.644c-0.479,0.416-1.121,0.624-1.91,0.624
			c-1.021,0-1.795-0.283-2.322-0.845c-0.524-0.561-0.789-1.378-0.789-2.462c0-1.155,0.258-2.035,0.775-2.649
			c0.52-0.611,1.27-0.917,2.236-0.917c0.889,0,1.588,0.256,2.098,0.76c0.511,0.508,0.77,1.203,0.77,2.078
			c0,0.21-0.004,0.373-0.015,0.483c0,0.11-0.011,0.209-0.017,0.311h-4.644v0.13v0.261c0,0.617,0.158,1.097,0.479,1.435
			c0.317,0.339,0.765,0.505,1.346,0.505c0.482,0,0.865-0.118,1.146-0.363c0.285-0.248,0.431-0.573,0.437-0.995H65.339z
			 M60.854,110.486h3.381v-0.145c0-0.546-0.146-0.98-0.449-1.317c-0.301-0.331-0.689-0.501-1.168-0.501
			c-0.518,0-0.941,0.182-1.268,0.543C61.022,109.427,60.854,109.904,60.854,110.486z"/>
		<path fill="#FFFFFF" d="M66.661,112.442h1.209v0.027c0,0.357,0.129,0.644,0.384,0.861c0.25,0.219,0.586,0.323,1.008,0.323
			c0.406,0,0.735-0.093,0.992-0.289c0.248-0.19,0.377-0.437,0.377-0.738c0-0.231-0.062-0.416-0.192-0.555
			c-0.129-0.142-0.328-0.239-0.597-0.309l-1.391-0.326c-0.588-0.136-1.025-0.347-1.311-0.628c-0.285-0.285-0.429-0.646-0.429-1.077
			c0-0.602,0.239-1.086,0.728-1.458c0.489-0.365,1.129-0.556,1.928-0.556c0.732,0,1.312,0.156,1.73,0.461
			c0.432,0.31,0.641,0.73,0.641,1.263c0,0.052,0,0.093,0,0.121c0,0.025-0.012,0.055-0.012,0.075H70.52v-0.056
			c0-0.31-0.104-0.565-0.334-0.74c-0.22-0.183-0.524-0.278-0.91-0.278c-0.383,0-0.689,0.095-0.938,0.278
			c-0.246,0.175-0.369,0.403-0.369,0.678c0,0.216,0.072,0.386,0.222,0.514c0.147,0.129,0.396,0.241,0.737,0.334l1.494,0.406
			c0.513,0.136,0.894,0.354,1.144,0.645c0.248,0.282,0.364,0.654,0.364,1.119c0,0.62-0.231,1.112-0.704,1.481
			c-0.474,0.37-1.107,0.559-1.912,0.559c-0.914,0-1.584-0.164-2.011-0.482c-0.428-0.319-0.642-0.818-0.642-1.497L66.661,112.442
			L66.661,112.442z"/>
		<path fill="#FFFFFF" d="M78.63,112.21c-0.055,0.766-0.297,1.347-0.729,1.754c-0.442,0.405-1.053,0.611-1.828,0.611
			c-0.928,0-1.646-0.288-2.154-0.859c-0.505-0.571-0.76-1.384-0.76-2.444c0-1.12,0.268-1.995,0.796-2.628
			c0.53-0.629,1.263-0.942,2.212-0.942c0.73,0,1.316,0.205,1.752,0.598c0.441,0.397,0.658,0.93,0.658,1.595v0.024h-1.176
			c0-0.387-0.127-0.717-0.377-0.975c-0.258-0.267-0.574-0.394-0.951-0.394c-0.508,0-0.918,0.219-1.213,0.651
			c-0.299,0.438-0.443,1.034-0.443,1.787c0,0.881,0.137,1.546,0.408,1.993c0.281,0.448,0.688,0.671,1.223,0.671
			c0.422,0,0.759-0.13,1.011-0.389c0.262-0.261,0.391-0.616,0.401-1.053H78.63z"/>
		<path fill="#FFFFFF" d="M85.315,114.412h-1.082c-0.045-0.135-0.09-0.463-0.129-0.994v-0.038c-0.164,0.387-0.427,0.683-0.789,0.887
			c-0.358,0.202-0.795,0.308-1.312,0.308c-0.668,0-1.192-0.179-1.594-0.544c-0.398-0.363-0.602-0.838-0.602-1.436
			c0-0.695,0.276-1.238,0.829-1.648c0.554-0.408,1.308-0.607,2.265-0.607h1.133v-0.797c0-0.348-0.1-0.617-0.325-0.798
			c-0.216-0.184-0.539-0.272-0.966-0.272c-0.4,0-0.721,0.101-0.956,0.299c-0.239,0.198-0.356,0.471-0.373,0.824h-1.159v-0.104
			c0-0.574,0.207-1.019,0.618-1.328c0.416-0.31,1.013-0.462,1.791-0.462c0.903,0,1.562,0.163,1.972,0.479
			c0.406,0.325,0.617,0.843,0.617,1.56v4.047c0,0.056,0.006,0.136,0.013,0.254C85.281,114.153,85.291,114.277,85.315,114.412z
			 M84.033,111.162h-1.01c-0.629,0-1.112,0.12-1.457,0.349c-0.344,0.23-0.515,0.555-0.515,0.971c0,0.318,0.115,0.587,0.349,0.793
			c0.229,0.212,0.528,0.316,0.886,0.316c0.563,0,0.995-0.152,1.304-0.454c0.302-0.301,0.443-0.743,0.443-1.323V111.162z"/>
		<path fill="#FFFFFF" d="M87.194,114.412v-5.521c0-0.212-0.002-0.401-0.008-0.559c-0.009-0.155-0.019-0.312-0.035-0.467h1.217
			l0.023,1.25c0.12-0.41,0.332-0.728,0.643-0.938c0.307-0.212,0.709-0.312,1.201-0.312c0.086,0,0.174,0.002,0.258,0.009
			c0.082,0.004,0.164,0.017,0.238,0.033v1.133c-0.129-0.028-0.25-0.049-0.363-0.064c-0.107-0.01-0.209-0.018-0.293-0.018
			c-0.538,0-0.954,0.15-1.248,0.458c-0.285,0.305-0.436,0.744-0.436,1.313v3.682L87.194,114.412L87.194,114.412z"/>
		<path fill="#FFFFFF" d="M96.485,113.17c-0.127,0.26-0.379,0.48-0.756,0.67c-0.379,0.182-0.777,0.277-1.187,0.277
			c-0.926,0-1.632-0.274-2.121-0.826c-0.498-0.55-0.739-1.34-0.739-2.378c0-0.974,0.247-1.755,0.758-2.33
			c0.502-0.579,1.181-0.867,2.037-0.867c0.508,0,0.937,0.078,1.284,0.242c0.347,0.157,0.619,0.396,0.812,0.715l0.047-0.808h1.137
			c-0.018,0.184-0.032,0.367-0.039,0.546c-0.011,0.177-0.015,0.385-0.015,0.613v5.178c0,0.978-0.241,1.693-0.729,2.134
			c-0.488,0.452-1.261,0.678-2.316,0.678c-0.918,0-1.586-0.18-2.008-0.525c-0.418-0.352-0.633-0.907-0.64-1.668h1.306
			c0.004,0.437,0.131,0.768,0.379,0.994c0.246,0.23,0.613,0.347,1.088,0.347c0.578,0,1.007-0.145,1.285-0.43
			c0.281-0.285,0.418-0.729,0.418-1.331L96.485,113.17L96.485,113.17z M96.63,110.85c0-0.703-0.168-1.27-0.504-1.684
			c-0.339-0.42-0.791-0.633-1.346-0.633c-0.564,0-1.006,0.23-1.336,0.678c-0.334,0.454-0.498,1.066-0.498,1.84
			c0,0.706,0.173,1.266,0.509,1.683c0.329,0.413,0.776,0.624,1.347,0.624c0.554,0,0.994-0.226,1.33-0.674
			C96.466,112.231,96.63,111.625,96.63,110.85z"/>
		<path fill="#FFFFFF" d="M104.809,114.412h-1.082c-0.039-0.135-0.082-0.463-0.129-0.994v-0.038
			c-0.166,0.387-0.427,0.683-0.787,0.887c-0.358,0.202-0.798,0.308-1.315,0.308c-0.664,0-1.194-0.179-1.591-0.544
			c-0.402-0.363-0.604-0.838-0.604-1.436c0-0.695,0.283-1.238,0.83-1.648c0.554-0.408,1.304-0.607,2.267-0.607h1.139v-0.797
			c0-0.348-0.113-0.617-0.331-0.798c-0.22-0.184-0.536-0.272-0.962-0.272c-0.404,0-0.729,0.101-0.967,0.299
			c-0.234,0.198-0.355,0.471-0.369,0.824h-1.152v-0.104c0-0.574,0.202-1.019,0.616-1.328c0.415-0.31,1.013-0.462,1.786-0.462
			c0.902,0,1.562,0.163,1.977,0.479c0.41,0.325,0.612,0.843,0.612,1.56v4.047c0,0.056,0.009,0.136,0.015,0.254
			C104.77,114.153,104.786,114.277,104.809,114.412z M103.535,111.162h-1.021c-0.623,0-1.113,0.12-1.449,0.349
			c-0.349,0.23-0.521,0.555-0.521,0.971c0,0.318,0.116,0.587,0.354,0.793c0.233,0.212,0.526,0.316,0.883,0.316
			c0.566,0,1-0.152,1.299-0.454c0.305-0.301,0.455-0.743,0.455-1.323L103.535,111.162L103.535,111.162z"/>
		<path fill="#FFFFFF" d="M106.694,114.412v-5.521c0-0.212-0.006-0.401-0.017-0.559c-0.006-0.155-0.015-0.312-0.026-0.467h1.213
			l0.02,1.25c0.123-0.41,0.336-0.728,0.644-0.938c0.311-0.212,0.713-0.312,1.203-0.312c0.09,0,0.172,0.002,0.256,0.009
			c0.084,0.004,0.16,0.017,0.24,0.033v1.133c-0.136-0.028-0.255-0.049-0.365-0.064c-0.105-0.01-0.205-0.018-0.291-0.018
			c-0.539,0-0.955,0.15-1.246,0.458c-0.291,0.305-0.439,0.744-0.439,1.313v3.682L106.694,114.412L106.694,114.412z"/>
		<path fill="#FFFFFF" d="M69.091,126.197v-8.876h3.095c0.971,0,1.694,0.204,2.174,0.606c0.477,0.413,0.715,1.021,0.715,1.836
			c0,0.873-0.279,1.516-0.832,1.929c-0.562,0.406-1.439,0.613-2.639,0.613h-1.328v3.892H69.091z M71.989,121.207
			c0.656,0,1.125-0.112,1.41-0.332c0.28-0.226,0.422-0.586,0.422-1.084c0-0.518-0.137-0.89-0.42-1.112
			c-0.281-0.219-0.75-0.334-1.412-0.334h-1.713v2.862H71.989z"/>
		<path fill="#FFFFFF" d="M79.331,126.197h-2.81v-8.876h2.487c0.869,0,1.523,0.062,1.964,0.184c0.434,0.113,0.827,0.311,1.174,0.583
			c0.5,0.395,0.879,0.917,1.142,1.568c0.271,0.648,0.401,1.394,0.401,2.226c0,0.673-0.097,1.298-0.289,1.862
			c-0.187,0.566-0.455,1.034-0.806,1.403c-0.362,0.375-0.784,0.647-1.269,0.805C80.852,126.115,80.182,126.197,79.331,126.197z
			 M79.6,125.133c0.948,0,1.661-0.27,2.133-0.809c0.479-0.541,0.711-1.353,0.711-2.443c0-1.15-0.262-2.036-0.785-2.656
			c-0.531-0.616-1.288-0.927-2.268-0.927h-1.686v6.835H79.6z"/>
		<path fill="#FFFFFF" d="M85.36,126.197v-8.876h5.162v1.069h-3.978v2.719h3.767v1.056h-3.767v4.033L85.36,126.197L85.36,126.197z"
			/>
	</g>
	<g>
		<g>
			<path fill="#FFFFFF" d="M67.463,258.838c-0.021,0.805-0.334,1.438-0.924,1.908c-0.605,0.471-1.406,0.705-2.418,0.705
				c-1.234,0-2.179-0.402-2.822-1.197c-0.65-0.801-0.975-1.957-0.975-3.469c0-1.516,0.34-2.688,1.02-3.511
				c0.68-0.83,1.648-1.246,2.895-1.246c0.982,0,1.755,0.226,2.322,0.677c0.558,0.447,0.857,1.068,0.877,1.857h-1.293
				c-0.043-0.471-0.252-0.844-0.623-1.135c-0.371-0.289-0.83-0.432-1.399-0.432c-0.785,0-1.398,0.328-1.832,0.985
				c-0.441,0.659-0.66,1.578-0.66,2.767c0,1.164,0.219,2.061,0.647,2.696c0.433,0.636,1.048,0.958,1.845,0.958
				c0.575,0,1.039-0.14,1.393-0.415c0.351-0.28,0.543-0.663,0.587-1.149H67.463L67.463,258.838z"/>
			<path fill="#FFFFFF" d="M68.967,261.299v-5.364c0-0.207,0-0.394-0.008-0.545c-0.002-0.149-0.017-0.304-0.021-0.453h1.172
				l0.021,1.215c0.117-0.399,0.322-0.704,0.629-0.911c0.291-0.207,0.684-0.304,1.162-0.304c0.086,0,0.17,0,0.248,0.006
				c0.084,0.007,0.16,0.017,0.231,0.032v1.1c-0.127-0.023-0.239-0.045-0.352-0.056c-0.107-0.015-0.2-0.021-0.284-0.021
				c-0.527,0-0.927,0.147-1.208,0.449c-0.281,0.291-0.428,0.717-0.428,1.272v3.579H68.967L68.967,261.299z"/>
			<path fill="#FFFFFF" d="M78.918,259.254c-0.004,0.66-0.238,1.191-0.707,1.591c-0.474,0.405-1.09,0.606-1.863,0.606
				c-0.984,0-1.74-0.271-2.252-0.818c-0.512-0.549-0.764-1.34-0.764-2.393c0-1.125,0.252-1.977,0.752-2.572
				c0.506-0.59,1.231-0.889,2.17-0.889c0.865,0,1.545,0.24,2.039,0.738c0.496,0.497,0.737,1.164,0.737,2.016
				c0,0.205,0,0.361-0.004,0.473c-0.004,0.104-0.01,0.203-0.018,0.303h-4.508v0.12v0.256c0,0.606,0.149,1.069,0.459,1.394
				c0.306,0.332,0.744,0.494,1.315,0.494c0.463,0,0.838-0.117,1.105-0.357c0.279-0.234,0.416-0.555,0.432-0.961H78.918
				L78.918,259.254z M74.561,257.481h3.281v-0.143c0-0.527-0.148-0.953-0.437-1.28c-0.29-0.321-0.674-0.479-1.129-0.479
				c-0.508,0-0.92,0.176-1.241,0.525C74.719,256.45,74.561,256.915,74.561,257.481z M75.311,254.097l1.26-2.154h1.246l-1.764,2.154
				H75.311z"/>
			<path fill="#FFFFFF" d="M85.221,261.299l-0.053-0.94c-0.293,0.386-0.603,0.666-0.926,0.839c-0.316,0.168-0.693,0.256-1.113,0.256
				c-0.873,0-1.564-0.297-2.07-0.881c-0.51-0.582-0.764-1.388-0.764-2.406c0-1.049,0.244-1.861,0.742-2.445
				c0.496-0.592,1.176-0.887,2.055-0.887c0.43,0,0.826,0.088,1.175,0.266c0.356,0.184,0.655,0.451,0.901,0.797v-3.732h1.168v7.867
				c0,0.225,0.006,0.436,0.018,0.643c0.015,0.212,0.027,0.414,0.058,0.627h-1.19V261.299z M81.52,258.038
				c0,0.811,0.164,1.457,0.5,1.928c0.33,0.474,0.771,0.711,1.312,0.711c0.563,0,1.008-0.221,1.342-0.66
				c0.332-0.438,0.496-1.025,0.496-1.775c0-0.809-0.16-1.453-0.492-1.927c-0.332-0.472-0.77-0.716-1.314-0.716
				c-0.559,0-1.006,0.224-1.338,0.66C81.684,256.704,81.52,257.295,81.52,258.038z"/>
			<path fill="#FFFFFF" d="M89.584,253.463h-1.375v-1.301h1.375V253.463z M88.316,261.299v-6.362h1.172v6.362H88.316z"/>
			<path fill="#FFFFFF" d="M90.607,254.937h1.082v-1.312l1.164-0.396v1.707h1.418v0.836h-1.418v3.903
				c0,0.328,0.058,0.548,0.16,0.652c0.113,0.104,0.331,0.158,0.65,0.158c0.086,0,0.17-0.01,0.264-0.021
				c0.1-0.02,0.203-0.033,0.318-0.062v0.88c-0.191,0.049-0.365,0.086-0.519,0.109c-0.149,0.031-0.289,0.045-0.401,0.045
				c-0.604,0-1.019-0.1-1.269-0.309c-0.246-0.207-0.369-0.551-0.369-1.045v-4.312h-1.082L90.607,254.937L90.607,254.937z"/>
			<path fill="#FFFFFF" d="M95.158,258.241c0-1.068,0.278-1.908,0.85-2.521c0.567-0.621,1.336-0.928,2.317-0.928
				c0.989,0,1.762,0.287,2.309,0.863c0.551,0.573,0.824,1.381,0.824,2.407c0,1.071-0.281,1.901-0.854,2.494
				c-0.561,0.598-1.358,0.896-2.391,0.896c-0.941,0-1.693-0.289-2.241-0.859C95.43,260.016,95.158,259.229,95.158,258.241z
				 M98.325,255.635c-0.605,0-1.08,0.228-1.437,0.682c-0.35,0.456-0.528,1.077-0.528,1.857c0,0.767,0.167,1.347,0.511,1.765
				c0.336,0.412,0.815,0.619,1.428,0.619c0.615,0,1.096-0.218,1.443-0.653c0.354-0.443,0.526-1.05,0.526-1.83
				c0-0.771-0.168-1.369-0.51-1.799C99.42,255.842,98.942,255.635,98.325,255.635z"/>
			<path fill="#FFFFFF" d="M102.655,259.383h1.177v0.021c0,0.35,0.119,0.627,0.367,0.838c0.243,0.211,0.573,0.314,0.983,0.314
				c0.394,0,0.715-0.09,0.963-0.279c0.244-0.181,0.367-0.424,0.367-0.721c0-0.225-0.064-0.402-0.189-0.531
				c-0.125-0.137-0.319-0.244-0.579-0.301l-1.353-0.32c-0.568-0.133-0.994-0.338-1.272-0.611c-0.275-0.274-0.416-0.623-0.416-1.045
				c0-0.582,0.235-1.057,0.709-1.416c0.477-0.363,1.096-0.539,1.866-0.539c0.711,0,1.279,0.148,1.691,0.445
				c0.412,0.299,0.615,0.711,0.615,1.229c0,0.05,0,0.095,0,0.115c0,0.029-0.004,0.051-0.01,0.07h-1.169v-0.051
				c0-0.301-0.106-0.547-0.325-0.725c-0.218-0.172-0.517-0.262-0.89-0.262c-0.369,0-0.672,0.09-0.912,0.262
				c-0.235,0.178-0.354,0.402-0.354,0.662c0,0.215,0.063,0.375,0.211,0.5c0.146,0.131,0.387,0.237,0.717,0.322l1.447,0.396
				c0.504,0.131,0.873,0.338,1.113,0.619c0.241,0.279,0.358,0.646,0.358,1.088c0,0.609-0.229,1.084-0.69,1.443
				c-0.457,0.359-1.076,0.541-1.855,0.541c-0.887,0-1.537-0.152-1.951-0.465c-0.416-0.311-0.621-0.793-0.621-1.454L102.655,259.383
				L102.655,259.383z"/>
		</g>
	</g>
	<g>
		<path fill="#FFFFFF" d="M150.413,259.448c-0.812,0.508-1.648,0.59-2.474,0.174c-0.346-0.174-0.657-0.322-1.051-0.395
			c-0.832-0.146-1.611-1.055-1.695-1.887c-0.014-0.182,0.084-0.385,0.029-0.547c-0.057-0.158-0.26-0.26-0.359-0.414
			c-0.403-0.644-0.331-1.83,0.277-2.334c0.045-0.03,0.058-0.129,0.049-0.195c-0.108-0.76,0.08-1.412,0.67-1.921
			c0.146-0.118,0.377-0.164,0.474-0.306c0.096-0.14,0.047-0.365,0.102-0.541c0.193-0.588,0.566-1.006,1.183-1.184
			c0.057-0.018,0.137-0.062,0.155-0.115c0.338-0.955,1.851-1.166,2.568-0.414c0.016,0.018,0.031,0.028,0.057,0.049
			c0.435-0.435,0.957-0.58,1.556-0.465c0.489,0.092,0.86,0.346,1.067,0.812c0.023,0.056,0.074,0.11,0.127,0.125
			c0.865,0.263,1.252,0.88,1.308,1.745c0,0.01,0.004,0.014,0.006,0.021c0.92,0.461,1.301,1.204,1.145,2.217
			c-0.012,0.058,0.015,0.146,0.058,0.18c0.717,0.59,0.698,2.166-0.037,2.688c-0.033,0.024-0.064,0.094-0.058,0.139
			c0.164,0.824-0.248,1.41-0.815,1.918c-0.375,0.33-0.812,0.535-1.338,0.472c-0.047-0.003-0.117,0.017-0.148,0.053
			c-0.293,0.351-0.688,0.479-1.119,0.523C151.526,259.904,150.922,259.847,150.413,259.448z M150.657,256.069
			c0,0.861,0,1.744,0,2.625c0,0.316,0.106,0.487,0.399,0.59c0.437,0.16,0.879,0.148,1.318,0.049
			c0.094-0.021,0.186-0.082,0.262-0.143c0.406-0.324,0.572-1.125,0.338-1.584c-0.129-0.254-0.447-0.416-0.697-0.357
			c-0.276,0.067-0.455,0.312-0.455,0.627c-0.004,0.064,0,0.125,0,0.195c-0.166,0.039-0.307,0.074-0.45,0.113
			c-0.256-0.637,0.248-1.426,0.92-1.462c0.77-0.04,1.35,0.594,1.289,1.413c-0.017,0.201-0.054,0.406-0.086,0.63
			c0.59-0.002,0.973-0.333,1.286-0.745c0.236-0.307,0.402-0.645,0.267-1.049c-0.137,0-0.26,0.006-0.383,0
			c-1.017-0.021-1.513-0.771-1.127-1.711c0.088-0.205,0.217-0.4,0.344-0.594c0.229-0.351,0.115-0.728-0.279-0.867
			c-0.102-0.034-0.207-0.059-0.313-0.076c-0.289-0.043-0.529,0.076-0.601,0.359c-0.062,0.229-0.084,0.481-0.053,0.715
			c0.1,0.766-0.354,1.346-1.123,1.359C151.235,256.167,150.963,256.103,150.657,256.069z M148.977,258.067c0-0.062,0-0.102,0-0.143
			c0.008-0.366-0.188-0.637-0.492-0.684c-0.299-0.043-0.623,0.176-0.713,0.5c-0.123,0.475-0.047,0.918,0.252,1.307
			c0.093,0.115,0.238,0.229,0.375,0.27c0.459,0.131,0.922,0.127,1.373-0.049c0.258-0.098,0.375-0.283,0.373-0.564
			c-0.012-0.828-0.004-1.654-0.004-2.479c0-0.061-0.008-0.127-0.012-0.196c-0.133,0.037-0.248,0.073-0.367,0.099
			c-1.021,0.219-1.779-0.408-1.576-1.408c0.033-0.16,0.008-0.34-0.021-0.512c-0.043-0.262-0.195-0.453-0.474-0.483
			c-0.313-0.039-0.614,0.036-0.805,0.305c-0.17,0.237-0.068,0.466,0.068,0.697c0.16,0.271,0.313,0.551,0.397,0.851
			c0.17,0.625-0.139,1.141-0.76,1.311c-0.264,0.074-0.547,0.078-0.855,0.113c-0.135,0.451,0.097,0.824,0.388,1.153
			c0.307,0.351,0.66,0.63,1.178,0.604c-0.033-0.239-0.072-0.452-0.086-0.67c-0.039-0.69,0.354-1.215,1.01-1.346
			c0.394-0.076,0.732,0.032,0.984,0.344c0.26,0.32,0.338,0.685,0.235,1.104C149.282,258.146,149.131,258.106,148.977,258.067z
			 M145.913,254.254c-0.666,0.318-0.834,0.611-0.777,1.338c0.053,0.625,0.424,0.929,1.041,0.855c0.564-0.068,0.814-0.453,0.609-0.98
			c-0.086-0.215-0.23-0.411-0.357-0.606c-0.293-0.45-0.248-0.92,0.152-1.28c0.34-0.312,0.748-0.402,1.198-0.334
			c0.064,0.012,0.146,0.022,0.203-0.002c0.279-0.14,0.545-0.297,0.83-0.43c0.5-0.23,0.679-0.712,0.373-1.169
			c-0.112-0.17-0.322-0.308-0.521-0.38c-0.438-0.165-0.851-0.325-0.951-0.859c-0.467,0.149-0.771,0.426-0.836,0.893
			c-0.072,0.498,0.184,0.834,0.627,1.061c-0.066,0.154-0.129,0.301-0.219,0.516c-0.295-0.24-0.558-0.457-0.836-0.687
			C145.749,252.379,145.514,253.2,145.913,254.254z M153.094,250.431c-0.205,0.493-0.307,0.592-0.836,0.782
			c-0.088,0.029-0.176,0.062-0.26,0.099c-0.308,0.118-0.459,0.354-0.515,0.666c-0.069,0.394,0.146,0.692,0.576,0.864
			c0.236,0.099,0.457,0.23,0.688,0.339c0.084,0.036,0.184,0.075,0.266,0.063c0.453-0.068,0.857,0.023,1.205,0.33
			c0.377,0.332,0.445,0.818,0.178,1.242c-0.084,0.135-0.205,0.252-0.262,0.395c-0.086,0.207-0.172,0.431-0.178,0.652
			c-0.006,0.293,0.217,0.494,0.528,0.559c0.476,0.101,0.839-0.014,1.019-0.317c0.404-0.688,0.158-1.479-0.562-1.817
			c-0.018-0.006-0.03-0.021-0.03-0.021c0.059-0.266,0.137-0.508,0.17-0.76c0.071-0.57-0.185-1.08-0.604-1.277
			c-0.123-0.059-0.199-0.061-0.285,0.066c-0.17,0.248-0.409,0.41-0.707,0.522c-0.063-0.164-0.129-0.312-0.188-0.452
			c0.504-0.301,0.703-0.666,0.625-1.105C153.844,250.842,153.51,250.506,153.094,250.431z M152.399,253.532
			c-0.146-0.062-0.276-0.115-0.405-0.174c-0.17-0.078-0.351-0.143-0.5-0.242c-0.416-0.291-0.597-0.699-0.521-1.197
			c0.082-0.508,0.316-0.902,0.854-1.051c0.125-0.033,0.25-0.076,0.364-0.133c0.488-0.234,0.543-0.764,0.101-1.082
			c-0.39-0.283-0.812-0.301-1.24-0.096c-0.26,0.131-0.395,0.352-0.395,0.646c0,1.592-0.007,3.187,0.004,4.779
			c0.002,0.538,0.067,0.596,0.616,0.624c0.041,0.004,0.084,0.004,0.13,0.004c0.557-0.006,0.771-0.271,0.696-0.821
			C152.038,254.345,152.057,253.915,152.399,253.532z M148.387,253.532c0.277,0.279,0.35,0.586,0.332,0.922
			c-0.004,0.142-0.01,0.283-0.029,0.426c-0.059,0.429,0.136,0.697,0.56,0.717c0.246,0.011,0.498-0.049,0.744-0.083
			c0.118-0.019,0.151-0.095,0.151-0.218c-0.004-1.699,0-3.397-0.012-5.096c0-0.171-0.086-0.363-0.193-0.484
			c-0.371-0.422-1.233-0.367-1.582,0.074c-0.25,0.324-0.18,0.713,0.185,0.91c0.162,0.09,0.342,0.141,0.52,0.199
			c0.312,0.105,0.523,0.316,0.65,0.613c0.322,0.773,0.014,1.503-0.771,1.801C148.77,253.381,148.594,253.45,148.387,253.532z"/>
		<path fill="#FFFFFF" d="M158.36,254.45c0,4.459-3.612,8.076-8.077,8.076c-4.464,0-8.08-3.617-8.08-8.076
			c0-4.466,3.616-8.084,8.08-8.084C154.747,246.366,158.36,249.984,158.36,254.45z M160.157,254.45c0-5.457-4.421-9.877-9.875-9.877
			c-5.453,0-9.875,4.42-9.875,9.877c0,4.096,2.491,7.605,6.043,9.102c0.006,0.003,0.963,1.115,1.002,1.919
			c0.039,0.803,0,1.071,0,1.071h5.588c0,0-0.185-0.977,0.27-1.914c0.219-0.447,0.416-0.772,0.57-0.989
			C157.553,262.197,160.157,258.631,160.157,254.45z"/>
		<path fill="#FFFFFF" d="M150.358,269.394c0.722,0,1.451-0.065,2.158,0.028c0.332,0.043,0.849,0.363,0.879,0.609
			c0.039,0.307-0.309,0.687-0.537,0.998c-0.194,0.266-0.479,0.467-0.688,0.725c-0.851,1.048-2.277,1.262-3.351,0.445
			c-0.559-0.428-1.094-0.9-1.565-1.42c-0.168-0.185-0.246-0.641-0.135-0.842c0.141-0.25,0.512-0.49,0.801-0.516
			c0.809-0.068,1.625-0.023,2.438-0.023C150.358,269.397,150.358,269.396,150.358,269.394z"/>
		<path fill="#FFFFFF" d="M150.225,268.674c-0.719,0-1.436,0.011-2.154-0.004c-0.549-0.01-1.022-0.188-1.036-0.828
			c-0.013-0.651,0.444-0.817,1.012-0.815c1.498,0.007,2.998,0.007,4.496,0.001c0.551-0.003,1.014,0.243,0.908,0.786
			c-0.066,0.331-0.543,0.763-0.892,0.819C151.801,268.756,151.006,268.67,150.225,268.674z"/>
		<path fill="#FFFFFF" d="M139.584,250.042c-0.767-0.441-1.385-0.801-2.152-1.246c0.404-0.7,0.773-1.346,1.226-2.131
			c0.756,0.453,1.434,0.857,2.149,1.287C140.391,248.665,140.028,249.286,139.584,250.042z"/>
		<path fill="#FFFFFF" d="M159.866,247.931c0.784-0.449,1.411-0.808,2.161-1.236c0.418,0.688,0.81,1.332,1.269,2.089
			c-0.721,0.428-1.375,0.814-2.135,1.268C160.739,249.358,160.342,248.711,159.866,247.931z"/>
		<path fill="#FFFFFF" d="M142.176,243.157c0.754-0.443,1.369-0.805,2.104-1.238c0.437,0.73,0.82,1.375,1.277,2.144
			c-0.723,0.433-1.365,0.817-2.113,1.267C143.018,244.6,142.635,243.946,142.176,243.157z"/>
		<path fill="#FFFFFF" d="M158.538,243.14c-0.468,0.793-0.838,1.422-1.267,2.147c-0.719-0.41-1.375-0.785-2.11-1.205
			c0.422-0.738,0.78-1.367,1.225-2.143C157.098,242.338,157.752,242.702,158.538,243.14z"/>
		<path fill="#FFFFFF" d="M136.278,253.756c0.752,0,1.468,0,2.273,0c0,0.724,0,1.427,0,2.214c-0.752,0-1.465,0-2.273,0
			C136.278,255.229,136.278,254.528,136.278,253.756z"/>
		<path fill="#FFFFFF" d="M149.286,240.698c0.782,0,1.463,0,2.229,0c0,0.775,0,1.489,0,2.315c-0.703,0-1.414,0-2.229,0
			C149.286,242.306,149.286,241.558,149.286,240.698z"/>
		<path fill="#FFFFFF" d="M162.188,255.938c0-0.719,0-1.389,0-2.154c0.752,0,1.502,0,2.332,0c0,0.699,0,1.369,0,2.154
			C163.768,255.938,163.02,255.938,162.188,255.938z"/>
		<path fill="#FFFFFF" d="M138.645,263.04c-0.432-0.762-0.789-1.387-1.219-2.146c0.713-0.411,1.373-0.79,2.172-1.251
			c0.354,0.762,0.67,1.443,1.031,2.227C139.989,262.247,139.405,262.59,138.645,263.04z"/>
		<path fill="#FFFFFF" d="M162.069,263.013c-0.686-0.388-1.268-0.716-1.969-1.111c0.314-0.752,0.603-1.437,0.959-2.286
			c0.793,0.461,1.474,0.855,2.219,1.288C162.848,261.653,162.473,262.306,162.069,263.013z"/>
	</g>
	<g>
		<g>
			<path fill="#FFFFFF" d="M146.604,207.549c0,1,0,2.002,0,3.002c-0.065,0.402-0.133,0.809-0.192,1.213
				c-1.111,7.203-6.838,11.671-12.232,12.874c-0.736,0.161-1.49,0.271-2.236,0.403c-0.914,0-1.832,0-2.75,0
				c-0.278-0.049-0.562-0.108-0.846-0.147c-6.434-0.906-11.829-5.835-13.315-12.188c-0.169-0.74-0.275-1.494-0.41-2.24
				c0-0.938,0-1.887,0-2.832c0.024-0.057,0.061-0.118,0.071-0.184c0.509-4.684,2.718-8.416,6.396-11.281
				c3.51-2.733,7.553-3.52,11.889-2.951c6.453,0.839,11.781,5.728,13.211,12.066C146.354,206.032,146.461,206.793,146.604,207.549z
				 M130.627,222.083c6.045,0.094,13.11-4.785,13.082-12.908c-0.027-7.383-5.729-13.139-12.99-13.233
				c-7.967-0.099-13.256,6.899-13.211,13.067C117.567,216.155,123.467,222.083,130.627,222.083z"/>
			<path fill="#FFFFFF" d="M128.502,210.495c0.674,0.344,1.311,0.67,1.983,1.006c-0.715,1.289-1.752,2.086-3.149,2.418
				c-2.156,0.502-4.396-0.436-5.291-2.262c-0.666-1.346-0.701-2.781-0.354-4.219c0.302-1.229,1.021-2.145,2.101-2.773
				c1.771-1.043,5.295-0.901,6.653,1.74c-0.704,0.365-1.405,0.733-2.014,1.049c-0.436-0.375-0.772-0.779-1.197-1.018
				c-0.936-0.508-2.1-0.092-2.512,0.885c-0.461,1.088-0.459,2.213-0.031,3.321c0.297,0.755,0.871,1.174,1.679,1.222
				c0.85,0.047,1.516-0.273,1.95-1.025C128.37,210.745,128.42,210.649,128.502,210.495z"/>
			<path fill="#FFFFFF" d="M139.665,206.405c-0.697,0.369-1.381,0.73-2.092,1.109c-0.113-0.17-0.214-0.332-0.328-0.48
				c-0.443-0.591-1.037-0.859-1.771-0.785c-0.77,0.072-1.338,0.463-1.602,1.205c-0.353,1.012-0.369,2.035-0.015,3.057
				c0.283,0.808,0.847,1.297,1.718,1.355c0.879,0.057,1.562-0.291,1.995-1.082c0.041-0.072,0.082-0.146,0.128-0.214
				c0.004-0.014,0.02-0.019,0.062-0.051c0.635,0.313,1.285,0.635,1.971,0.979c-0.729,1.275-1.752,2.123-3.155,2.408
				c-1.843,0.352-3.519,0.018-4.793-1.484c-0.851-1.012-1.054-2.234-1.044-3.508c0.021-1.076,0.242-2.104,0.894-2.983
				c1.059-1.435,2.527-1.964,4.258-1.849c1.514,0.104,2.76,0.681,3.603,1.994C139.551,206.172,139.598,206.268,139.665,206.405z"/>
		</g>
	</g>
	<g>
		<g>
			<path fill="#FFFFFF" d="M48.086,205.329c-0.019,0.803-0.324,1.441-0.922,1.908c-0.603,0.473-1.404,0.717-2.422,0.717
				c-1.23,0-2.181-0.408-2.834-1.211c-0.648-0.801-0.976-1.953-0.976-3.478c0-1.517,0.342-2.688,1.027-3.521
				c0.679-0.826,1.649-1.24,2.901-1.24c0.979,0,1.757,0.223,2.314,0.676c0.574,0.449,0.863,1.068,0.887,1.861h-1.302
				c-0.037-0.467-0.239-0.844-0.61-1.135c-0.373-0.291-0.844-0.438-1.409-0.438c-0.781,0-1.398,0.326-1.839,0.992
				c-0.442,0.656-0.659,1.58-0.659,2.768c0,1.174,0.215,2.07,0.653,2.703c0.433,0.64,1.049,0.958,1.845,0.958
				c0.577,0,1.049-0.138,1.391-0.413c0.354-0.275,0.553-0.66,0.598-1.148H48.086z"/>
			<path fill="#FFFFFF" d="M49.601,207.79v-5.373c0-0.211-0.002-0.387-0.007-0.539c-0.008-0.154-0.016-0.313-0.027-0.467h1.177
				l0.028,1.228c0.115-0.408,0.32-0.712,0.618-0.915c0.302-0.21,0.694-0.312,1.169-0.312c0.092,0,0.174,0.004,0.254,0.012
				c0.084,0.007,0.156,0.019,0.23,0.037v1.097c-0.127-0.033-0.242-0.043-0.353-0.056c-0.11-0.016-0.203-0.021-0.282-0.021
				c-0.527,0-0.933,0.146-1.22,0.449c-0.274,0.293-0.418,0.721-0.418,1.279v3.582H49.601L49.601,207.79z"/>
			<path fill="#FFFFFF" d="M59.568,205.745c0,0.655-0.239,1.195-0.702,1.601c-0.474,0.399-1.102,0.608-1.865,0.608
				c-0.996,0-1.748-0.281-2.26-0.826c-0.515-0.551-0.771-1.344-0.771-2.401c0-1.119,0.255-1.979,0.762-2.574
				c0.508-0.594,1.23-0.894,2.179-0.894c0.855,0,1.541,0.246,2.036,0.742c0.5,0.492,0.746,1.166,0.746,2.021
				c0,0.207-0.002,0.358-0.008,0.472c0,0.104-0.008,0.211-0.018,0.303H55.14v0.119v0.26c0,0.604,0.157,1.07,0.472,1.398
				c0.31,0.327,0.748,0.492,1.312,0.492c0.466,0,0.836-0.118,1.111-0.357c0.276-0.234,0.42-0.559,0.426-0.961h1.106V205.745z
				 M55.205,203.97h3.289v-0.142c0-0.535-0.15-0.957-0.438-1.287c-0.296-0.322-0.668-0.483-1.132-0.483
				c-0.51,0-0.92,0.176-1.243,0.53C55.361,202.937,55.205,203.397,55.205,203.97z"/>
			<path fill="#FFFFFF" d="M66.219,207.79h-1.061c-0.035-0.131-0.082-0.453-0.117-0.965v-0.039c-0.16,0.377-0.42,0.66-0.771,0.861
				c-0.348,0.203-0.771,0.307-1.276,0.307c-0.647,0-1.164-0.18-1.552-0.527c-0.393-0.361-0.586-0.828-0.586-1.401
				c0-0.675,0.271-1.213,0.81-1.604c0.535-0.394,1.271-0.59,2.203-0.59h1.105v-0.779c0-0.342-0.103-0.604-0.314-0.775
				c-0.218-0.177-0.527-0.266-0.943-0.266c-0.389,0-0.702,0.1-0.93,0.291c-0.231,0.199-0.353,0.466-0.363,0.797h-1.135v-0.094
				c0-0.57,0.203-0.994,0.608-1.295c0.404-0.301,0.984-0.449,1.741-0.449c0.877,0,1.52,0.154,1.921,0.464
				c0.4,0.315,0.601,0.819,0.601,1.521v3.939c0,0.055,0.006,0.135,0.012,0.242C66.179,207.538,66.195,207.659,66.219,207.79z
				 M64.974,204.625h-0.98c-0.615,0-1.084,0.111-1.425,0.342c-0.332,0.221-0.5,0.535-0.5,0.941c0,0.313,0.119,0.57,0.341,0.772
				c0.227,0.206,0.518,0.308,0.86,0.308c0.554,0,0.972-0.152,1.271-0.441c0.289-0.293,0.435-0.723,0.435-1.289L64.974,204.625
				L64.974,204.625z"/>
			<path fill="#FFFFFF" d="M67.207,201.411h1.084v-1.305l1.166-0.398v1.703h1.42v0.84h-1.42v3.918c0,0.332,0.053,0.547,0.16,0.648
				c0.112,0.107,0.329,0.16,0.651,0.16c0.082,0,0.172-0.004,0.269-0.02c0.092-0.013,0.198-0.037,0.317-0.067v0.886
				c-0.192,0.055-0.364,0.09-0.518,0.119c-0.154,0.023-0.287,0.037-0.409,0.037c-0.599,0-1.021-0.102-1.271-0.309
				c-0.244-0.203-0.365-0.553-0.365-1.047v-4.328h-1.084V201.411z"/>
			<path fill="#FFFFFF" d="M73.385,199.937h-1.381v-1.293h1.381V199.937z M72.111,207.79v-6.379h1.181v6.379H72.111z"/>
			<path fill="#FFFFFF" d="M77.094,207.79l-2.604-6.379h1.186l2.041,5.057l2.059-5.057h1.166l-2.692,6.379H77.094z"/>
			<path fill="#FFFFFF" d="M87.418,205.745c-0.006,0.655-0.246,1.195-0.713,1.601c-0.468,0.399-1.09,0.608-1.865,0.608
				c-0.991,0-1.743-0.281-2.258-0.826c-0.513-0.551-0.767-1.344-0.767-2.401c0-1.119,0.252-1.979,0.754-2.574
				c0.513-0.594,1.238-0.894,2.181-0.894c0.865,0,1.545,0.246,2.039,0.742c0.498,0.492,0.744,1.166,0.744,2.021
				c0,0.207,0,0.358-0.007,0.472c-0.004,0.104-0.01,0.211-0.018,0.303h-4.525v0.119v0.26c0,0.604,0.155,1.07,0.47,1.398
				c0.309,0.327,0.746,0.492,1.315,0.492c0.465,0,0.834-0.118,1.109-0.357c0.279-0.234,0.418-0.559,0.427-0.961h1.113V205.745z
				 M83.049,203.97h3.289v-0.142c0-0.535-0.146-0.957-0.435-1.287c-0.293-0.322-0.676-0.483-1.135-0.483
				c-0.508,0-0.925,0.176-1.24,0.53C83.211,202.937,83.049,203.397,83.049,203.97z"/>
			<path fill="#FFFFFF" d="M41.767,216.956c-0.021,0.808-0.33,1.443-0.927,1.912c-0.594,0.478-1.402,0.713-2.422,0.713
				c-1.237,0-2.181-0.398-2.83-1.203c-0.65-0.795-0.979-1.961-0.979-3.477c0-1.514,0.347-2.688,1.027-3.521
				c0.686-0.83,1.648-1.244,2.902-1.244c0.979,0,1.762,0.224,2.321,0.679c0.562,0.444,0.855,1.062,0.879,1.865h-1.293
				c-0.047-0.468-0.252-0.853-0.62-1.14c-0.367-0.289-0.841-0.434-1.408-0.434c-0.781,0-1.396,0.33-1.838,0.986
				c-0.438,0.658-0.66,1.59-0.66,2.771c0,1.167,0.215,2.063,0.651,2.705c0.437,0.634,1.048,0.953,1.847,0.953
				c0.58,0,1.047-0.136,1.396-0.416c0.351-0.272,0.551-0.657,0.595-1.149H41.767L41.767,216.956z"/>
			<path fill="#FFFFFF" d="M42.967,216.359c0-1.065,0.289-1.913,0.854-2.532c0.565-0.613,1.349-0.928,2.324-0.928
				c0.996,0,1.76,0.292,2.314,0.871c0.549,0.574,0.826,1.381,0.826,2.414c0,1.068-0.287,1.902-0.856,2.498
				c-0.569,0.594-1.362,0.898-2.396,0.898c-0.947,0-1.697-0.289-2.24-0.869C43.244,218.142,42.967,217.354,42.967,216.359z
				 M46.146,213.745c-0.602,0-1.082,0.23-1.438,0.687c-0.358,0.457-0.53,1.079-0.53,1.864c0,0.761,0.17,1.351,0.509,1.77
				c0.338,0.413,0.818,0.618,1.433,0.618c0.621,0,1.104-0.218,1.446-0.66c0.355-0.438,0.527-1.049,0.527-1.823
				c0-0.779-0.165-1.38-0.51-1.812C47.252,213.961,46.763,213.745,46.146,213.745z"/>
			<path fill="#FFFFFF" d="M52.17,219.424h-1.176v-5.059c0-0.113-0.011-0.291-0.013-0.529c-0.013-0.238-0.021-0.498-0.047-0.793
				h1.197l0.037,1.084c0.166-0.354,0.422-0.635,0.768-0.842c0.351-0.207,0.741-0.315,1.17-0.315c0.433,0,0.814,0.094,1.164,0.272
				c0.342,0.182,0.652,0.467,0.926,0.848c0.334-0.401,0.658-0.689,0.992-0.856c0.328-0.176,0.715-0.264,1.146-0.264
				c0.449,0,0.854,0.097,1.229,0.278c0.363,0.189,0.625,0.435,0.787,0.748c0.073,0.143,0.127,0.332,0.162,0.562
				c0.026,0.224,0.041,0.547,0.041,0.965v3.901h-1.136v-4.067c0-0.491-0.115-0.866-0.354-1.112
				c-0.229-0.246-0.578-0.373-1.047-0.373c-0.479,0-0.863,0.146-1.17,0.446c-0.304,0.298-0.457,0.681-0.457,1.154v3.952H55.2v-3.854
				c0-0.588-0.113-1.02-0.347-1.295c-0.227-0.279-0.574-0.418-1.057-0.418c-0.51,0-0.909,0.15-1.193,0.447
				c-0.287,0.303-0.434,0.721-0.434,1.266V219.424z"/>
			<path fill="#FFFFFF" d="M63.762,219.424h-1.186v-5.059c0-0.113,0-0.291-0.009-0.529c-0.013-0.238-0.021-0.498-0.039-0.793h1.194
				l0.038,1.084c0.164-0.354,0.426-0.635,0.768-0.842c0.353-0.207,0.733-0.315,1.164-0.315c0.433,0,0.819,0.094,1.164,0.272
				c0.351,0.182,0.66,0.467,0.935,0.848c0.33-0.401,0.655-0.689,0.989-0.856c0.328-0.176,0.71-0.264,1.147-0.264
				c0.446,0,0.853,0.097,1.218,0.278c0.373,0.189,0.636,0.435,0.795,0.748c0.078,0.143,0.127,0.332,0.16,0.562
				c0.032,0.224,0.045,0.547,0.045,0.965v3.901H71.01v-4.067c0-0.491-0.123-0.866-0.354-1.112c-0.236-0.246-0.585-0.373-1.052-0.373
				c-0.477,0-0.864,0.146-1.172,0.446c-0.303,0.298-0.455,0.681-0.455,1.154v3.952h-1.192v-3.854c0-0.588-0.109-1.02-0.339-1.295
				c-0.229-0.279-0.584-0.418-1.061-0.418c-0.506,0-0.911,0.15-1.195,0.447c-0.287,0.303-0.43,0.721-0.43,1.266L63.762,219.424
				L63.762,219.424z"/>
			<path fill="#FFFFFF" d="M73.795,216.359c0-1.065,0.291-1.913,0.852-2.532c0.582-0.613,1.349-0.928,2.33-0.928
				c0.993,0,1.765,0.292,2.319,0.871c0.545,0.574,0.82,1.381,0.82,2.414c0,1.068-0.285,1.902-0.855,2.498
				c-0.566,0.594-1.368,0.898-2.395,0.898c-0.943,0-1.693-0.289-2.244-0.869C74.07,218.142,73.795,217.354,73.795,216.359z
				 M76.976,213.745c-0.606,0-1.082,0.23-1.435,0.687c-0.349,0.457-0.531,1.079-0.531,1.864c0,0.761,0.169,1.351,0.503,1.77
				c0.347,0.413,0.819,0.618,1.44,0.618c0.612,0,1.096-0.218,1.444-0.66c0.354-0.438,0.529-1.049,0.529-1.823
				c0-0.779-0.17-1.38-0.512-1.812C78.076,213.961,77.597,213.745,76.976,213.745z"/>
			<path fill="#FFFFFF" d="M83.002,214.09c0.143-0.346,0.393-0.616,0.752-0.819c0.354-0.199,0.77-0.301,1.242-0.301
				c0.426,0,0.805,0.073,1.159,0.229c0.349,0.154,0.619,0.363,0.816,0.633c0.121,0.152,0.193,0.328,0.24,0.541
				c0.052,0.213,0.074,0.572,0.074,1.088v3.963h-1.173v-4.025c0-0.54-0.118-0.938-0.344-1.186c-0.229-0.252-0.593-0.381-1.078-0.381
				c-0.494,0-0.897,0.139-1.224,0.404C83.155,214.5,83,214.854,83,215.276v4.148h-1.187v-5.066c0-0.236,0-0.468-0.008-0.684
				c-0.012-0.217-0.021-0.426-0.033-0.631h1.189L83.002,214.09z"/>
			<path fill="#FFFFFF" d="M88.779,217.51h1.181v0.021c0,0.344,0.123,0.627,0.375,0.836c0.244,0.213,0.563,0.314,0.979,0.314
				c0.398,0,0.717-0.094,0.967-0.273c0.246-0.187,0.367-0.43,0.367-0.729c0-0.219-0.063-0.396-0.186-0.535
				c-0.125-0.139-0.319-0.236-0.582-0.309l-1.354-0.308c-0.569-0.139-0.994-0.346-1.271-0.618c-0.287-0.277-0.42-0.631-0.42-1.048
				c0-0.583,0.233-1.055,0.705-1.413c0.473-0.363,1.103-0.552,1.869-0.552c0.723,0,1.28,0.156,1.694,0.455
				c0.414,0.295,0.623,0.707,0.623,1.231c0,0.047,0,0.084-0.007,0.113c0,0.022,0,0.051-0.007,0.072h-1.168v-0.053
				c0-0.309-0.114-0.545-0.33-0.723c-0.219-0.185-0.51-0.269-0.891-0.269c-0.367,0-0.673,0.084-0.908,0.269
				c-0.242,0.178-0.36,0.399-0.36,0.659c0,0.214,0.071,0.374,0.211,0.498c0.149,0.126,0.394,0.242,0.728,0.326l1.448,0.403
				c0.502,0.131,0.871,0.332,1.107,0.615c0.242,0.285,0.363,0.646,0.363,1.086c0,0.61-0.23,1.094-0.69,1.451
				c-0.459,0.36-1.079,0.543-1.864,0.543c-0.886,0-1.541-0.156-1.953-0.466c-0.416-0.315-0.627-0.798-0.627-1.458L88.779,217.51
				L88.779,217.51z"/>
		</g>
	</g>
	<g>
		<g>
			<g>
				<path fill="#FFFFFF" d="M72.42,305.34l2.758-7.182h1.025l2.937,7.182h-1.081l-0.839-2.176h-3.001l-0.79,2.176H72.42z
					 M74.492,302.394h2.434l-0.748-1.993c-0.229-0.604-0.4-1.1-0.51-1.486c-0.09,0.459-0.222,0.916-0.388,1.371L74.492,302.394z"/>
			</g>
			<g>
				<path fill="#FFFFFF" d="M83.181,303.435l0.87,0.112c-0.094,0.597-0.336,1.062-0.727,1.406c-0.392,0.336-0.871,0.504-1.439,0.504
					c-0.713,0-1.284-0.231-1.717-0.696c-0.433-0.468-0.648-1.136-0.648-2.003c0-0.562,0.094-1.053,0.279-1.475
					c0.186-0.42,0.473-0.736,0.85-0.949c0.381-0.211,0.795-0.313,1.241-0.313c0.565,0,1.028,0.142,1.388,0.429
					c0.359,0.284,0.591,0.689,0.689,1.217l-0.855,0.133c-0.082-0.35-0.227-0.611-0.434-0.789c-0.209-0.176-0.458-0.264-0.75-0.264
					c-0.447,0-0.809,0.158-1.086,0.479c-0.275,0.316-0.418,0.818-0.418,1.51c0,0.699,0.135,1.209,0.402,1.523
					c0.267,0.315,0.618,0.477,1.051,0.477c0.346,0,0.635-0.107,0.865-0.316C82.976,304.2,83.121,303.875,83.181,303.435z"/>
			</g>
			<g>
				<path fill="#FFFFFF" d="M86.73,304.551l0.129,0.777c-0.25,0.055-0.475,0.08-0.666,0.08c-0.319,0-0.567-0.051-0.746-0.15
					c-0.176-0.104-0.299-0.235-0.37-0.398c-0.072-0.167-0.109-0.513-0.109-1.045v-2.993h-0.648v-0.687h0.648v-1.285l0.877-0.528
					v1.813h0.887v0.687h-0.887v3.043c0,0.253,0.018,0.414,0.046,0.486c0.03,0.071,0.083,0.127,0.151,0.172
					c0.069,0.041,0.172,0.062,0.303,0.062C86.441,304.584,86.572,304.573,86.73,304.551z"/>
			</g>
			<g>
				<path fill="#FFFFFF" d="M87.599,299.17v-1.012h0.88v1.012H87.599z M87.599,305.34v-5.204h0.88v5.204H87.599z"/>
			</g>
			<g>
				<path fill="#FFFFFF" d="M91.267,305.34l-1.978-5.204h0.928l1.119,3.118c0.119,0.334,0.231,0.685,0.33,1.048
					c0.082-0.273,0.19-0.604,0.33-0.99l1.155-3.176h0.908l-1.969,5.204H91.267L91.267,305.34z"/>
			</g>
			<g>
				<path fill="#FFFFFF" d="M94.844,299.17v-1.012h0.883v1.012H94.844z M94.844,305.34v-5.204h0.883v5.204H94.844z"/>
			</g>
			<g>
				<path fill="#FFFFFF" d="M100.444,305.34v-0.655c-0.33,0.513-0.813,0.772-1.455,0.772c-0.413,0-0.795-0.115-1.145-0.342
					c-0.346-0.229-0.615-0.547-0.807-0.959c-0.193-0.408-0.287-0.882-0.287-1.414c0-0.518,0.086-0.992,0.26-1.414
					s0.434-0.746,0.779-0.971c0.346-0.227,0.731-0.338,1.16-0.338c0.312,0,0.594,0.062,0.838,0.199
					c0.246,0.131,0.444,0.303,0.598,0.514v-2.574h0.877v7.182H100.444z M97.657,302.743c0,0.666,0.141,1.164,0.42,1.494
					c0.282,0.332,0.612,0.496,0.996,0.496c0.385,0,0.713-0.158,0.979-0.473c0.273-0.314,0.406-0.799,0.406-1.444
					c0-0.712-0.138-1.233-0.412-1.565c-0.273-0.334-0.611-0.5-1.014-0.5c-0.396,0-0.72,0.156-0.98,0.479
					C97.786,301.549,97.657,302.051,97.657,302.743z"/>
			</g>
			<g>
				<path fill="#FFFFFF" d="M106.045,304.697c-0.326,0.28-0.644,0.474-0.943,0.589c-0.303,0.115-0.629,0.172-0.973,0.172
					c-0.574,0-1.012-0.141-1.318-0.42c-0.309-0.277-0.459-0.635-0.459-1.07c0-0.254,0.058-0.485,0.172-0.698
					c0.115-0.21,0.271-0.377,0.457-0.507c0.187-0.127,0.398-0.225,0.633-0.288c0.175-0.046,0.435-0.091,0.783-0.132
					c0.713-0.084,1.238-0.187,1.572-0.305c0.004-0.121,0.004-0.197,0.004-0.231c0-0.356-0.081-0.609-0.246-0.759
					c-0.227-0.197-0.561-0.297-1.008-0.297c-0.41,0-0.719,0.07-0.916,0.217c-0.197,0.146-0.344,0.402-0.438,0.771l-0.864-0.117
					c0.08-0.371,0.209-0.668,0.389-0.894c0.182-0.228,0.441-0.405,0.777-0.522c0.342-0.127,0.735-0.186,1.182-0.186
					s0.807,0.053,1.08,0.156c0.281,0.104,0.482,0.231,0.613,0.393c0.135,0.159,0.226,0.359,0.276,0.6
					c0.027,0.152,0.045,0.424,0.045,0.816v1.176c0,0.818,0.017,1.34,0.058,1.557c0.037,0.216,0.11,0.425,0.222,0.623h-0.919
					C106.129,305.157,106.073,304.942,106.045,304.697z M105.969,302.729c-0.316,0.131-0.797,0.241-1.438,0.333
					c-0.364,0.054-0.618,0.11-0.77,0.179c-0.15,0.063-0.264,0.159-0.348,0.286c-0.082,0.125-0.123,0.265-0.123,0.418
					c0,0.235,0.088,0.431,0.268,0.589c0.176,0.154,0.439,0.232,0.779,0.232s0.645-0.073,0.908-0.223
					c0.262-0.146,0.459-0.352,0.584-0.61c0.094-0.199,0.139-0.49,0.139-0.882L105.969,302.729L105.969,302.729z"/>
			</g>
			<g>
				<path fill="#FFFFFF" d="M111.604,305.34v-0.655c-0.328,0.513-0.813,0.772-1.455,0.772c-0.414,0-0.795-0.115-1.145-0.342
					c-0.344-0.229-0.617-0.547-0.808-0.959c-0.188-0.408-0.284-0.882-0.284-1.414c0-0.518,0.086-0.992,0.258-1.414
					c0.174-0.422,0.432-0.746,0.776-0.971c0.347-0.227,0.736-0.338,1.164-0.338c0.312,0,0.595,0.062,0.836,0.199
					c0.246,0.131,0.444,0.303,0.599,0.514v-2.574h0.879v7.182H111.604z M108.819,302.743c0,0.666,0.14,1.164,0.42,1.494
					c0.278,0.332,0.609,0.496,0.992,0.496c0.39,0,0.715-0.158,0.984-0.473c0.269-0.315,0.402-0.799,0.402-1.444
					c0-0.712-0.136-1.233-0.412-1.565c-0.271-0.334-0.609-0.5-1.011-0.5c-0.395,0-0.723,0.156-0.981,0.479
					C108.948,301.549,108.819,302.051,108.819,302.743z"/>
			</g>
		</g>
		<g>
			<g>
				<path fill="#FFFFFF" d="M60.986,314.563l2.757-7.182h1.021l2.94,7.182h-1.082l-0.836-2.176h-3.004l-0.787,2.176H60.986z
					 M63.059,311.616h2.435l-0.75-1.992c-0.229-0.602-0.397-1.098-0.511-1.488c-0.093,0.461-0.221,0.918-0.386,1.373L63.059,311.616
					z"/>
			</g>
			<g>
				<path fill="#FFFFFF" d="M68.564,314.563v-4.518h-0.776v-0.688h0.776v-0.553c0-0.35,0.032-0.605,0.095-0.777
					c0.084-0.227,0.233-0.414,0.448-0.559c0.213-0.141,0.513-0.211,0.896-0.211c0.248,0,0.522,0.029,0.824,0.088l-0.134,0.771
					c-0.184-0.035-0.356-0.051-0.52-0.051c-0.268,0-0.457,0.059-0.568,0.17c-0.108,0.117-0.166,0.33-0.166,0.645v0.479h1.017v0.688
					H69.44v4.516H68.564L68.564,314.563z"/>
			</g>
			<g>
				<path fill="#FFFFFF" d="M71.146,308.397v-1.018h0.881v1.018H71.146z M71.146,314.563v-5.203h0.881v5.203H71.146z"/>
			</g>
			<g>
				<path fill="#FFFFFF" d="M76.765,313.922c-0.325,0.277-0.64,0.477-0.939,0.586c-0.306,0.115-0.63,0.172-0.974,0.172
					c-0.572,0-1.011-0.141-1.319-0.42c-0.309-0.275-0.459-0.633-0.459-1.068c0-0.256,0.059-0.486,0.174-0.699
					c0.116-0.207,0.267-0.377,0.455-0.504c0.187-0.129,0.399-0.229,0.635-0.291c0.172-0.043,0.436-0.09,0.785-0.133
					c0.711-0.082,1.235-0.188,1.571-0.305c0-0.119,0.005-0.199,0.005-0.229c0-0.357-0.085-0.615-0.25-0.76
					c-0.229-0.199-0.561-0.299-1.005-0.299c-0.414,0-0.724,0.072-0.918,0.219c-0.198,0.143-0.347,0.4-0.438,0.771l-0.862-0.119
					c0.077-0.369,0.207-0.668,0.388-0.893c0.179-0.229,0.438-0.4,0.776-0.523c0.341-0.123,0.735-0.186,1.186-0.186
					c0.439,0,0.803,0.053,1.079,0.156s0.482,0.234,0.612,0.396c0.132,0.158,0.225,0.357,0.274,0.6
					c0.028,0.15,0.047,0.42,0.047,0.811v1.178c0,0.82,0.018,1.338,0.052,1.557c0.04,0.217,0.114,0.426,0.227,0.623h-0.921
					C76.849,314.377,76.791,314.167,76.765,313.922z M76.693,311.954c-0.317,0.129-0.801,0.24-1.438,0.33
					c-0.366,0.055-0.619,0.113-0.771,0.174c-0.147,0.068-0.268,0.164-0.348,0.291c-0.081,0.125-0.122,0.266-0.122,0.418
					c0,0.238,0.088,0.43,0.267,0.588c0.181,0.156,0.439,0.236,0.783,0.236c0.338,0,0.642-0.074,0.906-0.225
					c0.264-0.146,0.457-0.352,0.582-0.609c0.094-0.199,0.143-0.49,0.143-0.881L76.693,311.954L76.693,311.954z"/>
			</g>
			<g>
				<path fill="#FFFFFF" d="M78.953,314.563v-5.203h0.793v0.74c0.381-0.57,0.93-0.855,1.653-0.855c0.312,0,0.603,0.057,0.862,0.17
					c0.267,0.113,0.461,0.26,0.593,0.441c0.131,0.184,0.224,0.4,0.273,0.652c0.035,0.164,0.049,0.445,0.049,0.855v3.197h-0.879
					v-3.162c0-0.361-0.036-0.629-0.105-0.807c-0.067-0.178-0.188-0.322-0.364-0.428c-0.175-0.104-0.379-0.158-0.615-0.158
					c-0.375,0-0.698,0.117-0.973,0.357c-0.271,0.238-0.408,0.689-0.408,1.355v2.84h-0.879V314.563z"/>
			</g>
			<g>
				<path fill="#FFFFFF" d="M84.066,314.563v-0.717l3.312-3.801c-0.375,0.021-0.709,0.029-0.996,0.029H84.26v-0.717h4.253v0.586
					l-2.817,3.301l-0.543,0.602c0.396-0.023,0.767-0.041,1.112-0.041h2.407v0.758H84.066z"/>
			</g>
			<g>
				<path fill="#FFFFFF" d="M92.943,313.922c-0.327,0.277-0.641,0.477-0.942,0.586c-0.301,0.115-0.625,0.172-0.974,0.172
					c-0.573,0-1.013-0.141-1.319-0.42c-0.308-0.275-0.459-0.633-0.459-1.068c0-0.256,0.058-0.486,0.172-0.699
					c0.119-0.207,0.272-0.377,0.459-0.504c0.188-0.129,0.397-0.229,0.634-0.291c0.175-0.043,0.433-0.09,0.786-0.133
					c0.711-0.082,1.234-0.188,1.57-0.305c0.004-0.119,0.006-0.199,0.006-0.229c0-0.357-0.082-0.615-0.248-0.76
					c-0.23-0.199-0.562-0.299-1.008-0.299c-0.414,0-0.722,0.072-0.916,0.219c-0.199,0.143-0.345,0.4-0.441,0.771l-0.861-0.119
					c0.078-0.369,0.207-0.668,0.39-0.893c0.18-0.229,0.438-0.4,0.776-0.523c0.341-0.123,0.734-0.186,1.185-0.186
					c0.44,0,0.803,0.053,1.08,0.156c0.276,0.104,0.481,0.234,0.614,0.396c0.13,0.158,0.22,0.357,0.273,0.6
					c0.029,0.15,0.043,0.42,0.043,0.811v1.178c0,0.82,0.018,1.338,0.057,1.557c0.035,0.217,0.11,0.426,0.224,0.623h-0.92
					C93.029,314.377,92.969,314.167,92.943,313.922z M92.869,311.954c-0.32,0.129-0.798,0.24-1.441,0.33
					c-0.359,0.055-0.615,0.113-0.768,0.174c-0.148,0.068-0.267,0.164-0.351,0.291c-0.082,0.125-0.119,0.266-0.119,0.418
					c0,0.238,0.086,0.43,0.265,0.588c0.178,0.156,0.438,0.236,0.782,0.236c0.343,0,0.642-0.074,0.906-0.225
					c0.267-0.146,0.461-0.352,0.582-0.609c0.096-0.199,0.144-0.49,0.144-0.881V311.954z"/>
			</g>
			<g>
				<path fill="#FFFFFF" d="M95.127,314.563v-5.203h0.789v0.73c0.164-0.256,0.379-0.459,0.65-0.615
					c0.275-0.152,0.582-0.23,0.929-0.23c0.385,0,0.7,0.078,0.948,0.24c0.246,0.162,0.418,0.385,0.521,0.67
					c0.408-0.605,0.947-0.91,1.606-0.91c0.515,0,0.91,0.143,1.189,0.43c0.279,0.285,0.416,0.725,0.416,1.316v3.572H101.3v-3.275
					c0-0.355-0.027-0.605-0.086-0.764c-0.057-0.152-0.16-0.277-0.312-0.373s-0.327-0.145-0.528-0.145
					c-0.365,0-0.67,0.123-0.912,0.367c-0.24,0.242-0.361,0.633-0.361,1.168v3.021h-0.883v-3.381c0-0.391-0.072-0.686-0.213-0.881
					c-0.146-0.195-0.383-0.295-0.709-0.295c-0.246,0-0.478,0.066-0.687,0.195c-0.213,0.131-0.367,0.324-0.461,0.574
					c-0.097,0.252-0.141,0.613-0.141,1.088v2.697h-0.881V314.563z"/>
			</g>
			<g>
				<path fill="#FFFFFF" d="M103.491,308.397v-1.018h0.881v1.018H103.491z M103.491,314.563v-5.203h0.881v5.203H103.491z"/>
			</g>
			<g>
				<path fill="#FFFFFF" d="M109.278,312.887l0.91,0.115c-0.145,0.531-0.41,0.943-0.799,1.236c-0.387,0.295-0.883,0.441-1.49,0.441
					c-0.76,0-1.358-0.232-1.805-0.703c-0.452-0.465-0.672-1.129-0.672-1.973c0-0.875,0.225-1.557,0.676-2.039
					c0.449-0.48,1.035-0.723,1.754-0.723c0.695,0,1.267,0.236,1.703,0.711c0.441,0.473,0.664,1.139,0.664,2
					c0,0.051-0.002,0.129-0.006,0.232h-3.881c0.035,0.572,0.194,1.01,0.483,1.312c0.293,0.305,0.652,0.453,1.088,0.453
					c0.324,0,0.603-0.084,0.83-0.252C108.963,313.534,109.142,313.262,109.278,312.887z M106.383,311.459h2.904
					c-0.039-0.434-0.15-0.764-0.332-0.98c-0.283-0.342-0.646-0.512-1.093-0.512c-0.405,0-0.75,0.139-1.022,0.408
					C106.565,310.647,106.411,311.008,106.383,311.459z"/>
			</g>
			<g>
				<path fill="#FFFFFF" d="M111.297,314.563v-5.203h0.791v0.74c0.381-0.57,0.934-0.855,1.658-0.855c0.312,0,0.598,0.057,0.864,0.17
					c0.263,0.113,0.459,0.26,0.593,0.441c0.131,0.184,0.221,0.4,0.272,0.652c0.031,0.164,0.045,0.445,0.045,0.855v3.197h-0.88
					v-3.162c0-0.361-0.034-0.629-0.103-0.807c-0.07-0.178-0.193-0.322-0.365-0.428c-0.174-0.104-0.379-0.158-0.613-0.158
					c-0.381,0-0.703,0.117-0.975,0.357c-0.271,0.238-0.408,0.689-0.408,1.355v2.84h-0.88V314.563z"/>
			</g>
			<g>
				<path fill="#FFFFFF" d="M118.803,313.776l0.125,0.779c-0.25,0.049-0.469,0.074-0.666,0.074c-0.32,0-0.568-0.047-0.742-0.15
					c-0.178-0.102-0.301-0.232-0.375-0.396c-0.071-0.166-0.104-0.514-0.104-1.043v-2.994h-0.65v-0.688h0.65v-1.285l0.875-0.531
					v1.816h0.889v0.688h-0.889v3.045c0,0.25,0.014,0.41,0.047,0.482c0.031,0.072,0.082,0.131,0.151,0.172
					c0.07,0.045,0.173,0.062,0.3,0.062C118.512,313.807,118.642,313.799,118.803,313.776z"/>
			</g>
			<g>
				<path fill="#FFFFFF" d="M119.336,311.961c0-0.963,0.266-1.678,0.801-2.141c0.453-0.385,0.996-0.578,1.641-0.578
					c0.716,0,1.3,0.23,1.755,0.703c0.452,0.471,0.68,1.115,0.68,1.943c0,0.668-0.103,1.193-0.303,1.578
					c-0.199,0.385-0.492,0.684-0.877,0.895c-0.384,0.215-0.804,0.318-1.255,0.318c-0.729,0-1.319-0.232-1.768-0.701
					C119.555,313.512,119.336,312.842,119.336,311.961z M120.243,311.961c0,0.666,0.145,1.164,0.434,1.496
					c0.293,0.334,0.66,0.496,1.102,0.496c0.437,0,0.802-0.162,1.093-0.5c0.289-0.328,0.434-0.838,0.434-1.521
					c0-0.643-0.146-1.131-0.438-1.463c-0.287-0.33-0.654-0.496-1.087-0.496c-0.44,0-0.809,0.164-1.102,0.494
					C120.387,310.797,120.243,311.295,120.243,311.961z"/>
			</g>
		</g>
	</g>
	<g>
		<path fill="#FFFFFF" d="M146.975,314.915c0.043-0.182,0.07-0.369,0.129-0.545c0.322-0.969,1.041-1.51,1.979-1.809
			c0.078-0.023,0.156-0.041,0.25-0.066c0-0.861,0-1.719,0-2.578c0-0.172-0.004-0.344,0.002-0.516
			c0.014-0.436,0.35-0.797,0.785-0.824c0.301-0.02,0.602-0.004,0.896-0.004c0.094-0.562,0.229-0.729,0.58-0.738
			c0.379-0.014,0.527,0.15,0.646,0.717c0.262,0,0.524,0,0.807,0c-0.094-0.422-0.057-0.814,0.293-1.08
			c0.184-0.139,0.439-0.254,0.664-0.254c4.074-0.016,8.147-0.014,12.225-0.012c0.634,0.002,1.099,0.564,0.988,1.186
			c-0.008,0.049-0.008,0.096-0.014,0.174c0.1,0,0.188,0,0.274,0c0.812,0,1.619,0,2.431,0.002c0.657,0.002,1.002,0.334,1.004,0.992
			c0.008,1.564,0.006,3.129,0,4.689c-0.002,0.664-0.343,0.996-1.002,0.998c-6.531,0.002-13.062,0.002-19.591-0.002
			c-0.659,0-0.987-0.336-0.989-1.002c0-0.146,0-0.293,0-0.441c-0.504,0.057-1.002,0.631-1.033,1.188
			c-0.043,0.758,0.432,1.373,1.25,1.594c0.625,0.172,1.264,0.234,1.914,0.225c0.867-0.014,1.74-0.061,2.598,0.037
			c1.775,0.207,3.217,1.078,4.353,2.449c0.309,0.371,0.198,0.736-0.291,1.072c-0.099,0-0.195,0-0.295,0
			c-0.113-0.104-0.229-0.205-0.345-0.307c-0.434-0.383-0.834-0.812-1.309-1.137c-1.123-0.762-2.402-0.945-3.736-0.93
			c-0.887,0.01-1.783,0.006-2.66-0.102c-1.069-0.129-1.918-0.697-2.438-1.654c-0.191-0.354-0.246-0.781-0.363-1.176
			C146.975,315.012,146.975,314.963,146.975,314.915z"/>
		<path fill="#FFFFFF" d="M158.565,292.474c0.236,0.058,0.48,0.09,0.707,0.172c1.361,0.497,2.229,1.446,2.467,2.886
			c0.238,1.448-0.28,2.631-1.444,3.522c-0.137,0.104-0.183,0.196-0.146,0.364c0.347,1.627,0.685,3.256,1.023,4.884
			c0.014,0.063,0.035,0.125,0.061,0.214c0.084,0,0.172,0,0.261,0c0.646,0,1.293-0.008,1.938,0.003
			c0.516,0.008,0.838,0.431,0.674,0.864c-0.047,0.125-0.115,0.193-0.268,0.193c-2.471-0.005-4.943-0.006-7.414,0
			c-0.226,0-0.283-0.127-0.31-0.298c-0.069-0.437,0.224-0.755,0.709-0.761c0.539-0.008,1.078-0.003,1.619-0.003
			c0.088,0,0.179,0,0.306,0c-0.097-0.466-0.187-0.909-0.277-1.353c-0.225-1.068-0.455-2.138-0.668-3.209
			c-0.033-0.168-0.102-0.222-0.26-0.246c-1.5-0.252-2.646-1.365-2.961-2.863c-0.429-2.047,0.965-4.03,3.039-4.324
			c0.037-0.007,0.071-0.031,0.108-0.047C158.008,292.474,158.286,292.474,158.565,292.474z M160.422,295.965
			c-0.037-0.865-0.328-1.475-0.988-1.87c-0.324-0.193-0.61-0.128-0.783,0.157c-0.168,0.273-0.092,0.476,0.254,0.691
			c0.431,0.268,0.613,0.737,0.482,1.227c-0.021,0.08-0.049,0.156-0.059,0.238c-0.027,0.246,0.168,0.521,0.399,0.578
			c0.229,0.057,0.453-0.072,0.537-0.346C160.344,296.388,160.387,296.12,160.422,295.965z"/>
		<path fill="#FFFFFF" d="M160.116,306.907c-1.851,0-3.697,0-5.548,0c-0.248,0-0.293-0.053-0.27-0.303
			c0.037-0.396,0.338-0.695,0.731-0.73c0.082-0.008,0.162-0.01,0.244-0.01c3.232,0,6.466,0.002,9.695-0.002
			c0.336,0,0.637,0.055,0.832,0.361c0.051,0.082,0.096,0.174,0.117,0.266c0.078,0.348,0.018,0.418-0.332,0.418
			C163.764,306.907,161.94,306.907,160.116,306.907z"/>
	</g>
	<g>
		<path fill="#FFFFFF" d="M41.736,163.107v-9.076h1.933l1.951,6.239c0.035,0.132,0.086,0.316,0.149,0.558
			c0.062,0.239,0.14,0.532,0.226,0.882c0.06-0.296,0.121-0.569,0.18-0.821c0.061-0.254,0.115-0.463,0.164-0.631l1.9-6.227h1.864
			v9.076h-1.106v-6.491c0-0.369,0.002-0.702,0.006-0.996c0.004-0.297,0.01-0.597,0.018-0.905l-2.559,8.392h-1.022l-2.621-8.478
			c0.015,0.324,0.021,0.672,0.026,1.044c0.009,0.375,0.011,0.771,0.011,1.195v6.238L41.736,163.107L41.736,163.107z"/>
		<path fill="#FFFFFF" d="M52.685,158.431h-1.162v-0.123c0-0.549,0.189-0.965,0.569-1.25s0.938-0.427,1.677-0.427
			c0.729,0,1.267,0.147,1.611,0.445c0.344,0.298,0.516,0.763,0.516,1.394v2.954c0,0.292,0.011,0.577,0.029,0.859
			c0.018,0.279,0.044,0.555,0.082,0.827h-1.082l-0.074-0.796c-0.214,0.277-0.461,0.487-0.744,0.634
			c-0.282,0.148-0.58,0.221-0.893,0.221c-0.538,0-0.975-0.177-1.309-0.533c-0.339-0.358-0.507-0.825-0.507-1.403
			c0-0.725,0.233-1.273,0.705-1.642c0.47-0.371,1.17-0.555,2.103-0.555h0.606v-0.312c0-0.499-0.071-0.84-0.22-1.03
			c-0.144-0.187-0.396-0.282-0.752-0.282c-0.382,0-0.669,0.081-0.864,0.243c-0.192,0.163-0.293,0.401-0.293,0.717L52.685,158.431
			L52.685,158.431z M54.826,159.79c-0.873,0-1.481,0.102-1.826,0.307c-0.344,0.202-0.517,0.546-0.517,1.029
			c0,0.313,0.095,0.572,0.281,0.779c0.19,0.207,0.428,0.312,0.715,0.312c0.427,0,0.759-0.167,0.992-0.501
			c0.236-0.335,0.354-0.812,0.354-1.432V159.79z"/>
		<path fill="#FFFFFF" d="M57.289,165.499v-7.597c0-0.324-0.004-0.562-0.013-0.714c-0.01-0.15-0.022-0.286-0.043-0.405h1.11
			l0.063,0.604c0.196-0.26,0.418-0.452,0.661-0.58c0.244-0.126,0.521-0.19,0.826-0.19c0.711,0,1.23,0.26,1.564,0.782
			c0.332,0.52,0.498,1.339,0.498,2.46c0,1.16-0.168,2.018-0.506,2.572c-0.336,0.554-0.854,0.829-1.558,0.829
			c-0.323,0-0.61-0.072-0.862-0.218s-0.47-0.363-0.65-0.655v3.112H57.289z M58.371,159.971c0,0.819,0.104,1.419,0.313,1.798
			c0.209,0.38,0.537,0.57,0.984,0.57c0.406,0,0.703-0.191,0.889-0.576c0.188-0.383,0.279-0.997,0.279-1.841
			c0-0.942-0.094-1.592-0.282-1.955c-0.188-0.363-0.511-0.544-0.966-0.544c-0.426,0-0.736,0.2-0.93,0.597
			C58.468,158.415,58.371,159.067,58.371,159.971z"/>
		<path fill="#FFFFFF" d="M64.259,158.431h-1.164v-0.123c0-0.549,0.19-0.965,0.571-1.25c0.379-0.285,0.938-0.427,1.676-0.427
			c0.73,0,1.268,0.147,1.611,0.445c0.344,0.298,0.517,0.763,0.517,1.394v2.954c0,0.292,0.009,0.577,0.028,0.859
			c0.02,0.279,0.047,0.555,0.084,0.827h-1.084l-0.074-0.796c-0.213,0.277-0.461,0.487-0.745,0.634
			c-0.28,0.148-0.579,0.221-0.89,0.221c-0.537,0-0.976-0.177-1.312-0.533c-0.336-0.358-0.504-0.825-0.504-1.403
			c0-0.725,0.234-1.273,0.702-1.642c0.47-0.371,1.171-0.555,2.104-0.555h0.605v-0.312c0-0.499-0.071-0.84-0.216-1.03
			c-0.146-0.187-0.396-0.282-0.754-0.282c-0.383,0-0.67,0.081-0.865,0.243c-0.193,0.163-0.292,0.401-0.292,0.717L64.259,158.431
			L64.259,158.431z M66.4,159.79c-0.875,0-1.481,0.102-1.827,0.307c-0.345,0.202-0.517,0.546-0.517,1.029
			c0,0.313,0.094,0.572,0.282,0.779c0.188,0.207,0.428,0.312,0.714,0.312c0.427,0,0.759-0.167,0.995-0.501
			c0.236-0.335,0.354-0.812,0.354-1.432L66.4,159.79L66.4,159.79z"/>
		<path fill="#FFFFFF" d="M35.508,170.807v0.203c0,0.861-0.227,1.531-0.682,2.014c-0.457,0.481-1.091,0.724-1.902,0.724
			c-0.385,0-0.745-0.056-1.081-0.166c-0.334-0.11-0.603-0.263-0.808-0.456c-0.345-0.314-0.588-0.77-0.729-1.363
			c-0.142-0.597-0.213-1.562-0.213-2.893c0-0.932,0.045-1.646,0.134-2.146c0.088-0.5,0.236-0.92,0.445-1.254
			c0.205-0.336,0.502-0.595,0.889-0.776c0.39-0.181,0.838-0.27,1.353-0.27c0.824,0,1.453,0.23,1.885,0.691
			c0.434,0.461,0.648,1.134,0.648,2.015h-1.271v-0.134c0-0.543-0.107-0.945-0.324-1.213c-0.216-0.266-0.541-0.399-0.975-0.399
			c-0.275,0-0.517,0.055-0.724,0.159c-0.206,0.107-0.375,0.264-0.502,0.469s-0.217,0.514-0.271,0.932
			c-0.053,0.418-0.078,1.207-0.078,2.371c0,1.375,0.115,2.295,0.348,2.764c0.23,0.467,0.642,0.701,1.228,0.701
			c0.467,0,0.812-0.152,1.037-0.459c0.222-0.307,0.336-0.775,0.336-1.406v-0.104h1.258V170.807z"/>
		<path fill="#FFFFFF" d="M36.72,170.432c0-1.15,0.19-1.99,0.569-2.51c0.379-0.521,0.983-0.781,1.812-0.781
			c0.832,0,1.437,0.258,1.81,0.775c0.373,0.52,0.558,1.364,0.558,2.527c0,1.164-0.187,2.007-0.562,2.531
			c-0.375,0.522-0.979,0.783-1.806,0.783c-0.839,0-1.442-0.261-1.817-0.783C36.908,172.452,36.72,171.602,36.72,170.432z
			 M39.101,168.063c-0.451,0-0.776,0.186-0.977,0.553c-0.198,0.369-0.297,0.979-0.297,1.828c0,0.865,0.098,1.48,0.295,1.845
			c0.196,0.364,0.522,0.549,0.979,0.549c0.45,0,0.773-0.185,0.969-0.549c0.192-0.364,0.291-0.974,0.291-1.832
			c0-0.871-0.099-1.487-0.291-1.851C39.875,168.244,39.552,168.063,39.101,168.063z"/>
		<path fill="#FFFFFF" d="M46.095,173.606v-4.041c0-0.615-0.077-1.035-0.235-1.266c-0.157-0.227-0.428-0.342-0.811-0.342
			c-0.43,0-0.745,0.16-0.939,0.479c-0.196,0.318-0.297,0.822-0.297,1.516v3.654h-1.082v-5.326c0-0.137-0.006-0.286-0.016-0.45
			c-0.01-0.165-0.025-0.347-0.045-0.547h1.104l0.05,0.731c0.223-0.308,0.469-0.531,0.735-0.674c0.271-0.142,0.582-0.212,0.938-0.212
			c0.521,0,0.933,0.155,1.237,0.459c0.304,0.306,0.455,0.722,0.455,1.245v4.775h-1.096V173.606z"/>
		<path fill="#FFFFFF" d="M51.965,171.465h1.087c-0.011,0.727-0.216,1.29-0.616,1.69c-0.399,0.403-0.953,0.603-1.658,0.603
			c-0.834,0-1.436-0.258-1.81-0.775c-0.373-0.516-0.56-1.36-0.56-2.526c0-1.168,0.187-2.015,0.56-2.535
			c0.374-0.522,0.976-0.782,1.81-0.782c0.673,0,1.216,0.18,1.628,0.539c0.411,0.358,0.618,0.832,0.618,1.418v0.135h-1.071
			c0-0.369-0.097-0.654-0.291-0.862c-0.195-0.204-0.47-0.308-0.822-0.308c-0.48,0-0.82,0.178-1.021,0.529
			c-0.2,0.354-0.301,0.975-0.301,1.865c0,0.865,0.099,1.479,0.293,1.837c0.193,0.362,0.519,0.543,0.97,0.543
			c0.352,0,0.635-0.124,0.85-0.373C51.84,172.217,51.951,171.883,51.965,171.465z"/>
		<path fill="#FFFFFF" d="M58.732,171.623c-0.032,0.671-0.25,1.194-0.649,1.571c-0.398,0.377-0.939,0.564-1.619,0.564
			c-0.846,0-1.454-0.258-1.818-0.775c-0.367-0.516-0.552-1.381-0.552-2.588c0-1.137,0.188-1.963,0.565-2.479
			c0.379-0.517,0.978-0.774,1.805-0.774c0.781,0,1.354,0.205,1.723,0.617c0.363,0.413,0.547,1.063,0.547,1.955v0.983h-3.52v0.362
			c0,0.623,0.1,1.074,0.299,1.354c0.197,0.282,0.516,0.423,0.951,0.423c0.332,0,0.598-0.105,0.8-0.314
			c0.204-0.209,0.332-0.508,0.388-0.899H58.732z M55.218,169.878h2.444v-0.541c0-0.478-0.101-0.839-0.295-1.083
			c-0.197-0.246-0.486-0.367-0.869-0.367c-0.426,0-0.742,0.157-0.951,0.478C55.34,168.684,55.232,169.188,55.218,169.878z"/>
		<path fill="#FFFFFF" d="M59.92,175.999v-7.598c0-0.323-0.004-0.561-0.012-0.713c-0.011-0.15-0.024-0.289-0.043-0.405h1.112
			l0.062,0.604c0.196-0.262,0.418-0.453,0.662-0.58s0.519-0.191,0.825-0.191c0.712,0,1.23,0.26,1.564,0.783
			c0.332,0.519,0.498,1.338,0.498,2.459c0,1.16-0.168,2.018-0.506,2.572c-0.336,0.553-0.854,0.828-1.558,0.828
			c-0.321,0-0.61-0.072-0.862-0.22c-0.252-0.144-0.47-0.36-0.651-0.653v3.112L59.92,175.999L59.92,175.999z M61.002,170.467
			c0,0.821,0.104,1.422,0.313,1.801s0.537,0.569,0.984,0.569c0.406,0,0.703-0.19,0.889-0.575c0.188-0.385,0.278-0.998,0.278-1.845
			c0-0.94-0.093-1.589-0.28-1.952c-0.188-0.363-0.512-0.544-0.968-0.544c-0.425,0-0.735,0.198-0.929,0.597
			C61.1,168.916,61.002,169.565,61.002,170.467z"/>
		<path fill="#FFFFFF" d="M67.263,165.492v1.791h1.263v0.78h-1.263v3.789c0,0.342,0.054,0.576,0.159,0.707
			c0.104,0.129,0.296,0.191,0.574,0.191c0.099,0,0.263-0.007,0.492-0.023h0.036l-0.006,0.819c-0.168,0.036-0.326,0.063-0.473,0.081
			c-0.148,0.021-0.288,0.029-0.414,0.029c-0.533,0-0.908-0.105-1.125-0.312c-0.217-0.209-0.327-0.58-0.327-1.107v-4.172h-0.961
			v-0.78h0.961v-1.272L67.263,165.492z"/>
		<path fill="#FFFFFF" d="M70.482,167.283v4.028c0,0.611,0.078,1.031,0.232,1.258c0.156,0.228,0.428,0.342,0.812,0.342
			c0.429,0,0.738-0.156,0.937-0.471c0.197-0.314,0.295-0.816,0.295-1.504v-3.653h1.084v5.327c0.003,0.14,0.01,0.291,0.02,0.455
			c0.013,0.162,0.024,0.344,0.041,0.541H72.8l-0.055-0.746c-0.222,0.311-0.47,0.535-0.738,0.68
			c-0.271,0.148-0.582,0.221-0.936,0.221c-0.521,0-0.933-0.152-1.236-0.459c-0.303-0.304-0.455-0.72-0.455-1.246v-4.773
			L70.482,167.283L70.482,167.283z"/>
		<path fill="#FFFFFF" d="M76.315,168.93H75.15v-0.123c0-0.549,0.189-0.967,0.569-1.252c0.381-0.285,0.939-0.428,1.678-0.428
			c0.73,0,1.269,0.148,1.611,0.445c0.346,0.299,0.518,0.763,0.518,1.395v2.952c0,0.291,0.009,0.577,0.025,0.858
			c0.021,0.281,0.049,0.556,0.084,0.828h-1.084l-0.072-0.795c-0.213,0.275-0.461,0.488-0.744,0.635
			c-0.28,0.148-0.579,0.222-0.893,0.222c-0.536,0-0.973-0.178-1.309-0.534c-0.336-0.357-0.504-0.826-0.504-1.402
			c0-0.728,0.232-1.273,0.703-1.645c0.47-0.369,1.17-0.555,2.103-0.555h0.608v-0.312c0-0.496-0.073-0.838-0.219-1.027
			c-0.146-0.188-0.396-0.281-0.756-0.281c-0.381,0-0.668,0.08-0.861,0.242c-0.194,0.162-0.293,0.4-0.293,0.718V168.93z
			 M78.456,170.289c-0.873,0-1.482,0.103-1.826,0.306c-0.346,0.205-0.518,0.547-0.518,1.029c0,0.312,0.094,0.572,0.28,0.781
			c0.191,0.207,0.429,0.311,0.715,0.311c0.429,0,0.759-0.166,0.994-0.501c0.236-0.335,0.354-0.812,0.354-1.431V170.289z"/>
		<path fill="#FFFFFF" d="M81.988,173.606h-1.082v-9.074h1.082V173.606z"/>
	</g>
	<g>
		<path fill="#FFFFFF" d="M130.846,160.835h-8.436v-4.149h0.102c0.814-0.018,2.396-0.183,3.777-0.332
			c0.041,0.003,0.082,0.003,0.125,0.006l0.17-0.021c1.053,0.021,2.106,0.091,3.147,0.003c0.341-0.031,0.9-0.539,0.912-0.846
			c0.082-2.104,0.043-4.213,0.043-6.39h-13.424c0,0.021,0,0.046-0.004,0.067c-0.488-0.02-0.852-0.021-1.129-0.012
			c-0.018-0.049-0.033-0.098-0.053-0.146c-0.164,0.07-0.361,0.14-0.568,0.207c-0.004,0-0.004,0-0.004,0
			c-0.123,0.024-0.172,0.052-0.188,0.061c-0.008,0.003-0.01,0.005-0.01,0.005c-0.646,0.211-1.309,0.42-1.317,0.658
			c-0.095,2.192,0.098,4.4,0.202,6.755c2.595,0,5.13,0.03,7.656-0.006c-0.069,0.636-0.18,1.583-0.113,2.059
			c0.306,2.139,0.205,2.249-1.979,2.331c-1.787,0.067-3.568,0.247-5.348,0.377c0,1.029,0.018,2.001,0.021,2.941v0.002
			c-0.018-0.083-0.035-0.166-0.053-0.248c-1.252,0.228-6.369,0.9-7.396,1.511c-0.528,0.316-0.373,1.791-0.521,2.744
			c-0.023,0.148,0.031,0.333-0.039,0.447c-0.717,1.166,0.045,1.998,0.527,2.894c0.168-0.021,0.338-0.038,0.506-0.062
			c-0.14-1.286-0.236-2.58-0.429-3.857c-0.168-1.1-0.053-1.9,1.293-2.04c0.812-0.083,5.189-0.981,6.111-1.158v0.002
			c0.002,0.733-0.01,1.448-0.047,2.165c-0.055,1.119,0.283,1.506,1.438,1.49c4.096-0.061,8.196-0.009,12.295-0.042
			c0.512-0.004,1.02-0.241,1.526-0.373c0.004-0.002,0.004-0.002,0.008-0.006h0.017c-0.008,0.003-0.017,0.003-0.023,0.006
			c-0.004,0.005-0.006,0.009-0.008,0.013c1.43,0.348,1.67-0.651,1.644-1.635C131.233,164.553,131.016,162.854,130.846,160.835z"/>
		<path fill="#FFFFFF" d="M127.02,175.557c-0.073,0.002-0.147,0.01-0.223,0.016c-0.012-1.271-0.076-1.988-0.146-2.396
			c0.232,0.311,0.386,0.756,0.433,1.389c0.393-1.914-0.369-2.901-1.928-2.815c-1.783,0.097-3.57,0.233-5.357,0.269
			c-1.367,0.027-1.76,0.562-1.182,1.797c-0.183,0.213-0.523,0.425-0.525,0.641c-0.031,1.77-0.076,3.543,0.078,5.3
			c0.037,0.376,0.871,0.952,1.354,0.972c2.22,0.084,4.447-0.01,6.673-0.008c0.725,0,1.182-0.188,1.116-1.016
			C127.211,178.322,127.118,176.938,127.02,175.557z"/>
		<path fill="#FFFFFF" d="M142.039,175.188c0-0.002,0-0.002,0-0.006c-0.226-1.496-0.246-1.381-0.775-3.424
			c0.133,0,0.265-0.003,0.398-0.003c-0.004-0.2-0.006-0.401-0.006-0.606c-1.998,0-4.009-0.118-5.982,0.07
			c-0.639,0.064-1.199,0.943-1.797,1.452v6.257h8.326C142.137,177.518,142.477,176.293,142.039,175.188z"/>
		<path fill="#FFFFFF" d="M109.178,172.342c-1.813,0.312-3.635,0.598-5.447,0.896c-0.864-0.059-1.309,0.236-1.203,1.212
			c0.162,1.5,0.162,3.019,0.369,4.513c0.269,1.954,0.472,2.107,2.531,2.04c1.029-0.032,2.049-0.247,3.074-0.378
			c-0.025-0.005-0.053-0.012-0.076-0.018c0.943-0.055,1.635-0.231,1.711-0.254c0.004,0,0.006,0,0.006,0
			c0.533-0.058,1.068-0.114,1.613-0.172c-0.094-2.092-0.121-4.006-0.285-5.912C111.358,172.957,110.713,172.081,109.178,172.342z"/>
		<path fill="#FFFFFF" d="M138.829,170.045c0.184-0.031,0.364-0.062,0.549-0.094c-0.348-1.646-0.691-3.293-1.037-4.94
			c-0.25-0.282-0.49-0.801-0.75-0.81c-1.955-0.07-3.914-0.038-5.871-0.038c0.004,0.187,0.004,0.375,0.006,0.562
			c0.711,0,1.426-0.05,2.131,0.011c1.422,0.127,2.838,0.313,4.257,0.476C138.315,166.831,137.584,168.612,138.829,170.045z"/>
	</g>
</g>
</svg>
