<?xml version="1.0" encoding="utf-8"?>
<!-- Generator: Adobe Illustrator 16.0.0, SVG Export Plug-In . SVG Version: 6.00 Build 0)  -->
<!DOCTYPE svg PUBLIC "-//W3C//DTD SVG 1.1//EN" "http://www.w3.org/Graphics/SVG/1.1/DTD/svg11.dtd">
<svg version="1.1" id="Capa_1" xmlns="http://www.w3.org/2000/svg" xmlns:xlink="http://www.w3.org/1999/xlink" x="0px" y="0px"
	 width="184.838px" height="172.627px" viewBox="0 0 184.838 172.627" enable-background="new 0 0 184.838 172.627"
	 xml:space="preserve">
<g>
	<path fill="#A0C219" d="M125.651,0c6.916,0,12.525,6.244,12.525,13.945v9.379c0,7.701-5.609,43.283-12.525,43.283h-1.573
		c-6.918,0-12.527-6.242-12.527-13.943V13.945C111.551,6.244,117.16,0,124.078,0H125.651z"/>
	<g>
		<path fill="#FFFFFF" d="M117.699,22.066c0-3.431,0-6.861,0-10.289c0.02-0.041,0.047-0.078,0.055-0.121
			c0.22-1.362,1.371-2.388,2.763-2.393c3.235-0.018,6.471-0.019,9.705,0c1.536,0.008,2.795,1.265,2.803,2.803
			c0.018,3.235,0.012,6.47,0,9.703c-0.002,0.703-0.254,1.32-0.732,1.854c-0.482,0.537-1.09,0.822-1.781,0.965
			c-3.43,0-6.859,0-10.289,0c-0.541-0.124-1.051-0.304-1.486-0.674C118.158,23.422,117.842,22.795,117.699,22.066z M125.365,22.052
			c1.522,0,3.043,0,4.563-0.002c0.455,0,0.562-0.108,0.562-0.558c0.004-3.042,0.004-6.084,0-9.127c0-0.469-0.104-0.572-0.582-0.572
			c-3.031-0.002-6.061-0.002-9.092,0c-0.476,0-0.58,0.104-0.58,0.575c-0.002,3.03-0.002,6.06,0,9.092c0,0.491,0.1,0.59,0.6,0.59
			C122.349,22.052,123.854,22.052,125.365,22.052z"/>
		<path fill="#FFFFFF" d="M125.392,14.367c1.02,0,2.041,0.002,3.062-0.004c0.28,0,0.512,0.068,0.657,0.328
			c0.156,0.276,0.089,0.512-0.084,0.753c-1.039,1.444-2.069,2.896-3.108,4.34c-0.323,0.452-0.787,0.444-1.117-0.013
			c-1.028-1.436-2.055-2.877-3.086-4.312c-0.172-0.237-0.26-0.474-0.104-0.753c0.147-0.273,0.391-0.346,0.684-0.344
			C123.324,14.371,124.356,14.367,125.392,14.367z"/>
	</g>
	<polygon fill="#F2961C" points="184.617,119.851 44.002,126.617 19.766,172.627 173.125,169.14 174.254,164.31 	"/>
	<polygon fill="#A0C219" points="184.838,119.687 44.256,127.127 15.504,83.797 168.435,71.805 170.045,76.496 	"/>
	<polygon fill="#F2961C" points="0,35.428 140.617,28.637 169.168,72.1 16.184,83.383 14.594,78.684 	"/>
	<g>
		<path fill="#FFFFFF" d="M115.604,42.706c-0.1-0.069-0.26-0.104-0.481-0.104h-0.444v0.913h0.444c0.224,0,0.375-0.04,0.479-0.113
			c0.11-0.075,0.155-0.191,0.155-0.351C115.758,42.895,115.713,42.783,115.604,42.706z M115.604,42.706
			c-0.1-0.069-0.26-0.104-0.481-0.104h-0.444v0.913h0.444c0.224,0,0.375-0.04,0.479-0.113c0.11-0.075,0.155-0.191,0.155-0.351
			C115.758,42.895,115.713,42.783,115.604,42.706z M115.604,42.706c-0.1-0.069-0.26-0.104-0.481-0.104h-0.444v0.913h0.444
			c0.224,0,0.375-0.04,0.479-0.113c0.11-0.075,0.155-0.191,0.155-0.351C115.758,42.895,115.713,42.783,115.604,42.706z
			 M119.586,42.869c-0.188-0.174-0.487-0.262-0.899-0.262h-0.361v2.162h0.361c0.414,0,0.717-0.088,0.899-0.253
			c0.183-0.167,0.274-0.444,0.274-0.822C119.86,43.312,119.769,43.038,119.586,42.869z M115.604,42.706
			c-0.1-0.069-0.26-0.104-0.481-0.104h-0.444v0.913h0.444c0.224,0,0.375-0.04,0.479-0.113c0.11-0.075,0.155-0.191,0.155-0.351
			C115.758,42.895,115.713,42.783,115.604,42.706z M119.586,42.869c-0.188-0.174-0.487-0.262-0.899-0.262h-0.361v2.162h0.361
			c0.414,0,0.717-0.088,0.899-0.253c0.183-0.167,0.274-0.444,0.274-0.822C119.86,43.312,119.769,43.038,119.586,42.869z
			 M132.666,38.484h-20.793c-0.92,0-1.664,0.709-1.664,1.582v25.439c0,0.875,0.744,1.584,1.664,1.584h9.213l-0.606-0.699h-6.656
			c-0.914,0-1.66-0.709-1.66-1.585V48.486h20.469v16.319c0,0.876-0.738,1.585-1.66,1.585h-0.938l-0.557,0.699h3.188
			c0.92,0,1.658-0.709,1.658-1.584V40.066C134.324,39.193,133.586,38.484,132.666,38.484z M116.422,43.898
			c-0.241,0.199-0.58,0.299-1.017,0.299h-0.729v1.233h-1.014v-3.478h1.674c0.473,0,0.838,0.096,1.078,0.281
			c0.248,0.188,0.367,0.467,0.367,0.828C116.783,43.42,116.664,43.698,116.422,43.898z M120.379,45
			c-0.354,0.287-0.885,0.431-1.596,0.431h-1.474v-3.478h1.474c0.711,0,1.241,0.146,1.596,0.434c0.354,0.292,0.529,0.727,0.529,1.308
			S120.733,44.709,120.379,45z M124.065,42.617h-1.553v0.807h1.439v0.657h-1.439v1.35h-1.012v-3.478h2.564V42.617L124.065,42.617z
			 M118.687,42.607h-0.361v2.162h0.361c0.414,0,0.717-0.088,0.899-0.253c0.183-0.167,0.274-0.444,0.274-0.822
			c0-0.382-0.094-0.656-0.274-0.825C119.396,42.695,119.099,42.607,118.687,42.607z M115.604,42.706
			c-0.1-0.069-0.26-0.104-0.481-0.104h-0.444v0.913h0.444c0.224,0,0.375-0.04,0.479-0.113c0.11-0.075,0.155-0.191,0.155-0.351
			C115.758,42.895,115.713,42.783,115.604,42.706z M119.586,42.869c-0.188-0.174-0.487-0.262-0.899-0.262h-0.361v2.162h0.361
			c0.414,0,0.717-0.088,0.899-0.253c0.183-0.167,0.274-0.444,0.274-0.822C119.86,43.312,119.769,43.038,119.586,42.869z
			 M115.604,42.706c-0.1-0.069-0.26-0.104-0.481-0.104h-0.444v0.913h0.444c0.224,0,0.375-0.04,0.479-0.113
			c0.11-0.075,0.155-0.191,0.155-0.351C115.758,42.895,115.713,42.783,115.604,42.706z M119.586,42.869
			c-0.188-0.174-0.487-0.262-0.899-0.262h-0.361v2.162h0.361c0.414,0,0.717-0.088,0.899-0.253c0.183-0.167,0.274-0.444,0.274-0.822
			C119.86,43.312,119.769,43.038,119.586,42.869z M115.604,42.706c-0.1-0.069-0.26-0.104-0.481-0.104h-0.444v0.913h0.444
			c0.224,0,0.375-0.04,0.479-0.113c0.11-0.075,0.155-0.191,0.155-0.351C115.758,42.895,115.713,42.783,115.604,42.706z"/>
		<polygon fill="#FFFFFF" points="120.248,64.575 125.354,70.484 130.092,64.575 127.748,64.575 127.744,63.135 122.817,63.135 
			122.836,64.575 		"/>
		<path fill="#FFFFFF" d="M127.729,61.689c0,0.209-0.18,0.384-0.401,0.384h-3.983c-0.226,0-0.408-0.175-0.408-0.384l0,0
			c0-0.215,0.184-0.386,0.408-0.386h3.983C127.551,61.304,127.729,61.475,127.729,61.689L127.729,61.689z"/>
		<path fill="#FFFFFF" d="M127.729,60.133c0,0.236-0.196,0.428-0.446,0.428h-3.902c-0.243,0-0.444-0.191-0.444-0.428l0,0
			c0-0.235,0.201-0.424,0.444-0.424h3.902C127.533,59.709,127.729,59.897,127.729,60.133L127.729,60.133z"/>
	</g>
	<g>
		<path fill="#FFFFFF" d="M29.109,51.293h-2.98v-9.4h2.637c0.924,0,1.621,0.064,2.084,0.191c0.457,0.123,0.879,0.331,1.244,0.621
			c0.527,0.414,0.928,0.971,1.213,1.658c0.281,0.688,0.42,1.477,0.42,2.36c0,0.712-0.1,1.378-0.301,1.976
			c-0.205,0.595-0.486,1.095-0.855,1.488c-0.391,0.398-0.832,0.68-1.348,0.848C30.719,51.209,30.01,51.293,29.109,51.293z
			 M29.393,50.173c1.006,0,1.76-0.288,2.264-0.862c0.504-0.571,0.752-1.435,0.752-2.587c0-1.216-0.279-2.157-0.834-2.813
			c-0.561-0.655-1.363-0.983-2.402-0.983h-1.781v7.246L29.393,50.173L29.393,50.173z"/>
		<path fill="#FFFFFF" d="M40.818,49.189c0,0.684-0.248,1.229-0.73,1.645c-0.479,0.416-1.121,0.623-1.91,0.623
			c-1.02,0-1.795-0.283-2.322-0.846c-0.525-0.561-0.789-1.378-0.789-2.461c0-1.155,0.258-2.035,0.775-2.65
			c0.52-0.61,1.27-0.916,2.236-0.916c0.889,0,1.588,0.255,2.098,0.76c0.512,0.508,0.77,1.202,0.77,2.078
			c0,0.209-0.004,0.372-0.014,0.482c0,0.11-0.012,0.209-0.018,0.311h-4.643v0.131v0.262c0,0.616,0.158,1.098,0.479,1.435
			c0.318,0.341,0.766,0.506,1.346,0.506c0.482,0,0.865-0.117,1.146-0.363c0.285-0.247,0.43-0.573,0.436-0.995h1.14V49.189z
			 M36.332,47.367h3.381v-0.145c0-0.547-0.146-0.98-0.449-1.317c-0.301-0.331-0.689-0.501-1.168-0.501
			c-0.518,0-0.941,0.182-1.268,0.543C36.5,46.309,36.332,46.785,36.332,47.367z"/>
		<path fill="#FFFFFF" d="M42.141,49.322h1.209v0.027c0,0.357,0.129,0.646,0.383,0.862c0.25,0.219,0.586,0.322,1.008,0.322
			c0.406,0,0.736-0.094,0.992-0.289c0.248-0.189,0.377-0.437,0.377-0.738c0-0.229-0.062-0.415-0.193-0.554
			c-0.129-0.142-0.328-0.24-0.596-0.311l-1.391-0.325c-0.588-0.136-1.025-0.347-1.311-0.63c-0.285-0.285-0.428-0.646-0.428-1.076
			c0-0.602,0.24-1.086,0.727-1.457c0.49-0.365,1.129-0.557,1.928-0.557c0.732,0,1.312,0.154,1.73,0.461
			c0.432,0.311,0.641,0.73,0.641,1.264c0,0.051,0,0.093,0,0.119s-0.012,0.056-0.012,0.076h-1.207V46.46
			c0-0.31-0.104-0.564-0.334-0.739c-0.219-0.185-0.523-0.279-0.91-0.279c-0.383,0-0.689,0.095-0.938,0.279
			c-0.246,0.175-0.369,0.402-0.369,0.678c0,0.215,0.072,0.385,0.221,0.513c0.148,0.129,0.396,0.241,0.738,0.335l1.494,0.406
			c0.512,0.135,0.893,0.353,1.143,0.644c0.248,0.282,0.365,0.655,0.365,1.12c0,0.617-0.232,1.11-0.705,1.48
			c-0.473,0.371-1.107,0.559-1.912,0.559c-0.914,0-1.584-0.164-2.01-0.482c-0.428-0.318-0.641-0.818-0.641-1.498L42.141,49.322
			L42.141,49.322z"/>
		<path fill="#FFFFFF" d="M54.109,49.092c-0.055,0.765-0.297,1.346-0.73,1.754c-0.441,0.404-1.053,0.611-1.828,0.611
			c-0.928,0-1.646-0.289-2.154-0.859c-0.504-0.572-0.76-1.384-0.76-2.443c0-1.119,0.268-1.996,0.797-2.629
			c0.529-0.629,1.262-0.941,2.211-0.941c0.73,0,1.316,0.205,1.752,0.598c0.441,0.397,0.658,0.93,0.658,1.596v0.023h-1.176
			c0-0.388-0.127-0.717-0.377-0.975c-0.258-0.266-0.574-0.395-0.951-0.395c-0.508,0-0.918,0.221-1.213,0.652
			c-0.299,0.438-0.443,1.034-0.443,1.787c0,0.881,0.137,1.547,0.408,1.992c0.281,0.448,0.688,0.671,1.223,0.671
			c0.422,0,0.758-0.13,1.01-0.389c0.262-0.262,0.391-0.617,0.402-1.054L54.109,49.092L54.109,49.092z"/>
		<path fill="#FFFFFF" d="M60.793,51.293h-1.082c-0.045-0.135-0.09-0.463-0.129-0.994v-0.037c-0.164,0.387-0.426,0.683-0.789,0.887
			c-0.357,0.203-0.795,0.309-1.312,0.309c-0.668,0-1.193-0.179-1.594-0.544c-0.398-0.362-0.602-0.837-0.602-1.437
			c0-0.693,0.277-1.237,0.83-1.647c0.553-0.407,1.307-0.606,2.264-0.606h1.133v-0.797c0-0.349-0.1-0.617-0.324-0.799
			c-0.217-0.184-0.539-0.273-0.967-0.273c-0.4,0-0.721,0.103-0.955,0.301c-0.24,0.197-0.357,0.471-0.373,0.822h-1.16v-0.104
			c0-0.574,0.207-1.02,0.619-1.327c0.416-0.31,1.012-0.462,1.791-0.462c0.902,0,1.561,0.162,1.971,0.479
			c0.406,0.325,0.617,0.843,0.617,1.561v4.047c0,0.055,0.006,0.136,0.012,0.253C60.76,51.035,60.77,51.158,60.793,51.293z
			 M59.512,48.043h-1.01c-0.629,0-1.111,0.121-1.457,0.35c-0.344,0.23-0.514,0.555-0.514,0.971c0,0.318,0.115,0.587,0.348,0.793
			c0.23,0.213,0.529,0.316,0.887,0.316c0.562,0,0.994-0.152,1.303-0.453c0.301-0.303,0.443-0.744,0.443-1.324V48.043z"/>
		<path fill="#FFFFFF" d="M62.672,51.293v-5.521c0-0.211-0.002-0.4-0.008-0.559c-0.008-0.154-0.018-0.312-0.035-0.467h1.217
			l0.023,1.25c0.121-0.41,0.332-0.727,0.643-0.938c0.307-0.213,0.709-0.312,1.201-0.312c0.086,0,0.174,0.004,0.258,0.009
			c0.082,0.005,0.164,0.017,0.238,0.034v1.133c-0.129-0.029-0.25-0.049-0.363-0.065c-0.107-0.009-0.209-0.017-0.293-0.017
			c-0.537,0-0.953,0.15-1.248,0.458c-0.285,0.306-0.436,0.744-0.436,1.313v3.682H62.672z"/>
		<path fill="#FFFFFF" d="M71.963,50.051c-0.127,0.261-0.379,0.479-0.756,0.672c-0.379,0.18-0.777,0.275-1.186,0.275
			c-0.926,0-1.631-0.274-2.121-0.825c-0.498-0.55-0.74-1.339-0.74-2.379c0-0.974,0.248-1.755,0.758-2.329
			c0.502-0.58,1.182-0.867,2.037-0.867c0.508,0,0.938,0.078,1.285,0.241c0.346,0.157,0.619,0.396,0.811,0.716l0.047-0.809h1.137
			c-0.018,0.184-0.033,0.367-0.039,0.546c-0.01,0.177-0.014,0.386-0.014,0.613v5.179c0,0.978-0.242,1.693-0.73,2.135
			c-0.488,0.451-1.26,0.677-2.316,0.677c-0.918,0-1.586-0.181-2.008-0.524c-0.418-0.352-0.633-0.908-0.639-1.668h1.305
			c0.004,0.437,0.131,0.768,0.379,0.993c0.246,0.23,0.613,0.347,1.088,0.347c0.578,0,1.008-0.143,1.285-0.43
			c0.281-0.285,0.418-0.729,0.418-1.33L71.963,50.051L71.963,50.051z M72.109,47.731c0-0.703-0.168-1.27-0.504-1.685
			c-0.338-0.42-0.791-0.632-1.346-0.632c-0.564,0-1.006,0.23-1.336,0.677c-0.334,0.454-0.498,1.066-0.498,1.84
			c0,0.707,0.174,1.268,0.51,1.684c0.328,0.412,0.775,0.624,1.346,0.624c0.553,0,0.994-0.226,1.33-0.675
			C71.945,49.112,72.109,48.506,72.109,47.731z"/>
		<path fill="#FFFFFF" d="M80.287,51.293h-1.082c-0.039-0.135-0.082-0.463-0.129-0.994v-0.037c-0.166,0.387-0.426,0.683-0.787,0.887
			c-0.357,0.203-0.797,0.309-1.314,0.309c-0.664,0-1.195-0.179-1.592-0.544c-0.402-0.362-0.604-0.837-0.604-1.437
			c0-0.693,0.283-1.237,0.83-1.647c0.553-0.407,1.303-0.606,2.266-0.606h1.139v-0.797c0-0.349-0.113-0.617-0.33-0.799
			c-0.221-0.184-0.537-0.273-0.963-0.273c-0.404,0-0.729,0.103-0.967,0.301c-0.234,0.197-0.355,0.471-0.369,0.822h-1.152v-0.104
			c0-0.574,0.203-1.02,0.617-1.327c0.414-0.31,1.012-0.462,1.785-0.462c0.902,0,1.562,0.162,1.977,0.479
			c0.41,0.325,0.613,0.843,0.613,1.561v4.047c0,0.055,0.008,0.136,0.014,0.253C80.248,51.035,80.266,51.158,80.287,51.293z
			 M79.014,48.043h-1.021c-0.623,0-1.113,0.121-1.449,0.35c-0.348,0.23-0.52,0.555-0.52,0.971c0,0.318,0.117,0.587,0.354,0.793
			c0.234,0.213,0.527,0.316,0.883,0.316c0.566,0,1-0.152,1.299-0.453c0.305-0.303,0.455-0.744,0.455-1.324L79.014,48.043
			L79.014,48.043z"/>
		<path fill="#FFFFFF" d="M82.172,51.293v-5.521c0-0.211-0.006-0.4-0.016-0.559c-0.006-0.154-0.014-0.312-0.027-0.467h1.213
			l0.02,1.25c0.123-0.41,0.336-0.727,0.643-0.938c0.311-0.213,0.713-0.312,1.203-0.312c0.09,0,0.172,0.004,0.256,0.009
			c0.084,0.005,0.16,0.017,0.24,0.034v1.133c-0.135-0.029-0.254-0.049-0.365-0.065c-0.105-0.009-0.205-0.017-0.291-0.017
			c-0.539,0-0.955,0.15-1.246,0.458c-0.291,0.306-0.439,0.744-0.439,1.313v3.682H82.172z"/>
		<path fill="#FFFFFF" d="M44.57,63.079v-8.876h3.094c0.971,0,1.695,0.203,2.174,0.605c0.477,0.414,0.715,1.021,0.715,1.837
			c0,0.872-0.279,1.516-0.832,1.928c-0.562,0.406-1.439,0.612-2.639,0.612h-1.328v3.894H44.57z M47.467,58.089
			c0.656,0,1.125-0.112,1.41-0.333c0.281-0.225,0.422-0.586,0.422-1.083c0-0.517-0.137-0.89-0.42-1.111
			c-0.281-0.22-0.75-0.335-1.412-0.335h-1.713v2.862H47.467z"/>
		<path fill="#FFFFFF" d="M54.811,63.079H52v-8.876h2.488c0.869,0,1.523,0.062,1.963,0.182c0.434,0.115,0.828,0.312,1.174,0.584
			c0.5,0.395,0.879,0.916,1.143,1.566c0.27,0.649,0.4,1.395,0.4,2.228c0,0.673-0.096,1.299-0.289,1.862
			c-0.186,0.566-0.455,1.033-0.805,1.403c-0.363,0.374-0.785,0.647-1.268,0.806C56.33,62.996,55.66,63.079,54.811,63.079z
			 M55.078,62.015c0.949,0,1.662-0.27,2.133-0.81c0.479-0.54,0.711-1.352,0.711-2.442c0-1.15-0.262-2.036-0.785-2.657
			c-0.531-0.615-1.287-0.926-2.268-0.926h-1.684v6.835H55.078z"/>
		<path fill="#FFFFFF" d="M60.838,63.079v-8.876H66v1.068h-3.977v2.718h3.766v1.057h-3.766v4.033H60.838z"/>
	</g>
	<g>
		<g>
			<path fill="#FFFFFF" d="M64.338,146.896c-0.02,0.803-0.334,1.436-0.924,1.906c-0.605,0.471-1.406,0.706-2.418,0.706
				c-1.234,0-2.178-0.403-2.822-1.198c-0.65-0.799-0.975-1.957-0.975-3.467c0-1.517,0.34-2.691,1.02-3.513
				c0.68-0.83,1.646-1.246,2.895-1.246c0.982,0,1.752,0.228,2.32,0.679c0.559,0.444,0.859,1.067,0.879,1.854h-1.295
				c-0.041-0.47-0.25-0.843-0.621-1.134c-0.371-0.289-0.83-0.432-1.4-0.432c-0.785,0-1.398,0.326-1.832,0.986
				c-0.441,0.658-0.66,1.578-0.66,2.764c0,1.166,0.219,2.062,0.648,2.697c0.432,0.637,1.047,0.959,1.844,0.959
				c0.576,0,1.039-0.141,1.393-0.414c0.35-0.281,0.543-0.666,0.588-1.15h1.36V146.896z"/>
			<path fill="#FFFFFF" d="M65.842,149.354v-5.365c0-0.207,0-0.393-0.008-0.543c-0.002-0.15-0.016-0.303-0.021-0.455h1.172
				l0.021,1.215c0.117-0.4,0.322-0.705,0.629-0.91c0.291-0.209,0.684-0.305,1.162-0.305c0.086,0,0.17,0,0.248,0.008
				c0.084,0.006,0.16,0.016,0.232,0.031v1.1c-0.127-0.023-0.24-0.045-0.352-0.057c-0.107-0.012-0.199-0.021-0.285-0.021
				c-0.525,0-0.926,0.148-1.207,0.451c-0.281,0.291-0.428,0.717-0.428,1.273v3.578H65.842z"/>
			<path fill="#FFFFFF" d="M75.793,147.31c-0.004,0.66-0.238,1.192-0.707,1.592c-0.473,0.404-1.09,0.606-1.863,0.606
				c-0.984,0-1.74-0.271-2.252-0.819c-0.512-0.549-0.764-1.34-0.764-2.394c0-1.125,0.252-1.978,0.752-2.571
				c0.506-0.588,1.232-0.89,2.17-0.89c0.865,0,1.545,0.242,2.039,0.737c0.494,0.498,0.738,1.166,0.738,2.017
				c0,0.207,0,0.363-0.004,0.476c-0.004,0.104-0.01,0.201-0.018,0.301h-4.508v0.121v0.256c0,0.605,0.15,1.07,0.459,1.391
				c0.307,0.334,0.744,0.496,1.316,0.496c0.463,0,0.838-0.117,1.105-0.359c0.279-0.233,0.416-0.553,0.432-0.959H75.793
				L75.793,147.31z M71.434,145.535h3.283v-0.142c0-0.529-0.148-0.953-0.436-1.281c-0.291-0.319-0.674-0.479-1.129-0.479
				c-0.508,0-0.92,0.177-1.242,0.527C71.594,144.504,71.434,144.97,71.434,145.535z M72.184,142.149l1.262-2.151h1.246l-1.764,2.151
				H72.184z"/>
			<path fill="#FFFFFF" d="M82.096,149.354l-0.053-0.941c-0.293,0.387-0.602,0.666-0.926,0.838c-0.316,0.17-0.693,0.258-1.113,0.258
				c-0.873,0-1.564-0.297-2.07-0.881c-0.51-0.582-0.764-1.387-0.764-2.406c0-1.051,0.244-1.861,0.742-2.447
				c0.494-0.592,1.176-0.885,2.053-0.885c0.432,0,0.828,0.088,1.178,0.266c0.355,0.183,0.654,0.449,0.9,0.798v-3.731h1.168v7.864
				c0,0.226,0.006,0.437,0.016,0.644c0.014,0.213,0.029,0.416,0.059,0.627h-1.19V149.354z M78.395,146.095
				c0,0.809,0.164,1.457,0.5,1.928c0.33,0.473,0.771,0.711,1.311,0.711c0.564,0,1.008-0.221,1.342-0.662
				c0.332-0.438,0.496-1.025,0.496-1.775c0-0.809-0.16-1.453-0.492-1.926c-0.332-0.473-0.77-0.717-1.314-0.717
				c-0.559,0-1.006,0.225-1.34,0.662C78.559,144.761,78.395,145.351,78.395,146.095z"/>
			<path fill="#FFFFFF" d="M86.457,141.519h-1.373v-1.299h1.373V141.519z M85.191,149.354v-6.363h1.172v6.363H85.191z"/>
			<path fill="#FFFFFF" d="M87.48,142.989h1.084v-1.311l1.164-0.396v1.706h1.418v0.839h-1.418v3.901c0,0.328,0.055,0.549,0.16,0.652
				c0.113,0.104,0.33,0.158,0.65,0.158c0.086,0,0.17-0.01,0.264-0.021c0.098-0.018,0.203-0.033,0.318-0.061v0.879
				c-0.191,0.051-0.365,0.088-0.518,0.111c-0.15,0.031-0.289,0.045-0.404,0.045c-0.602,0-1.018-0.1-1.266-0.309
				c-0.246-0.207-0.369-0.552-0.369-1.047v-4.312H87.48V142.989z"/>
			<path fill="#FFFFFF" d="M92.033,146.295c0-1.065,0.279-1.905,0.85-2.521c0.566-0.619,1.336-0.926,2.316-0.926
				c0.989,0,1.762,0.287,2.309,0.862c0.552,0.572,0.824,1.382,0.824,2.406c0,1.071-0.281,1.903-0.854,2.495
				c-0.561,0.597-1.358,0.896-2.393,0.896c-0.939,0-1.691-0.291-2.238-0.861C92.305,148.069,92.033,147.285,92.033,146.295z
				 M95.199,143.69c-0.605,0-1.08,0.226-1.437,0.681c-0.35,0.457-0.527,1.077-0.527,1.856c0,0.769,0.166,1.349,0.511,1.767
				c0.336,0.411,0.815,0.618,1.428,0.618c0.613,0,1.097-0.217,1.443-0.653c0.354-0.444,0.526-1.049,0.526-1.83
				c0-0.772-0.168-1.368-0.51-1.799C96.295,143.897,95.815,143.69,95.199,143.69z"/>
			<path fill="#FFFFFF" d="M99.528,147.438h1.177v0.022c0,0.351,0.119,0.625,0.366,0.838c0.244,0.212,0.572,0.313,0.984,0.313
				c0.394,0,0.715-0.09,0.963-0.278c0.244-0.183,0.367-0.424,0.367-0.722c0-0.225-0.064-0.403-0.189-0.532
				c-0.125-0.136-0.319-0.244-0.579-0.302l-1.353-0.317c-0.568-0.133-0.994-0.338-1.272-0.612c-0.277-0.275-0.416-0.621-0.416-1.045
				c0-0.582,0.233-1.056,0.709-1.414c0.478-0.363,1.096-0.541,1.866-0.541c0.711,0,1.279,0.149,1.691,0.446
				c0.412,0.3,0.615,0.709,0.615,1.229c0,0.049,0,0.092,0,0.115c0,0.026-0.004,0.049-0.01,0.069h-1.168v-0.051
				c0-0.304-0.107-0.548-0.326-0.726c-0.217-0.172-0.518-0.264-0.891-0.264c-0.369,0-0.67,0.092-0.91,0.264
				c-0.236,0.178-0.354,0.402-0.354,0.662c0,0.213,0.063,0.373,0.211,0.5c0.146,0.131,0.388,0.238,0.718,0.322l1.446,0.396
				c0.505,0.131,0.873,0.338,1.113,0.619c0.239,0.28,0.356,0.646,0.356,1.09c0,0.606-0.229,1.084-0.688,1.442
				c-0.457,0.358-1.078,0.541-1.854,0.541c-0.888,0-1.537-0.153-1.951-0.467c-0.416-0.31-0.621-0.791-0.621-1.453V147.438
				L99.528,147.438z"/>
		</g>
	</g>
	<g>
		<path fill="#FFFFFF" d="M147.287,147.502c-0.812,0.511-1.647,0.59-2.474,0.177c-0.346-0.177-0.658-0.324-1.051-0.396
			c-0.832-0.145-1.611-1.053-1.695-1.885c-0.014-0.183,0.084-0.385,0.029-0.547c-0.057-0.158-0.26-0.261-0.359-0.416
			c-0.403-0.644-0.331-1.828,0.277-2.332c0.045-0.031,0.057-0.131,0.049-0.195c-0.108-0.76,0.08-1.414,0.67-1.922
			c0.146-0.117,0.377-0.164,0.474-0.305c0.097-0.142,0.047-0.367,0.103-0.543c0.192-0.586,0.565-1.005,1.182-1.183
			c0.057-0.019,0.137-0.063,0.156-0.117c0.338-0.952,1.85-1.164,2.567-0.414c0.017,0.019,0.031,0.029,0.058,0.05
			c0.434-0.435,0.957-0.58,1.555-0.466c0.49,0.095,0.861,0.349,1.068,0.812c0.022,0.058,0.074,0.111,0.127,0.125
			c0.865,0.265,1.252,0.882,1.307,1.746c0,0.011,0.004,0.015,0.006,0.021c0.92,0.461,1.301,1.205,1.145,2.215
			c-0.012,0.059,0.015,0.148,0.058,0.182c0.717,0.588,0.698,2.164-0.037,2.688c-0.033,0.022-0.063,0.095-0.058,0.138
			c0.164,0.826-0.248,1.41-0.815,1.918c-0.375,0.33-0.812,0.535-1.338,0.471c-0.047-0.002-0.117,0.016-0.147,0.055
			c-0.293,0.35-0.689,0.48-1.119,0.523C148.399,147.959,147.797,147.901,147.287,147.502z M147.531,144.123c0,0.862,0,1.744,0,2.625
			c0,0.317,0.106,0.487,0.399,0.59c0.437,0.16,0.879,0.149,1.318,0.05c0.094-0.021,0.186-0.08,0.262-0.144
			c0.406-0.324,0.572-1.125,0.338-1.584c-0.129-0.253-0.447-0.416-0.697-0.354c-0.276,0.065-0.455,0.311-0.455,0.627
			c-0.004,0.063,0,0.123,0,0.194c-0.166,0.037-0.307,0.074-0.45,0.11c-0.257-0.637,0.248-1.426,0.92-1.461
			c0.771-0.041,1.351,0.595,1.289,1.412c-0.017,0.203-0.054,0.406-0.086,0.631c0.59-0.002,0.973-0.332,1.286-0.743
			c0.236-0.308,0.402-0.646,0.267-1.05c-0.137,0-0.26,0.006-0.383,0c-1.017-0.022-1.513-0.771-1.127-1.711
			c0.088-0.207,0.217-0.401,0.344-0.594c0.229-0.35,0.115-0.727-0.278-0.867c-0.103-0.035-0.207-0.059-0.314-0.076
			c-0.289-0.045-0.529,0.076-0.6,0.359c-0.062,0.229-0.084,0.48-0.054,0.715c0.101,0.765-0.354,1.344-1.122,1.359
			C148.108,144.224,147.838,144.158,147.531,144.123z M145.853,146.121c0-0.062,0-0.101,0-0.142
			c0.008-0.367-0.188-0.637-0.492-0.684c-0.299-0.043-0.623,0.174-0.713,0.5c-0.123,0.475-0.047,0.918,0.252,1.307
			c0.092,0.115,0.238,0.229,0.375,0.271c0.459,0.129,0.922,0.127,1.373-0.052c0.258-0.096,0.375-0.282,0.373-0.561
			c-0.013-0.828-0.004-1.654-0.004-2.48c0-0.061-0.009-0.127-0.013-0.196c-0.133,0.037-0.248,0.074-0.366,0.099
			c-1.021,0.219-1.779-0.406-1.576-1.406c0.033-0.162,0.008-0.342-0.021-0.512c-0.043-0.265-0.195-0.455-0.473-0.484
			c-0.314-0.039-0.615,0.035-0.805,0.303c-0.171,0.238-0.068,0.467,0.067,0.699c0.16,0.27,0.313,0.551,0.397,0.85
			c0.17,0.623-0.139,1.141-0.76,1.311c-0.264,0.074-0.547,0.078-0.855,0.113c-0.135,0.451,0.097,0.824,0.388,1.154
			c0.308,0.35,0.66,0.629,1.179,0.604c-0.033-0.237-0.072-0.451-0.087-0.668c-0.038-0.692,0.354-1.217,1.011-1.346
			c0.393-0.078,0.731,0.031,0.983,0.344c0.261,0.318,0.338,0.685,0.235,1.103C146.156,146.201,146.006,146.16,145.853,146.121z
			 M142.787,142.312c-0.666,0.315-0.834,0.608-0.777,1.336c0.054,0.625,0.425,0.93,1.041,0.854c0.564-0.067,0.814-0.453,0.609-0.979
			c-0.086-0.213-0.229-0.41-0.356-0.607c-0.294-0.451-0.248-0.918,0.151-1.279c0.34-0.312,0.748-0.404,1.198-0.336
			c0.064,0.014,0.146,0.025,0.203-0.002c0.279-0.137,0.545-0.297,0.83-0.428c0.5-0.23,0.679-0.713,0.373-1.168
			c-0.113-0.17-0.322-0.307-0.521-0.381c-0.438-0.164-0.851-0.326-0.951-0.861c-0.467,0.15-0.771,0.428-0.836,0.893
			c-0.071,0.5,0.185,0.834,0.627,1.062c-0.065,0.153-0.129,0.304-0.219,0.517c-0.295-0.24-0.558-0.457-0.836-0.687
			C142.623,140.437,142.39,141.254,142.787,142.312z M149.969,138.483c-0.204,0.494-0.307,0.593-0.836,0.783
			c-0.088,0.031-0.176,0.064-0.26,0.101c-0.308,0.116-0.459,0.354-0.515,0.666c-0.069,0.394,0.146,0.69,0.576,0.864
			c0.236,0.097,0.457,0.229,0.688,0.336c0.084,0.037,0.185,0.078,0.267,0.064c0.452-0.066,0.856,0.025,1.205,0.332
			c0.377,0.332,0.444,0.816,0.178,1.24c-0.084,0.135-0.205,0.252-0.263,0.395c-0.086,0.207-0.172,0.43-0.178,0.654
			c-0.006,0.293,0.217,0.492,0.528,0.559c0.476,0.101,0.839-0.016,1.019-0.317c0.404-0.688,0.158-1.481-0.562-1.817
			c-0.019-0.009-0.031-0.023-0.031-0.023c0.059-0.264,0.137-0.506,0.17-0.758c0.072-0.572-0.184-1.082-0.604-1.279
			c-0.123-0.057-0.199-0.059-0.285,0.068c-0.17,0.248-0.41,0.41-0.707,0.521c-0.064-0.164-0.129-0.312-0.188-0.451
			c0.504-0.301,0.703-0.668,0.625-1.106C150.719,138.897,150.385,138.562,149.969,138.483z M149.272,141.586
			c-0.146-0.062-0.276-0.114-0.405-0.174c-0.171-0.076-0.351-0.142-0.5-0.242c-0.416-0.289-0.597-0.698-0.521-1.194
			c0.082-0.511,0.316-0.904,0.854-1.054c0.125-0.032,0.25-0.073,0.364-0.133c0.488-0.233,0.543-0.765,0.101-1.082
			c-0.39-0.28-0.812-0.302-1.24-0.095c-0.26,0.13-0.396,0.353-0.396,0.646c0,1.592-0.006,3.186,0.005,4.779
			c0.002,0.537,0.067,0.596,0.616,0.625c0.041,0.002,0.084,0.002,0.129,0.002c0.558-0.004,0.771-0.27,0.697-0.822
			C148.912,142.399,148.933,141.97,149.272,141.586z M145.263,141.586c0.276,0.278,0.35,0.588,0.331,0.922
			c-0.004,0.142-0.01,0.285-0.028,0.429c-0.06,0.428,0.135,0.694,0.559,0.715c0.246,0.012,0.498-0.049,0.744-0.084
			c0.119-0.017,0.152-0.094,0.152-0.217c-0.004-1.699,0-3.398-0.013-5.097c0-0.17-0.086-0.362-0.192-0.483
			c-0.371-0.422-1.234-0.367-1.582,0.076c-0.25,0.321-0.18,0.711,0.184,0.907c0.162,0.091,0.342,0.144,0.52,0.199
			c0.312,0.106,0.523,0.315,0.65,0.614c0.322,0.773,0.014,1.502-0.771,1.802C145.646,141.437,145.469,141.504,145.263,141.586z"/>
		<path fill="#FFFFFF" d="M155.233,142.504c0,4.461-3.612,8.076-8.078,8.076c-4.463,0-8.079-3.615-8.079-8.076
			c0-4.465,3.616-8.082,8.079-8.082C151.621,134.422,155.233,138.039,155.233,142.504z M157.031,142.504
			c0-5.457-4.421-9.875-9.875-9.875c-5.453,0-9.875,4.418-9.875,9.875c0,4.097,2.491,7.606,6.043,9.103
			c0.006,0.004,0.963,1.117,1.002,1.92s0,1.072,0,1.072h5.588c0,0-0.185-0.979,0.271-1.916c0.219-0.447,0.416-0.773,0.569-0.99
			C154.429,150.252,157.031,146.687,157.031,142.504z"/>
		<path fill="#FFFFFF" d="M147.231,157.446c0.722,0,1.451-0.063,2.158,0.029c0.332,0.043,0.848,0.363,0.879,0.609
			c0.039,0.307-0.309,0.686-0.537,0.998c-0.194,0.268-0.479,0.469-0.688,0.727c-0.851,1.047-2.276,1.26-3.351,0.443
			c-0.559-0.428-1.094-0.9-1.565-1.42c-0.168-0.184-0.246-0.639-0.135-0.842c0.141-0.25,0.512-0.49,0.801-0.514
			c0.81-0.068,1.625-0.025,2.438-0.025C147.231,157.451,147.231,157.448,147.231,157.446z"/>
		<path fill="#FFFFFF" d="M147.101,156.729c-0.72,0-1.437,0.01-2.154-0.002c-0.549-0.013-1.023-0.189-1.037-0.828
			c-0.012-0.652,0.445-0.818,1.012-0.816c1.498,0.004,2.998,0.006,4.496,0c0.551-0.002,1.014,0.242,0.908,0.785
			c-0.066,0.332-0.543,0.764-0.891,0.82C148.676,156.812,147.881,156.728,147.101,156.729z"/>
		<path fill="#FFFFFF" d="M136.459,138.099c-0.767-0.443-1.385-0.804-2.151-1.248c0.403-0.701,0.772-1.345,1.225-2.131
			c0.756,0.452,1.434,0.856,2.15,1.288C137.267,136.722,136.901,137.342,136.459,138.099z"/>
		<path fill="#FFFFFF" d="M156.74,135.983c0.784-0.446,1.411-0.807,2.161-1.233c0.418,0.688,0.81,1.332,1.269,2.088
			c-0.721,0.429-1.375,0.813-2.135,1.267C157.612,137.414,157.217,136.767,156.74,135.983z"/>
		<path fill="#FFFFFF" d="M139.051,131.213c0.755-0.442,1.369-0.805,2.104-1.237c0.436,0.729,0.82,1.373,1.277,2.141
			c-0.724,0.434-1.365,0.818-2.113,1.268C139.894,132.653,139.51,132,139.051,131.213z"/>
		<path fill="#FFFFFF" d="M155.412,131.194c-0.468,0.793-0.838,1.423-1.267,2.148c-0.719-0.412-1.375-0.785-2.11-1.207
			c0.422-0.738,0.78-1.367,1.225-2.143C153.974,130.394,154.627,130.758,155.412,131.194z"/>
		<path fill="#FFFFFF" d="M133.151,141.812c0.752,0,1.468,0,2.273,0c0,0.721,0,1.426,0,2.213c-0.752,0-1.465,0-2.273,0
			C133.151,143.285,133.151,142.582,133.151,141.812z"/>
		<path fill="#FFFFFF" d="M146.16,128.752c0.782,0,1.463,0,2.229,0c0,0.776,0,1.49,0,2.315c-0.703,0-1.414,0-2.229,0
			C146.16,130.36,146.16,129.61,146.16,128.752z"/>
		<path fill="#FFFFFF" d="M159.062,143.992c0-0.718,0-1.39,0-2.154c0.752,0,1.502,0,2.332,0c0,0.701,0,1.371,0,2.154
			C160.644,143.992,159.896,143.992,159.062,143.992z"/>
		<path fill="#FFFFFF" d="M135.521,151.097c-0.433-0.763-0.789-1.388-1.22-2.146c0.714-0.412,1.373-0.791,2.173-1.25
			c0.354,0.762,0.67,1.441,1.03,2.227C136.862,150.302,136.278,150.646,135.521,151.097z"/>
		<path fill="#FFFFFF" d="M158.942,151.067c-0.686-0.387-1.268-0.717-1.969-1.11c0.314-0.752,0.603-1.438,0.959-2.287
			c0.793,0.461,1.474,0.854,2.219,1.289C159.724,149.707,159.349,150.36,158.942,151.067z"/>
	</g>
	<g>
		<g>
			<path fill="#FFFFFF" d="M163.369,96.696c0,1.002,0,2.002,0,3.002c-0.065,0.404-0.134,0.81-0.193,1.214
				c-1.11,7.202-6.838,11.672-12.231,12.875c-0.736,0.161-1.49,0.271-2.236,0.403c-0.914,0-1.832,0-2.75,0
				c-0.279-0.051-0.562-0.108-0.846-0.147c-6.437-0.905-11.83-5.836-13.318-12.188c-0.168-0.742-0.275-1.494-0.41-2.242
				c0-0.938,0-1.887,0-2.829c0.025-0.06,0.062-0.121,0.072-0.187c0.508-4.682,2.717-8.414,6.396-11.281
				c3.512-2.732,7.555-3.52,11.891-2.951c6.453,0.84,11.781,5.73,13.211,12.066C163.119,95.183,163.228,95.94,163.369,96.696z
				 M147.394,111.231c6.045,0.095,13.11-4.787,13.082-12.91c-0.027-7.381-5.729-13.136-12.99-13.231
				c-7.969-0.098-13.258,6.897-13.213,13.068C134.33,105.306,140.229,111.231,147.394,111.231z"/>
			<path fill="#FFFFFF" d="M145.269,99.646c0.674,0.344,1.311,0.668,1.983,1.004c-0.715,1.289-1.752,2.086-3.149,2.42
				c-2.156,0.5-4.396-0.438-5.293-2.264c-0.666-1.347-0.701-2.781-0.354-4.22c0.301-1.228,1.021-2.144,2.101-2.772
				c1.771-1.041,5.297-0.9,6.655,1.742c-0.705,0.362-1.405,0.731-2.014,1.047c-0.437-0.375-0.773-0.779-1.197-1.019
				c-0.937-0.508-2.103-0.09-2.513,0.888c-0.463,1.088-0.459,2.211-0.032,3.319c0.297,0.754,0.871,1.174,1.68,1.224
				c0.851,0.047,1.517-0.275,1.951-1.025C145.135,99.896,145.187,99.799,145.269,99.646z"/>
			<path fill="#FFFFFF" d="M156.431,95.556c-0.697,0.366-1.382,0.729-2.093,1.106c-0.112-0.17-0.213-0.33-0.328-0.479
				c-0.442-0.591-1.036-0.859-1.77-0.785c-0.771,0.074-1.339,0.463-1.603,1.205c-0.352,1.014-0.369,2.037-0.014,3.057
				c0.283,0.809,0.846,1.297,1.717,1.355c0.879,0.055,1.562-0.293,1.996-1.084c0.041-0.072,0.082-0.146,0.127-0.211
				c0.004-0.017,0.02-0.021,0.062-0.054c0.635,0.313,1.285,0.638,1.971,0.979c-0.729,1.275-1.752,2.125-3.156,2.408
				c-1.842,0.354-3.518,0.02-4.793-1.482c-0.85-1.012-1.053-2.235-1.043-3.51c0.02-1.074,0.242-2.104,0.893-2.981
				c1.06-1.437,2.527-1.966,4.258-1.851c1.515,0.105,2.761,0.681,3.603,1.996C156.315,95.321,156.362,95.416,156.431,95.556z"/>
		</g>
	</g>
	<g>
		<g>
			<path fill="#FFFFFF" d="M64.85,94.478c-0.018,0.803-0.324,1.44-0.922,1.91c-0.602,0.471-1.404,0.715-2.422,0.715
				c-1.23,0-2.18-0.408-2.834-1.209c-0.648-0.804-0.975-1.955-0.975-3.479c0-1.517,0.342-2.688,1.027-3.521
				c0.68-0.828,1.65-1.242,2.902-1.242c0.979,0,1.756,0.226,2.314,0.677c0.574,0.45,0.863,1.069,0.887,1.86h-1.301
				c-0.037-0.465-0.24-0.842-0.611-1.133c-0.373-0.291-0.844-0.438-1.41-0.438c-0.781,0-1.398,0.326-1.838,0.99
				c-0.443,0.658-0.66,1.582-0.66,2.768c0,1.176,0.215,2.072,0.654,2.705c0.432,0.639,1.049,0.957,1.844,0.957
				c0.578,0,1.049-0.137,1.391-0.414c0.354-0.275,0.553-0.658,0.598-1.148h1.356V94.478z"/>
			<path fill="#FFFFFF" d="M66.365,96.938v-5.373c0-0.211-0.002-0.387-0.008-0.539c-0.008-0.154-0.016-0.314-0.027-0.465h1.176
				l0.029,1.227c0.115-0.408,0.32-0.713,0.619-0.916c0.301-0.209,0.693-0.311,1.168-0.311c0.092,0,0.174,0.002,0.254,0.01
				c0.084,0.008,0.156,0.02,0.23,0.037v1.096c-0.127-0.031-0.242-0.041-0.352-0.055c-0.111-0.014-0.203-0.021-0.283-0.021
				c-0.527,0-0.932,0.148-1.219,0.451c-0.275,0.291-0.418,0.721-0.418,1.279v3.58H66.365z"/>
			<path fill="#FFFFFF" d="M76.332,94.896c0,0.653-0.24,1.194-0.703,1.6c-0.473,0.4-1.1,0.607-1.865,0.607
				c-0.996,0-1.748-0.281-2.26-0.824c-0.514-0.551-0.771-1.344-0.771-2.404c0-1.117,0.256-1.979,0.762-2.572
				c0.508-0.594,1.23-0.893,2.178-0.893c0.857,0,1.541,0.244,2.037,0.74c0.5,0.494,0.746,1.166,0.746,2.021
				c0,0.207-0.002,0.356-0.008,0.472c0,0.104-0.008,0.211-0.018,0.303h-4.525v0.119v0.26c0,0.605,0.156,1.068,0.471,1.398
				c0.309,0.327,0.748,0.491,1.312,0.491c0.467,0,0.836-0.118,1.111-0.358c0.277-0.232,0.42-0.558,0.426-0.959H76.332z
				 M71.969,93.119h3.289v-0.144c0-0.535-0.15-0.955-0.438-1.287c-0.297-0.321-0.668-0.481-1.133-0.481
				c-0.51,0-0.92,0.176-1.242,0.53C72.125,92.086,71.969,92.545,71.969,93.119z"/>
			<path fill="#FFFFFF" d="M82.982,96.938h-1.061c-0.035-0.131-0.082-0.451-0.117-0.965v-0.039c-0.16,0.379-0.42,0.66-0.771,0.86
				c-0.348,0.205-0.771,0.308-1.277,0.308c-0.646,0-1.164-0.181-1.551-0.527c-0.393-0.361-0.586-0.828-0.586-1.402
				c0-0.674,0.271-1.211,0.809-1.605c0.535-0.391,1.271-0.59,2.203-0.59h1.107v-0.776c0-0.343-0.104-0.604-0.316-0.777
				c-0.217-0.176-0.527-0.264-0.943-0.264c-0.389,0-0.701,0.098-0.93,0.291c-0.23,0.198-0.352,0.465-0.363,0.795h-1.135v-0.093
				c0-0.569,0.203-0.993,0.609-1.295c0.404-0.301,0.984-0.448,1.742-0.448c0.877,0,1.518,0.153,1.92,0.463
				c0.4,0.313,0.6,0.817,0.6,1.521v3.939c0,0.055,0.006,0.135,0.012,0.242C82.943,96.687,82.959,96.808,82.982,96.938z
				 M81.738,93.772h-0.982c-0.615,0-1.084,0.111-1.424,0.345c-0.332,0.219-0.5,0.532-0.5,0.94c0,0.312,0.119,0.568,0.34,0.771
				c0.227,0.205,0.518,0.309,0.861,0.309c0.553,0,0.971-0.152,1.27-0.443c0.289-0.293,0.436-0.723,0.436-1.289L81.738,93.772
				L81.738,93.772z"/>
			<path fill="#FFFFFF" d="M83.971,90.562h1.084v-1.306l1.166-0.397v1.703h1.42v0.838h-1.42v3.92c0,0.33,0.053,0.545,0.16,0.647
				c0.113,0.106,0.33,0.16,0.652,0.16c0.082,0,0.172-0.004,0.268-0.021c0.092-0.012,0.199-0.037,0.318-0.066v0.887
				c-0.193,0.053-0.365,0.088-0.518,0.119c-0.154,0.021-0.287,0.037-0.408,0.037c-0.6,0-1.023-0.104-1.273-0.309
				c-0.244-0.205-0.365-0.553-0.365-1.047v-4.328h-1.084V90.562z"/>
			<path fill="#FFFFFF" d="M90.148,89.084h-1.381v-1.291h1.381V89.084z M88.875,96.938v-6.377h1.18v6.377H88.875z"/>
			<path fill="#FFFFFF" d="M93.856,96.938l-2.604-6.377h1.186l2.041,5.057l2.06-5.057h1.166l-2.692,6.377H93.856z"/>
			<path fill="#FFFFFF" d="M104.183,94.896c-0.007,0.653-0.246,1.194-0.713,1.6c-0.468,0.4-1.091,0.607-1.865,0.607
				c-0.99,0-1.742-0.281-2.258-0.824c-0.513-0.551-0.767-1.344-0.767-2.404c0-1.117,0.252-1.979,0.754-2.572
				c0.513-0.594,1.237-0.893,2.181-0.893c0.864,0,1.545,0.244,2.039,0.74c0.497,0.494,0.743,1.166,0.743,2.021
				c0,0.207,0,0.356-0.006,0.472c-0.004,0.104-0.01,0.211-0.019,0.303h-4.524v0.119v0.26c0,0.605,0.155,1.068,0.469,1.398
				c0.31,0.327,0.746,0.491,1.316,0.491c0.465,0,0.834-0.118,1.108-0.358c0.279-0.232,0.418-0.558,0.428-0.959H104.183z
				 M99.812,93.119h3.289v-0.144c0-0.535-0.145-0.955-0.434-1.287c-0.293-0.321-0.676-0.481-1.135-0.481
				c-0.508,0-0.924,0.176-1.24,0.53C99.976,92.086,99.812,92.545,99.812,93.119z"/>
			<path fill="#FFFFFF" d="M58.531,106.104c-0.021,0.806-0.33,1.443-0.928,1.912c-0.594,0.478-1.402,0.711-2.422,0.711
				c-1.236,0-2.18-0.397-2.83-1.203c-0.65-0.793-0.979-1.961-0.979-3.475c0-1.516,0.346-2.688,1.027-3.523
				c0.686-0.828,1.648-1.241,2.902-1.241c0.98,0,1.762,0.221,2.322,0.676c0.561,0.447,0.855,1.063,0.879,1.867h-1.293
				c-0.047-0.47-0.252-0.853-0.621-1.14c-0.367-0.291-0.84-0.436-1.408-0.436c-0.781,0-1.395,0.33-1.838,0.988
				c-0.438,0.656-0.66,1.59-0.66,2.77c0,1.168,0.215,2.066,0.652,2.707c0.436,0.633,1.047,0.951,1.846,0.951
				c0.58,0,1.047-0.133,1.396-0.414c0.35-0.273,0.551-0.658,0.594-1.15H58.531z"/>
			<path fill="#FFFFFF" d="M59.73,105.508c0-1.065,0.289-1.911,0.855-2.532c0.566-0.613,1.348-0.927,2.324-0.927
				c0.996,0,1.76,0.291,2.314,0.869c0.549,0.574,0.826,1.384,0.826,2.416c0,1.067-0.287,1.901-0.855,2.498
				c-0.57,0.595-1.363,0.896-2.396,0.896c-0.947,0-1.697-0.287-2.24-0.869C60.008,107.291,59.73,106.504,59.73,105.508z
				 M62.91,102.896c-0.602,0-1.082,0.229-1.438,0.686c-0.357,0.455-0.529,1.078-0.529,1.863c0,0.76,0.17,1.35,0.508,1.77
				c0.338,0.414,0.818,0.619,1.432,0.619c0.621,0,1.104-0.217,1.447-0.662c0.355-0.438,0.527-1.047,0.527-1.822
				c0-0.779-0.164-1.379-0.51-1.811C64.016,103.108,63.527,102.896,62.91,102.896z"/>
			<path fill="#FFFFFF" d="M68.934,108.573h-1.176v-5.061c0-0.113-0.01-0.289-0.012-0.529c-0.012-0.237-0.021-0.498-0.047-0.791
				h1.197l0.037,1.084c0.166-0.354,0.422-0.637,0.768-0.844c0.35-0.205,0.742-0.315,1.17-0.315c0.432,0,0.814,0.094,1.164,0.272
				c0.342,0.184,0.652,0.467,0.926,0.848c0.334-0.399,0.658-0.688,0.992-0.854c0.328-0.176,0.715-0.266,1.146-0.266
				c0.449,0,0.855,0.098,1.229,0.28c0.363,0.189,0.625,0.435,0.787,0.746c0.072,0.144,0.127,0.334,0.162,0.562
				c0.025,0.223,0.041,0.545,0.041,0.963v3.904h-1.137v-4.068c0-0.494-0.115-0.869-0.354-1.113c-0.23-0.248-0.578-0.375-1.047-0.375
				c-0.48,0-0.863,0.148-1.17,0.449c-0.305,0.297-0.457,0.68-0.457,1.154v3.953h-1.191v-3.854c0-0.589-0.113-1.021-0.346-1.296
				c-0.227-0.28-0.574-0.42-1.057-0.42c-0.51,0-0.908,0.149-1.193,0.447c-0.287,0.303-0.434,0.723-0.434,1.269v3.854H68.934z"/>
			<path fill="#FFFFFF" d="M80.525,108.573H79.34v-5.061c0-0.113,0-0.289-0.008-0.529c-0.012-0.237-0.021-0.498-0.039-0.791h1.195
				l0.037,1.084c0.164-0.354,0.426-0.637,0.768-0.844c0.352-0.205,0.734-0.315,1.164-0.315c0.432,0,0.82,0.094,1.164,0.272
				c0.35,0.184,0.66,0.467,0.934,0.848c0.33-0.399,0.656-0.688,0.99-0.854c0.328-0.176,0.709-0.266,1.148-0.266
				c0.445,0,0.852,0.098,1.217,0.28c0.373,0.189,0.635,0.435,0.795,0.746c0.078,0.144,0.127,0.334,0.16,0.562
				c0.031,0.223,0.045,0.545,0.045,0.963v3.904h-1.137v-4.068c0-0.494-0.123-0.869-0.354-1.113
				c-0.236-0.248-0.584-0.375-1.051-0.375c-0.477,0-0.865,0.148-1.172,0.449c-0.303,0.297-0.455,0.68-0.455,1.154v3.953h-1.193
				v-3.854c0-0.589-0.109-1.021-0.338-1.296c-0.229-0.28-0.584-0.42-1.061-0.42c-0.506,0-0.91,0.149-1.195,0.447
				c-0.287,0.303-0.43,0.723-0.43,1.269L80.525,108.573L80.525,108.573z"/>
			<path fill="#FFFFFF" d="M90.559,105.508c0-1.065,0.291-1.911,0.852-2.532c0.582-0.613,1.348-0.927,2.33-0.927
				c0.992,0,1.764,0.291,2.318,0.869c0.545,0.574,0.819,1.384,0.819,2.416c0,1.067-0.285,1.901-0.854,2.498
				c-0.566,0.595-1.367,0.896-2.396,0.896c-0.943,0-1.693-0.287-2.244-0.869C90.834,107.291,90.559,106.504,90.559,105.508z
				 M93.74,102.896c-0.607,0-1.082,0.229-1.436,0.686c-0.348,0.455-0.531,1.078-0.531,1.863c0,0.76,0.17,1.35,0.504,1.77
				c0.346,0.414,0.818,0.619,1.439,0.619c0.613,0,1.096-0.217,1.445-0.662c0.354-0.438,0.529-1.047,0.529-1.822
				c0-0.779-0.17-1.379-0.512-1.811C94.84,103.108,94.36,102.896,93.74,102.896z"/>
			<path fill="#FFFFFF" d="M99.767,103.237c0.143-0.344,0.393-0.614,0.752-0.817c0.354-0.2,0.77-0.303,1.241-0.303
				c0.427,0,0.806,0.075,1.16,0.231c0.349,0.154,0.619,0.361,0.815,0.631c0.121,0.154,0.193,0.33,0.24,0.541
				c0.053,0.213,0.074,0.572,0.074,1.088v3.965h-1.172v-4.026c0-0.541-0.119-0.938-0.344-1.187c-0.23-0.252-0.592-0.381-1.078-0.381
				c-0.494,0-0.898,0.14-1.223,0.406c-0.314,0.262-0.469,0.615-0.469,1.039v4.148H98.58v-5.068c0-0.234,0-0.467-0.009-0.684
				c-0.012-0.217-0.021-0.424-0.032-0.629h1.188L99.767,103.237z"/>
			<path fill="#FFFFFF" d="M105.543,106.658h1.181v0.022c0,0.344,0.123,0.625,0.375,0.836c0.243,0.211,0.563,0.314,0.979,0.314
				c0.398,0,0.717-0.094,0.967-0.275c0.246-0.186,0.367-0.428,0.367-0.729c0-0.219-0.064-0.395-0.186-0.535
				c-0.125-0.137-0.318-0.234-0.582-0.307l-1.354-0.309c-0.569-0.138-0.994-0.345-1.271-0.617c-0.287-0.277-0.42-0.631-0.42-1.049
				c0-0.582,0.233-1.054,0.705-1.412c0.473-0.363,1.104-0.552,1.868-0.552c0.724,0,1.281,0.156,1.695,0.455
				c0.414,0.295,0.623,0.705,0.623,1.229c0,0.049,0,0.084-0.007,0.115c0,0.021,0,0.049-0.008,0.072h-1.168v-0.053
				c0-0.309-0.113-0.547-0.33-0.725c-0.219-0.183-0.51-0.267-0.891-0.267c-0.367,0-0.672,0.084-0.908,0.267
				c-0.242,0.178-0.359,0.399-0.359,0.662c0,0.211,0.07,0.373,0.212,0.495c0.147,0.128,0.393,0.242,0.727,0.328l1.449,0.403
				c0.502,0.13,0.871,0.33,1.106,0.613c0.242,0.285,0.363,0.646,0.363,1.088c0,0.609-0.23,1.092-0.689,1.449
				c-0.459,0.361-1.079,0.543-1.864,0.543c-0.886,0-1.541-0.154-1.953-0.465c-0.416-0.314-0.627-0.797-0.627-1.459V106.658z"/>
		</g>
	</g>
</g>
</svg>
