<?xml version="1.0" encoding="utf-8"?>
<!-- Generator: Adobe Illustrator 16.0.0, SVG Export Plug-In . SVG Version: 6.00 Build 0)  -->
<!DOCTYPE svg PUBLIC "-//W3C//DTD SVG 1.1//EN" "http://www.w3.org/Graphics/SVG/1.1/DTD/svg11.dtd">
<svg version="1.1" id="Capa_1" xmlns="http://www.w3.org/2000/svg" xmlns:xlink="http://www.w3.org/1999/xlink" x="0px" y="0px"
	 width="40.381px" height="31.348px" viewBox="0 0 40.381 31.348" enable-background="new 0 0 40.381 31.348" xml:space="preserve">
<g>
	<g>
		<g>
			<defs>
				<rect id="SVGID_1_" y="0" width="40.381" height="31.348"/>
			</defs>
			<clipPath id="SVGID_2_">
				<use xlink:href="#SVGID_1_"  overflow="visible"/>
			</clipPath>
			<polygon clip-path="url(#SVGID_2_)" fill="#DC9930" points="40.379,31.348 9,31.348 0,0 31.379,0 			"/>
		</g>
	</g>
</g>
<g>
	<circle fill="#FFFFFF" cx="15.218" cy="8.675" r="1.226"/>
	<circle fill="#FFFFFF" cx="18.196" cy="8.676" r="1.227"/>
	<circle fill="#FFFFFF" cx="21.175" cy="8.676" r="1.227"/>
	<circle fill="#FFFFFF" cx="18.196" cy="11.687" r="1.227"/>
	<circle fill="#FFFFFF" cx="21.175" cy="11.687" r="1.227"/>
	<circle fill="#FFFFFF" cx="24.153" cy="11.687" r="1.226"/>
	<circle fill="#FFFFFF" cx="21.175" cy="14.701" r="1.227"/>
	<circle fill="#FFFFFF" cx="24.153" cy="14.701" r="1.227"/>
	<circle fill="#FFFFFF" cx="27.132" cy="14.701" r="1.227"/>
	<circle fill="#FFFFFF" cx="18.196" cy="17.715" r="1.227"/>
	<circle fill="#FFFFFF" cx="21.175" cy="17.715" r="1.227"/>
	<circle fill="#FFFFFF" cx="24.153" cy="17.716" r="1.226"/>
	<circle fill="#FFFFFF" cx="15.218" cy="20.727" r="1.226"/>
	<circle fill="#FFFFFF" cx="18.196" cy="20.727" r="1.227"/>
	<circle fill="#FFFFFF" cx="21.175" cy="20.727" r="1.227"/>
</g>
</svg>
