<?xml version="1.0" encoding="utf-8"?>
<!-- Generator: Adobe Illustrator 16.0.0, SVG Export Plug-In . SVG Version: 6.00 Build 0)  -->
<!DOCTYPE svg PUBLIC "-//W3C//DTD SVG 1.1//EN" "http://www.w3.org/Graphics/SVG/1.1/DTD/svg11.dtd">
<svg version="1.1" id="Capa_1" xmlns="http://www.w3.org/2000/svg" xmlns:xlink="http://www.w3.org/1999/xlink" x="0px" y="0px"
	 width="40.385px" height="31.348px" viewBox="0 0 40.385 31.348" enable-background="new 0 0 40.385 31.348" xml:space="preserve">
<g>
	<g>
		<g>
			<defs>
				<rect id="SVGID_15_" width="40.381" height="31.348"/>
			</defs>
			<clipPath id="SVGID_2_">
				<use xlink:href="#SVGID_15_"  overflow="visible"/>
			</clipPath>
			<polygon clip-path="url(#SVGID_2_)" fill="#DC9930" points="40.385,31.348 9.006,31.348 0.006,0 31.385,0 			"/>
		</g>
	</g>
	<g>
		<path fill="#FFFFFF" d="M23.617,11.172v2.562c0,0.502-0.113,0.873-0.34,1.113c-0.229,0.24-0.607,0.398-1.139,0.477
			c0.531,0.07,0.91,0.226,1.139,0.466c0.227,0.24,0.34,0.61,0.34,1.112v3.23c0,1.307-0.221,2.191-0.66,2.654
			c-0.441,0.462-1.23,0.693-2.367,0.693c-1.117,0-1.9-0.238-2.352-0.715c-0.449-0.477-0.674-1.361-0.674-2.654v-1.037h1.805v1.281
			c0,0.749,0.092,1.268,0.277,1.558c0.184,0.29,0.498,0.435,0.943,0.435s0.756-0.144,0.932-0.43
			c0.176-0.285,0.264-0.807,0.264-1.562v-3.305c0-0.459-0.117-0.768-0.35-0.928c-0.232-0.158-0.697-0.238-1.398-0.238h-0.498V14.73
			h0.498c0.691,0,1.154-0.082,1.393-0.248c0.236-0.166,0.355-0.479,0.355-0.938v-2.586c0-0.826-0.082-1.366-0.242-1.62
			c-0.162-0.255-0.451-0.382-0.867-0.382c-0.426,0-0.727,0.145-0.902,0.435s-0.264,0.812-0.264,1.567v0.975h-1.832v-0.762
			c0-1.265,0.223-2.133,0.668-2.606s1.223-0.71,2.33-0.71c1.09,0,1.852,0.235,2.287,0.705C23.4,9.029,23.617,9.9,23.617,11.172z"/>
	</g>
</g>
</svg>
