<?xml version="1.0" encoding="utf-8"?>
<!-- Generator: Adobe Illustrator 16.0.0, SVG Export Plug-In . SVG Version: 6.00 Build 0)  -->
<!DOCTYPE svg PUBLIC "-//W3C//DTD SVG 1.1//EN" "http://www.w3.org/Graphics/SVG/1.1/DTD/svg11.dtd">
<svg version="1.1" id="Capa_1" xmlns="http://www.w3.org/2000/svg" xmlns:xlink="http://www.w3.org/1999/xlink" x="0px" y="0px"
	 width="630.758px" height="360.17px" viewBox="0 0 630.758 360.17" enable-background="new 0 0 630.758 360.17"
	 xml:space="preserve">
<g>
	<g>
		<g>
			<g>
				<path fill="#FFFFFF" d="M6.583,73.992h8.448l10.245,50.201h0.097l-0.922-50.201h5.584v53.387h-8.546L11.341,77.865h-0.194
					l0.874,49.514H6.583V73.992z"/>
				<path fill="#FFFFFF" d="M60.188,99.871v11.039h-14.13v7.855c0,2.221,0.292,3.727,0.874,4.523
					c0.583,0.797,1.618,1.195,3.107,1.195c1.424,0,2.428-0.41,3.011-1.23s0.874-2.316,0.874-4.488v-4.127h6.264v3.041
					c0,4.102-0.745,6.895-2.233,8.379c-1.489,1.484-4.128,2.227-7.915,2.227c-3.755,0-6.385-0.756-7.89-2.264
					c-1.506-1.508-2.258-4.312-2.258-8.414V99.871c0-4.125,0.735-6.924,2.209-8.396c1.473-1.471,4.119-2.207,7.938-2.207
					c3.755,0,6.385,0.754,7.891,2.262C59.435,93.037,60.188,95.818,60.188,99.871z M53.924,98.75c0-2.195-0.291-3.691-0.874-4.488
					s-1.587-1.195-3.011-1.195c-1.456,0-2.484,0.424-3.083,1.268c-0.6,0.846-0.898,2.316-0.898,4.416v8.396h7.866V98.75z"/>
				<path fill="#FFFFFF" d="M75.386,80.146v10.025h4.563v3.764h-4.563v27.652c0,1.039,0.267,1.756,0.801,2.154
					s1.497,0.598,2.889,0.598h0.874v3.871c-0.356,0.025-0.721,0.043-1.092,0.055c-0.373,0.012-0.898,0.02-1.578,0.02
					c-3.043,0-5.115-0.551-6.216-1.648s-1.65-3.541-1.65-7.328V93.936H66.16v-3.764h3.253v-8.217L75.386,80.146z"/>
				<path fill="#FFFFFF" d="M85.63,73.992h6.652v5.646H85.63V73.992z M85.922,90.172h5.972v37.207h-5.972V90.172z"/>
				<path fill="#FFFFFF" d="M115.151,92.451l0.485-2.279h5.584v51.287h-6.069V125.1c-0.81,1.037-1.813,1.816-3.011,2.334
					c-1.198,0.52-2.622,0.777-4.272,0.777c-2.525,0-4.314-0.627-5.365-1.881c-1.053-1.254-1.578-3.451-1.578-6.588V97.809
					c0-3.16,0.534-5.375,1.603-6.643c1.067-1.266,2.848-1.898,5.341-1.898c1.585,0,2.993,0.271,4.224,0.814
					S114.342,91.414,115.151,92.451z M115.151,98.75c0-2.123-0.309-3.613-0.923-4.471c-0.615-0.855-1.635-1.285-3.059-1.285
					c-1.489,0-2.542,0.416-3.156,1.25c-0.615,0.832-0.923,2.334-0.923,4.506v19.943c0,2.195,0.308,3.709,0.923,4.541
					c0.614,0.834,1.667,1.25,3.156,1.25c1.424,0,2.443-0.436,3.059-1.303c0.614-0.869,0.923-2.365,0.923-4.488V98.75z"/>
				<path fill="#FFFFFF" d="M130.349,90.172h5.972v28.521c0,2.195,0.315,3.709,0.947,4.541c0.631,0.834,1.707,1.25,3.229,1.25
					c1.488,0,2.541-0.428,3.156-1.285c0.614-0.857,0.923-2.359,0.923-4.506V90.172h6.069v37.207h-5.584l-0.485-2.279
					c-0.81,1.037-1.813,1.816-3.011,2.334c-1.198,0.52-2.606,0.777-4.225,0.777c-2.557,0-4.362-0.627-5.413-1.881
					c-1.053-1.254-1.578-3.451-1.578-6.588V90.172z"/>
				<path fill="#FFFFFF" d="M179.875,99.871v11.039h-14.13v7.855c0,2.221,0.292,3.727,0.874,4.523
					c0.583,0.797,1.618,1.195,3.107,1.195c1.424,0,2.428-0.41,3.011-1.23s0.874-2.316,0.874-4.488v-4.127h6.264v3.041
					c0,4.102-0.745,6.895-2.233,8.379c-1.489,1.484-4.128,2.227-7.915,2.227c-3.755,0-6.385-0.756-7.89-2.264
					c-1.506-1.508-2.258-4.312-2.258-8.414V99.871c0-4.125,0.735-6.924,2.209-8.396c1.473-1.471,4.119-2.207,7.938-2.207
					c3.755,0,6.385,0.754,7.891,2.262C179.122,93.037,179.875,95.818,179.875,99.871z M173.611,98.75
					c0-2.195-0.291-3.691-0.874-4.488s-1.587-1.195-3.011-1.195c-1.456,0-2.484,0.424-3.083,1.268
					c-0.6,0.846-0.898,2.316-0.898,4.416v8.396h7.866V98.75z"/>
				<path fill="#FFFFFF" d="M195.072,80.146v10.025h4.563v3.764h-4.563v27.652c0,1.039,0.267,1.756,0.801,2.154
					s1.497,0.598,2.889,0.598h0.874v3.871c-0.356,0.025-0.721,0.043-1.092,0.055c-0.373,0.012-0.898,0.02-1.578,0.02
					c-3.043,0-5.115-0.551-6.216-1.648s-1.65-3.541-1.65-7.328V93.936h-3.253v-3.764h3.253v-8.217L195.072,80.146z"/>
				<path fill="#FFFFFF" d="M225.127,98.857v28.521h-5.584l-0.388-2.279c-0.81,1.037-1.838,1.828-3.084,2.371
					s-2.679,0.814-4.297,0.814c-2.524,0-4.313-0.635-5.365-1.9c-1.052-1.268-1.578-3.48-1.578-6.643v-7.42
					c0-2.92,1.06-4.994,3.181-6.225c2.119-1.23,5.834-1.918,11.144-2.064V98.75c0-2.244-0.284-3.752-0.851-4.525
					c-0.566-0.771-1.577-1.158-3.034-1.158c-1.393,0-2.388,0.357-2.986,1.068c-0.6,0.713-0.898,1.936-0.898,3.674v2.062h-5.972
					v-1.014c0-3.715,0.729-6.242,2.185-7.582c1.457-1.34,4.046-2.008,7.769-2.008c3.625,0,6.158,0.676,7.6,2.025
					C224.406,92.645,225.127,95.166,225.127,98.857z M219.106,107.654c-3.107,0.096-5.22,0.506-6.337,1.23
					c-1.116,0.723-1.675,2.025-1.675,3.908v5.973c0,2.221,0.291,3.727,0.874,4.523s1.618,1.195,3.107,1.195
					c1.457,0,2.501-0.428,3.132-1.285s0.947-2.334,0.947-4.434L219.106,107.654z"/>
				<path fill="#FFFFFF" d="M246.2,90.172h5.827l4.612,27.725h0.389l4.078-27.725h5.584l-10.342,51.287h-5.973l3.254-15.49
					L246.2,90.172z"/>
			</g>
			<g>
				<path fill="#FFFFFF" d="M22.625,225.332v2.354h-6.171v-3.459c0-2.4-0.215-3.934-0.646-4.6c-0.431-0.665-1.22-0.998-2.368-0.998
					c-1.147,0-1.945,0.374-2.392,1.123s-0.669,2.241-0.669,4.475v19.718c0,2.282,0.23,3.792,0.693,4.528
					c0.462,0.737,1.283,1.105,2.463,1.105c1.116,0,1.882-0.339,2.297-1.017c0.413-0.677,0.621-2.216,0.621-4.617v-3.922h6.171v2.853
					c0,4.041-0.678,6.792-2.033,8.254s-3.739,2.193-7.151,2.193c-3.38,0-5.748-0.749-7.103-2.246
					c-1.355-1.498-2.033-4.255-2.033-8.272v-17.472c0-4.064,0.67-6.822,2.009-8.272c1.34-1.449,3.715-2.175,7.127-2.175
					c3.38,0,5.756,0.743,7.128,2.229C21.938,218.6,22.625,221.339,22.625,225.332z"/>
				<path fill="#FFFFFF" d="M50.176,225.332v17.543c0,4.041-0.734,6.792-2.2,8.254c-1.467,1.462-4.065,2.193-7.797,2.193
					c-3.699,0-6.29-0.743-7.772-2.229c-1.483-1.485-2.225-4.249-2.225-8.29v-17.472c0-4.064,0.726-6.822,2.177-8.272
					c1.45-1.449,4.058-2.175,7.82-2.175c3.699,0,6.29,0.743,7.772,2.229C49.435,218.6,50.176,221.339,50.176,225.332z
					 M44.006,224.227c0-2.162-0.287-3.637-0.861-4.421s-1.562-1.177-2.966-1.177c-1.435,0-2.447,0.416-3.037,1.248
					c-0.591,0.832-0.885,2.282-0.885,4.35v19.718c0,2.188,0.287,3.673,0.86,4.457c0.574,0.784,1.595,1.177,3.062,1.177
					c1.403,0,2.392-0.404,2.966-1.212c0.574-0.809,0.861-2.282,0.861-4.422V224.227z"/>
				<path fill="#FFFFFF" d="M78.972,223.3v29.131h-5.884v-28.204c0-2.091-0.311-3.548-0.933-4.367
					c-0.621-0.82-1.682-1.23-3.181-1.23c-1.467,0-2.52,0.422-3.157,1.266s-0.956,2.288-0.956,4.332v28.204h-5.884v-36.654h5.501
					l0.383,2.246c0.797-1.021,1.81-1.801,3.037-2.335c1.228-0.535,2.639-0.803,4.233-0.803c2.487,0,4.249,0.624,5.285,1.872
					S78.972,220.186,78.972,223.3z"/>
				<path fill="#FFFFFF" d="M84.759,215.776h5.74l4.113,32.875h0.526l4.4-32.875h5.405l-5.979,36.654h-8.132L84.759,215.776z"/>
				<path fill="#FFFFFF" d="M110.588,199.838h6.554v5.562h-6.554V199.838z M110.875,215.776h5.884v36.654h-5.884V215.776z"/>
				<path fill="#FFFFFF" d="M122.642,215.776h5.74l4.113,32.875h0.526l4.4-32.875h5.405l-5.979,36.654h-8.132L122.642,215.776z"/>
				<path fill="#FFFFFF" d="M168.562,225.332v10.875h-13.919v7.737c0,2.188,0.287,3.673,0.86,4.457
					c0.574,0.784,1.595,1.177,3.062,1.177c1.403,0,2.392-0.404,2.966-1.212c0.574-0.809,0.861-2.282,0.861-4.422v-4.064h6.17v2.995
					c0,4.041-0.734,6.792-2.2,8.254c-1.467,1.462-4.065,2.193-7.797,2.193c-3.699,0-6.29-0.743-7.772-2.229
					c-1.483-1.485-2.225-4.249-2.225-8.29v-17.472c0-4.064,0.726-6.822,2.177-8.272c1.45-1.449,4.058-2.175,7.82-2.175
					c3.699,0,6.29,0.743,7.772,2.229C167.82,218.6,168.562,221.339,168.562,225.332z M162.392,224.227
					c0-2.162-0.287-3.637-0.861-4.421s-1.562-1.177-2.966-1.177c-1.435,0-2.447,0.416-3.037,1.248
					c-0.591,0.832-0.885,2.282-0.885,4.35v8.272h7.749V224.227z"/>
				<path fill="#FFFFFF" d="M197.356,223.3v29.131h-5.884v-28.204c0-2.091-0.311-3.548-0.933-4.367
					c-0.621-0.82-1.682-1.23-3.181-1.23c-1.467,0-2.52,0.422-3.157,1.266s-0.956,2.288-0.956,4.332v28.204h-5.884v-36.654h5.501
					l0.383,2.246c0.797-1.021,1.81-1.801,3.037-2.335c1.228-0.535,2.639-0.803,4.233-0.803c2.487,0,4.249,0.624,5.285,1.872
					S197.356,220.186,197.356,223.3z"/>
				<path fill="#FFFFFF" d="M224.478,225.332v2.354h-6.171v-3.459c0-2.4-0.215-3.934-0.646-4.6c-0.431-0.665-1.22-0.998-2.368-0.998
					c-1.147,0-1.945,0.374-2.392,1.123s-0.669,2.241-0.669,4.475v19.718c0,2.282,0.23,3.792,0.693,4.528
					c0.462,0.737,1.283,1.105,2.463,1.105c1.116,0,1.882-0.339,2.297-1.017c0.413-0.677,0.621-2.216,0.621-4.617v-3.922h6.171v2.853
					c0,4.041-0.678,6.792-2.033,8.254s-3.739,2.193-7.151,2.193c-3.38,0-5.748-0.749-7.103-2.246
					c-1.355-1.498-2.033-4.255-2.033-8.272v-17.472c0-4.064,0.67-6.822,2.009-8.272c1.34-1.449,3.715-2.175,7.127-2.175
					c3.38,0,5.756,0.743,7.128,2.229C223.791,218.6,224.478,221.339,224.478,225.332z"/>
				<path fill="#FFFFFF" d="M231.939,199.838h6.554v5.562h-6.554V199.838z M232.227,215.776h5.884v36.654h-5.884V215.776z"/>
				<path fill="#FFFFFF" d="M266.426,224.334v28.097h-5.5l-0.383-2.246c-0.798,1.022-1.811,1.801-3.038,2.335
					c-1.228,0.535-2.639,0.803-4.232,0.803c-2.487,0-4.25-0.624-5.286-1.872s-1.555-3.429-1.555-6.543v-7.31
					c0-2.876,1.045-4.92,3.134-6.133c2.088-1.212,5.747-1.89,10.978-2.032v-5.206c0-2.21-0.28-3.695-0.837-4.457
					c-0.559-0.76-1.555-1.141-2.99-1.141c-1.371,0-2.352,0.351-2.941,1.052c-0.591,0.701-0.885,1.907-0.885,3.619v2.032h-5.884
					v-0.998c0-3.66,0.718-6.15,2.152-7.47c1.436-1.319,3.986-1.979,7.653-1.979c3.571,0,6.066,0.666,7.486,1.997
					C265.716,218.213,266.426,220.697,266.426,224.334z M260.495,232.998c-3.062,0.096-5.143,0.499-6.242,1.213
					c-1.101,0.713-1.65,1.996-1.65,3.851v5.883c0,2.188,0.287,3.673,0.861,4.457c0.573,0.784,1.594,1.177,3.061,1.177
					c1.436,0,2.464-0.422,3.086-1.266c0.621-0.844,0.933-2.3,0.933-4.368L260.495,232.998z"/>
			</g>
			<g>
				<path fill="#E3E036" stroke="#E3E036" stroke-width="2" stroke-miterlimit="10" d="M7.417,191.665H6.695H5.973v-36.742v-0.513
					h1.169l19.039,32.644c0.275,0.479,0.471,0.854,0.586,1.127c0.116,0.273,0.219,0.494,0.311,0.666V154.41h0.688h0.757v37.255
					h-1.242L8.451,159.277c-0.093-0.171-0.288-0.52-0.587-1.05c-0.299-0.529-0.494-0.947-0.585-1.256L7.417,191.665z M6.936,154.41
					H6.866H6.798H6.729H6.66H6.592H6.522H6.454H6.936z M28.04,191.665h-0.138h-0.138h-0.137h-0.069H28.04z"/>
				<path fill="#E3E036" stroke="#E3E036" stroke-width="2" stroke-miterlimit="10" d="M61.312,183.62c0,0.102,0,0.375,0,0.819
					s-0.093,0.981-0.275,1.614c-0.184,0.633-0.471,1.307-0.858,2.024c-0.391,0.717-0.975,1.384-1.754,1.997
					c-0.918,0.686-2.212,1.205-3.884,1.564c-1.674,0.357-3.289,0.537-4.847,0.537c-1.559,0-3.162-0.18-4.812-0.537
					c-1.649-0.359-2.91-0.879-3.78-1.564c-0.78-0.613-1.364-1.297-1.754-2.049s-0.653-1.461-0.79-2.127
					c-0.138-0.666-0.207-1.237-0.207-1.717c0-0.479,0-0.769,0-0.871v-21.01c0-1.366,0.264-2.589,0.791-3.664
					c0.526-1.076,1.363-1.99,2.51-2.742c0.457-0.308,1.019-0.58,1.685-0.82c0.663-0.238,1.362-0.436,2.097-0.588
					c0.732-0.154,1.466-0.274,2.199-0.359c0.732-0.086,1.42-0.128,2.062-0.128c0.595,0,1.271,0.034,2.028,0.103
					c0.755,0.068,1.512,0.179,2.269,0.333c0.756,0.153,1.466,0.342,2.131,0.563c0.664,0.223,1.226,0.486,1.685,0.795
					c2.337,1.537,3.506,3.707,3.506,6.508V183.62z M59.868,162.302c0-1.195-0.206-2.221-0.619-3.075
					c-0.411-0.853-0.985-1.571-1.718-2.152c-0.412-0.341-0.952-0.64-1.615-0.896c-0.665-0.258-1.364-0.471-2.098-0.643
					c-0.733-0.17-1.466-0.289-2.199-0.357s-1.374-0.104-1.925-0.104c-1.055,0-2.165,0.096-3.334,0.283s-2.234,0.547-3.197,1.076
					c-0.961,0.529-1.752,1.264-2.371,2.203c-0.618,0.939-0.928,2.16-0.928,3.664v21.061c-0.047,0.854,0,1.59,0.137,2.204
					c0.138,0.615,0.367,1.265,0.688,1.947c0.32,0.684,0.824,1.299,1.514,1.845c0.731,0.582,1.832,1.018,3.299,1.307
					c1.466,0.291,2.863,0.436,4.193,0.436c0.688,0,1.397-0.033,2.131-0.102c0.732-0.068,1.455-0.18,2.166-0.334
					c0.71-0.154,1.363-0.34,1.959-0.564c0.596-0.221,1.076-0.486,1.443-0.793c0.688-0.545,1.191-1.145,1.512-1.794
					c0.32-0.648,0.551-1.255,0.688-1.819c0.139-0.563,0.207-1.238,0.207-2.023L59.868,162.302z"/>
				<path fill="#E3E036" stroke="#E3E036" stroke-width="2" stroke-miterlimit="10" d="M84.134,175.573
					c-0.504,0.07-1.021,0.112-1.547,0.129c-0.527,0.018-1.089,0.025-1.685,0.025H74.44v15.938h-0.755h-0.688v-36.641v-0.614h0.825
					h7.08c2.476,0,4.549,0.29,6.222,0.871s2.967,1.401,3.885,2.46c0.87,1.023,1.547,2.178,2.028,3.459
					c0.48,1.28,0.722,2.57,0.722,3.869c0,1.332-0.241,2.639-0.722,3.92c-0.481,1.281-1.158,2.416-2.028,3.407
					c-0.643,0.751-1.398,1.384-2.269,1.896c-0.871,0.514-1.972,0.871-3.3,1.077L84.134,175.573z M89.771,171.825
					c0.778-0.924,1.397-1.978,1.855-3.16c0.458-1.182,0.688-2.389,0.688-3.623c0-1.198-0.229-2.389-0.688-3.57
					s-1.077-2.234-1.855-3.16c-0.78-0.891-1.902-1.584-3.369-2.08c-1.468-0.496-3.3-0.746-5.5-0.746H74.44v19.166h6.462
					c2.658,0,4.606-0.248,5.844-0.745C87.983,173.41,88.991,172.716,89.771,171.825z M85.44,175.369l9.555,16.244h-1.512
					l-9.418-16.04L85.44,175.369z"/>
				<path fill="#E3E036" stroke="#E3E036" stroke-width="2" stroke-miterlimit="10" d="M106.683,157.126v34.539h-0.688h-0.756
					v-36.742v-0.052v-0.461h1.168l12.719,18.55l12.718-18.55h1.1v0.461v0.052v36.742h-0.722h-0.723v-34.591l-11.893,17.68h-0.962
					L106.683,157.126z M106.202,154.41h-0.069h-0.069h-0.068h-0.068h-0.068h-0.069h-0.069H106.202z M131.981,154.41h0.068h0.068
					h0.069h0.068h0.069h0.068h0.068H131.981z"/>
				<path fill="#E3E036" stroke="#E3E036" stroke-width="2" stroke-miterlimit="10" d="M163.603,191.665h-1.513l-3.093-11.223
					h-11.962l-3.23,11.223h-1.513l10.105-37.255h1.169L163.603,191.665z M158.584,179.366l-5.567-22.139l-5.775,22.139H158.584z
					 M152.741,154.41h0.068h0.139h0.068h0.068h0.138H152.741z"/>
				<path fill="#E3E036" stroke="#E3E036" stroke-width="2" stroke-miterlimit="10" d="M176.594,190.333
					c-1.146-0.752-2.005-1.76-2.577-3.023c-0.573-1.264-0.859-2.614-0.859-4.049h1.443c0,1.64,0.311,2.973,0.928,3.998
					c0.62,1.023,1.398,1.818,2.338,2.381c0.938,0.564,1.959,0.941,3.06,1.129s2.131,0.281,3.093,0.281
					c1.191,0,2.372-0.129,3.54-0.385c1.17-0.256,2.224-0.666,3.163-1.229c0.938-0.563,1.695-1.307,2.27-2.229
					c0.571-0.922,0.858-2.05,0.858-3.382c0-1.538-0.299-2.878-0.894-4.022c-0.596-1.145-1.387-2.16-2.372-3.049
					s-2.097-1.684-3.334-2.383c-1.237-0.7-2.498-1.393-3.781-2.076c-1.237-0.648-2.417-1.289-3.54-1.922
					c-1.124-0.631-2.143-1.34-3.059-2.127c-2.018-1.811-3.025-3.824-3.025-6.046c0-0.103,0-0.367,0-0.794
					c0-0.428,0.076-0.932,0.23-1.512c0.152-0.581,0.404-1.213,0.756-1.896c0.35-0.684,0.915-1.314,1.695-1.896
					c1.787-1.436,4.283-2.152,7.492-2.152c3.254,0,5.707,0.717,7.355,2.152c0.688,0.615,1.18,1.29,1.479,2.025
					c0.298,0.734,0.492,1.434,0.585,2.1c0.091,0.666,0.125,1.23,0.103,1.691c-0.023,0.461-0.034,0.709-0.034,0.744h-1.444
					c0.046-0.82,0.023-1.538-0.068-2.154c-0.092-0.613-0.264-1.255-0.516-1.92c-0.252-0.667-0.677-1.256-1.271-1.77
					c-0.688-0.58-1.535-1.023-2.544-1.332c-1.009-0.307-2.224-0.461-3.644-0.461c-2.796,0-4.927,0.599-6.393,1.793
					c-0.643,0.514-1.124,1.076-1.443,1.692c-0.321,0.614-0.551,1.187-0.688,1.716c-0.138,0.531-0.207,1.171-0.207,1.922
					c0,1.127,0.253,2.127,0.759,2.998s1.173,1.674,2.001,2.408c0.827,0.735,1.782,1.41,2.862,2.025
					c1.081,0.613,2.196,1.229,3.347,1.844c1.333,0.684,2.643,1.401,3.931,2.152c1.286,0.752,2.46,1.606,3.52,2.562
					c2.391,2.187,3.586,4.748,3.586,7.687c0,2.767-1.237,4.919-3.712,6.457c-2.018,1.229-4.537,1.845-7.562,1.845
					c-1.055,0-2.258-0.111-3.609-0.332C179.058,191.571,177.786,191.084,176.594,190.333z"/>
				<path fill="#E3E036" stroke="#E3E036" stroke-width="2" stroke-miterlimit="10" d="M212.98,154.41h10.312
					c1.237,0,2.428,0.161,3.575,0.486c1.145,0.325,2.153,0.794,3.024,1.409c2.199,1.537,3.3,3.672,3.3,6.406v20.65
					c0,2.803-1.101,4.938-3.3,6.406c-0.871,0.615-1.88,1.086-3.024,1.41c-1.147,0.324-2.338,0.486-3.575,0.486h-5.568h-4.743v-0.513
					V154.41z M231.747,162.712c0-1.23-0.24-2.307-0.721-3.229c-0.482-0.922-1.124-1.674-1.925-2.256
					c-0.804-0.58-1.708-1.016-2.716-1.307c-1.009-0.289-2.04-0.436-3.094-0.436h-5.568h-3.3v35.104h3.3h5.568
					c1.054,0,2.085-0.137,3.094-0.41c1.008-0.273,1.912-0.709,2.716-1.307c0.801-0.598,1.442-1.35,1.925-2.255
					c0.48-0.905,0.721-1.99,0.721-3.255V162.712z"/>
				<path fill="#E3E036" stroke="#E3E036" stroke-width="2" stroke-miterlimit="10" d="M265.776,190.69v0.462v0.513H246.39v-0.513
					v-36.179v-0.563h19.112v0.563v0.41h-17.669v19.37h13.818v0.513v0.461h-13.818v14.963H265.776z"/>
			</g>
		</g>
	</g>
	
		<line fill="none" stroke="#E3E036" stroke-width="3" stroke-miterlimit="10" stroke-dasharray="5" x1="294.275" y1="0" x2="294.275" y2="360.17"/>
	<g>
		<g>
			<g>
				<circle fill="none" stroke="#FFFFFF" stroke-width="3" stroke-miterlimit="10" cx="399.558" cy="29.032" r="19.479"/>
			</g>
			<g>
				<g>
					<path fill="#003B64" d="M406.761,38.316h-13.206v-1.885h5.321V21.982l-5.019,1.858v-2.162l5.429-2.069h2.509v16.822h4.966
						V38.316z"/>
				</g>
			</g>
		</g>
		<g>
			<g>
				<circle fill="none" stroke="#FFFFFF" stroke-width="3" stroke-miterlimit="10" cx="452.188" cy="29.032" r="19.479"/>
			</g>
			<g>
				<g>
					<path fill="#003B64" d="M458.733,39.316H444.92v-1.568c3.5-2.892,5.773-4.83,6.816-5.814c1.045-0.984,1.893-2.018,2.545-3.098
						c0.654-1.082,0.98-2.158,0.98-3.23c0-1.037-0.426-1.854-1.273-2.452s-2.037-0.896-3.568-0.896
						c-1.174,0-2.752,0.269-4.734,0.804l-0.408-1.858c1.791-0.562,3.666-0.844,5.623-0.844c2.242,0,4.049,0.468,5.42,1.404
						c1.371,0.936,2.055,2.187,2.055,3.751c0,1.116-0.352,2.224-1.059,3.322c-0.705,1.099-1.611,2.153-2.713,3.164
						c-1.104,1.011-3.252,2.82-6.443,5.432h10.572V39.316z"/>
				</g>
			</g>
		</g>
		<g>
			<g>
				<circle fill="none" stroke="#FFFFFF" stroke-width="3" stroke-miterlimit="10" cx="504.817" cy="29.032" r="19.479"/>
			</g>
			<g>
				<g>
					<path fill="#003B64" d="M507.395,29.323c1.531,0.316,2.76,0.895,3.686,1.733c0.924,0.84,1.387,1.782,1.387,2.828
						c0,1.635-0.859,3.008-2.58,4.12c-1.721,1.111-3.75,1.667-6.088,1.667c-1.992,0-3.777-0.325-5.355-0.975l0.568-1.78
						c1.65,0.571,3.281,0.856,4.895,0.856c1.52,0,2.814-0.349,3.889-1.048c1.074-0.698,1.611-1.597,1.611-2.696
						c0-1.08-0.576-1.959-1.727-2.637c-1.15-0.676-2.676-1.015-4.574-1.015h-0.766v-1.78h0.215c1.826,0,3.334-0.318,4.52-0.955
						c1.188-0.638,1.779-1.496,1.779-2.578c0-0.878-0.426-1.566-1.281-2.062c-0.854-0.497-2.027-0.745-3.523-0.745
						c-1.293,0-2.74,0.26-4.342,0.778l-0.393-1.859c1.613-0.545,3.24-0.817,4.877-0.817c2.242,0,4.09,0.438,5.545,1.312
						c1.453,0.875,2.18,1.998,2.18,3.369c0,0.949-0.443,1.834-1.326,2.656c-0.885,0.821-1.949,1.338-3.195,1.549V29.323z"/>
				</g>
			</g>
		</g>
		<g>
			<g>
				<circle fill="none" stroke="#FFFFFF" stroke-width="3" stroke-miterlimit="10" cx="557.446" cy="29.032" r="19.479"/>
			</g>
			<g>
				<g>
					<path fill="#003B64" d="M566.627,35.019h-3.096v4.298h-2.92v-4.298h-10.928v-1.647l9.914-12.656h3.934v12.418h3.096V35.019z
						 M560.612,33.133V22.85l-7.973,10.283H560.612z"/>
				</g>
			</g>
		</g>
		<g>
			<g>
				<circle fill="none" stroke="#FFFFFF" stroke-width="3" stroke-miterlimit="10" cx="609.78" cy="29.032" r="19.479"/>
			</g>
			<g>
				<g>
					<path fill="#003B64" d="M607.59,28.216c0.807-0.158,1.596-0.237,2.367-0.237c2.371,0,4.246,0.538,5.623,1.615
						c1.377,1.076,2.064,2.419,2.064,4.027c0,1.688-0.801,3.118-2.402,4.291c-1.602,1.174-3.555,1.76-5.855,1.76
						c-2.195,0-4.035-0.272-5.518-0.816l0.588-1.833c1.613,0.501,3.279,0.751,5,0.751c1.531,0,2.768-0.364,3.711-1.094
						s1.416-1.749,1.416-3.059c0-1.239-0.445-2.192-1.336-2.861c-0.889-0.667-2.035-1.002-3.434-1.002
						c-1.021,0-2.029,0.146-3.025,0.436l-1.746-0.594v-8.885h11.48V22.6h-8.934V28.216z"/>
				</g>
			</g>
		</g>
	</g>
</g>
</svg>
