<?xml version="1.0" encoding="utf-8"?>
<!-- Generator: Adobe Illustrator 16.0.0, SVG Export Plug-In . SVG Version: 6.00 Build 0)  -->
<!DOCTYPE svg PUBLIC "-//W3C//DTD SVG 1.1//EN" "http://www.w3.org/Graphics/SVG/1.1/DTD/svg11.dtd">
<svg version="1.1" id="Capa_1" xmlns="http://www.w3.org/2000/svg" xmlns:xlink="http://www.w3.org/1999/xlink" x="0px" y="0px"
	 width="1111px" height="503.168px" viewBox="0 0 1111 503.168" enable-background="new 0 0 1111 503.168" xml:space="preserve">
<g>
	<g>
		<path fill="#161010" d="M215.266,351.932c15.719-2.633,12.101-18.443,27.069-12.984c18.923,6.905,41.07,9.979,60.126,3.452
			c19.064-6.52,34.905-25.168,33.121-45.23c-1.004-11.279-6.68-39.562-24.273-57.332c-16.933-17.107-13.507-38.288-15.928-62.232
			c-1.655-16.387-0.111-34.064-8.716-48.104c-6.159-10.04-16.749-16.644-27.787-20.748c-26.149-9.726-55.857-6.966-81.714,3.511
			c-25.86,10.47-48.241,28.138-67.956,47.883c-8.971,8.985-17.56,18.574-23.458,29.818c-5.899,11.248-8.937,24.381-6.278,36.797
			c4.136,19.316,21.389,35.257,20.412,54.99c-0.324,6.568-2.726,13.055-1.852,19.571c1.586,11.845,13.872,19.887,25.789,20.782
			c11.914,0.899,29.971,34.246,41.072,29.825"/>
		<g>
			<path fill="#161010" d="M62.863,281.086c-0.06-0.041-0.518,0.479-1.122,1.646c-0.586,1.179-1.162,3.119-1.032,5.66
				c0.103,2.524,1.071,5.61,3.201,8.539c2.108,2.877,5.716,5.652,10.373,6.23c9.201,1.434,20.682-5.601,23.958-17.427
				c1.744-5.761,1.866-12.174,0.751-18.494c-1.11-6.354-3.411-12.579-5.948-18.754c-5.152-12.207-10.262-24.054-9.408-35.376
				c0.655-11.271,6.017-20.536,11.044-27.425c5.125-6.957,10.071-12.007,13.42-15.534c3.391-3.499,5.27-5.439,5.137-5.581
				c-0.117-0.127-2.233,1.555-5.86,4.839c-3.587,3.312-8.771,8.188-14.198,15.146c-5.311,6.881-11.132,16.397-11.984,28.403
				c-1.027,12.086,4.299,24.438,9.388,36.539c2.52,6.123,4.757,12.167,5.845,18.196c1.097,6.007,1.014,12.026-0.535,17.343
				c-2.838,10.832-13.181,17.312-21.375,16.26c-4.12-0.396-7.363-2.709-9.429-5.276c-2.061-2.593-3.104-5.394-3.351-7.723
				C61.227,283.542,63.188,281.186,62.863,281.086z"/>
		</g>
		<g>
			<path fill="#161010" d="M60.304,523.55c-0.058-0.041-0.518,0.48-1.122,1.648c-0.586,1.174-1.162,3.115-1.032,5.657
				c0.103,2.525,1.071,5.61,3.203,8.539c2.106,2.876,5.715,5.652,10.371,6.229c9.203,1.438,20.683-5.598,23.96-17.426
				c1.743-5.76,1.866-12.171,0.75-18.494c-1.109-6.354-3.412-12.582-5.948-18.751c-5.152-12.212-10.262-24.058-9.406-35.378
				c0.653-11.271,6.014-20.539,11.041-27.427c5.126-6.957,10.072-12.009,13.422-15.535c3.391-3.496,5.269-5.439,5.137-5.581
				c-0.118-0.124-2.234,1.558-5.86,4.84c-3.585,3.316-8.771,8.189-14.198,15.147c-5.311,6.881-11.133,16.397-11.985,28.399
				c-1.027,12.087,4.3,24.44,9.389,36.54c2.519,6.123,4.757,12.165,5.845,18.195c1.096,6.008,1.013,12.028-0.536,17.344
				c-2.839,10.832-13.179,17.316-21.376,16.264c-4.118-0.398-7.363-2.711-9.428-5.276c-2.06-2.597-3.104-5.396-3.349-7.724
				C58.668,526.005,60.627,523.652,60.304,523.55z"/>
		</g>
		<g>
			<path fill="#161010" d="M295.121,172.488c-0.082-0.037-0.355,0.416-0.798,1.319c-0.477,0.895-1.028,2.271-1.632,4.098
				c-1.187,3.642-2.29,9.213-1.807,16.129c0.523,6.852,2.665,15.135,7.946,22.749c5.209,7.744,13.746,13.651,22.782,18.664
				c9.083,5.038,17.827,9.491,24.471,15.273c6.741,5.646,10.974,12.618,12.12,19.112c1.312,6.485,0.054,11.923-1.521,15.226
				c-1.641,3.321-3.233,4.771-3.046,4.945c0.064,0.063,0.481-0.254,1.238-0.94c0.74-0.693,1.717-1.853,2.723-3.521
				c1.955-3.331,3.614-9.098,2.458-16.045c-0.964-6.971-5.411-14.661-12.361-20.62c-6.855-6.146-15.805-10.767-24.774-15.746
				c-8.953-4.966-17.094-10.566-22.085-17.761c-5.093-7.104-7.341-14.943-8.076-21.507
				C291.394,180.465,295.773,172.602,295.121,172.488z"/>
		</g>
		<g>
			<path fill="#161010" d="M338.043,215.927c-0.135-0.51-4.792,1.538-12.515,0.902c-7.596-0.526-18.231-4.5-26.049-13.299
				c-7.798-8.867-11.071-19.517-12.509-27.103c-1.46-7.676-1.463-12.597-1.907-12.59c-0.287-0.017-0.961,4.926,0.051,12.892
				c0.996,7.843,4.086,19.121,12.375,28.564c8.372,9.424,19.875,13.35,27.932,13.41c4.068,0.08,7.335-0.545,9.466-1.281
				C337.023,216.702,338.1,216.067,338.043,215.927z"/>
		</g>
		<path fill="#A27251" d="M316.367,506.157c0,0,1.855-145.685-126.951-144.878C60.608,362.091,56.803,503.992,56.803,503.992
			L316.367,506.157z"/>
		<path fill="#2C2D6E" d="M319.09,509.761L154.956,367.259c0,0-61.577,16.221-68.658,72.623
			c-7.082,56.404-11.332,69.88-11.332,69.88L319.09,509.761L319.09,509.761z"/>
		<path fill="#2C2D6E" d="M246.286,373.016c70.549,20.418,72.804,136.745,72.804,136.745l-114.989-99.834L246.286,373.016"/>
		<path fill="#161010" d="M124.695,277.509c10.86,8.493,18.252,36.401,6.146,43.536c-10.078,5.938-25.254,5.477-32.082,14.19
			c-9.899,12.633,7.695,31.016-0.727,44.419c-4.079,6.492-12.871,9.375-20.565,12.637C53.337,402.513,74,427.35,67.8,449.866
			c-6.199,22.515-38.361,42.262-18.739,58.088c19.618,15.824,50.813,20.65,74.833,10.238c20.097-8.713-5.943-37.386-0.509-56.175
			c5.436-18.784,32.211-32.107,28.778-51.239c-3.434-19.134,2.278-33.636,0.318-52.921c-2.993-29.382,1.681-59.68-8.068-87.957"/>
		<path fill="#A37151" d="M274.569,128.395c0,0,13.008,65.98,11.439,123.261c-1.037,37.897-29.083,69.646-66.382,76.425
			l4.322,59.959l-65.945-20.781l-14.181-92.734c0,0-23.373,4.35-36.698-16.903c-14.475-23.084-4.823-65.209,16.534-45.936
			c25.02,22.574,30.426,22.319,30.426,22.319C159.427,197.949,133.007,116.377,274.569,128.395"/>
		<path fill="#896145" d="M136.08,251.915c-0.119-0.426-2.826,0.478-7.1-0.06c-4.188-0.451-10.06-2.923-13.294-8.567
			c-2.605-4.347-3.162-9.642-1.945-12.978c1.273-3.501,5.028-3.218,5.832-2.218l0.486-0.645c-0.884-0.25-1.337-0.297-1.396-0.167
			c-0.056,0.134,0.282,0.436,1.062,0.926l1.307,0.816l-0.821-1.463c-0.438-0.776-1.75-1.722-3.524-1.608
			c-1.738-0.019-3.924,1.312-4.89,3.482c-1.899,4.271-1.356,10.103,1.612,15.202c3.745,6.547,10.836,9.142,15.436,9.089
			C133.616,253.8,136.218,252.156,136.08,251.915"/>
		<path fill="#896145" d="M111.501,237.09c0.454,0.59,2.92-0.524,5.975,0.087c3.082,0.486,5.008,2.381,5.639,1.985
			c0.284-0.188,0.161-1.056-0.688-2.103c-0.829-1.042-2.455-2.125-4.483-2.491c-2.029-0.361-3.934,0.098-5.073,0.786
			C111.715,236.044,111.297,236.819,111.501,237.09"/>
		<path opacity="0.2" fill="#A37151" enable-background="new    " d="M167.858,241.626c-0.529,3.621,7.429,7.783,17.768,9.295
			c10.344,1.514,19.16-0.2,19.688-3.821c0.529-3.62-7.424-7.782-17.769-9.29C177.204,236.299,168.388,238.005,167.858,241.626"/>
		<path opacity="0.2" fill="#A37151" enable-background="new    " d="M255.607,246.644c0.609,3.606,7.152,5.513,14.613,4.254
			c7.467-1.26,13.02-5.204,12.414-8.813c-0.608-3.604-7.153-5.513-14.616-4.251C260.56,239.09,255,243.036,255.607,246.644"/>
		<path fill="#896145" d="M202.342,324.631c-0.352,0.624,2.004,2.521,5.57,2.985c3.566,0.482,6.333-0.731,6.156-1.421
			c-0.154-0.736-2.756-0.779-5.806-1.208C205.208,324.604,202.684,323.962,202.342,324.631"/>
		<path fill="#896145" d="M194.73,263.977c-0.29,0.076,0.081,3.021,2.478,7.1c2.326,4.026,7.042,9.064,13.884,11.733
			c6.845,2.654,13.729,2.126,18.17,0.727c4.517-1.389,6.784-3.312,6.618-3.563c-0.2-0.373-2.735,0.901-7.067,1.744
			c-4.288,0.861-10.562,1.027-16.761-1.373c-6.193-2.417-10.707-6.776-13.286-10.31C196.136,266.488,195.131,263.837,194.73,263.977
			"/>
		<path opacity="0.2" fill="#A37151" enable-background="new    " d="M198.46,275.325c-2.097,2.944,2.263,9.535,10.79,12.097
			c8.531,2.567,15.803-0.525,15.677-4.143c-0.07-3.696-5.539-6.594-11.863-8.547C206.716,272.876,200.556,272.279,198.46,275.325"/>
		<path fill="#161010" d="M290.013,206.943c-1.336-2.652-53.817-48.518-47.606-79.671c0,0-12.244,27-94.162,77.715l10.896-77.715
			l83.266-13.792l47.606,21.369V206.943L290.013,206.943z"/>
		<path fill="#161010" d="M113.731,290.331c-0.004-0.335-3.817,0.813-10.259-0.993c-6.202-1.786-15.212-7.568-19.401-18.709
			c-4.158-11.032-1.116-26.519,8.938-38.51c9.987-12.235,26.247-20.057,43.57-25.654c8.713-2.881,17.389-5.34,25.645-8.215
			c8.228-2.796,16.203-6.194,22.837-10.899c13.311-9.314,22.777-20.559,30.097-30.171c7.314-9.686,12.425-18.071,15.833-23.918
			c1.68-2.935,2.956-5.234,3.758-6.827c0.814-1.582,1.206-2.438,1.128-2.479c-0.081-0.049-0.625,0.719-1.59,2.213
			c-1.118,1.751-2.498,3.917-4.177,6.556c-3.666,5.66-8.996,13.855-16.438,23.311c-7.434,9.389-16.965,20.354-29.982,29.292
			c-6.472,4.509-14.091,7.7-22.312,10.469c-8.177,2.812-16.84,5.246-25.632,8.148c-17.483,5.661-34.251,13.719-44.629,26.629
			c-10.414,12.624-13.471,29.006-8.803,40.715c4.706,11.758,14.338,17.479,20.882,19.043c3.36,0.851,6.072,0.701,7.856,0.595
			C112.84,290.633,113.749,290.421,113.731,290.331"/>
		<path fill="#161010" d="M281.963,286.607c-0.03,0.076,0.541,0.359,1.701,0.72c1.168,0.297,2.986,0.584,5.305,0.278
			c4.522-0.535,11.388-3.835,15.18-11.556c3.731-7.647,3.297-18.288-0.312-28.434c-3.362-10.312-9.033-20.799-15.563-31.274
			c-13.292-20.845-26.559-38.768-33.689-53.188c-1.937-3.525-3.282-6.884-4.621-9.778c-1.166-2.956-2.071-5.551-2.854-7.653
			c-1.181-4.319-1.928-6.711-2.11-6.68c-0.18,0.033,0.224,2.496,1.121,6.964c0.637,2.174,1.409,4.853,2.463,7.906
			c1.22,2.983,2.478,6.459,4.322,10.075c6.801,14.826,19.937,33.078,33.121,53.758c6.483,10.396,12.108,20.672,15.493,30.637
			c3.624,9.815,4.147,19.751,0.925,26.895c-3.225,7.121-9.466,10.525-13.645,11.31C284.459,287.422,282.008,286.315,281.963,286.607
			"/>
		<path fill="#161010" d="M32.853,413.331c0,0,0.64,0.804,2.465,1.057c1.752,0.179,4.727-0.588,6.751-3.508
			c2.313-2.821,1.441-8.422-2.722-11.291c-1.973-1.475-4.607-2.473-7.456-2.385c-2.824,0.066-5.708,1.052-8.311,2.644
			c-5.117,3.212-9.831,8.594-11.41,15.78c-0.753,3.554-0.363,7.642,1.609,11.104c1.937,3.468,5.126,6.191,8.789,7.952
			c7.488,3.705,16.375,2.891,24.602,1.429c8.251-1.523,17.12-2.775,25.47-6.827c8.203-3.977,15.351-11.312,16.611-20.379
			c1.274-8.932-1.734-16.928-2.743-24.408c-2.385-15.072,3.464-28.896,11.185-37.204c7.857-8.487,17.036-12.022,23.236-13.524
			c6.324-1.473,10.001-1.259,9.988-1.522c0.003-0.085-0.903-0.184-2.64-0.225c-1.73,0.011-4.309,0.121-7.566,0.742
			c-6.406,1.223-15.997,4.562-24.386,13.25c-8.238,8.504-14.601,22.915-12.232,38.835c1.029,7.759,3.822,15.671,2.593,23.654
			c-1.116,7.975-7.525,14.659-15.217,18.402c-7.819,3.809-16.5,5.102-24.747,6.647c-8.138,1.498-16.408,2.196-23.099-1.068
			c-3.313-1.558-6.132-3.96-7.816-6.897c-1.707-2.931-2.1-6.374-1.485-9.544c1.289-6.396,5.598-11.581,10.249-14.604
			c4.679-3.153,10.357-3.364,13.902-0.651c3.7,2.469,4.566,7.009,2.727,9.526c-1.647,2.663-4.274,3.543-5.859,3.537
			C33.693,413.797,32.914,413.196,32.853,413.331"/>
		<path fill="#161010" d="M32.853,478.511c0,0,0.64,0.806,2.465,1.057c1.752,0.178,4.727-0.586,6.751-3.506
			c2.313-2.82,1.441-8.422-2.722-11.293c-1.973-1.472-4.607-2.47-7.456-2.385c-2.824,0.067-5.708,1.052-8.311,2.646
			c-5.117,3.212-9.831,8.591-11.41,15.776c-0.753,3.555-0.363,7.646,1.609,11.107c1.937,3.467,5.126,6.191,8.789,7.952
			c7.488,3.704,16.375,2.891,24.602,1.426c8.251-1.522,17.12-2.776,25.47-6.824c8.203-3.979,15.351-11.312,16.611-20.378
			c1.274-8.934-1.734-16.931-2.743-24.409c-2.385-15.073,3.464-28.895,11.185-37.204c7.857-8.487,17.036-12.026,23.236-13.525
			c6.324-1.474,10.001-1.257,9.988-1.521c0.003-0.087-0.903-0.184-2.64-0.226c-1.73,0.012-4.309,0.121-7.566,0.738
			c-6.406,1.229-15.997,4.566-24.386,13.255c-8.238,8.504-14.601,22.915-12.232,38.834c1.029,7.76,3.822,15.669,2.593,23.652
			c-1.116,7.978-7.525,14.662-15.217,18.404c-7.819,3.809-16.5,5.103-24.747,6.649c-8.138,1.496-16.408,2.191-23.099-1.071
			c-3.313-1.558-6.132-3.962-7.816-6.897c-1.707-2.93-2.1-6.373-1.485-9.542c1.289-6.396,5.598-11.584,10.249-14.604
			c4.679-3.152,10.357-3.364,13.902-0.649c3.7,2.466,4.566,7.005,2.727,9.523c-1.647,2.663-4.274,3.544-5.859,3.538
			C33.693,478.979,32.914,478.376,32.853,478.511"/>
		<path fill="#896145" d="M226.931,245.196"/>
		<path fill="#161010" d="M175.126,194.159c0.187,2.188,8.417,3.283,18.388,2.439c9.977-0.838,17.913-3.292,17.728-5.483
			c-0.188-2.185-8.42-3.275-18.397-2.436C182.876,189.52,174.941,191.974,175.126,194.159"/>
		<path fill="#161010" d="M252.412,199.003c1.181,1.908,6.8,0.638,13.185,1.95c4.729,0.779,8.512,2.541,10.938,3.024l9.426,1.88
			l-6.836-3.878c-0.864-0.486-1.578-0.606-2.086-0.317c-0.511,0.296-0.768,0.976-0.774,1.967l2.591-2.001
			c-0.616-2.625-5.027-7.367-11.857-8.5c-4.567-0.853-8.865,0.138-11.457,1.65C252.896,196.292,251.9,198.084,252.412,199.003"/>
		<path fill="#FFFFFF" d="M210.625,228.846c0,0,0.727-18.194-18.89-20.262c-16.475-1.741-19.877,16.933-19.877,16.933
			L210.625,228.846z"/>
		<path fill="#161010" d="M193.644,208.862l-4.799,18.118l21.781,1.866C210.625,228.846,210.604,210.808,193.644,208.862"/>
		<path fill="#161010" d="M171.175,222.433c0.438,0.178,1.422-3.049,5.076-6.56c3.476-3.471,10.288-7.062,17.747-5.689
			c7.444,1.507,12.419,7.387,14.353,11.901c2.077,4.625,1.787,7.981,2.263,7.978c0.236,0.088,1.276-3.388-0.523-8.672
			c-1.65-5.1-6.919-12.022-15.586-13.805c-8.705-1.578-16.177,2.875-19.607,6.993C171.256,218.809,170.92,222.421,171.175,222.433"
			/>
		<path fill="#FFFFFF" d="M283.375,230.108c0,0-0.786-18.193-20.506-18.63c-16.561-0.369-18.406,18.527-18.406,18.527
			L283.375,230.108z"/>
		<path fill="#161010" d="M264.795,211.598l-3.285,18.451l21.863,0.059C283.373,230.108,281.859,212.133,264.795,211.598"/>
		<path fill="#161010" d="M243.531,226.983c0.448,0.143,1.16-3.149,4.513-6.957c3.178-3.745,9.667-7.891,17.214-7.136
			c7.538,0.885,12.99,6.331,15.286,10.668c2.46,4.431,2.448,7.807,2.92,7.762c0.241,0.069,0.987-3.481-1.24-8.598
			c-2.062-4.948-7.891-11.411-16.675-12.467c-8.806-0.854-15.887,4.208-18.965,8.593
			C243.31,223.363,243.274,227.002,243.531,226.983"/>
		<g>
			<path fill="#161010" d="M164.1,463.674c0.059-0.041,0.518,0.479,1.121,1.647c0.586,1.172,1.162,3.116,1.032,5.657
				c-0.102,2.524-1.07,5.61-3.202,8.538c-2.106,2.878-5.714,5.653-10.372,6.229c-9.201,1.439-20.682-5.597-23.958-17.423
				c-1.743-5.76-1.867-12.174-0.75-18.494c1.109-6.354,3.41-12.579,5.947-18.753c5.151-12.211,10.262-24.055,9.407-35.376
				c-0.653-11.271-6.016-20.538-11.043-27.425c-5.123-6.96-10.071-12.009-13.421-15.536c-3.391-3.497-5.269-5.438-5.136-5.579
				c0.118-0.128,2.234,1.556,5.86,4.838c3.586,3.313,8.771,8.188,14.199,15.147c5.311,6.877,11.133,16.396,11.986,28.402
				c1.026,12.085-4.301,24.438-9.39,36.539c-2.519,6.12-4.755,12.166-5.845,18.194c-1.094,6.006-1.012,12.027,0.536,17.343
				c2.84,10.831,13.181,17.314,21.377,16.261c4.118-0.396,7.361-2.71,9.429-5.276c2.059-2.596,3.104-5.395,3.348-7.724
				C165.735,466.13,163.775,463.774,164.1,463.674z"/>
		</g>
		<g>
			<path fill="#896145" d="M240.516,207.481c0,0-0.639,0.984-1.717,2.72c-1.08,1.733-2.595,4.222-4.325,7.238
				c-1.704,3.031-3.642,6.588-5.377,10.518c-0.877,1.958-1.653,4.027-2.342,6.137c-0.676,2.111-1.196,4.297-1.383,6.466
				c-0.209,2.155-0.118,4.331,0.621,6.192l0.283,0.689c0.017,0.042,0.062,0.149,0.054,0.14l0.1,0.188l0.199,0.378
				c0.257,0.508,0.513,1.014,0.768,1.516c0.254,0.503,0.532,0.929,0.793,1.395c0.261,0.458,0.523,0.911,0.827,1.34
				c1.145,1.76,2.392,3.347,3.781,4.636c1.392,1.315,2.906,2.223,4.399,3.439c0.729,0.612,1.416,1.444,1.687,2.36
				c0.105,0.455,0.223,0.864,0.234,1.321c0.006,0.189,0.013,0.375,0.02,0.56c-0.001,0.195-0.033,0.424-0.051,0.626
				c-0.158,1.646-1.164,2.774-2.021,3.377c-0.881,0.627-1.682,0.866-2.211,1.017c-0.537,0.141-0.83,0.168-0.83,0.168
				s0.283-0.085,0.773-0.32c0.486-0.234,1.185-0.646,1.884-1.319c0.684-0.667,1.301-1.733,1.258-2.969
				c-0.009-0.152,0.004-0.286-0.016-0.457c-0.031-0.182-0.062-0.364-0.094-0.551c-0.042-0.297-0.192-0.633-0.301-0.938
				c-0.278-0.598-0.738-1.068-1.391-1.516c-0.645-0.447-1.458-0.865-2.29-1.366c-0.838-0.486-1.675-1.09-2.512-1.735
				c-1.658-1.319-3.191-2.971-4.494-4.832c-0.681-0.902-1.296-1.936-1.906-2.913c-0.277-0.489-0.555-0.982-0.835-1.479l-0.205-0.375
				l-0.103-0.188c-0.07-0.138-0.076-0.166-0.116-0.254l-0.385-0.893c-0.986-2.422-1.112-5.047-0.905-7.513
				c0.252-2.479,0.865-4.849,1.62-7.097c0.75-2.253,1.725-4.357,2.708-6.356c0.979-2.003,2.074-3.853,3.142-5.576
				c1.061-1.729,2.143-3.312,3.175-4.742c2.055-2.87,3.938-5.125,5.292-6.667C239.682,208.307,240.516,207.481,240.516,207.481z"/>
		</g>
		<g>
			<path fill="#896145" d="M230.798,269.901c0,0-0.822,0.473-2.118,0.874c-1.292,0.431-3.058,0.779-4.86,0.881
				c-1.797,0.102-3.644-0.062-4.991-0.528c-0.339-0.122-0.639-0.22-0.9-0.368c-0.262-0.142-0.479-0.266-0.646-0.396
				c-0.325-0.295-0.464-0.463-0.464-0.463s0.253,0.035,0.616,0.096c0.188,0.021,0.433,0.002,0.684,0.021
				c0.253,0.013,0.564-0.033,0.875-0.027c0.316-0.008,0.673-0.062,1.034-0.071c0.368-0.027,0.755-0.058,1.156-0.087
				c0.805-0.066,1.664-0.122,2.529-0.172c1.731-0.092,3.484-0.118,4.824-0.02C229.874,269.712,230.798,269.901,230.798,269.901z"/>
		</g>
		<g>
			<g>
				<g>
					<path fill="none" stroke="#E5007E" stroke-width="3" stroke-linecap="round" stroke-linejoin="round" d="M158.195,373.141
						c0.085-0.068-5.356-6.44-5.271-6.51c0.606-0.491,21.999,22.052,22.606,21.56c0.439-0.354-17.198-20.338-16.758-20.693
						c0.959-0.776,33.131,36.521,34.092,35.743c0.44-0.355-17.237-20.384-16.796-20.74c0.8-0.648,28.134,30.024,28.936,29.376
						c0.281-0.229-11.922-14.146-11.64-14.373"/>
				</g>
			</g>
		</g>
		<g>
			<g>
				<g>
					<path fill="none" stroke="#E5007E" stroke-width="3" stroke-linecap="round" stroke-linejoin="round" d="M238.996,376.262
						c0.049,0.085,6.833-4.06,6.882-3.974c0.356,0.615-22.756,16.936-22.401,17.552c0.254,0.438,20.811-12.603,21.064-12.162
						c0.559,0.969-37.142,24.771-36.583,25.74c0.255,0.44,20.861-12.633,21.116-12.191c0.415,0.719-26.909,19.198-26.495,19.916
						c0.109,0.188,10.918-6.557,11.028-6.367"/>
				</g>
			</g>
		</g>
	</g>
	<g>
		<g>
			<g>
				<g>
					<path fill="#262625" d="M139.609,122.364l-0.217-2.419c-8.163,1.058-17.842,4.234-22.724,9.034
						c-3.85,3.118-5.236,7.348-4.316,12.032C117.837,130.942,128.049,122.7,139.609,122.364z"/>
					<path fill="#262625" d="M299.267,125.036c1.067,0.994,2.021,2.075,2.858,3.228c-0.236-4.274-2.344-7.879-6.361-10.295
						c-5.673-4.153-15.785-5.985-24.049-6.03l0.347,3.918C282.005,114.234,291.914,118.095,299.267,125.036z"/>
					<path fill="#3A3938" d="M221.957,172.361c-27.935,5.292-56.025,2.178-83.779-9.014c-9.511-3.869-16.601-10.176-23.669-16.617
						c9.031,16.445,42.973,35.153,96.628,32.426c55.756-4.019,86.27-28.396,90.498-45.986
						C284.923,159.009,250.884,166.807,221.957,172.361z"/>
					<path fill="#2D2D2B" d="M138.178,163.347c27.754,11.191,55.844,14.306,83.779,9.014c28.927-5.554,62.966-13.352,79.677-39.191
						c0.409-1.707,0.574-3.354,0.49-4.905c-0.837-1.152-1.791-2.233-2.858-3.228c-7.353-6.94-17.261-10.803-27.206-9.18l0.91,10.291
						c-17.643,11.656-38.267,19.907-64.608,21.521c-26.362,1.623-48.211-4.146-67.708-13.516l-1.046-11.79
						c-11.56,0.337-21.772,8.579-27.258,18.647c0.36,1.849,1.087,3.768,2.158,5.719
						C121.577,153.171,128.667,159.478,138.178,163.347z"/>
					<path fill="#2D2D2B" d="M240.644,44.301c-12.665-7.762-26.599-9.762-41.379-9.891c-24.273-0.181-43.643,12.949-56.234,31.342
						c-4.438,9.834-6.488,21.183-5.434,33.121l0.707,7.947l1.198,13.624c18.685,8.97,42.282,13.667,67.522,12.118
						c25.24-1.548,47.752-9.087,64.655-20.245l-1.208-13.608l-0.703-7.954c-0.819-9.29-3.438-17.995-7.437-25.727
						C255.427,57.428,249.772,49.548,240.644,44.301z"/>
					<path fill="#262625" d="M206.752,31.39L189.5,32.443c-20.833,1.285-38.001,14.534-46.469,33.31
						c12.591-18.394,31.961-31.522,56.234-31.342c14.78,0.128,28.715,2.129,41.379,9.891c9.128,5.247,14.783,13.127,21.688,20.729
						C251.362,43.84,230.003,29.958,206.752,31.39z"/>
				</g>
			</g>
		</g>
		<g>
			<path fill="#1D1D1B" d="M208.387,147.77c26.342-1.617,46.966-9.865,64.61-21.521l-1.226-13.889l-0.072-0.009l0.003,0.063
				c-16.906,11.164-39.413,18.7-64.652,20.25c-25.238,1.551-48.82-3.146-67.492-12.111l-0.089,0.043l1.21,13.658
				C160.177,143.624,182.026,149.387,208.387,147.77z"/>
		</g>
	</g>
</g>
<rect x="-53.637" y="46.086" fill="none" width="417.221" height="457.083"/>
<rect x="-53.637" y="46.086" fill="none" width="417.221" height="457.083"/>
<rect x="-53.637" y="46.086" fill="none" width="417.221" height="457.083"/>
<rect x="-53.637" y="46.086" fill="none" width="417.221" height="457.083"/>
<rect x="-53.637" y="46.086" fill="none" width="417.221" height="457.083"/>
</svg>
