<?xml version="1.0" encoding="utf-8"?>
<!-- Generator: Adobe Illustrator 16.0.0, SVG Export Plug-In . SVG Version: 6.00 Build 0)  -->
<!DOCTYPE svg PUBLIC "-//W3C//DTD SVG 1.1//EN" "http://www.w3.org/Graphics/SVG/1.1/DTD/svg11.dtd">
<svg version="1.1" id="Capa_1" xmlns="http://www.w3.org/2000/svg" xmlns:xlink="http://www.w3.org/1999/xlink" x="0px" y="0px"
	 width="1065.884px" height="509.749px" viewBox="0 0 1065.884 509.749" enable-background="new 0 0 1065.884 509.749"
	 xml:space="preserve">
<g>
	<g>
		<defs>
			<rect id="SVGID_5_" x="-127.637" y="-547.885" width="417.221" height="457.083"/>
		</defs>
		<clipPath id="SVGID_2_">
			<use xlink:href="#SVGID_5_"  overflow="visible"/>
		</clipPath>
		<path clip-path="url(#SVGID_2_)" fill="#ECE7ED" d="M157.506-216.341c2.065,38.217,38.705,302.413,30.439,361.28
			c-76.424,1.55-131.163,4.648-131.163,4.648L43.911-222.374C43.911-222.374,145.344-217.308,157.506-216.341"/>
		<path clip-path="url(#SVGID_2_)" fill="#3F5964" d="M235.969,166.018c-24.011,15.492-71.264,13.944-71.264,13.944
			c3.1-53.447,7.746-306.642-19.361-397.269c17.041,0,54,8.906,63.295,15.103c9.297,6.197,105.564,207.98,97.045,355.15
			c-27.111-6.972-54.221-1.551-54.221-1.551c0.775-47.25-36.409-217.657-36.409-217.657
			C216.604,11.971,231.844,70.991,235.969,166.018"/>
		<path clip-path="url(#SVGID_2_)" fill="#3F5964" d="M55.317-223.762c-16.265,3.098-44.795,5.81-57.188,12.783
			c-12.395,6.971,0.258,92.171,0.258,92.171C13.102-33.602,6.934-21.371,5.532,35.235c-2.208,89.1-27.05,124.012-27.05,124.012
			c46.477,27.883,100.52,21.307,100.52,21.307C108.436,113.94,117.286,21.006,55.317-223.762"/>
		<path clip-path="url(#SVGID_2_)" fill="#3F5964" d="M0.58-211.755c-11.36,1.033-33.951,12.128-58.737,91.14
			C-82.945-41.604-108.248-4.94-108.248,27.591c0,32.535,6.195,140.98,13.425,154.924c20.655-13.943,51.125-16.527,59.903-12.394
			c1.031-68.685-25.822-128.584,19.104-212.758C9.49-88.594,24.85-125.514,0.58-211.755"/>
	</g>
</g>
<g>
	<g opacity="0.6">
		<g>
			<defs>
				<polygon id="SVGID_11_" points="253.816,479.988 1001.908,479.988 1009.402,0 261.311,0 				"/>
			</defs>
			<clipPath id="SVGID_4_">
				<use xlink:href="#SVGID_11_"  overflow="visible"/>
			</clipPath>
			<path clip-path="url(#SVGID_4_)" fill-rule="evenodd" clip-rule="evenodd" fill="#75A5D7" d="M1001.018,286.809
				c-0.627,7.183-1.791,14.436-3.314,21.904c-1.617,7.758-3.41,15.369-5.469,22.913v0.14c-3.143,11.779-6.906,23.34-11.211,34.544
				c-44.193,94.078-176.074,100.326-219.645,99.752c0-0.146,0.09-0.358,0.178-0.506c-5.018,0-9.771,0-14.166-0.068
				c-21.516,0-36.129-0.145-50.74,0.068c-63.029,1.15-125.426-1.721-185.672-14.576c-40.342,16.877-86.066,27.146-137.977,28.94
				c-23.396,0.863-47.248-6.677-71.543-10.484c25.373-24.13,49.848-45.386,75.668-69.947c-1.436-0.862-2.779-1.795-4.125-2.731
				c-120.671-81.081-134.891-231.656-3.139-320.224C520.133-24.483,816.391,5.894,906.91,33.771
				C1030.91,71.957,1003.615,260.02,1001.018,286.809z"/>
		</g>
	</g>
	<g>
		<defs>
			<rect id="SVGID_13_" x="-45.82" y="52.666" width="417.221" height="457.083"/>
		</defs>
		<clipPath id="SVGID_6_">
			<use xlink:href="#SVGID_13_"  overflow="visible"/>
		</clipPath>
		<path clip-path="url(#SVGID_6_)" fill="#39251A" d="M245.598,323.275c-14.713-13.49-35.564-17.983-64.172-8.585
			c-28.609,9.4-47.414,2.043-63.764,1.227c-16.344-0.815-40.461,2.86-50.268,4.495c-28.613-18.392-3.27-131.608-1.637-141.011
			c1.637-9.398,101.363-68.665,118.529-63.76c17.17,4.904,33.924,0,40.057,7.357c6.131,7.36-1.635,84.605,15.533,107.902
			C257.041,254.203,271.758,295.89,245.598,323.275"/>
		<path clip-path="url(#SVGID_6_)" fill="#5B3019" d="M91.609,247.401c1.637,24.523,39.139,82.818,3.166,106.524
			c-2.453-14.71-9.809-29.018-26.977-22.068c-17.166,6.946-36.779-0.818-42.506-10.222c-25.342-44.142-8.584-75.205,6.947-95.642
			c15.529-20.436,20.844-53.542,20.844-53.542l32.699,38.012"/>
		<path clip-path="url(#SVGID_6_)" fill="#5B3019" d="M180.201,132.396c18.391-31.879,75.613-13.893,71.932,14.31
			c-3.678,28.202-25.336,53.543-1.629,80.518c23.703,26.98,40.463,66.213,20.846,90.327c-19.623,24.121-14.717,25.346-11.039,29.839
			c-26.57-9.809-26.975-22.478-11.447-55.993c15.533-33.516-29.406-68.572-29.016-105.863
			C220.258,146.293,206.764,134.44,180.201,132.396"/>
		<path clip-path="url(#SVGID_6_)" fill="#3A2919" d="M226.385,159.781c-3.9,17.824-5.131,34.51-1.777,48.894
			c-2.92-7.623-4.842-15.33-4.76-23.143c0.344-32.92-9.105-46.562-27.844-51.305C211.996,129.781,231.746,135.273,226.385,159.781"
			/>
		<path clip-path="url(#SVGID_6_)" fill="#D6A6AC" d="M102.92,359.821c10.73-7.665,53.031-14.102,83.688,0
			c26.057,19.616,16.553,22.381,15.018,22.683c-1.529,0.308-103.305,11.04-103.305,11.04"/>
		<path clip-path="url(#SVGID_6_)" fill="#DAA57C" d="M115.49,276.441c2.859,32.696,10.631,81.029-22.076,100.24
			c12.264,47.819,89.211,58.042,89.211,58.042s15.938-55.18,8.99-66.217c-26.158-5.724-24.934-32.089-26.162-68.461
			C159.324,286.557,115.49,276.441,115.49,276.441"/>
		<g opacity="0.5" clip-path="url(#SVGID_6_)">
			<g>
				<defs>
					<rect id="SVGID_15_" x="115.49" y="276.441" width="55.6" height="75.068"/>
				</defs>
				<clipPath id="SVGID_8_">
					<use xlink:href="#SVGID_15_"  overflow="visible"/>
				</clipPath>
				<path clip-path="url(#SVGID_8_)" fill="#B88259" d="M171.09,351.51c-5.033-12.298-4.914-30.158-5.637-51.465
					c-6.129-13.488-49.963-23.604-49.963-23.604c1.299,14.87,3.607,32.979,2.668,50.109
					C136.52,342.244,159.102,349.718,171.09,351.51"/>
			</g>
		</g>
		<path clip-path="url(#SVGID_6_)" fill="#211B2C" d="M100.404,378.997c13.486,20.846,44.805,150.847,37.035,168.827
			c51.908,2.046,79.023,0,79.023,0c13.896-50.681,23.379-147.744-30.16-182.484c4.084,22.069-1.225,44.856-7.361,48.535
			C160.959,409.378,106.127,374.093,100.404,378.997"/>
		<path clip-path="url(#SVGID_6_)" fill="#DAA57C" d="M220.633,168.843c-3.064,38.624-2.455,61.922,4.293,91.964
			c3.066,13.488,1.225,33.106-45.984,60.695c-7.049,3.376-78.779-13.487-88.279-72.345c-9.801-60.658,9.805-109.127,46.59-116.487
			C174.039,125.315,217.568,129.606,220.633,168.843"/>
		<path clip-path="url(#SVGID_6_)" fill="#DAA57C" d="M88.209,225.041C77.781,209,57.557,220.956,64.092,238.123
			c6.771,17.772,23.498,19.925,32.389,10.728C94.848,235.771,88.209,225.041,88.209,225.041"/>
		<path clip-path="url(#SVGID_6_)" fill="#050306" d="M147.369,237.817c-0.428,0.096-1.051-2.773-2.984-6.833
			c-1.012-1.986-2.445-4.253-4.688-5.985c-2.186-1.8-5.205-2.862-8.559-3.282c-3.367-0.412-6.713-0.289-9.799-0.279
			c-3.086,0.026-5.961-0.08-8.359-0.662c-2.412-0.562-4.211-1.763-5.1-2.824c-0.221-0.272-0.432-0.495-0.564-0.727
			c-0.129-0.234-0.232-0.435-0.307-0.601c-0.146-0.331-0.184-0.523-0.107-0.573c0.078-0.049,0.262,0.043,0.533,0.253
			c0.135,0.107,0.293,0.241,0.469,0.402c0.18,0.159,0.426,0.301,0.668,0.485c0.994,0.713,2.578,1.467,4.764,1.753
			c2.184,0.301,4.881,0.226,7.939,0.064c3.057-0.138,6.504-0.355,10.195,0.092c3.67,0.446,7.279,1.775,9.775,4.027
			c2.561,2.177,3.979,4.869,4.846,7.104c0.818,2.276,1.207,4.172,1.346,5.492C147.566,237.049,147.549,237.785,147.369,237.817"/>
		<path clip-path="url(#SVGID_6_)" fill="#050306" d="M121.637,219.903c-2.242,2.303-3.697,5.744-3.697,9.637
			c0,6.941,4.531,12.567,10.117,12.567s10.113-5.626,10.113-12.567c0-3.743-1.342-7.068-3.436-9.37
			C130.373,219.982,126.006,219.913,121.637,219.903"/>
		<path clip-path="url(#SVGID_6_)" fill="#B88259" d="M171.381,263.471c0.141,0.378,3.078,0.044,7.574-1.949
			c1.105-0.563,2.328-1.203,3.52-2.347c0.588-0.568,1.195-1.304,1.539-2.315c0.414-1.012,0.271-2.256-0.08-3.264
			c-0.836-1.953-2.221-3.172-3.537-4.344c-1.496-1.235-2.354-1.901-3.002-3.308c-1.262-2.675-1.203-6.087-1.059-9.043
			c0.166-3.007,0.531-5.755,0.803-8.072c0.578-4.631,0.854-7.558,0.375-7.664c-0.449-0.099-1.557,2.625-2.762,7.217
			c-0.582,2.303-1.209,5.064-1.57,8.254c-0.281,3.155-0.645,6.883,1.125,10.811c0.461,0.961,1.094,1.848,1.828,2.613
			c0.82,0.781,1.488,1.268,2.098,1.766c1.236,1,2.336,2.062,2.771,2.97c0.895,1.451-1.42,3.473-3.242,4.608
			C173.918,261.763,171.189,262.971,171.381,263.471"/>
		<path clip-path="url(#SVGID_6_)" fill="#050306" d="M189.568,237.578c1.443,3.108,3.752,5.146,6.375,5.146
			c4.377,0,7.932-5.632,7.932-12.57c0-4.203-1.312-7.901-3.318-10.186C193.928,223.771,191.049,230.362,189.568,237.578"/>
		<path clip-path="url(#SVGID_6_)" fill="#39251A" d="M193.963,197.656c-0.352-0.226,0.254-1.937,2.459-3.617
			c2.146-1.682,5.83-3.073,10.008-2.938c4.191,0.072,7.877,1.992,9.707,4.064c1.855,2.102,2.096,3.862,1.736,4.023
			c-0.473,0.262-1.469-0.944-3.334-2.194c-1.865-1.235-4.76-2.384-8.225-2.46c-3.441-0.109-6.578,0.678-8.652,1.594
			C195.553,197.011,194.375,197.974,193.963,197.656"/>
		<path clip-path="url(#SVGID_6_)" fill="#BD4433" d="M143.795,276.135c11.646,19.623,44.969,52.942,44.35,8.377
			C185.486,283.29,143.795,276.135,143.795,276.135"/>
		<path clip-path="url(#SVGID_6_)" fill="#FFFFFF" d="M143.182,274.705c15.734,4.494,38.621,0.407,52.109,0.407
			c-10.215,7.972-13.076,26.568-16.141,26.978C169.342,302.09,153.605,288.193,143.182,274.705"/>
		<path clip-path="url(#SVGID_6_)" fill="#BD4433" d="M144.203,274.501c10.83,2.863,42.713-6.746,56.402-0.613
			C191.002,276.339,155.646,281.445,144.203,274.501"/>
		<path clip-path="url(#SVGID_6_)" fill="#B88259" d="M148.291,273.07c-0.27-0.876-3.145-0.746-6.018,0.916
			c-1.488,0.719-2.588,1.83-3.307,2.666c-0.715,0.859-0.982,1.563-0.689,1.935c0.646,0.783,3.016-0.146,5.648-1.589
			C146.545,275.476,148.598,274.004,148.291,273.07"/>
		<path clip-path="url(#SVGID_6_)" fill="#050306" d="M189.52,237.355c-0.318-0.04-0.471-2.369,0.188-6.106
			c0.318-1.864,0.936-4.088,2.123-6.423c0.273-0.593,0.691-1.146,1.053-1.739c0.449-0.545,0.857-1.143,1.424-1.642
			c1.057-1.047,2.416-1.935,3.926-2.455c3.057-1.037,5.971-0.721,8.393-0.511c2.443,0.255,4.533,0.479,6.156,0.2
			c1.619-0.258,2.695-1.063,3.373-1.755c0.369-0.321,0.588-0.646,0.795-0.833c0.201-0.193,0.35-0.281,0.434-0.244
			c0.082,0.038,0.096,0.201,0.041,0.487c-0.066,0.283-0.15,0.713-0.441,1.195c-0.25,0.497-0.662,1.084-1.291,1.626
			c-0.609,0.58-1.488,1.01-2.467,1.334c-1.992,0.608-4.357,0.525-6.77,0.412c-2.414-0.094-5.02-0.235-7.352,0.576
			c-1.162,0.404-2.168,1.044-3.018,1.84c-0.451,0.365-0.795,0.853-1.184,1.271c-0.314,0.49-0.689,0.92-0.953,1.428
			c-1.139,1.962-1.91,3.965-2.434,5.689C190.432,235.156,189.922,237.411,189.52,237.355"/>
		<path clip-path="url(#SVGID_6_)" fill="#D38D2A" d="M122.232,827.917c-25.135-0.615-84.916-2.76-98.096-34.027
			c16.248-64.681,34.947-166.765,77.25-242.173c5.215-15.631-24.83-54.564-35.863-87.673c-10.73-36.478-18.195-73.874-17.375-75.102
			c4.498-4.288,45.576-13.182,45.576-13.182s48.127,30.654,53.646,74.798c5.518,44.143-0.617,126.603-7.051,184.542
			C133.881,693.033,135.719,807.071,122.232,827.917"/>
		<path clip-path="url(#SVGID_6_)" fill="#B77A23" d="M103.328,359.515c-11.854,9.401-24.271,13.887-24.164,15.175
			c1.736,21.357,21.711,42.046,24.164,44.093c14.715,3.271,29.836,8.582,29.836,8.582c-17.98,10.829-14.305,11.85-14.305,11.85
			c17.168,14.718,31.471,59.676,29.428,100.139c10.627-67.844,20.643-89.307-41.686-165.941
			C101.26,366.849,103.328,359.515,103.328,359.515"/>
		<path clip-path="url(#SVGID_6_)" fill="#C07B25" d="M230.85,393.436c22.277,17.271,17.172,94.01,35.973,138.97
			c18.799,44.959,34.74,129.567,34.74,138.559c-16.354,13.897-36.789,9.812-42.51,3.271
			c-17.168-47.413-33.924-134.474-38.83-163.083C227.383,469.256,230.85,393.436,230.85,393.436"/>
		<path clip-path="url(#SVGID_6_)" fill="#D38D2A" d="M215.424,515.546c-13.422,44.812,10.115,243.704-8.891,306.239
			c15.328,2.453,37.705-15.94,40.77-22.072c3.064-6.131-12.262-232.974-18.393-270.37c-6.131-37.401,23.602-61.617,6.439-126.607
			c-13.488-11.033-12.57-3.371-12.57-3.371S232.586,458.222,215.424,515.546"/>
		<path clip-path="url(#SVGID_6_)" fill="#B77A23" d="M179.25,357.061c22.891,22.483,56.912,54.771,35.658,160.632
			c22.484-38.83,28.201-94.008,28.201-94.008s-11.027-11.854-12.668-11.854c8.176-6.133,13.078-8.581,11.852-11.445
			C241.07,397.526,199.328,354.917,179.25,357.061"/>
		<path clip-path="url(#SVGID_6_)" fill="#B77A23" d="M48.148,388.942c-1.633,3.681-60.898,145.501-59.266,168.397
			c1.635,22.888,47.818,77.246,65.398,90.737c4.092-20.643,28.201-25.342,28.201-25.342c-14.715-22.481-43.738-62.948-45.781-75.616
			c-2.043-12.671,33.229-76.358,35.562-81.336C93.928,419.596,49.783,385.265,48.148,388.942"/>
		<path clip-path="url(#SVGID_6_)" fill="#5B3019" d="M189.191,135.263c-5.314,27.793-9.4,55.582-38.83,64.574
			c-29.428,8.996-58.447-0.406-57.217,6.132c1.223,6.542,6.387,29.682-0.158,31.32c-8.58-10.221-8.695-12.854-12.924-17.421
			c-7-7.563-31.059-6.539-30.656-27.389c0.408-20.843,8.586-62.943,25.344-66.212c16.756-3.271,35.969-5.312,51.906-22.479
			c15.941-17.164,61.312-16.353,74.801,20.435C195.732,120.95,189.602,131.17,189.191,135.263"/>
		<path clip-path="url(#SVGID_6_)" fill="#39251A" d="M152.176,196.435c-0.346,0.422-2.168-0.73-5.297-1.709
			c-3.129-0.985-7.66-1.592-12.742-1.166c-10.201,0.805-18.131,4.187-18.549,3.282c-0.486-0.75,7.189-5.804,18.295-6.708
			c5.504-0.472,10.658,0.616,13.92,2.35C151.094,194.216,152.447,196.151,152.176,196.435"/>
	</g>
	<g>
		<path fill-rule="evenodd" clip-rule="evenodd" fill="#ACC22F" d="M954.434,353.866c2.885-10.14,9.732-18.599,19.578-25.419
			c12.967-8.978,27.447-12.269,42.629-12.589c2.646-0.071,5.309-0.029,7.998,0.083c10.404,0.434,19.451,4.383,27.014,11.567
			c19.732,18.794,18.361,46.636-0.49,62.447c-0.209,0.182-0.42,0.364-0.645,0.532c4.033,4.79,7.857,8.935,11.82,13.64
			c-3.795,0.743-7.521,2.213-11.176,2.045c-8.107-0.35-15.25-2.352-21.553-5.644c-9.412,2.507-19.158,3.066-29.004,2.843
			c-2.283-0.042-4.566-0.014-7.926-0.014c-0.686,0.014-1.43,0.014-2.213,0.014c0.014,0.029,0.027,0.07,0.027,0.098
			c-6.807,0.113-27.408-1.105-34.311-19.452c-0.672-2.185-1.262-4.438-1.75-6.735v-0.028c-0.322-1.471-0.604-2.955-0.855-4.468
			c-0.238-1.456-0.42-2.871-0.518-4.271C952.654,363.29,953.145,358.403,954.434,353.866"/>
		<g>
			<path fill="#424241" d="M969.451,350.708h2.763v18.745c0,1.969-0.332,3.323-0.996,4.063c-0.664,0.739-1.824,1.109-3.48,1.109
				s-2.81-0.293-3.459-0.878c-0.65-0.586-0.975-1.655-0.975-3.21v-2.618h2.806v2.539c0,0.979,0.118,1.628,0.354,1.947
				s0.66,0.479,1.274,0.479c0.643,0,1.089-0.208,1.339-0.623s0.375-1.245,0.375-2.49V350.708z"/>
			<path fill="#424241" d="M976.562,357.845h2.635v12.582c0,0.969,0.139,1.637,0.417,2.004s0.753,0.551,1.425,0.551
				c0.656,0,1.121-0.188,1.392-0.566c0.271-0.378,0.407-1.041,0.407-1.988v-12.582h2.678v16.414h-2.463l-0.215-1.006
				c-0.356,0.458-0.8,0.801-1.328,1.03c-0.528,0.229-1.149,0.343-1.863,0.343c-1.128,0-1.924-0.277-2.388-0.83
				c-0.465-0.554-0.696-1.522-0.696-2.906V357.845z"/>
			<path fill="#424241" d="M989.542,350.708h2.635v23.551h-2.635V350.708z"/>
			<path fill="#424241" d="M996.118,350.708h2.935v2.491h-2.935V350.708z M996.247,357.845h2.635v16.414h-2.635V357.845z"/>
			<path fill="#424241" d="M1011.818,362.124v7.855c0,1.81-0.328,3.042-0.985,3.696c-0.657,0.655-1.82,0.982-3.491,0.982
				c-1.656,0-2.816-0.333-3.48-0.998s-0.996-1.902-0.996-3.712v-7.824c0-1.82,0.324-3.055,0.975-3.704
				c0.649-0.649,1.817-0.974,3.502-0.974c1.656,0,2.816,0.332,3.48,0.998C1011.486,359.109,1011.818,360.336,1011.818,362.124z
				 M1009.056,361.629c0-0.968-0.129-1.628-0.386-1.979s-0.7-0.527-1.328-0.527c-0.643,0-1.096,0.187-1.36,0.56
				c-0.264,0.372-0.396,1.021-0.396,1.947v8.83c0,0.979,0.128,1.645,0.385,1.995c0.258,0.352,0.714,0.527,1.371,0.527
				c0.628,0,1.071-0.181,1.328-0.543c0.257-0.361,0.386-1.021,0.386-1.979V361.629z"/>
		</g>
		<path fill="#424241" d="M1039.455,343.718c-10.967,0-19.859,8.894-19.859,19.863c0,10.966,8.893,19.86,19.859,19.86
			c10.969,0,19.861-8.895,19.861-19.86C1059.316,352.611,1050.424,343.718,1039.455,343.718 M1032.27,360.548
			c0-0.689,0.793-1.085,1.348-0.673l3.877,2.896c0.539,0.405,0.539,1.213,0,1.618l-3.877,2.898
			c-0.555,0.409-1.348,0.014-1.348-0.676V360.548z M1050.73,364.389l-17.113,12.794c-0.555,0.419-1.348,0.022-1.348-0.674v-2.501
			c0-0.673,0.32-1.312,0.861-1.714l10.771-8.057c0.436-0.327,0.436-0.986,0-1.315l-10.771-8.056
			c-0.541-0.404-0.861-1.041-0.861-1.706v-2.51c0-0.695,0.793-1.093,1.348-0.674l17.113,12.794
			C1051.27,363.176,1051.27,363.983,1050.73,364.389"/>
	</g>
</g>
</svg>
