<?xml version="1.0" encoding="utf-8"?>
<!-- Generator: Adobe Illustrator 16.0.0, SVG Export Plug-In . SVG Version: 6.00 Build 0)  -->
<!DOCTYPE svg PUBLIC "-//W3C//DTD SVG 1.1//EN" "http://www.w3.org/Graphics/SVG/1.1/DTD/svg11.dtd">
<svg version="1.1" id="Capa_1" xmlns="http://www.w3.org/2000/svg" xmlns:xlink="http://www.w3.org/1999/xlink" x="0px" y="0px"
	 width="329.365px" height="41.867px" viewBox="0 0 329.365 41.867" enable-background="new 0 0 329.365 41.867"
	 xml:space="preserve">
<g>
	<path fill="#4679A7" d="M0,0h10.606v2.629H3.827v11.926h6.478v2.605H3.827v13.342h6.96v2.629H0V0z"/>
	<path fill="#4679A7" d="M28.263,14.779v18.352h-3.706V15.363c0-1.316-0.196-2.234-0.588-2.75c-0.392-0.518-1.06-0.775-2.003-0.775
		c-0.924,0-1.587,0.266-1.989,0.797c-0.402,0.531-0.603,1.441-0.603,2.729v17.768h-3.706v-23.09h3.465l0.241,1.414
		c0.502-0.643,1.14-1.133,1.913-1.471c0.773-0.336,1.662-0.506,2.667-0.506c1.566,0,2.676,0.395,3.329,1.18
		C27.937,11.445,28.263,12.818,28.263,14.779z"/>
	<path fill="#4679A7" d="M37.814,3.818v6.223h2.833v2.336h-2.833v17.16c0,0.643,0.166,1.09,0.497,1.336
		c0.332,0.248,0.929,0.371,1.793,0.371h0.542v2.402c-0.221,0.016-0.447,0.027-0.678,0.035c-0.231,0.006-0.557,0.01-0.979,0.01
		c-1.889,0-3.174-0.34-3.857-1.021c-0.683-0.682-1.024-2.197-1.024-4.549V12.377h-2.019v-2.336h2.019v-5.1L37.814,3.818z"/>
	<path fill="#4679A7" d="M56.827,16.061v11.051c0,2.545-0.462,4.279-1.386,5.199c-0.925,0.922-2.562,1.381-4.912,1.381
		c-2.331,0-3.962-0.467-4.896-1.402c-0.934-0.938-1.401-2.678-1.401-5.223V16.061c0-2.561,0.457-4.299,1.371-5.211
		c0.914-0.914,2.556-1.371,4.926-1.371c2.33,0,3.962,0.469,4.896,1.404C56.36,11.818,56.827,13.545,56.827,16.061z M52.94,15.363
		c0-1.361-0.181-2.291-0.543-2.785c-0.361-0.494-0.984-0.74-1.868-0.74c-0.904,0-1.542,0.262-1.914,0.785
		c-0.372,0.525-0.557,1.438-0.557,2.74v12.422c0,1.377,0.181,2.312,0.542,2.807c0.361,0.494,1.004,0.742,1.928,0.742
		c0.884,0,1.506-0.256,1.868-0.764c0.362-0.51,0.543-1.438,0.543-2.785V15.363z"/>
	<path fill="#4679A7" d="M74.967,14.779v18.352H71.26V15.363c0-1.316-0.195-2.234-0.587-2.75c-0.392-0.518-1.06-0.775-2.004-0.775
		c-0.924,0-1.587,0.266-1.988,0.797c-0.402,0.531-0.604,1.441-0.604,2.729v17.768h-3.706v-23.09h3.466l0.24,1.414
		c0.502-0.643,1.141-1.133,1.914-1.471c0.772-0.336,1.662-0.506,2.666-0.506c1.567,0,2.677,0.395,3.33,1.18
		C74.64,11.445,74.967,12.818,74.967,14.779z"/>
	<path fill="#4679A7" d="M92.051,16.061v1.482h-3.887v-2.18c0-1.512-0.136-2.479-0.407-2.896c-0.271-0.42-0.768-0.629-1.491-0.629
		c-0.723,0-1.226,0.236-1.507,0.707c-0.281,0.473-0.422,1.412-0.422,2.818v12.422c0,1.438,0.146,2.389,0.438,2.852
		c0.291,0.465,0.809,0.697,1.552,0.697c0.703,0,1.185-0.213,1.446-0.641c0.261-0.426,0.392-1.396,0.392-2.908v-2.471h3.887v1.797
		c0,2.545-0.427,4.279-1.28,5.199c-0.854,0.922-2.355,1.381-4.505,1.381c-2.129,0-3.621-0.471-4.475-1.414s-1.28-2.682-1.28-5.211
		V16.061c0-2.561,0.422-4.299,1.266-5.211c0.844-0.914,2.34-1.371,4.489-1.371c2.129,0,3.626,0.469,4.489,1.404
		C91.619,11.818,92.051,13.545,92.051,16.061z"/>
	<path fill="#4679A7" d="M109.406,16.061v6.85h-8.769v4.875c0,1.377,0.182,2.312,0.543,2.807s1.004,0.742,1.928,0.742
		c0.884,0,1.507-0.256,1.868-0.764c0.362-0.51,0.543-1.438,0.543-2.785v-2.561h3.887v1.887c0,2.545-0.462,4.279-1.386,5.199
		c-0.925,0.922-2.562,1.381-4.912,1.381c-2.33,0-3.962-0.467-4.896-1.402c-0.935-0.938-1.401-2.678-1.401-5.223V16.061
		c0-2.561,0.457-4.299,1.371-5.211c0.914-0.914,2.556-1.371,4.926-1.371c2.33,0,3.963,0.469,4.896,1.404
		C108.939,11.818,109.406,13.545,109.406,16.061z M105.52,15.363c0-1.361-0.181-2.291-0.543-2.785
		c-0.361-0.494-0.984-0.74-1.868-0.74c-0.903,0-1.541,0.262-1.913,0.785c-0.372,0.525-0.558,1.438-0.558,2.74v5.211h4.882V15.363z"
		/>
	<path fill="#4679A7" d="M125.437,15.363v1.303h-3.706v-1.303c0-1.422-0.136-2.365-0.407-2.83c-0.271-0.463-0.769-0.695-1.491-0.695
		c-0.644,0-1.1,0.213-1.371,0.641c-0.271,0.426-0.407,1.148-0.407,2.166v0.922c0,0.494,0.126,0.98,0.377,1.459
		c0.251,0.48,0.658,0.988,1.221,1.527L124.141,23c0.502,0.51,0.889,1.033,1.16,1.572s0.406,1.049,0.406,1.527v2.201
		c0,1.992-0.437,3.389-1.311,4.189s-2.355,1.201-4.444,1.201c-2.169,0-3.676-0.418-4.52-1.258c-0.844-0.838-1.266-2.389-1.266-4.648
		v-1.977h3.676v1.977c0,1.467,0.146,2.426,0.438,2.875c0.291,0.449,0.809,0.674,1.552,0.674c0.763,0,1.306-0.225,1.627-0.674
		s0.482-1.236,0.482-2.359v-0.875c0-1.258-0.613-2.471-1.839-3.639c-0.04-0.045-0.07-0.076-0.09-0.09l-4.369-4.402
		c-0.462-0.465-0.794-0.926-0.994-1.381c-0.201-0.457-0.302-0.963-0.302-1.518v-1.662c0-1.9,0.427-3.252,1.281-4.053
		c0.854-0.803,2.274-1.203,4.263-1.203c2.069,0,3.511,0.42,4.324,1.258C125.029,11.576,125.437,13.117,125.437,15.363z"/>
	<path fill="#4679A7" d="M141.738,7.682h3.254l0.572,25.449h-4.399L141.738,7.682z M141.226,0h4.278v3.639h-4.278V0z"/>
	<path fill="#4679A7" d="M153.157,0h10.606v2.629h-6.779v11.926h6.479v2.605h-6.479v13.342h6.96v2.629h-10.787V0z"/>
	<path fill="#4679A7" d="M180.185,11.613c0.743-0.779,1.457-1.33,2.14-1.65c0.683-0.322,1.477-0.484,2.381-0.484
		c1.386,0,2.38,0.396,2.982,1.191c0.603,0.793,0.904,2.164,0.904,4.109v18.352h-3.706V15.363c0-1.316-0.161-2.234-0.482-2.75
		c-0.321-0.518-0.864-0.775-1.627-0.775c-0.783,0-1.352,0.277-1.702,0.83c-0.352,0.555-0.527,1.453-0.527,2.695v17.768h-3.706
		V15.363c0-1.316-0.156-2.234-0.468-2.75c-0.312-0.518-0.849-0.775-1.611-0.775c-0.784,0-1.352,0.277-1.703,0.83
		c-0.352,0.555-0.527,1.453-0.527,2.695v17.768h-3.706v-23.09h3.466l0.24,1.414c0.502-0.658,1.101-1.152,1.793-1.482
		c0.693-0.328,1.472-0.494,2.335-0.494c0.924,0,1.688,0.184,2.29,0.551C179.553,10.396,179.964,10.924,180.185,11.613z"/>
	<path fill="#4679A7" d="M206.852,14.779v13.611c0,1.963-0.327,3.336-0.979,4.123c-0.653,0.785-1.763,1.178-3.33,1.178
		c-1.004,0-1.894-0.168-2.666-0.504c-0.773-0.338-1.412-0.828-1.914-1.473v10.152h-3.706V10.041h3.466l0.24,1.414
		c0.502-0.643,1.141-1.133,1.914-1.471c0.772-0.336,1.662-0.506,2.666-0.506c1.567,0,2.677,0.395,3.33,1.18
		C206.524,11.445,206.852,12.818,206.852,14.779z M202.964,15.363c0-1.361-0.181-2.291-0.542-2.785s-1.005-0.74-1.929-0.74
		c-0.903,0-1.552,0.266-1.943,0.797s-0.588,1.441-0.588,2.729v12.422c0,1.316,0.191,2.238,0.573,2.762
		c0.381,0.525,1.034,0.787,1.958,0.787s1.567-0.248,1.929-0.742s0.542-1.43,0.542-2.807V15.363z"/>
	<path fill="#4679A7" d="M224.871,16.061v6.85h-8.769v4.875c0,1.377,0.182,2.312,0.543,2.807s1.004,0.742,1.927,0.742
		c0.885,0,1.508-0.256,1.869-0.764c0.361-0.51,0.543-1.438,0.543-2.785v-2.561h3.887v1.887c0,2.545-0.463,4.279-1.387,5.199
		c-0.924,0.922-2.561,1.381-4.912,1.381c-2.33,0-3.961-0.467-4.895-1.402c-0.935-0.938-1.401-2.678-1.401-5.223V16.061
		c0-2.561,0.457-4.299,1.371-5.211c0.914-0.914,2.556-1.371,4.925-1.371c2.33,0,3.963,0.469,4.896,1.404
		C224.404,11.818,224.871,13.545,224.871,16.061z M220.984,15.363c0-1.361-0.182-2.291-0.543-2.785s-0.984-0.74-1.869-0.74
		c-0.903,0-1.541,0.262-1.913,0.785c-0.372,0.525-0.558,1.438-0.558,2.74v5.211h4.882V15.363z"/>
	<path fill="#4679A7" d="M241.833,16.061v1.482h-3.887v-2.18c0-1.512-0.135-2.479-0.406-2.896c-0.271-0.42-0.768-0.629-1.492-0.629
		c-0.723,0-1.225,0.236-1.506,0.707c-0.281,0.473-0.422,1.412-0.422,2.818v12.422c0,1.438,0.145,2.389,0.438,2.852
		c0.291,0.465,0.809,0.697,1.551,0.697c0.703,0,1.186-0.213,1.447-0.641c0.26-0.426,0.391-1.396,0.391-2.908v-2.471h3.887v1.797
		c0,2.545-0.426,4.279-1.279,5.199c-0.855,0.922-2.355,1.381-4.506,1.381c-2.129,0-3.621-0.471-4.475-1.414
		s-1.279-2.682-1.279-5.211V16.061c0-2.561,0.422-4.299,1.266-5.211c0.844-0.914,2.34-1.371,4.488-1.371
		c2.129,0,3.627,0.469,4.49,1.404S241.833,13.545,241.833,16.061z"/>
	<path fill="#4679A7" d="M259.189,16.061v6.85h-8.768v4.875c0,1.377,0.182,2.312,0.543,2.807s1.004,0.742,1.928,0.742
		c0.883,0,1.506-0.256,1.867-0.764c0.363-0.51,0.543-1.438,0.543-2.785v-2.561h3.887v1.887c0,2.545-0.461,4.279-1.385,5.199
		c-0.926,0.922-2.562,1.381-4.912,1.381c-2.33,0-3.963-0.467-4.896-1.402c-0.934-0.938-1.4-2.678-1.4-5.223V16.061
		c0-2.561,0.457-4.299,1.371-5.211c0.914-0.914,2.555-1.371,4.926-1.371c2.33,0,3.963,0.469,4.896,1.404
		S259.189,13.545,259.189,16.061z M255.302,15.363c0-1.361-0.18-2.291-0.543-2.785c-0.361-0.494-0.984-0.74-1.867-0.74
		c-0.904,0-1.541,0.262-1.914,0.785c-0.371,0.525-0.557,1.438-0.557,2.74v5.211h4.881V15.363z"/>
	<path fill="#4679A7" d="M276.093,11.613c0.742-0.779,1.457-1.33,2.139-1.65c0.684-0.322,1.477-0.484,2.381-0.484
		c1.387,0,2.381,0.396,2.982,1.191c0.604,0.793,0.904,2.164,0.904,4.109v18.352h-3.705V15.363c0-1.316-0.162-2.234-0.482-2.75
		c-0.322-0.518-0.865-0.775-1.627-0.775c-0.783,0-1.352,0.277-1.703,0.83c-0.352,0.555-0.527,1.453-0.527,2.695v17.768h-3.705
		V15.363c0-1.316-0.156-2.234-0.469-2.75c-0.311-0.518-0.848-0.775-1.611-0.775c-0.783,0-1.352,0.277-1.703,0.83
		c-0.352,0.555-0.527,1.453-0.527,2.695v17.768h-3.705v-23.09h3.465l0.24,1.414c0.502-0.658,1.102-1.152,1.793-1.482
		c0.693-0.328,1.473-0.494,2.336-0.494c0.924,0,1.688,0.184,2.289,0.551C275.46,10.396,275.873,10.924,276.093,11.613z"/>
	<path fill="#4679A7" d="M302.638,16.061v11.051c0,2.545-0.461,4.279-1.385,5.199c-0.926,0.922-2.562,1.381-4.912,1.381
		c-2.33,0-3.963-0.467-4.896-1.402c-0.934-0.938-1.4-2.678-1.4-5.223V16.061c0-2.561,0.457-4.299,1.371-5.211
		c0.914-0.914,2.555-1.371,4.926-1.371c2.33,0,3.963,0.469,4.896,1.404S302.638,13.545,302.638,16.061z M298.751,15.363
		c0-1.361-0.18-2.291-0.543-2.785c-0.361-0.494-0.984-0.74-1.867-0.74c-0.904,0-1.541,0.262-1.914,0.785
		c-0.371,0.525-0.557,1.438-0.557,2.74v12.422c0,1.377,0.182,2.312,0.543,2.807s1.004,0.742,1.928,0.742
		c0.883,0,1.506-0.256,1.867-0.764c0.363-0.51,0.543-1.438,0.543-2.785V15.363z"/>
	<path fill="#4679A7" d="M318.669,15.363v1.303h-3.707v-1.303c0-1.422-0.135-2.365-0.406-2.83c-0.271-0.463-0.77-0.695-1.492-0.695
		c-0.643,0-1.1,0.213-1.371,0.641c-0.271,0.426-0.406,1.148-0.406,2.166v0.922c0,0.494,0.125,0.98,0.377,1.459
		c0.25,0.48,0.658,0.988,1.221,1.527L317.373,23c0.502,0.51,0.889,1.033,1.16,1.572s0.406,1.049,0.406,1.527v2.201
		c0,1.992-0.436,3.389-1.311,4.189c-0.873,0.801-2.355,1.201-4.443,1.201c-2.17,0-3.676-0.418-4.52-1.258
		c-0.844-0.838-1.266-2.389-1.266-4.648v-1.977h3.676v1.977c0,1.467,0.145,2.426,0.438,2.875c0.291,0.449,0.809,0.674,1.551,0.674
		c0.764,0,1.307-0.225,1.627-0.674c0.322-0.449,0.482-1.236,0.482-2.359v-0.875c0-1.258-0.613-2.471-1.838-3.639
		c-0.041-0.045-0.07-0.076-0.09-0.09l-4.369-4.402c-0.463-0.465-0.795-0.926-0.994-1.381c-0.201-0.457-0.303-0.963-0.303-1.518
		v-1.662c0-1.9,0.428-3.252,1.281-4.053c0.854-0.803,2.275-1.203,4.264-1.203c2.068,0,3.51,0.42,4.324,1.258
		C318.261,11.576,318.669,13.117,318.669,15.363z"/>
	<path fill="#4679A7" d="M324.966,0h4.398l-0.572,25.449h-3.254L324.966,0z M325.027,29.492h4.277v3.639h-4.277V29.492z"/>
</g>
</svg>
