<?xml version="1.0" encoding="utf-8"?>
<!-- Generator: Adobe Illustrator 16.0.0, SVG Export Plug-In . SVG Version: 6.00 Build 0)  -->
<!DOCTYPE svg PUBLIC "-//W3C//DTD SVG 1.1//EN" "http://www.w3.org/Graphics/SVG/1.1/DTD/svg11.dtd">
<svg version="1.1" id="Capa_1" xmlns="http://www.w3.org/2000/svg" xmlns:xlink="http://www.w3.org/1999/xlink" x="0px" y="0px"
	 width="486.764px" height="221.735px" viewBox="0 0 486.764 221.735" enable-background="new 0 0 486.764 221.735"
	 xml:space="preserve">
<g>
	<g>
		<path fill="#E3E036" stroke="#E3E036" stroke-width="3" stroke-miterlimit="10" d="M82.146,130.845h-1.464l-2.995-10.865H66.105
			l-3.128,10.865h-1.464l9.783-36.068h1.132L82.146,130.845z M77.287,118.938l-5.391-21.433l-5.591,21.433H77.287z M71.63,94.776
			h0.066h0.134h0.066h0.066h0.133H71.63z"/>
		<path fill="#E3E036" stroke="#E3E036" stroke-width="3" stroke-miterlimit="10" d="M109.033,98.001
			c0.843,0.992,1.498,2.108,1.964,3.349s0.699,2.489,0.699,3.746c0,1.29-0.233,2.555-0.699,3.795s-1.121,2.341-1.964,3.3
			c-0.932,1.059-2.129,1.86-3.594,2.406c-1.464,0.546-3.527,0.818-6.189,0.818h-6.257v15.43h-0.731h-0.666V95.371v-0.595h0.799
			h6.855c2.396,0,4.403,0.281,6.023,0.843C106.893,96.183,108.146,96.976,109.033,98.001z M107.836,111.638
			c0.754-0.896,1.353-1.916,1.797-3.06c0.442-1.145,0.665-2.313,0.665-3.508c0-1.16-0.223-2.312-0.665-3.457
			c-0.444-1.145-1.043-2.163-1.797-3.06c-0.755-0.862-1.842-1.533-3.262-2.014c-1.42-0.481-3.194-0.722-5.324-0.722h-6.257v18.555
			h6.257c2.572,0,4.459-0.24,5.657-0.721S107.081,112.5,107.836,111.638z"/>
		<path fill="#E3E036" stroke="#E3E036" stroke-width="3" stroke-miterlimit="10" d="M135.257,115.267
			c-0.488,0.066-0.987,0.107-1.497,0.124c-0.511,0.017-1.055,0.024-1.631,0.024h-6.256v15.43h-0.732h-0.666V95.371v-0.595h0.799
			h6.855c2.396,0,4.403,0.281,6.023,0.843c1.619,0.563,2.872,1.356,3.761,2.382c0.842,0.992,1.497,2.108,1.963,3.349
			s0.699,2.489,0.699,3.746c0,1.29-0.233,2.555-0.699,3.795s-1.121,2.341-1.963,3.3c-0.622,0.728-1.354,1.34-2.197,1.836
			s-1.908,0.843-3.194,1.041L135.257,115.267z M140.715,111.638c0.754-0.896,1.353-1.916,1.797-3.06
			c0.443-1.145,0.665-2.313,0.665-3.508c0-1.16-0.222-2.312-0.665-3.457c-0.444-1.145-1.043-2.163-1.797-3.06
			c-0.755-0.862-1.842-1.533-3.262-2.014c-1.42-0.481-3.194-0.722-5.324-0.722h-6.256v18.555h6.256c2.573,0,4.459-0.24,5.657-0.721
			S139.96,112.5,140.715,111.638z M136.521,115.067l9.251,15.728h-1.464l-9.118-15.528L136.521,115.067z"/>
		<path fill="#E3E036" stroke="#E3E036" stroke-width="3" stroke-miterlimit="10" d="M175.59,129.902v0.446v0.496h-18.769v-0.496
			V95.321v-0.545h18.502v0.545v0.397h-17.104v18.754h13.378v0.496v0.446h-13.378v14.487H175.59z"/>
		<path fill="#E3E036" stroke="#E3E036" stroke-width="3" stroke-miterlimit="10" d="M189.233,130.845h-0.698h-0.699V95.272v-0.496
			h1.132L207.4,126.38c0.267,0.464,0.455,0.827,0.567,1.091c0.111,0.266,0.212,0.48,0.301,0.646v-33.34h0.666h0.731v36.068h-1.202
			l-18.229-31.355c-0.09-0.165-0.279-0.504-0.568-1.017s-0.479-0.918-0.566-1.216L189.233,130.845z M188.768,94.776h-0.066h-0.066
			h-0.066h-0.066h-0.067h-0.066h-0.066H188.768z M209.2,130.845h-0.133h-0.133h-0.134h-0.066H209.2z"/>
		<path fill="#E3E036" stroke="#E3E036" stroke-width="3" stroke-miterlimit="10" d="M221.646,94.776h9.983
			c1.198,0,2.352,0.157,3.461,0.471c1.108,0.315,2.085,0.77,2.929,1.364c2.13,1.488,3.194,3.557,3.194,6.202v19.994
			c0,2.712-1.064,4.78-3.194,6.201c-0.844,0.596-1.82,1.051-2.929,1.365c-1.109,0.314-2.263,0.471-3.461,0.471h-5.391h-4.593v-0.496
			V94.776z M239.815,102.813c0-1.19-0.232-2.232-0.699-3.126c-0.466-0.893-1.087-1.62-1.863-2.183s-1.653-0.983-2.629-1.266
			c-0.977-0.28-1.975-0.421-2.995-0.421h-5.391h-3.195v33.984h3.195h5.391c1.021,0,2.019-0.132,2.995-0.396
			c0.976-0.265,1.853-0.687,2.629-1.266c0.776-0.578,1.397-1.306,1.863-2.183c0.467-0.876,0.699-1.927,0.699-3.15V102.813z"/>
		<path fill="#E3E036" stroke="#E3E036" stroke-width="3" stroke-miterlimit="10" d="M254.79,130.845V94.776h0.699h0.699v36.068
			h-0.699H254.79z"/>
		<path fill="#E3E036" stroke="#E3E036" stroke-width="3" stroke-miterlimit="10" d="M287.935,95.818h-15.309v-0.497v-0.545h16.905
			v0.744l-18.169,34.282h18.169v0.496v0.546h-19.833v-0.843L287.935,95.818z"/>
		<path fill="#E3E036" stroke="#E3E036" stroke-width="3" stroke-miterlimit="10" d="M319.681,130.845h-1.465l-2.995-10.865h-11.58
			l-3.128,10.865h-1.465l9.784-36.068h1.131L319.681,130.845z M314.822,118.938l-5.392-21.433l-5.591,21.433H314.822z
			 M309.164,94.776h0.067h0.133h0.066h0.066h0.134H309.164z"/>
		<path fill="#E3E036" stroke="#E3E036" stroke-width="3" stroke-miterlimit="10" d="M332.992,129.059
			c-0.799-0.628-1.388-1.339-1.765-2.133s-0.632-1.546-0.765-2.258c-0.134-0.711-0.189-1.314-0.167-1.811s0.033-0.777,0.033-0.844
			h1.398c0,0.927,0.055,1.721,0.166,2.382c0.11,0.662,0.333,1.356,0.666,2.083c0.332,0.729,0.831,1.357,1.497,1.886
			c1.375,1.125,3.35,1.687,5.924,1.687c2.617,0,4.658-0.578,6.123-1.736c0.665-0.528,1.164-1.107,1.497-1.736
			c0.333-0.628,0.566-1.216,0.699-1.762c0.133-0.545,0.199-1.198,0.199-1.959V94.528h0.732h0.666v28.279c0,0.1,0,0.372,0,0.818
			s-0.09,0.968-0.267,1.563c-0.178,0.595-0.456,1.24-0.832,1.935c-0.378,0.694-0.922,1.34-1.631,1.935
			c-1.642,1.356-4.038,2.034-7.188,2.034C337.007,131.093,334.678,130.415,332.992,129.059z"/>
		<path fill="#E3E036" stroke="#E3E036" stroke-width="3" stroke-miterlimit="10" d="M381.977,129.902v0.446v0.496h-18.769v-0.496
			V95.321v-0.545h18.502v0.545v0.397h-17.104v18.754h13.378v0.496v0.446h-13.378v14.487H381.977z"/>
		<path fill="#E3E036" stroke="#E3E036" stroke-width="3" stroke-miterlimit="10" d="M427.567,94.776h9.983
			c1.198,0,2.352,0.157,3.461,0.471c1.108,0.315,2.085,0.77,2.929,1.364c2.13,1.488,3.194,3.557,3.194,6.202v19.994
			c0,2.712-1.064,4.78-3.194,6.201c-0.844,0.596-1.82,1.051-2.929,1.365c-1.109,0.314-2.263,0.471-3.461,0.471h-5.391h-4.593v-0.496
			V94.776z M445.737,102.813c0-1.19-0.232-2.232-0.699-3.126c-0.466-0.893-1.087-1.62-1.863-2.183s-1.653-0.983-2.629-1.266
			c-0.977-0.28-1.975-0.421-2.995-0.421h-5.391h-3.195v33.984h3.195h5.391c1.021,0,2.019-0.132,2.995-0.396
			c0.976-0.265,1.853-0.687,2.629-1.266c0.776-0.578,1.397-1.306,1.863-2.183c0.467-0.876,0.699-1.927,0.699-3.15V102.813z"/>
		<path fill="#E3E036" stroke="#E3E036" stroke-width="3" stroke-miterlimit="10" d="M478.683,129.902v0.446v0.496h-18.769v-0.496
			V95.321v-0.545h18.502v0.545v0.397h-17.104v18.754h13.378v0.496v0.446h-13.378v14.487H478.683z"/>
	</g>
	<g>
		<path fill="#FFFFFF" d="M61.463,13.415h12.196c6.287,0,10.54,0.656,12.763,1.968c2.221,1.312,3.332,3.672,3.332,7.077v15.652
			c0,2.875-0.734,4.905-2.2,6.092c-1.468,1.188-4.066,1.906-7.796,2.156c3.981,0.188,6.747,0.875,8.299,2.062
			c1.55,1.188,2.326,3.25,2.326,6.187v27.931h-8.487V56.717c0-3.249-0.619-5.357-1.854-6.326c-1.237-0.968-3.783-1.453-7.639-1.453
			h-2.955v33.602h-7.984V13.415z M69.447,18.523v25.26h2.829c3.646,0,6.076-0.477,7.293-1.43c1.215-0.953,1.823-3.069,1.823-6.351
			v-9.606c0-3.312-0.608-5.452-1.823-6.421c-1.217-0.968-3.646-1.452-7.293-1.452H69.447z"/>
		<path fill="#FFFFFF" d="M129.046,46.923v14.293h-18.294v10.17c0,2.875,0.377,4.827,1.131,5.857
			c0.755,1.031,2.096,1.547,4.024,1.547c1.844,0,3.143-0.531,3.897-1.594c0.754-1.062,1.132-2.999,1.132-5.811v-5.343h8.109v3.937
			c0,5.312-0.964,8.928-2.892,10.849c-1.929,1.922-5.344,2.883-10.247,2.883c-4.863,0-8.268-0.978-10.217-2.93
			c-1.948-1.952-2.923-5.584-2.923-10.896V46.923c0-5.343,0.953-8.967,2.86-10.873c1.906-1.905,5.333-2.858,10.279-2.858
			c4.861,0,8.267,0.977,10.216,2.929C128.071,38.073,129.046,41.674,129.046,46.923z M120.937,45.47c0-2.843-0.378-4.78-1.132-5.811
			c-0.755-1.031-2.054-1.547-3.897-1.547c-1.887,0-3.218,0.547-3.992,1.641c-0.776,1.094-1.163,2.999-1.163,5.717v10.872h10.185
			V45.47z"/>
		<path fill="#FFFFFF" d="M162.491,45.47v2.718h-7.732V45.47c0-2.968-0.283-4.936-0.849-5.904s-1.604-1.453-3.112-1.453
			c-1.342,0-2.294,0.445-2.86,1.336c-0.565,0.89-0.849,2.397-0.849,4.521v1.922c0,1.031,0.262,2.047,0.786,3.046
			c0.523,1.001,1.372,2.062,2.546,3.187l9.367,9.279c1.048,1.062,1.854,2.156,2.421,3.28c0.565,1.125,0.849,2.188,0.849,3.188v4.592
			c0,4.156-0.912,7.069-2.735,8.74c-1.822,1.671-4.914,2.508-9.272,2.508c-4.526,0-7.67-0.875-9.431-2.625
			c-1.76-1.749-2.64-4.982-2.64-9.7v-4.124h7.67v4.124c0,3.062,0.303,5.061,0.911,5.998c0.607,0.938,1.687,1.406,3.237,1.406
			c1.593,0,2.725-0.469,3.396-1.406c0.67-0.938,1.006-2.577,1.006-4.921v-1.827c0-2.624-1.279-5.155-3.835-7.592
			c-0.085-0.094-0.147-0.156-0.188-0.188l-9.116-9.186c-0.965-0.968-1.656-1.929-2.074-2.882c-0.42-0.953-0.629-2.007-0.629-3.163
			v-3.469c0-3.967,0.89-6.787,2.672-8.458c1.781-1.672,4.746-2.508,8.896-2.508c4.316,0,7.324,0.875,9.021,2.624
			C161.643,37.566,162.491,40.783,162.491,45.47z"/>
		<path fill="#FFFFFF" d="M173.053,34.363h7.733v36.929c0,2.843,0.408,4.804,1.226,5.881c0.817,1.078,2.21,1.617,4.181,1.617
			c1.928,0,3.29-0.555,4.087-1.664c0.795-1.108,1.194-3.053,1.194-5.834V34.363h7.858v48.176h-7.23l-0.628-2.952
			c-1.049,1.344-2.348,2.351-3.898,3.022s-3.374,1.008-5.469,1.008c-3.312,0-5.648-0.813-7.01-2.438
			c-1.363-1.624-2.044-4.467-2.044-8.529V34.363z"/>
		<path fill="#FFFFFF" d="M211.151,13.415h7.733v69.124h-7.733V13.415z"/>
		<path fill="#FFFFFF" d="M238.938,21.382v12.981h5.909v4.874h-5.909v35.804c0,1.344,0.346,2.272,1.037,2.788
			s1.938,0.773,3.741,0.773h1.131v5.015c-0.461,0.03-0.933,0.054-1.414,0.07c-0.482,0.015-1.163,0.023-2.043,0.023
			c-3.94,0-6.623-0.711-8.048-2.133c-1.425-1.421-2.137-4.584-2.137-9.489V39.237h-4.213v-4.874h4.213V23.725L238.938,21.382z"/>
		<path fill="#FFFFFF" d="M277.854,45.61v36.929h-7.23l-0.503-2.952c-1.048,1.344-2.379,2.366-3.991,3.069
			c-1.614,0.703-3.469,1.055-5.564,1.055c-3.269,0-5.585-0.82-6.946-2.461c-1.363-1.64-2.044-4.506-2.044-8.6v-9.606
			c0-3.78,1.373-6.468,4.118-8.061c2.744-1.594,7.554-2.484,14.428-2.672V45.47c0-2.905-0.367-4.857-1.1-5.857
			c-0.734-1-2.043-1.5-3.93-1.5c-1.802,0-3.091,0.461-3.866,1.383s-1.163,2.507-1.163,4.756v2.672h-7.732V45.61
			c0-4.811,0.943-8.084,2.829-9.818c1.886-1.733,5.238-2.601,10.059-2.601c4.693,0,7.974,0.875,9.839,2.624
			C276.921,37.566,277.854,40.83,277.854,45.61z M270.059,56.998c-4.023,0.125-6.758,0.656-8.204,1.594s-2.169,2.624-2.169,5.062
			v7.732c0,2.875,0.377,4.827,1.132,5.857c0.754,1.031,2.095,1.547,4.023,1.547c1.886,0,3.237-0.555,4.055-1.664
			c0.817-1.108,1.226-3.022,1.226-5.74L270.059,56.998z"/>
		<path fill="#FFFFFF" d="M307.842,13.415h7.858v69.124h-7.229l-0.629-2.952c-1.048,1.375-2.357,2.406-3.929,3.093
			c-1.572,0.687-3.406,1.031-5.501,1.031c-3.229,0-5.532-0.82-6.916-2.461c-1.383-1.64-2.074-4.506-2.074-8.6V44.251
			c0-4.092,0.691-6.959,2.074-8.599c1.384-1.641,3.688-2.461,6.916-2.461c2.095,0,3.938,0.352,5.532,1.055
			c1.592,0.703,2.892,1.727,3.897,3.069V13.415z M307.842,45.47c0-2.718-0.388-4.623-1.163-5.717s-2.105-1.641-3.992-1.641
			c-1.928,0-3.29,0.531-4.086,1.594c-0.797,1.062-1.194,2.983-1.194,5.764v25.916c0,2.812,0.397,4.749,1.194,5.811
			c0.796,1.062,2.158,1.594,4.086,1.594c1.887,0,3.217-0.546,3.992-1.641c0.775-1.093,1.163-3.015,1.163-5.764V45.47z"/>
		<path fill="#FFFFFF" d="M353.547,46.923v23.057c0,5.312-0.964,8.928-2.892,10.849c-1.929,1.922-5.344,2.883-10.247,2.883
			c-4.863,0-8.268-0.978-10.217-2.93c-1.948-1.952-2.923-5.584-2.923-10.896V46.923c0-5.343,0.953-8.967,2.86-10.873
			c1.906-1.905,5.333-2.858,10.279-2.858c4.861,0,8.267,0.977,10.216,2.929C352.572,38.073,353.547,41.674,353.547,46.923z
			 M345.438,45.47c0-2.843-0.378-4.78-1.132-5.811c-0.755-1.031-2.054-1.547-3.897-1.547c-1.887,0-3.218,0.547-3.992,1.641
			c-0.776,1.094-1.163,2.999-1.163,5.717v25.916c0,2.875,0.377,4.827,1.131,5.857c0.755,1.031,2.096,1.547,4.024,1.547
			c1.844,0,3.143-0.531,3.897-1.594c0.754-1.062,1.132-2.999,1.132-5.811V45.47z"/>
		<path fill="#FFFFFF" d="M386.992,45.47v2.718h-7.732V45.47c0-2.968-0.283-4.936-0.849-5.904s-1.604-1.453-3.112-1.453
			c-1.342,0-2.294,0.445-2.86,1.336c-0.565,0.89-0.849,2.397-0.849,4.521v1.922c0,1.031,0.262,2.047,0.786,3.046
			c0.523,1.001,1.372,2.062,2.546,3.187l9.367,9.279c1.048,1.062,1.854,2.156,2.421,3.28c0.565,1.125,0.849,2.188,0.849,3.188v4.592
			c0,4.156-0.912,7.069-2.735,8.74c-1.822,1.671-4.914,2.508-9.272,2.508c-4.526,0-7.67-0.875-9.431-2.625
			c-1.76-1.749-2.64-4.982-2.64-9.7v-4.124h7.67v4.124c0,3.062,0.303,5.061,0.911,5.998c0.607,0.938,1.687,1.406,3.237,1.406
			c1.593,0,2.725-0.469,3.396-1.406c0.67-0.938,1.006-2.577,1.006-4.921v-1.827c0-2.624-1.279-5.155-3.835-7.592
			c-0.085-0.094-0.147-0.156-0.188-0.188l-9.116-9.186c-0.965-0.968-1.656-1.929-2.074-2.882c-0.42-0.953-0.629-2.007-0.629-3.163
			v-3.469c0-3.967,0.89-6.787,2.672-8.458c1.781-1.672,4.746-2.508,8.896-2.508c4.316,0,7.324,0.875,9.021,2.624
			C386.144,37.566,386.992,40.783,386.992,45.47z"/>
		<path fill="#FFFFFF" d="M435.4,13.415h7.858v69.124h-7.229l-0.629-2.952c-1.048,1.375-2.357,2.406-3.929,3.093
			c-1.572,0.687-3.406,1.031-5.501,1.031c-3.229,0-5.532-0.82-6.916-2.461c-1.383-1.64-2.074-4.506-2.074-8.6V44.251
			c0-4.092,0.691-6.959,2.074-8.599c1.384-1.641,3.688-2.461,6.916-2.461c2.095,0,3.938,0.352,5.532,1.055
			c1.592,0.703,2.892,1.727,3.897,3.069V13.415z M435.4,45.47c0-2.718-0.388-4.623-1.163-5.717s-2.105-1.641-3.992-1.641
			c-1.928,0-3.29,0.531-4.086,1.594c-0.797,1.062-1.194,2.983-1.194,5.764v25.916c0,2.812,0.397,4.749,1.194,5.811
			c0.796,1.062,2.158,1.594,4.086,1.594c1.887,0,3.217-0.546,3.992-1.641c0.775-1.093,1.163-3.015,1.163-5.764V45.47z"/>
		<path fill="#FFFFFF" d="M481.105,46.923v14.293h-18.294v10.17c0,2.875,0.377,4.827,1.131,5.857
			c0.755,1.031,2.096,1.547,4.024,1.547c1.844,0,3.143-0.531,3.897-1.594c0.754-1.062,1.132-2.999,1.132-5.811v-5.343h8.109v3.937
			c0,5.312-0.964,8.928-2.892,10.849c-1.929,1.922-5.344,2.883-10.247,2.883c-4.863,0-8.268-0.978-10.217-2.93
			c-1.948-1.952-2.923-5.584-2.923-10.896V46.923c0-5.343,0.953-8.967,2.86-10.873c1.906-1.905,5.333-2.858,10.279-2.858
			c4.861,0,8.267,0.977,10.216,2.929C480.131,38.073,481.105,41.674,481.105,46.923z M472.996,45.47c0-2.843-0.378-4.78-1.132-5.811
			c-0.755-1.031-2.054-1.547-3.897-1.547c-1.887,0-3.218,0.547-3.992,1.641c-0.776,1.094-1.163,2.999-1.163,5.717v10.872h10.185
			V45.47z"/>
	</g>
	<g>
		<path fill="#FFFFFF" d="M59.688,137.024h7.139v63.814h-7.139V137.024z"/>
		<path fill="#FFFFFF" d="M101.186,166.747v34.092h-6.675l-0.464-2.726c-0.968,1.24-2.196,2.185-3.686,2.834
			c-1.49,0.648-3.202,0.974-5.137,0.974c-3.018,0-5.156-0.758-6.413-2.271c-1.258-1.515-1.886-4.16-1.886-7.939v-8.869
			c0-3.489,1.267-5.97,3.801-7.441c2.534-1.471,6.974-2.293,13.32-2.466v-6.316c0-2.683-0.339-4.484-1.016-5.408
			c-0.678-0.923-1.887-1.384-3.628-1.384c-1.664,0-2.854,0.426-3.569,1.275c-0.716,0.852-1.073,2.315-1.073,4.392v2.466h-7.139
			v-1.211c0-4.441,0.87-7.463,2.611-9.063c1.741-1.602,4.837-2.401,9.286-2.401c4.333,0,7.361,0.808,9.083,2.423
			S101.186,162.334,101.186,166.747z M93.988,177.26c-3.714,0.116-6.238,0.606-7.573,1.472s-2.003,2.423-2.003,4.672v7.139
			c0,2.654,0.349,4.456,1.045,5.408s1.935,1.428,3.715,1.428c1.741,0,2.988-0.512,3.743-1.536c0.755-1.023,1.132-2.79,1.132-5.3
			L93.988,177.26z"/>
		<path fill="#FFFFFF" d="M152.26,167.958v2.855h-7.487v-4.196c0-2.913-0.261-4.773-0.783-5.581s-1.479-1.211-2.873-1.211
			c-1.393,0-2.36,0.454-2.901,1.362c-0.543,0.908-0.812,2.719-0.812,5.43v23.925c0,2.769,0.28,4.601,0.841,5.494
			c0.561,0.895,1.558,1.342,2.989,1.342c1.354,0,2.282-0.411,2.786-1.233c0.502-0.822,0.754-2.688,0.754-5.603v-4.759h7.487v3.461
			c0,4.903-0.822,8.242-2.467,10.016s-4.537,2.661-8.677,2.661c-4.102,0-6.975-0.909-8.618-2.726
			c-1.646-1.817-2.467-5.163-2.467-10.038v-21.199c0-4.932,0.812-8.277,2.438-10.037c1.625-1.759,4.507-2.639,8.647-2.639
			c4.101,0,6.983,0.901,8.647,2.704S152.26,163.113,152.26,167.958z"/>
		<path fill="#FFFFFF" d="M185.689,167.958v21.286c0,4.903-0.891,8.242-2.67,10.016c-1.78,1.773-4.933,2.661-9.46,2.661
			c-4.489,0-7.632-0.902-9.432-2.704c-1.799-1.803-2.698-5.155-2.698-10.06v-21.199c0-4.932,0.88-8.277,2.641-10.037
			c1.76-1.759,4.923-2.639,9.489-2.639c4.488,0,7.632,0.901,9.432,2.704C184.79,159.789,185.689,163.113,185.689,167.958z
			 M178.202,166.617c0-2.624-0.348-4.413-1.044-5.364c-0.696-0.952-1.896-1.428-3.599-1.428c-1.741,0-2.97,0.505-3.686,1.514
			c-0.717,1.01-1.073,2.769-1.073,5.278v23.925c0,2.654,0.348,4.456,1.044,5.408c0.697,0.952,1.935,1.428,3.715,1.428
			c1.702,0,2.902-0.49,3.599-1.471s1.044-2.77,1.044-5.365V166.617z"/>
		<path fill="#FFFFFF" d="M218.249,159.393c1.432-1.5,2.805-2.56,4.121-3.181c1.314-0.619,2.844-0.93,4.585-0.93
			c2.67,0,4.585,0.765,5.746,2.293c1.16,1.529,1.741,4.168,1.741,7.917v35.347h-7.14v-34.222c0-2.538-0.31-4.305-0.928-5.3
			c-0.62-0.995-1.664-1.492-3.135-1.492c-1.509,0-2.603,0.533-3.279,1.601s-1.016,2.798-1.016,5.191v34.222h-7.139v-34.222
			c0-2.538-0.3-4.305-0.899-5.3c-0.601-0.995-1.635-1.492-3.104-1.492c-1.51,0-2.604,0.533-3.279,1.601
			c-0.678,1.067-1.016,2.798-1.016,5.191v34.222h-7.139v-44.476h6.674l0.465,2.726c0.967-1.269,2.118-2.221,3.453-2.855
			c1.335-0.634,2.834-0.951,4.498-0.951c1.779,0,3.25,0.354,4.41,1.06C217.03,157.049,217.823,158.065,218.249,159.393z"/>
		<path fill="#FFFFFF" d="M269.613,165.492v26.218c0,3.779-0.63,6.425-1.887,7.939c-1.258,1.514-3.395,2.271-6.413,2.271
			c-1.935,0-3.647-0.325-5.137-0.974c-1.489-0.649-2.718-1.594-3.685-2.834v19.556h-7.139v-61.306h6.674l0.465,2.726
			c0.967-1.239,2.195-2.185,3.685-2.833c1.489-0.649,3.202-0.974,5.137-0.974c3.019,0,5.155,0.757,6.413,2.271
			C268.983,159.067,269.613,161.714,269.613,165.492z M262.126,166.617c0-2.624-0.348-4.413-1.045-5.364
			c-0.696-0.952-1.935-1.428-3.714-1.428c-1.741,0-2.989,0.512-3.743,1.535c-0.755,1.024-1.132,2.776-1.132,5.257v23.925
			c0,2.538,0.367,4.312,1.103,5.321c0.734,1.01,1.992,1.515,3.772,1.515c1.779,0,3.018-0.476,3.714-1.428
			c0.697-0.952,1.045-2.754,1.045-5.408V166.617z"/>
		<path fill="#FFFFFF" d="M304.32,167.958v13.196h-16.889v9.388c0,2.654,0.348,4.456,1.044,5.408
			c0.697,0.952,1.935,1.428,3.715,1.428c1.702,0,2.902-0.49,3.599-1.471s1.044-2.77,1.044-5.365v-4.932h7.487v3.634
			c0,4.903-0.891,8.242-2.67,10.016c-1.78,1.773-4.933,2.661-9.46,2.661c-4.489,0-7.632-0.902-9.432-2.704
			c-1.799-1.803-2.698-5.155-2.698-10.06v-21.199c0-4.932,0.88-8.277,2.641-10.037c1.76-1.759,4.923-2.639,9.489-2.639
			c4.488,0,7.632,0.901,9.432,2.704C303.421,159.789,304.32,163.113,304.32,167.958z M296.833,166.617
			c0-2.624-0.348-4.413-1.044-5.364c-0.696-0.952-1.896-1.428-3.599-1.428c-1.741,0-2.97,0.505-3.686,1.514
			c-0.717,1.01-1.073,2.769-1.073,5.278v10.037h9.401V166.617z"/>
		<path fill="#FFFFFF" d="M322.486,144.38v11.983h5.456v4.5h-5.456v33.054c0,1.24,0.319,2.098,0.958,2.574
			c0.639,0.476,1.789,0.714,3.453,0.714h1.045v4.629c-0.427,0.028-0.861,0.05-1.306,0.064c-0.445,0.015-1.074,0.022-1.887,0.022
			c-3.638,0-6.114-0.657-7.429-1.969c-1.316-1.312-1.974-4.232-1.974-8.761v-30.328h-3.889v-4.5h3.889v-9.82L322.486,144.38z"/>
		<path fill="#FFFFFF" d="M359.108,167.958v13.196H342.22v9.388c0,2.654,0.348,4.456,1.044,5.408
			c0.697,0.952,1.935,1.428,3.715,1.428c1.702,0,2.902-0.49,3.599-1.471s1.044-2.77,1.044-5.365v-4.932h7.487v3.634
			c0,4.903-0.891,8.242-2.67,10.016c-1.78,1.773-4.933,2.661-9.46,2.661c-4.489,0-7.632-0.902-9.432-2.704
			c-1.799-1.803-2.698-5.155-2.698-10.06v-21.199c0-4.932,0.88-8.277,2.641-10.037c1.76-1.759,4.923-2.639,9.489-2.639
			c4.488,0,7.632,0.901,9.432,2.704C358.209,159.789,359.108,163.113,359.108,167.958z M351.621,166.617
			c0-2.624-0.348-4.413-1.044-5.364c-0.696-0.952-1.896-1.428-3.599-1.428c-1.741,0-2.97,0.505-3.686,1.514
			c-0.717,1.01-1.073,2.769-1.073,5.278v10.037h9.401V166.617z"/>
		<path fill="#FFFFFF" d="M394.048,165.492v35.347h-7.139v-34.222c0-2.538-0.378-4.305-1.132-5.3
			c-0.755-0.995-2.041-1.492-3.859-1.492c-1.78,0-3.058,0.512-3.831,1.535c-0.774,1.024-1.16,2.776-1.16,5.257v34.222h-7.139
			v-44.476h6.674l0.465,2.726c0.967-1.239,2.195-2.185,3.685-2.833c1.489-0.649,3.202-0.974,5.137-0.974
			c3.019,0,5.155,0.757,6.413,2.271C393.418,159.067,394.048,161.714,394.048,165.492z"/>
		<path fill="#FFFFFF" d="M426.955,167.958v2.855h-7.487v-4.196c0-2.913-0.261-4.773-0.783-5.581s-1.479-1.211-2.873-1.211
			c-1.393,0-2.36,0.454-2.901,1.362c-0.543,0.908-0.812,2.719-0.812,5.43v23.925c0,2.769,0.28,4.601,0.841,5.494
			c0.561,0.895,1.558,1.342,2.989,1.342c1.354,0,2.282-0.411,2.786-1.233c0.502-0.822,0.754-2.688,0.754-5.603v-4.759h7.487v3.461
			c0,4.903-0.822,8.242-2.467,10.016s-4.537,2.661-8.677,2.661c-4.102,0-6.975-0.909-8.618-2.726
			c-1.646-1.817-2.467-5.163-2.467-10.038v-21.199c0-4.932,0.812-8.277,2.438-10.037c1.625-1.759,4.507-2.639,8.647-2.639
			c4.101,0,6.983,0.901,8.647,2.704S426.955,163.113,426.955,167.958z"/>
		<path fill="#FFFFFF" d="M436.009,137.024h7.951v6.749h-7.951V137.024z M436.357,156.363h7.139v44.476h-7.139V156.363z"/>
		<path fill="#FFFFFF" d="M477.854,166.747v34.092h-6.675l-0.464-2.726c-0.968,1.24-2.196,2.185-3.686,2.834
			c-1.49,0.648-3.202,0.974-5.137,0.974c-3.018,0-5.156-0.758-6.413-2.271c-1.258-1.515-1.886-4.16-1.886-7.939v-8.869
			c0-3.489,1.267-5.97,3.801-7.441c2.534-1.471,6.974-2.293,13.32-2.466v-6.316c0-2.683-0.339-4.484-1.016-5.408
			c-0.678-0.923-1.887-1.384-3.628-1.384c-1.664,0-2.854,0.426-3.569,1.275c-0.716,0.852-1.073,2.315-1.073,4.392v2.466h-7.139
			v-1.211c0-4.441,0.87-7.463,2.611-9.063c1.741-1.602,4.837-2.401,9.286-2.401c4.333,0,7.361,0.808,9.083,2.423
			S477.854,162.334,477.854,166.747z M470.657,177.26c-3.714,0.116-6.238,0.606-7.573,1.472s-2.003,2.423-2.003,4.672v7.139
			c0,2.654,0.349,4.456,1.045,5.408s1.935,1.428,3.715,1.428c1.741,0,2.988-0.512,3.743-1.536c0.755-1.023,1.132-2.79,1.132-5.3
			L470.657,177.26z"/>
	</g>
</g>
</svg>
