<?xml version="1.0" encoding="utf-8"?>
<!-- Generator: Adobe Illustrator 16.0.0, SVG Export Plug-In . SVG Version: 6.00 Build 0)  -->
<!DOCTYPE svg PUBLIC "-//W3C//DTD SVG 1.1//EN" "http://www.w3.org/Graphics/SVG/1.1/DTD/svg11.dtd">
<svg version="1.1" id="Capa_1" xmlns="http://www.w3.org/2000/svg" xmlns:xlink="http://www.w3.org/1999/xlink" x="0px" y="0px"
	 width="571.805px" height="221.787px" viewBox="0 0 571.805 221.787" enable-background="new 0 0 571.805 221.787"
	 xml:space="preserve">
<g>
	<path fill="#FFFFFF" d="M1.429,1.008h2.465v16.828h8.063v2.044H1.429V1.008z"/>
	<path fill="#FFFFFF" d="M24.108,16.632c0,1.176,0.057,2.324,0.196,3.248h-2.212l-0.196-1.708h-0.084
		c-0.756,1.064-2.212,2.016-4.144,2.016c-2.744,0-4.144-1.932-4.144-3.892c0-3.276,2.911-5.068,8.147-5.04v-0.28
		c0-1.092-0.308-3.136-3.08-3.107c-1.288,0-2.604,0.364-3.556,1.008l-0.561-1.652c1.12-0.699,2.772-1.176,4.48-1.176
		c4.144,0,5.151,2.828,5.151,5.516V16.632z M21.729,12.964c-2.688-0.056-5.739,0.42-5.739,3.052c0,1.624,1.063,2.353,2.296,2.353
		c1.792,0,2.939-1.12,3.332-2.269c0.084-0.279,0.111-0.56,0.111-0.784V12.964z"/>
	<path fill="#FFFFFF" d="M34.021,10.752c0-1.736-0.056-3.136-0.112-4.424h2.185l0.14,2.324h0.056
		c0.98-1.652,2.604-2.604,4.816-2.604c3.304,0,5.768,2.772,5.768,6.86c0,4.872-2.995,7.279-6.188,7.279
		c-1.792,0-3.36-0.783-4.172-2.128h-0.057v7.364h-2.436V10.752z M36.456,14.364c0,0.363,0.028,0.699,0.112,1.008
		c0.448,1.708,1.933,2.884,3.696,2.884c2.604,0,4.116-2.128,4.116-5.236c0-2.688-1.429-5.012-4.032-5.012
		c-1.68,0-3.276,1.176-3.724,3.024c-0.084,0.308-0.169,0.672-0.169,0.979V14.364z"/>
	<path fill="#FFFFFF" d="M49.952,10.556c0-1.596-0.028-2.968-0.112-4.228h2.156l0.112,2.688h0.084
		c0.616-1.819,2.128-2.968,3.779-2.968c0.253,0,0.448,0.028,0.673,0.056v2.324c-0.252-0.056-0.504-0.056-0.841-0.056
		c-1.735,0-2.968,1.288-3.304,3.136c-0.056,0.336-0.084,0.756-0.084,1.148v7.224h-2.464V10.556z"/>
	<path fill="#FFFFFF" d="M61.965,2.52c0,0.841-0.588,1.513-1.568,1.513c-0.896,0-1.483-0.672-1.483-1.513
		c0-0.84,0.615-1.54,1.54-1.54C61.349,0.979,61.965,1.652,61.965,2.52z M59.221,19.88V6.328h2.464V19.88H59.221z"/>
	<path fill="#FFFFFF" d="M78.036,12.992c0,5.012-3.5,7.195-6.748,7.195c-3.64,0-6.495-2.688-6.495-6.972
		c0-4.508,2.995-7.168,6.72-7.168C75.404,6.048,78.036,8.876,78.036,12.992z M67.312,13.132c0,2.968,1.68,5.208,4.088,5.208
		c2.353,0,4.116-2.212,4.116-5.264c0-2.296-1.148-5.181-4.061-5.181C68.572,7.896,67.312,10.584,67.312,13.132z"/>
	<path fill="#FFFFFF" d="M81.145,10.556c0-1.596-0.028-2.968-0.112-4.228h2.156l0.112,2.688h0.084
		c0.616-1.819,2.128-2.968,3.78-2.968c0.252,0,0.447,0.028,0.672,0.056v2.324c-0.252-0.056-0.504-0.056-0.841-0.056
		c-1.735,0-2.968,1.288-3.304,3.136c-0.056,0.336-0.084,0.756-0.084,1.148v7.224h-2.464V10.556z"/>
	<path fill="#FFFFFF" d="M93.156,2.52c0,0.841-0.588,1.513-1.568,1.513c-0.896,0-1.483-0.672-1.483-1.513
		c0-0.84,0.615-1.54,1.54-1.54C92.54,0.979,93.156,1.652,93.156,2.52z M90.412,19.88V6.328h2.464V19.88H90.412z"/>
	<path fill="#FFFFFF" d="M95.424,18.452l6.104-7.98c0.615-0.756,1.176-1.399,1.792-2.128V8.288h-7.336v-1.96h10.304v1.54
		l-6.048,7.868c-0.588,0.756-1.12,1.455-1.736,2.128v0.056h7.896v1.96H95.424V18.452z"/>
	<path fill="#FFFFFF" d="M118.467,16.632c0,1.176,0.057,2.324,0.196,3.248h-2.212l-0.196-1.708h-0.084
		c-0.756,1.064-2.212,2.016-4.144,2.016c-2.744,0-4.144-1.932-4.144-3.892c0-3.276,2.911-5.068,8.147-5.04v-0.28
		c0-1.092-0.308-3.136-3.08-3.107c-1.288,0-2.604,0.364-3.556,1.008l-0.561-1.652c1.12-0.699,2.772-1.176,4.48-1.176
		c4.144,0,5.151,2.828,5.151,5.516V16.632z M116.087,12.964c-2.688-0.056-5.739,0.42-5.739,3.052c0,1.624,1.063,2.353,2.296,2.353
		c1.792,0,2.939-1.12,3.332-2.269c0.084-0.279,0.111-0.56,0.111-0.784V12.964z"/>
	<path fill="#FFFFFF" d="M132.104,19.404c-0.645,0.308-2.072,0.783-3.893,0.783c-4.088,0-6.747-2.771-6.747-6.916
		c0-4.172,2.855-7.224,7.279-7.224c1.456,0,2.744,0.364,3.416,0.729l-0.56,1.876c-0.588-0.309-1.513-0.645-2.856-0.645
		c-3.107,0-4.788,2.324-4.788,5.124c0,3.136,2.017,5.068,4.704,5.068c1.4,0,2.324-0.336,3.024-0.645L132.104,19.404z"/>
	<path fill="#FFFFFF" d="M137.731,2.52c0,0.841-0.588,1.513-1.568,1.513c-0.896,0-1.483-0.672-1.483-1.513
		c0-0.84,0.615-1.54,1.54-1.54C137.115,0.979,137.731,1.652,137.731,2.52z M134.987,19.88V6.328h2.464V19.88H134.987z"/>
	<path fill="#FFFFFF" d="M153.803,12.992c0,5.012-3.5,7.195-6.748,7.195c-3.64,0-6.495-2.688-6.495-6.972
		c0-4.508,2.995-7.168,6.72-7.168C151.171,6.048,153.803,8.876,153.803,12.992z M143.079,13.132c0,2.968,1.68,5.208,4.088,5.208
		c2.353,0,4.116-2.212,4.116-5.264c0-2.296-1.148-5.181-4.061-5.181C144.339,7.896,143.079,10.584,143.079,13.132z M150.863,0.476
		l-3.416,4.004h-1.736l2.437-4.004H150.863z"/>
	<path fill="#FFFFFF" d="M156.911,9.996c0-1.428-0.028-2.548-0.112-3.668h2.185l0.14,2.24h0.056c0.673-1.261,2.24-2.521,4.48-2.521
		c1.876,0,4.788,1.12,4.788,5.769v8.063h-2.464v-7.812c0-2.185-0.812-4.005-3.137-4.005c-1.596,0-2.855,1.148-3.304,2.521
		c-0.111,0.308-0.168,0.728-0.168,1.147v8.148h-2.464V9.996z"/>
	<path fill="#FFFFFF" d="M178.387,10.752c0-1.736-0.056-3.136-0.112-4.424h2.185l0.14,2.324h0.056
		c0.98-1.652,2.604-2.604,4.816-2.604c3.304,0,5.768,2.772,5.768,6.86c0,4.872-2.995,7.279-6.188,7.279
		c-1.792,0-3.36-0.783-4.172-2.128h-0.056v7.364h-2.437V10.752z M180.823,14.364c0,0.363,0.027,0.699,0.111,1.008
		c0.448,1.708,1.933,2.884,3.696,2.884c2.604,0,4.116-2.128,4.116-5.236c0-2.688-1.429-5.012-4.032-5.012
		c-1.68,0-3.276,1.176-3.724,3.024c-0.084,0.308-0.168,0.672-0.168,0.979V14.364z"/>
	<path fill="#FFFFFF" d="M203.838,16.632c0,1.176,0.057,2.324,0.196,3.248h-2.212l-0.196-1.708h-0.084
		c-0.756,1.064-2.212,2.016-4.144,2.016c-2.744,0-4.144-1.932-4.144-3.892c0-3.276,2.911-5.068,8.147-5.04v-0.28
		c0-1.092-0.308-3.136-3.08-3.107c-1.288,0-2.604,0.364-3.556,1.008l-0.561-1.652c1.12-0.699,2.772-1.176,4.48-1.176
		c4.144,0,5.151,2.828,5.151,5.516V16.632z M201.458,12.964c-2.688-0.056-5.739,0.42-5.739,3.052c0,1.624,1.063,2.353,2.296,2.353
		c1.792,0,2.939-1.12,3.332-2.269c0.084-0.279,0.111-0.56,0.111-0.784V12.964z"/>
	<path fill="#FFFFFF" d="M207.814,10.556c0-1.596-0.028-2.968-0.112-4.228h2.156l0.112,2.688h0.084
		c0.616-1.819,2.128-2.968,3.78-2.968c0.252,0,0.447,0.028,0.672,0.056v2.324c-0.252-0.056-0.504-0.056-0.841-0.056
		c-1.735,0-2.968,1.288-3.304,3.136c-0.056,0.336-0.084,0.756-0.084,1.148v7.224h-2.464V10.556z"/>
	<path fill="#FFFFFF" d="M226.351,16.632c0,1.176,0.057,2.324,0.196,3.248h-2.212l-0.196-1.708h-0.084
		c-0.756,1.064-2.212,2.016-4.144,2.016c-2.744,0-4.144-1.932-4.144-3.892c0-3.276,2.911-5.068,8.147-5.04v-0.28
		c0-1.092-0.308-3.136-3.08-3.107c-1.288,0-2.604,0.364-3.556,1.008l-0.561-1.652c1.12-0.699,2.772-1.176,4.48-1.176
		c4.144,0,5.151,2.828,5.151,5.516V16.632z M223.971,12.964c-2.688-0.056-5.739,0.42-5.739,3.052c0,1.624,1.063,2.353,2.296,2.353
		c1.792,0,2.939-1.12,3.332-2.269c0.084-0.279,0.111-0.56,0.111-0.784V12.964z"/>
	<path fill="#FFFFFF" d="M236.263,0h2.464v19.88h-2.464V0z"/>
	<path fill="#FFFFFF" d="M252.39,16.632c0,1.176,0.057,2.324,0.196,3.248h-2.212l-0.196-1.708h-0.084
		c-0.756,1.064-2.212,2.016-4.144,2.016c-2.744,0-4.144-1.932-4.144-3.892c0-3.276,2.911-5.068,8.147-5.04v-0.28
		c0-1.092-0.308-3.136-3.08-3.107c-1.288,0-2.604,0.364-3.556,1.008l-0.561-1.652c1.12-0.699,2.772-1.176,4.48-1.176
		c4.144,0,5.151,2.828,5.151,5.516V16.632z M250.01,12.964c-2.688-0.056-5.739,0.42-5.739,3.052c0,1.624,1.063,2.353,2.296,2.353
		c1.792,0,2.939-1.12,3.332-2.269c0.084-0.279,0.111-0.56,0.111-0.784V12.964z"/>
	<path fill="#FFFFFF" d="M271.821,16.632c0,1.176,0.057,2.324,0.196,3.248h-2.212l-0.196-1.708h-0.084
		c-0.756,1.064-2.212,2.016-4.144,2.016c-2.744,0-4.144-1.932-4.144-3.892c0-3.276,2.911-5.068,8.147-5.04v-0.28
		c0-1.092-0.308-3.136-3.08-3.107c-1.288,0-2.604,0.364-3.556,1.008l-0.561-1.652c1.12-0.699,2.772-1.176,4.48-1.176
		c4.144,0,5.151,2.828,5.151,5.516V16.632z M269.441,12.964c-2.688-0.056-5.739,0.42-5.739,3.052c0,1.624,1.063,2.353,2.296,2.353
		c1.792,0,2.939-1.12,3.332-2.269c0.084-0.279,0.111-0.56,0.111-0.784V12.964z"/>
	<path fill="#FFFFFF" d="M275.462,17.388c0.756,0.448,2.044,0.952,3.276,0.952c1.764,0,2.604-0.868,2.604-2.016
		c0-1.177-0.7-1.792-2.492-2.464c-2.464-0.896-3.611-2.213-3.611-3.837c0-2.184,1.792-3.976,4.676-3.976
		c1.372,0,2.576,0.364,3.304,0.84L282.63,8.68c-0.532-0.336-1.512-0.812-2.772-0.812c-1.455,0-2.239,0.84-2.239,1.848
		c0,1.12,0.784,1.624,2.548,2.324c2.324,0.868,3.556,2.044,3.556,4.06c0,2.408-1.876,4.088-5.04,4.088
		c-1.483,0-2.855-0.392-3.808-0.951L275.462,17.388z"/>
	<path fill="#FFFFFF" d="M289.63,2.52c0,0.841-0.588,1.513-1.568,1.513c-0.896,0-1.483-0.672-1.483-1.513
		c0-0.84,0.615-1.54,1.54-1.54C289.014,0.979,289.63,1.652,289.63,2.52z M286.886,19.88V6.328h2.464V19.88H286.886z"/>
	<path fill="#FFFFFF" d="M305.029,17.892c0,3.137-0.644,5.013-1.932,6.216c-1.344,1.204-3.248,1.624-4.956,1.624
		c-1.624,0-3.416-0.392-4.508-1.119l0.616-1.904c0.896,0.588,2.296,1.092,3.976,1.092c2.52,0,4.368-1.316,4.368-4.76v-1.484h-0.057
		c-0.728,1.26-2.212,2.269-4.312,2.269c-3.36,0-5.768-2.856-5.768-6.608c0-4.592,2.995-7.168,6.132-7.168
		c2.352,0,3.611,1.204,4.228,2.324h0.056l0.084-2.044h2.185c-0.084,0.952-0.112,2.072-0.112,3.695V17.892z M302.565,11.676
		c0-0.42-0.028-0.784-0.14-1.092c-0.448-1.456-1.624-2.632-3.444-2.632c-2.352,0-4.032,1.987-4.032,5.124
		c0,2.66,1.372,4.872,4.004,4.872c1.54,0,2.912-0.952,3.416-2.521c0.141-0.42,0.196-0.896,0.196-1.315V11.676z"/>
	<path fill="#FFFFFF" d="M308.921,9.996c0-1.428-0.028-2.548-0.112-3.668h2.185l0.14,2.24h0.056c0.673-1.261,2.24-2.521,4.48-2.521
		c1.876,0,4.788,1.12,4.788,5.769v8.063h-2.464v-7.812c0-2.185-0.812-4.005-3.137-4.005c-1.596,0-2.855,1.148-3.304,2.521
		c-0.111,0.308-0.168,0.728-0.168,1.147v8.148h-2.464V9.996z"/>
	<path fill="#FFFFFF" d="M333.98,16.632c0,1.176,0.057,2.324,0.196,3.248h-2.212l-0.196-1.708h-0.084
		c-0.756,1.064-2.212,2.016-4.144,2.016c-2.744,0-4.144-1.932-4.144-3.892c0-3.276,2.911-5.068,8.147-5.04v-0.28
		c0-1.092-0.308-3.136-3.08-3.107c-1.288,0-2.604,0.364-3.556,1.008l-0.561-1.652c1.12-0.699,2.772-1.176,4.48-1.176
		c4.144,0,5.151,2.828,5.151,5.516V16.632z M331.601,12.964c-2.688-0.056-5.739,0.42-5.739,3.052c0,1.624,1.063,2.353,2.296,2.353
		c1.792,0,2.939-1.12,3.332-2.269c0.084-0.279,0.111-0.56,0.111-0.784V12.964z"/>
	<path fill="#FFFFFF" d="M347.618,19.404c-0.645,0.308-2.072,0.783-3.893,0.783c-4.088,0-6.748-2.771-6.748-6.916
		c0-4.172,2.855-7.224,7.279-7.224c1.457,0,2.744,0.364,3.416,0.729l-0.559,1.876c-0.588-0.309-1.514-0.645-2.857-0.645
		c-3.107,0-4.788,2.324-4.788,5.124c0,3.136,2.016,5.068,4.704,5.068c1.4,0,2.324-0.336,3.025-0.645L347.618,19.404z"/>
	<path fill="#FFFFFF" d="M353.245,2.52c0,0.841-0.588,1.513-1.568,1.513c-0.895,0-1.482-0.672-1.482-1.513
		c0-0.84,0.615-1.54,1.539-1.54C352.629,0.979,353.245,1.652,353.245,2.52z M350.5,19.88V6.328h2.465V19.88H350.5z"/>
	<path fill="#FFFFFF" d="M369.317,12.992c0,5.012-3.5,7.195-6.748,7.195c-3.641,0-6.496-2.688-6.496-6.972
		c0-4.508,2.996-7.168,6.721-7.168C366.684,6.048,369.317,8.876,369.317,12.992z M358.592,13.132c0,2.968,1.68,5.208,4.088,5.208
		c2.354,0,4.117-2.212,4.117-5.264c0-2.296-1.148-5.181-4.061-5.181C359.852,7.896,358.592,10.584,358.592,13.132z M366.377,0.476
		l-3.416,4.004h-1.736l2.436-4.004H366.377z"/>
	<path fill="#FFFFFF" d="M372.424,9.996c0-1.428-0.027-2.548-0.111-3.668h2.184l0.141,2.24h0.055c0.674-1.261,2.24-2.521,4.48-2.521
		c1.877,0,4.789,1.12,4.789,5.769v8.063h-2.465v-7.812c0-2.185-0.812-4.005-3.137-4.005c-1.596,0-2.855,1.148-3.303,2.521
		c-0.111,0.308-0.168,0.728-0.168,1.147v8.148h-2.465V9.996z"/>
	<path fill="#FFFFFF" d="M405.577,0v16.38c0,1.204,0.057,2.576,0.111,3.5h-2.184l-0.111-2.352h-0.084
		c-0.729,1.512-2.354,2.659-4.564,2.659c-3.275,0-5.824-2.771-5.824-6.888c-0.027-4.508,2.801-7.252,6.076-7.252
		c2.1,0,3.473,0.98,4.088,2.044h0.057V0H405.577z M403.141,11.844c0-0.308-0.029-0.728-0.113-1.036
		c-0.363-1.54-1.707-2.828-3.555-2.828c-2.549,0-4.061,2.24-4.061,5.208c0,2.744,1.371,5.013,4.004,5.013
		c1.652,0,3.164-1.12,3.611-2.94c0.084-0.336,0.113-0.672,0.113-1.063V11.844z"/>
	<path fill="#FFFFFF" d="M411.065,13.552c0.055,3.332,2.156,4.704,4.646,4.704c1.766,0,2.857-0.308,3.754-0.7l0.447,1.765
		c-0.869,0.392-2.381,0.867-4.537,0.867c-4.172,0-6.662-2.771-6.662-6.859s2.406-7.28,6.355-7.28c4.451,0,5.6,3.864,5.6,6.356
		c0,0.504-0.027,0.867-0.084,1.147H411.065z M418.288,11.788c0.029-1.54-0.643-3.977-3.416-3.977c-2.52,0-3.584,2.269-3.779,3.977
		H418.288z"/>
	<path fill="#FFFFFF" d="M429.319,17.388c0.756,0.448,2.045,0.952,3.277,0.952c1.764,0,2.604-0.868,2.604-2.016
		c0-1.177-0.701-1.792-2.492-2.464c-2.465-0.896-3.611-2.213-3.611-3.837c0-2.184,1.791-3.976,4.676-3.976
		c1.371,0,2.576,0.364,3.303,0.84l-0.588,1.792c-0.531-0.336-1.512-0.812-2.771-0.812c-1.455,0-2.24,0.84-2.24,1.848
		c0,1.12,0.785,1.624,2.549,2.324c2.324,0.868,3.555,2.044,3.555,4.06c0,2.408-1.875,4.088-5.039,4.088
		c-1.484,0-2.855-0.392-3.809-0.951L429.319,17.388z"/>
	<path fill="#FFFFFF" d="M452.083,16.156c0,1.428,0.029,2.659,0.113,3.724h-2.186l-0.139-2.212h-0.057
		c-0.615,1.092-2.072,2.52-4.48,2.52c-2.127,0-4.676-1.203-4.676-5.936V6.328h2.465v7.476c0,2.576,0.812,4.34,3.023,4.34
		c1.652,0,2.801-1.147,3.248-2.268c0.141-0.336,0.225-0.784,0.225-1.26V6.328h2.463V16.156z"/>
	<path fill="#FFFFFF" d="M456.17,0h2.436v8.512h0.057c0.869-1.512,2.436-2.464,4.621-2.464c3.387,0,5.738,2.8,5.738,6.888
		c0,4.845-3.078,7.252-6.104,7.252c-1.959,0-3.527-0.756-4.564-2.52h-0.055l-0.141,2.212h-2.1c0.057-0.924,0.111-2.296,0.111-3.5V0z
		 M458.606,14.448c0,0.308,0.029,0.615,0.113,0.896c0.447,1.708,1.904,2.884,3.695,2.884c2.604,0,4.117-2.1,4.117-5.208
		c0-2.716-1.4-5.04-4.061-5.04c-1.652,0-3.221,1.177-3.725,3.024c-0.084,0.308-0.141,0.644-0.141,1.036V14.448z"/>
	<path fill="#FFFFFF" d="M471.766,17.388c0.756,0.448,2.045,0.952,3.277,0.952c1.764,0,2.604-0.868,2.604-2.016
		c0-1.177-0.701-1.792-2.492-2.464c-2.465-0.896-3.611-2.213-3.611-3.837c0-2.184,1.791-3.976,4.676-3.976
		c1.371,0,2.576,0.364,3.303,0.84l-0.588,1.792c-0.531-0.336-1.512-0.812-2.771-0.812c-1.455,0-2.24,0.84-2.24,1.848
		c0,1.12,0.785,1.624,2.549,2.324c2.324,0.868,3.555,2.044,3.555,4.06c0,2.408-1.875,4.088-5.039,4.088
		c-1.484,0-2.855-0.392-3.809-0.951L471.766,17.388z"/>
	<path fill="#FFFFFF" d="M485.934,2.52c0,0.841-0.588,1.513-1.568,1.513c-0.895,0-1.482-0.672-1.482-1.513
		c0-0.84,0.615-1.54,1.539-1.54C485.319,0.979,485.934,1.652,485.934,2.52z M483.19,19.88V6.328h2.465V19.88H483.19z"/>
	<path fill="#FFFFFF" d="M501.418,0v16.38c0,1.204,0.057,2.576,0.111,3.5h-2.184l-0.111-2.352h-0.084
		c-0.729,1.512-2.354,2.659-4.564,2.659c-3.275,0-5.824-2.771-5.824-6.888c-0.027-4.508,2.801-7.252,6.076-7.252
		c2.1,0,3.473,0.98,4.088,2.044h0.057V0H501.418z M498.983,11.844c0-0.308-0.029-0.728-0.113-1.036
		c-0.363-1.54-1.707-2.828-3.555-2.828c-2.549,0-4.061,2.24-4.061,5.208c0,2.744,1.371,5.013,4.004,5.013
		c1.652,0,3.164-1.12,3.611-2.94c0.084-0.336,0.113-0.672,0.113-1.063V11.844z"/>
	<path fill="#FFFFFF" d="M508.278,2.52c0,0.841-0.588,1.513-1.568,1.513c-0.895,0-1.482-0.672-1.482-1.513
		c0-0.84,0.615-1.54,1.539-1.54C507.663,0.979,508.278,1.652,508.278,2.52z M505.534,19.88V6.328h2.465V19.88H505.534z"/>
	<path fill="#FFFFFF" d="M524.35,12.992c0,5.012-3.5,7.195-6.748,7.195c-3.641,0-6.496-2.688-6.496-6.972
		c0-4.508,2.996-7.168,6.721-7.168C521.717,6.048,524.35,8.876,524.35,12.992z M513.625,13.132c0,2.968,1.68,5.208,4.088,5.208
		c2.354,0,4.117-2.212,4.117-5.264c0-2.296-1.148-5.181-4.061-5.181C514.885,7.896,513.625,10.584,513.625,13.132z"/>
	<path fill="#FFFFFF" d="M527.122,17.388c0.756,0.448,2.045,0.952,3.277,0.952c1.764,0,2.604-0.868,2.604-2.016
		c0-1.177-0.701-1.792-2.492-2.464c-2.465-0.896-3.611-2.213-3.611-3.837c0-2.184,1.791-3.976,4.676-3.976
		c1.371,0,2.576,0.364,3.303,0.84L534.29,8.68c-0.531-0.336-1.512-0.812-2.771-0.812c-1.455,0-2.24,0.84-2.24,1.848
		c0,1.12,0.785,1.624,2.549,2.324c2.324,0.868,3.555,2.044,3.555,4.06c0,2.408-1.875,4.088-5.039,4.088
		c-1.484,0-2.855-0.392-3.809-0.951L527.122,17.388z"/>
	<path fill="#FFFFFF" d="M556.157,0v16.38c0,1.204,0.057,2.576,0.113,3.5h-2.186l-0.111-2.352h-0.084
		c-0.729,1.512-2.352,2.659-4.564,2.659c-3.275,0-5.822-2.771-5.822-6.888c-0.029-4.508,2.799-7.252,6.074-7.252
		c2.102,0,3.473,0.98,4.088,2.044h0.057V0H556.157z M553.721,11.844c0-0.308-0.027-0.728-0.111-1.036
		c-0.365-1.54-1.709-2.828-3.557-2.828c-2.547,0-4.061,2.24-4.061,5.208c0,2.744,1.373,5.013,4.004,5.013
		c1.652,0,3.164-1.12,3.613-2.94c0.084-0.336,0.111-0.672,0.111-1.063V11.844z"/>
	<path fill="#FFFFFF" d="M561.645,13.552c0.057,3.332,2.156,4.704,4.648,4.704c1.764,0,2.855-0.308,3.752-0.7l0.447,1.765
		c-0.867,0.392-2.379,0.867-4.535,0.867c-4.172,0-6.664-2.771-6.664-6.859s2.408-7.28,6.355-7.28c4.453,0,5.6,3.864,5.6,6.356
		c0,0.504-0.027,0.867-0.084,1.147H561.645z M568.87,11.788c0.027-1.54-0.645-3.977-3.416-3.977c-2.52,0-3.584,2.269-3.779,3.977
		H568.87z"/>
	<path fill="#FFFFFF" d="M15.456,39.928l2.66,7.588c0.447,1.26,0.812,2.38,1.092,3.5h0.084c0.308-1.12,0.7-2.24,1.147-3.5
		l2.633-7.588h2.575l-5.319,13.552h-2.353l-5.151-13.552H15.456z"/>
	<path fill="#FFFFFF" d="M30.716,36.119c0,0.841-0.588,1.513-1.568,1.513c-0.896,0-1.483-0.672-1.483-1.513
		c0-0.84,0.615-1.54,1.54-1.54C30.1,34.579,30.716,35.252,30.716,36.119z M27.972,53.479V39.928h2.464v13.552H27.972z"/>
	<path fill="#FFFFFF" d="M35.476,39.928l2.66,7.588c0.447,1.26,0.812,2.38,1.092,3.5h0.084c0.308-1.12,0.7-2.24,1.147-3.5
		l2.633-7.588h2.575l-5.319,13.552h-2.353l-5.151-13.552H35.476z"/>
	<path fill="#FFFFFF" d="M50.735,36.119c0,0.841-0.588,1.513-1.568,1.513c-0.896,0-1.483-0.672-1.483-1.513
		c0-0.84,0.615-1.54,1.54-1.54C50.119,34.579,50.735,35.252,50.735,36.119z M47.991,53.479V39.928h2.464v13.552H47.991z"/>
	<path fill="#FFFFFF" d="M55.915,47.151c0.056,3.332,2.156,4.704,4.648,4.704c1.764,0,2.855-0.308,3.752-0.7l0.447,1.765
		c-0.868,0.392-2.38,0.867-4.536,0.867c-4.172,0-6.663-2.771-6.663-6.859s2.407-7.28,6.355-7.28c4.452,0,5.6,3.864,5.6,6.356
		c0,0.504-0.027,0.867-0.084,1.147H55.915z M63.139,45.388c0.028-1.54-0.644-3.977-3.416-3.977c-2.52,0-3.584,2.269-3.779,3.977
		H63.139z"/>
	<path fill="#FFFFFF" d="M68.57,43.596c0-1.428-0.028-2.548-0.112-3.668h2.185l0.14,2.24h0.056c0.673-1.261,2.24-2.521,4.48-2.521
		c1.876,0,4.788,1.12,4.788,5.769v8.063h-2.464v-7.812c0-2.185-0.812-4.005-3.137-4.005c-1.596,0-2.855,1.148-3.304,2.521
		c-0.111,0.308-0.168,0.728-0.168,1.147v8.148H68.57V43.596z"/>
	<path fill="#FFFFFF" d="M95.786,33.6v16.38c0,1.204,0.057,2.576,0.112,3.5h-2.185l-0.111-2.352h-0.084
		c-0.729,1.512-2.353,2.659-4.564,2.659c-3.275,0-5.823-2.771-5.823-6.888c-0.028-4.508,2.8-7.252,6.075-7.252
		c2.101,0,3.473,0.98,4.088,2.044h0.057V33.6H95.786z M93.351,45.443c0-0.308-0.028-0.728-0.112-1.036
		c-0.364-1.54-1.708-2.828-3.556-2.828c-2.548,0-4.061,2.24-4.061,5.208c0,2.744,1.372,5.013,4.004,5.013
		c1.652,0,3.164-1.12,3.612-2.94c0.084-0.336,0.112-0.672,0.112-1.063V45.443z"/>
	<path fill="#FFFFFF" d="M109.422,50.231c0,1.176,0.057,2.324,0.196,3.248h-2.212l-0.196-1.708h-0.084
		c-0.756,1.064-2.212,2.016-4.144,2.016c-2.744,0-4.144-1.932-4.144-3.892c0-3.276,2.911-5.068,8.147-5.04v-0.28
		c0-1.092-0.308-3.136-3.08-3.107c-1.288,0-2.604,0.364-3.556,1.008l-0.561-1.652c1.12-0.699,2.772-1.176,4.48-1.176
		c4.144,0,5.151,2.828,5.151,5.516V50.231z M107.042,46.563c-2.688-0.056-5.739,0.42-5.739,3.052c0,1.624,1.063,2.353,2.296,2.353
		c1.792,0,2.939-1.12,3.332-2.269c0.084-0.279,0.111-0.56,0.111-0.784V46.563z"/>
	<path fill="#FFFFFF" d="M111.803,56.951c0.616-1.68,1.372-4.676,1.68-6.72l2.744-0.28c-0.672,2.38-1.904,5.488-2.688,6.805
		L111.803,56.951z"/>
	<path fill="#FFFFFF" d="M125.13,33.6h2.464v19.88h-2.464V33.6z"/>
	<path fill="#FFFFFF" d="M141.257,50.231c0,1.176,0.057,2.324,0.196,3.248h-2.212l-0.196-1.708h-0.084
		c-0.756,1.064-2.212,2.016-4.144,2.016c-2.744,0-4.144-1.932-4.144-3.892c0-3.276,2.911-5.068,8.147-5.04v-0.28
		c0-1.092-0.308-3.136-3.08-3.107c-1.288,0-2.604,0.364-3.556,1.008l-0.561-1.652c1.12-0.699,2.772-1.176,4.48-1.176
		c4.144,0,5.151,2.828,5.151,5.516V50.231z M138.877,46.563c-2.688-0.056-5.739,0.42-5.739,3.052c0,1.624,1.063,2.353,2.296,2.353
		c1.792,0,2.939-1.12,3.332-2.269c0.084-0.279,0.111-0.56,0.111-0.784V46.563z"/>
	<path fill="#FFFFFF" d="M152.541,47.151c0.056,3.332,2.156,4.704,4.647,4.704c1.765,0,2.856-0.308,3.753-0.7l0.447,1.765
		c-0.868,0.392-2.38,0.867-4.536,0.867c-4.172,0-6.663-2.771-6.663-6.859s2.407-7.28,6.355-7.28c4.452,0,5.6,3.864,5.6,6.356
		c0,0.504-0.027,0.867-0.084,1.147H152.541z M159.765,45.388c0.028-1.54-0.644-3.977-3.416-3.977c-2.52,0-3.584,2.269-3.779,3.977
		H159.765z"/>
	<path fill="#FFFFFF" d="M166.261,39.928l1.932,2.912c0.532,0.756,0.952,1.428,1.4,2.184h0.056c0.448-0.784,0.896-1.484,1.372-2.212
		l1.876-2.884h2.688l-4.62,6.552l4.732,7h-2.771l-2.017-3.052c-0.532-0.784-0.979-1.54-1.456-2.353h-0.056
		c-0.448,0.812-0.896,1.54-1.428,2.353l-1.96,3.052h-2.717l4.816-6.916l-4.592-6.636H166.261z"/>
	<path fill="#FFFFFF" d="M179.028,47.151c0.056,3.332,2.156,4.704,4.648,4.704c1.764,0,2.855-0.308,3.752-0.7l0.447,1.765
		c-0.868,0.392-2.38,0.867-4.536,0.867c-4.172,0-6.663-2.771-6.663-6.859s2.407-7.28,6.355-7.28c4.452,0,5.6,3.864,5.6,6.356
		c0,0.504-0.027,0.867-0.084,1.147H179.028z M186.252,45.388c0.028-1.54-0.644-3.977-3.416-3.977c-2.52,0-3.584,2.269-3.779,3.977
		H186.252z"/>
	<path fill="#FFFFFF" d="M191.684,43.596c0-1.428-0.028-2.548-0.112-3.668h2.185l0.14,2.24h0.056c0.673-1.261,2.24-2.521,4.48-2.521
		c1.876,0,4.788,1.12,4.788,5.769v8.063h-2.464v-7.812c0-2.185-0.812-4.005-3.137-4.005c-1.596,0-2.855,1.148-3.304,2.521
		c-0.111,0.308-0.168,0.728-0.168,1.147v8.148h-2.464V43.596z"/>
	<path fill="#FFFFFF" d="M216.884,53.004c-0.645,0.308-2.072,0.783-3.893,0.783c-4.088,0-6.747-2.771-6.747-6.916
		c0-4.172,2.855-7.224,7.279-7.224c1.456,0,2.744,0.364,3.416,0.729l-0.56,1.876c-0.588-0.309-1.513-0.645-2.856-0.645
		c-3.107,0-4.788,2.324-4.788,5.124c0,3.136,2.017,5.068,4.704,5.068c1.4,0,2.324-0.336,3.024-0.645L216.884,53.004z"/>
	<path fill="#FFFFFF" d="M222.512,36.119c0,0.841-0.588,1.513-1.568,1.513c-0.896,0-1.483-0.672-1.483-1.513
		c0-0.84,0.615-1.54,1.54-1.54C221.896,34.579,222.512,35.252,222.512,36.119z M219.768,53.479V39.928h2.464v13.552H219.768z"/>
	<path fill="#FFFFFF" d="M238.583,46.592c0,5.012-3.5,7.195-6.748,7.195c-3.64,0-6.495-2.688-6.495-6.972
		c0-4.508,2.995-7.168,6.72-7.168C235.951,39.647,238.583,42.476,238.583,46.592z M227.859,46.731c0,2.968,1.68,5.208,4.088,5.208
		c2.353,0,4.116-2.212,4.116-5.264c0-2.296-1.148-5.181-4.061-5.181C229.119,41.495,227.859,44.184,227.859,46.731z M235.644,34.075
		l-3.416,4.004h-1.736l2.437-4.004H235.644z"/>
	<path fill="#FFFFFF" d="M241.691,43.596c0-1.428-0.028-2.548-0.112-3.668h2.185l0.14,2.24h0.056c0.673-1.261,2.24-2.521,4.48-2.521
		c1.876,0,4.788,1.12,4.788,5.769v8.063h-2.464v-7.812c0-2.185-0.812-4.005-3.137-4.005c-1.596,0-2.855,1.148-3.304,2.521
		c-0.111,0.308-0.168,0.728-0.168,1.147v8.148h-2.464V43.596z"/>
	<path fill="#FFFFFF" d="M274.843,33.6v16.38c0,1.204,0.057,2.576,0.112,3.5h-2.185l-0.111-2.352h-0.084
		c-0.729,1.512-2.353,2.659-4.564,2.659c-3.275,0-5.823-2.771-5.823-6.888c-0.028-4.508,2.8-7.252,6.075-7.252
		c2.101,0,3.473,0.98,4.088,2.044h0.057V33.6H274.843z M272.407,45.443c0-0.308-0.028-0.728-0.112-1.036
		c-0.364-1.54-1.708-2.828-3.556-2.828c-2.548,0-4.061,2.24-4.061,5.208c0,2.744,1.372,5.013,4.004,5.013
		c1.652,0,3.164-1.12,3.612-2.94c0.084-0.336,0.112-0.672,0.112-1.063V45.443z"/>
	<path fill="#FFFFFF" d="M280.331,47.151c0.056,3.332,2.156,4.704,4.648,4.704c1.764,0,2.855-0.308,3.752-0.7l0.447,1.765
		c-0.868,0.392-2.38,0.867-4.536,0.867c-4.172,0-6.663-2.771-6.663-6.859s2.407-7.28,6.355-7.28c4.452,0,5.6,3.864,5.6,6.356
		c0,0.504-0.027,0.867-0.084,1.147H280.331z M287.555,45.388c0.028-1.54-0.644-3.977-3.416-3.977c-2.52,0-3.584,2.269-3.779,3.977
		H287.555z"/>
	<path fill="#FFFFFF" d="M298.922,33.6h2.464v19.88h-2.464V33.6z"/>
	<path fill="#FFFFFF" d="M315.049,50.231c0,1.176,0.057,2.324,0.196,3.248h-2.212l-0.196-1.708h-0.084
		c-0.756,1.064-2.212,2.016-4.144,2.016c-2.744,0-4.144-1.932-4.144-3.892c0-3.276,2.911-5.068,8.147-5.04v-0.28
		c0-1.092-0.308-3.136-3.08-3.107c-1.288,0-2.604,0.364-3.556,1.008l-0.561-1.652c1.12-0.699,2.772-1.176,4.48-1.176
		c4.144,0,5.151,2.828,5.151,5.516V50.231z M312.669,46.563c-2.688-0.056-5.739,0.42-5.739,3.052c0,1.624,1.063,2.353,2.296,2.353
		c1.792,0,2.939-1.12,3.332-2.269c0.084-0.279,0.111-0.56,0.111-0.784V46.563z"/>
	<path fill="#FFFFFF" d="M318.689,50.987c0.756,0.448,2.044,0.952,3.276,0.952c1.764,0,2.604-0.868,2.604-2.016
		c0-1.177-0.7-1.792-2.492-2.464c-2.464-0.896-3.611-2.213-3.611-3.837c0-2.184,1.792-3.976,4.676-3.976
		c1.372,0,2.576,0.364,3.304,0.84l-0.588,1.792c-0.532-0.336-1.512-0.812-2.772-0.812c-1.455,0-2.239,0.84-2.239,1.848
		c0,1.12,0.784,1.624,2.548,2.324c2.324,0.868,3.556,2.044,3.556,4.06c0,2.408-1.876,4.088-5.04,4.088
		c-1.483,0-2.855-0.392-3.808-0.951L318.689,50.987z"/>
	<path fill="#FFFFFF" d="M336.049,44.155c0-1.596-0.028-2.968-0.112-4.228h2.156l0.112,2.688h0.084
		c0.616-1.819,2.128-2.968,3.78-2.968c0.252,0,0.447,0.028,0.672,0.056v2.324c-0.252-0.056-0.504-0.056-0.84-0.056
		c-1.736,0-2.968,1.288-3.304,3.136c-0.056,0.336-0.084,0.756-0.084,1.148v7.224h-2.464V44.155z"/>
	<path fill="#FFFFFF" d="M346.297,47.151c0.057,3.332,2.156,4.704,4.648,4.704c1.764,0,2.855-0.308,3.752-0.7l0.447,1.765
		c-0.867,0.392-2.379,0.867-4.535,0.867c-4.172,0-6.664-2.771-6.664-6.859s2.408-7.28,6.355-7.28c4.453,0,5.6,3.864,5.6,6.356
		c0,0.504-0.027,0.867-0.084,1.147H346.297z M353.522,45.388c0.027-1.54-0.645-3.977-3.416-3.977c-2.52,0-3.584,2.269-3.779,3.977
		H353.522z"/>
	<path fill="#FFFFFF" d="M358.618,50.987c0.756,0.448,2.043,0.952,3.275,0.952c1.764,0,2.604-0.868,2.604-2.016
		c0-1.177-0.699-1.792-2.492-2.464c-2.463-0.896-3.611-2.213-3.611-3.837c0-2.184,1.793-3.976,4.676-3.976
		c1.373,0,2.576,0.364,3.305,0.84l-0.588,1.792c-0.533-0.336-1.512-0.812-2.773-0.812c-1.455,0-2.238,0.84-2.238,1.848
		c0,1.12,0.783,1.624,2.547,2.324c2.324,0.868,3.557,2.044,3.557,4.06c0,2.408-1.877,4.088-5.041,4.088
		c-1.482,0-2.855-0.392-3.807-0.951L358.618,50.987z"/>
	<path fill="#FFFFFF" d="M373.008,36.68v3.248h3.529v1.876h-3.529v7.308c0,1.68,0.477,2.632,1.85,2.632
		c0.672,0,1.062-0.056,1.428-0.168l0.111,1.876c-0.477,0.168-1.232,0.336-2.184,0.336c-1.148,0-2.072-0.392-2.66-1.035
		c-0.672-0.757-0.953-1.961-0.953-3.557v-7.392h-2.1v-1.876h2.1v-2.521L373.008,36.68z"/>
	<path fill="#FFFFFF" d="M379.309,44.155c0-1.596-0.029-2.968-0.113-4.228h2.156l0.113,2.688h0.084
		c0.615-1.819,2.127-2.968,3.779-2.968c0.252,0,0.447,0.028,0.672,0.056v2.324c-0.252-0.056-0.504-0.056-0.84-0.056
		c-1.736,0-2.969,1.288-3.305,3.136c-0.055,0.336-0.084,0.756-0.084,1.148v7.224h-2.463V44.155z"/>
	<path fill="#FFFFFF" d="M391.321,36.119c0,0.841-0.588,1.513-1.568,1.513c-0.896,0-1.484-0.672-1.484-1.513
		c0-0.84,0.615-1.54,1.541-1.54C390.704,34.579,391.321,35.252,391.321,36.119z M388.577,53.479V39.928h2.463v13.552H388.577z"/>
	<path fill="#FFFFFF" d="M404.788,53.004c-0.645,0.308-2.072,0.783-3.893,0.783c-4.088,0-6.746-2.771-6.746-6.916
		c0-4.172,2.855-7.224,7.279-7.224c1.455,0,2.744,0.364,3.416,0.729l-0.561,1.876c-0.588-0.309-1.512-0.645-2.855-0.645
		c-3.107,0-4.789,2.324-4.789,5.124c0,3.136,2.018,5.068,4.705,5.068c1.4,0,2.324-0.336,3.023-0.645L404.788,53.004z"/>
	<path fill="#FFFFFF" d="M417.165,53.004c-0.645,0.308-2.072,0.783-3.893,0.783c-4.088,0-6.748-2.771-6.748-6.916
		c0-4.172,2.855-7.224,7.279-7.224c1.457,0,2.744,0.364,3.416,0.729l-0.559,1.876c-0.588-0.309-1.514-0.645-2.857-0.645
		c-3.107,0-4.787,2.324-4.787,5.124c0,3.136,2.016,5.068,4.703,5.068c1.4,0,2.324-0.336,3.025-0.645L417.165,53.004z"/>
	<path fill="#FFFFFF" d="M422.792,36.119c0,0.841-0.588,1.513-1.568,1.513c-0.895,0-1.482-0.672-1.482-1.513
		c0-0.84,0.615-1.54,1.539-1.54C422.176,34.579,422.792,35.252,422.792,36.119z M420.047,53.479V39.928h2.465v13.552H420.047z"/>
	<path fill="#FFFFFF" d="M438.864,46.592c0,5.012-3.5,7.195-6.748,7.195c-3.641,0-6.496-2.688-6.496-6.972
		c0-4.508,2.996-7.168,6.721-7.168C436.231,39.647,438.864,42.476,438.864,46.592z M428.139,46.731c0,2.968,1.68,5.208,4.088,5.208
		c2.354,0,4.117-2.212,4.117-5.264c0-2.296-1.148-5.181-4.061-5.181C429.399,41.495,428.139,44.184,428.139,46.731z"/>
	<path fill="#FFFFFF" d="M441.971,43.596c0-1.428-0.027-2.548-0.111-3.668h2.184l0.141,2.24h0.055
		c0.674-1.261,2.24-2.521,4.48-2.521c1.877,0,4.789,1.12,4.789,5.769v8.063h-2.465v-7.812c0-2.185-0.812-4.005-3.137-4.005
		c-1.596,0-2.855,1.148-3.303,2.521c-0.111,0.308-0.168,0.728-0.168,1.147v8.148h-2.465V43.596z"/>
	<path fill="#FFFFFF" d="M458.883,47.151c0.057,3.332,2.156,4.704,4.648,4.704c1.764,0,2.855-0.308,3.752-0.7l0.447,1.765
		c-0.867,0.392-2.379,0.867-4.535,0.867c-4.172,0-6.664-2.771-6.664-6.859s2.408-7.28,6.355-7.28c4.453,0,5.6,3.864,5.6,6.356
		c0,0.504-0.027,0.867-0.084,1.147H458.883z M466.108,45.388c0.027-1.54-0.645-3.977-3.416-3.977c-2.52,0-3.584,2.269-3.779,3.977
		H466.108z"/>
	<path fill="#FFFFFF" d="M471.204,50.987c0.756,0.448,2.043,0.952,3.275,0.952c1.764,0,2.604-0.868,2.604-2.016
		c0-1.177-0.699-1.792-2.492-2.464c-2.463-0.896-3.611-2.213-3.611-3.837c0-2.184,1.793-3.976,4.676-3.976
		c1.373,0,2.576,0.364,3.305,0.84l-0.588,1.792c-0.533-0.336-1.512-0.812-2.773-0.812c-1.455,0-2.238,0.84-2.238,1.848
		c0,1.12,0.783,1.624,2.547,2.324c2.324,0.868,3.557,2.044,3.557,4.06c0,2.408-1.877,4.088-5.041,4.088
		c-1.482,0-2.855-0.392-3.807-0.951L471.204,50.987z"/>
	<path fill="#FFFFFF" d="M500.239,33.6v16.38c0,1.204,0.057,2.576,0.111,3.5h-2.184l-0.111-2.352h-0.084
		c-0.729,1.512-2.354,2.659-4.564,2.659c-3.275,0-5.824-2.771-5.824-6.888c-0.027-4.508,2.801-7.252,6.076-7.252
		c2.1,0,3.473,0.98,4.088,2.044h0.057V33.6H500.239z M497.803,45.443c0-0.308-0.029-0.728-0.113-1.036
		c-0.363-1.54-1.707-2.828-3.555-2.828c-2.549,0-4.061,2.24-4.061,5.208c0,2.744,1.371,5.013,4.004,5.013
		c1.652,0,3.164-1.12,3.611-2.94c0.084-0.336,0.113-0.672,0.113-1.063V45.443z"/>
	<path fill="#FFFFFF" d="M505.727,47.151c0.055,3.332,2.156,4.704,4.646,4.704c1.766,0,2.857-0.308,3.754-0.7l0.447,1.765
		c-0.869,0.392-2.381,0.867-4.537,0.867c-4.172,0-6.662-2.771-6.662-6.859s2.406-7.28,6.355-7.28c4.451,0,5.6,3.864,5.6,6.356
		c0,0.504-0.027,0.867-0.084,1.147H505.727z M512.95,45.388c0.029-1.54-0.643-3.977-3.416-3.977c-2.52,0-3.584,2.269-3.779,3.977
		H512.95z"/>
	<path fill="#FFFFFF" d="M533.977,53.004c-0.645,0.308-2.072,0.783-3.893,0.783c-4.088,0-6.746-2.771-6.746-6.916
		c0-4.172,2.855-7.224,7.279-7.224c1.455,0,2.744,0.364,3.416,0.729l-0.561,1.876c-0.588-0.309-1.512-0.645-2.855-0.645
		c-3.107,0-4.789,2.324-4.789,5.124c0,3.136,2.018,5.068,4.705,5.068c1.4,0,2.324-0.336,3.023-0.645L533.977,53.004z"/>
	<path fill="#FFFFFF" d="M539.606,36.119c0,0.841-0.588,1.513-1.568,1.513c-0.896,0-1.484-0.672-1.484-1.513
		c0-0.84,0.615-1.54,1.541-1.54C538.989,34.579,539.606,35.252,539.606,36.119z M536.862,53.479V39.928h2.463v13.552H536.862z"/>
	<path fill="#FFFFFF" d="M543.413,44.155c0-1.596-0.027-2.968-0.111-4.228h2.156l0.111,2.688h0.084
		c0.617-1.819,2.129-2.968,3.779-2.968c0.254,0,0.449,0.028,0.674,0.056v2.324c-0.252-0.056-0.504-0.056-0.842-0.056
		c-1.734,0-2.967,1.288-3.303,3.136c-0.057,0.336-0.084,0.756-0.084,1.148v7.224h-2.465V44.155z"/>
	<path fill="#FFFFFF" d="M558.282,45.023v1.792h-6.916v-1.792H558.282z"/>
	<path fill="#FFFFFF" d="M10.64,86.604c-0.645,0.308-2.072,0.783-3.893,0.783C2.659,87.388,0,84.616,0,80.472
		c0-4.172,2.855-7.224,7.279-7.224c1.456,0,2.744,0.364,3.416,0.729l-0.56,1.876c-0.588-0.309-1.513-0.645-2.856-0.645
		c-3.107,0-4.788,2.324-4.788,5.124c0,3.136,2.017,5.068,4.704,5.068c1.4,0,2.324-0.336,3.024-0.645L10.64,86.604z"/>
	<path fill="#FFFFFF" d="M24.863,83.356c0,1.428,0.028,2.659,0.112,3.724h-2.185l-0.14-2.212h-0.056
		c-0.616,1.092-2.072,2.52-4.48,2.52c-2.128,0-4.676-1.204-4.676-5.936v-7.924h2.464v7.476c0,2.576,0.812,4.34,3.024,4.34
		c1.651,0,2.8-1.147,3.248-2.268c0.14-0.336,0.224-0.784,0.224-1.26v-8.288h2.464V83.356z"/>
	<path fill="#FFFFFF" d="M28.951,67.2h2.464v19.88h-2.464V67.2z"/>
	<path fill="#FFFFFF" d="M45.078,83.832c0,1.176,0.057,2.324,0.196,3.248h-2.212l-0.196-1.708h-0.084
		c-0.756,1.064-2.212,2.016-4.144,2.016c-2.744,0-4.144-1.932-4.144-3.892c0-3.276,2.911-5.068,8.147-5.04v-0.28
		c0-1.092-0.308-3.136-3.08-3.107c-1.288,0-2.604,0.363-3.556,1.008l-0.561-1.652c1.12-0.699,2.772-1.176,4.48-1.176
		c4.144,0,5.151,2.828,5.151,5.516V83.832z M42.698,80.164c-2.688-0.056-5.739,0.42-5.739,3.052c0,1.624,1.063,2.353,2.296,2.353
		c1.792,0,2.939-1.12,3.332-2.269c0.084-0.279,0.111-0.56,0.111-0.784V80.164z"/>
	<path fill="#FFFFFF" d="M58.715,86.604c-0.645,0.308-2.072,0.783-3.893,0.783c-4.088,0-6.747-2.771-6.747-6.916
		c0-4.172,2.855-7.224,7.279-7.224c1.456,0,2.744,0.364,3.416,0.729l-0.56,1.876c-0.588-0.309-1.513-0.645-2.856-0.645
		c-3.107,0-4.788,2.324-4.788,5.124c0,3.136,2.017,5.068,4.704,5.068c1.4,0,2.324-0.336,3.024-0.645L58.715,86.604z"/>
	<path fill="#FFFFFF" d="M64.343,69.72c0,0.841-0.588,1.513-1.568,1.513c-0.896,0-1.483-0.672-1.483-1.513
		c0-0.84,0.615-1.54,1.54-1.54C63.727,68.18,64.343,68.853,64.343,69.72z M61.599,87.08V73.528h2.464V87.08H61.599z"/>
	<path fill="#FFFFFF" d="M80.414,80.192c0,5.012-3.5,7.195-6.748,7.195c-3.64,0-6.495-2.688-6.495-6.972
		c0-4.508,2.995-7.168,6.72-7.168C77.782,73.248,80.414,76.076,80.414,80.192z M69.69,80.332c0,2.968,1.68,5.208,4.088,5.208
		c2.353,0,4.116-2.212,4.116-5.264c0-2.296-1.148-5.181-4.061-5.181C70.95,75.096,69.69,77.784,69.69,80.332z M77.475,67.676
		l-3.416,4.004h-1.736l2.437-4.004H77.475z"/>
	<path fill="#FFFFFF" d="M83.522,77.196c0-1.428-0.028-2.548-0.112-3.668h2.185l0.14,2.24h0.056c0.673-1.261,2.24-2.521,4.48-2.521
		c1.876,0,4.788,1.12,4.788,5.768v8.064h-2.464v-7.812c0-2.185-0.812-4.005-3.137-4.005c-1.596,0-2.855,1.148-3.304,2.521
		c-0.111,0.308-0.168,0.728-0.168,1.147v8.148h-2.464V77.196z"/>
	<path fill="#FFFFFF" d="M116.674,67.2v16.38c0,1.204,0.057,2.576,0.112,3.5h-2.184l-0.112-2.352h-0.084
		c-0.729,1.512-2.353,2.659-4.564,2.659c-3.275,0-5.823-2.771-5.823-6.888c-0.028-4.508,2.8-7.252,6.075-7.252
		c2.101,0,3.473,0.98,4.088,2.044h0.057V67.2H116.674z M114.238,79.044c0-0.308-0.028-0.728-0.112-1.036
		c-0.364-1.54-1.708-2.828-3.556-2.828c-2.548,0-4.061,2.24-4.061,5.208c0,2.744,1.372,5.013,4.004,5.013
		c1.652,0,3.164-1.12,3.612-2.94c0.084-0.336,0.112-0.672,0.112-1.063V79.044z"/>
	<path fill="#FFFFFF" d="M122.162,80.752c0.056,3.332,2.156,4.704,4.647,4.704c1.765,0,2.856-0.308,3.753-0.7l0.447,1.765
		c-0.868,0.392-2.38,0.867-4.536,0.867c-4.172,0-6.663-2.771-6.663-6.859s2.407-7.28,6.355-7.28c4.452,0,5.6,3.864,5.6,6.356
		c0,0.504-0.027,0.867-0.084,1.147H122.162z M129.386,78.988c0.028-1.54-0.644-3.977-3.416-3.977c-2.52,0-3.584,2.269-3.779,3.977
		H129.386z"/>
	<path fill="#FFFFFF" d="M141.705,73.528l2.66,7.588c0.447,1.26,0.812,2.38,1.092,3.5h0.084c0.308-1.12,0.7-2.24,1.147-3.5
		l2.633-7.588h2.575l-5.319,13.552h-2.353l-5.151-13.552H141.705z"/>
	<path fill="#FFFFFF" d="M155.312,80.752c0.056,3.332,2.156,4.704,4.647,4.704c1.765,0,2.856-0.308,3.753-0.7l0.447,1.765
		c-0.868,0.392-2.38,0.867-4.536,0.867c-4.172,0-6.663-2.771-6.663-6.859s2.407-7.28,6.355-7.28c4.452,0,5.6,3.864,5.6,6.356
		c0,0.504-0.027,0.867-0.084,1.147H155.312z M162.536,78.988c0.028-1.54-0.644-3.977-3.416-3.977c-2.52,0-3.584,2.269-3.779,3.977
		H162.536z"/>
	<path fill="#FFFFFF" d="M167.968,67.2h2.464v8.484h0.057c0.392-0.7,1.008-1.345,1.764-1.765c0.728-0.42,1.596-0.672,2.52-0.672
		c1.82,0,4.732,1.12,4.732,5.768v8.064h-2.464v-7.784c0-2.184-0.812-4.004-3.137-4.004c-1.596,0-2.827,1.12-3.304,2.437
		c-0.14,0.363-0.168,0.728-0.168,1.176v8.176h-2.464V67.2z"/>
	<path fill="#FFFFFF" d="M188.52,67.676l-3.416,4.004h-1.735l2.464-4.004H188.52z M183.508,87.08V73.528h2.464V87.08H183.508z"/>
	<path fill="#FFFFFF" d="M199.72,86.604c-0.645,0.308-2.072,0.783-3.893,0.783c-4.088,0-6.747-2.771-6.747-6.916
		c0-4.172,2.855-7.224,7.279-7.224c1.456,0,2.744,0.364,3.416,0.729l-0.56,1.876c-0.588-0.309-1.513-0.645-2.856-0.645
		c-3.107,0-4.788,2.324-4.788,5.124c0,3.136,2.017,5.068,4.704,5.068c1.4,0,2.324-0.336,3.024-0.645L199.72,86.604z"/>
	<path fill="#FFFFFF" d="M213.943,83.356c0,1.428,0.028,2.659,0.112,3.724h-2.185l-0.14-2.212h-0.056
		c-0.616,1.092-2.072,2.52-4.48,2.52c-2.128,0-4.676-1.204-4.676-5.936v-7.924h2.464v7.476c0,2.576,0.812,4.34,3.024,4.34
		c1.651,0,2.8-1.147,3.248-2.268c0.14-0.336,0.224-0.784,0.224-1.26v-8.288h2.464V83.356z"/>
	<path fill="#FFFFFF" d="M218.031,67.2h2.464v19.88h-2.464V67.2z"/>
	<path fill="#FFFFFF" d="M236.902,80.192c0,5.012-3.5,7.195-6.748,7.195c-3.64,0-6.495-2.688-6.495-6.972
		c0-4.508,2.995-7.168,6.72-7.168C234.271,73.248,236.902,76.076,236.902,80.192z M226.179,80.332c0,2.968,1.68,5.208,4.088,5.208
		c2.353,0,4.116-2.212,4.116-5.264c0-2.296-1.148-5.181-4.061-5.181C227.438,75.096,226.179,77.784,226.179,80.332z"/>
	<path fill="#FFFFFF" d="M239.675,84.588c0.756,0.448,2.044,0.952,3.276,0.952c1.764,0,2.604-0.868,2.604-2.016
		c0-1.177-0.7-1.792-2.492-2.464c-2.464-0.896-3.611-2.213-3.611-3.836c0-2.185,1.792-3.977,4.676-3.977
		c1.372,0,2.576,0.364,3.304,0.84l-0.588,1.792c-0.532-0.336-1.512-0.812-2.772-0.812c-1.455,0-2.239,0.84-2.239,1.848
		c0,1.12,0.784,1.624,2.548,2.324c2.324,0.868,3.556,2.044,3.556,4.06c0,2.408-1.876,4.088-5.04,4.088
		c-1.483,0-2.855-0.392-3.808-0.951L239.675,84.588z"/>
	<path fill="#FFFFFF" d="M249.195,90.552c0.616-1.68,1.372-4.676,1.68-6.72l2.744-0.28c-0.672,2.38-1.904,5.488-2.688,6.805
		L249.195,90.552z"/>
	<path fill="#FFFFFF" d="M262.522,67.2h2.464v19.88h-2.464V67.2z"/>
	<path fill="#FFFFFF" d="M278.649,83.832c0,1.176,0.057,2.324,0.196,3.248h-2.212l-0.196-1.708h-0.084
		c-0.756,1.064-2.212,2.016-4.144,2.016c-2.744,0-4.144-1.932-4.144-3.892c0-3.276,2.911-5.068,8.147-5.04v-0.28
		c0-1.092-0.308-3.136-3.08-3.107c-1.288,0-2.604,0.363-3.556,1.008l-0.561-1.652c1.12-0.699,2.772-1.176,4.48-1.176
		c4.144,0,5.151,2.828,5.151,5.516V83.832z M276.27,80.164c-2.688-0.056-5.739,0.42-5.739,3.052c0,1.624,1.063,2.353,2.296,2.353
		c1.792,0,2.939-1.12,3.332-2.269c0.084-0.279,0.111-0.56,0.111-0.784V80.164z"/>
	<path fill="#FFFFFF" d="M288.226,84.588c0.756,0.448,2.044,0.952,3.276,0.952c1.764,0,2.604-0.868,2.604-2.016
		c0-1.177-0.7-1.792-2.492-2.464c-2.464-0.896-3.611-2.213-3.611-3.836c0-2.185,1.792-3.977,4.676-3.977
		c1.372,0,2.576,0.364,3.304,0.84l-0.588,1.792c-0.532-0.336-1.512-0.812-2.772-0.812c-1.455,0-2.239,0.84-2.239,1.848
		c0,1.12,0.784,1.624,2.548,2.324c2.324,0.868,3.556,2.044,3.556,4.06c0,2.408-1.876,4.088-5.04,4.088
		c-1.483,0-2.855-0.392-3.808-0.951L288.226,84.588z"/>
	<path fill="#FFFFFF" d="M311.913,80.192c0,5.012-3.5,7.195-6.748,7.195c-3.64,0-6.495-2.688-6.495-6.972
		c0-4.508,2.995-7.168,6.72-7.168C309.281,73.248,311.913,76.076,311.913,80.192z M301.189,80.332c0,2.968,1.68,5.208,4.088,5.208
		c2.353,0,4.116-2.212,4.116-5.264c0-2.296-1.148-5.181-4.061-5.181C302.449,75.096,301.189,77.784,301.189,80.332z"/>
	<path fill="#FFFFFF" d="M315.021,67.2h2.464v19.88h-2.464V67.2z"/>
	<path fill="#FFFFFF" d="M324.373,69.72c0,0.841-0.588,1.513-1.568,1.513c-0.896,0-1.483-0.672-1.483-1.513
		c0-0.84,0.615-1.54,1.54-1.54C323.757,68.18,324.373,68.853,324.373,69.72z M321.629,87.08V73.528h2.464V87.08H321.629z"/>
	<path fill="#FFFFFF" d="M337.841,86.604c-0.645,0.308-2.072,0.783-3.893,0.783c-4.088,0-6.747-2.771-6.747-6.916
		c0-4.172,2.855-7.224,7.279-7.224c1.456,0,2.744,0.364,3.416,0.729l-0.56,1.876c-0.588-0.309-1.513-0.645-2.856-0.645
		c-3.107,0-4.788,2.324-4.788,5.124c0,3.136,2.017,5.068,4.704,5.068c1.4,0,2.324-0.336,3.024-0.645L337.841,86.604z"/>
	<path fill="#FFFFFF" d="M343.469,69.72c0,0.841-0.588,1.513-1.568,1.513c-0.896,0-1.484-0.672-1.484-1.513
		c0-0.84,0.615-1.54,1.541-1.54C342.852,68.18,343.469,68.853,343.469,69.72z M340.725,87.08V73.528h2.463V87.08H340.725z"/>
	<path fill="#FFFFFF" d="M350.245,70.28v3.248h3.527v1.876h-3.527v7.308c0,1.681,0.477,2.632,1.848,2.632
		c0.672,0,1.064-0.056,1.428-0.168l0.113,1.876c-0.477,0.168-1.232,0.336-2.186,0.336c-1.146,0-2.072-0.392-2.66-1.035
		c-0.672-0.757-0.951-1.96-0.951-3.557v-7.392h-2.1v-1.876h2.1v-2.521L350.245,70.28z"/>
	<path fill="#FFFFFF" d="M367.883,83.356c0,1.428,0.029,2.659,0.113,3.724h-2.186l-0.139-2.212h-0.057
		c-0.615,1.092-2.072,2.52-4.48,2.52c-2.127,0-4.676-1.204-4.676-5.936v-7.924h2.465v7.476c0,2.576,0.812,4.34,3.023,4.34
		c1.652,0,2.801-1.147,3.248-2.268c0.141-0.336,0.225-0.784,0.225-1.26v-8.288h2.463V83.356z"/>
	<path fill="#FFFFFF" d="M383.647,67.2v16.38c0,1.204,0.057,2.576,0.113,3.5h-2.186l-0.111-2.352h-0.084
		c-0.729,1.512-2.352,2.659-4.564,2.659c-3.275,0-5.822-2.771-5.822-6.888c-0.029-4.508,2.799-7.252,6.074-7.252
		c2.102,0,3.473,0.98,4.088,2.044h0.057V67.2H383.647z M381.211,79.044c0-0.308-0.027-0.728-0.111-1.036
		c-0.365-1.54-1.709-2.828-3.557-2.828c-2.547,0-4.061,2.24-4.061,5.208c0,2.744,1.373,5.013,4.004,5.013
		c1.652,0,3.164-1.12,3.613-2.94c0.084-0.336,0.111-0.672,0.111-1.063V79.044z"/>
	<path fill="#FFFFFF" d="M405.375,67.2v16.38c0,1.204,0.057,2.576,0.111,3.5h-2.184l-0.111-2.352h-0.084
		c-0.729,1.512-2.354,2.659-4.564,2.659c-3.275,0-5.824-2.771-5.824-6.888c-0.027-4.508,2.801-7.252,6.076-7.252
		c2.1,0,3.473,0.98,4.088,2.044h0.057V67.2H405.375z M402.94,79.044c0-0.308-0.029-0.728-0.113-1.036
		c-0.363-1.54-1.707-2.828-3.555-2.828c-2.549,0-4.061,2.24-4.061,5.208c0,2.744,1.371,5.013,4.004,5.013
		c1.652,0,3.164-1.12,3.611-2.94c0.084-0.336,0.113-0.672,0.113-1.063V79.044z"/>
	<path fill="#FFFFFF" d="M410.864,80.752c0.055,3.332,2.156,4.704,4.646,4.704c1.766,0,2.857-0.308,3.754-0.7l0.447,1.765
		c-0.869,0.392-2.381,0.867-4.537,0.867c-4.172,0-6.662-2.771-6.662-6.859s2.406-7.28,6.355-7.28c4.451,0,5.6,3.864,5.6,6.356
		c0,0.504-0.027,0.867-0.084,1.147H410.864z M418.086,78.988c0.029-1.54-0.643-3.977-3.416-3.977c-2.52,0-3.584,2.269-3.779,3.977
		H418.086z"/>
	<path fill="#FFFFFF" d="M438.973,83.832c0,1.176,0.057,2.324,0.197,3.248h-2.213l-0.195-1.708h-0.084
		c-0.756,1.064-2.213,2.016-4.145,2.016c-2.744,0-4.143-1.932-4.143-3.892c0-3.276,2.91-5.068,8.146-5.04v-0.28
		c0-1.092-0.307-3.136-3.08-3.107c-1.287,0-2.604,0.363-3.555,1.008l-0.561-1.652c1.119-0.699,2.771-1.176,4.48-1.176
		c4.143,0,5.15,2.828,5.15,5.516V83.832z M436.594,80.164c-2.688-0.056-5.74,0.42-5.74,3.052c0,1.624,1.064,2.353,2.297,2.353
		c1.791,0,2.939-1.12,3.332-2.269c0.084-0.279,0.111-0.56,0.111-0.784V80.164z"/>
	<path fill="#FFFFFF" d="M439.618,91.056c1.148-0.084,2.1-0.392,2.689-1.063c0.672-0.756,0.951-1.82,0.951-5.068V73.528h2.465
		v12.348c0,2.632-0.422,4.34-1.625,5.572c-1.092,1.092-2.885,1.54-4.199,1.54L439.618,91.056z M446.002,69.72
		c0,0.812-0.561,1.513-1.568,1.513c-0.896,0-1.484-0.7-1.484-1.513c0-0.84,0.617-1.54,1.541-1.54S446.002,68.88,446.002,69.72z"/>
	<path fill="#FFFFFF" d="M461.094,83.356c0,1.428,0.027,2.659,0.111,3.724h-2.184l-0.141-2.212h-0.055
		c-0.617,1.092-2.072,2.52-4.48,2.52c-2.129,0-4.676-1.204-4.676-5.936v-7.924h2.463v7.476c0,2.576,0.812,4.34,3.025,4.34
		c1.65,0,2.799-1.147,3.248-2.268c0.139-0.336,0.223-0.784,0.223-1.26v-8.288h2.465V83.356z"/>
	<path fill="#FFFFFF" d="M464.846,84.588c0.756,0.448,2.043,0.952,3.275,0.952c1.764,0,2.604-0.868,2.604-2.016
		c0-1.177-0.699-1.792-2.492-2.464c-2.463-0.896-3.611-2.213-3.611-3.836c0-2.185,1.793-3.977,4.676-3.977
		c1.373,0,2.576,0.364,3.305,0.84l-0.588,1.792c-0.533-0.336-1.512-0.812-2.773-0.812c-1.455,0-2.238,0.84-2.238,1.848
		c0,1.12,0.783,1.624,2.547,2.324c2.324,0.868,3.557,2.044,3.557,4.06c0,2.408-1.877,4.088-5.041,4.088
		c-1.482,0-2.855-0.392-3.807-0.951L464.846,84.588z"/>
	<path fill="#FFFFFF" d="M479.237,70.28v3.248h3.529v1.876h-3.529v7.308c0,1.681,0.477,2.632,1.85,2.632
		c0.672,0,1.062-0.056,1.428-0.168l0.111,1.876c-0.477,0.168-1.232,0.336-2.184,0.336c-1.148,0-2.072-0.392-2.66-1.035
		c-0.672-0.757-0.953-1.96-0.953-3.557v-7.392h-2.1v-1.876h2.1v-2.521L479.237,70.28z"/>
	<path fill="#FFFFFF" d="M486.741,80.752c0.057,3.332,2.156,4.704,4.648,4.704c1.764,0,2.855-0.308,3.752-0.7l0.447,1.765
		c-0.867,0.392-2.379,0.867-4.535,0.867c-4.172,0-6.664-2.771-6.664-6.859s2.408-7.28,6.355-7.28c4.453,0,5.6,3.864,5.6,6.356
		c0,0.504-0.027,0.867-0.084,1.147H486.741z M493.965,78.988c0.027-1.54-0.645-3.977-3.416-3.977c-2.52,0-3.584,2.269-3.779,3.977
		H493.965z"/>
	<path fill="#FFFFFF" d="M499.061,84.588c0.756,0.448,2.043,0.952,3.275,0.952c1.764,0,2.604-0.868,2.604-2.016
		c0-1.177-0.699-1.792-2.492-2.464c-2.463-0.896-3.611-2.213-3.611-3.836c0-2.185,1.793-3.977,4.676-3.977
		c1.373,0,2.576,0.364,3.305,0.84l-0.588,1.792c-0.533-0.336-1.512-0.812-2.773-0.812c-1.455,0-2.238,0.84-2.238,1.848
		c0,1.12,0.783,1.624,2.547,2.324c2.324,0.868,3.557,2.044,3.557,4.06c0,2.408-1.877,4.088-5.041,4.088
		c-1.482,0-2.855-0.392-3.807-0.951L499.061,84.588z"/>
	<path fill="#FFFFFF" d="M516.42,77.756c0-1.596-0.029-2.968-0.113-4.228h2.156l0.113,2.688h0.084
		c0.615-1.819,2.127-2.968,3.779-2.968c0.252,0,0.447,0.028,0.672,0.056v2.324c-0.252-0.056-0.504-0.056-0.84-0.056
		c-1.736,0-2.969,1.288-3.305,3.136c-0.055,0.336-0.084,0.756-0.084,1.148v7.224h-2.463V77.756z"/>
	<path fill="#FFFFFF" d="M534.956,83.832c0,1.176,0.057,2.324,0.197,3.248h-2.213l-0.195-1.708h-0.084
		c-0.756,1.064-2.213,2.016-4.145,2.016c-2.744,0-4.143-1.932-4.143-3.892c0-3.276,2.91-5.068,8.146-5.04v-0.28
		c0-1.092-0.307-3.136-3.08-3.107c-1.287,0-2.604,0.363-3.555,1.008l-0.561-1.652c1.119-0.699,2.771-1.176,4.48-1.176
		c4.143,0,5.15,2.828,5.15,5.516V83.832z M532.577,80.164c-2.688-0.056-5.74,0.42-5.74,3.052c0,1.624,1.064,2.353,2.297,2.353
		c1.791,0,2.939-1.12,3.332-2.269c0.084-0.279,0.111-0.56,0.111-0.784V80.164z"/>
	<path fill="#FFFFFF" d="M537.393,85.652l6.104-7.98c0.615-0.756,1.176-1.399,1.793-2.128v-0.056h-7.336v-1.96h10.303v1.54
		l-6.047,7.868c-0.588,0.756-1.121,1.456-1.736,2.128v0.056h7.895v1.96h-10.975V85.652z"/>
	<path fill="#FFFFFF" d="M562.985,80.192c0,5.012-3.5,7.195-6.748,7.195c-3.641,0-6.496-2.688-6.496-6.972
		c0-4.508,2.996-7.168,6.721-7.168C560.352,73.248,562.985,76.076,562.985,80.192z M552.26,80.332c0,2.968,1.68,5.208,4.088,5.208
		c2.354,0,4.117-2.212,4.117-5.264c0-2.296-1.148-5.181-4.061-5.181C553.52,75.096,552.26,77.784,552.26,80.332z"/>
	<path fill="#FFFFFF" d="M571.805,78.624v1.792h-6.916v-1.792H571.805z"/>
	<path fill="#FFFFFF" d="M41.733,110.796c0-1.428-0.028-2.548-0.112-3.668h2.185l0.14,2.24h0.056c0.673-1.261,2.24-2.521,4.48-2.521
		c1.876,0,4.788,1.12,4.788,5.768v8.064h-2.464v-7.812c0-2.185-0.812-4.005-3.137-4.005c-1.596,0-2.855,1.148-3.304,2.521
		c-0.111,0.308-0.168,0.728-0.168,1.147v8.148h-2.464V110.796z"/>
	<path fill="#FFFFFF" d="M66.793,117.432c0,1.176,0.057,2.324,0.196,3.248h-2.212l-0.196-1.708h-0.084
		c-0.756,1.064-2.212,2.016-4.144,2.016c-2.744,0-4.144-1.932-4.144-3.892c0-3.276,2.911-5.068,8.147-5.04v-0.28
		c0-1.092-0.308-3.136-3.08-3.107c-1.288,0-2.604,0.363-3.556,1.008l-0.561-1.652c1.12-0.699,2.772-1.176,4.48-1.176
		c4.144,0,5.151,2.828,5.151,5.516V117.432z M64.413,113.764c-2.688-0.056-5.739,0.42-5.739,3.052c0,1.624,1.063,2.353,2.296,2.353
		c1.792,0,2.939-1.12,3.332-2.269c0.084-0.279,0.111-0.56,0.111-0.784V113.764z"/>
	<path fill="#FFFFFF" d="M70.77,100.8h2.437v8.512h0.056c0.868-1.512,2.436-2.464,4.62-2.464c3.388,0,5.739,2.8,5.739,6.888
		c0,4.845-3.079,7.252-6.104,7.252c-1.96,0-3.528-0.756-4.564-2.52h-0.056l-0.14,2.212h-2.101c0.057-0.924,0.112-2.296,0.112-3.5
		V100.8z M73.206,115.248c0,0.308,0.027,0.615,0.111,0.896c0.448,1.708,1.904,2.884,3.696,2.884c2.604,0,4.116-2.1,4.116-5.208
		c0-2.716-1.4-5.04-4.061-5.04c-1.651,0-3.22,1.177-3.724,3.024c-0.084,0.308-0.14,0.644-0.14,1.036V115.248z"/>
	<path fill="#FFFFFF" d="M86.701,100.8h2.464v19.88h-2.464V100.8z"/>
	<path fill="#FFFFFF" d="M94.681,114.352c0.056,3.332,2.156,4.704,4.648,4.704c1.764,0,2.855-0.308,3.752-0.7l0.447,1.765
		c-0.868,0.392-2.38,0.867-4.536,0.867c-4.172,0-6.663-2.771-6.663-6.859s2.407-7.28,6.355-7.28c4.452,0,5.6,3.864,5.6,6.356
		c0,0.504-0.027,0.867-0.084,1.147H94.681z M101.904,112.588c0.028-1.54-0.644-3.977-3.416-3.977c-2.52,0-3.584,2.269-3.779,3.977
		H101.904z"/>
	<path fill="#FFFFFF" d="M107,118.188c0.756,0.448,2.044,0.952,3.276,0.952c1.764,0,2.604-0.868,2.604-2.016
		c0-1.177-0.7-1.792-2.492-2.464c-2.464-0.896-3.611-2.213-3.611-3.836c0-2.185,1.792-3.977,4.676-3.977
		c1.372,0,2.576,0.364,3.304,0.84l-0.588,1.792c-0.532-0.336-1.512-0.812-2.772-0.812c-1.455,0-2.239,0.84-2.239,1.848
		c0,1.12,0.784,1.624,2.548,2.324c2.324,0.868,3.556,2.044,3.556,4.06c0,2.408-1.876,4.088-5.04,4.088
		c-1.483,0-2.855-0.392-3.808-0.951L107,118.188z"/>
	<path fill="#FFFFFF" d="M125.731,114.352c0.056,3.332,2.156,4.704,4.648,4.704c1.764,0,2.855-0.308,3.752-0.7l0.447,1.765
		c-0.868,0.392-2.38,0.867-4.536,0.867c-4.172,0-6.663-2.771-6.663-6.859s2.407-7.28,6.355-7.28c4.452,0,5.6,3.864,5.6,6.356
		c0,0.504-0.027,0.867-0.084,1.147H125.731z M132.955,112.588c0.028-1.54-0.644-3.977-3.416-3.977c-2.52,0-3.584,2.269-3.779,3.977
		H132.955z"/>
	<path fill="#FFFFFF" d="M138.387,110.796c0-1.428-0.028-2.548-0.112-3.668h2.185l0.14,2.24h0.056
		c0.673-1.261,2.24-2.521,4.48-2.521c1.876,0,4.788,1.12,4.788,5.768v8.064h-2.464v-7.812c0-2.185-0.812-4.005-3.137-4.005
		c-1.596,0-2.855,1.148-3.304,2.521c-0.111,0.308-0.168,0.728-0.168,1.147v8.148h-2.464V110.796z"/>
	<path fill="#FFFFFF" d="M159.862,100.8h2.464v19.88h-2.464V100.8z"/>
	<path fill="#FFFFFF" d="M175.989,117.432c0,1.176,0.057,2.324,0.196,3.248h-2.212l-0.196-1.708h-0.084
		c-0.756,1.064-2.212,2.016-4.144,2.016c-2.744,0-4.144-1.932-4.144-3.892c0-3.276,2.911-5.068,8.147-5.04v-0.28
		c0-1.092-0.308-3.136-3.08-3.107c-1.288,0-2.604,0.363-3.556,1.008l-0.561-1.652c1.12-0.699,2.772-1.176,4.48-1.176
		c4.144,0,5.151,2.828,5.151,5.516V117.432z M173.609,113.764c-2.688-0.056-5.739,0.42-5.739,3.052c0,1.624,1.063,2.353,2.296,2.353
		c1.792,0,2.939-1.12,3.332-2.269c0.084-0.279,0.111-0.56,0.111-0.784V113.764z"/>
	<path fill="#FFFFFF" d="M185.901,111.552c0-1.736-0.056-3.136-0.112-4.424h2.185l0.14,2.324h0.056
		c0.98-1.652,2.604-2.604,4.816-2.604c3.304,0,5.768,2.772,5.768,6.86c0,4.872-2.995,7.279-6.188,7.279
		c-1.792,0-3.36-0.783-4.172-2.128h-0.057v7.364h-2.436V111.552z M188.337,115.164c0,0.363,0.028,0.699,0.112,1.008
		c0.448,1.708,1.933,2.884,3.696,2.884c2.604,0,4.116-2.128,4.116-5.236c0-2.688-1.429-5.012-4.032-5.012
		c-1.68,0-3.276,1.176-3.724,3.024c-0.084,0.308-0.169,0.672-0.169,0.979V115.164z"/>
	<path fill="#FFFFFF" d="M201.833,111.355c0-1.596-0.028-2.968-0.112-4.228h2.156l0.112,2.688h0.084
		c0.616-1.819,2.128-2.968,3.779-2.968c0.253,0,0.448,0.028,0.673,0.056v2.324c-0.252-0.056-0.504-0.056-0.841-0.056
		c-1.735,0-2.968,1.288-3.304,3.136c-0.056,0.336-0.084,0.756-0.084,1.148v7.224h-2.464V111.355z"/>
	<path fill="#FFFFFF" d="M212.081,114.352c0.056,3.332,2.156,4.704,4.648,4.704c1.764,0,2.855-0.308,3.752-0.7l0.447,1.765
		c-0.868,0.392-2.38,0.867-4.536,0.867c-4.172,0-6.663-2.771-6.663-6.859s2.407-7.28,6.355-7.28c4.452,0,5.6,3.864,5.6,6.356
		c0,0.504-0.027,0.867-0.084,1.147H212.081z M219.305,112.588c0.028-1.54-0.644-3.977-3.416-3.977c-2.52,0-3.584,2.269-3.779,3.977
		H219.305z"/>
	<path fill="#FFFFFF" d="M224.4,118.188c0.756,0.448,2.044,0.952,3.276,0.952c1.764,0,2.604-0.868,2.604-2.016
		c0-1.177-0.7-1.792-2.492-2.464c-2.464-0.896-3.611-2.213-3.611-3.836c0-2.185,1.792-3.977,4.676-3.977
		c1.372,0,2.576,0.364,3.304,0.84l-0.588,1.792c-0.532-0.336-1.512-0.812-2.772-0.812c-1.455,0-2.239,0.84-2.239,1.848
		c0,1.12,0.784,1.624,2.548,2.324c2.324,0.868,3.556,2.044,3.556,4.06c0,2.408-1.876,4.088-5.04,4.088
		c-1.483,0-2.855-0.392-3.808-0.951L224.4,118.188z"/>
	<path fill="#FFFFFF" d="M237.196,114.352c0.056,3.332,2.156,4.704,4.648,4.704c1.764,0,2.855-0.308,3.752-0.7l0.447,1.765
		c-0.868,0.392-2.38,0.867-4.536,0.867c-4.172,0-6.663-2.771-6.663-6.859s2.407-7.28,6.355-7.28c4.452,0,5.6,3.864,5.6,6.356
		c0,0.504-0.027,0.867-0.084,1.147H237.196z M244.42,112.588c0.028-1.54-0.644-3.977-3.416-3.977c-2.52,0-3.584,2.269-3.779,3.977
		H244.42z"/>
	<path fill="#FFFFFF" d="M249.852,110.796c0-1.428-0.028-2.548-0.112-3.668h2.185l0.14,2.24h0.056
		c0.673-1.261,2.24-2.521,4.48-2.521c1.876,0,4.788,1.12,4.788,5.768v8.064h-2.464v-7.812c0-2.185-0.812-4.005-3.137-4.005
		c-1.596,0-2.855,1.148-3.304,2.521c-0.111,0.308-0.168,0.728-0.168,1.147v8.148h-2.464V110.796z"/>
	<path fill="#FFFFFF" d="M268.248,103.88v3.248h3.528v1.876h-3.528v7.308c0,1.681,0.477,2.632,1.849,2.632
		c0.672,0,1.063-0.056,1.428-0.168l0.112,1.876c-0.477,0.168-1.232,0.336-2.185,0.336c-1.147,0-2.072-0.392-2.66-1.035
		c-0.672-0.757-0.952-1.96-0.952-3.557v-7.392h-2.1v-1.876h2.1v-2.521L268.248,103.88z"/>
	<path fill="#FFFFFF" d="M284.067,117.432c0,1.176,0.057,2.324,0.196,3.248h-2.212l-0.196-1.708h-0.084
		c-0.756,1.064-2.212,2.016-4.144,2.016c-2.744,0-4.144-1.932-4.144-3.892c0-3.276,2.911-5.068,8.147-5.04v-0.28
		c0-1.092-0.308-3.136-3.08-3.107c-1.288,0-2.604,0.363-3.556,1.008l-0.561-1.652c1.12-0.699,2.772-1.176,4.48-1.176
		c4.144,0,5.151,2.828,5.151,5.516V117.432z M281.688,113.764c-2.688-0.056-5.739,0.42-5.739,3.052c0,1.624,1.063,2.353,2.296,2.353
		c1.792,0,2.939-1.12,3.332-2.269c0.084-0.279,0.111-0.56,0.111-0.784V113.764z"/>
	<path fill="#FFFFFF" d="M297.704,120.204c-0.645,0.308-2.072,0.783-3.893,0.783c-4.088,0-6.747-2.771-6.747-6.916
		c0-4.172,2.855-7.224,7.279-7.224c1.456,0,2.744,0.364,3.416,0.729l-0.56,1.876c-0.588-0.309-1.513-0.645-2.856-0.645
		c-3.107,0-4.788,2.324-4.788,5.124c0,3.136,2.017,5.068,4.704,5.068c1.4,0,2.324-0.336,3.024-0.645L297.704,120.204z"/>
	<path fill="#FFFFFF" d="M303.332,103.319c0,0.841-0.588,1.513-1.568,1.513c-0.896,0-1.483-0.672-1.483-1.513
		c0-0.84,0.615-1.54,1.54-1.54C302.716,101.779,303.332,102.452,303.332,103.319z M300.588,120.68v-13.552h2.464v13.552H300.588z"/>
	<path fill="#FFFFFF" d="M319.403,113.792c0,5.012-3.5,7.195-6.748,7.195c-3.64,0-6.495-2.688-6.495-6.972
		c0-4.508,2.995-7.168,6.72-7.168C316.771,106.848,319.403,109.676,319.403,113.792z M308.68,113.932
		c0,2.968,1.68,5.208,4.088,5.208c2.353,0,4.116-2.212,4.116-5.264c0-2.296-1.148-5.181-4.061-5.181
		C309.939,108.695,308.68,111.384,308.68,113.932z M316.464,101.275l-3.416,4.004h-1.736l2.437-4.004H316.464z"/>
	<path fill="#FFFFFF" d="M322.512,110.796c0-1.428-0.028-2.548-0.112-3.668h2.185l0.14,2.24h0.056
		c0.673-1.261,2.24-2.521,4.48-2.521c1.876,0,4.788,1.12,4.788,5.768v8.064h-2.464v-7.812c0-2.185-0.812-4.005-3.137-4.005
		c-1.596,0-2.855,1.148-3.304,2.521c-0.111,0.308-0.168,0.728-0.168,1.147v8.148h-2.464V110.796z"/>
	<path fill="#FFFFFF" d="M355.663,100.8v16.38c0,1.204,0.057,2.576,0.113,3.5h-2.186l-0.111-2.352h-0.084
		c-0.729,1.512-2.352,2.659-4.564,2.659c-3.275,0-5.822-2.771-5.822-6.888c-0.029-4.508,2.799-7.252,6.074-7.252
		c2.102,0,3.473,0.98,4.088,2.044h0.057V100.8H355.663z M353.227,112.644c0-0.308-0.027-0.728-0.111-1.036
		c-0.365-1.54-1.709-2.828-3.557-2.828c-2.547,0-4.061,2.24-4.061,5.208c0,2.744,1.373,5.013,4.004,5.013
		c1.652,0,3.164-1.12,3.613-2.94c0.084-0.336,0.111-0.672,0.111-1.063V112.644z"/>
	<path fill="#FFFFFF" d="M361.151,114.352c0.057,3.332,2.156,4.704,4.648,4.704c1.764,0,2.855-0.308,3.752-0.7l0.447,1.765
		c-0.867,0.392-2.379,0.867-4.535,0.867c-4.172,0-6.664-2.771-6.664-6.859s2.408-7.28,6.355-7.28c4.453,0,5.6,3.864,5.6,6.356
		c0,0.504-0.027,0.867-0.084,1.147H361.151z M368.375,112.588c0.027-1.54-0.645-3.977-3.416-3.977c-2.52,0-3.584,2.269-3.779,3.977
		H368.375z"/>
	<path fill="#FFFFFF" d="M381.114,114.352c0.057,3.332,2.156,4.704,4.648,4.704c1.764,0,2.855-0.308,3.752-0.7l0.447,1.765
		c-0.867,0.392-2.379,0.867-4.535,0.867c-4.172,0-6.664-2.771-6.664-6.859s2.408-7.28,6.355-7.28c4.453,0,5.6,3.864,5.6,6.356
		c0,0.504-0.027,0.867-0.084,1.147H381.114z M388.338,112.588c0.027-1.54-0.645-3.977-3.416-3.977c-2.52,0-3.584,2.269-3.779,3.977
		H388.338z"/>
	<path fill="#FFFFFF" d="M394.834,107.128l1.932,2.912c0.531,0.756,0.951,1.428,1.4,2.184h0.055
		c0.449-0.784,0.896-1.484,1.373-2.212l1.875-2.884h2.688l-4.619,6.552l4.732,7h-2.773l-2.016-3.052
		c-0.531-0.784-0.979-1.54-1.455-2.353h-0.057c-0.447,0.812-0.896,1.54-1.428,2.353l-1.959,3.052h-2.717l4.816-6.916l-4.592-6.636
		H394.834z"/>
	<path fill="#FFFFFF" d="M416.168,117.432c0,1.176,0.057,2.324,0.197,3.248h-2.213l-0.195-1.708h-0.084
		c-0.756,1.064-2.213,2.016-4.145,2.016c-2.744,0-4.143-1.932-4.143-3.892c0-3.276,2.91-5.068,8.146-5.04v-0.28
		c0-1.092-0.307-3.136-3.08-3.107c-1.287,0-2.604,0.363-3.555,1.008l-0.561-1.652c1.119-0.699,2.771-1.176,4.48-1.176
		c4.143,0,5.15,2.828,5.15,5.516V117.432z M413.79,113.764c-2.688-0.056-5.74,0.42-5.74,3.052c0,1.624,1.064,2.353,2.297,2.353
		c1.791,0,2.939-1.12,3.332-2.269c0.084-0.279,0.111-0.56,0.111-0.784V113.764z M415.022,101.275l-3.416,4.004h-1.736l2.436-4.004
		H415.022z"/>
	<path fill="#FFFFFF" d="M420.145,110.796c0-1.428-0.055-2.548-0.111-3.668h2.156l0.111,2.212h0.084
		c0.756-1.288,2.016-2.492,4.285-2.492c1.818,0,3.219,1.12,3.807,2.716h0.057c0.42-0.784,0.98-1.344,1.539-1.764
		c0.812-0.616,1.682-0.952,2.969-0.952c1.82,0,4.48,1.176,4.48,5.88v7.952h-2.408v-7.644c0-2.633-0.98-4.173-2.939-4.173
		c-1.43,0-2.492,1.036-2.941,2.213c-0.111,0.363-0.195,0.783-0.195,1.231v8.372h-2.408v-8.12c0-2.156-0.951-3.696-2.828-3.696
		c-1.512,0-2.66,1.232-3.051,2.465c-0.141,0.336-0.197,0.783-0.197,1.203v8.148h-2.408V110.796z"/>
	<path fill="#FFFFFF" d="M444.87,114.352c0.055,3.332,2.156,4.704,4.646,4.704c1.766,0,2.857-0.308,3.754-0.7l0.447,1.765
		c-0.869,0.392-2.381,0.867-4.537,0.867c-4.172,0-6.662-2.771-6.662-6.859s2.406-7.28,6.355-7.28c4.451,0,5.6,3.864,5.6,6.356
		c0,0.504-0.027,0.867-0.084,1.147H444.87z M452.092,112.588c0.029-1.54-0.643-3.977-3.416-3.977c-2.52,0-3.584,2.269-3.779,3.977
		H452.092z"/>
	<path fill="#FFFFFF" d="M457.524,110.796c0-1.428-0.027-2.548-0.111-3.668h2.184l0.141,2.24h0.055
		c0.674-1.261,2.24-2.521,4.48-2.521c1.877,0,4.789,1.12,4.789,5.768v8.064h-2.465v-7.812c0-2.185-0.812-4.005-3.137-4.005
		c-1.596,0-2.855,1.148-3.303,2.521c-0.111,0.308-0.168,0.728-0.168,1.147v8.148h-2.465V110.796z"/>
	<path fill="#FFFFFF" d="M474.436,114.352c0.057,3.332,2.156,4.704,4.648,4.704c1.764,0,2.855-0.308,3.752-0.7l0.447,1.765
		c-0.867,0.392-2.379,0.867-4.535,0.867c-4.172,0-6.664-2.771-6.664-6.859s2.408-7.28,6.355-7.28c4.453,0,5.6,3.864,5.6,6.356
		c0,0.504-0.027,0.867-0.084,1.147H474.436z M481.661,112.588c0.027-1.54-0.645-3.977-3.416-3.977c-2.52,0-3.584,2.269-3.779,3.977
		H481.661z"/>
	<path fill="#FFFFFF" d="M486.756,118.188c0.756,0.448,2.043,0.952,3.275,0.952c1.764,0,2.604-0.868,2.604-2.016
		c0-1.177-0.699-1.792-2.492-2.464c-2.463-0.896-3.611-2.213-3.611-3.836c0-2.185,1.793-3.977,4.676-3.977
		c1.373,0,2.576,0.364,3.305,0.84l-0.588,1.792c-0.533-0.336-1.512-0.812-2.773-0.812c-1.455,0-2.238,0.84-2.238,1.848
		c0,1.12,0.783,1.624,2.547,2.324c2.324,0.868,3.557,2.044,3.557,4.06c0,2.408-1.877,4.088-5.041,4.088
		c-1.482,0-2.855-0.392-3.807-0.951L486.756,118.188z"/>
	<path fill="#FFFFFF" d="M515.792,100.8v16.38c0,1.204,0.057,2.576,0.111,3.5h-2.184l-0.111-2.352h-0.084
		c-0.729,1.512-2.354,2.659-4.564,2.659c-3.275,0-5.824-2.771-5.824-6.888c-0.027-4.508,2.801-7.252,6.076-7.252
		c2.1,0,3.473,0.98,4.088,2.044h0.057V100.8H515.792z M513.356,112.644c0-0.308-0.029-0.728-0.113-1.036
		c-0.363-1.54-1.707-2.828-3.555-2.828c-2.549,0-4.061,2.24-4.061,5.208c0,2.744,1.371,5.013,4.004,5.013
		c1.652,0,3.164-1.12,3.611-2.94c0.084-0.336,0.113-0.672,0.113-1.063V112.644z"/>
	<path fill="#FFFFFF" d="M521.28,114.352c0.055,3.332,2.156,4.704,4.646,4.704c1.766,0,2.857-0.308,3.754-0.7l0.447,1.765
		c-0.869,0.392-2.381,0.867-4.537,0.867c-4.172,0-6.662-2.771-6.662-6.859s2.406-7.28,6.355-7.28c4.451,0,5.6,3.864,5.6,6.356
		c0,0.504-0.027,0.867-0.084,1.147H521.28z M528.502,112.588c0.029-1.54-0.643-3.977-3.416-3.977c-2.52,0-3.584,2.269-3.779,3.977
		H528.502z"/>
	<path fill="#FFFFFF" d="M13.44,145.432H6.133v6.804h8.176v2.044H3.668v-18.872h10.221v2.044H6.133v5.964h7.308V145.432z"/>
	<path fill="#FFFFFF" d="M17.052,151.787c0.756,0.448,2.044,0.952,3.276,0.952c1.764,0,2.604-0.868,2.604-2.016
		c0-1.177-0.7-1.792-2.492-2.464c-2.464-0.896-3.611-2.213-3.611-3.836c0-2.185,1.792-3.977,4.676-3.977
		c1.372,0,2.576,0.364,3.304,0.84l-0.588,1.792c-0.532-0.336-1.512-0.812-2.772-0.812c-1.455,0-2.239,0.84-2.239,1.848
		c0,1.12,0.784,1.624,2.548,2.324c2.324,0.868,3.556,2.044,3.556,4.06c0,2.408-1.876,4.088-5.04,4.088
		c-1.483,0-2.855-0.392-3.808-0.951L17.052,151.787z"/>
	<path fill="#FFFFFF" d="M31.443,137.479v3.248h3.528v1.876h-3.528v7.308c0,1.681,0.477,2.632,1.849,2.632
		c0.672,0,1.063-0.056,1.428-0.168l0.112,1.876c-0.477,0.168-1.232,0.336-2.185,0.336c-1.147,0-2.072-0.392-2.66-1.035
		c-0.672-0.757-0.952-1.96-0.952-3.557v-7.392h-2.1v-1.876h2.1v-2.521L31.443,137.479z"/>
	<path fill="#FFFFFF" d="M47.263,151.031c0,1.176,0.057,2.324,0.196,3.248h-2.212l-0.196-1.708h-0.084
		c-0.756,1.064-2.212,2.016-4.144,2.016c-2.744,0-4.144-1.932-4.144-3.892c0-3.276,2.911-5.068,8.147-5.04v-0.28
		c0-1.092-0.308-3.136-3.08-3.107c-1.288,0-2.604,0.363-3.556,1.008l-0.561-1.652c1.12-0.699,2.772-1.176,4.48-1.176
		c4.144,0,5.151,2.828,5.151,5.516V151.031z M44.883,147.363c-2.688-0.056-5.739,0.42-5.739,3.052c0,1.624,1.063,2.353,2.296,2.353
		c1.792,0,2.939-1.12,3.332-2.269c0.084-0.279,0.111-0.56,0.111-0.784V147.363z"/>
	<path fill="#FFFFFF" d="M62.915,134.399v16.38c0,1.204,0.057,2.576,0.112,3.5h-2.185l-0.111-2.352h-0.084
		c-0.729,1.512-2.353,2.659-4.564,2.659c-3.275,0-5.823-2.771-5.823-6.888c-0.028-4.508,2.8-7.252,6.075-7.252
		c2.101,0,3.473,0.98,4.088,2.044h0.057v-8.092H62.915z M60.479,146.243c0-0.308-0.028-0.728-0.112-1.036
		c-0.364-1.54-1.708-2.828-3.556-2.828c-2.548,0-4.061,2.24-4.061,5.208c0,2.744,1.372,5.013,4.004,5.013
		c1.652,0,3.164-1.12,3.612-2.94c0.084-0.336,0.112-0.672,0.112-1.063V146.243z"/>
	<path fill="#FFFFFF" d="M79.295,147.392c0,5.012-3.5,7.195-6.748,7.195c-3.64,0-6.495-2.688-6.495-6.972
		c0-4.508,2.995-7.168,6.72-7.168C76.663,140.447,79.295,143.275,79.295,147.392z M68.571,147.531c0,2.968,1.68,5.208,4.088,5.208
		c2.353,0,4.116-2.212,4.116-5.264c0-2.296-1.148-5.181-4.061-5.181C69.831,142.295,68.571,144.983,68.571,147.531z"/>
	<path fill="#FFFFFF" d="M80.136,157.751c0.616-1.68,1.372-4.676,1.68-6.72l2.744-0.28c-0.672,2.38-1.904,5.488-2.688,6.805
		L80.136,157.751z"/>
	<path fill="#FFFFFF" d="M93.463,134.399h2.464v19.88h-2.464V134.399z"/>
	<path fill="#FFFFFF" d="M112.334,147.392c0,5.012-3.5,7.195-6.748,7.195c-3.64,0-6.495-2.688-6.495-6.972
		c0-4.508,2.995-7.168,6.72-7.168C109.702,140.447,112.334,143.275,112.334,147.392z M101.61,147.531
		c0,2.968,1.68,5.208,4.088,5.208c2.353,0,4.116-2.212,4.116-5.264c0-2.296-1.148-5.181-4.061-5.181
		C102.87,142.295,101.61,144.983,101.61,147.531z"/>
	<path fill="#FFFFFF" d="M115.106,151.787c0.756,0.448,2.044,0.952,3.276,0.952c1.764,0,2.604-0.868,2.604-2.016
		c0-1.177-0.7-1.792-2.492-2.464c-2.464-0.896-3.611-2.213-3.611-3.836c0-2.185,1.792-3.977,4.676-3.977
		c1.372,0,2.576,0.364,3.304,0.84l-0.588,1.792c-0.532-0.336-1.512-0.812-2.772-0.812c-1.455,0-2.239,0.84-2.239,1.848
		c0,1.12,0.784,1.624,2.548,2.324c2.324,0.868,3.556,2.044,3.556,4.06c0,2.408-1.876,4.088-5.04,4.088
		c-1.483,0-2.855-0.392-3.808-0.951L115.106,151.787z"/>
	<path fill="#FFFFFF" d="M132.466,145.151c0-1.736-0.056-3.136-0.112-4.424h2.185l0.14,2.324h0.056
		c0.98-1.652,2.604-2.604,4.816-2.604c3.304,0,5.768,2.772,5.768,6.86c0,4.872-2.995,7.279-6.188,7.279
		c-1.792,0-3.36-0.783-4.172-2.128h-0.057v7.364h-2.436V145.151z M134.901,148.764c0,0.363,0.028,0.699,0.112,1.008
		c0.448,1.708,1.933,2.884,3.696,2.884c2.604,0,4.116-2.128,4.116-5.236c0-2.688-1.429-5.012-4.032-5.012
		c-1.68,0-3.276,1.176-3.724,3.024c-0.084,0.308-0.169,0.672-0.169,0.979V148.764z"/>
	<path fill="#FFFFFF" d="M148.397,144.955c0-1.596-0.028-2.968-0.112-4.228h2.156l0.112,2.688h0.084
		c0.616-1.819,2.128-2.968,3.779-2.968c0.253,0,0.448,0.028,0.673,0.056v2.324c-0.252-0.056-0.504-0.056-0.841-0.056
		c-1.735,0-2.968,1.288-3.304,3.136c-0.056,0.336-0.084,0.756-0.084,1.148v7.224h-2.464V144.955z"/>
	<path fill="#FFFFFF" d="M169.538,147.392c0,5.012-3.5,7.195-6.748,7.195c-3.64,0-6.495-2.688-6.495-6.972
		c0-4.508,2.995-7.168,6.72-7.168C166.906,140.447,169.538,143.275,169.538,147.392z M158.814,147.531
		c0,2.968,1.68,5.208,4.088,5.208c2.353,0,4.116-2.212,4.116-5.264c0-2.296-1.148-5.181-4.061-5.181
		C160.074,142.295,158.814,144.983,158.814,147.531z"/>
	<path fill="#FFFFFF" d="M182.307,153.804c-0.645,0.308-2.072,0.783-3.893,0.783c-4.088,0-6.747-2.771-6.747-6.916
		c0-4.172,2.855-7.224,7.279-7.224c1.456,0,2.744,0.364,3.416,0.729l-0.56,1.876c-0.588-0.309-1.513-0.645-2.856-0.645
		c-3.107,0-4.788,2.324-4.788,5.124c0,3.136,2.017,5.068,4.704,5.068c1.4,0,2.324-0.336,3.024-0.645L182.307,153.804z"/>
	<path fill="#FFFFFF" d="M186.395,147.951c0.056,3.332,2.156,4.704,4.647,4.704c1.765,0,2.856-0.308,3.753-0.7l0.447,1.765
		c-0.868,0.392-2.38,0.867-4.536,0.867c-4.172,0-6.663-2.771-6.663-6.859s2.407-7.28,6.355-7.28c4.452,0,5.6,3.864,5.6,6.356
		c0,0.504-0.027,0.867-0.084,1.147H186.395z M193.618,146.188c0.028-1.54-0.644-3.977-3.416-3.977c-2.52,0-3.584,2.269-3.779,3.977
		H193.618z"/>
	<path fill="#FFFFFF" d="M198.714,151.787c0.756,0.448,2.044,0.952,3.276,0.952c1.764,0,2.604-0.868,2.604-2.016
		c0-1.177-0.7-1.792-2.492-2.464c-2.464-0.896-3.611-2.213-3.611-3.836c0-2.185,1.792-3.977,4.676-3.977
		c1.372,0,2.576,0.364,3.304,0.84l-0.588,1.792c-0.532-0.336-1.512-0.812-2.772-0.812c-1.455,0-2.239,0.84-2.239,1.848
		c0,1.12,0.784,1.624,2.548,2.324c2.324,0.868,3.556,2.044,3.556,4.06c0,2.408-1.876,4.088-5.04,4.088
		c-1.483,0-2.855-0.392-3.808-0.951L198.714,151.787z"/>
	<path fill="#FFFFFF" d="M222.401,147.392c0,5.012-3.5,7.195-6.748,7.195c-3.64,0-6.495-2.688-6.495-6.972
		c0-4.508,2.995-7.168,6.72-7.168C219.77,140.447,222.401,143.275,222.401,147.392z M211.678,147.531
		c0,2.968,1.68,5.208,4.088,5.208c2.353,0,4.116-2.212,4.116-5.264c0-2.296-1.148-5.181-4.061-5.181
		C212.938,142.295,211.678,144.983,211.678,147.531z"/>
	<path fill="#FFFFFF" d="M225.174,151.787c0.756,0.448,2.044,0.952,3.276,0.952c1.764,0,2.604-0.868,2.604-2.016
		c0-1.177-0.7-1.792-2.492-2.464c-2.464-0.896-3.611-2.213-3.611-3.836c0-2.185,1.792-3.977,4.676-3.977
		c1.372,0,2.576,0.364,3.304,0.84l-0.588,1.792c-0.532-0.336-1.512-0.812-2.772-0.812c-1.455,0-2.239,0.84-2.239,1.848
		c0,1.12,0.784,1.624,2.548,2.324c2.324,0.868,3.556,2.044,3.556,4.06c0,2.408-1.876,4.088-5.04,4.088
		c-1.483,0-2.855-0.392-3.808-0.951L225.174,151.787z"/>
	<path fill="#FFFFFF" d="M254.209,134.399v16.38c0,1.204,0.057,2.576,0.112,3.5h-2.184l-0.112-2.352h-0.084
		c-0.729,1.512-2.353,2.659-4.564,2.659c-3.275,0-5.823-2.771-5.823-6.888c-0.028-4.508,2.8-7.252,6.075-7.252
		c2.101,0,3.473,0.98,4.088,2.044h0.057v-8.092H254.209z M251.773,146.243c0-0.308-0.028-0.728-0.112-1.036
		c-0.364-1.54-1.708-2.828-3.556-2.828c-2.548,0-4.061,2.24-4.061,5.208c0,2.744,1.372,5.013,4.004,5.013
		c1.652,0,3.164-1.12,3.612-2.94c0.084-0.336,0.112-0.672,0.112-1.063V146.243z"/>
	<path fill="#FFFFFF" d="M259.697,147.951c0.056,3.332,2.156,4.704,4.647,4.704c1.765,0,2.856-0.308,3.753-0.7l0.447,1.765
		c-0.868,0.392-2.38,0.867-4.536,0.867c-4.172,0-6.663-2.771-6.663-6.859s2.407-7.28,6.355-7.28c4.452,0,5.6,3.864,5.6,6.356
		c0,0.504-0.027,0.867-0.084,1.147H259.697z M266.921,146.188c0.028-1.54-0.644-3.977-3.416-3.977c-2.52,0-3.584,2.269-3.779,3.977
		H266.921z"/>
	<path fill="#FFFFFF" d="M281.032,136.919c0,0.841-0.588,1.513-1.568,1.513c-0.896,0-1.483-0.672-1.483-1.513
		c0-0.84,0.615-1.54,1.54-1.54C280.416,135.379,281.032,136.052,281.032,136.919z M278.288,154.279v-13.552h2.464v13.552H278.288z"
		/>
	<path fill="#FFFFFF" d="M284.84,144.396c0-1.428-0.028-2.548-0.112-3.668h2.185l0.14,2.24h0.056c0.673-1.261,2.24-2.521,4.48-2.521
		c1.876,0,4.788,1.12,4.788,5.768v8.064h-2.464v-7.812c0-2.185-0.812-4.005-3.137-4.005c-1.596,0-2.855,1.148-3.304,2.521
		c-0.111,0.308-0.168,0.728-0.168,1.147v8.148h-2.464V144.396z"/>
	<path fill="#FFFFFF" d="M310.04,153.804c-0.645,0.308-2.072,0.783-3.893,0.783c-4.088,0-6.747-2.771-6.747-6.916
		c0-4.172,2.855-7.224,7.279-7.224c1.456,0,2.744,0.364,3.416,0.729l-0.56,1.876c-0.588-0.309-1.513-0.645-2.856-0.645
		c-3.107,0-4.788,2.324-4.788,5.124c0,3.136,2.017,5.068,4.704,5.068c1.4,0,2.324-0.336,3.024-0.645L310.04,153.804z"/>
	<path fill="#FFFFFF" d="M312.924,134.399h2.464v19.88h-2.464V134.399z"/>
	<path fill="#FFFFFF" d="M330.871,150.556c0,1.428,0.028,2.659,0.112,3.724h-2.185l-0.14-2.212h-0.056
		c-0.616,1.092-2.072,2.52-4.48,2.52c-2.128,0-4.676-1.204-4.676-5.936v-7.924h2.464v7.476c0,2.576,0.812,4.34,3.024,4.34
		c1.651,0,2.8-1.147,3.248-2.268c0.14-0.336,0.224-0.784,0.224-1.26v-8.288h2.464V150.556z"/>
	<path fill="#FFFFFF" d="M334.623,151.787c0.756,0.448,2.044,0.952,3.276,0.952c1.764,0,2.604-0.868,2.604-2.016
		c0-1.177-0.7-1.792-2.492-2.464c-2.464-0.896-3.611-2.213-3.611-3.836c0-2.185,1.792-3.977,4.676-3.977
		c1.372,0,2.576,0.364,3.304,0.84l-0.588,1.792c-0.533-0.336-1.512-0.812-2.773-0.812c-1.455,0-2.239,0.84-2.239,1.848
		c0,1.12,0.784,1.624,2.548,2.324c2.324,0.868,3.556,2.044,3.556,4.06c0,2.408-1.876,4.088-5.041,4.088
		c-1.483,0-2.855-0.392-3.808-0.951L334.623,151.787z"/>
	<path fill="#FFFFFF" d="M348.792,136.919c0,0.841-0.588,1.513-1.568,1.513c-0.896,0-1.484-0.672-1.484-1.513
		c0-0.84,0.615-1.54,1.541-1.54C348.174,135.379,348.792,136.052,348.792,136.919z M346.047,154.279v-13.552h2.463v13.552H346.047z"
		/>
	<path fill="#FFFFFF" d="M364.862,147.392c0,5.012-3.5,7.195-6.748,7.195c-3.639,0-6.494-2.688-6.494-6.972
		c0-4.508,2.994-7.168,6.719-7.168C362.231,140.447,364.862,143.275,364.862,147.392z M354.139,147.531
		c0,2.968,1.68,5.208,4.088,5.208c2.352,0,4.115-2.212,4.115-5.264c0-2.296-1.148-5.181-4.061-5.181
		C355.399,142.295,354.139,144.983,354.139,147.531z M361.922,134.875l-3.416,4.004h-1.736l2.438-4.004H361.922z"/>
	<path fill="#FFFFFF" d="M367.971,144.396c0-1.428-0.029-2.548-0.113-3.668h2.186l0.139,2.24h0.057
		c0.672-1.261,2.24-2.521,4.48-2.521c1.875,0,4.787,1.12,4.787,5.768v8.064h-2.463v-7.812c0-2.185-0.812-4.005-3.137-4.005
		c-1.596,0-2.855,1.148-3.305,2.521c-0.111,0.308-0.168,0.728-0.168,1.147v8.148h-2.463V144.396z"/>
	<path fill="#FFFFFF" d="M389.446,134.399h2.465v19.88h-2.465V134.399z"/>
	<path fill="#FFFFFF" d="M405.573,151.031c0,1.176,0.057,2.324,0.197,3.248h-2.213l-0.195-1.708h-0.084
		c-0.756,1.064-2.213,2.016-4.145,2.016c-2.744,0-4.143-1.932-4.143-3.892c0-3.276,2.91-5.068,8.146-5.04v-0.28
		c0-1.092-0.307-3.136-3.08-3.107c-1.287,0-2.604,0.363-3.555,1.008l-0.561-1.652c1.119-0.699,2.771-1.176,4.48-1.176
		c4.143,0,5.15,2.828,5.15,5.516V151.031z M403.194,147.363c-2.688-0.056-5.74,0.42-5.74,3.052c0,1.624,1.064,2.353,2.297,2.353
		c1.791,0,2.939-1.12,3.332-2.269c0.084-0.279,0.111-0.56,0.111-0.784V147.363z"/>
	<path fill="#FFFFFF" d="M409.549,134.399h2.436v8.512h0.057c0.869-1.512,2.436-2.464,4.621-2.464c3.387,0,5.738,2.8,5.738,6.888
		c0,4.845-3.078,7.252-6.104,7.252c-1.959,0-3.527-0.756-4.564-2.52h-0.055l-0.141,2.212h-2.1c0.057-0.924,0.111-2.296,0.111-3.5
		V134.399z M411.985,148.848c0,0.308,0.029,0.615,0.113,0.896c0.447,1.708,1.904,2.884,3.695,2.884c2.604,0,4.117-2.1,4.117-5.208
		c0-2.716-1.4-5.04-4.061-5.04c-1.652,0-3.221,1.177-3.725,3.024c-0.084,0.308-0.141,0.644-0.141,1.036V148.848z"/>
	<path fill="#FFFFFF" d="M437.745,147.392c0,5.012-3.5,7.195-6.748,7.195c-3.639,0-6.494-2.688-6.494-6.972
		c0-4.508,2.994-7.168,6.719-7.168C435.114,140.447,437.745,143.275,437.745,147.392z M427.022,147.531
		c0,2.968,1.68,5.208,4.088,5.208c2.352,0,4.115-2.212,4.115-5.264c0-2.296-1.148-5.181-4.061-5.181
		C428.282,142.295,427.022,144.983,427.022,147.531z"/>
	<path fill="#FFFFFF" d="M440.854,144.955c0-1.596-0.029-2.968-0.113-4.228h2.156l0.113,2.688h0.084
		c0.615-1.819,2.127-2.968,3.779-2.968c0.252,0,0.447,0.028,0.672,0.056v2.324c-0.252-0.056-0.504-0.056-0.84-0.056
		c-1.736,0-2.969,1.288-3.305,3.136c-0.055,0.336-0.084,0.756-0.084,1.148v7.224h-2.463V144.955z"/>
	<path fill="#FFFFFF" d="M459.389,151.031c0,1.176,0.057,2.324,0.197,3.248h-2.213l-0.195-1.708h-0.084
		c-0.756,1.064-2.213,2.016-4.145,2.016c-2.744,0-4.143-1.932-4.143-3.892c0-3.276,2.91-5.068,8.146-5.04v-0.28
		c0-1.092-0.307-3.136-3.08-3.107c-1.287,0-2.604,0.363-3.555,1.008l-0.561-1.652c1.119-0.699,2.771-1.176,4.48-1.176
		c4.143,0,5.15,2.828,5.15,5.516V151.031z M457.01,147.363c-2.688-0.056-5.74,0.42-5.74,3.052c0,1.624,1.064,2.353,2.297,2.353
		c1.791,0,2.939-1.12,3.332-2.269c0.084-0.279,0.111-0.56,0.111-0.784V147.363z"/>
	<path fill="#FFFFFF" d="M463.366,134.399h2.465v19.88h-2.465V134.399z"/>
	<path fill="#FFFFFF" d="M476.805,140.728l2.939,8.008c0.336,0.896,0.672,1.96,0.896,2.771h0.057
		c0.252-0.812,0.531-1.848,0.867-2.827l2.688-7.952h2.605l-3.697,9.66c-1.764,4.647-2.967,7-4.646,8.483
		c-1.232,1.036-2.408,1.456-3.025,1.568l-0.615-2.044c0.615-0.196,1.428-0.588,2.156-1.204c0.672-0.532,1.484-1.484,2.072-2.744
		c0.111-0.252,0.195-0.448,0.195-0.588s-0.057-0.336-0.195-0.645l-4.984-12.487H476.805z"/>
	<path fill="#FFFFFF" d="M495.032,134.399h2.465v19.88h-2.465V134.399z"/>
	<path fill="#FFFFFF" d="M511.159,151.031c0,1.176,0.057,2.324,0.197,3.248h-2.213l-0.195-1.708h-0.084
		c-0.756,1.064-2.213,2.016-4.145,2.016c-2.744,0-4.143-1.932-4.143-3.892c0-3.276,2.91-5.068,8.146-5.04v-0.28
		c0-1.092-0.307-3.136-3.08-3.107c-1.287,0-2.604,0.363-3.555,1.008l-0.561-1.652c1.119-0.699,2.771-1.176,4.48-1.176
		c4.143,0,5.15,2.828,5.15,5.516V151.031z M508.78,147.363c-2.688-0.056-5.74,0.42-5.74,3.052c0,1.624,1.064,2.353,2.297,2.353
		c1.791,0,2.939-1.12,3.332-2.269c0.084-0.279,0.111-0.56,0.111-0.784V147.363z"/>
	<path fill="#FFFFFF" d="M521.071,145.151c0-1.736-0.055-3.136-0.111-4.424h2.184l0.141,2.324h0.055
		c0.98-1.652,2.605-2.604,4.816-2.604c3.305,0,5.768,2.772,5.768,6.86c0,4.872-2.994,7.279-6.188,7.279
		c-1.791,0-3.359-0.783-4.172-2.128h-0.057v7.364h-2.436V145.151z M523.506,148.764c0,0.363,0.029,0.699,0.113,1.008
		c0.447,1.708,1.932,2.884,3.695,2.884c2.604,0,4.117-2.128,4.117-5.236c0-2.688-1.43-5.012-4.033-5.012
		c-1.68,0-3.275,1.176-3.723,3.024c-0.084,0.308-0.17,0.672-0.17,0.979V148.764z"/>
	<path fill="#FFFFFF" d="M549.266,147.392c0,5.012-3.5,7.195-6.748,7.195c-3.639,0-6.494-2.688-6.494-6.972
		c0-4.508,2.994-7.168,6.719-7.168C546.635,140.447,549.266,143.275,549.266,147.392z M538.543,147.531
		c0,2.968,1.68,5.208,4.088,5.208c2.352,0,4.115-2.212,4.115-5.264c0-2.296-1.148-5.181-4.061-5.181
		C539.803,142.295,538.543,144.983,538.543,147.531z"/>
	<path fill="#FFFFFF" d="M552.04,151.787c0.756,0.448,2.043,0.952,3.275,0.952c1.764,0,2.604-0.868,2.604-2.016
		c0-1.177-0.699-1.792-2.492-2.464c-2.463-0.896-3.611-2.213-3.611-3.836c0-2.185,1.793-3.977,4.676-3.977
		c1.373,0,2.576,0.364,3.305,0.84l-0.588,1.792c-0.533-0.336-1.512-0.812-2.773-0.812c-1.455,0-2.238,0.84-2.238,1.848
		c0,1.12,0.783,1.624,2.547,2.324c2.324,0.868,3.557,2.044,3.557,4.06c0,2.408-1.877,4.088-5.041,4.088
		c-1.482,0-2.855-0.392-3.807-0.951L552.04,151.787z"/>
	<path fill="#FFFFFF" d="M569.174,145.823v1.792h-6.916v-1.792H569.174z"/>
	<path fill="#FFFFFF" d="M17.373,171.08v3.248h3.528v1.876h-3.528v7.308c0,1.68,0.477,2.632,1.849,2.632
		c0.672,0,1.063-0.056,1.428-0.168l0.112,1.876c-0.477,0.168-1.232,0.336-2.185,0.336c-1.147,0-2.072-0.392-2.66-1.035
		c-0.672-0.757-0.952-1.961-0.952-3.557v-7.392h-2.1v-1.876h2.1v-2.521L17.373,171.08z"/>
	<path fill="#FFFFFF" d="M35.013,184.156c0,1.428,0.028,2.659,0.112,3.724H32.94l-0.14-2.212h-0.056
		c-0.616,1.092-2.072,2.52-4.48,2.52c-2.128,0-4.676-1.203-4.676-5.936v-7.924h2.464v7.476c0,2.576,0.812,4.34,3.024,4.34
		c1.651,0,2.8-1.147,3.248-2.268c0.14-0.336,0.224-0.784,0.224-1.26v-8.288h2.464V184.156z"/>
	<path fill="#FFFFFF" d="M39.101,168h2.464v19.88h-2.464V168z"/>
	<path fill="#FFFFFF" d="M55.228,184.632c0,1.176,0.057,2.324,0.196,3.248h-2.212l-0.196-1.708h-0.084
		c-0.756,1.064-2.212,2.016-4.144,2.016c-2.744,0-4.144-1.932-4.144-3.892c0-3.276,2.911-5.068,8.147-5.04v-0.28
		c0-1.092-0.308-3.136-3.08-3.107c-1.288,0-2.604,0.364-3.556,1.008l-0.561-1.652c1.12-0.699,2.772-1.176,4.48-1.176
		c4.144,0,5.151,2.828,5.151,5.516V184.632z M52.848,180.964c-2.688-0.056-5.739,0.42-5.739,3.052c0,1.624,1.063,2.353,2.296,2.353
		c1.792,0,2.939-1.12,3.332-2.269c0.084-0.279,0.111-0.56,0.111-0.784V180.964z"/>
	<path fill="#FFFFFF" d="M68.864,187.404c-0.645,0.308-2.072,0.783-3.893,0.783c-4.088,0-6.747-2.771-6.747-6.916
		c0-4.172,2.855-7.224,7.279-7.224c1.456,0,2.744,0.364,3.416,0.729l-0.56,1.876c-0.588-0.309-1.513-0.645-2.856-0.645
		c-3.107,0-4.788,2.324-4.788,5.124c0,3.136,2.017,5.068,4.704,5.068c1.4,0,2.324-0.336,3.024-0.645L68.864,187.404z"/>
	<path fill="#FFFFFF" d="M74.492,170.52c0,0.841-0.588,1.513-1.568,1.513c-0.896,0-1.483-0.672-1.483-1.513
		c0-0.84,0.615-1.54,1.54-1.54C73.876,168.979,74.492,169.652,74.492,170.52z M71.748,187.88v-13.552h2.464v13.552H71.748z"/>
	<path fill="#FFFFFF" d="M90.563,180.992c0,5.012-3.5,7.195-6.748,7.195c-3.64,0-6.495-2.688-6.495-6.972
		c0-4.508,2.995-7.168,6.72-7.168C87.932,174.048,90.563,176.876,90.563,180.992z M79.84,181.132c0,2.968,1.68,5.208,4.088,5.208
		c2.353,0,4.116-2.212,4.116-5.264c0-2.296-1.148-5.181-4.061-5.181C81.1,175.896,79.84,178.584,79.84,181.132z M87.624,168.476
		l-3.416,4.004h-1.736l2.437-4.004H87.624z"/>
	<path fill="#FFFFFF" d="M93.672,177.996c0-1.428-0.028-2.548-0.112-3.668h2.185l0.14,2.24h0.056c0.673-1.261,2.24-2.521,4.48-2.521
		c1.876,0,4.788,1.12,4.788,5.769v8.063h-2.464v-7.812c0-2.185-0.812-4.005-3.137-4.005c-1.596,0-2.855,1.148-3.304,2.521
		c-0.111,0.308-0.168,0.728-0.168,1.147v8.148h-2.464V177.996z"/>
	<path fill="#FFFFFF" d="M124.667,184.632c0,1.176,0.057,2.324,0.196,3.248h-2.212l-0.196-1.708h-0.084
		c-0.756,1.064-2.212,2.016-4.144,2.016c-2.744,0-4.144-1.932-4.144-3.892c0-3.276,2.911-5.068,8.147-5.04v-0.28
		c0-1.092-0.308-3.136-3.08-3.107c-1.288,0-2.604,0.364-3.556,1.008l-0.561-1.652c1.12-0.699,2.772-1.176,4.48-1.176
		c4.144,0,5.151,2.828,5.151,5.516V184.632z M122.287,180.964c-2.688-0.056-5.739,0.42-5.739,3.052c0,1.624,1.063,2.353,2.296,2.353
		c1.792,0,2.939-1.12,3.332-2.269c0.084-0.279,0.111-0.56,0.111-0.784V180.964z"/>
	<path fill="#FFFFFF" d="M144.239,187.404c-0.645,0.308-2.072,0.783-3.893,0.783c-4.088,0-6.747-2.771-6.747-6.916
		c0-4.172,2.855-7.224,7.279-7.224c1.456,0,2.744,0.364,3.416,0.729l-0.56,1.876c-0.588-0.309-1.513-0.645-2.856-0.645
		c-3.107,0-4.788,2.324-4.788,5.124c0,3.136,2.017,5.068,4.704,5.068c1.4,0,2.324-0.336,3.024-0.645L144.239,187.404z"/>
	<path fill="#FFFFFF" d="M159.219,180.992c0,5.012-3.5,7.195-6.748,7.195c-3.64,0-6.495-2.688-6.495-6.972
		c0-4.508,2.995-7.168,6.72-7.168C156.587,174.048,159.219,176.876,159.219,180.992z M148.495,181.132
		c0,2.968,1.68,5.208,4.088,5.208c2.353,0,4.116-2.212,4.116-5.264c0-2.296-1.148-5.181-4.061-5.181
		C149.755,175.896,148.495,178.584,148.495,181.132z"/>
	<path fill="#FFFFFF" d="M162.327,177.996c0-1.428-0.028-2.548-0.112-3.668h2.185l0.14,2.24h0.056
		c0.673-1.261,2.24-2.521,4.48-2.521c1.876,0,4.788,1.12,4.788,5.769v8.063h-2.464v-7.812c0-2.185-0.812-4.005-3.137-4.005
		c-1.596,0-2.855,1.148-3.304,2.521c-0.111,0.308-0.168,0.728-0.168,1.147v8.148h-2.464V177.996z"/>
	<path fill="#FFFFFF" d="M187.527,187.404c-0.645,0.308-2.072,0.783-3.893,0.783c-4.088,0-6.747-2.771-6.747-6.916
		c0-4.172,2.855-7.224,7.279-7.224c1.456,0,2.744,0.364,3.416,0.729l-0.56,1.876c-0.588-0.309-1.513-0.645-2.856-0.645
		c-3.107,0-4.788,2.324-4.788,5.124c0,3.136,2.017,5.068,4.704,5.068c1.4,0,2.324-0.336,3.024-0.645L187.527,187.404z"/>
	<path fill="#FFFFFF" d="M201.751,184.156c0,1.428,0.028,2.659,0.112,3.724h-2.185l-0.14-2.212h-0.056
		c-0.616,1.092-2.072,2.52-4.48,2.52c-2.128,0-4.676-1.203-4.676-5.936v-7.924h2.464v7.476c0,2.576,0.812,4.34,3.024,4.34
		c1.651,0,2.8-1.147,3.248-2.268c0.14-0.336,0.224-0.784,0.224-1.26v-8.288h2.464V184.156z"/>
	<path fill="#FFFFFF" d="M205.839,178.556c0-1.596-0.028-2.968-0.112-4.228h2.156l0.112,2.688h0.084
		c0.616-1.819,2.128-2.968,3.779-2.968c0.253,0,0.448,0.028,0.673,0.056v2.324c-0.252-0.056-0.504-0.056-0.841-0.056
		c-1.735,0-2.968,1.288-3.304,3.136c-0.056,0.336-0.084,0.756-0.084,1.148v7.224h-2.464V178.556z"/>
	<path fill="#FFFFFF" d="M214.659,185.388c0.756,0.448,2.044,0.952,3.276,0.952c1.764,0,2.604-0.868,2.604-2.016
		c0-1.177-0.7-1.792-2.492-2.464c-2.464-0.896-3.611-2.213-3.611-3.837c0-2.184,1.792-3.976,4.676-3.976
		c1.372,0,2.576,0.364,3.304,0.84l-0.588,1.792c-0.532-0.336-1.512-0.812-2.772-0.812c-1.455,0-2.239,0.84-2.239,1.848
		c0,1.12,0.784,1.624,2.548,2.324c2.324,0.868,3.556,2.044,3.556,4.06c0,2.408-1.876,4.088-5.04,4.088
		c-1.483,0-2.855-0.392-3.808-0.951L214.659,185.388z"/>
	<path fill="#FFFFFF" d="M238.347,180.992c0,5.012-3.5,7.195-6.748,7.195c-3.64,0-6.495-2.688-6.495-6.972
		c0-4.508,2.995-7.168,6.72-7.168C235.715,174.048,238.347,176.876,238.347,180.992z M227.623,181.132
		c0,2.968,1.68,5.208,4.088,5.208c2.353,0,4.116-2.212,4.116-5.264c0-2.296-1.148-5.181-4.061-5.181
		C228.883,175.896,227.623,178.584,227.623,181.132z"/>
	<path fill="#FFFFFF" d="M241.119,185.388c0.756,0.448,2.044,0.952,3.276,0.952c1.764,0,2.604-0.868,2.604-2.016
		c0-1.177-0.7-1.792-2.492-2.464c-2.464-0.896-3.611-2.213-3.611-3.837c0-2.184,1.792-3.976,4.676-3.976
		c1.372,0,2.576,0.364,3.304,0.84l-0.588,1.792c-0.532-0.336-1.512-0.812-2.772-0.812c-1.455,0-2.239,0.84-2.239,1.848
		c0,1.12,0.784,1.624,2.548,2.324c2.324,0.868,3.556,2.044,3.556,4.06c0,2.408-1.876,4.088-5.04,4.088
		c-1.483,0-2.855-0.392-3.808-0.951L241.119,185.388z"/>
	<path fill="#FFFFFF" d="M258.479,178.752c0-1.736-0.056-3.136-0.112-4.424h2.185l0.14,2.324h0.056
		c0.98-1.652,2.604-2.604,4.816-2.604c3.304,0,5.768,2.772,5.768,6.86c0,4.872-2.995,7.279-6.188,7.279
		c-1.792,0-3.36-0.783-4.172-2.128h-0.056v7.364h-2.437V178.752z M260.915,182.364c0,0.363,0.027,0.699,0.111,1.008
		c0.448,1.708,1.933,2.884,3.696,2.884c2.604,0,4.116-2.128,4.116-5.236c0-2.688-1.429-5.012-4.032-5.012
		c-1.68,0-3.276,1.176-3.724,3.024c-0.084,0.308-0.168,0.672-0.168,0.979V182.364z"/>
	<path fill="#FFFFFF" d="M285.75,184.156c0,1.428,0.028,2.659,0.112,3.724h-2.185l-0.14-2.212h-0.056
		c-0.616,1.092-2.072,2.52-4.48,2.52c-2.128,0-4.676-1.203-4.676-5.936v-7.924h2.464v7.476c0,2.576,0.812,4.34,3.024,4.34
		c1.651,0,2.8-1.147,3.248-2.268c0.14-0.336,0.224-0.784,0.224-1.26v-8.288h2.464V184.156z M284.042,168.476l-3.416,4.004h-1.735
		l2.464-4.004H284.042z"/>
	<path fill="#FFFFFF" d="M289.838,168h2.437v8.512h0.056c0.868-1.512,2.436-2.464,4.62-2.464c3.388,0,5.739,2.8,5.739,6.888
		c0,4.845-3.079,7.252-6.104,7.252c-1.96,0-3.528-0.756-4.564-2.52h-0.056l-0.14,2.212h-2.101c0.057-0.924,0.112-2.296,0.112-3.5
		V168z M292.274,182.448c0,0.308,0.027,0.615,0.111,0.896c0.448,1.708,1.904,2.884,3.696,2.884c2.604,0,4.116-2.1,4.116-5.208
		c0-2.716-1.4-5.04-4.061-5.04c-1.651,0-3.22,1.177-3.724,3.024c-0.084,0.308-0.14,0.644-0.14,1.036V182.448z"/>
	<path fill="#FFFFFF" d="M305.77,168h2.464v19.88h-2.464V168z"/>
	<path fill="#FFFFFF" d="M315.121,170.52c0,0.841-0.588,1.513-1.568,1.513c-0.896,0-1.483-0.672-1.483-1.513
		c0-0.84,0.615-1.54,1.54-1.54C314.505,168.979,315.121,169.652,315.121,170.52z M312.377,187.88v-13.552h2.464v13.552H312.377z"/>
	<path fill="#FFFFFF" d="M328.589,187.404c-0.645,0.308-2.072,0.783-3.893,0.783c-4.088,0-6.747-2.771-6.747-6.916
		c0-4.172,2.855-7.224,7.279-7.224c1.456,0,2.744,0.364,3.416,0.729l-0.56,1.876c-0.588-0.309-1.513-0.645-2.856-0.645
		c-3.107,0-4.788,2.324-4.788,5.124c0,3.136,2.017,5.068,4.704,5.068c1.4,0,2.324-0.336,3.024-0.645L328.589,187.404z"/>
	<path fill="#FFFFFF" d="M343.569,180.992c0,5.012-3.5,7.195-6.749,7.195c-3.64,0-6.495-2.688-6.495-6.972
		c0-4.508,2.995-7.168,6.72-7.168C340.937,174.048,343.569,176.876,343.569,180.992z M332.845,181.132
		c0,2.968,1.68,5.208,4.088,5.208c2.353,0,4.116-2.212,4.116-5.264c0-2.296-1.148-5.181-4.061-5.181
		C334.104,175.896,332.845,178.584,332.845,181.132z"/>
	<path fill="#FFFFFF" d="M346.34,185.388c0.756,0.448,2.045,0.952,3.277,0.952c1.764,0,2.604-0.868,2.604-2.016
		c0-1.177-0.701-1.792-2.492-2.464c-2.465-0.896-3.611-2.213-3.611-3.837c0-2.184,1.791-3.976,4.676-3.976
		c1.371,0,2.576,0.364,3.303,0.84l-0.588,1.792c-0.531-0.336-1.512-0.812-2.771-0.812c-1.455,0-2.24,0.84-2.24,1.848
		c0,1.12,0.785,1.624,2.549,2.324c2.324,0.868,3.555,2.044,3.555,4.06c0,2.408-1.875,4.088-5.039,4.088
		c-1.484,0-2.855-0.392-3.809-0.951L346.34,185.388z"/>
	<path fill="#FFFFFF" d="M375.375,168v16.38c0,1.204,0.057,2.576,0.113,3.5h-2.186l-0.111-2.352h-0.084
		c-0.729,1.512-2.352,2.659-4.564,2.659c-3.275,0-5.822-2.771-5.822-6.888c-0.029-4.508,2.799-7.252,6.074-7.252
		c2.102,0,3.473,0.98,4.088,2.044h0.057V168H375.375z M372.94,179.844c0-0.308-0.027-0.728-0.111-1.036
		c-0.365-1.54-1.709-2.828-3.557-2.828c-2.547,0-4.061,2.24-4.061,5.208c0,2.744,1.373,5.013,4.004,5.013
		c1.652,0,3.164-1.12,3.613-2.94c0.084-0.336,0.111-0.672,0.111-1.063V179.844z"/>
	<path fill="#FFFFFF" d="M380.864,181.552c0.057,3.332,2.156,4.704,4.648,4.704c1.764,0,2.855-0.308,3.752-0.7l0.447,1.765
		c-0.867,0.392-2.379,0.867-4.535,0.867c-4.172,0-6.664-2.771-6.664-6.859s2.408-7.28,6.355-7.28c4.453,0,5.6,3.864,5.6,6.356
		c0,0.504-0.027,0.867-0.084,1.147H380.864z M388.088,179.788c0.027-1.54-0.645-3.977-3.416-3.977c-2.52,0-3.584,2.269-3.779,3.977
		H388.088z"/>
	<path fill="#FFFFFF" d="M399.456,177.996c0-1.428-0.057-2.548-0.113-3.668h2.156l0.113,2.212h0.084
		c0.756-1.288,2.016-2.492,4.283-2.492c1.82,0,3.221,1.12,3.809,2.716h0.055c0.42-0.784,0.98-1.344,1.541-1.764
		c0.812-0.616,1.68-0.952,2.967-0.952c1.82,0,4.48,1.176,4.48,5.88v7.952h-2.408v-7.644c0-2.633-0.979-4.173-2.939-4.173
		c-1.428,0-2.492,1.036-2.939,2.213c-0.113,0.363-0.197,0.783-0.197,1.231v8.372h-2.406v-8.12c0-2.156-0.953-3.696-2.828-3.696
		c-1.514,0-2.66,1.232-3.053,2.465c-0.141,0.336-0.195,0.783-0.195,1.203v8.148h-2.408V177.996z"/>
	<path fill="#FFFFFF" d="M424.178,181.552c0.057,3.332,2.156,4.704,4.648,4.704c1.764,0,2.855-0.308,3.752-0.7l0.447,1.765
		c-0.867,0.392-2.379,0.867-4.535,0.867c-4.172,0-6.664-2.771-6.664-6.859s2.408-7.28,6.355-7.28c4.453,0,5.6,3.864,5.6,6.356
		c0,0.504-0.027,0.867-0.084,1.147H424.178z M431.403,179.788c0.027-1.54-0.645-3.977-3.416-3.977c-2.52,0-3.584,2.269-3.779,3.977
		H431.403z M431.963,168.476l-3.416,4.004h-1.736l2.463-4.004H431.963z"/>
	<path fill="#FFFFFF" d="M436.834,178.556c0-1.596-0.029-2.968-0.113-4.228h2.156l0.113,2.688h0.084
		c0.615-1.819,2.127-2.968,3.779-2.968c0.252,0,0.447,0.028,0.672,0.056v2.324c-0.252-0.056-0.504-0.056-0.84-0.056
		c-1.736,0-2.969,1.288-3.305,3.136c-0.055,0.336-0.084,0.756-0.084,1.148v7.224h-2.463V178.556z"/>
	<path fill="#FFFFFF" d="M448.846,170.52c0,0.841-0.588,1.513-1.568,1.513c-0.895,0-1.482-0.672-1.482-1.513
		c0-0.84,0.615-1.54,1.539-1.54C448.231,168.979,448.846,169.652,448.846,170.52z M446.102,187.88v-13.552h2.465v13.552H446.102z"/>
	<path fill="#FFFFFF" d="M455.622,171.08v3.248h3.529v1.876h-3.529v7.308c0,1.68,0.477,2.632,1.85,2.632
		c0.672,0,1.062-0.056,1.428-0.168l0.111,1.876c-0.477,0.168-1.232,0.336-2.184,0.336c-1.148,0-2.072-0.392-2.66-1.035
		c-0.672-0.757-0.953-1.961-0.953-3.557v-7.392h-2.1v-1.876h2.1v-2.521L455.622,171.08z"/>
	<path fill="#FFFFFF" d="M474.018,180.992c0,5.012-3.5,7.195-6.748,7.195c-3.641,0-6.496-2.688-6.496-6.972
		c0-4.508,2.996-7.168,6.721-7.168C471.385,174.048,474.018,176.876,474.018,180.992z M463.293,181.132
		c0,2.968,1.68,5.208,4.088,5.208c2.354,0,4.117-2.212,4.117-5.264c0-2.296-1.148-5.181-4.061-5.181
		C464.553,175.896,463.293,178.584,463.293,181.132z"/>
	<path fill="#FFFFFF" d="M476.79,185.388c0.756,0.448,2.045,0.952,3.277,0.952c1.764,0,2.604-0.868,2.604-2.016
		c0-1.177-0.701-1.792-2.492-2.464c-2.465-0.896-3.611-2.213-3.611-3.837c0-2.184,1.791-3.976,4.676-3.976
		c1.371,0,2.576,0.364,3.303,0.84l-0.588,1.792c-0.531-0.336-1.512-0.812-2.771-0.812c-1.455,0-2.24,0.84-2.24,1.848
		c0,1.12,0.785,1.624,2.549,2.324c2.324,0.868,3.555,2.044,3.555,4.06c0,2.408-1.875,4.088-5.039,4.088
		c-1.484,0-2.855-0.392-3.809-0.951L476.79,185.388z"/>
	<path fill="#FFFFFF" d="M486.311,191.352c0.615-1.68,1.371-4.676,1.68-6.72l2.744-0.28c-0.672,2.38-1.904,5.488-2.689,6.805
		L486.311,191.352z"/>
	<path fill="#FFFFFF" d="M501.01,181.552c0.055,3.332,2.156,4.704,4.646,4.704c1.766,0,2.857-0.308,3.754-0.7l0.447,1.765
		c-0.869,0.392-2.381,0.867-4.537,0.867c-4.172,0-6.662-2.771-6.662-6.859s2.406-7.28,6.355-7.28c4.451,0,5.6,3.864,5.6,6.356
		c0,0.504-0.027,0.867-0.084,1.147H501.01z M508.233,179.788c0.029-1.54-0.643-3.977-3.416-3.977c-2.52,0-3.584,2.269-3.779,3.977
		H508.233z"/>
	<path fill="#FFFFFF" d="M513.665,177.996c0-1.428-0.027-2.548-0.111-3.668h2.184l0.141,2.24h0.055
		c0.674-1.261,2.24-2.521,4.48-2.521c1.877,0,4.789,1.12,4.789,5.769v8.063h-2.465v-7.812c0-2.185-0.812-4.005-3.137-4.005
		c-1.596,0-2.855,1.148-3.303,2.521c-0.111,0.308-0.168,0.728-0.168,1.147v8.148h-2.465V177.996z"/>
	<path fill="#FFFFFF" d="M532.061,171.08v3.248h3.527v1.876h-3.527v7.308c0,1.68,0.477,2.632,1.848,2.632
		c0.672,0,1.064-0.056,1.428-0.168l0.113,1.876c-0.477,0.168-1.232,0.336-2.186,0.336c-1.146,0-2.072-0.392-2.66-1.035
		c-0.672-0.757-0.951-1.961-0.951-3.557v-7.392h-2.1v-1.876h2.1v-2.521L532.061,171.08z"/>
	<path fill="#FFFFFF" d="M538.36,178.556c0-1.596-0.027-2.968-0.111-4.228h2.156l0.111,2.688h0.084
		c0.617-1.819,2.129-2.968,3.779-2.968c0.254,0,0.449,0.028,0.674,0.056v2.324c-0.252-0.056-0.504-0.056-0.842-0.056
		c-1.734,0-2.967,1.288-3.303,3.136c-0.057,0.336-0.084,0.756-0.084,1.148v7.224h-2.465V178.556z"/>
	<path fill="#FFFFFF" d="M548.61,181.552c0.055,3.332,2.156,4.704,4.646,4.704c1.766,0,2.857-0.308,3.754-0.7l0.447,1.765
		c-0.869,0.392-2.381,0.867-4.537,0.867c-4.172,0-6.662-2.771-6.662-6.859s2.406-7.28,6.355-7.28c4.451,0,5.6,3.864,5.6,6.356
		c0,0.504-0.027,0.867-0.084,1.147H548.61z M555.833,179.788c0.029-1.54-0.643-3.977-3.416-3.977c-2.52,0-3.584,2.269-3.779,3.977
		H555.833z"/>
	<path fill="#FFFFFF" d="M267.368,214.592c0,5.012-3.5,7.195-6.748,7.195c-3.64,0-6.495-2.688-6.495-6.972
		c0-4.508,2.995-7.168,6.72-7.168C264.736,207.647,267.368,210.476,267.368,214.592z M256.645,214.731
		c0,2.968,1.68,5.208,4.088,5.208c2.353,0,4.116-2.212,4.116-5.264c0-2.296-1.148-5.181-4.061-5.181
		C257.904,209.495,256.645,212.184,256.645,214.731z"/>
	<path fill="#FFFFFF" d="M273.444,204.68v3.248h3.528v1.876h-3.528v7.308c0,1.68,0.477,2.632,1.849,2.632
		c0.672,0,1.063-0.056,1.428-0.168l0.112,1.876c-0.477,0.168-1.232,0.336-2.185,0.336c-1.147,0-2.072-0.392-2.66-1.035
		c-0.672-0.757-0.952-1.961-0.952-3.557v-7.392h-2.1v-1.876h2.1v-2.521L273.444,204.68z"/>
	<path fill="#FFFFFF" d="M279.744,212.155c0-1.596-0.028-2.968-0.112-4.228h2.156l0.112,2.688h0.084
		c0.616-1.819,2.128-2.968,3.78-2.968c0.252,0,0.447,0.028,0.672,0.056v2.324c-0.252-0.056-0.504-0.056-0.841-0.056
		c-1.735,0-2.968,1.288-3.304,3.136c-0.056,0.336-0.084,0.756-0.084,1.148v7.224h-2.464V212.155z"/>
	<path fill="#FFFFFF" d="M300.884,214.592c0,5.012-3.5,7.195-6.748,7.195c-3.64,0-6.495-2.688-6.495-6.972
		c0-4.508,2.995-7.168,6.72-7.168C298.252,207.647,300.884,210.476,300.884,214.592z M290.16,214.731
		c0,2.968,1.68,5.208,4.088,5.208c2.353,0,4.116-2.212,4.116-5.264c0-2.296-1.148-5.181-4.061-5.181
		C291.42,209.495,290.16,212.184,290.16,214.731z"/>
	<path fill="#FFFFFF" d="M303.656,218.987c0.756,0.448,2.044,0.952,3.276,0.952c1.764,0,2.604-0.868,2.604-2.016
		c0-1.177-0.7-1.792-2.492-2.464c-2.464-0.896-3.611-2.213-3.611-3.837c0-2.184,1.792-3.976,4.676-3.976
		c1.372,0,2.576,0.364,3.304,0.84l-0.588,1.792c-0.532-0.336-1.512-0.812-2.772-0.812c-1.455,0-2.239,0.84-2.239,1.848
		c0,1.12,0.784,1.624,2.548,2.324c2.324,0.868,3.556,2.044,3.556,4.06c0,2.408-1.876,4.088-5.04,4.088
		c-1.483,0-2.855-0.392-3.808-0.951L303.656,218.987z"/>
	<path fill="#FFFFFF" d="M314.185,220.023c0-1.008,0.7-1.764,1.68-1.764c0.98,0,1.652,0.728,1.652,1.764
		c0,1.008-0.672,1.764-1.708,1.764C314.856,221.787,314.185,221.031,314.185,220.023z"/>
</g>
</svg>
